<?xml version="1.0" encoding="utf-8"?>
<!-- Generator: Adobe Illustrator 13.0.2, SVG Export Plug-In  -->
<!DOCTYPE svg PUBLIC "-//W3C//DTD SVG 1.1//EN" "http://www.w3.org/Graphics/SVG/1.1/DTD/svg11.dtd" [
	<!ENTITY ns_flows "http://ns.adobe.com/Flows/1.0/">
]>
<svg version="1.1"
	 xmlns="http://www.w3.org/2000/svg" xmlns:xlink="http://www.w3.org/1999/xlink" xmlns:a="http://ns.adobe.com/AdobeSVGViewerExtensions/3.0/"
	 x="0px" y="0px" width="159px" height="38px" viewBox="1076.281 628.942 159 38" enable-background="new 1076.281 628.942 159 38"
	 xml:space="preserve">
<defs>
</defs>
<rect display="none" fill="#0AB4F6" width="1275.591" height="708.661"/>
<path fill="#231F20" d="M1190.146,639.094v1.354h-6.264l3.904-6.636h-3.294v-1.354h5.869l-3.893,6.636H1190.146z M1188.35,630.757
	c0,0.503-0.407,0.91-0.897,0.91c-0.504,0-0.911-0.407-0.911-0.922c0-0.479,0.407-0.887,0.911-0.887
	C1187.942,629.858,1188.35,630.266,1188.35,630.757"/>
<polygon fill="#231F20" points="1190.923,632.458 1192.768,632.458 1194.492,635.236 1196.181,632.458 1198.037,632.458 
	1195.235,636.782 1195.235,640.447 1193.678,640.447 1193.678,636.782 "/>
<path fill="#231F20" d="M1204.049,634.602c-0.646-0.635-1.21-0.898-1.952-0.898c-1.474,0-2.611,1.21-2.611,2.779
	c0,1.558,1.138,2.719,2.647,2.719c0.754,0,1.281-0.239,1.916-0.874v1.833c-0.719,0.335-1.281,0.467-1.952,0.467
	c-2.359,0-4.217-1.82-4.217-4.133c0-2.335,1.881-4.216,4.217-4.216c0.707,0,1.258,0.144,1.952,0.491V634.602z"/>
<rect x="1205.651" y="632.458" fill="#231F20" width="1.558" height="7.989"/>
<polygon fill="#231F20" points="1210.622,633.812 1210.622,635.583 1213.377,635.583 1213.377,636.938 1210.622,636.938 
	1210.622,639.094 1213.484,639.094 1213.484,640.447 1209.064,640.447 1209.064,632.457 1213.484,632.457 1213.484,633.812 "/>
<polygon fill="#231F20" points="1089.368,649.871 1091.32,644.361 1092.171,644.361 1094.027,649.871 1095.943,644.433 
	1097.585,644.433 1094.578,652.578 1093.488,652.578 1091.716,647.356 1089.847,652.578 1088.757,652.578 1085.931,644.433 
	1087.571,644.433 "/>
<path fill="#231F20" d="M1102.229,646.254c-0.419-0.467-0.79-0.646-1.294-0.646c-0.635,0-1.126,0.396-1.126,0.887
	c0,0.431,0.275,0.658,1.21,1.006c0.875,0.323,1.234,0.491,1.594,0.803c0.466,0.395,0.706,0.97,0.706,1.677
	c0,1.569-1.126,2.635-2.778,2.635c-1.162,0-2.024-0.479-2.743-1.521l1.006-0.971c0.359,0.683,0.958,1.066,1.677,1.066
	s1.234-0.468,1.234-1.126c0-0.324-0.145-0.6-0.432-0.803c-0.155-0.108-0.467-0.239-1.114-0.479
	c-1.438-0.526-1.965-1.102-1.965-2.156c0-1.341,1.055-2.323,2.492-2.323c0.874,0,1.676,0.3,2.348,0.887L1102.229,646.254z
	 M1100.517,643.703l-0.646-0.587l1.652-1.594l0.994,0.814L1100.517,643.703z"/>
<path fill="#231F20" d="M1110.552,652.424h-1.917l-2.155-3.21h-0.204v3.21h-1.558v-7.99h2.312c0.887,0,1.593,0.191,2.036,0.562
	c0.491,0.407,0.79,1.09,0.79,1.797c0,0.719-0.275,1.378-0.719,1.761c-0.311,0.264-0.599,0.407-1.102,0.503L1110.552,652.424z
	 M1106.73,648.11c0.982,0,1.521-0.431,1.521-1.222c0-0.79-0.515-1.197-1.496-1.197h-0.479v2.419H1106.73z"/>
<path fill="#231F20" d="M1119.498,648.434c0,2.36-1.881,4.169-4.312,4.169c-2.396,0-4.229-1.833-4.229-4.229
	c0-2.275,1.917-4.12,4.289-4.12C1117.629,644.254,1119.498,646.086,1119.498,648.434 M1112.562,648.398
	c0,1.545,1.186,2.778,2.671,2.778c1.462,0,2.659-1.233,2.659-2.755c0-1.521-1.186-2.743-2.671-2.743
	C1113.772,645.679,1112.562,646.913,1112.562,648.398 M1115.03,643.703l-0.646-0.587l1.652-1.594l0.994,0.814L1115.03,643.703z"/>
<path fill="#231F20" d="M1120.942,644.434h2.289c1.174,0,2.108,0.299,2.863,0.922c0.898,0.73,1.425,1.869,1.425,3.067
	c0,1.186-0.538,2.323-1.449,3.078c-0.767,0.646-1.641,0.923-2.851,0.923h-2.277V644.434z M1122.92,651.069
	c1.007,0,1.642-0.191,2.133-0.635c0.539-0.479,0.862-1.246,0.862-2.012c0-0.768-0.323-1.51-0.862-1.989
	c-0.516-0.467-1.126-0.646-2.133-0.646h-0.419v5.282H1122.92z"/>
<polygon fill="#231F20" points="1136.439,644.434 1138.404,644.434 1135.026,648.123 1138.585,652.423 1136.535,652.423 
	1133.696,648.829 1133.505,649.021 1133.505,652.423 1131.947,652.423 1131.947,644.434 1133.505,644.434 1133.505,647.812 "/>
<path fill="#231F20" d="M1141.456,650.734l-0.719,1.688h-1.653l3.462-8.157h1.174l3.354,8.157h-1.664l-0.684-1.688H1141.456z
	 M1143.121,646.602l-1.162,2.875h2.275L1143.121,646.602z"/>
<polygon fill="#231F20" points="1149.276,644.29 1150.341,644.29 1152.522,649.512 1154.786,644.29 1155.864,644.29 
	1157.193,652.423 1155.625,652.423 1154.906,647.5 1152.714,652.53 1152.282,652.53 1150.162,647.5 1149.36,652.423 
	1147.791,652.423 "/>
<polygon fill="#231F20" points="1160.16,645.787 1160.16,647.56 1162.915,647.56 1162.915,648.913 1160.16,648.913 1160.16,651.069 
	1163.022,651.069 1163.022,652.423 1158.603,652.423 1158.603,644.433 1163.022,644.433 1163.022,645.787 "/>
<path fill="#231F20" d="M1170.509,652.424h-1.917l-2.155-3.21h-0.204v3.21h-1.558v-7.99h2.312c0.887,0,1.593,0.191,2.036,0.562
	c0.491,0.407,0.79,1.09,0.79,1.797c0,0.719-0.275,1.378-0.719,1.761c-0.311,0.264-0.599,0.407-1.102,0.503L1170.509,652.424z
	 M1166.688,648.11c0.982,0,1.521-0.431,1.521-1.222c0-0.79-0.515-1.197-1.496-1.197h-0.479v2.419H1166.688z"/>
<line fill="none" stroke="#231F20" stroke-width="1.916" x1="1079.905" y1="653.341" x2="1228.104" y2="646.484"/>
<polygon fill="#FFFFFF" points="1224.448,645.226 1224.448,629.661 1077,629.661 1077,666.279 1234.158,666.279 1234.158,645.226 
	"/>
<polygon fill="none" stroke="#231F20" stroke-width="1.437" points="1224.448,645.226 1224.448,629.661 1077,629.661 1077,666.279 
	1234.158,666.279 1234.158,645.226 "/>
<polygon fill="#231F20" points="1082.738,645.665 1082.738,639.3 1081.026,639.3 1081.026,638.001 1085.956,638.001 1085.956,639.3 
	1084.232,639.3 1084.232,645.665 "/>
<polygon fill="#231F20" points="1088.371,639.3 1088.371,641 1091.015,641 1091.015,642.299 1088.371,642.299 1088.371,644.366 
	1091.117,644.366 1091.117,645.665 1086.878,645.665 1086.878,638.001 1091.117,638.001 1091.117,639.3 "/>
<polygon fill="#231F20" points="1094.211,644.366 1096.565,644.366 1096.565,645.665 1092.718,645.665 1092.718,638.001 
	1094.211,638.001 "/>
<polygon fill="#231F20" points="1099.027,639.3 1099.027,641 1101.671,641 1101.671,642.299 1099.027,642.299 1099.027,644.366 
	1101.773,644.366 1101.773,645.665 1097.534,645.665 1097.534,638.001 1101.773,638.001 1101.773,639.3 "/>
<polygon fill="#231F20" points="1104.856,639.3 1104.856,641 1107.259,641 1107.259,642.299 1104.856,642.299 1104.856,645.665 
	1103.363,645.665 1103.363,638.001 1107.419,638.001 1107.419,639.3 "/>
<path fill="#231F20" d="M1116.44,641.839c0,2.264-1.804,3.998-4.137,3.998c-2.298,0-4.056-1.758-4.056-4.056
	c0-2.183,1.838-3.952,4.113-3.952C1114.647,637.829,1116.44,639.587,1116.44,641.839 M1109.788,641.805
	c0,1.482,1.137,2.665,2.562,2.665c1.401,0,2.55-1.183,2.55-2.643c0-1.459-1.138-2.631-2.562-2.631
	C1110.948,639.196,1109.788,640.38,1109.788,641.805"/>
<polygon fill="#231F20" points="1117.823,637.829 1118.857,637.829 1123.522,643.16 1123.522,638.001 1125.016,638.001 
	1125.016,645.814 1123.981,645.814 1119.316,640.483 1119.316,645.665 1117.823,645.665 "/>
<rect x="1126.824" y="638.001" fill="#231F20" width="1.493" height="7.664"/>
<path fill="#231F20" d="M1135.615,640.058c-0.62-0.608-1.16-0.861-1.873-0.861c-1.413,0-2.504,1.16-2.504,2.666
	c0,1.493,1.091,2.607,2.539,2.607c0.724,0,1.229-0.229,1.838-0.839v1.759c-0.688,0.321-1.229,0.447-1.873,0.447
	c-2.263,0-4.044-1.746-4.044-3.964c0-2.24,1.804-4.045,4.044-4.045c0.679,0,1.207,0.139,1.873,0.472V640.058z"/>
<polygon fill="#231F20" points="1142.409,644.366 1142.409,645.665 1136.4,645.665 1140.146,639.3 1136.986,639.3 1136.986,638.001 
	1142.616,638.001 1138.882,644.366 "/>
<polygon fill="#231F20" points="1143.7,637.829 1144.734,637.829 1149.399,643.16 1149.399,638.001 1150.893,638.001 
	1150.893,645.814 1149.858,645.814 1145.193,640.483 1145.193,645.665 1143.7,645.665 "/>
<path fill="#231F20" d="M1154.057,644.045l-0.689,1.62h-1.585l3.32-7.824h1.126l3.217,7.824h-1.597l-0.655-1.62H1154.057z
	 M1155.654,640.081l-1.114,2.758h2.183L1155.654,640.081z"/>
<polygon fill="#231F20" points="1167.54,638.001 1169.425,638.001 1166.185,641.54 1169.597,645.665 1167.632,645.665 
	1164.909,642.218 1164.726,642.402 1164.726,645.665 1163.231,645.665 1163.231,638.001 1164.726,638.001 1164.726,641.241 "/>
<path fill="#231F20" d="M1177.826,641.839c0,2.264-1.804,3.998-4.137,3.998c-2.298,0-4.056-1.758-4.056-4.056
	c0-2.183,1.838-3.952,4.113-3.952C1176.033,637.829,1177.826,639.587,1177.826,641.839 M1171.174,641.805
	c0,1.482,1.137,2.665,2.562,2.665c1.402,0,2.551-1.183,2.551-2.643c0-1.459-1.138-2.631-2.562-2.631
	C1172.334,639.196,1171.174,640.38,1171.174,641.805"/>
<path fill="#231F20" d="M1180.702,645.665h-1.494v-7.664h2.241c1,0,1.54,0.161,2.022,0.586c0.494,0.448,0.781,1.115,0.781,1.851
	c0,0.666-0.229,1.286-0.62,1.712c-0.437,0.459-1.058,0.678-1.966,0.678h-0.965V645.665z M1181.312,641.528
	c0.931,0,1.401-0.367,1.401-1.104c0-0.367-0.148-0.7-0.391-0.884c-0.229-0.173-0.551-0.242-1.103-0.242h-0.518v2.229H1181.312z"/>
<path fill="#231F20" d="M1186.244,644.045l-0.689,1.62h-1.585l3.32-7.824h1.126l3.217,7.824h-1.597l-0.655-1.62H1186.244z
	 M1187.842,640.081l-1.114,2.758h2.183L1187.842,640.081z"/>
<polygon fill="#231F20" points="1194.026,644.366 1196.382,644.366 1196.382,645.665 1192.533,645.665 1192.533,638.001 
	1194.026,638.001 "/>
<polygon fill="#231F20" points="1197.35,637.829 1198.384,637.829 1203.049,643.16 1203.049,638.001 1204.542,638.001 
	1204.542,645.814 1203.508,645.814 1198.843,640.483 1198.843,645.665 1197.35,645.665 "/>
<rect x="1206.351" y="638.001" fill="#231F20" width="1.492" height="7.664"/>
<path fill="#231F20" d="M1211.005,644.045l-0.689,1.62h-1.585l3.32-7.824h1.126l3.217,7.824h-1.597l-0.655-1.62H1211.005z
	 M1212.603,640.081l-1.114,2.758h2.183L1212.603,640.081z"/>
<rect x="1081.831" y="651.888" fill="#231F20" width="1.493" height="7.664"/>
<polygon fill="#231F20" points="1085.118,651.716 1086.152,651.716 1090.817,657.047 1090.817,651.888 1092.311,651.888 
	1092.311,659.701 1091.276,659.701 1086.611,654.37 1086.611,659.552 1085.118,659.552 "/>
<polygon fill="#231F20" points="1095.624,653.187 1095.624,654.887 1098.026,654.887 1098.026,656.186 1095.624,656.186 
	1095.624,659.552 1094.131,659.552 1094.131,651.888 1098.187,651.888 1098.187,653.187 "/>
<path fill="#231F20" d="M1107.209,655.726c0,2.264-1.804,3.998-4.137,3.998c-2.298,0-4.056-1.758-4.056-4.056
	c0-2.183,1.838-3.952,4.113-3.952C1105.416,651.716,1107.209,653.474,1107.209,655.726 M1100.557,655.691
	c0,1.482,1.137,2.665,2.562,2.665c1.402,0,2.551-1.183,2.551-2.643s-1.138-2.631-2.562-2.631
	C1101.717,653.083,1100.557,654.267,1100.557,655.691"/>
<path fill="#231F20" d="M1114.188,659.552h-1.839l-2.068-3.079h-0.195v3.079h-1.493v-7.664h2.218c0.85,0,1.527,0.185,1.953,0.54
	c0.471,0.391,0.758,1.046,0.758,1.724c0,0.689-0.264,1.321-0.689,1.689c-0.298,0.253-0.574,0.391-1.057,0.482L1114.188,659.552z
	 M1110.522,655.415c0.941,0,1.459-0.413,1.459-1.172c0-0.758-0.494-1.148-1.438-1.148h-0.459v2.32H1110.522z"/>
<polygon fill="#231F20" points="1116.351,651.75 1117.372,651.75 1119.465,656.76 1121.637,651.75 1122.67,651.75 1123.945,659.552 
	1122.44,659.552 1121.751,654.829 1119.648,659.655 1119.235,659.655 1117.201,654.829 1116.432,659.552 1114.926,659.552 "/>
<path fill="#231F20" d="M1126.927,657.932l-0.689,1.62h-1.585l3.32-7.824h1.126l3.217,7.824h-1.597l-0.655-1.62H1126.927z
	 M1128.524,653.968l-1.114,2.758h2.183L1128.524,653.968z"/>
<path fill="#231F20" d="M1138.409,653.944c-0.62-0.608-1.16-0.861-1.873-0.861c-1.413,0-2.504,1.16-2.504,2.666
	c0,1.493,1.091,2.607,2.539,2.607c0.724,0,1.229-0.229,1.838-0.839v1.759c-0.689,0.321-1.229,0.447-1.873,0.447
	c-2.263,0-4.044-1.746-4.044-3.964c0-2.24,1.804-4.044,4.044-4.044c0.679,0,1.207,0.138,1.873,0.471V653.944z"/>
<path fill="#231F20" d="M1142.871,657.059c0,1.057-0.207,1.7-0.679,2.148c-0.367,0.333-0.896,0.528-1.436,0.528
	c-0.689,0-1.264-0.229-1.793-0.724l0.896-1.092c0.195,0.287,0.447,0.437,0.747,0.437c0.31,0,0.562-0.172,0.666-0.459
	c0.081-0.219,0.104-0.437,0.104-1.08v-4.93h1.494V657.059z"/>
<rect x="1144.654" y="651.888" fill="#231F20" width="1.493" height="7.664"/>
<path fill="#231F20" d="M1149.526,658.793c0,0.506-0.402,0.908-0.896,0.908c-0.505,0-0.907-0.402-0.907-0.908
	c0-0.493,0.414-0.896,0.896-0.896C1149.124,657.897,1149.526,658.3,1149.526,658.793"/>
<path fill="#231F20" d="M1155.309,659.552h-1.493v-7.664h2.24c1,0,1.54,0.161,2.022,0.586c0.494,0.448,0.781,1.115,0.781,1.851
	c0,0.666-0.229,1.286-0.62,1.712c-0.437,0.459-1.058,0.678-1.965,0.678h-0.966V659.552z M1155.918,655.415
	c0.931,0,1.401-0.367,1.401-1.103c0-0.368-0.148-0.701-0.391-0.885c-0.229-0.173-0.551-0.241-1.103-0.241h-0.518v2.229H1155.918z"/>
<path fill="#231F20" d="M1165.527,659.552h-1.839l-2.068-3.079h-0.195v3.079h-1.493v-7.664h2.218c0.85,0,1.527,0.185,1.953,0.54
	c0.471,0.391,0.758,1.046,0.758,1.724c0,0.689-0.264,1.321-0.689,1.689c-0.298,0.253-0.574,0.391-1.057,0.482L1165.527,659.552z
	 M1161.862,655.415c0.941,0,1.459-0.413,1.459-1.172c0-0.758-0.494-1.148-1.438-1.148h-0.459v2.32H1161.862z"/>
<polygon fill="#231F20" points="1172.161,658.253 1172.161,659.552 1166.151,659.552 1169.897,653.187 1166.737,653.187 
	1166.737,651.888 1172.367,651.888 1168.633,658.253 "/>
<polygon fill="#231F20" points="1174.944,653.187 1174.944,654.887 1177.589,654.887 1177.589,656.186 1174.944,656.186 
	1174.944,658.253 1177.69,658.253 1177.69,659.552 1173.451,659.552 1173.451,651.888 1177.69,651.888 1177.69,653.187 "/>
<polygon fill="#231F20" points="1181.716,657.104 1183.588,651.819 1184.403,651.819 1186.185,657.104 1188.023,651.888 
	1189.598,651.888 1186.714,659.701 1185.668,659.701 1183.968,654.691 1182.175,659.701 1181.129,659.701 1178.418,651.888 
	1179.992,651.888 "/>
<path fill="#231F20" d="M1198.037,655.726c0,2.264-1.804,3.998-4.137,3.998c-2.298,0-4.056-1.758-4.056-4.056
	c0-2.183,1.838-3.952,4.113-3.952C1196.244,651.716,1198.037,653.474,1198.037,655.726 M1191.385,655.691
	c0,1.482,1.137,2.665,2.562,2.665c1.402,0,2.551-1.183,2.551-2.643s-1.138-2.631-2.562-2.631
	C1192.545,653.083,1191.385,654.267,1191.385,655.691"/>
<path fill="#231F20" d="M1199.431,651.888h2.195c1.126,0,2.022,0.287,2.746,0.885c0.862,0.701,1.367,1.792,1.367,2.941
	c0,1.138-0.516,2.229-1.391,2.953c-0.734,0.62-1.573,0.885-2.734,0.885h-2.184V651.888z M1201.327,658.253
	c0.966,0,1.574-0.184,2.046-0.608c0.517-0.46,0.827-1.195,0.827-1.931s-0.311-1.447-0.827-1.907c-0.494-0.449-1.08-0.62-2.046-0.62
	h-0.402v5.066H1201.327z"/>
<polygon fill="#231F20" points="1207.122,651.716 1208.156,651.716 1212.821,657.047 1212.821,651.888 1214.314,651.888 
	1214.314,659.701 1213.28,659.701 1208.615,654.37 1208.615,659.552 1207.122,659.552 "/>
<rect x="1216.123" y="651.888" fill="#231F20" width="1.493" height="7.664"/>
<polygon fill="#231F20" points="1223.719,651.888 1225.604,651.888 1222.364,655.427 1225.775,659.552 1223.811,659.552 
	1221.088,656.104 1220.903,656.289 1220.903,659.552 1219.41,659.552 1219.41,651.888 1220.903,651.888 1220.903,655.128 "/>
</svg>
