<?xml version="1.0" encoding="utf-8"?>
<!-- Generator: Adobe Illustrator 13.0.2, SVG Export Plug-In  -->
<!DOCTYPE svg PUBLIC "-//W3C//DTD SVG 1.1//EN" "http://www.w3.org/Graphics/SVG/1.1/DTD/svg11.dtd" [
	<!ENTITY ns_flows "http://ns.adobe.com/Flows/1.0/">
]>
<svg version="1.1"
	 xmlns="http://www.w3.org/2000/svg" xmlns:xlink="http://www.w3.org/1999/xlink" xmlns:a="http://ns.adobe.com/AdobeSVGViewerExtensions/3.0/"
	 x="0px" y="0px" width="45px" height="63px" viewBox="0 0 45 63" enable-background="new 0 0 45 63" xml:space="preserve">
<defs>
</defs>
<polygon fill="none" stroke="#FFFFFF" stroke-width="3.413" stroke-miterlimit="10" points="30.229,1.706 1.707,1.706 1.707,61.189 
	43.149,61.189 43.149,15.603 "/>
<polyline fill="#FFFFFF" points="30.229,1.706 30.229,15.603 43.149,15.603 "/>
<polyline fill="none" stroke="#FFFFFF" stroke-width="3.413" stroke-miterlimit="10" points="30.229,1.706 30.229,15.603 
	43.149,15.603 "/>
<polygon fill="#FFFFFF" points="7.144,30.085 8.419,30.085 11.025,36.33 13.732,30.085 15.022,30.085 16.612,39.81 14.735,39.81 
	13.875,33.923 11.255,39.939 10.739,39.939 8.204,33.923 7.245,39.81 5.368,39.81 "/>
<path fill="#FFFFFF" d="M27.625,35.04c0,2.822-2.249,4.984-5.156,4.984c-2.865,0-5.056-2.191-5.056-5.056
	c0-2.722,2.291-4.927,5.127-4.927C25.392,30.042,27.625,32.233,27.625,35.04 M19.333,34.997c0,1.849,1.417,3.323,3.194,3.323
	c1.747,0,3.18-1.475,3.18-3.294s-1.418-3.28-3.194-3.28C20.779,31.746,19.333,33.222,19.333,34.997"/>
<path fill="#FFFFFF" d="M28.844,30.256h2.364c1.103,0,1.848,0.187,2.335,0.574c0.53,0.414,0.859,1.159,0.859,1.947
	c0,0.515-0.143,1.017-0.358,1.361c-0.158,0.214-0.315,0.343-0.687,0.572c0.644,0.144,0.945,0.286,1.246,0.602
	c0.429,0.431,0.687,1.103,0.687,1.806c0,0.758-0.301,1.474-0.845,1.962c-0.559,0.5-1.318,0.729-2.377,0.729h-3.224V30.256z
	 M31.237,34.238c0.96,0,1.446-0.415,1.446-1.245c0-0.818-0.486-1.232-1.418-1.232h-0.558v2.478H31.237z M31.509,38.306
	c1.26,0,1.862-0.43,1.862-1.317c0-0.458-0.201-0.845-0.559-1.06c-0.329-0.216-0.63-0.272-1.403-0.272h-0.702v2.649H31.509z"/>
<rect x="36.926" y="30.255" fill="#FFFFFF" width="1.862" height="9.555"/>
</svg>
