<?xml version="1.0" encoding="utf-8"?>
<!-- Generator: Adobe Illustrator 13.0.2, SVG Export Plug-In  -->
<!DOCTYPE svg PUBLIC "-//W3C//DTD SVG 1.1//EN" "http://www.w3.org/Graphics/SVG/1.1/DTD/svg11.dtd" [
	<!ENTITY ns_flows "http://ns.adobe.com/Flows/1.0/">
]>
<svg version="1.1"
	 xmlns="http://www.w3.org/2000/svg" xmlns:xlink="http://www.w3.org/1999/xlink" xmlns:a="http://ns.adobe.com/AdobeSVGViewerExtensions/3.0/"
	 x="0px" y="0px" width="45px" height="80px" viewBox="601 560.661 45 80" enable-background="new 601 560.661 45 80"
	 xml:space="preserve">
<defs>
</defs>
<rect y="1" fill="none" width="1275.591" height="708.661"/>
<rect x="10.333" y="10" fill="none" stroke="#04B3FC" stroke-width="20" stroke-miterlimit="10" width="1255.363" height="689.831"/>
<polygon fill="#0AB4F6" points="601.007,565.623 636.054,600.678 601,635.732 605.969,640.709 641.03,605.654 646,600.685 
	641.023,595.709 605.976,560.661 "/>
<g>
	<defs>
		<rect id="SVGID_6_" y="1" width="1275.591" height="708.661"/>
	</defs>
	<clipPath id="SVGID_7_">
		<use xlink:href="#SVGID_6_"  overflow="visible"/>
	</clipPath>
	<polygon clip-path="url(#SVGID_7_)" fill="#FFFFFF" points="949.102,359.088 945.467,357.454 947.271,361.706 	"/>
	<polygon clip-path="url(#SVGID_7_)" fill="#FFFFFF" points="949.714,360.861 941.835,358.085 944.309,353.896 951.977,358.282 	"/>
</g>
<g>
	<defs>
		<rect id="SVGID_5_" y="1" width="1275.591" height="708.661"/>
	</defs>
	<clipPath id="SVGID_8_">
		<use xlink:href="#SVGID_5_"  overflow="visible"/>
	</clipPath>
	<polygon clip-path="url(#SVGID_8_)" fill="#FFFFFF" points="942.114,349.419 944.266,353.753 966.773,367.109 	"/>
	<polygon clip-path="url(#SVGID_8_)" fill="#FFFFFF" points="967.256,367.779 948.229,363.97 945.185,356.535 950.668,359.16 
		952.123,357.689 	"/>
	
		<path clip-path="url(#SVGID_8_)" fill="none" stroke="#1D1D1B" stroke-width="0.732" stroke-linecap="round" stroke-miterlimit="10" d="
		M941.908,349.187l26.555,19.028 M944.191,353.823l-2.283-4.636"/>
	
		<line clip-path="url(#SVGID_8_)" fill="none" stroke="#1D1D1B" stroke-width="0.732" stroke-linecap="round" stroke-miterlimit="10" x1="948.252" y1="363.883" x2="968.461" y2="368.215"/>
	
		<path clip-path="url(#SVGID_8_)" fill="none" stroke="#1D1D1B" stroke-width="0.732" stroke-linecap="round" stroke-miterlimit="10" d="
		M944.191,353.823l24.271,14.392 M941.835,358.085l2.356-4.262 M941.835,358.085l4.6,1.621 M941.835,358.085l3.099-1.856"/>
	
		<line clip-path="url(#SVGID_8_)" fill="none" stroke="#1D1D1B" stroke-width="0.732" stroke-linecap="round" stroke-miterlimit="10" x1="944.934" y1="356.229" x2="968.463" y2="368.215"/>
	<polyline clip-path="url(#SVGID_8_)" fill="#FFFFFF" points="944.934,356.229 945.465,357.454 946.946,360.873 948.25,363.883 	"/>
	
		<polyline clip-path="url(#SVGID_8_)" fill="none" stroke="#1D1D1B" stroke-width="0.732" stroke-linecap="round" stroke-miterlimit="10" points="
		944.934,356.229 945.465,357.454 946.946,360.873 948.25,363.883 	"/>
</g>
<g>
	<defs>
		<rect id="SVGID_4_" y="1" width="1275.591" height="708.661"/>
	</defs>
	<clipPath id="SVGID_9_">
		<use xlink:href="#SVGID_4_"  overflow="visible"/>
	</clipPath>
	<polygon clip-path="url(#SVGID_9_)" fill="#FFFFFF" points="324.375,369.965 329.074,371.118 353.802,362.545 	"/>
	<polygon clip-path="url(#SVGID_9_)" fill="#FFFFFF" points="354.625,362.605 339.439,374.684 331.795,372.209 337.336,369.717 
		337.152,367.656 	"/>
	<polygon clip-path="url(#SVGID_9_)" fill="#FFFFFF" points="336.274,370.865 332.675,372.59 337.088,373.954 	"/>
	<polygon clip-path="url(#SVGID_9_)" fill="#FFFFFF" points="338.02,371.543 330.813,375.771 329.214,371.178 337.509,368.148 	"/>
	
		<path clip-path="url(#SVGID_9_)" fill="none" stroke="#1D1D1B" stroke-width="0.732" stroke-linecap="round" stroke-miterlimit="10" d="
		M324.066,369.969l31.671-8 M329.082,371.219l-5.016-1.25"/>
	
		<line clip-path="url(#SVGID_9_)" fill="none" stroke="#1D1D1B" stroke-width="0.732" stroke-linecap="round" stroke-miterlimit="10" x1="339.387" y1="374.611" x2="355.737" y2="361.97"/>
	
		<path clip-path="url(#SVGID_9_)" fill="none" stroke="#1D1D1B" stroke-width="0.732" stroke-linecap="round" stroke-miterlimit="10" d="
		M329.082,371.219l26.654-9.249 M330.814,375.771l-1.732-4.552 M330.814,375.771l4.211-2.471 M330.814,375.771l0.583-3.567"/>
	
		<line clip-path="url(#SVGID_9_)" fill="none" stroke="#1D1D1B" stroke-width="0.732" stroke-linecap="round" stroke-miterlimit="10" x1="331.396" y1="372.203" x2="355.736" y2="361.969"/>
	<polyline clip-path="url(#SVGID_9_)" fill="#FFFFFF" points="331.396,372.203 332.675,372.588 336.248,373.666 339.386,374.611 	
		"/>
	
		<polyline clip-path="url(#SVGID_9_)" fill="none" stroke="#1D1D1B" stroke-width="0.732" stroke-linecap="round" stroke-miterlimit="10" points="
		331.396,372.203 332.675,372.588 336.248,373.666 339.386,374.611 	"/>
</g>
<g>
	<defs>
		<rect id="SVGID_3_" y="1" width="1275.591" height="708.661"/>
	</defs>
	<clipPath id="SVGID_10_">
		<use xlink:href="#SVGID_3_"  overflow="visible"/>
	</clipPath>
	<polygon clip-path="url(#SVGID_10_)" fill="#FFFFFF" points="561.737,381.381 566.435,382.533 591.165,373.961 	"/>
	<polygon clip-path="url(#SVGID_10_)" fill="#FFFFFF" points="591.988,374.022 576.803,386.1 569.155,383.625 574.701,381.133 
		574.514,379.073 	"/>
	<polygon clip-path="url(#SVGID_10_)" fill="#FFFFFF" points="573.635,382.28 570.038,384.005 574.452,385.371 	"/>
	<polygon clip-path="url(#SVGID_10_)" fill="#FFFFFF" points="575.382,382.958 568.176,387.188 566.575,382.594 574.874,379.566 	
		"/>
	
		<path clip-path="url(#SVGID_10_)" fill="none" stroke="#1D1D1B" stroke-width="0.732" stroke-linecap="round" stroke-miterlimit="10" d="
		M561.428,381.384l31.671-7.997 M566.443,382.635l-5.015-1.251"/>
	
		<line clip-path="url(#SVGID_10_)" fill="none" stroke="#1D1D1B" stroke-width="0.732" stroke-linecap="round" stroke-miterlimit="10" x1="576.747" y1="386.027" x2="593.1" y2="373.387"/>
	
		<path clip-path="url(#SVGID_10_)" fill="none" stroke="#1D1D1B" stroke-width="0.732" stroke-linecap="round" stroke-miterlimit="10" d="
		M566.444,382.635l26.656-9.248 M568.176,387.188l-1.732-4.553 M568.176,387.188l4.21-2.471 M568.176,387.188l0.585-3.567"/>
	
		<line clip-path="url(#SVGID_10_)" fill="none" stroke="#1D1D1B" stroke-width="0.732" stroke-linecap="round" stroke-miterlimit="10" x1="568.761" y1="383.62" x2="593.1" y2="373.387"/>
	<polyline clip-path="url(#SVGID_10_)" fill="#FFFFFF" points="568.761,383.62 570.038,384.005 573.605,385.082 576.747,386.027 	
		"/>
	
		<polyline clip-path="url(#SVGID_10_)" fill="none" stroke="#1D1D1B" stroke-width="0.732" stroke-linecap="round" stroke-miterlimit="10" points="
		568.761,383.62 570.038,384.005 573.605,385.082 576.747,386.027 	"/>
	<polygon clip-path="url(#SVGID_10_)" fill="#FFFFFF" points="502.359,374.004 503.734,378.641 523.607,395.671 	"/>
	<polygon clip-path="url(#SVGID_10_)" fill="#FFFFFF" points="523.974,396.414 505.884,389.392 504.163,381.542 509.11,385.07 
		510.797,383.872 	"/>
	<polygon clip-path="url(#SVGID_10_)" fill="#FFFFFF" points="507.583,384.729 504.279,382.496 505.326,386.995 	"/>
	<polygon clip-path="url(#SVGID_10_)" fill="#FFFFFF" points="507.881,386.582 500.596,382.492 503.753,378.791 510.552,384.43 	"/>
	
		<path clip-path="url(#SVGID_10_)" fill="none" stroke="#1D1D1B" stroke-width="0.732" stroke-linecap="round" stroke-miterlimit="10" d="
		M502.2,373.738l22.882,23.312 M503.651,378.7l-1.451-4.962"/>
	
		<line clip-path="url(#SVGID_10_)" fill="none" stroke="#1D1D1B" stroke-width="0.732" stroke-linecap="round" stroke-miterlimit="10" x1="505.915" y1="389.307" x2="525.082" y2="397.051"/>
	
		<path clip-path="url(#SVGID_10_)" fill="none" stroke="#1D1D1B" stroke-width="0.732" stroke-linecap="round" stroke-miterlimit="10" d="
		M503.651,378.7l21.431,18.351 M500.596,382.492l3.055-3.792 M500.596,382.492l4.254,2.389 M500.596,382.492l3.374-1.295"/>
	
		<line clip-path="url(#SVGID_10_)" fill="none" stroke="#1D1D1B" stroke-width="0.732" stroke-linecap="round" stroke-miterlimit="10" x1="503.969" y1="381.197" x2="525.082" y2="397.051"/>
	<polyline clip-path="url(#SVGID_10_)" fill="#FFFFFF" points="503.969,381.197 504.279,382.496 505.149,386.12 505.914,389.307 	
		"/>
	
		<polyline clip-path="url(#SVGID_10_)" fill="none" stroke="#1D1D1B" stroke-width="0.732" stroke-linecap="round" stroke-miterlimit="10" points="
		503.969,381.197 504.279,382.496 505.149,386.12 505.914,389.307 	"/>
	
		<line clip-path="url(#SVGID_10_)" fill="none" stroke="#00B0EA" stroke-width="3.561" stroke-dasharray="6.287,6.287" x1="337.271" y1="403.893" x2="473.497" y2="403.893"/>
	<polygon clip-path="url(#SVGID_10_)" fill="#00B0EA" points="476.47,409.778 486.72,403.86 476.47,397.942 	"/>
	<rect x="767.537" y="335.852" clip-path="url(#SVGID_10_)" fill="#1D1D1B" width="1.938" height="55.417"/>
</g>
<g>
	<defs>
		<rect id="SVGID_2_" y="1" width="1275.591" height="708.661"/>
	</defs>
	<clipPath id="SVGID_11_">
		<use xlink:href="#SVGID_2_"  overflow="visible"/>
	</clipPath>
	<polygon clip-path="url(#SVGID_11_)" fill="#FFFFFF" points="760.021,337.608 758.514,329.641 782.646,318.889 	"/>
	
		<polygon clip-path="url(#SVGID_11_)" fill="none" stroke="#1D1D1B" stroke-width="0.732" stroke-linejoin="round" stroke-miterlimit="10" points="
		760.021,337.608 758.514,329.641 782.646,318.889 	"/>
	<polygon clip-path="url(#SVGID_11_)" fill="#FFFFFF" points="760.021,337.608 761.836,332.19 782.082,319.456 	"/>
	
		<polygon clip-path="url(#SVGID_11_)" fill="none" stroke="#1D1D1B" stroke-width="0.732" stroke-linejoin="round" stroke-miterlimit="10" points="
		760.021,337.608 761.836,332.19 782.082,319.456 	"/>
	<polygon clip-path="url(#SVGID_11_)" fill="#FFFFFF" points="782.646,318.889 761.942,332.152 769.543,339.872 	"/>
	
		<polygon clip-path="url(#SVGID_11_)" fill="none" stroke="#1D1D1B" stroke-width="0.732" stroke-linejoin="round" stroke-miterlimit="10" points="
		782.646,318.889 761.942,332.152 769.543,339.872 	"/>
	<polygon clip-path="url(#SVGID_11_)" fill="#FFFFFF" points="782.646,318.889 752.515,325.055 758.57,329.636 	"/>
	
		<polygon clip-path="url(#SVGID_11_)" fill="none" stroke="#1D1D1B" stroke-width="0.732" stroke-linejoin="round" stroke-miterlimit="10" points="
		782.646,318.889 752.515,325.055 758.57,329.636 	"/>
	<path clip-path="url(#SVGID_11_)" fill="#1D1D1B" d="M756.141,339.179c-6.579-6.581-6.913-17.07-1.015-24.055l25.069,25.066
		c-3.204,2.716-7.225,4.201-11.472,4.201C763.971,344.391,759.5,342.54,756.141,339.179 M781.303,314.014
		c3.358,3.361,5.214,7.831,5.214,12.583c0,4.259-1.492,8.284-4.216,11.494l-25.075-25.072c3.212-2.724,7.238-4.214,11.498-4.214
		C773.477,308.805,777.941,310.654,781.303,314.014 M783.404,311.915c-3.924-3.922-9.139-6.082-14.681-6.082
		c-5.548,0-10.765,2.16-14.687,6.082c-8.095,8.097-8.095,21.268,0.002,29.363c3.92,3.922,9.137,6.082,14.685,6.082
		c5.542,0,10.757-2.16,14.681-6.082c3.92-3.922,6.084-9.135,6.084-14.681C789.488,321.052,787.324,315.836,783.404,311.915"/>
	
		<line clip-path="url(#SVGID_11_)" fill="none" stroke="#00B0EA" stroke-width="3.562" stroke-dasharray="6.634,6.634" x1="587.054" y1="403.196" x2="937.155" y2="403.196"/>
	<polygon clip-path="url(#SVGID_11_)" fill="#00B0EA" points="940.207,409.081 950.727,403.162 940.207,397.243 	"/>
	
		<line clip-path="url(#SVGID_11_)" fill="none" stroke="#1D1D1B" stroke-width="2.457" stroke-miterlimit="10" x1="369.513" y1="162.768" x2="571.058" y2="162.768"/>
	
		<line clip-path="url(#SVGID_11_)" fill="none" stroke="#1D1D1B" stroke-width="2.457" stroke-miterlimit="10" x1="369.513" y1="187.768" x2="630.154" y2="187.768"/>
</g>
<g>
	<defs>
		<rect id="SVGID_1_" y="1" width="1275.591" height="708.661"/>
	</defs>
	<clipPath id="SVGID_12_">
		<use xlink:href="#SVGID_1_"  overflow="visible"/>
	</clipPath>
	<path clip-path="url(#SVGID_12_)" fill="#24B5FA" d="M393.766,250.329c0,5.983-4.853,10.836-10.837,10.836
		c-5.985,0-10.838-4.853-10.838-10.836c0-5.987,4.853-10.838,10.838-10.838C388.913,239.491,393.766,244.342,393.766,250.329"/>
	<path clip-path="url(#SVGID_12_)" fill="#FFFFFF" d="M383.675,243.713c0.033-0.411,0.21-0.752,0.529-1.019
		c0.321-0.268,0.69-0.386,1.104-0.352c0.418,0.034,0.764,0.207,1.03,0.521c0.27,0.315,0.387,0.68,0.353,1.098
		c-0.034,0.414-0.21,0.76-0.531,1.025c-0.321,0.269-0.686,0.388-1.097,0.354c-0.414-0.035-0.76-0.211-1.032-0.531
		C383.76,244.488,383.641,244.124,383.675,243.713 M385.407,247.521c-0.996,1.746-2.388,4.246-3.905,7.447
		c-0.442,0.933,0.562,1.155,1.106,1.117c0.297-0.021,0.672-0.052,0.935-0.071c0.341-0.026,0.596-0.108,0.591-0.083l-0.527,1.901
		l-0.195,0.097c-0.313,0.159-1.168,0.4-1.577,0.39c-0.714-0.014-1.335-0.066-1.868-0.611c-0.671-0.688-0.843-1.413-0.799-2.007
		c0.043-0.595,0.345-1.064,0.468-1.41c0.032-0.09,0.495-0.866,0.515-0.905l1.07-2.026l-1.708,0.02
		c0.574-0.432,1.186-0.808,1.718-1.295c0.774-0.709,1.245-1.717,1.868-2.574L385.407,247.521z"/>
</g>
</svg>
