<?xml version="1.0" encoding="utf-8"?>
<!-- Generator: Adobe Illustrator 13.0.2, SVG Export Plug-In  -->
<!DOCTYPE svg PUBLIC "-//W3C//DTD SVG 1.1//EN" "http://www.w3.org/Graphics/SVG/1.1/DTD/svg11.dtd" [
	<!ENTITY ns_flows "http://ns.adobe.com/Flows/1.0/">
]>
<svg version="1.1"
	 xmlns="http://www.w3.org/2000/svg" xmlns:xlink="http://www.w3.org/1999/xlink" xmlns:a="http://ns.adobe.com/AdobeSVGViewerExtensions/3.0/"
	 x="0px" y="0px" width="511px" height="118px" viewBox="384.782 164.443 511 118" enable-background="new 384.782 164.443 511 118"
	 xml:space="preserve">
<defs>
</defs>
<rect display="none" fill="#0AB4F6" width="1275.591" height="708.661"/>
<path fill="#1D1D1B" d="M695.419,196.031v4.178h-19.337l12.053-20.482h-10.167v-4.178h18.116l-12.016,20.482H695.419z
	 M689.873,170.299c0,1.553-1.258,2.81-2.773,2.81c-1.553,0-2.81-1.257-2.81-2.847c0-1.479,1.257-2.736,2.81-2.736
	C688.615,167.526,689.873,168.783,689.873,170.299"/>
<polygon fill="#1D1D1B" points="697.898,175.549 703.592,175.549 708.916,184.126 714.128,175.549 719.859,175.549 711.208,188.896 
	711.208,200.209 706.401,200.209 706.401,188.896 "/>
<path fill="#1D1D1B" d="M738.569,182.167c-1.997-1.959-3.734-2.773-6.027-2.773c-4.547,0-8.06,3.734-8.06,8.578
	c0,4.806,3.513,8.392,8.171,8.392c2.329,0,3.956-0.739,5.916-2.698v5.656c-2.219,1.035-3.956,1.442-6.027,1.442
	c-7.283,0-13.014-5.619-13.014-12.755c0-7.21,5.805-13.014,13.014-13.014c2.182,0,3.883,0.443,6.027,1.515V182.167z"/>
<rect x="743.599" y="175.55" fill="#1D1D1B" width="4.807" height="24.66"/>
<polygon fill="#1D1D1B" points="759.054,179.727 759.054,185.199 767.558,185.199 767.558,189.376 759.054,189.376 759.054,196.032 
	767.89,196.032 767.89,200.209 754.247,200.209 754.247,175.549 767.89,175.549 767.89,179.727 "/>
<polygon fill="#1D1D1B" points="425.425,229.31 431.451,212.303 434.076,212.303 439.807,229.31 445.723,212.525 450.788,212.525 
	441.508,237.665 438.143,237.665 432.672,221.546 426.904,237.665 423.539,237.665 414.814,212.525 419.879,212.525 "/>
<path fill="#1D1D1B" d="M465.173,218.145c-1.294-1.442-2.44-1.997-3.993-1.997c-1.96,0-3.476,1.221-3.476,2.736
	c0,1.331,0.851,2.034,3.735,3.106c2.699,0.998,3.808,1.516,4.917,2.477c1.442,1.22,2.181,2.995,2.181,5.176
	c0,4.844-3.475,8.134-8.577,8.134c-3.586,0-6.248-1.479-8.467-4.695l3.106-2.995c1.109,2.107,2.958,3.29,5.176,3.29
	c2.218,0,3.808-1.441,3.808-3.475c0-0.998-0.444-1.849-1.331-2.477c-0.48-0.333-1.442-0.739-3.438-1.479
	c-4.437-1.627-6.064-3.402-6.064-6.655c0-4.141,3.254-7.172,7.691-7.172c2.698,0,5.175,0.924,7.246,2.735L465.173,218.145z
	 M459.886,210.27l-1.997-1.812l5.102-4.917l3.069,2.514L459.886,210.27z"/>
<path fill="#1D1D1B" d="M490.944,237.185h-5.916l-6.654-9.909h-0.629v9.909h-4.806v-24.66h7.135c2.736,0,4.918,0.591,6.285,1.737
	c1.517,1.258,2.441,3.365,2.441,5.546c0,2.218-0.851,4.252-2.218,5.435c-0.962,0.814-1.849,1.257-3.402,1.553L490.944,237.185z
	 M479.15,223.875c3.032,0,4.695-1.331,4.695-3.771s-1.59-3.697-4.621-3.697h-1.479v7.468H479.15z"/>
<path fill="#1D1D1B" d="M518.675,224.874c0,7.283-5.805,12.866-13.31,12.866c-7.395,0-13.051-5.657-13.051-13.051
	c0-7.024,5.915-12.718,13.236-12.718C512.907,211.971,518.675,217.626,518.675,224.874 M497.268,224.763
	c0,4.769,3.66,8.577,8.244,8.577c4.511,0,8.208-3.808,8.208-8.503c0-4.695-3.66-8.467-8.244-8.467
	C501.002,216.37,497.268,220.178,497.268,224.763 M504.884,210.27l-1.997-1.812l5.103-4.917l3.068,2.514L504.884,210.27z"/>
<path fill="#1D1D1B" d="M523.225,212.525h7.062c3.623,0,6.507,0.924,8.836,2.846c2.773,2.256,4.4,5.768,4.4,9.465
	c0,3.66-1.663,7.172-4.473,9.502c-2.367,1.996-5.065,2.847-8.8,2.847h-7.025V212.525z M529.326,233.007
	c3.105,0,5.065-0.592,6.581-1.959c1.664-1.479,2.662-3.846,2.662-6.212c0-2.366-0.998-4.659-2.662-6.137
	c-1.59-1.442-3.476-1.997-6.581-1.997h-1.294v16.305H529.326z"/>
<polygon fill="#1D1D1B" points="571.07,212.525 577.133,212.525 566.708,223.912 577.688,237.185 571.366,237.185 562.604,226.093 
	562.012,226.685 562.012,237.185 557.205,237.185 557.205,212.525 562.012,212.525 562.012,222.951 "/>
<path fill="#1D1D1B" d="M586.638,231.972l-2.218,5.213h-5.102l10.684-25.177h3.624l10.352,25.177h-5.139l-2.108-5.213H586.638z
	 M591.777,219.217l-3.586,8.873h7.024L591.777,219.217z"/>
<polygon fill="#1D1D1B" points="610.82,212.081 614.111,212.081 620.839,228.201 627.827,212.081 631.154,212.081 635.258,237.185 
	630.415,237.185 628.196,221.99 621.431,237.518 620.1,237.518 613.556,221.99 611.079,237.185 606.235,237.185 "/>
<polygon fill="#1D1D1B" points="644.541,216.703 644.541,222.175 653.045,222.175 653.045,226.352 644.541,226.352 644.541,233.008 
	653.377,233.008 653.377,237.185 639.734,237.185 639.734,212.524 653.377,212.524 653.377,216.703 "/>
<path fill="#1D1D1B" d="M676.561,237.185h-5.916l-6.655-9.909h-0.628v9.909h-4.807v-24.66h7.136c2.736,0,4.917,0.591,6.285,1.737
	c1.516,1.258,2.44,3.365,2.44,5.546c0,2.218-0.851,4.252-2.219,5.435c-0.961,0.814-1.849,1.257-3.401,1.553L676.561,237.185z
	 M664.767,223.875c3.031,0,4.695-1.331,4.695-3.771s-1.59-3.697-4.622-3.697h-1.479v7.468H664.767z"/>
<line fill="none" stroke="#1D1D1B" stroke-width="5.916" x1="395.97" y1="241.234" x2="803.588" y2="220.064"/>
<polygon fill="#FFFFFF" points="792.3,214.718 792.3,166.661 387,166.661 387,279.732 893.903,279.732 893.903,214.718 "/>
<polygon fill="none" stroke="#1D1D1B" stroke-width="4.437" points="792.3,214.718 792.3,166.661 387,166.661 387,279.732 
	893.903,279.732 893.903,214.718 "/>
<path fill="#1D1D1B" d="M410.727,216.082h-4.614v-23.673h6.921c3.088,0,4.756,0.497,6.246,1.81c1.527,1.384,2.414,3.442,2.414,5.714
	c0,2.059-0.71,3.975-1.917,5.289c-1.349,1.419-3.265,2.093-6.069,2.093h-2.981V216.082z M412.607,203.305
	c2.875,0,4.33-1.136,4.33-3.407c0-1.136-0.461-2.165-1.207-2.733c-0.71-0.533-1.704-0.746-3.407-0.746h-1.597v6.886H412.607z"/>
<polygon fill="#1D1D1B" points="429.681,196.419 429.681,201.672 437.844,201.672 437.844,205.683 429.681,205.683 429.681,212.071 
	438.164,212.071 438.164,216.082 425.066,216.082 425.066,192.408 438.164,192.408 438.164,196.419 "/>
<path fill="#1D1D1B" d="M460.419,216.082h-5.678l-6.389-9.512h-0.604v9.512h-4.613v-23.673h6.85c2.626,0,4.72,0.567,6.033,1.668
	c1.455,1.207,2.343,3.229,2.343,5.324c0,2.129-0.817,4.081-2.13,5.217c-0.923,0.781-1.775,1.207-3.265,1.491L460.419,216.082z
	 M449.097,203.305c2.911,0,4.508-1.278,4.508-3.621c0-2.342-1.527-3.548-4.437-3.548h-1.42v7.169H449.097z"/>
<polygon fill="#1D1D1B" points="459.641,192.408 465.106,192.408 470.217,200.642 475.222,192.408 480.723,192.408 472.418,205.221 
	472.418,216.081 467.804,216.081 467.804,205.221 "/>
<path fill="#1D1D1B" d="M488.037,216.082h-4.614v-23.673h6.921c3.088,0,4.756,0.497,6.246,1.81c1.527,1.384,2.414,3.442,2.414,5.714
	c0,2.059-0.71,3.975-1.917,5.289c-1.349,1.419-3.265,2.093-6.069,2.093h-2.981V216.082z M489.918,203.305
	c2.875,0,4.33-1.136,4.33-3.407c0-1.136-0.461-2.165-1.207-2.733c-0.71-0.533-1.704-0.746-3.407-0.746h-1.597v6.886H489.918z"/>
<polygon fill="#1D1D1B" points="506.991,196.419 506.991,201.672 515.154,201.672 515.154,205.683 506.991,205.683 506.991,212.071 
	515.474,212.071 515.474,216.082 502.377,216.082 502.377,192.408 515.474,192.408 515.474,196.419 "/>
<polygon fill="#1D1D1B" points="523.143,216.082 523.143,196.418 517.854,196.418 517.854,192.409 533.081,192.409 533.081,196.418 
	527.756,196.418 527.756,216.082 "/>
<rect x="535.993" y="192.409" fill="#1D1D1B" width="4.614" height="23.673"/>
<polygon fill="#1D1D1B" points="550.829,196.419 550.829,201.672 558.992,201.672 558.992,205.683 550.829,205.683 550.829,212.071 
	559.312,212.071 559.312,216.082 546.215,216.082 546.215,192.408 559.312,192.408 559.312,196.419 "/>
<rect x="572.66" y="192.409" fill="#1D1D1B" width="4.614" height="23.673"/>
<polygon fill="#1D1D1B" points="582.882,191.876 586.076,191.876 600.486,208.344 600.486,192.408 605.101,192.408 605.101,216.543 
	601.905,216.543 587.496,200.075 587.496,216.082 582.882,216.082 "/>
<polygon fill="#1D1D1B" points="615.36,196.419 615.36,201.672 622.778,201.672 622.778,205.683 615.36,205.683 615.36,216.082 
	610.746,216.082 610.746,192.408 623.275,192.408 623.275,196.419 "/>
<path fill="#1D1D1B" d="M651.174,204.262c0,6.993-5.571,12.352-12.778,12.352c-7.098,0-12.528-5.431-12.528-12.529
	c0-6.743,5.679-12.209,12.706-12.209C645.637,191.876,651.174,197.306,651.174,204.262 M630.624,204.156
	c0,4.579,3.514,8.234,7.915,8.234c4.329,0,7.879-3.655,7.879-8.163c0-4.508-3.514-8.128-7.915-8.128
	C634.208,196.099,630.624,199.755,630.624,204.156"/>
<path fill="#1D1D1B" d="M672.792,216.082h-5.679l-6.389-9.512h-0.604v9.512h-4.614v-23.673h6.851c2.626,0,4.721,0.567,6.033,1.668
	c1.455,1.207,2.343,3.229,2.343,5.324c0,2.129-0.816,4.081-2.13,5.217c-0.923,0.781-1.774,1.207-3.265,1.491L672.792,216.082z
	 M661.47,203.305c2.91,0,4.508-1.278,4.508-3.621c0-2.342-1.526-3.548-4.437-3.548h-1.42v7.169H661.47z"/>
<polygon fill="#1D1D1B" points="679.538,191.982 682.696,191.982 689.156,207.458 695.864,191.982 699.059,191.982 702.998,216.082 
	698.349,216.082 696.219,201.495 689.724,216.4 688.446,216.4 682.164,201.495 679.786,216.082 675.137,216.082 "/>
<path fill="#1D1D1B" d="M712.265,211.078l-2.129,5.004h-4.898l10.258-24.17h3.478l9.938,24.17h-4.934l-2.023-5.004H712.265z
	 M717.198,198.833l-3.442,8.518h6.743L717.198,198.833z"/>
<path fill="#1D1D1B" d="M747.795,198.762c-1.917-1.881-3.585-2.662-5.785-2.662c-4.366,0-7.737,3.584-7.737,8.234
	c0,4.614,3.371,8.057,7.844,8.057c2.235,0,3.798-0.71,5.679-2.591v5.43c-2.13,0.994-3.798,1.384-5.785,1.384
	c-6.992,0-12.493-5.394-12.493-12.245c0-6.92,5.572-12.493,12.493-12.493c2.094,0,3.727,0.426,5.785,1.455V198.762z"/>
<path fill="#1D1D1B" d="M761.64,208.38c0,3.265-0.64,5.253-2.095,6.637c-1.136,1.029-2.769,1.633-4.437,1.633
	c-2.129,0-3.903-0.71-5.536-2.236l2.769-3.372c0.603,0.887,1.384,1.349,2.307,1.349c0.958,0,1.739-0.533,2.059-1.42
	c0.248-0.674,0.319-1.349,0.319-3.337v-15.226h4.614V208.38z"/>
<rect x="767.213" y="192.409" fill="#1D1D1B" width="4.614" height="23.673"/>
<polygon fill="#1D1D1B" points="413.601,251.402 419.386,235.075 421.906,235.075 427.407,251.402 433.086,235.288 437.949,235.288 
	429.04,259.423 425.81,259.423 420.558,243.948 415.02,259.423 411.791,259.423 403.415,235.288 408.277,235.288 "/>
<rect x="449.631" y="235.288" fill="#1D1D1B" width="4.614" height="23.673"/>
<polygon fill="#1D1D1B" points="459.853,234.756 463.047,234.756 477.457,251.224 477.457,235.288 482.071,235.288 482.071,259.423 
	478.876,259.423 464.467,242.955 464.467,258.962 459.853,258.962 "/>
<polygon fill="#1D1D1B" points="490.308,258.961 490.308,239.298 485.02,239.298 485.02,235.289 500.246,235.289 500.246,239.298 
	494.922,239.298 494.922,258.961 "/>
<polygon fill="#1D1D1B" points="507.772,239.299 507.772,244.552 515.935,244.552 515.935,248.563 507.772,248.563 507.772,254.951 
	516.255,254.951 516.255,258.962 503.158,258.962 503.158,235.288 516.255,235.288 516.255,239.299 "/>
<path fill="#1D1D1B" d="M538.51,258.961h-5.678l-6.389-9.512h-0.604v9.512h-4.613v-23.673h6.85c2.626,0,4.72,0.567,6.033,1.668
	c1.455,1.207,2.343,3.229,2.343,5.324c0,2.129-0.817,4.081-2.13,5.217c-0.923,0.781-1.775,1.207-3.265,1.491L538.51,258.961z
	 M527.188,246.185c2.911,0,4.508-1.278,4.508-3.621c0-2.342-1.527-3.548-4.437-3.548h-1.42v7.169H527.188z"/>
<polygon fill="#1D1D1B" points="541.636,234.756 544.83,234.756 559.24,251.224 559.24,235.288 563.854,235.288 563.854,259.423 
	560.659,259.423 546.25,242.955 546.25,258.962 541.636,258.962 "/>
<polygon fill="#1D1D1B" points="574.114,239.299 574.114,244.552 582.277,244.552 582.277,248.563 574.114,248.563 574.114,254.951 
	582.597,254.951 582.597,258.962 569.5,258.962 569.5,235.288 582.597,235.288 582.597,239.299 "/>
<path fill="#1D1D1B" d="M604.214,241.642c-1.917-1.881-3.585-2.662-5.785-2.662c-4.366,0-7.737,3.584-7.737,8.234
	c0,4.614,3.371,8.057,7.843,8.057c2.236,0,3.798-0.71,5.679-2.591v5.43c-2.13,0.994-3.798,1.384-5.785,1.384
	c-6.992,0-12.493-5.394-12.493-12.245c0-6.92,5.572-12.493,12.493-12.493c2.094,0,3.726,0.426,5.785,1.455V241.642z"/>
<rect x="609.043" y="235.288" fill="#1D1D1B" width="4.614" height="23.673"/>
<polygon fill="#1D1D1B" points="623.879,239.299 623.879,244.552 632.042,244.552 632.042,248.563 623.879,248.563 623.879,254.951 
	632.362,254.951 632.362,258.962 619.266,258.962 619.266,235.288 632.362,235.288 632.362,239.299 "/>
<path fill="#1D1D1B" d="M642.409,256.619c0,1.562-1.242,2.804-2.77,2.804c-1.562,0-2.804-1.242-2.804-2.804
	c0-1.526,1.278-2.769,2.769-2.769C641.167,253.85,642.409,255.093,642.409,256.619"/>
<path fill="#1D1D1B" d="M660.264,258.961h-4.614v-23.673h6.922c3.087,0,4.756,0.497,6.246,1.81c1.526,1.384,2.413,3.442,2.413,5.714
	c0,2.059-0.71,3.975-1.916,5.289c-1.349,1.419-3.266,2.093-6.069,2.093h-2.981V258.961z M662.145,246.185
	c2.875,0,4.33-1.136,4.33-3.407c0-1.136-0.461-2.165-1.206-2.733c-0.71-0.533-1.704-0.746-3.407-0.746h-1.598v6.886H662.145z"/>
<path fill="#1D1D1B" d="M691.89,258.961h-5.679l-6.389-9.512h-0.604v9.512h-4.614v-23.673h6.851c2.626,0,4.72,0.567,6.033,1.668
	c1.455,1.207,2.343,3.229,2.343,5.324c0,2.129-0.816,4.081-2.13,5.217c-0.923,0.781-1.774,1.207-3.265,1.491L691.89,258.961z
	 M680.567,246.185c2.91,0,4.508-1.278,4.508-3.621c0-2.342-1.527-3.548-4.437-3.548h-1.42v7.169H680.567z"/>
<polygon fill="#1D1D1B" points="712.477,254.951 712.477,258.961 693.913,258.961 705.484,239.299 695.725,239.299 695.725,235.288 
	713.115,235.288 701.581,254.951 "/>
<polygon fill="#1D1D1B" points="721.104,239.299 721.104,244.552 729.267,244.552 729.267,248.563 721.104,248.563 721.104,254.951 
	729.586,254.951 729.586,258.962 716.489,258.962 716.489,235.288 729.586,235.288 729.586,239.299 "/>
<polygon fill="#1D1D1B" points="742.081,251.402 747.866,235.075 750.386,235.075 755.888,251.402 761.566,235.288 766.429,235.288 
	757.521,259.423 754.29,259.423 749.037,243.948 743.501,259.423 740.271,259.423 731.894,235.288 736.757,235.288 "/>
<path fill="#1D1D1B" d="M792.52,247.142c0,6.993-5.571,12.352-12.778,12.352c-7.098,0-12.527-5.431-12.527-12.529
	c0-6.743,5.679-12.209,12.706-12.209C786.982,234.756,792.52,240.186,792.52,247.142 M771.97,247.036
	c0,4.579,3.514,8.234,7.914,8.234c4.33,0,7.88-3.655,7.88-8.163c0-4.508-3.514-8.128-7.915-8.128
	C775.555,238.979,771.97,242.635,771.97,247.036"/>
<path fill="#1D1D1B" d="M796.888,235.288h6.779c3.479,0,6.247,0.888,8.482,2.733c2.662,2.165,4.224,5.537,4.224,9.086
	c0,3.514-1.597,6.886-4.294,9.122c-2.271,1.916-4.863,2.733-8.447,2.733h-6.744V235.288z M802.744,254.951
	c2.981,0,4.862-0.568,6.317-1.881c1.598-1.42,2.556-3.691,2.556-5.963c0-2.271-0.958-4.471-2.556-5.891
	c-1.525-1.385-3.336-1.917-6.317-1.917h-1.242v15.652H802.744z"/>
<polygon fill="#1D1D1B" points="820.671,234.756 823.865,234.756 838.275,251.224 838.275,235.288 842.89,235.288 842.89,259.423 
	839.695,259.423 825.285,242.955 825.285,258.962 820.671,258.962 "/>
<rect x="848.536" y="235.288" fill="#1D1D1B" width="4.613" height="23.673"/>
<polygon fill="#1D1D1B" points="872.067,235.288 877.889,235.288 867.879,246.22 878.421,258.961 872.352,258.961 863.94,248.314 
	863.372,248.882 863.372,258.961 858.757,258.961 858.757,235.288 863.372,235.288 863.372,245.297 "/>
</svg>
