<?xml version="1.0" encoding="utf-8"?>
<!-- Generator: Adobe Illustrator 13.0.2, SVG Export Plug-In  -->
<!DOCTYPE svg PUBLIC "-//W3C//DTD SVG 1.1//EN" "http://www.w3.org/Graphics/SVG/1.1/DTD/svg11.dtd" [
	<!ENTITY ns_flows "http://ns.adobe.com/Flows/1.0/">
]>
<svg version="1.1"
	 xmlns="http://www.w3.org/2000/svg" xmlns:xlink="http://www.w3.org/1999/xlink" xmlns:a="http://ns.adobe.com/AdobeSVGViewerExtensions/3.0/"
	 x="0px" y="0px" width="42px" height="39px" viewBox="0 0 42 39" enable-background="new 0 0 42 39" xml:space="preserve">
<defs>
</defs>
<path d="M28.188,31.275c1.145,2.514,2.525,4.713,3.686,7.205c-1.197,0.164-2.395,0.328-3.593,0.492
	c-4.858-9.23-9.733-18.438-14.584-27.677c-0.991-0.019-1.187,0.569-2.029,0.663c3.435,7.162,7.312,13.738,10.764,20.878
	c-1.248,0.079-2.484,0.144-3.646,0.114c-3.447-6.326-6.826-12.744-10.152-19.228c-0.589,0.399-1.173,0.806-1.761,1.206
	c2.89,6.165,6.228,11.74,9.186,17.816c-1.474-0.367-3.054-0.59-4.394-1.131c-2.568-4.656-5.004-9.485-7.532-14.19
	C3.537,17.877,2.94,18.328,2.61,18.98c1.773,3.768,3.676,7.363,5.717,10.78C5.089,28.815,2.278,25.373,0,22.423
	c1.816-6.36,5.683-11.166,11.934-14.161C10.8,5.513,9.388,3.131,8.008,0.707C8.832,0.146,10.579,0.287,11.764,0
	c0.996,2.482,2.38,4.457,3.445,6.849c12.442-3.253,21.143,1.979,26.375,9.683C39.435,23.203,35.147,28.255,28.188,31.275
	 M34.848,23.619c2.579-1.934,4.715-4.293,6.406-6.657c-0.021-0.244,0.209-0.296,0.114-0.593c-5.205-4.084-11.946-7.664-20.969-6.763
	c-1.372,0.136-2.607,0.127-3.235,0.748c1.344-0.33,1.905-0.211,3.085-0.142c7.701,0.438,11.79,8.156,8.683,13.833
	c-0.703,1.284-1.257,2.435-2.775,3.655C29.516,27.604,32.402,25.453,34.848,23.619"/>
</svg>
