<?xml version="1.0" encoding="utf-8"?>
<!-- Generator: Adobe Illustrator 13.0.2, SVG Export Plug-In  -->
<!DOCTYPE svg PUBLIC "-//W3C//DTD SVG 1.1//EN" "http://www.w3.org/Graphics/SVG/1.1/DTD/svg11.dtd" [
	<!ENTITY ns_flows "http://ns.adobe.com/Flows/1.0/">
]>
<svg version="1.1"
	 xmlns="http://www.w3.org/2000/svg" xmlns:xlink="http://www.w3.org/1999/xlink" xmlns:a="http://ns.adobe.com/AdobeSVGViewerExtensions/3.0/"
	 x="0px" y="0px" width="160px" height="51px" viewBox="0 0 160 51" enable-background="new 0 0 160 51" xml:space="preserve">
<defs>
</defs>
<path d="M43.2,19.5c-0.6-5.8-3.4-11-8-14.7C31.4,1.7,26.5,0,21.6,0c-3.1,0-6.3,0.7-9.1,2l0.9,1.8c0.9-0.4,1.9-0.8,2.9-1.1l0.2-0.1
	l0,0.1l1.2,5.3c0.6-0.2,1.3-0.3,2-0.4l-1.2-5.4l0.2,0c2.1-0.3,4.2-0.3,6.3,0.1l0.2,0l0,0.1l-1.3,5.4c0.7,0.1,1.3,0.3,2,0.5l1.3-5.4
	l0.2,0.1c2.2,0.7,4.2,1.7,6.1,3.1l0.2,0.1l-0.1,0.2l-3.4,4.1c0.1,0.1,0.2,0.1,0.3,0.2c0.4,0.3,0.8,0.7,1.2,1.1l3.5-4.4l0.2,0.2
	c1.3,1.3,2.5,2.8,3.4,4.5l0.1,0.2l-0.1,0l-5,2.4c0.3,0.6,0.6,1.2,0.9,1.8l5-2.4l0.1,0.2c0.8,1.9,1.2,3.8,1.4,6l0,0.1h-0.1h0l0,0.1
	l-5.5,0c0.1,0.7,0.1,1.4,0,2.1l5.5,0.1l0,0.2c-0.1,2.1-0.6,4.2-1.4,6.1l-0.1,0.2l-5-2.4c-0.2,0.6-0.5,1.2-0.9,1.8l5,2.4l-0.1,0.2
	c-0.6,1.1-1.2,2-1.9,2.8c-0.6,0.7-1.2,1.4-2,2.1l-0.2,0.2l0-0.1l-3.4-4.3c-0.5,0.5-1,0.9-1.6,1.3l3.4,4.4l-0.2,0.1
	c-0.9,0.6-1.8,1.2-2.8,1.7l0.9,1.8c3-1.4,5.5-3.4,7.5-5.9C42.1,31,43.8,25.3,43.2,19.5"/>
<path d="M27,48.7l-0.2,0.1l-0.1-0.2l-1.2-5.2c-0.7,0.2-1.4,0.3-2,0.4l1.2,5.4l-0.2,0c-2.1,0.3-4.2,0.3-6.3-0.1l-0.2,0l0-0.1l1.3-5.4
	c-0.7-0.1-1.3-0.3-2-0.5L16,48.6l-0.2-0.1c-2.2-0.7-4.2-1.7-6.1-3.1l-0.2-0.1l0.1-0.2L13,41c-0.1-0.1-0.2-0.1-0.3-0.2
	c-0.4-0.3-0.8-0.7-1.2-1.1L8,44l-0.2-0.2c-1.3-1.3-2.5-2.8-3.4-4.5l-0.1-0.2l0.1,0l5-2.4c-0.3-0.6-0.6-1.2-0.9-1.8l-5,2.4l-0.1-0.2
	C2.6,35.1,2.1,33.1,2,31l0-0.2H2h0l0,0l4.4,0l1.1,0c-0.1-0.7-0.1-1.4,0-2.1l-5.5,0l0-0.2c0.1-2.1,0.6-4.2,1.4-6.1l0.1-0.2l5,2.5
	c0.2-0.6,0.5-1.2,0.9-1.8l-5-2.4l0.1-0.2c0.6-1.1,1.2-2,1.9-2.8c0.6-0.7,1.2-1.4,2-2.1L8.5,15l0,0.1l3.4,4.3c0.5-0.5,1-0.9,1.6-1.3
	l-3.3-4.4l0.2-0.1c0.9-0.6,1.8-1.2,2.9-1.7L12.4,10c-3.1,1.5-5.4,3.3-7.6,5.9c-7.6,9.4-6.1,23.1,3.2,30.7c3.9,3.2,8.6,4.9,13.5,4.9
	c3.2,0,6.3-0.7,9.4-2.1l-0.9-1.8C29,48,28.1,48.4,27,48.7"/>
<polygon points="54.6,12.3 54.6,16.4 58.6,16.4 58.6,18.3 54.6,18.3 54.6,24.4 52.3,24.4 52.3,10.3 59.9,10.3 59.9,12.3 "/>
<path d="M66.4,24.8c-2.7,0-4.5-1.5-4.5-4.1V10.3h2.3v10.3c0,1.4,0.7,2.2,2.3,2.2c1.6,0,2.3-0.8,2.3-2.2V10.3H71v10.4
	C71,23.3,69.1,24.8,66.4,24.8"/>
<polygon points="80.8,24.4 76.8,17.7 75.4,15.1 75.4,24.4 73.2,24.4 73.2,10.3 75,10.3 78.9,17.2 80.3,19.7 80.3,10.3 82.4,10.3 
	82.4,24.4 "/>
<path d="M91.5,14.7c0-1.5-0.7-2.4-2.3-2.4H87v10.1h2.2c1.6,0,2.3-0.9,2.3-2.3V14.7z M89.4,24.4h-4.6V10.3h4.6c3,0,4.4,1.9,4.4,4.1
	v5.8C93.8,22.5,92.4,24.4,89.4,24.4"/>
<path d="M100,13.4l-1.3,5.5h2.7L100,13.4z M102.8,24.4l-0.9-3.6h-3.6l-0.9,3.6h-2.2l3.7-14.1h2.4l3.8,14.1H102.8z"/>
<path d="M111,24.8c-3.1,0-4.5-2.1-4.5-4.4v-6c0-2.3,1.4-4.4,4.5-4.4c3.2,0,4.5,1.9,4.5,4.1v1.1h-2v-1c0-1.4-0.8-2.3-2.4-2.3
	c-1.6,0-2.4,0.9-2.4,2.2v6.5c0,1.3,0.8,2.2,2.4,2.2c1.6,0,2.4-0.9,2.4-2.3v-1h2v1.1C115.5,22.9,114.2,24.8,111,24.8"/>
<path d="M121.6,24.8c-2.8,0-4.2-1.5-4.2-4.1v-1.8h2.1v1.7c0,1.6,0.7,2.3,2,2.3c1.3,0,1.9-0.7,1.9-2.3V10.3h2.2v10
	C125.8,22.9,124.6,24.8,121.6,24.8"/>
<path d="M132.2,13.4l-1.3,5.5h2.7L132.2,13.4z M134.9,24.4l-0.9-3.6h-3.6l-0.9,3.6h-2.2l3.7-14.1h2.4l3.8,14.1H134.9z"/>
<path d="M58.6,31.7c0-1-0.4-1.7-1.5-1.7h-2.5v4.8h2.5c1.1,0,1.5-0.7,1.5-1.7V31.7z M57.1,36.7h-2.5v5.5h-2.2V28.1h4.7
	c2.8,0,3.8,1.5,3.8,3.6v1.4C60.8,35.2,59.8,36.7,57.1,36.7"/>
<path d="M66.2,31.2l-1.3,5.5h2.7L66.2,31.2z M69,42.2l-0.9-3.6h-3.6l-0.9,3.6h-2.2l3.7-14.1h2.4l3.8,14.1H69z"/>
<polygon points="80.8,42.2 76.8,35.5 75.4,32.9 75.4,42.2 73.2,42.2 73.2,28.1 75,28.1 78.9,35 80.3,37.5 80.3,28.1 82.4,28.1 
	82.4,42.2 "/>
<path d="M91.6,32.2c0-1.4-0.7-2.5-2.3-2.5c-1.6,0-2.3,1-2.3,2.5v6c0,1.4,0.7,2.5,2.3,2.5c1.6,0,2.3-1,2.3-2.5V32.2z M89.3,42.6
	c-3.2,0-4.5-2-4.5-4.6v-5.7c0-2.6,1.4-4.5,4.5-4.5c3.2,0,4.5,2,4.5,4.5V38C93.9,40.6,92.5,42.6,89.3,42.6"/>
<path d="M102.6,31.7c0-1-0.4-1.7-1.5-1.7h-2.5v4.8h2.5c1.1,0,1.5-0.7,1.5-1.7V31.7z M101.1,36.7h-2.5v5.5h-2.2V28.1h4.7
	c2.8,0,3.8,1.5,3.8,3.6v1.4C104.8,35.2,103.8,36.7,101.1,36.7"/>
<polygon points="112.1,30.1 112.1,42.2 109.9,42.2 109.9,30.1 106.5,30.1 106.5,28.1 115.5,28.1 115.5,30.1 "/>
<polygon points="123.1,36.5 123.1,42.2 120.9,42.2 120.9,36.5 116.9,28.1 119.3,28.1 122,34.6 124.8,28.1 127,28.1 "/>
<polygon points="135.5,42.2 132.3,35.9 131.1,37.6 131.1,42.2 128.8,42.2 128.8,28.1 131.1,28.1 131.1,34.7 135.6,28.1 138,28.1 
	133.8,34.2 138,42.2 "/>
<path d="M146.1,32.2c0-1.4-0.7-2.5-2.3-2.5c-1.6,0-2.3,1-2.3,2.5v6c0,1.4,0.7,2.5,2.3,2.5c1.6,0,2.3-1,2.3-2.5V32.2z M143.8,42.6
	c-3.2,0-4.5-2-4.5-4.6v-5.7c0-2.6,1.4-4.5,4.5-4.5c3.2,0,4.5,2,4.5,4.5V38C148.4,40.6,147,42.6,143.8,42.6"/>
<polygon points="158.4,42.2 154.4,35.5 153,32.9 153,42.2 150.8,42.2 150.8,28.1 152.6,28.1 156.5,35 157.9,37.5 157.9,28.1 
	160,28.1 160,42.2 "/>
</svg>
