<?xml version="1.0" encoding="utf-8"?>
<!-- Generator: Adobe Illustrator 13.0.2, SVG Export Plug-In  -->
<!DOCTYPE svg PUBLIC "-//W3C//DTD SVG 1.1//EN" "http://www.w3.org/Graphics/SVG/1.1/DTD/svg11.dtd" [
	<!ENTITY ns_flows "http://ns.adobe.com/Flows/1.0/">
]>
<svg version="1.1"
	 xmlns="http://www.w3.org/2000/svg" xmlns:xlink="http://www.w3.org/1999/xlink" xmlns:a="http://ns.adobe.com/AdobeSVGViewerExtensions/3.0/"
	 x="0px" y="0px" width="164px" height="38px" viewBox="-0.081 -0.001 164 38" enable-background="new -0.081 -0.001 164 38"
	 xml:space="preserve">
<defs>
</defs>
<polygon fill="#FFFFFF" points="0.711,0.711 0.711,36.883 162.867,36.883 162.867,16.085 130.264,16.099 130.264,1.099 "/>
<g>
	<defs>
		<rect id="SVGID_1_" width="178.961" height="38.502"/>
	</defs>
	<clipPath id="SVGID_2_">
		<use xlink:href="#SVGID_1_"  overflow="visible"/>
	</clipPath>
	<polygon clip-path="url(#SVGID_2_)" fill="none" stroke="#1D1D1B" stroke-width="1.4194" points="130.365,16.085 130.365,0.711 
		0.711,0.711 0.711,36.883 162.867,36.883 162.867,16.085 	"/>
</g>
<path fill="#1D1D1B" d="M8.301,16.521H6.826V8.947H9.04c0.986,0,1.521,0.159,1.996,0.579c0.489,0.444,0.773,1.1,0.773,1.827
	c0,0.658-0.227,1.272-0.614,1.692c-0.431,0.454-1.042,0.669-1.94,0.669H8.301V16.521z M8.903,12.433c0.92,0,1.386-0.363,1.386-1.09
	c0-0.364-0.149-0.692-0.386-0.874c-0.228-0.17-0.548-0.239-1.091-0.239H8.301v2.203H8.903z"/>
<polygon fill="#1D1D1B" points="14.363,10.23 14.363,11.911 16.975,11.911 16.975,13.193 14.363,13.193 14.363,15.238 
	17.078,15.238 17.078,16.521 12.889,16.521 12.889,8.946 17.078,8.946 17.078,10.23 "/>
<path fill="#1D1D1B" d="M24.198,16.521h-1.817l-2.044-3.044h-0.192v3.044h-1.476V8.947h2.19c0.84,0,1.51,0.181,1.932,0.535
	c0.464,0.386,0.749,1.031,0.749,1.702c0,0.679-0.262,1.305-0.683,1.669c-0.295,0.25-0.568,0.386-1.045,0.476L24.198,16.521z
	 M20.576,12.433c0.93,0,1.441-0.408,1.441-1.158c0-0.749-0.488-1.135-1.42-1.135h-0.453v2.293H20.576z"/>
<polygon fill="#1D1D1B" points="23.947,8.946 25.697,8.946 27.33,11.582 28.933,8.946 30.693,8.946 28.036,13.046 28.036,16.521 
	26.559,16.521 26.559,13.046 "/>
<path fill="#1D1D1B" d="M33.033,16.521h-1.477V8.947h2.213c0.988,0,1.522,0.159,1.999,0.579c0.489,0.444,0.771,1.1,0.771,1.827
	c0,0.658-0.228,1.272-0.613,1.692c-0.432,0.454-1.044,0.669-1.941,0.669h-0.952V16.521z M33.635,12.433
	c0.919,0,1.386-0.363,1.386-1.09c0-0.364-0.148-0.692-0.387-0.874c-0.229-0.17-0.544-0.239-1.09-0.239h-0.511v2.203H33.635z"/>
<polygon fill="#1D1D1B" points="39.096,10.23 39.096,11.911 41.707,11.911 41.707,13.193 39.096,13.193 39.096,15.238 
	41.808,15.238 41.808,16.521 37.62,16.521 37.62,8.946 41.808,8.946 41.808,10.23 "/>
<polygon fill="#1D1D1B" points="44.263,16.521 44.263,10.229 42.571,10.229 42.571,8.947 47.442,8.947 47.442,10.229 45.74,10.229 
	45.74,16.521 "/>
<rect x="48.372" y="8.947" fill="#1D1D1B" width="1.479" height="7.573"/>
<polygon fill="#1D1D1B" points="53.119,10.23 53.119,11.911 55.731,11.911 55.731,13.193 53.119,13.193 53.119,15.238 
	55.833,15.238 55.833,16.521 51.643,16.521 51.643,8.946 55.833,8.946 55.833,10.23 "/>
<rect x="60.104" y="8.947" fill="#1D1D1B" width="1.476" height="7.573"/>
<polygon fill="#1D1D1B" points="63.374,8.776 64.395,8.776 69.005,14.045 69.005,8.946 70.479,8.946 70.479,16.668 69.458,16.668 
	64.85,11.399 64.85,16.521 63.374,16.521 "/>
<polygon fill="#1D1D1B" points="73.762,10.23 73.762,11.911 76.136,11.911 76.136,13.193 73.762,13.193 73.762,16.521 
	72.287,16.521 72.287,8.946 76.296,8.946 76.296,10.23 "/>
<path fill="#1D1D1B" d="M85.22,12.739c0,2.236-1.782,3.952-4.088,3.952c-2.272,0-4.007-1.737-4.007-4.009
	c0-2.157,1.816-3.906,4.064-3.906C83.448,8.776,85.22,10.514,85.22,12.739 M78.646,12.705c0,1.466,1.124,2.634,2.532,2.634
	c1.385,0,2.521-1.168,2.521-2.61s-1.124-2.601-2.531-2.601C79.791,10.128,78.646,11.297,78.646,12.705"/>
<path fill="#1D1D1B" d="M92.136,16.521h-1.816l-2.044-3.044h-0.193v3.044h-1.476V8.947h2.191c0.84,0,1.51,0.181,1.928,0.535
	c0.466,0.386,0.751,1.031,0.751,1.702c0,0.679-0.26,1.305-0.682,1.669c-0.296,0.25-0.567,0.386-1.043,0.476L92.136,16.521z
	 M88.514,12.433c0.932,0,1.441-0.408,1.441-1.158c0-0.749-0.488-1.135-1.42-1.135h-0.453v2.293H88.514z"/>
<polygon fill="#1D1D1B" points="94.293,8.81 95.304,8.81 97.371,13.761 99.517,8.81 100.536,8.81 101.798,16.521 100.311,16.521 
	99.629,11.854 97.552,16.622 97.144,16.622 95.134,11.854 94.373,16.521 92.886,16.521 "/>
<path fill="#1D1D1B" d="M104.762,14.919l-0.681,1.602h-1.567l3.282-7.731h1.114l3.178,7.731h-1.579l-0.647-1.602H104.762z
	 M106.341,11.002l-1.102,2.725h2.158L106.341,11.002z"/>
<path fill="#1D1D1B" d="M116.127,10.979c-0.612-0.602-1.144-0.851-1.849-0.851c-1.396,0-2.476,1.146-2.476,2.635
	c0,1.476,1.079,2.576,2.51,2.576c0.714,0,1.215-0.227,1.814-0.827v1.736c-0.68,0.318-1.213,0.443-1.849,0.443
	c-2.236,0-3.997-1.727-3.997-3.918c0-2.214,1.783-3.997,3.997-3.997c0.67,0,1.191,0.138,1.849,0.466V10.979z"/>
<path fill="#1D1D1B" d="M120.559,14.056c0,1.046-0.207,1.683-0.67,2.125c-0.365,0.329-0.887,0.521-1.42,0.521
	c-0.683,0-1.249-0.227-1.771-0.715l0.885-1.078c0.193,0.282,0.443,0.43,0.738,0.43c0.308,0,0.557-0.17,0.659-0.454
	c0.08-0.214,0.101-0.431,0.101-1.067V8.946h1.479V14.056z"/>
<rect x="122.341" y="8.947" fill="#1D1D1B" width="1.476" height="7.573"/>
<polygon fill="#1D1D1B" points="9.222,27.819 11.072,22.597 11.877,22.597 13.638,27.819 15.453,22.664 17.01,22.664 14.159,30.384 
	13.125,30.384 11.447,25.435 9.675,30.384 8.643,30.384 5.962,22.664 7.517,22.664 "/>
<rect x="20.747" y="22.664" fill="#1D1D1B" width="1.474" height="7.572"/>
<polygon fill="#1D1D1B" points="24.016,22.495 25.039,22.495 29.647,27.763 29.647,22.664 31.124,22.664 31.124,30.384 
	30.101,30.384 25.491,25.117 25.491,30.236 24.016,30.236 "/>
<polygon fill="#1D1D1B" points="33.76,30.236 33.76,23.948 32.066,23.948 32.066,22.664 36.938,22.664 36.938,23.948 35.236,23.948 
	35.236,30.236 "/>
<polygon fill="#1D1D1B" points="39.347,23.948 39.347,25.628 41.956,25.628 41.956,26.911 39.347,26.911 39.347,28.954 
	42.061,28.954 42.061,30.236 37.869,30.236 37.869,22.664 42.061,22.664 42.061,23.948 "/>
<path fill="#1D1D1B" d="M49.181,30.236h-1.818l-2.044-3.04h-0.193v3.04H43.65v-7.572h2.191c0.839,0,1.51,0.183,1.93,0.534
	c0.465,0.386,0.748,1.032,0.748,1.702c0,0.682-0.26,1.307-0.68,1.67c-0.296,0.251-0.568,0.386-1.046,0.479L49.181,30.236z
	 M45.558,26.15c0.931,0,1.441-0.408,1.441-1.157c0-0.751-0.488-1.138-1.421-1.138h-0.453v2.295H45.558z"/>
<polygon fill="#1D1D1B" points="50.178,22.495 51.199,22.495 55.812,27.763 55.812,22.664 57.286,22.664 57.286,30.384 
	56.265,30.384 51.655,25.117 51.655,30.236 50.178,30.236 "/>
<polygon fill="#1D1D1B" points="60.568,23.948 60.568,25.628 63.181,25.628 63.181,26.911 60.568,26.911 60.568,28.954 
	63.282,28.954 63.282,30.236 59.093,30.236 59.093,22.664 63.282,22.664 63.282,23.948 "/>
<path fill="#1D1D1B" d="M70.196,24.697c-0.613-0.602-1.146-0.854-1.851-0.854c-1.395,0-2.475,1.149-2.475,2.636
	c0,1.476,1.08,2.578,2.509,2.578c0.715,0,1.215-0.229,1.816-0.831v1.738c-0.68,0.317-1.215,0.441-1.851,0.441
	c-2.236,0-3.996-1.726-3.996-3.915c0-2.215,1.783-3.996,3.996-3.996c0.671,0,1.192,0.134,1.851,0.463V24.697z"/>
<rect x="71.743" y="22.664" fill="#1D1D1B" width="1.475" height="7.572"/>
<polygon fill="#1D1D1B" points="76.488,23.948 76.488,25.628 79.1,25.628 79.1,26.911 76.488,26.911 76.488,28.954 79.203,28.954 
	79.203,30.236 75.013,30.236 75.013,22.664 79.203,22.664 79.203,23.948 "/>
<path fill="#1D1D1B" d="M82.416,29.488c0,0.499-0.398,0.896-0.886,0.896c-0.501,0-0.897-0.396-0.897-0.896
	c0-0.486,0.409-0.887,0.886-0.887C82.018,28.602,82.416,29.002,82.416,29.488"/>
<path fill="#1D1D1B" d="M88.127,30.236h-1.476v-7.572h2.214c0.989,0,1.523,0.159,1.998,0.579c0.489,0.442,0.771,1.102,0.771,1.828
	c0,0.658-0.228,1.271-0.611,1.692c-0.432,0.454-1.045,0.671-1.942,0.671h-0.954V30.236z M88.728,26.15
	c0.921,0,1.388-0.362,1.388-1.09c0-0.363-0.147-0.693-0.387-0.876c-0.228-0.17-0.546-0.236-1.091-0.236h-0.511v2.202H88.728z"/>
<path fill="#1D1D1B" d="M98.245,30.236h-1.818l-2.042-3.04h-0.193v3.04h-1.476v-7.572h2.19c0.839,0,1.51,0.183,1.93,0.534
	c0.466,0.386,0.749,1.032,0.749,1.702c0,0.682-0.261,1.307-0.682,1.67c-0.295,0.251-0.567,0.386-1.042,0.479L98.245,30.236z
	 M94.623,26.15c0.931,0,1.442-0.408,1.442-1.157c0-0.751-0.489-1.138-1.42-1.138h-0.454v2.295H94.623z"/>
<polygon fill="#1D1D1B" points="104.83,28.954 104.83,30.236 98.891,30.236 102.594,23.948 99.473,23.948 99.473,22.664 
	105.033,22.664 101.346,28.954 "/>
<polygon fill="#1D1D1B" points="107.589,23.948 107.589,25.628 110.202,25.628 110.202,26.911 107.589,26.911 107.589,28.954 
	110.304,28.954 110.304,30.236 106.112,30.236 106.112,22.664 110.304,22.664 110.304,23.948 "/>
<polygon fill="#1D1D1B" points="114.3,27.819 116.149,22.597 116.957,22.597 118.719,27.819 120.533,22.664 122.09,22.664 
	119.238,30.384 118.207,30.384 116.524,25.435 114.756,30.384 113.722,30.384 111.041,22.664 112.598,22.664 "/>
<path fill="#1D1D1B" d="M130.438,26.457c0,2.237-1.784,3.949-4.09,3.949c-2.271,0-4.007-1.736-4.007-4.008
	c0-2.156,1.816-3.903,4.063-3.903C128.664,22.495,130.438,24.23,130.438,26.457 M123.862,26.423c0,1.465,1.123,2.633,2.531,2.633
	c1.385,0,2.521-1.168,2.521-2.609c0-1.442-1.125-2.603-2.53-2.603C125.007,23.844,123.862,25.015,123.862,26.423"/>
<path fill="#1D1D1B" d="M131.832,22.664h2.169c1.113,0,1.999,0.284,2.714,0.875c0.853,0.691,1.352,1.771,1.352,2.907
	c0,1.123-0.511,2.201-1.374,2.917c-0.727,0.613-1.554,0.873-2.702,0.873h-2.158V22.664z M133.707,28.954
	c0.953,0,1.555-0.182,2.021-0.604c0.511-0.453,0.817-1.178,0.817-1.904s-0.307-1.432-0.817-1.886
	c-0.487-0.442-1.067-0.612-2.021-0.612h-0.397v5.006H133.707z"/>
<polygon fill="#1D1D1B" points="139.441,22.495 140.463,22.495 145.074,27.763 145.074,22.664 146.549,22.664 146.549,30.384 
	145.528,30.384 140.918,25.117 140.918,30.236 139.441,30.236 "/>
<rect x="148.355" y="22.664" fill="#1D1D1B" width="1.477" height="7.572"/>
<polygon fill="#1D1D1B" points="155.883,22.664 157.744,22.664 154.543,26.162 157.915,30.236 155.973,30.236 153.284,26.832 
	153.103,27.014 153.103,30.236 151.625,30.236 151.625,22.664 153.103,22.664 153.103,25.866 "/>
</svg>
