<?xml version="1.0" encoding="utf-8"?>
<!-- Generator: Adobe Illustrator 13.0.2, SVG Export Plug-In  -->
<!DOCTYPE svg PUBLIC "-//W3C//DTD SVG 1.1//EN" "http://www.w3.org/Graphics/SVG/1.1/DTD/svg11.dtd" [
	<!ENTITY ns_flows "http://ns.adobe.com/Flows/1.0/">
]>
<svg version="1.1"
	 xmlns="http://www.w3.org/2000/svg" xmlns:xlink="http://www.w3.org/1999/xlink" xmlns:a="http://ns.adobe.com/AdobeSVGViewerExtensions/3.0/"
	 x="0px" y="0px" width="345px" height="337px" viewBox="46 98.5 345 337" enable-background="new 46 98.5 345 337"
	 xml:space="preserve">
<defs>
</defs>
<path d="M363.429,117.993H51.346v-14.74h312.083V117.993z M52.346,116.993h310.083v-12.74H52.346V116.993z"/>
<g>
	<defs>
		<rect id="SVGID_1_" width="419.528" height="595.276"/>
	</defs>
	<clipPath id="SVGID_2_">
		<use xlink:href="#SVGID_1_"  overflow="visible"/>
	</clipPath>
	<path clip-path="url(#SVGID_2_)" fill="#231F20" d="M356.554,107.575l-1.025-0.529l-0.262,0.79l1.144,0.18l-0.828,0.81l0.675,0.486
		l0.522-1.035l0.521,1.035l0.666-0.495l-0.819-0.81l1.144-0.171l-0.261-0.79l-1.026,0.529l0.189-1.141h-0.828L356.554,107.575z
		 M351.632,109.278h-1.088v2.384c0,1.053,0.674,1.637,1.889,1.637c1.207,0,1.88-0.584,1.88-1.637v-2.384h-1.087v2.204
		c0,0.585-0.27,0.892-0.793,0.892c-0.53,0-0.801-0.307-0.801-0.892V109.278z M347.351,110.131c0.604,0,1.09,0.487,1.09,1.108
		c0,0.585-0.494,1.081-1.09,1.081c-0.603,0-1.098-0.487-1.098-1.099C346.253,110.618,346.739,110.131,347.351,110.131
		 M349.394,109.277h-1.088v0.504c-0.369-0.45-0.729-0.629-1.27-0.629c-1.099,0-1.907,0.899-1.907,2.123
		c0,1.179,0.782,2.024,1.853,2.024c0.55,0,0.92-0.179,1.324-0.647v0.585c0,0.369-0.09,0.648-0.243,0.81
		c-0.18,0.18-0.449,0.289-0.729,0.289c-0.495,0-0.811-0.244-0.918-0.703h-1.188c0.036,0.315,0.108,0.504,0.296,0.774
		c0.405,0.576,0.999,0.854,1.791,0.854c0.686,0,1.262-0.233,1.639-0.683c0.342-0.387,0.44-0.747,0.44-1.548V109.277z
		 M340.435,109.278v3.895h1.087v-2.015c0-0.738,0.271-1.081,0.829-1.081c0.288,0,0.531,0.118,0.641,0.307
		c0.081,0.135,0.107,0.306,0.107,0.63v2.159h1.087v-2.474c0-0.531-0.08-0.819-0.305-1.08c-0.261-0.297-0.675-0.467-1.134-0.467
		c-0.531,0-0.882,0.17-1.226,0.611v-0.485H340.435z M338.748,106.974c-0.359,0-0.656,0.296-0.656,0.647
		c0,0.369,0.288,0.665,0.656,0.665c0.359,0,0.657-0.296,0.657-0.656C339.405,107.261,339.117,106.974,338.748,106.974
		 M339.288,109.278H338.2v3.896h1.088V109.278z M334.825,109.278v3.895h1.088v-1.871c0-0.441,0.062-0.684,0.243-0.891
		c0.162-0.181,0.396-0.28,0.692-0.28c0.216,0,0.324,0.027,0.522,0.135l0.152-1.016c-0.197-0.08-0.306-0.098-0.477-0.098
		c-0.495,0-0.855,0.224-1.134,0.719v-0.593H334.825z M331.651,110.131c0.612,0,1.107,0.487,1.107,1.099
		c0,0.603-0.495,1.09-1.099,1.09c-0.621,0-1.107-0.487-1.107-1.108C330.553,110.626,331.057,110.131,331.651,110.131
		 M331.669,109.152c-1.305,0-2.24,0.854-2.24,2.042c0,1.251,0.899,2.105,2.204,2.105c1.333,0,2.25-0.845,2.25-2.078
		C333.883,109.997,332.975,109.152,331.669,109.152 M328.163,110.221h0.773v-0.943h-0.773v-1.332h-1.088v1.332h-0.433v0.943h0.433
		v2.952h1.088V110.221z M325.315,106.974c-0.358,0-0.655,0.296-0.655,0.647c0,0.369,0.288,0.665,0.655,0.665
		c0.36,0,0.657-0.296,0.657-0.656C325.973,107.261,325.685,106.974,325.315,106.974 M325.855,109.278h-1.089v3.896h1.089V109.278z
		 M319.876,109.278v3.895h1.088v-2.015c0-0.738,0.271-1.081,0.828-1.081c0.288,0,0.531,0.118,0.64,0.307
		c0.081,0.135,0.108,0.306,0.108,0.63v2.159h1.088v-2.474c0-0.531-0.081-0.819-0.306-1.08c-0.262-0.297-0.675-0.467-1.135-0.467
		c-0.53,0-0.882,0.17-1.224,0.611v-0.485H319.876z M316.702,110.131c0.61,0,1.106,0.487,1.106,1.099c0,0.603-0.496,1.09-1.098,1.09
		c-0.621,0-1.108-0.487-1.108-1.108C315.603,110.626,316.107,110.131,316.702,110.131 M316.72,109.152
		c-1.306,0-2.241,0.854-2.241,2.042c0,1.251,0.899,2.105,2.205,2.105c1.332,0,2.249-0.845,2.249-2.078
		C318.933,109.997,318.025,109.152,316.72,109.152 M307.477,109.278v3.895h1.087v-1.997c0-0.378,0.036-0.585,0.127-0.747
		c0.108-0.207,0.369-0.352,0.612-0.352c0.252,0,0.495,0.154,0.585,0.379c0.064,0.144,0.082,0.315,0.082,0.648v2.069h1.087v-1.997
		c0-0.342,0.036-0.54,0.118-0.711c0.117-0.243,0.36-0.388,0.639-0.388c0.252,0,0.45,0.127,0.55,0.343
		c0.072,0.162,0.091,0.306,0.091,0.621v2.132h1.087v-2.519c0-0.432-0.063-0.711-0.206-0.945c-0.207-0.342-0.621-0.557-1.089-0.557
		c-0.549,0-0.973,0.233-1.278,0.71c-0.297-0.495-0.675-0.71-1.215-0.71c-0.477,0-0.828,0.161-1.189,0.575v-0.449H307.477z
		 M301.5,109.278h-1.088v2.384c0,1.053,0.674,1.637,1.889,1.637c1.206,0,1.88-0.584,1.88-1.637v-2.384h-1.087v2.204
		c0,0.585-0.271,0.892-0.793,0.892c-0.531,0-0.801-0.307-0.801-0.892V109.278z M293.213,109.278v3.895h1.087v-1.997
		c0-0.378,0.037-0.585,0.127-0.747c0.108-0.207,0.369-0.352,0.612-0.352c0.252,0,0.495,0.154,0.586,0.379
		c0.063,0.144,0.081,0.315,0.081,0.648v2.069h1.087v-1.997c0-0.342,0.037-0.54,0.118-0.711c0.117-0.243,0.36-0.388,0.639-0.388
		c0.252,0,0.45,0.127,0.55,0.343c0.072,0.162,0.09,0.306,0.09,0.621v2.132h1.088v-2.519c0-0.432-0.062-0.711-0.206-0.945
		c-0.207-0.342-0.621-0.557-1.09-0.557c-0.549,0-0.972,0.233-1.277,0.71c-0.297-0.495-0.675-0.71-1.215-0.71
		c-0.478,0-0.828,0.161-1.189,0.575v-0.449H293.213z M289.36,110.708c0.099-0.487,0.432-0.776,0.918-0.776
		c0.485,0,0.81,0.271,0.927,0.776H289.36z M292.249,111.4v-0.143c0-1.306-0.756-2.105-1.998-2.105s-2.043,0.818-2.043,2.078
		c0,1.252,0.828,2.069,2.097,2.069c0.918,0,1.575-0.413,1.908-1.214l-1.008-0.162c-0.252,0.369-0.514,0.523-0.927,0.523
		c-0.595,0-0.928-0.37-0.954-1.046H292.249z M286.93,110.221h0.774v-0.943h-0.774v-1.332h-1.088v1.332h-0.432v0.943h0.432v2.952
		h1.088V110.221z M284.709,109.547c-0.378-0.279-0.783-0.413-1.27-0.413c-0.818,0-1.394,0.512-1.394,1.241
		c0,0.36,0.125,0.63,0.386,0.81c0.171,0.126,0.262,0.162,0.747,0.342c0.495,0.18,0.604,0.261,0.604,0.486
		c0,0.243-0.218,0.433-0.496,0.433c-0.324,0-0.612-0.144-0.927-0.46l-0.566,0.666c0.377,0.414,0.908,0.647,1.475,0.647
		c0.963,0,1.638-0.575,1.638-1.394c0-0.369-0.144-0.666-0.432-0.864c-0.18-0.135-0.314-0.198-0.756-0.351
		c-0.504-0.171-0.622-0.252-0.622-0.432c0-0.189,0.182-0.334,0.425-0.334c0.217,0,0.413,0.081,0.647,0.262L284.709,109.547z
		 M278.559,112.58l-1.431,2.672h1.233l3.149-5.974h-1.251l-1.106,2.213l-1.171-2.213h-1.269L278.559,112.58z M276.105,109.547
		c-0.378-0.279-0.782-0.413-1.269-0.413c-0.819,0-1.394,0.512-1.394,1.241c0,0.36,0.125,0.63,0.386,0.81
		c0.171,0.126,0.261,0.162,0.747,0.342c0.495,0.18,0.604,0.261,0.604,0.486c0,0.243-0.217,0.433-0.496,0.433
		c-0.323,0-0.611-0.144-0.927-0.46l-0.566,0.666c0.378,0.414,0.908,0.647,1.476,0.647c0.963,0,1.637-0.575,1.637-1.394
		c0-0.369-0.143-0.666-0.431-0.864c-0.181-0.135-0.315-0.198-0.755-0.351c-0.505-0.171-0.623-0.252-0.623-0.432
		c0-0.189,0.181-0.334,0.424-0.334c0.217,0,0.414,0.081,0.647,0.262L276.105,109.547z M268.114,110.131
		c0.611,0,1.107,0.487,1.107,1.099c0,0.603-0.496,1.09-1.099,1.09c-0.621,0-1.107-0.487-1.107-1.108
		C267.016,110.626,267.52,110.131,268.114,110.131 M268.132,109.152c-1.305,0-2.24,0.854-2.24,2.042
		c0,1.251,0.899,2.105,2.204,2.105c1.333,0,2.25-0.845,2.25-2.078C270.346,109.997,269.438,109.152,268.132,109.152
		 M262.907,110.131c0.603,0,1.089,0.487,1.089,1.108c0,0.585-0.495,1.081-1.089,1.081c-0.604,0-1.1-0.487-1.1-1.099
		C261.808,110.618,262.295,110.131,262.907,110.131 M264.949,109.277h-1.088v0.504c-0.369-0.45-0.729-0.629-1.27-0.629
		c-1.098,0-1.908,0.899-1.908,2.123c0,1.179,0.783,2.024,1.854,2.024c0.549,0,0.918-0.179,1.323-0.647v0.585
		c0,0.369-0.09,0.648-0.243,0.81c-0.18,0.18-0.45,0.289-0.729,0.289c-0.495,0-0.811-0.244-0.919-0.703h-1.187
		c0.036,0.315,0.107,0.504,0.297,0.774c0.405,0.576,0.998,0.854,1.791,0.854c0.684,0,1.26-0.233,1.638-0.683
		c0.341-0.387,0.44-0.747,0.44-1.548V109.277z M257.046,110.708c0.099-0.487,0.432-0.776,0.918-0.776s0.81,0.271,0.927,0.776
		H257.046z M259.935,111.4v-0.143c0-1.306-0.756-2.105-1.997-2.105c-1.242,0-2.044,0.818-2.044,2.078
		c0,1.252,0.828,2.069,2.098,2.069c0.918,0,1.574-0.413,1.907-1.214l-1.008-0.162c-0.252,0.369-0.513,0.523-0.927,0.523
		c-0.594,0-0.927-0.37-0.954-1.046H259.935z M254.436,106.974c-0.358,0-0.655,0.296-0.655,0.647c0,0.369,0.288,0.665,0.655,0.665
		c0.36,0,0.657-0.296,0.657-0.656C255.093,107.261,254.805,106.974,254.436,106.974 M254.976,109.278h-1.088v3.896h1.088V109.278z
		 M250.158,106.434h-1.088v6.739h1.088v-1.556l0.117-0.117l1.457,1.673h1.504l-1.972-2.186l1.827-1.709h-1.476l-1.458,1.421V106.434
		z M247.979,109.547c-0.376-0.279-0.78-0.413-1.267-0.413c-0.819,0-1.396,0.512-1.396,1.241c0,0.36,0.127,0.63,0.388,0.81
		c0.171,0.126,0.26,0.162,0.746,0.342c0.496,0.18,0.604,0.261,0.604,0.486c0,0.243-0.216,0.433-0.496,0.433
		c-0.323,0-0.61-0.144-0.926-0.46l-0.567,0.666c0.379,0.414,0.908,0.647,1.476,0.647c0.964,0,1.638-0.575,1.638-1.394
		c0-0.369-0.144-0.666-0.432-0.864c-0.18-0.135-0.314-0.198-0.755-0.351c-0.505-0.171-0.622-0.252-0.622-0.432
		c0-0.189,0.18-0.334,0.424-0.334c0.216,0,0.414,0.081,0.647,0.262L247.979,109.547z M238.887,109.277h-1.224l1.998,3.977h0.504
		l1.035-2.366l1.053,2.366h0.495l2.016-3.977h-1.215l-1.044,2.286l-1.062-2.393h-0.469l-1.062,2.357L238.887,109.277z
		 M234.918,110.131c0.613,0,1.09,0.487,1.09,1.108c0,0.585-0.495,1.081-1.09,1.081c-0.604,0-1.098-0.487-1.098-1.099
		C233.82,110.618,234.306,110.131,234.918,110.131 M235.891,109.278v0.502c-0.378-0.44-0.766-0.628-1.297-0.628
		c-1.071,0-1.897,0.899-1.897,2.069c0,1.188,0.817,2.078,1.916,2.078c0.54,0,0.928-0.188,1.278-0.629v0.504h1.088v-3.896H235.891z
		 M230.003,112.229l2.205-2.97h-3.789v0.943h1.872l-2.214,2.97h3.986v-0.943H230.003z M227.512,109.547
		c-0.378-0.279-0.781-0.413-1.27-0.413c-0.818,0-1.393,0.512-1.393,1.241c0,0.36,0.125,0.63,0.385,0.81
		c0.172,0.126,0.262,0.162,0.748,0.342c0.496,0.18,0.604,0.261,0.604,0.486c0,0.243-0.217,0.433-0.496,0.433
		c-0.324,0-0.611-0.144-0.926-0.46l-0.567,0.666c0.378,0.414,0.908,0.647,1.476,0.647c0.963,0,1.638-0.575,1.638-1.394
		c0-0.369-0.144-0.666-0.433-0.864c-0.18-0.135-0.314-0.198-0.754-0.351c-0.506-0.171-0.623-0.252-0.623-0.432
		c0-0.189,0.181-0.334,0.424-0.334c0.217,0,0.414,0.081,0.647,0.262L227.512,109.547z M221.52,109.278v3.895h1.088v-1.871
		c0-0.441,0.063-0.684,0.244-0.891c0.161-0.181,0.396-0.28,0.692-0.28c0.216,0,0.323,0.027,0.522,0.135l0.152-1.016
		c-0.197-0.08-0.306-0.098-0.477-0.098c-0.495,0-0.855,0.224-1.135,0.719v-0.593H221.52z M218.298,110.131
		c0.613,0,1.09,0.487,1.09,1.108c0,0.585-0.495,1.081-1.09,1.081c-0.603,0-1.099-0.487-1.099-1.099
		C217.199,110.618,217.686,110.131,218.298,110.131 M219.271,109.278v0.502c-0.379-0.44-0.767-0.628-1.297-0.628
		c-1.072,0-1.898,0.899-1.898,2.069c0,1.188,0.818,2.078,1.916,2.078c0.541,0,0.928-0.188,1.279-0.629v0.504h1.088v-3.896H219.271z
		 M209.9,109.277h-1.223l1.998,3.977h0.504l1.035-2.366l1.054,2.366h0.494l2.016-3.977h-1.214l-1.044,2.286l-1.062-2.393h-0.469
		l-1.062,2.357L209.9,109.277z M199.83,109.278v3.895h1.088v-1.997c0-0.378,0.036-0.585,0.126-0.747
		c0.108-0.207,0.369-0.352,0.613-0.352c0.252,0,0.495,0.154,0.585,0.379c0.063,0.144,0.08,0.315,0.08,0.648v2.069h1.089v-1.997
		c0-0.342,0.036-0.54,0.116-0.711c0.118-0.243,0.361-0.388,0.641-0.388c0.252,0,0.449,0.127,0.549,0.343
		c0.072,0.162,0.09,0.306,0.09,0.621v2.132h1.088v-2.519c0-0.432-0.063-0.711-0.207-0.945c-0.208-0.342-0.62-0.557-1.088-0.557
		c-0.549,0-0.973,0.233-1.28,0.71c-0.297-0.495-0.674-0.71-1.213-0.71c-0.477,0-0.829,0.161-1.189,0.575v-0.449H199.83z
		 M196.656,110.131c0.613,0,1.108,0.487,1.108,1.099c0,0.603-0.495,1.09-1.099,1.09c-0.621,0-1.107-0.487-1.107-1.108
		C195.558,110.626,196.062,110.131,196.656,110.131 M196.674,109.152c-1.305,0-2.24,0.854-2.24,2.042
		c0,1.251,0.899,2.105,2.204,2.105c1.333,0,2.25-0.845,2.25-2.078C198.888,109.997,197.98,109.152,196.674,109.152 M191.3,109.278
		v3.895h1.088v-1.871c0-0.441,0.063-0.684,0.243-0.891c0.162-0.181,0.396-0.28,0.693-0.28c0.216,0,0.324,0.027,0.522,0.135
		l0.153-1.016c-0.198-0.08-0.306-0.098-0.477-0.098c-0.495,0-0.855,0.224-1.134,0.719v-0.593H191.3z M187.448,110.708
		c0.099-0.487,0.432-0.776,0.918-0.776c0.486,0,0.81,0.271,0.927,0.776H187.448z M190.337,111.4v-0.143
		c0-1.306-0.756-2.105-1.998-2.105c-1.242,0-2.043,0.818-2.043,2.078c0,1.252,0.828,2.069,2.097,2.069
		c0.918,0,1.575-0.413,1.908-1.214l-1.008-0.162c-0.252,0.369-0.513,0.523-0.927,0.523c-0.594,0-0.927-0.37-0.954-1.046H190.337z
		 M179.28,109.278v3.895h1.088v-1.997c0-0.378,0.036-0.585,0.126-0.747c0.108-0.207,0.369-0.352,0.612-0.352
		c0.253,0,0.496,0.154,0.586,0.379c0.063,0.144,0.081,0.315,0.081,0.648v2.069h1.088v-1.997c0-0.342,0.036-0.54,0.117-0.711
		c0.117-0.243,0.36-0.388,0.639-0.388c0.253,0,0.451,0.127,0.55,0.343c0.072,0.162,0.09,0.306,0.09,0.621v2.132h1.088v-2.519
		c0-0.432-0.063-0.711-0.207-0.945c-0.207-0.342-0.62-0.557-1.088-0.557c-0.55,0-0.973,0.233-1.279,0.71
		c-0.297-0.495-0.674-0.71-1.214-0.71c-0.478,0-0.829,0.161-1.189,0.575v-0.449H179.28z M176.058,110.131
		c0.613,0,1.09,0.487,1.09,1.108c0,0.585-0.495,1.081-1.09,1.081c-0.603,0-1.098-0.487-1.098-1.099
		C174.96,110.618,175.446,110.131,176.058,110.131 M177.031,109.278v0.502c-0.378-0.44-0.765-0.628-1.297-0.628
		c-1.071,0-1.898,0.899-1.898,2.069c0,1.188,0.818,2.078,1.916,2.078c0.541,0,0.928-0.188,1.279-0.629v0.504h1.088v-3.896H177.031z
		 M170.553,106.434h-1.088v6.739h1.088v-1.556l0.117-0.117l1.458,1.673h1.503l-1.971-2.186l1.827-1.709h-1.476l-1.458,1.421V106.434
		z M165.648,106.974c-0.359,0-0.656,0.296-0.656,0.647c0,0.369,0.288,0.665,0.656,0.665c0.36,0,0.657-0.296,0.657-0.656
		C166.305,107.261,166.017,106.974,165.648,106.974 M166.188,109.278H165.1v3.896h1.088V109.278z M161.37,106.434h-1.088v6.739
		h1.088v-1.556l0.117-0.117l1.458,1.673h1.503l-1.971-2.186l1.827-1.709h-1.476l-1.458,1.421V106.434z M156.397,110.708
		c0.099-0.487,0.432-0.776,0.917-0.776c0.486,0,0.81,0.271,0.927,0.776H156.397z M159.285,111.4v-0.143
		c0-1.306-0.756-2.105-1.997-2.105c-1.242,0-2.043,0.808-2.043,2.078c0,1.252,0.837,2.069,2.105,2.069c0.063,0,0.108,0,0.216-0.009
		c-0.359,0.262-0.512,0.523-0.512,0.866c0,0.377,0.35,0.682,0.791,0.682c0.225,0,0.414-0.053,0.585-0.152l0.126-0.603
		c-0.162,0.082-0.288,0.118-0.432,0.118c-0.225,0-0.387-0.154-0.387-0.352c0-0.252,0.216-0.504,0.639-0.774
		c0.459-0.27,0.693-0.531,0.873-0.99l-1.008-0.162c-0.252,0.369-0.513,0.523-0.927,0.523c-0.593,0-0.926-0.37-0.953-1.046H159.285z
		 M153.753,106.974c-0.359,0-0.656,0.296-0.656,0.647c0,0.369,0.288,0.665,0.656,0.665c0.36,0,0.657-0.296,0.657-0.656
		C154.41,107.261,154.122,106.974,153.753,106.974 M154.293,109.278h-1.088v3.896h1.088V109.278z M150.268,112.229l2.205-2.97
		h-3.789v0.943h1.873l-2.214,2.97h3.987v-0.943H150.268z M145.541,110.131c0.612,0,1.089,0.487,1.089,1.108
		c0,0.585-0.495,1.081-1.089,1.081c-0.603,0-1.099-0.487-1.099-1.099C144.442,110.618,144.929,110.131,145.541,110.131
		 M146.513,106.434v3.347c-0.378-0.441-0.765-0.629-1.296-0.629c-1.071,0-1.898,0.899-1.898,2.069c0,1.188,0.818,2.078,1.916,2.078
		c0.54,0,0.927-0.188,1.278-0.629v0.504h1.088v-6.74H146.513z M137.558,110.708c0.099-0.487,0.432-0.776,0.918-0.776
		s0.81,0.271,0.927,0.776H137.558z M140.447,111.4v-0.143c0-1.306-0.756-2.105-1.998-2.105c-1.242,0-2.043,0.818-2.043,2.078
		c0,1.252,0.828,2.069,2.097,2.069c0.918,0,1.575-0.413,1.908-1.214l-1.008-0.162c-0.252,0.369-0.513,0.523-0.927,0.523
		c-0.594,0-0.927-0.37-0.954-1.046H140.447z M135.128,110.221h0.774v-0.943h-0.774v-1.332h-1.088v1.332h-0.432v0.943h0.432v2.952
		h1.088V110.221z M130.194,112.58l-1.431,2.672h1.233l3.15-5.974h-1.251l-1.107,2.213l-1.17-2.213h-1.269L130.194,112.58z
		 M125.234,109.278v3.895h1.088v-1.871c0-0.441,0.063-0.684,0.243-0.891c0.162-0.181,0.396-0.28,0.693-0.28
		c0.216,0,0.324,0.027,0.522,0.135l0.153-1.016c-0.198-0.08-0.306-0.098-0.477-0.098c-0.495,0-0.855,0.224-1.134,0.719v-0.593
		H125.234z M121.496,106.434h-1.088v6.739h1.088v-1.556l0.117-0.117l1.458,1.673h1.503l-1.971-2.186l1.827-1.709h-1.476
		l-1.458,1.421V106.434z M116.771,112.58l-1.431,2.672h1.233l3.15-5.974h-1.251l-1.107,2.213l-1.17-2.213h-1.269L116.771,112.58z
		 M108.622,109.277h-1.224l1.998,3.977h0.504l1.035-2.366l1.053,2.366h0.495l2.016-3.977h-1.215l-1.044,2.286l-1.062-2.393h-0.468
		l-1.062,2.357L108.622,109.277z M103.744,107.055l-0.963,2.419l0.693,0.09l1.269-2.393L103.744,107.055z M102.052,107.055
		l-0.963,2.419l0.693,0.09l1.269-2.393L102.052,107.055z M98.06,110.131c0.613,0,1.09,0.487,1.09,1.108
		c0,0.585-0.495,1.081-1.09,1.081c-0.603,0-1.098-0.487-1.098-1.099C96.962,110.618,97.448,110.131,98.06,110.131 M99.033,109.278
		v0.502c-0.378-0.44-0.765-0.628-1.297-0.628c-1.071,0-1.898,0.899-1.898,2.069c0,1.188,0.818,2.078,1.916,2.078
		c0.541,0,0.928-0.188,1.279-0.629v0.504h1.088v-3.896H99.033z M94.38,106.974c-0.36,0-0.657,0.296-0.657,0.647
		c0,0.369,0.288,0.665,0.657,0.665c0.359,0,0.656-0.296,0.656-0.656C95.036,107.261,94.748,106.974,94.38,106.974 M94.919,109.278
		h-1.088v3.896h1.088V109.278z M88.939,109.278v3.895h1.088v-2.015c0-0.738,0.27-1.081,0.828-1.081c0.288,0,0.532,0.118,0.64,0.307
		c0.081,0.135,0.108,0.306,0.108,0.63v2.159h1.088v-2.474c0-0.531-0.081-0.819-0.306-1.08c-0.261-0.297-0.674-0.467-1.133-0.467
		c-0.532,0-0.883,0.17-1.225,0.611v-0.485H88.939z M85.086,110.708c0.099-0.487,0.432-0.776,0.918-0.776
		c0.486,0,0.81,0.271,0.927,0.776H85.086z M87.975,111.4v-0.143c0-1.306-0.756-2.105-1.998-2.105s-2.043,0.818-2.043,2.078
		c0,1.252,0.828,2.069,2.097,2.069c0.918,0,1.575-0.413,1.908-1.214l-1.008-0.162c-0.252,0.369-0.513,0.523-0.927,0.523
		c-0.594,0-0.927-0.37-0.954-1.046H87.975z M81.239,112.229l2.205-2.97h-3.789v0.943h1.872l-2.214,2.97H83.3v-0.943H81.239z
		 M76.304,109.278v3.895h1.088v-1.871c0-0.441,0.063-0.684,0.243-0.891c0.162-0.181,0.396-0.28,0.693-0.28
		c0.216,0,0.324,0.027,0.522,0.135l0.153-1.016c-0.198-0.08-0.306-0.098-0.477-0.098c-0.495,0-0.855,0.224-1.134,0.719v-0.593
		H76.304z M73.083,110.131c0.612,0,1.089,0.487,1.089,1.108c0,0.585-0.495,1.081-1.089,1.081c-0.604,0-1.099-0.487-1.099-1.099
		C71.984,110.618,72.47,110.131,73.083,110.131 M74.055,109.278v0.502c-0.378-0.44-0.765-0.628-1.297-0.628
		c-1.071,0-1.898,0.899-1.898,2.069c0,1.188,0.818,2.078,1.916,2.078c0.541,0,0.928-0.188,1.279-0.629v0.504h1.088v-3.896H74.055z
		 M67.844,110.131c0.612,0,1.089,0.487,1.089,1.108c0,0.585-0.495,1.081-1.089,1.081c-0.604,0-1.099-0.487-1.099-1.099
		C66.745,110.618,67.231,110.131,67.844,110.131 M68.816,106.434v3.347c-0.378-0.441-0.765-0.629-1.296-0.629
		c-1.072,0-1.899,0.899-1.899,2.069c0,1.188,0.819,2.078,1.917,2.078c0.54,0,0.927-0.188,1.278-0.629v0.504h1.088v-6.74H68.816z
		 M62.13,112.158l2.925-4.986h-4.41v1.015h2.475l-2.934,4.986h4.707v-1.015H62.13z M58.338,111.932l-0.963,2.421l0.693,0.081
		l1.269-2.385L58.338,111.932z M56.646,111.932l-0.963,2.421l0.693,0.081l1.269-2.385L56.646,111.932z"/>
	<path clip-path="url(#SVGID_2_)" fill="#1C1C1C" d="M354.193,353.336H51.425v-0.25h302.769V353.336z M354.108,304.161H53.417v-0.25
		h300.691V304.161z M354.804,254.665H51.966v-0.25h302.838V254.665z M354.089,205.755H53.419v-0.25h300.67V205.755z"/>
	<path clip-path="url(#SVGID_2_)" d="M54.248,360.931c-0.245-0.271-0.462-0.379-0.756-0.379c-0.371,0-0.658,0.233-0.658,0.52
		c0,0.252,0.16,0.384,0.707,0.589c0.511,0.188,0.722,0.286,0.932,0.468c0.272,0.232,0.413,0.568,0.413,0.981
		c0,0.917-0.659,1.541-1.625,1.541c-0.68,0-1.184-0.281-1.604-0.891l0.588-0.566c0.21,0.398,0.561,0.623,0.981,0.623
		c0.419,0,0.721-0.273,0.721-0.657c0-0.19-0.084-0.351-0.252-0.47c-0.092-0.064-0.273-0.142-0.651-0.279
		c-0.841-0.31-1.149-0.646-1.149-1.262c0-0.784,0.617-1.36,1.457-1.36c0.511,0,0.98,0.176,1.373,0.52L54.248,360.931z"/>
	<path clip-path="url(#SVGID_2_)" d="M56.312,363.018c0,0.477,0.385,0.855,0.853,0.855c0.463,0,0.848-0.387,0.848-0.841
		c0-0.483-0.378-0.861-0.854-0.861C56.691,362.171,56.312,362.549,56.312,363.018 M55.556,366.157v-4.65h0.848v0.391
		c0.272-0.343,0.574-0.489,0.994-0.489c0.854,0,1.492,0.692,1.492,1.617c0,0.91-0.645,1.611-1.478,1.611
		c-0.406,0-0.708-0.146-1.008-0.491v2.012H55.556z"/>
	<path clip-path="url(#SVGID_2_)" d="M60.254,363.011c0,0.483,0.378,0.862,0.862,0.862c0.468,0,0.854-0.379,0.854-0.848
		c0-0.478-0.386-0.855-0.862-0.855C60.646,362.17,60.254,362.555,60.254,363.011 M62.845,363.019c0,0.959-0.714,1.616-1.751,1.616
		c-1.016,0-1.716-0.665-1.716-1.637c0-0.925,0.729-1.591,1.744-1.591C62.138,361.408,62.845,362.066,62.845,363.019"/>
	<path clip-path="url(#SVGID_2_)" d="M65.434,360.407c0,0.292-0.238,0.532-0.525,0.532c-0.295,0-0.532-0.24-0.532-0.54
		c0-0.28,0.237-0.519,0.532-0.519C65.196,359.88,65.434,360.119,65.434,360.407 M66.281,363.803v0.734h-3.103l1.724-2.311h-1.457
		v-0.737h2.948l-1.716,2.313H66.281z"/>
	<polygon clip-path="url(#SVGID_2_)" points="66.489,361.506 67.476,361.506 68.387,363.229 69.25,361.506 70.222,361.506 
		67.771,366.156 66.812,366.156 67.925,364.076 	"/>
	<polygon clip-path="url(#SVGID_2_)" points="71.985,363.257 72.812,361.422 73.175,361.422 74.003,363.284 74.815,361.506 
		75.76,361.506 74.191,364.602 73.807,364.602 72.987,362.759 72.182,364.602 71.79,364.602 70.234,361.506 71.188,361.506 	"/>
	<path clip-path="url(#SVGID_2_)" d="M76.73,363.019c0,0.475,0.386,0.854,0.855,0.854c0.462,0,0.847-0.386,0.847-0.841
		c0-0.482-0.371-0.861-0.847-0.861S76.73,362.549,76.73,363.019 M79.189,361.506v3.031h-0.848v-0.392
		c-0.273,0.343-0.574,0.49-0.994,0.49c-0.854,0-1.492-0.692-1.492-1.617c0-0.911,0.645-1.612,1.478-1.612
		c0.413,0,0.714,0.148,1.008,0.491v-0.392H79.189z"/>
	<path clip-path="url(#SVGID_2_)" d="M80.848,361.506v0.378c0.266-0.345,0.539-0.478,0.952-0.478c0.358,0,0.68,0.133,0.883,0.365
		c0.175,0.203,0.238,0.427,0.238,0.84v1.926h-0.847v-1.68c0-0.252-0.022-0.386-0.084-0.491c-0.084-0.146-0.274-0.238-0.497-0.238
		c-0.435,0-0.645,0.267-0.645,0.842v1.567H80v-3.031H80.848z"/>
	<path clip-path="url(#SVGID_2_)" d="M84.563,364.537h-0.847v-3.031h0.847V364.537z M84.655,360.224
		c0,0.279-0.231,0.512-0.512,0.512c-0.287,0-0.51-0.232-0.51-0.52c0-0.272,0.23-0.504,0.51-0.504
		C84.43,359.712,84.655,359.937,84.655,360.224"/>
	<path clip-path="url(#SVGID_2_)" d="M87.532,362.62c-0.091-0.394-0.343-0.604-0.721-0.604c-0.379,0-0.638,0.225-0.715,0.604H87.532
		z M86.068,363.158c0.021,0.525,0.28,0.812,0.743,0.812c0.321,0,0.525-0.119,0.721-0.406l0.784,0.126
		c-0.259,0.623-0.769,0.946-1.484,0.946c-0.988,0-1.632-0.637-1.632-1.611c0-0.979,0.623-1.618,1.59-1.618
		c0.966,0,1.554,0.623,1.554,1.64v0.111H86.068z"/>
	<path clip-path="url(#SVGID_2_)" d="M52.547,371.419c0,0.475,0.385,0.854,0.854,0.854c0.462,0,0.847-0.386,0.847-0.841
		c0-0.482-0.371-0.861-0.847-0.861S52.547,370.95,52.547,371.419 M55.005,369.907v3.031h-0.848v-0.392
		c-0.273,0.343-0.574,0.49-0.994,0.49c-0.854,0-1.492-0.692-1.492-1.617c0-0.91,0.645-1.612,1.478-1.612
		c0.413,0,0.714,0.148,1.008,0.491v-0.392H55.005z"/>
	<rect x="55.815" y="367.692" clip-path="url(#SVGID_2_)" width="0.847" height="5.246"/>
	<polygon clip-path="url(#SVGID_2_)" points="58.321,371.012 59.456,369.907 60.604,369.907 59.182,371.237 60.717,372.939 
		59.547,372.939 58.412,371.635 58.321,371.727 58.321,372.939 57.473,372.939 57.473,367.693 58.321,367.693 	"/>
	<path clip-path="url(#SVGID_2_)" d="M61.625,371.412c0,0.483,0.379,0.862,0.863,0.862c0.468,0,0.854-0.379,0.854-0.848
		c0-0.478-0.386-0.855-0.862-0.855C62.018,370.571,61.625,370.956,61.625,371.412 M64.217,371.419c0,0.959-0.714,1.616-1.751,1.616
		c-1.016,0-1.716-0.665-1.716-1.637c0-0.925,0.729-1.591,1.744-1.591C63.51,369.808,64.217,370.466,64.217,371.419"/>
	<path clip-path="url(#SVGID_2_)" d="M65.714,367.692v2.604c0.266-0.348,0.539-0.489,0.952-0.489c0.358,0,0.68,0.133,0.883,0.371
		c0.175,0.21,0.238,0.428,0.238,0.855v1.904H66.94v-1.659c0-0.26-0.022-0.398-0.084-0.505c-0.084-0.146-0.274-0.244-0.497-0.244
		c-0.435,0-0.645,0.272-0.645,0.854v1.555h-0.848v-5.246H65.714z"/>
	<path clip-path="url(#SVGID_2_)" d="M69.31,371.412c0,0.483,0.379,0.862,0.863,0.862c0.468,0,0.854-0.379,0.854-0.848
		c0-0.478-0.386-0.855-0.862-0.855C69.703,370.571,69.31,370.956,69.31,371.412 M71.902,371.419c0,0.959-0.714,1.616-1.751,1.616
		c-1.016,0-1.716-0.665-1.716-1.637c0-0.925,0.729-1.591,1.744-1.591C71.195,369.808,71.902,370.466,71.902,371.419"/>
	<rect x="72.552" y="367.692" clip-path="url(#SVGID_2_)" width="0.847" height="5.246"/>
	<path clip-path="url(#SVGID_2_)" d="M75.059,371.623c0,0.454,0.21,0.692,0.623,0.692c0.406,0,0.616-0.238,0.616-0.692v-1.717h0.848
		v1.856c0,0.819-0.525,1.273-1.464,1.273c-0.945,0-1.471-0.454-1.471-1.273v-1.856h0.848V371.623z"/>
	<polygon clip-path="url(#SVGID_2_)" points="53.184,380.057 54.01,378.221 54.374,378.221 55.202,380.083 56.014,378.306 
		56.958,378.306 55.39,381.402 55.004,381.402 54.186,379.559 53.379,381.402 52.988,381.402 51.433,378.306 52.386,378.306 	"/>
	<path clip-path="url(#SVGID_2_)" d="M59.974,378.306v0.35c0.28-0.323,0.553-0.449,0.924-0.449c0.421,0,0.715,0.168,0.946,0.554
		c0.238-0.37,0.568-0.554,0.994-0.554c0.365,0,0.687,0.168,0.848,0.436c0.112,0.182,0.161,0.398,0.161,0.734v1.961h-0.848v-1.66
		c0-0.244-0.013-0.355-0.07-0.482c-0.077-0.168-0.23-0.267-0.427-0.267c-0.217,0-0.406,0.112-0.497,0.302
		c-0.063,0.134-0.092,0.287-0.092,0.555v1.553h-0.846v-1.61c0-0.26-0.015-0.393-0.064-0.504c-0.07-0.176-0.258-0.295-0.455-0.295
		c-0.189,0-0.392,0.112-0.476,0.274c-0.071,0.125-0.098,0.287-0.098,0.582v1.553h-0.848v-3.031H59.974z"/>
	<path clip-path="url(#SVGID_2_)" d="M65.489,381.336h-0.847v-3.031h0.847V381.336z M65.581,377.024
		c0,0.279-0.231,0.512-0.512,0.512c-0.287,0-0.51-0.232-0.51-0.52c0-0.272,0.23-0.504,0.51-0.504
		C65.356,376.512,65.581,376.737,65.581,377.024"/>
	<path clip-path="url(#SVGID_2_)" d="M68.458,379.419c-0.091-0.394-0.343-0.604-0.721-0.604c-0.379,0-0.638,0.225-0.715,0.604
		H68.458z M66.994,379.958c0.021,0.525,0.28,0.812,0.743,0.812c0.321,0,0.525-0.119,0.721-0.406l0.784,0.126
		c-0.259,0.624-0.769,0.946-1.484,0.946c-0.988,0-1.632-0.637-1.632-1.611c0-0.979,0.623-1.618,1.59-1.618
		c0.966,0,1.554,0.623,1.554,1.64v0.111H66.994z"/>
	<path clip-path="url(#SVGID_2_)" d="M70.76,382.957h-0.847v-4.649h0.847V382.957z M70.852,377.024c0,0.279-0.231,0.512-0.512,0.512
		c-0.28,0-0.51-0.232-0.51-0.52c0-0.272,0.23-0.504,0.51-0.504C70.626,376.512,70.852,376.737,70.852,377.024"/>
	<path clip-path="url(#SVGID_2_)" d="M73.218,379.012c-0.183-0.141-0.337-0.202-0.505-0.202c-0.188,0-0.329,0.111-0.329,0.259
		c0,0.14,0.091,0.203,0.483,0.337c0.344,0.118,0.449,0.168,0.589,0.271c0.224,0.154,0.336,0.387,0.336,0.674
		c0,0.637-0.525,1.085-1.274,1.085c-0.442,0-0.855-0.183-1.15-0.504l0.442-0.52c0.245,0.245,0.47,0.358,0.721,0.358
		c0.217,0,0.385-0.148,0.385-0.336c0-0.176-0.084-0.238-0.469-0.378c-0.377-0.142-0.448-0.17-0.581-0.268
		c-0.203-0.139-0.301-0.35-0.301-0.63c0-0.567,0.448-0.966,1.086-0.966c0.378,0,0.693,0.104,0.987,0.322L73.218,379.012z"/>
	<path clip-path="url(#SVGID_2_)" d="M76.669,379.229c-0.245-0.188-0.435-0.259-0.687-0.259c-0.503,0-0.875,0.363-0.875,0.855
		c0,0.49,0.372,0.847,0.875,0.847c0.259,0,0.456-0.07,0.687-0.253v0.828c-0.273,0.139-0.497,0.188-0.777,0.188
		c-0.939,0-1.661-0.692-1.661-1.597c0-0.923,0.722-1.631,1.667-1.631c0.301,0,0.526,0.056,0.771,0.182V379.229z"/>
	<path clip-path="url(#SVGID_2_)" d="M78.194,380.022c0,0.454,0.21,0.692,0.623,0.692c0.406,0,0.616-0.238,0.616-0.692v-1.717h0.848
		v1.856c0,0.819-0.525,1.273-1.464,1.273c-0.945,0-1.471-0.454-1.471-1.273v-1.856h0.848V380.022z"/>
	<polygon clip-path="url(#SVGID_2_)" points="54.619,389.003 54.619,389.738 51.516,389.738 53.24,387.427 51.783,387.427 
		51.783,386.69 54.731,386.69 53.015,389.003 	"/>
	<path clip-path="url(#SVGID_2_)" d="M55.906,388.219c0,0.475,0.386,0.854,0.855,0.854c0.462,0,0.847-0.386,0.847-0.841
		c0-0.482-0.371-0.861-0.847-0.861S55.906,387.75,55.906,388.219 M58.365,386.707v3.031h-0.848v-0.392
		c-0.273,0.343-0.574,0.49-0.994,0.49c-0.854,0-1.492-0.692-1.492-1.617c0-0.911,0.645-1.612,1.478-1.612
		c0.413,0,0.714,0.148,1.008,0.491v-0.392H58.365z"/>
	<path clip-path="url(#SVGID_2_)" d="M59.932,388.218c0,0.477,0.385,0.855,0.854,0.855c0.463,0,0.847-0.386,0.847-0.841
		c0-0.484-0.378-0.862-0.854-0.862C60.31,387.371,59.932,387.749,59.932,388.218 M60.022,387.098c0.301-0.344,0.603-0.49,1.009-0.49
		c0.84,0,1.477,0.7,1.477,1.604c0,0.932-0.637,1.624-1.492,1.624c-0.42,0-0.714-0.146-0.994-0.49v0.394h-0.848v-5.245h0.848V387.098
		z"/>
	<path clip-path="url(#SVGID_2_)" d="M64.006,386.707v0.462c0.217-0.387,0.497-0.562,0.882-0.562c0.134,0,0.218,0.016,0.372,0.079
		l-0.119,0.791c-0.155-0.085-0.239-0.106-0.406-0.106c-0.232,0-0.415,0.077-0.541,0.218c-0.139,0.161-0.188,0.35-0.188,0.692v1.457
		h-0.848v-3.031H64.006z"/>
	<path clip-path="url(#SVGID_2_)" d="M66.357,388.211c0,0.483,0.378,0.862,0.862,0.862c0.468,0,0.854-0.379,0.854-0.848
		c0-0.478-0.386-0.855-0.862-0.855C66.749,387.371,66.357,387.755,66.357,388.211 M68.948,388.219c0,0.959-0.714,1.616-1.751,1.616
		c-1.016,0-1.716-0.665-1.716-1.637c0-0.926,0.729-1.591,1.744-1.591C68.241,386.608,68.948,387.266,68.948,388.219"/>
	<path clip-path="url(#SVGID_2_)" d="M70.445,386.707v0.378c0.266-0.345,0.539-0.478,0.952-0.478c0.358,0,0.68,0.133,0.883,0.365
		c0.175,0.203,0.238,0.427,0.238,0.84v1.926h-0.847v-1.68c0-0.252-0.022-0.386-0.084-0.491c-0.084-0.146-0.274-0.238-0.497-0.238
		c-0.435,0-0.645,0.267-0.645,0.841v1.568h-0.848v-3.031H70.445z"/>
	<path clip-path="url(#SVGID_2_)" d="M74.161,389.738h-0.847v-3.032h0.847V389.738z M74.253,385.423c0,0.28-0.231,0.513-0.512,0.513
		c-0.287,0-0.51-0.232-0.51-0.52c0-0.272,0.23-0.504,0.51-0.504C74.028,384.913,74.253,385.137,74.253,385.423"/>
	<path clip-path="url(#SVGID_2_)" d="M75.674,388.211c0,0.483,0.379,0.862,0.863,0.862c0.468,0,0.854-0.379,0.854-0.848
		c0-0.478-0.386-0.855-0.862-0.855C76.066,387.371,75.674,387.755,75.674,388.211 M78.266,388.219c0,0.959-0.714,1.616-1.751,1.616
		c-1.016,0-1.716-0.665-1.716-1.637c0-0.926,0.729-1.591,1.744-1.591C77.559,386.608,78.266,387.266,78.266,388.219"/>
	<path clip-path="url(#SVGID_2_)" d="M79.762,386.707v0.378c0.266-0.345,0.539-0.478,0.952-0.478c0.358,0,0.68,0.133,0.883,0.365
		c0.175,0.203,0.238,0.427,0.238,0.84v1.926h-0.847v-1.68c0-0.252-0.022-0.386-0.084-0.491c-0.084-0.146-0.274-0.238-0.497-0.238
		c-0.435,0-0.645,0.267-0.645,0.841v1.568h-0.848v-3.031H79.762z"/>
	<polygon clip-path="url(#SVGID_2_)" points="82.12,386.707 83.107,386.707 84.018,388.429 84.88,386.707 85.853,386.707 
		83.402,391.356 82.442,391.356 83.556,389.276 	"/>
	<path clip-path="url(#SVGID_2_)" d="M87.112,386.707v0.35c0.28-0.323,0.553-0.449,0.924-0.449c0.421,0,0.715,0.168,0.946,0.554
		c0.238-0.37,0.568-0.554,0.994-0.554c0.365,0,0.687,0.168,0.848,0.436c0.112,0.182,0.161,0.398,0.161,0.734v1.961h-0.848v-1.66
		c0-0.244-0.013-0.355-0.07-0.482c-0.077-0.168-0.23-0.267-0.427-0.267c-0.217,0-0.406,0.112-0.497,0.302
		c-0.063,0.134-0.092,0.287-0.092,0.555v1.553h-0.846v-1.61c0-0.26-0.015-0.393-0.064-0.504c-0.07-0.176-0.258-0.295-0.455-0.295
		c-0.189,0-0.392,0.112-0.476,0.274c-0.071,0.125-0.098,0.287-0.098,0.582v1.553h-0.848v-3.031H87.112z"/>
	<path clip-path="url(#SVGID_2_)" d="M93.278,387.154c0,0.309-0.245,0.554-0.546,0.554c-0.309,0-0.554-0.245-0.554-0.554
		c0-0.302,0.253-0.547,0.547-0.547C93.034,386.607,93.278,386.852,93.278,387.154 M93.146,388.864l-0.987,1.854l-0.539-0.062
		l0.749-1.886L93.146,388.864z"/>
	<path clip-path="url(#SVGID_2_)" d="M52.547,396.611c0,0.483,0.378,0.862,0.862,0.862c0.468,0,0.854-0.379,0.854-0.848
		c0-0.478-0.386-0.855-0.862-0.855C52.938,395.77,52.547,396.155,52.547,396.611 M55.138,396.619c0,0.959-0.714,1.616-1.751,1.616
		c-1.016,0-1.716-0.665-1.716-1.637c0-0.925,0.729-1.591,1.744-1.591C54.431,395.007,55.138,395.666,55.138,396.619"/>
	<path clip-path="url(#SVGID_2_)" d="M57.447,395.812c-0.183-0.14-0.337-0.202-0.505-0.202c-0.188,0-0.329,0.111-0.329,0.259
		c0,0.14,0.091,0.203,0.483,0.337c0.344,0.118,0.449,0.168,0.589,0.271c0.224,0.154,0.336,0.387,0.336,0.674
		c0,0.637-0.525,1.085-1.274,1.085c-0.442,0-0.855-0.183-1.15-0.504l0.442-0.52c0.245,0.245,0.47,0.358,0.721,0.358
		c0.217,0,0.385-0.148,0.385-0.336c0-0.176-0.084-0.238-0.469-0.378c-0.377-0.142-0.448-0.17-0.581-0.268
		c-0.203-0.139-0.301-0.35-0.301-0.631c0-0.566,0.448-0.965,1.086-0.965c0.378,0,0.693,0.104,0.987,0.322L57.447,395.812z"/>
	<path clip-path="url(#SVGID_2_)" d="M59.336,396.611c0,0.483,0.379,0.862,0.863,0.862c0.468,0,0.854-0.379,0.854-0.848
		c0-0.478-0.386-0.855-0.862-0.855C59.729,395.77,59.336,396.155,59.336,396.611 M61.928,396.619c0,0.959-0.714,1.616-1.751,1.616
		c-1.016,0-1.716-0.665-1.716-1.637c0-0.925,0.729-1.591,1.744-1.591C61.221,395.007,61.928,395.666,61.928,396.619"/>
	<path clip-path="url(#SVGID_2_)" d="M63.334,396.618c0,0.477,0.385,0.855,0.854,0.855c0.463,0,0.847-0.386,0.847-0.841
		c0-0.484-0.378-0.862-0.854-0.862C63.712,395.77,63.334,396.148,63.334,396.618 M63.425,395.498c0.301-0.344,0.603-0.49,1.009-0.49
		c0.84,0,1.477,0.7,1.477,1.604c0,0.932-0.637,1.624-1.492,1.624c-0.42,0-0.714-0.146-0.994-0.49v0.394h-0.848v-5.246h0.848V395.498
		z"/>
	<polygon clip-path="url(#SVGID_2_)" points="65.985,395.106 66.972,395.106 67.883,396.829 68.746,395.106 69.718,395.106 
		67.268,399.755 66.308,399.755 67.421,397.675 	"/>
	<path clip-path="url(#SVGID_2_)" d="M72.728,395.106v0.378c0.266-0.345,0.539-0.478,0.952-0.478c0.358,0,0.68,0.133,0.883,0.365
		c0.175,0.203,0.238,0.427,0.238,0.84v1.926h-0.847v-1.68c0-0.252-0.022-0.386-0.084-0.491c-0.084-0.146-0.274-0.238-0.497-0.238
		c-0.435,0-0.645,0.267-0.645,0.842v1.567h-0.848v-3.031H72.728z"/>
	<path clip-path="url(#SVGID_2_)" d="M76.443,398.137h-0.847v-3.032h0.847V398.137z M76.535,393.824
		c0,0.279-0.231,0.512-0.512,0.512c-0.287,0-0.51-0.232-0.51-0.52c0-0.272,0.23-0.504,0.51-0.504
		C76.31,393.312,76.535,393.537,76.535,393.824"/>
	<path clip-path="url(#SVGID_2_)" d="M79.412,396.219c-0.091-0.394-0.343-0.604-0.721-0.604c-0.379,0-0.638,0.225-0.715,0.604
		H79.412z M77.948,396.757c0.021,0.525,0.28,0.812,0.743,0.812c0.321,0,0.525-0.119,0.721-0.406l0.785,0.126
		c-0.26,0.623-0.77,0.946-1.485,0.946c-0.988,0-1.632-0.637-1.632-1.611c0-0.979,0.623-1.618,1.59-1.618
		c0.966,0,1.554,0.623,1.554,1.64v0.111H77.948z"/>
	<polygon clip-path="url(#SVGID_2_)" points="81.771,398.137 80.922,398.137 80.922,395.84 80.586,395.84 80.586,395.106 
		80.922,395.106 80.922,394.069 81.771,394.069 81.771,395.106 82.374,395.106 82.374,395.84 81.771,395.84 	"/>
	<path clip-path="url(#SVGID_2_)" d="M83.71,395.106v0.462c0.217-0.387,0.497-0.562,0.882-0.562c0.134,0,0.218,0.015,0.372,0.079
		l-0.119,0.791c-0.155-0.085-0.239-0.106-0.406-0.106c-0.232,0-0.414,0.077-0.541,0.218c-0.139,0.161-0.188,0.35-0.188,0.692v1.457
		h-0.848v-3.031H83.71z"/>
	<polygon clip-path="url(#SVGID_2_)" points="88.226,397.403 88.226,398.137 85.123,398.137 86.847,395.827 85.39,395.827 
		85.39,395.09 88.337,395.09 86.622,397.403 	"/>
	<path clip-path="url(#SVGID_2_)" d="M90.962,396.219c-0.091-0.394-0.343-0.604-0.721-0.604c-0.379,0-0.638,0.225-0.715,0.604
		H90.962z M89.498,396.757c0.021,0.525,0.28,0.812,0.743,0.812c0.321,0,0.525-0.119,0.721-0.406l0.784,0.126
		c-0.259,0.623-0.769,0.946-1.484,0.946c-0.988,0-1.632-0.637-1.632-1.611c0-0.979,0.623-1.618,1.59-1.618
		c0.966,0,1.554,0.623,1.554,1.64v0.111H89.498z"/>
	<path clip-path="url(#SVGID_2_)" d="M93.762,394.574l-0.407-0.28l0.833-1.058l0.624,0.392L93.762,394.574z M95.204,397.403v0.734
		h-3.103l1.724-2.311h-1.457v-0.736h2.948l-1.716,2.312H95.204z"/>
	<polygon clip-path="url(#SVGID_2_)" points="97.163,396.857 97.989,395.021 98.353,395.021 99.181,396.883 99.993,395.106 
		100.938,395.106 99.369,398.202 98.984,398.202 98.165,396.359 97.359,398.202 96.967,398.202 95.412,395.106 96.365,395.106 	"/>
	<path clip-path="url(#SVGID_2_)" d="M103.373,396.219c-0.091-0.394-0.343-0.604-0.721-0.604c-0.379,0-0.638,0.225-0.715,0.604
		H103.373z M101.909,396.757c0.021,0.525,0.28,0.812,0.743,0.812c0.321,0,0.525-0.119,0.721-0.406l0.785,0.126
		c-0.26,0.623-0.77,0.946-1.485,0.946c-0.988,0-1.632-0.637-1.632-1.611c0-0.979,0.623-1.618,1.59-1.618
		c0.966,0,1.554,0.623,1.554,1.64v0.111H101.909z"/>
	<path clip-path="url(#SVGID_2_)" d="M52.589,405.018c0,0.477,0.385,0.855,0.855,0.855c0.462,0,0.846-0.386,0.846-0.841
		c0-0.484-0.378-0.862-0.854-0.862C52.967,404.17,52.589,404.548,52.589,405.018 M52.68,403.898c0.301-0.344,0.603-0.49,1.009-0.49
		c0.84,0,1.477,0.7,1.477,1.604c0,0.932-0.637,1.624-1.492,1.624c-0.42,0-0.714-0.146-0.994-0.49v0.394h-0.848v-5.245h0.848V403.898
		z"/>
	<path clip-path="url(#SVGID_2_)" d="M56.529,405.019c0,0.475,0.385,0.854,0.854,0.854c0.462,0,0.847-0.386,0.847-0.841
		c0-0.482-0.371-0.861-0.847-0.861S56.529,404.549,56.529,405.019 M58.987,403.506v3.031c-0.035,0.022-0.07,0.049-0.091,0.064
		c-0.26,0.176-0.344,0.287-0.344,0.455c0,0.161,0.126,0.279,0.302,0.279c0.105,0,0.21-0.027,0.336-0.092l-0.105,0.471
		c-0.126,0.076-0.273,0.118-0.449,0.118c-0.342,0-0.616-0.237-0.616-0.531c0-0.177,0.077-0.371,0.196-0.505
		c0.084-0.092,0.162-0.146,0.365-0.26h-0.442v-0.392c-0.273,0.343-0.574,0.49-0.994,0.49c-0.854,0-1.492-0.692-1.492-1.617
		c0-0.911,0.645-1.612,1.478-1.612c0.413,0,0.714,0.148,1.008,0.491v-0.392H58.987z"/>
	<path clip-path="url(#SVGID_2_)" d="M60.512,405.019c0,0.475,0.386,0.854,0.855,0.854c0.462,0,0.847-0.386,0.847-0.841
		c0-0.482-0.371-0.86-0.847-0.86S60.512,404.549,60.512,405.019 M62.971,401.292v5.246h-0.848v-0.393
		c-0.273,0.344-0.574,0.491-0.994,0.491c-0.854,0-1.492-0.694-1.492-1.617c0-0.912,0.645-1.612,1.478-1.612
		c0.413,0,0.714,0.148,1.008,0.489v-2.604H62.971z"/>
	<path clip-path="url(#SVGID_2_)" d="M65.125,402.974l-0.407-0.28l0.833-1.058l0.624,0.392L65.125,402.974z M66.567,405.803v0.734
		h-3.103l1.724-2.311h-1.457v-0.737h2.948l-1.716,2.313H66.567z"/>
	<rect x="68.926" y="401.292" clip-path="url(#SVGID_2_)" width="0.847" height="5.246"/>
	<path clip-path="url(#SVGID_2_)" d="M72.756,404.62c-0.091-0.394-0.343-0.604-0.721-0.604c-0.379,0-0.638,0.225-0.715,0.604H72.756
		z M71.292,405.158c0.021,0.525,0.28,0.812,0.743,0.812c0.321,0,0.525-0.119,0.721-0.406l0.785,0.126
		c-0.26,0.623-0.77,0.946-1.485,0.946c-0.988,0-1.632-0.637-1.632-1.611c0-0.979,0.623-1.618,1.59-1.618
		c0.966,0,1.554,0.623,1.554,1.64v0.111H71.292z"/>
	<path clip-path="url(#SVGID_2_)" d="M76.151,402.407c0,0.292-0.238,0.532-0.525,0.532c-0.295,0-0.532-0.24-0.532-0.54
		c0-0.28,0.237-0.519,0.532-0.519C75.913,401.88,76.151,402.119,76.151,402.407 M76.998,405.803v0.734h-3.103l1.724-2.311h-1.457
		v-0.737h2.948l-1.716,2.313H76.998z"/>
	<path clip-path="url(#SVGID_2_)" d="M78.32,405.019c0,0.475,0.385,0.854,0.854,0.854c0.462,0,0.847-0.386,0.847-0.841
		c0-0.482-0.371-0.861-0.847-0.861S78.32,404.549,78.32,405.019 M80.778,403.506v3.031c-0.035,0.022-0.07,0.049-0.091,0.064
		c-0.26,0.176-0.344,0.287-0.344,0.455c0,0.161,0.126,0.279,0.302,0.279c0.105,0,0.21-0.027,0.336-0.092l-0.105,0.471
		c-0.126,0.076-0.273,0.118-0.449,0.118c-0.342,0-0.616-0.237-0.616-0.531c0-0.177,0.077-0.371,0.196-0.505
		c0.084-0.092,0.162-0.146,0.365-0.26H79.93v-0.392c-0.273,0.343-0.574,0.49-0.994,0.49c-0.854,0-1.492-0.692-1.492-1.617
		c0-0.911,0.645-1.612,1.478-1.612c0.413,0,0.714,0.148,1.008,0.491v-0.392H80.778z"/>
	<path clip-path="url(#SVGID_2_)" d="M83.864,404.429c-0.245-0.188-0.435-0.259-0.687-0.259c-0.503,0-0.875,0.364-0.875,0.855
		c0,0.49,0.372,0.847,0.875,0.847c0.259,0,0.456-0.07,0.687-0.253v0.828c-0.273,0.139-0.497,0.188-0.777,0.188
		c-0.939,0-1.661-0.692-1.661-1.597c0-0.923,0.722-1.631,1.667-1.631c0.301,0,0.526,0.056,0.771,0.182V404.429z"/>
	<path clip-path="url(#SVGID_2_)" d="M86.678,404.62c-0.091-0.394-0.343-0.604-0.721-0.604c-0.379,0-0.638,0.225-0.715,0.604H86.678
		z M85.214,405.158c0.021,0.525,0.28,0.812,0.743,0.812c0.321,0,0.525-0.119,0.721-0.406l0.785,0.126
		c-0.26,0.623-0.77,0.946-1.485,0.946c-0.988,0-1.632-0.637-1.632-1.611c0-0.979,0.623-1.618,1.59-1.618
		c0.966,0,1.554,0.623,1.554,1.64v0.111H85.214z"/>
	<path clip-path="url(#SVGID_2_)" d="M89.575,403.954c0,0.309-0.245,0.554-0.546,0.554c-0.309,0-0.554-0.245-0.554-0.554
		c0-0.302,0.253-0.547,0.547-0.547C89.331,403.407,89.575,403.652,89.575,403.954 M89.442,405.663l-0.987,1.854l-0.539-0.061
		l0.749-1.886L89.442,405.663z"/>
	<polygon clip-path="url(#SVGID_2_)" points="54.619,414.203 54.619,414.938 51.516,414.938 53.24,412.627 51.783,412.627 
		51.783,411.891 54.731,411.891 53.015,414.203 	"/>
	<path clip-path="url(#SVGID_2_)" d="M55.906,413.419c0,0.475,0.386,0.854,0.855,0.854c0.462,0,0.847-0.386,0.847-0.841
		c0-0.482-0.371-0.861-0.847-0.861S55.906,412.95,55.906,413.419 M58.365,411.907v3.031h-0.848v-0.392
		c-0.273,0.343-0.574,0.49-0.994,0.49c-0.854,0-1.492-0.692-1.492-1.617c0-0.91,0.645-1.612,1.478-1.612
		c0.413,0,0.714,0.148,1.008,0.491v-0.392H58.365z"/>
	<polygon clip-path="url(#SVGID_2_)" points="60.022,413.012 61.158,411.907 62.306,411.907 60.883,413.237 62.418,414.939 
		61.249,414.939 60.113,413.635 60.022,413.727 60.022,414.939 59.174,414.939 59.174,409.693 60.022,409.693 	"/>
	<polygon clip-path="url(#SVGID_2_)" points="63.746,411.436 64.271,411.051 64.271,411.835 63.746,412.201 63.746,414.938 
		62.899,414.938 62.899,412.591 62.388,412.958 62.388,412.178 62.899,411.835 62.899,409.693 63.746,409.693 	"/>
	<path clip-path="url(#SVGID_2_)" d="M66.211,411.374l-0.407-0.279l0.833-1.059l0.616,0.393L66.211,411.374z M65.391,413.412
		c0,0.483,0.379,0.862,0.863,0.862c0.468,0,0.854-0.379,0.854-0.848c0-0.478-0.386-0.855-0.862-0.855
		C65.783,412.571,65.391,412.956,65.391,413.412 M67.982,413.419c0,0.959-0.714,1.616-1.751,1.616c-1.016,0-1.716-0.665-1.716-1.637
		c0-0.925,0.729-1.591,1.744-1.591C67.275,411.808,67.982,412.466,67.982,413.419"/>
	<path clip-path="url(#SVGID_2_)" d="M70.908,412.831c-0.245-0.188-0.435-0.26-0.687-0.26c-0.503,0-0.876,0.364-0.876,0.855
		c0,0.49,0.373,0.847,0.876,0.847c0.259,0,0.456-0.07,0.687-0.253v0.828c-0.273,0.139-0.497,0.188-0.777,0.188
		c-0.939,0-1.661-0.692-1.661-1.597c0-0.923,0.722-1.631,1.667-1.631c0.301,0,0.526,0.056,0.771,0.182V412.831z"/>
	<path clip-path="url(#SVGID_2_)" d="M73.722,413.02c-0.091-0.394-0.343-0.604-0.721-0.604c-0.379,0-0.638,0.225-0.715,0.604H73.722
		z M72.258,413.558c0.021,0.525,0.28,0.812,0.743,0.812c0.321,0,0.525-0.119,0.721-0.406l0.784,0.126
		c-0.259,0.623-0.769,0.946-1.484,0.946c-0.988,0-1.632-0.637-1.632-1.611c0-0.979,0.623-1.618,1.59-1.618
		c0.966,0,1.554,0.623,1.554,1.64v0.111H72.258z"/>
	<path clip-path="url(#SVGID_2_)" d="M76.024,411.907v0.378c0.266-0.345,0.539-0.478,0.952-0.478c0.358,0,0.68,0.133,0.883,0.365
		c0.175,0.203,0.238,0.427,0.238,0.84v1.926H77.25v-1.679c0-0.253-0.022-0.387-0.084-0.492c-0.084-0.146-0.274-0.238-0.497-0.238
		c-0.435,0-0.645,0.267-0.645,0.842v1.567h-0.848v-3.031H76.024z"/>
	<path clip-path="url(#SVGID_2_)" d="M79.74,414.938h-0.847v-3.032h0.847V414.938z M79.832,410.624c0,0.28-0.231,0.513-0.512,0.513
		c-0.287,0-0.51-0.232-0.51-0.52c0-0.272,0.23-0.504,0.51-0.504C79.607,410.113,79.832,410.337,79.832,410.624"/>
	<path clip-path="url(#SVGID_2_)" d="M81.252,413.419c0,0.475,0.386,0.854,0.855,0.854c0.462,0,0.847-0.386,0.847-0.841
		c0-0.482-0.371-0.861-0.847-0.861S81.252,412.95,81.252,413.419 M83.711,411.907v3.031h-0.848v-0.392
		c-0.273,0.343-0.574,0.49-0.994,0.49c-0.854,0-1.492-0.692-1.492-1.617c0-0.91,0.645-1.612,1.478-1.612
		c0.413,0,0.714,0.148,1.008,0.491v-0.392H83.711z"/>
	<path clip-path="url(#SVGID_2_)" d="M52.589,421.818c0,0.477,0.385,0.855,0.854,0.855c0.462,0,0.847-0.387,0.847-0.841
		c0-0.483-0.378-0.861-0.854-0.861C52.967,420.971,52.589,421.349,52.589,421.818 M51.832,424.957v-4.65h0.848v0.391
		c0.272-0.343,0.574-0.489,0.994-0.489c0.854,0,1.492,0.692,1.492,1.617c0,0.91-0.645,1.611-1.478,1.611
		c-0.406,0-0.708-0.146-1.008-0.491v2.012H51.832z"/>
	<path clip-path="url(#SVGID_2_)" d="M56.529,421.811c0,0.483,0.378,0.862,0.862,0.862c0.468,0,0.854-0.379,0.854-0.848
		c0-0.478-0.386-0.855-0.862-0.855C56.921,420.97,56.529,421.355,56.529,421.811 M59.12,421.819c0,0.959-0.714,1.616-1.751,1.616
		c-1.016,0-1.716-0.665-1.716-1.637c0-0.926,0.729-1.591,1.744-1.591C58.413,420.208,59.12,420.866,59.12,421.819"/>
	<path clip-path="url(#SVGID_2_)" d="M60.617,420.306v0.462c0.217-0.387,0.497-0.562,0.882-0.562c0.134,0,0.218,0.015,0.372,0.079
		l-0.119,0.791c-0.155-0.085-0.239-0.106-0.406-0.106c-0.232,0-0.415,0.077-0.541,0.218c-0.139,0.161-0.188,0.35-0.188,0.692v1.457
		h-0.848v-3.031H60.617z"/>
	<polygon clip-path="url(#SVGID_2_)" points="65.133,422.603 65.133,423.337 62.03,423.337 63.754,421.027 62.297,421.027 
		62.297,420.29 65.245,420.29 63.529,422.603 	"/>
	<path clip-path="url(#SVGID_2_)" d="M66.455,421.819c0,0.475,0.385,0.854,0.854,0.854c0.462,0,0.847-0.386,0.847-0.841
		c0-0.482-0.371-0.861-0.847-0.861S66.455,421.349,66.455,421.819 M68.913,420.306v3.031c-0.035,0.022-0.07,0.049-0.091,0.064
		c-0.26,0.176-0.344,0.287-0.344,0.455c0,0.161,0.126,0.279,0.302,0.279c0.105,0,0.21-0.027,0.336-0.092l-0.105,0.471
		c-0.126,0.076-0.273,0.118-0.449,0.118c-0.342,0-0.616-0.237-0.616-0.531c0-0.177,0.077-0.371,0.196-0.506
		c0.084-0.091,0.162-0.145,0.365-0.259h-0.442v-0.392c-0.273,0.343-0.574,0.49-0.994,0.49c-0.854,0-1.492-0.692-1.492-1.617
		c0-0.911,0.645-1.612,1.478-1.612c0.413,0,0.714,0.148,1.008,0.491v-0.392H68.913z"/>
	<path clip-path="url(#SVGID_2_)" d="M70.438,421.819c0,0.475,0.386,0.854,0.855,0.854c0.462,0,0.847-0.386,0.847-0.841
		c0-0.482-0.371-0.86-0.847-0.86S70.438,421.349,70.438,421.819 M72.896,418.091v5.246h-0.848v-0.393
		c-0.273,0.344-0.574,0.491-0.994,0.491c-0.854,0-1.492-0.694-1.492-1.617c0-0.912,0.645-1.612,1.478-1.612
		c0.413,0,0.714,0.148,1.008,0.489v-2.604H72.896z"/>
	<polygon clip-path="url(#SVGID_2_)" points="74.554,421.412 75.688,420.306 76.837,420.306 75.415,421.636 76.95,423.338 
		75.78,423.338 74.645,422.035 74.554,422.126 74.554,423.338 73.706,423.338 73.706,418.092 74.554,418.092 	"/>
	<path clip-path="url(#SVGID_2_)" d="M78.117,422.021c0,0.455,0.21,0.693,0.623,0.693c0.406,0,0.616-0.238,0.616-0.693v-1.716h0.848
		v1.856c0,0.819-0.525,1.273-1.464,1.273c-0.945,0-1.471-0.454-1.471-1.273v-1.856h0.848V422.021z"/>
	<polygon clip-path="url(#SVGID_2_)" points="116.55,359.683 117.18,359.683 120.024,362.933 120.024,359.787 120.935,359.787 
		120.935,364.55 120.304,364.55 117.461,361.3 117.461,364.459 116.55,364.459 	"/>
	<path clip-path="url(#SVGID_2_)" d="M125.042,361.427v3.033h-0.847v-0.394c-0.273,0.344-0.574,0.49-0.995,0.49
		c-0.854,0-1.491-0.693-1.491-1.617c0-0.911,0.644-1.611,1.478-1.611c0.413,0,0.714,0.147,1.008,0.49v-0.392H125.042z
		 M122.584,362.94c0,0.476,0.385,0.854,0.854,0.854c0.463,0,0.848-0.386,0.848-0.841c0-0.483-0.371-0.861-0.848-0.861
		C122.962,362.092,122.584,362.47,122.584,362.94"/>
	<path clip-path="url(#SVGID_2_)" d="M126.701,361.427v0.462c0.217-0.386,0.497-0.561,0.882-0.561c0.133,0,0.217,0.015,0.371,0.078
		l-0.119,0.791c-0.154-0.085-0.238-0.105-0.406-0.105c-0.231,0-0.413,0.077-0.539,0.217c-0.14,0.161-0.189,0.351-0.189,0.693v1.457
		h-0.848v-3.032H126.701z"/>
	<path clip-path="url(#SVGID_2_)" d="M129.22,363.143c0,0.455,0.21,0.693,0.623,0.693c0.406,0,0.616-0.238,0.616-0.693v-1.716h0.848
		v1.855c0,0.819-0.525,1.274-1.464,1.274c-0.945,0-1.471-0.455-1.471-1.274v-1.855h0.848V363.143z"/>
	<path clip-path="url(#SVGID_2_)" d="M133.84,362.134c-0.182-0.14-0.336-0.203-0.504-0.203c-0.189,0-0.329,0.112-0.329,0.259
		c0,0.141,0.091,0.203,0.483,0.337c0.343,0.118,0.448,0.168,0.588,0.272c0.224,0.154,0.337,0.386,0.337,0.673
		c0,0.637-0.526,1.085-1.275,1.085c-0.442,0-0.855-0.182-1.149-0.504l0.441-0.519c0.245,0.246,0.47,0.357,0.722,0.357
		c0.217,0,0.385-0.147,0.385-0.336c0-0.175-0.084-0.238-0.469-0.378c-0.378-0.141-0.448-0.169-0.582-0.267
		c-0.203-0.14-0.301-0.351-0.301-0.63c0-0.567,0.448-0.967,1.086-0.967c0.378,0,0.693,0.104,0.987,0.322L133.84,362.134z"/>
	<polygon clip-path="url(#SVGID_2_)" points="137.803,363.724 137.803,364.459 134.7,364.459 136.423,362.148 134.967,362.148 
		134.967,361.412 137.915,361.412 136.199,363.724 	"/>
	<path clip-path="url(#SVGID_2_)" d="M138.979,363.08c0.021,0.524,0.28,0.812,0.742,0.812c0.323,0,0.526-0.119,0.722-0.406
		l0.784,0.126c-0.259,0.623-0.77,0.945-1.485,0.945c-0.987,0-1.632-0.637-1.632-1.61c0-0.98,0.624-1.618,1.59-1.618
		c0.967,0,1.555,0.623,1.555,1.639v0.112H138.979z M140.442,362.541c-0.091-0.393-0.343-0.604-0.722-0.604
		c-0.378,0-0.637,0.226-0.714,0.604H140.442z"/>
	<path clip-path="url(#SVGID_2_)" d="M142.745,361.427v0.378c0.266-0.344,0.539-0.477,0.952-0.477c0.358,0,0.68,0.133,0.883,0.364
		c0.175,0.203,0.238,0.428,0.238,0.841v1.926h-0.847v-1.681c0-0.252-0.021-0.386-0.084-0.49c-0.085-0.147-0.274-0.238-0.498-0.238
		c-0.434,0-0.644,0.266-0.644,0.841v1.568h-0.848v-3.032H142.745z"/>
	<path clip-path="url(#SVGID_2_)" d="M146.552,360.145c0,0.28-0.231,0.512-0.511,0.512c-0.287,0-0.511-0.231-0.511-0.519
		c0-0.273,0.231-0.504,0.511-0.504C146.328,359.634,146.552,359.858,146.552,360.145 M146.461,364.459h-0.848v-3.031h0.848V364.459z
		"/>
	<path clip-path="url(#SVGID_2_)" d="M150.438,361.427v3.033h-0.847v-0.394c-0.273,0.344-0.574,0.49-0.995,0.49
		c-0.854,0-1.491-0.693-1.491-1.617c0-0.911,0.644-1.611,1.478-1.611c0.413,0,0.714,0.147,1.008,0.49v-0.392H150.438z
		 M147.98,362.94c0,0.476,0.385,0.854,0.854,0.854c0.463,0,0.848-0.386,0.848-0.841c0-0.483-0.371-0.861-0.848-0.861
		C148.358,362.092,147.98,362.47,147.98,362.94"/>
	<polygon clip-path="url(#SVGID_2_)" points="119.205,372.125 119.205,372.86 116.102,372.86 117.825,370.548 116.369,370.548 
		116.369,369.812 119.316,369.812 117.601,372.125 	"/>
	<path clip-path="url(#SVGID_2_)" d="M122.984,369.828v3.033h-0.847v-0.394c-0.273,0.344-0.574,0.49-0.995,0.49
		c-0.854,0-1.491-0.693-1.491-1.617c0-0.911,0.644-1.611,1.478-1.611c0.413,0,0.714,0.147,1.008,0.49v-0.392H122.984z
		 M120.526,371.34c0,0.476,0.385,0.854,0.854,0.854c0.463,0,0.848-0.386,0.848-0.841c0-0.483-0.371-0.861-0.848-0.861
		C120.904,370.493,120.526,370.871,120.526,371.34"/>
	<path clip-path="url(#SVGID_2_)" d="M125.455,370.535c-0.182-0.14-0.336-0.203-0.504-0.203c-0.189,0-0.329,0.112-0.329,0.259
		c0,0.141,0.091,0.203,0.483,0.337c0.343,0.118,0.448,0.168,0.588,0.272c0.224,0.154,0.337,0.386,0.337,0.673
		c0,0.637-0.526,1.085-1.275,1.085c-0.442,0-0.855-0.182-1.149-0.504l0.441-0.519c0.245,0.246,0.47,0.357,0.722,0.357
		c0.217,0,0.385-0.147,0.385-0.336c0-0.175-0.084-0.238-0.469-0.378c-0.378-0.141-0.448-0.169-0.582-0.267
		c-0.203-0.14-0.301-0.351-0.301-0.63c0-0.567,0.448-0.967,1.086-0.967c0.378,0,0.693,0.104,0.987,0.322L125.455,370.535z"/>
	<path clip-path="url(#SVGID_2_)" d="M129.802,369.828v3.033h-0.847v-0.394c-0.273,0.344-0.574,0.49-0.995,0.49
		c-0.854,0-1.491-0.693-1.491-1.617c0-0.911,0.644-1.611,1.478-1.611c0.413,0,0.714,0.147,1.008,0.49v-0.392H129.802z
		 M127.344,371.34c0,0.476,0.385,0.854,0.854,0.854c0.463,0,0.848-0.386,0.848-0.841c0-0.483-0.371-0.861-0.848-0.861
		C127.722,370.493,127.344,370.871,127.344,371.34"/>
	<path clip-path="url(#SVGID_2_)" d="M133.785,367.614v5.247h-0.847v-0.394c-0.273,0.344-0.574,0.49-0.995,0.49
		c-0.854,0-1.491-0.693-1.491-1.617c0-0.911,0.644-1.611,1.478-1.611c0.413,0,0.714,0.147,1.008,0.49v-2.605H133.785z
		 M131.327,371.34c0,0.476,0.385,0.854,0.854,0.854c0.463,0,0.848-0.386,0.848-0.841c0-0.483-0.371-0.861-0.848-0.861
		C131.705,370.493,131.327,370.871,131.327,371.34"/>
	<path clip-path="url(#SVGID_2_)" d="M137.193,369.828v0.462c0.217-0.386,0.497-0.561,0.882-0.561c0.133,0,0.218,0.015,0.371,0.078
		l-0.119,0.791c-0.154-0.084-0.238-0.105-0.406-0.105c-0.231,0-0.413,0.077-0.539,0.217c-0.14,0.161-0.189,0.351-0.189,0.693v1.457
		h-0.848v-3.032H137.193z"/>
	<path clip-path="url(#SVGID_2_)" d="M139.713,371.543c0,0.455,0.21,0.693,0.623,0.693c0.406,0,0.616-0.238,0.616-0.693v-1.716
		h0.848v1.855c0,0.819-0.525,1.274-1.464,1.274c-0.945,0-1.471-0.455-1.471-1.274v-1.855h0.848V371.543z"/>
	<path clip-path="url(#SVGID_2_)" d="M144.866,370.751c-0.245-0.188-0.435-0.259-0.687-0.259c-0.504,0-0.875,0.364-0.875,0.854
		s0.371,0.848,0.875,0.848c0.26,0,0.456-0.07,0.687-0.253v0.827c-0.273,0.14-0.498,0.188-0.777,0.188
		c-0.939,0-1.661-0.693-1.661-1.597c0-0.924,0.722-1.632,1.667-1.632c0.302,0,0.526,0.057,0.771,0.183V370.751z"/>
	<path clip-path="url(#SVGID_2_)" d="M146.356,367.614v2.605c0.266-0.35,0.539-0.49,0.952-0.49c0.358,0,0.68,0.133,0.883,0.371
		c0.175,0.21,0.238,0.428,0.238,0.854v1.905h-0.847v-1.66c0-0.259-0.021-0.399-0.084-0.504c-0.085-0.147-0.274-0.245-0.498-0.245
		c-0.434,0-0.644,0.273-0.644,0.854v1.555h-0.848v-5.246H146.356z"/>
	<path clip-path="url(#SVGID_2_)" d="M150.158,371.543c0,0.455,0.21,0.693,0.623,0.693c0.406,0,0.616-0.238,0.616-0.693v-1.716
		h0.848v1.855c0,0.819-0.525,1.274-1.464,1.274c-0.945,0-1.471-0.455-1.471-1.274v-1.855h0.848V371.543z"/>
	<path clip-path="url(#SVGID_2_)" d="M119.589,376.013v5.247h-0.847v-0.394c-0.273,0.344-0.574,0.49-0.995,0.49
		c-0.854,0-1.491-0.693-1.491-1.617c0-0.911,0.644-1.611,1.478-1.611c0.413,0,0.714,0.147,1.008,0.49v-2.605H119.589z
		 M117.131,379.74c0,0.476,0.385,0.854,0.854,0.854c0.463,0,0.848-0.386,0.848-0.841c0-0.483-0.371-0.861-0.848-0.861
		C117.509,378.892,117.131,379.27,117.131,379.74"/>
	<path clip-path="url(#SVGID_2_)" d="M121.248,378.227v0.462c0.217-0.386,0.497-0.561,0.882-0.561c0.133,0,0.217,0.015,0.371,0.078
		l-0.119,0.791c-0.154-0.084-0.238-0.105-0.406-0.105c-0.231,0-0.413,0.077-0.539,0.217c-0.14,0.161-0.189,0.351-0.189,0.693v1.457
		h-0.848v-3.032H121.248z"/>
	<path clip-path="url(#SVGID_2_)" d="M126.225,379.74c0,0.959-0.714,1.617-1.751,1.617c-1.015,0-1.715-0.665-1.715-1.639
		c0-0.925,0.728-1.59,1.744-1.59C125.518,378.128,126.225,378.787,126.225,379.74 M123.634,379.733c0,0.482,0.378,0.861,0.861,0.861
		c0.47,0,0.855-0.379,0.855-0.848c0-0.477-0.385-0.854-0.862-0.854C124.026,378.892,123.634,379.277,123.634,379.733"/>
	<path clip-path="url(#SVGID_2_)" d="M130.033,381.147c0,0.624-0.077,0.903-0.343,1.205c-0.294,0.35-0.742,0.533-1.274,0.533
		c-0.617,0-1.079-0.218-1.394-0.666c-0.147-0.211-0.204-0.357-0.231-0.603h0.924c0.084,0.357,0.329,0.546,0.714,0.546
		c0.218,0,0.428-0.084,0.568-0.224c0.119-0.126,0.189-0.344,0.189-0.631v-0.455c-0.315,0.365-0.602,0.504-1.03,0.504
		c-0.833,0-1.442-0.658-1.442-1.575c0-0.953,0.63-1.653,1.484-1.653c0.421,0,0.701,0.141,0.988,0.49v-0.392h0.847V381.147z
		 M127.589,379.74c0,0.476,0.385,0.854,0.854,0.854c0.463,0,0.848-0.386,0.848-0.841c0-0.483-0.378-0.861-0.848-0.861
		C127.967,378.892,127.589,379.27,127.589,379.74"/>
	<path clip-path="url(#SVGID_2_)" d="M134.142,379.74c0,0.959-0.714,1.617-1.751,1.617c-1.015,0-1.715-0.665-1.715-1.639
		c0-0.925,0.728-1.59,1.744-1.59C133.436,378.128,134.142,378.787,134.142,379.74 M131.551,379.733c0,0.482,0.378,0.861,0.861,0.861
		c0.47,0,0.855-0.379,0.855-0.848c0-0.477-0.385-0.854-0.862-0.854C131.943,378.892,131.551,379.277,131.551,379.733"/>
	<polygon clip-path="url(#SVGID_2_)" points="136.144,379.978 136.971,378.143 137.334,378.143 138.161,380.005 138.974,378.227 
		139.918,378.227 138.351,381.323 137.965,381.323 137.145,379.48 136.34,381.323 135.948,381.323 134.393,378.227 135.346,378.227 
			"/>
	<path clip-path="url(#SVGID_2_)" d="M140.735,379.879c0.021,0.525,0.28,0.813,0.742,0.813c0.323,0,0.526-0.12,0.722-0.407
		l0.784,0.126c-0.259,0.624-0.77,0.945-1.485,0.945c-0.987,0-1.632-0.637-1.632-1.61c0-0.98,0.624-1.618,1.59-1.618
		c0.967,0,1.555,0.623,1.555,1.639v0.112H140.735z M142.199,379.34c-0.091-0.393-0.343-0.603-0.722-0.603
		c-0.378,0-0.637,0.225-0.714,0.603H142.199z"/>
	<path clip-path="url(#SVGID_2_)" d="M146.812,381.147c0,0.624-0.077,0.903-0.343,1.205c-0.294,0.35-0.742,0.533-1.274,0.533
		c-0.617,0-1.079-0.218-1.394-0.666c-0.147-0.211-0.204-0.357-0.231-0.603h0.924c0.084,0.357,0.329,0.546,0.714,0.546
		c0.218,0,0.428-0.084,0.568-0.224c0.119-0.126,0.189-0.344,0.189-0.631v-0.455c-0.315,0.365-0.602,0.504-1.03,0.504
		c-0.833,0-1.442-0.658-1.442-1.575c0-0.953,0.63-1.653,1.484-1.653c0.421,0,0.701,0.141,0.988,0.49v-0.392h0.847V381.147z
		 M144.368,379.74c0,0.476,0.385,0.854,0.854,0.854c0.463,0,0.848-0.386,0.848-0.841c0-0.483-0.378-0.861-0.848-0.861
		C144.746,378.892,144.368,379.27,144.368,379.74"/>
	<path clip-path="url(#SVGID_2_)" d="M150.942,379.74c0,0.959-0.714,1.617-1.751,1.617c-1.015,0-1.715-0.665-1.715-1.639
		c0-0.925,0.728-1.59,1.744-1.59C150.235,378.128,150.942,378.787,150.942,379.74 M148.351,379.733c0,0.482,0.378,0.861,0.861,0.861
		c0.47,0,0.855-0.379,0.855-0.848c0-0.477-0.385-0.854-0.862-0.854C148.743,378.892,148.351,379.277,148.351,379.733"/>
	<polygon clip-path="url(#SVGID_2_)" points="248.734,359.682 249.883,359.682 247.907,361.839 249.987,364.355 248.79,364.355 
		247.131,362.252 247.019,362.366 247.019,364.355 246.107,364.355 246.107,359.682 247.019,359.682 247.019,361.659 	"/>
	<path clip-path="url(#SVGID_2_)" d="M251.281,361.323v0.462c0.217-0.387,0.497-0.562,0.882-0.562c0.134,0,0.218,0.016,0.372,0.079
		l-0.119,0.791c-0.154-0.084-0.238-0.106-0.405-0.106c-0.232,0-0.415,0.077-0.541,0.218c-0.14,0.161-0.188,0.35-0.188,0.692v1.457
		h-0.848v-3.031H251.281z"/>
	<path clip-path="url(#SVGID_2_)" d="M253.641,362.835c0,0.475,0.385,0.854,0.854,0.854c0.463,0,0.848-0.386,0.848-0.841
		c0-0.482-0.371-0.861-0.848-0.861C254.019,361.987,253.641,362.366,253.641,362.835 M256.099,361.323v3.031h-0.848v-0.392
		c-0.273,0.343-0.574,0.49-0.994,0.49c-0.854,0-1.492-0.692-1.492-1.617c0-0.911,0.645-1.612,1.478-1.612
		c0.413,0,0.715,0.148,1.009,0.491v-0.392H256.099z"/>
	<path clip-path="url(#SVGID_2_)" d="M257.623,362.835c0,0.475,0.385,0.854,0.854,0.854c0.462,0,0.847-0.386,0.847-0.841
		c0-0.482-0.371-0.86-0.847-0.86C258.001,361.988,257.623,362.366,257.623,362.835 M260.081,359.108v5.246h-0.848v-0.393
		c-0.273,0.344-0.574,0.491-0.994,0.491c-0.854,0-1.492-0.694-1.492-1.617c0-0.912,0.646-1.612,1.478-1.612
		c0.413,0,0.715,0.148,1.009,0.489v-2.604H260.081z"/>
	<polygon clip-path="url(#SVGID_2_)" points="263.672,363.62 263.672,364.354 260.569,364.354 262.293,362.043 260.836,362.043 
		260.836,361.306 263.784,361.306 262.068,363.62 	"/>
	<path clip-path="url(#SVGID_2_)" d="M265.112,364.353h-0.849v-3.031h0.849V364.353z M265.204,360.041
		c0,0.279-0.231,0.512-0.512,0.512c-0.287,0-0.511-0.232-0.511-0.52c0-0.272,0.23-0.504,0.511-0.504
		C264.979,359.529,265.204,359.753,265.204,360.041"/>
	<path clip-path="url(#SVGID_2_)" d="M268.081,362.436c-0.091-0.394-0.343-0.604-0.721-0.604c-0.379,0-0.638,0.225-0.715,0.604
		H268.081z M266.617,362.974c0.021,0.525,0.28,0.812,0.743,0.812c0.321,0,0.524-0.119,0.721-0.406l0.784,0.126
		c-0.259,0.623-0.77,0.946-1.484,0.946c-0.987,0-1.632-0.637-1.632-1.611c0-0.979,0.623-1.618,1.59-1.618
		c0.966,0,1.555,0.623,1.555,1.64v0.111H266.617z"/>
	<path clip-path="url(#SVGID_2_)" d="M271.477,360.223c0,0.292-0.238,0.532-0.525,0.532c-0.295,0-0.532-0.24-0.532-0.54
		c0-0.28,0.237-0.519,0.532-0.519C271.238,359.697,271.477,359.935,271.477,360.223 M272.323,363.62v0.734h-3.104l1.726-2.311
		h-1.457v-0.737h2.948l-1.717,2.313H272.323z"/>
	<path clip-path="url(#SVGID_2_)" d="M275.088,362.436c-0.091-0.394-0.343-0.604-0.721-0.604c-0.379,0-0.64,0.225-0.715,0.604
		H275.088z M273.624,362.974c0.021,0.525,0.28,0.812,0.743,0.812c0.32,0,0.524-0.119,0.721-0.406l0.785,0.126
		c-0.26,0.623-0.771,0.946-1.485,0.946c-0.987,0-1.632-0.637-1.632-1.611c0-0.979,0.623-1.618,1.59-1.618
		c0.966,0,1.555,0.623,1.555,1.64v0.111H273.624z"/>
	<path clip-path="url(#SVGID_2_)" d="M246.808,372.753h-0.849v-3.031h0.849V372.753z M246.899,368.441
		c0,0.279-0.231,0.512-0.512,0.512c-0.287,0-0.511-0.232-0.511-0.52c0-0.272,0.23-0.504,0.511-0.504
		C246.675,367.929,246.899,368.154,246.899,368.441"/>
	<polygon clip-path="url(#SVGID_2_)" points="250.707,371.474 251.533,369.639 251.897,369.639 252.725,371.5 253.537,369.723 
		254.482,369.723 252.913,372.819 252.528,372.819 251.709,370.976 250.903,372.819 250.511,372.819 248.956,369.723 
		249.909,369.723 	"/>
	<polygon clip-path="url(#SVGID_2_)" points="255.852,369.253 256.377,368.868 256.377,369.652 255.852,370.017 255.852,372.755 
		255.005,372.755 255.005,370.408 254.493,370.773 254.493,369.995 255.005,369.652 255.005,367.509 255.852,367.509 	"/>
	<path clip-path="url(#SVGID_2_)" d="M257.496,371.236c0,0.475,0.386,0.854,0.855,0.854c0.462,0,0.847-0.386,0.847-0.841
		c0-0.482-0.371-0.861-0.847-0.861C257.875,370.387,257.496,370.766,257.496,371.236 M259.955,369.723v3.031h-0.848v-0.392
		c-0.273,0.343-0.574,0.49-0.994,0.49c-0.854,0-1.492-0.692-1.492-1.617c0-0.911,0.645-1.612,1.479-1.612
		c0.412,0,0.714,0.148,1.008,0.491v-0.392H259.955z"/>
	<path clip-path="url(#SVGID_2_)" d="M261.613,369.723v0.35c0.28-0.323,0.553-0.449,0.924-0.449c0.421,0,0.715,0.168,0.946,0.554
		c0.237-0.37,0.568-0.554,0.994-0.554c0.365,0,0.687,0.168,0.848,0.436c0.112,0.182,0.161,0.398,0.161,0.734v1.961h-0.848v-1.66
		c0-0.244-0.014-0.356-0.07-0.482c-0.077-0.168-0.23-0.267-0.427-0.267c-0.218,0-0.406,0.112-0.497,0.302
		c-0.063,0.134-0.092,0.287-0.092,0.554v1.554h-0.847v-1.61c0-0.26-0.015-0.393-0.063-0.504c-0.07-0.176-0.258-0.295-0.455-0.295
		c-0.189,0-0.393,0.112-0.477,0.274c-0.07,0.125-0.098,0.287-0.098,0.581v1.554h-0.848v-3.031H261.613z"/>
	<path clip-path="url(#SVGID_2_)" d="M267.01,371.236c0,0.475,0.385,0.854,0.854,0.854c0.462,0,0.847-0.386,0.847-0.841
		c0-0.482-0.371-0.861-0.847-0.861C267.388,370.387,267.01,370.766,267.01,371.236 M269.468,369.723v3.031h-0.848v-0.392
		c-0.273,0.343-0.574,0.49-0.994,0.49c-0.854,0-1.492-0.692-1.492-1.617c0-0.911,0.646-1.612,1.478-1.612
		c0.413,0,0.715,0.148,1.009,0.491v-0.392H269.468z"/>
	<path clip-path="url(#SVGID_2_)" d="M271.126,369.723v0.378c0.266-0.345,0.539-0.478,0.952-0.478c0.357,0,0.68,0.133,0.883,0.365
		c0.175,0.203,0.238,0.427,0.238,0.84v1.926h-0.848v-1.68c0-0.252-0.021-0.386-0.084-0.491c-0.084-0.146-0.273-0.238-0.495-0.238
		c-0.437,0-0.646,0.267-0.646,0.842v1.567h-0.848v-3.031H271.126z"/>
	<path clip-path="url(#SVGID_2_)" d="M274.842,372.753h-0.849v-3.031h0.849V372.753z M274.934,368.441
		c0,0.279-0.231,0.512-0.512,0.512c-0.287,0-0.511-0.232-0.511-0.52c0-0.272,0.23-0.504,0.511-0.504
		C274.709,367.929,274.934,368.154,274.934,368.441"/>
	<path clip-path="url(#SVGID_2_)" d="M276.354,371.236c0,0.475,0.386,0.854,0.855,0.854c0.462,0,0.847-0.386,0.847-0.841
		c0-0.482-0.371-0.861-0.847-0.861C276.732,370.387,276.354,370.766,276.354,371.236 M278.812,369.723v3.031h-0.848v-0.392
		c-0.273,0.343-0.574,0.49-0.994,0.49c-0.854,0-1.492-0.692-1.492-1.617c0-0.911,0.645-1.612,1.478-1.612
		c0.413,0,0.715,0.148,1.009,0.491v-0.392H278.812z"/>
	<rect x="310.41" y="359.788" clip-path="url(#SVGID_2_)" width="0.911" height="4.672"/>
	<path clip-path="url(#SVGID_2_)" d="M313.104,361.428v0.378c0.266-0.345,0.539-0.478,0.952-0.478c0.357,0,0.68,0.133,0.883,0.365
		c0.175,0.203,0.238,0.427,0.238,0.839v1.927h-0.848v-1.68c0-0.252-0.021-0.386-0.084-0.491c-0.084-0.146-0.273-0.237-0.496-0.237
		c-0.436,0-0.646,0.266-0.646,0.841v1.567h-0.848v-3.031H313.104z"/>
	<path clip-path="url(#SVGID_2_)" d="M316.836,361.428v0.378c0.266-0.345,0.539-0.478,0.952-0.478c0.357,0,0.68,0.133,0.883,0.365
		c0.175,0.203,0.238,0.427,0.238,0.839v1.927h-0.848v-1.68c0-0.252-0.021-0.386-0.084-0.491c-0.084-0.146-0.273-0.237-0.497-0.237
		c-0.435,0-0.645,0.266-0.645,0.841v1.567h-0.848v-3.031H316.836z"/>
	<path clip-path="url(#SVGID_2_)" d="M321.89,362.542c-0.091-0.394-0.343-0.604-0.721-0.604c-0.379,0-0.638,0.225-0.715,0.604
		H321.89z M320.426,363.081c0.021,0.524,0.28,0.813,0.743,0.813c0.321,0,0.524-0.121,0.721-0.408l0.785,0.126
		c-0.26,0.623-0.77,0.946-1.485,0.946c-0.987,0-1.632-0.637-1.632-1.611c0-0.979,0.623-1.618,1.59-1.618s1.555,0.623,1.555,1.64
		v0.112H320.426z"/>
	<path clip-path="url(#SVGID_2_)" d="M326.53,359.465c-0.371,0.792-0.567,1.793-0.567,2.9c0,1.1,0.218,2.206,0.567,2.913
		l-0.679,0.373c-0.225-0.428-0.337-0.73-0.441-1.192c-0.161-0.672-0.252-1.435-0.252-2.122c0-1.212,0.252-2.401,0.693-3.242
		L326.53,359.465z"/>
	<path clip-path="url(#SVGID_2_)" d="M328.406,361.428v0.378c0.266-0.345,0.539-0.478,0.952-0.478c0.359,0,0.68,0.133,0.883,0.365
		c0.175,0.203,0.238,0.427,0.238,0.839v1.927h-0.847v-1.68c0-0.252-0.022-0.386-0.085-0.491c-0.084-0.146-0.273-0.237-0.495-0.237
		c-0.437,0-0.646,0.266-0.646,0.841v1.567h-0.848v-3.031H328.406z"/>
	<path clip-path="url(#SVGID_2_)" d="M332.074,362.94c0,0.477,0.385,0.855,0.854,0.855c0.462,0,0.847-0.387,0.847-0.842
		c0-0.481-0.378-0.86-0.854-0.86C332.452,362.093,332.074,362.472,332.074,362.94 M331.317,366.078v-4.649h0.848v0.391
		c0.272-0.343,0.574-0.49,0.994-0.49c0.854,0,1.492,0.693,1.492,1.618c0,0.91-0.645,1.61-1.478,1.61
		c-0.406,0-0.708-0.146-1.009-0.49v2.011H331.317z"/>
	<path clip-path="url(#SVGID_2_)" d="M336.337,363.999c0,0.308-0.245,0.553-0.546,0.553c-0.309,0-0.554-0.245-0.554-0.553
		c0-0.303,0.252-0.548,0.546-0.548C336.092,363.451,336.337,363.696,336.337,363.999"/>
	<path clip-path="url(#SVGID_2_)" d="M339.662,361.428v0.378c0.266-0.345,0.539-0.478,0.952-0.478c0.357,0,0.68,0.133,0.883,0.365
		c0.175,0.203,0.238,0.427,0.238,0.839v1.927h-0.848v-1.68c0-0.252-0.021-0.386-0.084-0.491c-0.084-0.146-0.273-0.237-0.497-0.237
		c-0.435,0-0.645,0.266-0.645,0.841v1.567h-0.848v-3.031H339.662z"/>
	<path clip-path="url(#SVGID_2_)" d="M343.379,364.458h-0.849v-3.031h0.849V364.458z M343.471,360.145
		c0,0.28-0.231,0.513-0.512,0.513c-0.287,0-0.511-0.232-0.511-0.52c0-0.272,0.23-0.504,0.511-0.504
		C343.246,359.634,343.471,359.859,343.471,360.145"/>
	<path clip-path="url(#SVGID_2_)" d="M346.348,362.542c-0.091-0.394-0.343-0.604-0.721-0.604c-0.379,0-0.638,0.225-0.715,0.604
		H346.348z M344.884,363.081c0.021,0.524,0.28,0.813,0.743,0.813c0.321,0,0.524-0.121,0.721-0.408l0.784,0.126
		c-0.259,0.623-0.769,0.946-1.484,0.946c-0.987,0-1.632-0.637-1.632-1.611c0-0.979,0.623-1.618,1.59-1.618s1.555,0.623,1.555,1.64
		v0.112H344.884z"/>
	<rect x="347.823" y="359.215" clip-path="url(#SVGID_2_)" width="0.848" height="5.244"/>
	<path clip-path="url(#SVGID_2_)" d="M351.653,362.542c-0.091-0.394-0.343-0.604-0.721-0.604c-0.379,0-0.638,0.225-0.715,0.604
		H351.653z M350.189,363.081c0.021,0.524,0.28,0.813,0.743,0.813c0.321,0,0.524-0.121,0.721-0.408l0.785,0.126
		c-0.26,0.623-0.77,0.946-1.485,0.946c-0.987,0-1.632-0.637-1.632-1.611c0-0.979,0.623-1.618,1.59-1.618s1.555,0.623,1.555,1.64
		v0.112H350.189z"/>
	<path clip-path="url(#SVGID_2_)" d="M353.823,362.941c0,0.475,0.385,0.854,0.854,0.854c0.463,0,0.848-0.384,0.848-0.841
		c0-0.483-0.378-0.861-0.848-0.861C354.201,362.092,353.823,362.47,353.823,362.941 M356.267,364.348
		c0,0.623-0.076,0.902-0.343,1.204c-0.294,0.351-0.742,0.532-1.274,0.532c-0.616,0-1.079-0.215-1.394-0.665
		c-0.147-0.211-0.203-0.356-0.231-0.602h0.925c0.084,0.356,0.329,0.546,0.713,0.546c0.218,0,0.429-0.084,0.568-0.224
		c0.119-0.126,0.189-0.345,0.189-0.632v-0.455c-0.315,0.364-0.603,0.505-1.03,0.505c-0.833,0-1.442-0.658-1.442-1.575
		c0-0.953,0.63-1.654,1.484-1.654c0.421,0,0.701,0.141,0.988,0.491v-0.393h0.847V364.348z"/>
	<path clip-path="url(#SVGID_2_)" d="M357.819,362.941c0,0.475,0.386,0.854,0.854,0.854c0.463,0,0.848-0.387,0.848-0.841
		c0-0.482-0.371-0.861-0.848-0.861C358.198,362.092,357.819,362.471,357.819,362.941 M360.278,361.428v3.031h-0.848v-0.392
		c-0.273,0.343-0.574,0.49-0.994,0.49c-0.854,0-1.492-0.693-1.492-1.617c0-0.911,0.645-1.612,1.478-1.612
		c0.413,0,0.715,0.148,1.009,0.491v-0.392H360.278z"/>
	<rect x="361.088" y="359.215" clip-path="url(#SVGID_2_)" width="0.848" height="5.244"/>
	<path clip-path="url(#SVGID_2_)" d="M363.595,361.428v0.378c0.266-0.345,0.539-0.478,0.952-0.478c0.357,0,0.68,0.133,0.883,0.365
		c0.175,0.203,0.238,0.427,0.238,0.839v1.927h-0.848v-1.68c0-0.252-0.021-0.386-0.084-0.491c-0.084-0.146-0.273-0.237-0.497-0.237
		c-0.435,0-0.645,0.266-0.645,0.841v1.567h-0.848v-3.031H363.595z"/>
	<path clip-path="url(#SVGID_2_)" d="M368.648,362.542c-0.091-0.394-0.343-0.604-0.721-0.604c-0.379,0-0.638,0.225-0.715,0.604
		H368.648z M367.185,363.081c0.021,0.524,0.28,0.813,0.743,0.813c0.321,0,0.524-0.121,0.721-0.408l0.784,0.126
		c-0.259,0.623-0.769,0.946-1.484,0.946c-0.987,0-1.632-0.637-1.632-1.611c0-0.979,0.623-1.618,1.59-1.618s1.555,0.623,1.555,1.64
		v0.112H367.185z"/>
	<path clip-path="url(#SVGID_2_)" d="M311.033,371.34c0,0.477,0.385,0.855,0.854,0.855c0.462,0,0.847-0.387,0.847-0.842
		c0-0.482-0.378-0.86-0.854-0.86C311.411,370.494,311.033,370.872,311.033,371.34 M310.276,374.478v-4.649h0.848v0.391
		c0.272-0.343,0.574-0.49,0.994-0.49c0.854,0,1.492,0.693,1.492,1.618c0,0.91-0.645,1.609-1.478,1.609
		c-0.406,0-0.708-0.146-1.009-0.489v2.011H310.276z"/>
	<rect x="314.259" y="367.615" clip-path="url(#SVGID_2_)" width="0.85" height="5.246"/>
	<path clip-path="url(#SVGID_2_)" d="M316.632,371.341c0,0.475,0.386,0.854,0.854,0.854c0.463,0,0.848-0.386,0.848-0.841
		c0-0.483-0.371-0.861-0.848-0.861C317.011,370.493,316.632,370.871,316.632,371.341 M319.091,369.828v3.032h-0.848v-0.392
		c-0.273,0.343-0.574,0.49-0.994,0.49c-0.854,0-1.492-0.692-1.492-1.617c0-0.91,0.645-1.612,1.478-1.612
		c0.413,0,0.715,0.148,1.009,0.491v-0.393H319.091z"/>
	<polygon clip-path="url(#SVGID_2_)" points="320.749,370.935 321.884,369.829 323.032,369.829 321.61,371.159 323.145,372.861 
		321.975,372.861 320.84,371.557 320.749,371.649 320.749,372.861 319.901,372.861 319.901,367.615 320.749,367.615 	"/>
	<path clip-path="url(#SVGID_2_)" d="M324.081,371.341c0,0.475,0.385,0.854,0.854,0.854c0.462,0,0.847-0.386,0.847-0.841
		c0-0.483-0.371-0.861-0.847-0.861C324.459,370.493,324.081,370.871,324.081,371.341 M326.539,369.828v3.032h-0.848v-0.392
		c-0.273,0.343-0.574,0.49-0.994,0.49c-0.854,0-1.492-0.692-1.492-1.617c0-0.91,0.645-1.612,1.479-1.612
		c0.412,0,0.714,0.148,1.008,0.491v-0.393H326.539z"/>
	<polygon clip-path="url(#SVGID_2_)" points="328.302,372.861 327.454,372.861 327.454,370.563 327.118,370.563 327.118,369.829 
		327.454,369.829 327.454,368.792 328.302,368.792 328.302,369.829 328.904,369.829 328.904,370.563 328.302,370.563 	"/>
	<path clip-path="url(#SVGID_2_)" d="M330.058,371.333c0,0.484,0.379,0.861,0.862,0.861c0.469,0,0.854-0.377,0.854-0.847
		c0-0.478-0.386-0.855-0.862-0.855C330.45,370.493,330.058,370.877,330.058,371.333 M332.649,371.34
		c0,0.959-0.714,1.617-1.751,1.617c-1.016,0-1.716-0.665-1.716-1.638c0-0.924,0.729-1.59,1.744-1.59S332.649,370.388,332.649,371.34
		"/>
	<polygon clip-path="url(#SVGID_2_)" points="334.496,371.579 335.322,369.744 335.687,369.744 336.514,371.606 337.326,369.828 
		338.271,369.828 336.702,372.924 336.317,372.924 335.498,371.082 334.692,372.924 334.3,372.924 332.745,369.828 333.698,369.828 
			"/>
	<path clip-path="url(#SVGID_2_)" d="M339.243,371.341c0,0.475,0.385,0.854,0.854,0.854c0.462,0,0.847-0.386,0.847-0.841
		c0-0.483-0.371-0.861-0.847-0.861C339.621,370.493,339.243,370.871,339.243,371.341 M341.701,369.828v3.032h-0.848v-0.392
		c-0.273,0.343-0.574,0.49-0.994,0.49c-0.854,0-1.492-0.692-1.492-1.617c0-0.91,0.645-1.612,1.479-1.612
		c0.412,0,0.714,0.148,1.008,0.491v-0.393H341.701z"/>
	<path clip-path="url(#SVGID_2_)" d="M343.358,369.828v0.379c0.266-0.345,0.539-0.478,0.952-0.478c0.357,0,0.68,0.133,0.883,0.365
		c0.175,0.203,0.238,0.427,0.238,0.84v1.926h-0.848v-1.679c0-0.253-0.021-0.387-0.084-0.492c-0.084-0.146-0.273-0.238-0.497-0.238
		c-0.435,0-0.645,0.267-0.645,0.842v1.567h-0.848v-3.032H343.358z"/>
	<path clip-path="url(#SVGID_2_)" d="M347.075,372.859h-0.849v-3.031h0.849V372.859z M347.167,368.545
		c0,0.28-0.231,0.513-0.512,0.513c-0.287,0-0.511-0.232-0.511-0.52c0-0.272,0.23-0.504,0.511-0.504
		C346.942,368.035,347.167,368.259,347.167,368.545"/>
	<path clip-path="url(#SVGID_2_)" d="M350.044,370.942c-0.091-0.394-0.343-0.604-0.721-0.604c-0.379,0-0.638,0.225-0.715,0.604
		H350.044z M348.58,371.481c0.021,0.524,0.28,0.813,0.743,0.813c0.321,0,0.524-0.121,0.721-0.408l0.785,0.126
		c-0.26,0.623-0.77,0.946-1.485,0.946c-0.987,0-1.632-0.637-1.632-1.611c0-0.979,0.623-1.618,1.59-1.618s1.555,0.623,1.555,1.64
		v0.112H348.58z"/>
	<polygon clip-path="url(#SVGID_2_)" points="352.612,371.986 351.625,373.84 351.086,373.779 351.835,371.893 	"/>
	<path clip-path="url(#SVGID_2_)" d="M355.679,371.333c0,0.484,0.378,0.861,0.861,0.861c0.469,0,0.854-0.377,0.854-0.847
		c0-0.478-0.386-0.855-0.862-0.855C356.07,370.493,355.679,370.877,355.679,371.333 M358.27,371.34c0,0.959-0.714,1.617-1.751,1.617
		c-1.016,0-1.716-0.665-1.716-1.638c0-0.924,0.729-1.59,1.744-1.59S358.27,370.388,358.27,371.34"/>
	<path clip-path="url(#SVGID_2_)" d="M360.579,370.536c-0.183-0.141-0.337-0.203-0.505-0.203c-0.188,0-0.329,0.111-0.329,0.259
		c0,0.14,0.091,0.203,0.483,0.337c0.344,0.118,0.448,0.169,0.589,0.271c0.224,0.154,0.336,0.387,0.336,0.674
		c0,0.637-0.525,1.085-1.274,1.085c-0.441,0-0.854-0.183-1.149-0.504l0.441-0.52c0.245,0.247,0.47,0.358,0.722,0.358
		c0.217,0,0.385-0.148,0.385-0.336c0-0.176-0.084-0.238-0.469-0.378c-0.378-0.142-0.448-0.169-0.581-0.268
		c-0.203-0.139-0.302-0.35-0.302-0.63c0-0.567,0.448-0.966,1.086-0.966c0.378,0,0.693,0.104,0.987,0.322L360.579,370.536z"/>
	<path clip-path="url(#SVGID_2_)" d="M362.468,371.333c0,0.484,0.379,0.861,0.863,0.861c0.468,0,0.854-0.377,0.854-0.847
		c0-0.478-0.386-0.855-0.862-0.855C362.86,370.493,362.468,370.877,362.468,371.333 M365.06,371.34c0,0.959-0.714,1.617-1.751,1.617
		c-1.016,0-1.716-0.665-1.716-1.638c0-0.924,0.729-1.59,1.744-1.59S365.06,370.388,365.06,371.34"/>
	<path clip-path="url(#SVGID_2_)" d="M366.465,371.34c0,0.477,0.385,0.856,0.854,0.856c0.462,0,0.847-0.387,0.847-0.842
		c0-0.484-0.378-0.862-0.854-0.862C366.843,370.493,366.465,370.871,366.465,371.34 M366.556,370.219
		c0.301-0.343,0.603-0.489,1.009-0.489c0.84,0,1.478,0.699,1.478,1.604c0,0.932-0.638,1.624-1.492,1.624
		c-0.42,0-0.714-0.146-0.994-0.49v0.394h-0.848v-5.245h0.848V370.219z"/>
	<polygon clip-path="url(#SVGID_2_)" points="369.117,369.828 370.104,369.828 371.016,371.551 371.877,369.828 372.851,369.828 
		370.399,374.478 369.439,374.478 370.553,372.398 	"/>
	<path clip-path="url(#SVGID_2_)" d="M312.217,377.127c0,0.293-0.238,0.533-0.525,0.533c-0.295,0-0.532-0.24-0.532-0.54
		c0-0.28,0.237-0.519,0.532-0.519C311.979,376.602,312.217,376.84,312.217,377.127 M313.063,380.524v0.735h-3.103l1.724-2.311
		h-1.457v-0.737h2.948l-1.716,2.312H313.063z"/>
	<path clip-path="url(#SVGID_2_)" d="M315.828,379.341c-0.091-0.394-0.343-0.604-0.721-0.604c-0.379,0-0.638,0.225-0.715,0.604
		H315.828z M314.364,379.879c0.021,0.525,0.28,0.813,0.743,0.813c0.321,0,0.524-0.12,0.721-0.407l0.784,0.126
		c-0.259,0.624-0.769,0.946-1.484,0.946c-0.987,0-1.632-0.637-1.632-1.611c0-0.979,0.623-1.618,1.59-1.618s1.555,0.623,1.555,1.64
		v0.111H314.364z"/>
	<path clip-path="url(#SVGID_2_)" d="M318.061,379.74c0,0.477,0.385,0.855,0.854,0.855c0.462,0,0.847-0.386,0.847-0.841
		c0-0.484-0.378-0.863-0.854-0.863C318.438,378.891,318.061,379.27,318.061,379.74 M318.151,378.62
		c0.301-0.344,0.603-0.49,1.009-0.49c0.84,0,1.478,0.7,1.478,1.604c0,0.932-0.638,1.624-1.492,1.624c-0.42,0-0.714-0.146-0.994-0.49
		v0.394h-0.848v-5.246h0.848V378.62z"/>
	<path clip-path="url(#SVGID_2_)" d="M322.135,378.228v0.462c0.217-0.387,0.497-0.562,0.882-0.562c0.134,0,0.218,0.016,0.372,0.078
		l-0.119,0.791c-0.154-0.084-0.238-0.104-0.405-0.104c-0.232,0-0.414,0.076-0.541,0.217c-0.14,0.161-0.188,0.349-0.188,0.692v1.457
		h-0.848v-3.031H322.135z"/>
	<polygon clip-path="url(#SVGID_2_)" points="326.65,380.524 326.65,381.259 323.548,381.259 325.271,378.949 323.814,378.949 
		323.814,378.211 326.763,378.211 325.047,380.524 	"/>
	<path clip-path="url(#SVGID_2_)" d="M327.972,379.741c0,0.475,0.386,0.854,0.855,0.854c0.462,0,0.847-0.387,0.847-0.841
		c0-0.482-0.371-0.86-0.847-0.86C328.351,378.893,327.972,379.271,327.972,379.741 M330.431,378.228v3.031
		c-0.035,0.022-0.07,0.049-0.091,0.064c-0.26,0.175-0.344,0.287-0.344,0.455c0,0.161,0.126,0.279,0.302,0.279
		c0.104,0,0.21-0.027,0.336-0.092l-0.105,0.471c-0.126,0.076-0.272,0.118-0.448,0.118c-0.343,0-0.616-0.237-0.616-0.531
		c0-0.177,0.077-0.371,0.196-0.505c0.084-0.092,0.161-0.146,0.364-0.26h-0.441v-0.392c-0.273,0.343-0.574,0.49-0.994,0.49
		c-0.854,0-1.492-0.693-1.492-1.617c0-0.911,0.646-1.612,1.478-1.612c0.413,0,0.715,0.148,1.009,0.491v-0.392H330.431z"/>
	<path clip-path="url(#SVGID_2_)" d="M333.517,379.152c-0.245-0.188-0.435-0.26-0.687-0.26c-0.504,0-0.877,0.364-0.877,0.855
		c0,0.49,0.373,0.847,0.877,0.847c0.259,0,0.455-0.07,0.687-0.253v0.828c-0.273,0.139-0.497,0.188-0.777,0.188
		c-0.938,0-1.661-0.692-1.661-1.597c0-0.923,0.723-1.63,1.668-1.63c0.301,0,0.525,0.055,0.771,0.181V379.152z"/>
	<path clip-path="url(#SVGID_2_)" d="M336.33,379.341c-0.091-0.394-0.343-0.604-0.721-0.604c-0.379,0-0.639,0.225-0.715,0.604
		H336.33z M334.866,379.879c0.021,0.525,0.28,0.813,0.743,0.813c0.321,0,0.524-0.12,0.721-0.407l0.784,0.126
		c-0.259,0.624-0.769,0.946-1.484,0.946c-0.987,0-1.632-0.637-1.632-1.611c0-0.979,0.623-1.618,1.59-1.618s1.555,0.623,1.555,1.64
		v0.111H334.866z"/>
	<polygon clip-path="url(#SVGID_2_)" points="338.899,380.385 337.912,382.24 337.373,382.178 338.122,380.292 	"/>
	<path clip-path="url(#SVGID_2_)" d="M342.008,379.74c0,0.477,0.385,0.855,0.854,0.855c0.462,0,0.847-0.386,0.847-0.841
		c0-0.483-0.378-0.861-0.854-0.861C342.386,378.893,342.008,379.271,342.008,379.74 M341.251,382.878v-4.65h0.848v0.391
		c0.272-0.344,0.574-0.489,0.994-0.489c0.854,0,1.492,0.692,1.492,1.617c0,0.91-0.645,1.61-1.478,1.61
		c-0.406,0-0.708-0.146-1.009-0.49v2.012H341.251z"/>
	<path clip-path="url(#SVGID_2_)" d="M345.948,379.733c0,0.483,0.378,0.861,0.862,0.861c0.468,0,0.854-0.378,0.854-0.847
		c0-0.478-0.386-0.855-0.862-0.855C346.34,378.892,345.948,379.277,345.948,379.733 M348.539,379.741
		c0,0.959-0.714,1.616-1.751,1.616c-1.016,0-1.716-0.665-1.716-1.638c0-0.925,0.729-1.59,1.744-1.59
		S348.539,378.788,348.539,379.741"/>
	<path clip-path="url(#SVGID_2_)" d="M351.129,377.127c0,0.293-0.238,0.533-0.525,0.533c-0.295,0-0.532-0.24-0.532-0.54
		c0-0.28,0.237-0.519,0.532-0.519C350.891,376.602,351.129,376.84,351.129,377.127 M351.976,380.524v0.735h-3.103l1.724-2.311
		h-1.457v-0.737h2.948l-1.717,2.312H351.976z"/>
	<path clip-path="url(#SVGID_2_)" d="M353.298,379.741c0,0.475,0.385,0.854,0.854,0.854c0.462,0,0.847-0.387,0.847-0.841
		c0-0.482-0.371-0.86-0.847-0.86C353.676,378.893,353.298,379.271,353.298,379.741 M355.756,378.228v3.031h-0.848v-0.392
		c-0.273,0.343-0.574,0.49-0.994,0.49c-0.854,0-1.492-0.693-1.492-1.617c0-0.911,0.645-1.612,1.479-1.612
		c0.412,0,0.714,0.148,1.008,0.491v-0.392H355.756z"/>
	<path clip-path="url(#SVGID_2_)" d="M357.414,378.228v0.462c0.217-0.387,0.497-0.562,0.882-0.562c0.134,0,0.218,0.016,0.372,0.078
		l-0.119,0.791c-0.154-0.084-0.238-0.104-0.405-0.104c-0.232,0-0.414,0.076-0.541,0.217c-0.14,0.161-0.188,0.349-0.188,0.692v1.457
		h-0.848v-3.031H357.414z"/>
	<polygon clip-path="url(#SVGID_2_)" points="358.903,378.228 359.891,378.228 360.802,379.951 361.663,378.228 362.637,378.228 
		360.186,382.877 359.226,382.877 360.339,380.797 	"/>
	<path clip-path="url(#SVGID_2_)" d="M363.09,382.079c0.371-0.798,0.567-1.793,0.567-2.898c0-1.1-0.218-2.2-0.567-2.915l0.679-0.371
		c0.225,0.428,0.337,0.729,0.441,1.192c0.161,0.672,0.252,1.435,0.252,2.122c0,1.211-0.252,2.401-0.693,3.241L363.09,382.079z"/>
	<path clip-path="url(#SVGID_2_)" d="M364.75,351.458c0.322,0.448,0.483,1.016,0.483,1.737c0,0.721-0.161,1.288-0.483,1.743
		c-0.33,0.448-0.812,0.715-1.323,0.715c-0.519,0-1.002-0.259-1.331-0.715c-0.329-0.462-0.483-1.016-0.483-1.778
		c0-0.68,0.168-1.275,0.483-1.702c0.344-0.455,0.819-0.715,1.331-0.715C363.938,350.743,364.414,351.002,364.75,351.458
		 M362.523,353.173c0,0.987,0.371,1.674,0.903,1.674c0.525,0,0.896-0.687,0.896-1.652c0-0.959-0.371-1.646-0.896-1.646
		S362.523,352.236,362.523,353.173"/>
	<path clip-path="url(#SVGID_2_)" d="M364.953,305.798v0.791h-3.396l1.38-1.562c0.848-0.967,1.071-1.324,1.071-1.716
		c0-0.399-0.315-0.708-0.707-0.708c-0.421,0-0.673,0.287-0.693,0.771h-0.974c0.062-0.967,0.693-1.576,1.639-1.576
		s1.646,0.638,1.646,1.506c0,0.519-0.252,1.002-0.847,1.632l-0.812,0.862H364.953z"/>
	<path clip-path="url(#SVGID_2_)" d="M368.719,302.513c0.322,0.448,0.483,1.016,0.483,1.736c0,0.722-0.161,1.289-0.483,1.744
		c-0.329,0.448-0.812,0.714-1.323,0.714c-0.519,0-1.002-0.258-1.331-0.714c-0.329-0.462-0.483-1.016-0.483-1.778
		c0-0.68,0.168-1.275,0.483-1.702c0.344-0.455,0.819-0.715,1.331-0.715C367.906,301.798,368.383,302.058,368.719,302.513
		 M366.492,304.229c0,0.987,0.371,1.674,0.903,1.674c0.525,0,0.896-0.687,0.896-1.653c0-0.959-0.371-1.646-0.896-1.646
		S366.492,303.291,366.492,304.229"/>
	<path clip-path="url(#SVGID_2_)" d="M372.688,302.513c0.322,0.448,0.483,1.016,0.483,1.736c0,0.722-0.161,1.289-0.483,1.744
		c-0.33,0.448-0.812,0.714-1.323,0.714c-0.519,0-1.002-0.258-1.331-0.714c-0.329-0.462-0.483-1.016-0.483-1.778
		c0-0.68,0.168-1.275,0.483-1.702c0.344-0.455,0.819-0.715,1.331-0.715C371.875,301.798,372.352,302.058,372.688,302.513
		 M370.461,304.229c0,0.987,0.371,1.674,0.903,1.674c0.525,0,0.896-0.687,0.896-1.653c0-0.959-0.371-1.646-0.896-1.646
		S370.461,303.291,370.461,304.229"/>
	<path clip-path="url(#SVGID_2_)" d="M376.656,302.513c0.322,0.448,0.483,1.016,0.483,1.736c0,0.722-0.161,1.289-0.483,1.744
		c-0.329,0.448-0.812,0.714-1.323,0.714c-0.519,0-1.002-0.258-1.331-0.714c-0.329-0.462-0.483-1.016-0.483-1.778
		c0-0.68,0.168-1.275,0.483-1.702c0.344-0.455,0.819-0.715,1.331-0.715C375.844,301.798,376.32,302.058,376.656,302.513
		 M374.43,304.229c0,0.987,0.371,1.674,0.903,1.674c0.525,0,0.896-0.687,0.896-1.653c0-0.959-0.371-1.646-0.896-1.646
		S374.43,303.291,374.43,304.229"/>
	<path clip-path="url(#SVGID_2_)" d="M365.269,255.824v0.729h-0.554v0.826h-0.847v-0.826h-2.283v-0.406l2.311-3.524h0.819v3.201
		H365.269z M363.868,253.968l-1.205,1.856h1.205V253.968z"/>
	<path clip-path="url(#SVGID_2_)" d="M368.719,253.303c0.322,0.448,0.483,1.016,0.483,1.737s-0.161,1.289-0.483,1.744
		c-0.329,0.448-0.812,0.714-1.323,0.714c-0.519,0-1.002-0.258-1.331-0.714c-0.329-0.462-0.483-1.016-0.483-1.779
		c0-0.679,0.168-1.275,0.483-1.702c0.344-0.455,0.819-0.715,1.331-0.715C367.906,252.588,368.383,252.848,368.719,253.303
		 M366.492,255.019c0,0.987,0.371,1.674,0.903,1.674c0.525,0,0.896-0.687,0.896-1.653c0-0.959-0.371-1.646-0.896-1.646
		S366.492,254.081,366.492,255.019"/>
	<path clip-path="url(#SVGID_2_)" d="M372.688,253.303c0.322,0.448,0.483,1.016,0.483,1.737s-0.161,1.289-0.483,1.744
		c-0.33,0.448-0.812,0.714-1.323,0.714c-0.519,0-1.002-0.258-1.331-0.714c-0.329-0.462-0.483-1.016-0.483-1.779
		c0-0.679,0.168-1.275,0.483-1.702c0.344-0.455,0.819-0.715,1.331-0.715C371.875,252.588,372.352,252.848,372.688,253.303
		 M370.461,255.019c0,0.987,0.371,1.674,0.903,1.674c0.525,0,0.896-0.687,0.896-1.653c0-0.959-0.371-1.646-0.896-1.646
		S370.461,254.081,370.461,255.019"/>
	<path clip-path="url(#SVGID_2_)" d="M376.656,253.303c0.322,0.448,0.483,1.016,0.483,1.737s-0.161,1.289-0.483,1.744
		c-0.329,0.448-0.812,0.714-1.323,0.714c-0.519,0-1.002-0.258-1.331-0.714c-0.329-0.462-0.483-1.016-0.483-1.779
		c0-0.679,0.168-1.275,0.483-1.702c0.344-0.455,0.819-0.715,1.331-0.715C375.844,252.588,376.32,252.848,376.656,253.303
		 M374.43,255.019c0,0.987,0.371,1.674,0.903,1.674c0.525,0,0.896-0.687,0.896-1.653c0-0.959-0.371-1.646-0.896-1.646
		S374.43,254.081,374.43,255.019"/>
	<path clip-path="url(#SVGID_2_)" d="M364.302,203.807l-1.106,1.421c0.225-0.091,0.344-0.119,0.547-0.119
		c0.812,0,1.449,0.673,1.449,1.541c0,0.981-0.729,1.653-1.779,1.653c-1.029,0-1.765-0.665-1.765-1.604
		c0-0.448,0.203-0.966,0.589-1.477l1.421-1.899L364.302,203.807z M362.559,206.706c0,0.491,0.378,0.875,0.868,0.875
		c0.469,0,0.854-0.384,0.854-0.861c0-0.497-0.371-0.882-0.854-0.882S362.559,206.223,362.559,206.706"/>
	<path clip-path="url(#SVGID_2_)" d="M368.719,204.107c0.322,0.448,0.483,1.016,0.483,1.737c0,0.722-0.161,1.289-0.483,1.744
		c-0.329,0.448-0.812,0.714-1.323,0.714c-0.519,0-1.002-0.259-1.331-0.714c-0.329-0.462-0.483-1.015-0.483-1.779
		c0-0.679,0.168-1.275,0.483-1.702c0.344-0.455,0.819-0.714,1.331-0.714C367.906,203.393,368.383,203.652,368.719,204.107
		 M366.492,205.823c0,0.988,0.371,1.674,0.903,1.674c0.525,0,0.896-0.686,0.896-1.653c0-0.959-0.371-1.646-0.896-1.646
		S366.492,204.885,366.492,205.823"/>
	<path clip-path="url(#SVGID_2_)" d="M372.688,204.107c0.322,0.448,0.483,1.016,0.483,1.737c0,0.722-0.161,1.289-0.483,1.744
		c-0.33,0.448-0.812,0.714-1.323,0.714c-0.519,0-1.002-0.259-1.331-0.714c-0.329-0.462-0.483-1.015-0.483-1.779
		c0-0.679,0.168-1.275,0.483-1.702c0.344-0.455,0.819-0.714,1.331-0.714C371.875,203.393,372.352,203.652,372.688,204.107
		 M370.461,205.823c0,0.988,0.371,1.674,0.903,1.674c0.525,0,0.896-0.686,0.896-1.653c0-0.959-0.371-1.646-0.896-1.646
		S370.461,204.885,370.461,205.823"/>
	<path clip-path="url(#SVGID_2_)" d="M376.656,204.107c0.322,0.448,0.483,1.016,0.483,1.737c0,0.722-0.161,1.289-0.483,1.744
		c-0.329,0.448-0.812,0.714-1.323,0.714c-0.519,0-1.002-0.259-1.331-0.714c-0.329-0.462-0.483-1.015-0.483-1.779
		c0-0.679,0.168-1.275,0.483-1.702c0.344-0.455,0.819-0.714,1.331-0.714C375.844,203.393,376.32,203.652,376.656,204.107
		 M374.43,205.823c0,0.988,0.371,1.674,0.903,1.674c0.525,0,0.896-0.686,0.896-1.653c0-0.959-0.371-1.646-0.896-1.646
		S374.43,204.885,374.43,205.823"/>
	<path clip-path="url(#SVGID_2_)" d="M361.963,155.486c0-0.764,0.623-1.317,1.484-1.317c0.848,0,1.45,0.553,1.45,1.324
		c0,0.469-0.217,0.791-0.693,1.022c0.553,0.218,0.841,0.61,0.841,1.156c0,0.819-0.673,1.408-1.598,1.408
		c-0.952,0-1.646-0.589-1.646-1.394c0-0.336,0.126-0.658,0.351-0.883c0.133-0.119,0.237-0.189,0.482-0.287
		C362.187,156.291,361.963,155.948,361.963,155.486 M362.712,157.615c0,0.413,0.315,0.742,0.715,0.742
		c0.392,0,0.707-0.329,0.707-0.735c0-0.407-0.315-0.728-0.714-0.728C363.034,156.894,362.712,157.215,362.712,157.615
		 M362.782,155.486c0,0.364,0.287,0.658,0.651,0.658c0.357,0,0.645-0.287,0.645-0.651c0-0.364-0.287-0.658-0.651-0.658
		C363.076,154.835,362.782,155.129,362.782,155.486"/>
	<path clip-path="url(#SVGID_2_)" d="M368.719,154.883c0.322,0.448,0.483,1.016,0.483,1.737c0,0.722-0.161,1.289-0.483,1.744
		c-0.329,0.448-0.812,0.714-1.323,0.714c-0.519,0-1.002-0.259-1.331-0.714c-0.329-0.462-0.483-1.015-0.483-1.779
		c0-0.679,0.168-1.275,0.483-1.702c0.344-0.455,0.819-0.714,1.331-0.714C367.906,154.169,368.383,154.428,368.719,154.883
		 M366.492,156.599c0,0.988,0.371,1.674,0.903,1.674c0.525,0,0.896-0.686,0.896-1.653c0-0.959-0.371-1.646-0.896-1.646
		S366.492,155.661,366.492,156.599"/>
	<path clip-path="url(#SVGID_2_)" d="M372.688,154.883c0.322,0.448,0.483,1.016,0.483,1.737c0,0.722-0.161,1.289-0.483,1.744
		c-0.33,0.448-0.812,0.714-1.323,0.714c-0.519,0-1.002-0.259-1.331-0.714c-0.329-0.462-0.483-1.015-0.483-1.779
		c0-0.679,0.168-1.275,0.483-1.702c0.344-0.455,0.819-0.714,1.331-0.714C371.875,154.169,372.352,154.428,372.688,154.883
		 M370.461,156.599c0,0.988,0.371,1.674,0.903,1.674c0.525,0,0.896-0.686,0.896-1.653c0-0.959-0.371-1.646-0.896-1.646
		S370.461,155.661,370.461,156.599"/>
	<path clip-path="url(#SVGID_2_)" d="M376.656,154.883c0.322,0.448,0.483,1.016,0.483,1.737c0,0.722-0.161,1.289-0.483,1.744
		c-0.329,0.448-0.812,0.714-1.323,0.714c-0.519,0-1.002-0.259-1.331-0.714c-0.329-0.462-0.483-1.015-0.483-1.779
		c0-0.679,0.168-1.275,0.483-1.702c0.344-0.455,0.819-0.714,1.331-0.714C375.844,154.169,376.32,154.428,376.656,154.883
		 M374.43,156.599c0,0.988,0.371,1.674,0.903,1.674c0.525,0,0.896-0.686,0.896-1.653c0-0.959-0.371-1.646-0.896-1.646
		S374.43,155.661,374.43,156.599"/>
	<rect x="310.234" y="260.857" clip-path="url(#SVGID_2_)" fill="#FFFF00" width="37.396" height="91.926"/>
	<rect x="245.576" y="350.375" clip-path="url(#SVGID_2_)" fill="#FFFF00" width="37.396" height="2.428"/>
	<path clip-path="url(#SVGID_2_)" d="M182.256,364.353h-0.911v-4.671h1.366c0.609,0,0.939,0.099,1.233,0.357
		c0.301,0.272,0.476,0.68,0.476,1.128c0,0.406-0.14,0.784-0.378,1.043c-0.266,0.28-0.644,0.414-1.198,0.414h-0.588V364.353z
		 M182.627,361.833c0.567,0,0.854-0.224,0.854-0.672c0-0.225-0.09-0.428-0.237-0.54c-0.14-0.104-0.337-0.146-0.673-0.146h-0.315
		v1.358H182.627z"/>
	<path clip-path="url(#SVGID_2_)" d="M188.116,362.834c0,0.959-0.714,1.617-1.751,1.617c-1.015,0-1.715-0.665-1.715-1.639
		c0-0.923,0.728-1.589,1.744-1.589C187.409,361.224,188.116,361.881,188.116,362.834 M185.525,362.828
		c0,0.482,0.378,0.861,0.861,0.861c0.47,0,0.855-0.379,0.855-0.848c0-0.477-0.385-0.854-0.862-0.854
		C185.917,361.987,185.525,362.372,185.525,362.828"/>
	<path clip-path="url(#SVGID_2_)" d="M189.613,361.713c0.301-0.343,0.602-0.49,1.009-0.49c0.84,0,1.478,0.7,1.478,1.604
		c0,0.931-0.638,1.624-1.493,1.624c-0.419,0-0.714-0.146-0.994-0.49v0.393h-0.847v-5.246h0.847V361.713z M189.522,362.834
		c0,0.476,0.385,0.854,0.854,0.854c0.463,0,0.848-0.386,0.848-0.841c0-0.483-0.378-0.861-0.854-0.861
		C189.9,361.987,189.522,362.365,189.522,362.834"/>
	<path clip-path="url(#SVGID_2_)" d="M193.673,360.04c0,0.28-0.231,0.512-0.511,0.512c-0.287,0-0.511-0.231-0.511-0.519
		c0-0.273,0.231-0.504,0.511-0.504C193.449,359.529,193.673,359.752,193.673,360.04 M193.583,364.354h-0.848v-3.032h0.848V364.354z"
		/>
	<path clip-path="url(#SVGID_2_)" d="M196.656,362.246c-0.245-0.188-0.435-0.259-0.687-0.259c-0.504,0-0.875,0.363-0.875,0.854
		c0,0.49,0.371,0.848,0.875,0.848c0.26,0,0.456-0.07,0.687-0.253v0.827c-0.273,0.14-0.498,0.188-0.777,0.188
		c-0.939,0-1.661-0.693-1.661-1.597c0-0.924,0.722-1.632,1.667-1.632c0.302,0,0.526,0.057,0.771,0.183V362.246z"/>
	<path clip-path="url(#SVGID_2_)" d="M198.223,360.04c0,0.28-0.231,0.512-0.511,0.512c-0.287,0-0.511-0.231-0.511-0.519
		c0-0.273,0.231-0.504,0.511-0.504C197.999,359.529,198.223,359.752,198.223,360.04 M198.132,364.354h-0.848v-3.032h0.848V364.354z"
		/>
	<path clip-path="url(#SVGID_2_)" d="M202.109,361.322v3.032h-0.847v-0.393c-0.273,0.344-0.574,0.49-0.995,0.49
		c-0.854,0-1.491-0.693-1.491-1.617c0-0.911,0.644-1.611,1.478-1.611c0.413,0,0.714,0.147,1.008,0.49v-0.392H202.109z
		 M199.651,362.834c0,0.476,0.385,0.854,0.854,0.854c0.463,0,0.848-0.386,0.848-0.841c0-0.483-0.371-0.861-0.848-0.861
		C200.029,361.987,199.651,362.365,199.651,362.834"/>
	<path clip-path="url(#SVGID_2_)" d="M182.137,368.439c0,0.28-0.231,0.512-0.511,0.512c-0.287,0-0.511-0.231-0.511-0.519
		c0-0.273,0.231-0.504,0.511-0.504C181.913,367.928,182.137,368.152,182.137,368.439 M182.046,372.753h-0.848v-3.031h0.848V372.753z
		"/>
	<path clip-path="url(#SVGID_2_)" d="M185.441,369.721v0.462c0.217-0.386,0.497-0.561,0.882-0.561c0.133,0,0.218,0.015,0.371,0.077
		l-0.119,0.791c-0.154-0.084-0.238-0.104-0.406-0.104c-0.231,0-0.413,0.077-0.539,0.217c-0.14,0.161-0.189,0.351-0.189,0.693v1.457
		h-0.848v-3.032H185.441z"/>
	<path clip-path="url(#SVGID_2_)" d="M190.419,371.234c0,0.959-0.714,1.617-1.751,1.617c-1.015,0-1.715-0.665-1.715-1.639
		c0-0.924,0.728-1.589,1.744-1.589C189.712,369.624,190.419,370.281,190.419,371.234 M187.828,371.227
		c0,0.482,0.378,0.861,0.861,0.861c0.47,0,0.855-0.379,0.855-0.848c0-0.477-0.385-0.854-0.862-0.854
		C188.22,370.386,187.828,370.771,187.828,371.227"/>
	<polygon clip-path="url(#SVGID_2_)" points="193.667,372.018 193.667,372.753 190.564,372.753 192.288,370.442 190.832,370.442 
		190.832,369.707 193.779,369.707 192.063,372.018 	"/>
	<path clip-path="url(#SVGID_2_)" d="M195.122,370.113c0.301-0.343,0.602-0.49,1.009-0.49c0.84,0,1.478,0.7,1.478,1.604
		c0,0.931-0.638,1.624-1.493,1.624c-0.419,0-0.714-0.146-0.994-0.49v0.393h-0.847v-5.246h0.847V370.113z M195.031,371.234
		c0,0.476,0.385,0.854,0.854,0.854c0.463,0,0.848-0.385,0.848-0.84c0-0.483-0.378-0.861-0.854-0.861
		C195.409,370.386,195.031,370.764,195.031,371.234"/>
	<path clip-path="url(#SVGID_2_)" d="M201.563,371.234c0,0.959-0.714,1.617-1.751,1.617c-1.015,0-1.715-0.665-1.715-1.639
		c0-0.924,0.728-1.589,1.744-1.589C200.856,369.624,201.563,370.281,201.563,371.234 M198.972,371.227
		c0,0.482,0.378,0.861,0.861,0.861c0.47,0,0.855-0.379,0.855-0.848c0-0.477-0.385-0.854-0.862-0.854
		C199.364,370.386,198.972,370.771,198.972,371.227"/>
	<path clip-path="url(#SVGID_2_)" d="M203.137,368.439c0,0.28-0.231,0.512-0.512,0.512c-0.28,0-0.511-0.231-0.511-0.519
		c0-0.273,0.231-0.504,0.511-0.504C202.913,367.928,203.137,368.152,203.137,368.439 M203.046,374.372h-0.848v-4.649h0.848V374.372z
		"/>
	<path clip-path="url(#SVGID_2_)" d="M204.565,371.374c0.021,0.525,0.28,0.812,0.742,0.812c0.323,0,0.526-0.119,0.722-0.406
		l0.784,0.126c-0.259,0.624-0.77,0.945-1.485,0.945c-0.987,0-1.632-0.637-1.632-1.61c0-0.98,0.624-1.618,1.59-1.618
		c0.967,0,1.555,0.623,1.555,1.639v0.112H204.565z M206.029,370.834c-0.091-0.393-0.343-0.603-0.722-0.603
		c-0.378,0-0.637,0.225-0.714,0.603H206.029z"/>
	<rect x="180.914" y="339.078" clip-path="url(#SVGID_2_)" fill="#FFFF00" width="37.396" height="13.713"/>
	<rect x="116.11" y="190.026" clip-path="url(#SVGID_2_)" fill="#FFFF00" width="37.396" height="162.78"/>
	<rect x="51.425" y="171.905" clip-path="url(#SVGID_2_)" fill="#FFFF00" width="37.396" height="180.853"/>
	<rect x="53.489" y="156.284" clip-path="url(#SVGID_2_)" fill="#1C1C1C" width="300.672" height="0.25"/>
	<rect x="362.459" y="135.437" clip-path="url(#SVGID_2_)" width="0.847" height="5.246"/>
	<path clip-path="url(#SVGID_2_)" d="M364.951,140.683h-0.846v-3.032h0.846V140.683z M365.043,136.369
		c0,0.28-0.23,0.512-0.512,0.512c-0.287,0-0.509-0.232-0.509-0.519c0-0.273,0.229-0.504,0.509-0.504
		C364.818,135.858,365.043,136.082,365.043,136.369"/>
	<path clip-path="url(#SVGID_2_)" d="M368.025,138.575c-0.244-0.188-0.434-0.259-0.686-0.259c-0.504,0-0.877,0.364-0.877,0.855
		c0,0.49,0.373,0.847,0.877,0.847c0.258,0,0.455-0.07,0.686-0.253v0.828c-0.273,0.139-0.496,0.188-0.777,0.188
		c-0.938,0-1.66-0.693-1.66-1.597c0-0.923,0.723-1.631,1.668-1.631c0.301,0,0.525,0.056,0.77,0.182V138.575z"/>
	<polygon clip-path="url(#SVGID_2_)" points="371.455,139.948 371.455,140.683 368.354,140.683 370.076,138.372 368.619,138.372 
		368.619,137.636 371.568,137.636 369.852,139.948 	"/>
	<path clip-path="url(#SVGID_2_)" d="M372.82,139.164c0,0.476,0.385,0.855,0.854,0.855c0.463,0,0.848-0.386,0.848-0.841
		c0-0.484-0.379-0.862-0.855-0.862C373.197,138.316,372.82,138.694,372.82,139.164 M372.91,138.043
		c0.301-0.343,0.604-0.49,1.01-0.49c0.84,0,1.477,0.7,1.477,1.604c0,0.931-0.637,1.624-1.492,1.624c-0.42,0-0.713-0.146-0.994-0.49
		v0.393h-0.848v-5.246h0.848V138.043z"/>
	<path clip-path="url(#SVGID_2_)" d="M376.76,139.165c0,0.475,0.385,0.854,0.855,0.854c0.461,0,0.846-0.386,0.846-0.841
		c0-0.483-0.371-0.861-0.846-0.861C377.139,138.316,376.76,138.694,376.76,139.165 M379.219,137.651v3.032h-0.848v-0.392
		c-0.273,0.343-0.574,0.49-0.994,0.49c-0.855,0-1.492-0.693-1.492-1.617c0-0.911,0.646-1.612,1.477-1.612
		c0.414,0,0.715,0.148,1.01,0.491v-0.392H379.219z"/>
	<polygon clip-path="url(#SVGID_2_)" points="365.246,148.348 365.246,149.083 362.145,149.083 363.867,146.771 362.41,146.771 
		362.41,146.036 365.359,146.036 363.643,148.348 	"/>
	<path clip-path="url(#SVGID_2_)" d="M366.568,147.564c0,0.475,0.385,0.854,0.854,0.854c0.463,0,0.848-0.386,0.848-0.841
		c0-0.483-0.371-0.861-0.848-0.861C366.947,146.716,366.568,147.094,366.568,147.564 M369.027,143.837v5.246h-0.848v-0.392
		c-0.273,0.343-0.574,0.49-0.994,0.49c-0.855,0-1.492-0.694-1.492-1.617c0-0.912,0.645-1.612,1.477-1.612
		c0.414,0,0.715,0.148,1.01,0.49v-2.605H369.027z"/>
	<path clip-path="url(#SVGID_2_)" d="M370.578,147.564c0,0.475,0.387,0.854,0.855,0.854c0.463,0,0.848-0.386,0.848-0.841
		c0-0.483-0.371-0.861-0.848-0.861S370.578,147.094,370.578,147.564 M373.037,146.051v3.032h-0.848v-0.392
		c-0.273,0.343-0.574,0.49-0.994,0.49c-0.854,0-1.492-0.693-1.492-1.617c0-0.911,0.645-1.612,1.479-1.612
		c0.412,0,0.715,0.148,1.008,0.491v-0.392H373.037z"/>
	<path clip-path="url(#SVGID_2_)" d="M374.695,146.051v0.462c0.217-0.386,0.496-0.561,0.881-0.561c0.135,0,0.219,0.015,0.373,0.078
		l-0.119,0.791c-0.154-0.084-0.238-0.105-0.406-0.105c-0.232,0-0.414,0.077-0.541,0.217c-0.139,0.161-0.188,0.35-0.188,0.693v1.457
		h-0.848v-3.032H374.695z"/>
	<polygon clip-path="url(#SVGID_2_)" points="379.209,148.348 379.209,149.083 376.107,149.083 377.83,146.771 376.373,146.771 
		376.373,146.036 379.322,146.036 377.605,148.348 	"/>
	<path clip-path="url(#SVGID_2_)" d="M381.945,147.164c-0.09-0.393-0.342-0.603-0.721-0.603s-0.637,0.225-0.715,0.603H381.945z
		 M380.482,147.703c0.021,0.525,0.279,0.813,0.742,0.813c0.322,0,0.525-0.12,0.721-0.407l0.785,0.126
		c-0.26,0.624-0.77,0.946-1.484,0.946c-0.988,0-1.633-0.637-1.633-1.611c0-0.98,0.623-1.618,1.59-1.618s1.555,0.623,1.555,1.639
		v0.112H380.482z"/>
	<path clip-path="url(#SVGID_2_)" d="M384.822,145.519l-0.406-0.281l0.834-1.057l0.615,0.391L384.822,145.519z M384.248,146.051
		v0.378c0.266-0.344,0.539-0.477,0.953-0.477c0.357,0,0.68,0.133,0.883,0.365c0.174,0.203,0.238,0.427,0.238,0.84v1.926h-0.848
		v-1.68c0-0.252-0.021-0.386-0.084-0.491c-0.084-0.147-0.273-0.238-0.498-0.238c-0.434,0-0.645,0.266-0.645,0.84v1.569H383.4v-3.032
		H384.248z"/>
</g>
</svg>
