<?xml version="1.0" encoding="utf-8"?>
<!-- Generator: Adobe Illustrator 13.0.2, SVG Export Plug-In  -->
<!DOCTYPE svg PUBLIC "-//W3C//DTD SVG 1.1//EN" "http://www.w3.org/Graphics/SVG/1.1/DTD/svg11.dtd" [
	<!ENTITY ns_flows "http://ns.adobe.com/Flows/1.0/">
]>
<svg version="1.1"
	 xmlns="http://www.w3.org/2000/svg" xmlns:xlink="http://www.w3.org/1999/xlink" xmlns:a="http://ns.adobe.com/AdobeSVGViewerExtensions/3.0/"
	 x="0px" y="0px" width="347px" height="150px" viewBox="61 134.5 347 150" enable-background="new 61 134.5 347 150"
	 xml:space="preserve">
<defs>
</defs>
<g>
	<defs>
		<rect id="SVGID_1_" width="419.528" height="595.276"/>
	</defs>
	<clipPath id="SVGID_2_">
		<use xlink:href="#SVGID_1_"  overflow="visible"/>
	</clipPath>
	<path clip-path="url(#SVGID_2_)" d="M116.888,251.294v0.35c0.28-0.324,0.553-0.45,0.924-0.45c0.421,0,0.715,0.168,0.946,0.554
		c0.238-0.37,0.568-0.554,0.994-0.554c0.365,0,0.687,0.168,0.848,0.436c0.112,0.182,0.161,0.398,0.161,0.734v1.961h-0.848v-1.66
		c0-0.244-0.013-0.356-0.07-0.482c-0.077-0.168-0.23-0.267-0.427-0.267c-0.217,0-0.406,0.112-0.497,0.302
		c-0.063,0.134-0.092,0.287-0.092,0.554v1.553h-0.846v-1.61c0-0.26-0.015-0.393-0.064-0.504c-0.07-0.176-0.258-0.295-0.455-0.295
		c-0.189,0-0.392,0.112-0.476,0.274c-0.071,0.125-0.098,0.288-0.098,0.582v1.553h-0.848v-3.031H116.888z"/>
	<path clip-path="url(#SVGID_2_)" d="M122.285,252.799c0,0.484,0.378,0.862,0.862,0.862c0.468,0,0.854-0.378,0.854-0.847
		c0-0.478-0.386-0.856-0.862-0.856C122.676,251.958,122.285,252.343,122.285,252.799 M124.875,252.807
		c0,0.959-0.714,1.616-1.751,1.616c-1.016,0-1.716-0.665-1.716-1.637c0-0.924,0.729-1.59,1.744-1.59
		C124.168,251.196,124.875,251.854,124.875,252.807"/>
	<path clip-path="url(#SVGID_2_)" d="M126.373,251.294v0.378c0.266-0.345,0.539-0.478,0.952-0.478c0.358,0,0.68,0.133,0.883,0.366
		c0.175,0.203,0.238,0.426,0.238,0.839v1.926h-0.847v-1.679c0-0.252-0.022-0.386-0.084-0.492c-0.084-0.146-0.274-0.238-0.497-0.238
		c-0.435,0-0.645,0.267-0.645,0.842v1.567h-0.848v-3.031H126.373z"/>
	<path clip-path="url(#SVGID_2_)" d="M130.088,254.325h-0.847v-3.032h0.847V254.325z M130.18,250.011
		c0,0.28-0.231,0.513-0.512,0.513c-0.287,0-0.51-0.233-0.51-0.52c0-0.272,0.23-0.504,0.51-0.504
		C129.955,249.5,130.18,249.725,130.18,250.011"/>
	<polygon clip-path="url(#SVGID_2_)" points="131.741,254.327 130.893,254.327 130.893,252.029 130.557,252.029 130.557,251.294 
		130.893,251.294 130.893,250.258 131.741,250.258 131.741,251.294 132.344,251.294 132.344,252.029 131.741,252.029 	"/>
	<path clip-path="url(#SVGID_2_)" d="M133.498,252.799c0,0.484,0.378,0.862,0.862,0.862c0.468,0,0.854-0.378,0.854-0.847
		c0-0.478-0.386-0.856-0.862-0.856C133.889,251.958,133.498,252.343,133.498,252.799 M136.088,252.807
		c0,0.959-0.714,1.616-1.751,1.616c-1.016,0-1.716-0.665-1.716-1.637c0-0.924,0.729-1.59,1.744-1.59
		C135.381,251.196,136.088,251.854,136.088,252.807"/>
	<path clip-path="url(#SVGID_2_)" d="M137.586,251.294v0.462c0.217-0.387,0.497-0.562,0.882-0.562c0.134,0,0.218,0.016,0.372,0.079
		l-0.119,0.791c-0.155-0.084-0.239-0.105-0.406-0.105c-0.232,0-0.415,0.076-0.541,0.217c-0.139,0.161-0.188,0.349-0.188,0.692v1.457
		h-0.848v-3.031H137.586z"/>
	<path clip-path="url(#SVGID_2_)" d="M140.125,254.325h-0.847v-3.032h0.847V254.325z M140.217,250.011
		c0,0.28-0.231,0.513-0.512,0.513c-0.287,0-0.51-0.233-0.51-0.52c0-0.272,0.23-0.504,0.51-0.504
		C139.992,249.5,140.217,249.725,140.217,250.011"/>
	<path clip-path="url(#SVGID_2_)" d="M141.771,251.294v0.378c0.266-0.345,0.539-0.478,0.952-0.478c0.358,0,0.68,0.133,0.883,0.366
		c0.175,0.203,0.238,0.426,0.238,0.839v1.926h-0.847v-1.679c0-0.252-0.022-0.386-0.084-0.492c-0.084-0.146-0.274-0.238-0.497-0.238
		c-0.435,0-0.645,0.267-0.645,0.842v1.567h-0.848v-3.031H141.771z"/>
	<path clip-path="url(#SVGID_2_)" d="M145.377,252.807c0,0.474,0.384,0.854,0.853,0.854c0.463,0,0.848-0.384,0.848-0.841
		c0-0.483-0.378-0.861-0.848-0.861C145.755,251.958,145.377,252.336,145.377,252.807 M147.82,254.214
		c0,0.623-0.076,0.902-0.343,1.204c-0.294,0.351-0.742,0.532-1.274,0.532c-0.616,0-1.079-0.215-1.394-0.665
		c-0.147-0.211-0.203-0.356-0.231-0.601h0.925c0.084,0.356,0.329,0.546,0.713,0.546c0.217,0,0.428-0.084,0.568-0.224
		c0.119-0.127,0.189-0.345,0.189-0.632v-0.455c-0.315,0.364-0.602,0.505-1.03,0.505c-0.833,0-1.442-0.658-1.442-1.575
		c0-0.953,0.63-1.655,1.484-1.655c0.421,0,0.701,0.141,0.988,0.492v-0.393h0.847V254.214z"/>
	<path clip-path="url(#SVGID_2_)" d="M151.229,251.294v0.35c0.28-0.324,0.553-0.45,0.924-0.45c0.421,0,0.715,0.168,0.946,0.554
		c0.237-0.37,0.568-0.554,0.994-0.554c0.365,0,0.687,0.168,0.848,0.436c0.112,0.182,0.161,0.398,0.161,0.734v1.961h-0.848v-1.66
		c0-0.244-0.013-0.356-0.07-0.482c-0.077-0.168-0.23-0.267-0.427-0.267c-0.217,0-0.406,0.112-0.497,0.302
		c-0.063,0.134-0.092,0.287-0.092,0.554v1.553h-0.846v-1.61c0-0.26-0.015-0.393-0.064-0.504c-0.07-0.176-0.258-0.295-0.455-0.295
		c-0.189,0-0.392,0.112-0.476,0.274c-0.071,0.125-0.098,0.288-0.098,0.582v1.553h-0.848v-3.031H151.229z"/>
	<path clip-path="url(#SVGID_2_)" d="M156.744,254.325h-0.847v-3.032h0.847V254.325z M156.836,250.011
		c0,0.28-0.231,0.513-0.512,0.513c-0.287,0-0.51-0.233-0.51-0.52c0-0.272,0.23-0.504,0.51-0.504
		C156.611,249.5,156.836,249.725,156.836,250.011"/>
	<path clip-path="url(#SVGID_2_)" d="M159.713,252.408c-0.091-0.394-0.343-0.604-0.721-0.604c-0.379,0-0.638,0.225-0.715,0.604
		H159.713z M158.249,252.946c0.021,0.525,0.28,0.813,0.743,0.813c0.321,0,0.525-0.12,0.721-0.407l0.785,0.126
		c-0.26,0.623-0.77,0.947-1.485,0.947c-0.988,0-1.632-0.637-1.632-1.612c0-0.979,0.623-1.618,1.59-1.618
		c0.966,0,1.554,0.623,1.554,1.64v0.111H158.249z"/>
	<path clip-path="url(#SVGID_2_)" d="M162.015,255.945h-0.847v-4.65h0.847V255.945z M162.106,250.011
		c0,0.28-0.231,0.513-0.512,0.513c-0.28,0-0.51-0.233-0.51-0.52c0-0.272,0.23-0.504,0.51-0.504
		C161.881,249.5,162.106,249.725,162.106,250.011"/>
	<path clip-path="url(#SVGID_2_)" d="M164.472,252c-0.183-0.14-0.337-0.202-0.505-0.202c-0.188,0-0.329,0.111-0.329,0.259
		c0,0.139,0.091,0.203,0.483,0.337c0.344,0.118,0.449,0.168,0.589,0.271c0.224,0.154,0.336,0.387,0.336,0.674
		c0,0.637-0.525,1.085-1.274,1.085c-0.442,0-0.855-0.183-1.15-0.504l0.442-0.52c0.245,0.246,0.47,0.359,0.721,0.359
		c0.217,0,0.385-0.149,0.385-0.336c0-0.176-0.084-0.238-0.469-0.378c-0.377-0.142-0.448-0.17-0.581-0.268
		c-0.203-0.138-0.301-0.349-0.301-0.63c0-0.567,0.448-0.965,1.086-0.965c0.378,0,0.693,0.103,0.987,0.322L164.472,252z"/>
	<polygon clip-path="url(#SVGID_2_)" points="166.523,252.4 167.658,251.295 168.807,251.295 167.384,252.625 168.919,254.327 
		167.75,254.327 166.614,253.023 166.523,253.115 166.523,254.327 165.675,254.327 165.675,249.081 166.523,249.081 	"/>
	<path clip-path="url(#SVGID_2_)" d="M170.17,254.325h-0.847v-3.032h0.847V254.325z M170.262,250.011
		c0,0.28-0.231,0.513-0.512,0.513c-0.287,0-0.51-0.233-0.51-0.52c0-0.272,0.23-0.504,0.51-0.504
		C170.037,249.5,170.262,249.725,170.262,250.011"/>
	<polygon clip-path="url(#SVGID_2_)" points="172.129,253.452 171.143,255.306 170.604,255.245 171.353,253.359 	"/>
	<path clip-path="url(#SVGID_2_)" d="M116.797,261.206c0,0.477,0.385,0.856,0.853,0.856c0.463,0,0.848-0.387,0.848-0.842
		c0-0.482-0.378-0.86-0.854-0.86C117.175,260.36,116.797,260.738,116.797,261.206 M116.04,264.344v-4.649h0.848v0.39
		c0.272-0.343,0.574-0.49,0.994-0.49c0.854,0,1.492,0.693,1.492,1.618c0,0.91-0.645,1.61-1.478,1.61
		c-0.406,0-0.708-0.146-1.008-0.49v2.011H116.04z"/>
	<path clip-path="url(#SVGID_2_)" d="M120.87,259.695v0.462c0.217-0.387,0.497-0.562,0.882-0.562c0.134,0,0.218,0.016,0.372,0.079
		l-0.119,0.791c-0.155-0.084-0.239-0.105-0.406-0.105c-0.232,0-0.414,0.076-0.541,0.217c-0.139,0.161-0.188,0.349-0.188,0.692v1.457
		h-0.848v-3.031H120.87z"/>
	<polygon clip-path="url(#SVGID_2_)" points="125.386,261.991 125.386,262.726 122.283,262.726 124.007,260.416 122.55,260.416 
		122.55,259.679 125.498,259.679 123.782,261.991 	"/>
	<polygon clip-path="url(#SVGID_2_)" points="125.776,259.695 126.763,259.695 127.674,261.418 128.536,259.695 129.509,259.695 
		127.058,264.344 126.098,264.344 127.212,262.264 	"/>
	<path clip-path="url(#SVGID_2_)" d="M130.768,259.695v0.378c0.266-0.345,0.539-0.478,0.952-0.478c0.358,0,0.68,0.133,0.883,0.366
		c0.175,0.203,0.238,0.426,0.238,0.839v1.926h-0.847v-1.679c0-0.252-0.022-0.386-0.084-0.492c-0.084-0.146-0.274-0.238-0.497-0.238
		c-0.435,0-0.645,0.267-0.645,0.842v1.567h-0.848v-3.031H130.768z"/>
	<path clip-path="url(#SVGID_2_)" d="M134.365,261.208c0,0.474,0.386,0.853,0.855,0.853c0.462,0,0.847-0.386,0.847-0.841
		c0-0.482-0.371-0.86-0.847-0.86S134.365,260.738,134.365,261.208 M136.824,259.695v3.031h-0.848v-0.391
		c-0.273,0.342-0.574,0.49-0.994,0.49c-0.854,0-1.492-0.693-1.492-1.617c0-0.911,0.645-1.613,1.478-1.613
		c0.413,0,0.714,0.149,1.008,0.492v-0.392H136.824z"/>
	<path clip-path="url(#SVGID_2_)" d="M138.509,264.346h-0.847v-4.65h0.847V264.346z M138.601,258.412
		c0,0.28-0.231,0.513-0.512,0.513c-0.28,0-0.51-0.233-0.51-0.52c0-0.272,0.23-0.504,0.51-0.504
		C138.376,257.9,138.601,258.125,138.601,258.412"/>
	<path clip-path="url(#SVGID_2_)" d="M140.155,259.695v0.35c0.28-0.324,0.553-0.45,0.924-0.45c0.421,0,0.715,0.168,0.946,0.554
		c0.238-0.37,0.568-0.554,0.994-0.554c0.365,0,0.687,0.168,0.848,0.436c0.112,0.182,0.161,0.398,0.161,0.734v1.961h-0.848v-1.66
		c0-0.244-0.013-0.356-0.07-0.482c-0.077-0.168-0.23-0.267-0.427-0.267c-0.217,0-0.406,0.112-0.497,0.302
		c-0.063,0.134-0.092,0.287-0.092,0.554v1.553h-0.846v-1.61c0-0.26-0.015-0.393-0.064-0.504c-0.07-0.176-0.258-0.295-0.455-0.295
		c-0.189,0-0.392,0.112-0.476,0.274c-0.071,0.125-0.098,0.288-0.098,0.582v1.553h-0.848v-3.031H140.155z"/>
	<path clip-path="url(#SVGID_2_)" d="M145.684,259.695v0.378c0.266-0.345,0.539-0.478,0.952-0.478c0.358,0,0.68,0.133,0.883,0.366
		c0.175,0.203,0.238,0.426,0.238,0.839v1.926h-0.847v-1.679c0-0.252-0.022-0.386-0.084-0.492c-0.084-0.146-0.274-0.238-0.497-0.238
		c-0.435,0-0.645,0.267-0.645,0.842v1.567h-0.848v-3.031H145.684z"/>
	<path clip-path="url(#SVGID_2_)" d="M149.401,262.726h-0.847v-3.032h0.847V262.726z M149.493,258.412
		c0,0.28-0.231,0.513-0.512,0.513c-0.287,0-0.51-0.233-0.51-0.52c0-0.272,0.23-0.504,0.51-0.504
		C149.268,257.9,149.493,258.125,149.493,258.412"/>
	<path clip-path="url(#SVGID_2_)" d="M152.37,260.808c-0.091-0.394-0.343-0.604-0.721-0.604c-0.379,0-0.638,0.225-0.715,0.604
		H152.37z M150.906,261.346c0.021,0.525,0.28,0.813,0.743,0.813c0.321,0,0.525-0.12,0.721-0.407l0.784,0.126
		c-0.259,0.623-0.769,0.947-1.484,0.947c-0.988,0-1.632-0.637-1.632-1.612c0-0.979,0.623-1.618,1.59-1.618
		c0.966,0,1.554,0.623,1.554,1.64v0.111H150.906z"/>
	<path clip-path="url(#SVGID_2_)" d="M154.671,264.346h-0.847v-4.65h0.847V264.346z M154.763,258.412
		c0,0.28-0.231,0.513-0.512,0.513c-0.28,0-0.51-0.233-0.51-0.52c0-0.272,0.23-0.504,0.51-0.504
		C154.538,257.9,154.763,258.125,154.763,258.412"/>
	<path clip-path="url(#SVGID_2_)" d="M159.496,260.619c-0.245-0.188-0.435-0.26-0.687-0.26c-0.503,0-0.876,0.364-0.876,0.856
		c0,0.49,0.373,0.846,0.876,0.846c0.259,0,0.456-0.07,0.687-0.253v0.829c-0.273,0.138-0.497,0.187-0.777,0.187
		c-0.939,0-1.661-0.692-1.661-1.597c0-0.922,0.722-1.63,1.667-1.63c0.301,0,0.526,0.055,0.771,0.181V260.619z"/>
	<polygon clip-path="url(#SVGID_2_)" points="162.925,261.991 162.925,262.726 159.822,262.726 161.546,260.416 160.089,260.416 
		160.089,259.679 163.037,259.679 161.321,261.991 	"/>
	<path clip-path="url(#SVGID_2_)" d="M165.704,260.808c-0.091-0.394-0.343-0.604-0.721-0.604c-0.379,0-0.638,0.225-0.715,0.604
		H165.704z M164.24,261.346c0.021,0.525,0.28,0.813,0.743,0.813c0.321,0,0.525-0.12,0.721-0.407l0.784,0.126
		c-0.14,0.359-0.321,0.562-0.679,0.772c-0.329,0.21-0.497,0.406-0.497,0.601c0,0.156,0.126,0.275,0.301,0.275
		c0.112,0,0.21-0.03,0.336-0.092l-0.098,0.47c-0.132,0.077-0.28,0.119-0.455,0.119c-0.343,0-0.616-0.239-0.616-0.532
		c0-0.267,0.118-0.47,0.398-0.673c-0.084,0.007-0.119,0.007-0.167,0.007c-0.988,0-1.639-0.637-1.639-1.612
		c0-0.986,0.623-1.618,1.59-1.618c0.966,0,1.554,0.623,1.554,1.64v0.111H164.24z"/>
	<path clip-path="url(#SVGID_2_)" d="M168.223,259.163l-0.406-0.282l0.834-1.056l0.616,0.39L168.223,259.163z M168.819,260.402
		c-0.183-0.141-0.337-0.203-0.505-0.203c-0.188,0-0.329,0.111-0.329,0.259c0,0.139,0.091,0.203,0.483,0.337
		c0.344,0.118,0.449,0.168,0.589,0.271c0.224,0.154,0.336,0.387,0.336,0.674c0,0.637-0.525,1.085-1.274,1.085
		c-0.442,0-0.855-0.183-1.15-0.504l0.442-0.52c0.245,0.247,0.47,0.359,0.721,0.359c0.217,0,0.385-0.149,0.385-0.336
		c0-0.176-0.084-0.238-0.469-0.378c-0.377-0.142-0.448-0.169-0.581-0.268c-0.203-0.138-0.301-0.349-0.301-0.63
		c0-0.567,0.448-0.965,1.086-0.965c0.378,0,0.693,0.103,0.987,0.322L168.819,260.402z"/>
	<path clip-path="url(#SVGID_2_)" d="M171.291,259.163l-0.407-0.28l0.833-1.059l0.624,0.393L171.291,259.163z M172.271,260.619
		c-0.245-0.188-0.435-0.26-0.687-0.26c-0.503,0-0.875,0.364-0.875,0.856c0,0.49,0.372,0.846,0.875,0.846
		c0.259,0,0.456-0.07,0.687-0.253v0.829c-0.273,0.138-0.497,0.187-0.777,0.187c-0.939,0-1.661-0.692-1.661-1.597
		c0-0.922,0.722-1.63,1.667-1.63c0.301,0,0.526,0.055,0.771,0.181V260.619z"/>
	<polygon clip-path="url(#SVGID_2_)" points="175.511,260.801 176.646,259.695 177.794,259.695 176.372,261.025 177.907,262.727 
		176.737,262.727 175.602,261.423 175.511,261.515 175.511,262.727 174.663,262.727 174.663,257.481 175.511,257.481 	"/>
	<path clip-path="url(#SVGID_2_)" d="M178.843,261.208c0,0.474,0.385,0.853,0.854,0.853c0.462,0,0.847-0.386,0.847-0.841
		c0-0.482-0.371-0.86-0.847-0.86S178.843,260.738,178.843,261.208 M181.301,259.695v3.031h-0.848v-0.391
		c-0.273,0.342-0.574,0.49-0.994,0.49c-0.854,0-1.492-0.693-1.492-1.617c0-0.911,0.645-1.613,1.478-1.613
		c0.413,0,0.714,0.149,1.008,0.492v-0.392H181.301z"/>
	<path clip-path="url(#SVGID_2_)" d="M182.958,259.695v0.35c0.28-0.324,0.553-0.45,0.924-0.45c0.421,0,0.715,0.168,0.946,0.554
		c0.237-0.37,0.568-0.554,0.994-0.554c0.365,0,0.687,0.168,0.848,0.436c0.112,0.182,0.161,0.398,0.161,0.734v1.961h-0.848v-1.66
		c0-0.244-0.013-0.356-0.07-0.482c-0.077-0.168-0.23-0.267-0.427-0.267c-0.217,0-0.406,0.112-0.497,0.302
		c-0.063,0.134-0.092,0.287-0.092,0.554v1.553h-0.846v-1.61c0-0.26-0.015-0.393-0.064-0.504c-0.07-0.176-0.258-0.295-0.455-0.295
		c-0.189,0-0.392,0.112-0.476,0.274c-0.071,0.125-0.098,0.288-0.098,0.582v1.553h-0.848v-3.031H182.958z"/>
	<path clip-path="url(#SVGID_2_)" d="M189.812,260.808c-0.091-0.394-0.343-0.604-0.721-0.604c-0.379,0-0.638,0.225-0.715,0.604
		H189.812z M188.349,261.346c0.021,0.525,0.28,0.813,0.743,0.813c0.321,0,0.525-0.12,0.721-0.407l0.785,0.126
		c-0.26,0.623-0.77,0.947-1.485,0.947c-0.988,0-1.632-0.637-1.632-1.612c0-0.979,0.623-1.618,1.59-1.618
		c0.966,0,1.554,0.623,1.554,1.64v0.111H188.349z"/>
	<path clip-path="url(#SVGID_2_)" d="M192.115,259.695v0.462c0.217-0.387,0.497-0.562,0.882-0.562c0.134,0,0.218,0.016,0.372,0.079
		l-0.119,0.791c-0.155-0.084-0.239-0.105-0.406-0.105c-0.232,0-0.415,0.076-0.541,0.217c-0.139,0.161-0.188,0.349-0.188,0.692v1.457
		h-0.848v-3.031H192.115z"/>
	<polygon clip-path="url(#SVGID_2_)" points="118.827,270.39 118.827,271.125 115.724,271.125 117.448,268.815 115.991,268.815 
		115.991,268.078 118.938,268.078 117.223,270.39 	"/>
	<path clip-path="url(#SVGID_2_)" d="M120.267,271.125h-0.847v-3.032h0.847V271.125z M120.359,266.811
		c0,0.28-0.231,0.513-0.512,0.513c-0.287,0-0.51-0.233-0.51-0.52c0-0.272,0.23-0.504,0.51-0.504
		C120.134,266.3,120.359,266.525,120.359,266.811"/>
	<path clip-path="url(#SVGID_2_)" d="M121.913,268.094v0.378c0.266-0.345,0.539-0.478,0.952-0.478c0.358,0,0.68,0.133,0.883,0.366
		c0.175,0.203,0.238,0.426,0.238,0.839v1.926h-0.847v-1.679c0-0.252-0.022-0.386-0.084-0.492c-0.084-0.146-0.274-0.238-0.497-0.238
		c-0.435,0-0.645,0.267-0.645,0.841v1.568h-0.848v-3.031H121.913z"/>
	<polygon clip-path="url(#SVGID_2_)" points="125.651,271.125 124.803,271.125 124.803,268.829 124.467,268.829 124.467,268.094 
		124.803,268.094 124.803,267.058 125.651,267.058 125.651,268.094 126.254,268.094 126.254,268.829 125.651,268.829 	"/>
	<path clip-path="url(#SVGID_2_)" d="M128.879,269.208c-0.091-0.394-0.343-0.604-0.721-0.604c-0.379,0-0.638,0.225-0.715,0.604
		H128.879z M127.415,269.746c0.021,0.525,0.28,0.813,0.743,0.813c0.321,0,0.525-0.12,0.721-0.407l0.785,0.126
		c-0.26,0.624-0.77,0.947-1.485,0.947c-0.988,0-1.632-0.637-1.632-1.612c0-0.979,0.623-1.618,1.59-1.618
		c0.966,0,1.554,0.623,1.554,1.64v0.111H127.415z"/>
	<path clip-path="url(#SVGID_2_)" d="M131.049,269.607c0,0.474,0.384,0.854,0.853,0.854c0.463,0,0.848-0.384,0.848-0.841
		c0-0.483-0.378-0.861-0.848-0.861C131.427,268.758,131.049,269.136,131.049,269.607 M133.492,271.014
		c0,0.623-0.076,0.902-0.343,1.204c-0.294,0.351-0.742,0.532-1.274,0.532c-0.616,0-1.079-0.215-1.394-0.665
		c-0.147-0.211-0.203-0.356-0.231-0.601h0.925c0.084,0.356,0.329,0.546,0.713,0.546c0.217,0,0.428-0.084,0.568-0.224
		c0.119-0.127,0.189-0.345,0.189-0.632v-0.455c-0.315,0.364-0.602,0.505-1.03,0.505c-0.833,0-1.442-0.658-1.442-1.575
		c0-0.953,0.63-1.655,1.484-1.655c0.421,0,0.701,0.141,0.988,0.492v-0.393h0.847V271.014z"/>
	<path clip-path="url(#SVGID_2_)" d="M135.184,268.094v0.462c0.217-0.387,0.497-0.562,0.882-0.562c0.134,0,0.218,0.016,0.372,0.079
		l-0.119,0.791c-0.155-0.084-0.239-0.106-0.406-0.106c-0.232,0-0.414,0.077-0.541,0.218c-0.139,0.161-0.188,0.349-0.188,0.692v1.457
		h-0.848v-3.031H135.184z"/>
	<path clip-path="url(#SVGID_2_)" d="M137.537,269.599c0,0.484,0.378,0.862,0.862,0.862c0.468,0,0.854-0.378,0.854-0.847
		c0-0.478-0.386-0.856-0.862-0.856C137.929,268.758,137.537,269.143,137.537,269.599 M140.128,269.607
		c0,0.959-0.714,1.616-1.751,1.616c-1.016,0-1.716-0.665-1.716-1.637c0-0.925,0.729-1.59,1.744-1.59
		C139.421,267.996,140.128,268.654,140.128,269.607"/>
	<polygon clip-path="url(#SVGID_2_)" points="141.975,269.844 142.801,268.009 143.165,268.009 143.993,269.871 144.805,268.093 
		145.75,268.093 144.181,271.19 143.795,271.19 142.977,269.346 142.17,271.19 141.779,271.19 140.224,268.093 141.177,268.093 	"/>
	<path clip-path="url(#SVGID_2_)" d="M146.721,269.607c0,0.474,0.385,0.853,0.854,0.853c0.462,0,0.847-0.386,0.847-0.841
		c0-0.482-0.371-0.861-0.847-0.861S146.721,269.137,146.721,269.607 M149.179,268.094v3.031h-0.848v-0.391
		c-0.273,0.342-0.574,0.49-0.994,0.49c-0.854,0-1.492-0.693-1.492-1.617c0-0.911,0.645-1.613,1.478-1.613
		c0.413,0,0.714,0.149,1.008,0.492v-0.392H149.179z"/>
	<path clip-path="url(#SVGID_2_)" d="M150.837,268.094v0.378c0.266-0.345,0.539-0.478,0.952-0.478c0.358,0,0.68,0.133,0.883,0.366
		c0.175,0.203,0.238,0.426,0.238,0.839v1.926h-0.847v-1.679c0-0.252-0.022-0.386-0.084-0.492c-0.084-0.146-0.274-0.238-0.497-0.238
		c-0.435,0-0.645,0.267-0.645,0.841v1.568h-0.848v-3.031H150.837z"/>
	<path clip-path="url(#SVGID_2_)" d="M154.433,269.607c0,0.474,0.386,0.853,0.855,0.853c0.462,0,0.847-0.386,0.847-0.841
		c0-0.482-0.371-0.861-0.847-0.861S154.433,269.137,154.433,269.607 M156.892,268.094v3.031h-0.848v-0.391
		c-0.273,0.342-0.574,0.49-0.994,0.49c-0.854,0-1.492-0.693-1.492-1.617c0-0.911,0.645-1.613,1.478-1.613
		c0.413,0,0.714,0.149,1.008,0.492v-0.392H156.892z"/>
	<polygon clip-path="url(#SVGID_2_)" points="160.804,269.844 161.63,268.009 161.994,268.009 162.822,269.871 163.634,268.093 
		164.579,268.093 163.01,271.19 162.625,271.19 161.806,269.346 161,271.19 160.608,271.19 159.053,268.093 160.006,268.093 	"/>
	<path clip-path="url(#SVGID_2_)" d="M168.407,268.801c-0.183-0.142-0.337-0.203-0.505-0.203c-0.188,0-0.329,0.111-0.329,0.259
		c0,0.139,0.091,0.203,0.483,0.337c0.344,0.118,0.449,0.168,0.589,0.271c0.224,0.154,0.336,0.387,0.336,0.674
		c0,0.637-0.525,1.085-1.274,1.085c-0.442,0-0.855-0.183-1.15-0.504l0.442-0.52c0.245,0.247,0.47,0.359,0.721,0.359
		c0.217,0,0.385-0.149,0.385-0.336c0-0.176-0.084-0.238-0.469-0.378c-0.377-0.142-0.448-0.169-0.581-0.268
		c-0.203-0.138-0.301-0.349-0.301-0.63c0-0.567,0.448-0.965,1.086-0.965c0.378,0,0.693,0.103,0.987,0.322L168.407,268.801z"/>
	<polygon clip-path="url(#SVGID_2_)" points="169.183,268.094 170.169,268.094 171.081,269.817 171.942,268.094 172.916,268.094 
		170.465,272.743 169.504,272.743 170.619,270.663 	"/>
	<path clip-path="url(#SVGID_2_)" d="M174.868,268.801c-0.183-0.142-0.337-0.203-0.505-0.203c-0.188,0-0.329,0.111-0.329,0.259
		c0,0.139,0.091,0.203,0.483,0.337c0.344,0.118,0.449,0.168,0.589,0.271c0.224,0.154,0.336,0.387,0.336,0.674
		c0,0.637-0.525,1.085-1.274,1.085c-0.442,0-0.855-0.183-1.15-0.504l0.442-0.52c0.245,0.247,0.47,0.359,0.721,0.359
		c0.217,0,0.385-0.149,0.385-0.336c0-0.176-0.084-0.238-0.469-0.378c-0.377-0.142-0.448-0.169-0.581-0.268
		c-0.203-0.138-0.301-0.349-0.301-0.63c0-0.567,0.448-0.965,1.086-0.965c0.378,0,0.693,0.103,0.987,0.322L174.868,268.801z"/>
	<polygon clip-path="url(#SVGID_2_)" points="176.967,271.125 176.119,271.125 176.119,268.829 175.783,268.829 175.783,268.094 
		176.119,268.094 176.119,267.058 176.967,267.058 176.967,268.094 177.57,268.094 177.57,268.829 176.967,268.829 	"/>
	<path clip-path="url(#SVGID_2_)" d="M180.194,269.208c-0.091-0.394-0.343-0.604-0.721-0.604c-0.379,0-0.638,0.225-0.715,0.604
		H180.194z M178.73,269.746c0.021,0.525,0.28,0.813,0.743,0.813c0.321,0,0.525-0.12,0.721-0.407l0.784,0.126
		c-0.259,0.624-0.769,0.947-1.484,0.947c-0.988,0-1.632-0.637-1.632-1.612c0-0.979,0.623-1.618,1.59-1.618
		c0.966,0,1.554,0.623,1.554,1.64v0.111H178.73z"/>
	<path clip-path="url(#SVGID_2_)" d="M182.497,268.094v0.35c0.28-0.324,0.553-0.45,0.924-0.45c0.421,0,0.715,0.168,0.946,0.554
		c0.238-0.37,0.568-0.554,0.994-0.554c0.365,0,0.687,0.168,0.848,0.436c0.112,0.182,0.161,0.398,0.161,0.734v1.961h-0.848v-1.66
		c0-0.244-0.013-0.355-0.07-0.482c-0.077-0.168-0.23-0.267-0.427-0.267c-0.217,0-0.406,0.112-0.497,0.302
		c-0.063,0.134-0.092,0.287-0.092,0.554v1.553h-0.846v-1.61c0-0.26-0.015-0.393-0.064-0.504c-0.07-0.176-0.258-0.295-0.455-0.295
		c-0.189,0-0.392,0.112-0.476,0.274c-0.071,0.125-0.098,0.288-0.098,0.582v1.553h-0.848v-3.031H182.497z"/>
	<path clip-path="url(#SVGID_2_)" d="M188.012,271.125h-0.847v-3.032h0.847V271.125z M188.104,266.811
		c0,0.28-0.231,0.513-0.512,0.513c-0.287,0-0.51-0.233-0.51-0.52c0-0.272,0.23-0.504,0.51-0.504
		C187.879,266.3,188.104,266.525,188.104,266.811"/>
	<path clip-path="url(#SVGID_2_)" d="M190.981,269.208c-0.091-0.394-0.343-0.604-0.721-0.604c-0.379,0-0.638,0.225-0.715,0.604
		H190.981z M189.517,269.746c0.021,0.525,0.28,0.813,0.743,0.813c0.321,0,0.525-0.12,0.721-0.407l0.784,0.126
		c-0.259,0.624-0.769,0.947-1.484,0.947c-0.988,0-1.632-0.637-1.632-1.612c0-0.979,0.623-1.618,1.59-1.618
		c0.966,0,1.554,0.623,1.554,1.64v0.111H189.517z"/>
	<path clip-path="url(#SVGID_2_)" d="M263.252,142.831c0.301-0.342,0.603-0.49,1.009-0.49c0.839,0,1.478,0.701,1.478,1.604
		c0,0.932-0.639,1.625-1.492,1.625c-0.42,0-0.714-0.147-0.994-0.49v0.392h-0.848v-5.246h0.848V142.831z M263.161,143.952
		c0,0.477,0.385,0.854,0.854,0.854c0.463,0,0.848-0.385,0.848-0.84c0-0.483-0.378-0.861-0.854-0.861
		C263.539,143.104,263.161,143.483,263.161,143.952"/>
	<path clip-path="url(#SVGID_2_)" d="M267.234,142.439v0.462c0.217-0.385,0.497-0.56,0.882-0.56c0.134,0,0.218,0.014,0.372,0.077
		l-0.119,0.792c-0.154-0.084-0.238-0.105-0.405-0.105c-0.232,0-0.415,0.077-0.541,0.216c-0.14,0.161-0.188,0.351-0.188,0.694v1.457
		h-0.848v-3.033H267.234z"/>
	<path clip-path="url(#SVGID_2_)" d="M272.08,142.438v3.033h-0.848v-0.392c-0.273,0.343-0.574,0.49-0.994,0.49
		c-0.854,0-1.492-0.693-1.492-1.618c0-0.91,0.645-1.611,1.478-1.611c0.413,0,0.715,0.148,1.009,0.49v-0.392H272.08z
		 M269.621,143.952c0,0.477,0.386,0.854,0.854,0.854c0.464,0,0.849-0.385,0.849-0.84c0-0.483-0.371-0.861-0.849-0.861
		C270,143.104,269.621,143.483,269.621,143.952"/>
	<polygon clip-path="url(#SVGID_2_)" points="273.737,143.545 274.872,142.439 276.021,142.439 274.599,143.77 276.133,145.471 
		274.963,145.471 273.828,144.169 273.737,144.26 273.737,145.471 272.89,145.471 272.89,140.227 273.737,140.227 	"/>
	<path clip-path="url(#SVGID_2_)" d="M263.252,150.839v0.35c0.28-0.322,0.553-0.448,0.924-0.448c0.421,0,0.715,0.168,0.946,0.553
		c0.237-0.371,0.568-0.553,0.994-0.553c0.365,0,0.687,0.168,0.848,0.434c0.112,0.183,0.161,0.399,0.161,0.736v1.961h-0.848v-1.66
		c0-0.245-0.014-0.357-0.07-0.483c-0.077-0.168-0.23-0.266-0.427-0.266c-0.217,0-0.406,0.111-0.497,0.301
		c-0.063,0.133-0.092,0.287-0.092,0.553v1.555h-0.847v-1.611c0-0.259-0.015-0.392-0.063-0.505c-0.07-0.174-0.258-0.293-0.455-0.293
		c-0.189,0-0.393,0.111-0.477,0.272c-0.07,0.126-0.098,0.288-0.098,0.582v1.555h-0.848v-3.033H263.252z"/>
	<path clip-path="url(#SVGID_2_)" d="M271.24,152.352c0,0.96-0.714,1.618-1.751,1.618c-1.016,0-1.716-0.666-1.716-1.639
		c0-0.924,0.729-1.59,1.744-1.59S271.24,151.4,271.24,152.352 M268.648,152.345c0,0.483,0.379,0.861,0.862,0.861
		c0.469,0,0.854-0.378,0.854-0.847c0-0.476-0.386-0.854-0.863-0.854C269.041,151.505,268.648,151.89,268.648,152.345"/>
	<path clip-path="url(#SVGID_2_)" d="M272.736,150.839v0.378c0.266-0.343,0.539-0.476,0.952-0.476c0.357,0,0.68,0.133,0.883,0.364
		c0.175,0.203,0.238,0.427,0.238,0.84v1.927h-0.848v-1.681c0-0.252-0.021-0.385-0.084-0.491c-0.084-0.147-0.273-0.237-0.497-0.237
		c-0.435,0-0.645,0.266-0.645,0.84v1.569h-0.848v-3.033H272.736z"/>
	<path clip-path="url(#SVGID_2_)" d="M276.545,149.558c0,0.28-0.232,0.511-0.512,0.511c-0.287,0-0.511-0.231-0.511-0.518
		c0-0.273,0.23-0.504,0.511-0.504C276.32,149.047,276.545,149.271,276.545,149.558 M276.453,153.872h-0.847v-3.033h0.847V153.872z"
		/>
	<polygon clip-path="url(#SVGID_2_)" points="278.105,153.872 277.258,153.872 277.258,151.575 276.922,151.575 276.922,150.839 
		277.258,150.839 277.258,149.803 278.105,149.803 278.105,150.839 278.709,150.839 278.709,151.575 278.105,151.575 	"/>
	<path clip-path="url(#SVGID_2_)" d="M282.446,152.352c0,0.96-0.714,1.618-1.751,1.618c-1.016,0-1.716-0.666-1.716-1.639
		c0-0.924,0.729-1.59,1.744-1.59C281.739,150.741,282.446,151.4,282.446,152.352 M279.855,152.345c0,0.483,0.378,0.861,0.861,0.861
		c0.469,0,0.854-0.378,0.854-0.847c0-0.476-0.386-0.854-0.861-0.854C280.247,151.505,279.855,151.89,279.855,152.345"/>
	<path clip-path="url(#SVGID_2_)" d="M283.943,150.839v0.462c0.217-0.385,0.497-0.56,0.882-0.56c0.134,0,0.218,0.014,0.372,0.077
		l-0.119,0.792c-0.154-0.084-0.238-0.105-0.405-0.105c-0.232,0-0.415,0.077-0.541,0.216c-0.14,0.161-0.188,0.351-0.188,0.694v1.457
		h-0.848v-3.033H283.943z"/>
	<path clip-path="url(#SVGID_2_)" d="M286.54,149.558c0,0.28-0.231,0.511-0.512,0.511c-0.287,0-0.511-0.231-0.511-0.518
		c0-0.273,0.23-0.504,0.511-0.504C286.315,149.047,286.54,149.271,286.54,149.558 M286.448,153.872h-0.848v-3.033h0.848V153.872z"/>
	<path clip-path="url(#SVGID_2_)" d="M288.095,150.839v0.378c0.266-0.343,0.539-0.476,0.952-0.476c0.357,0,0.68,0.133,0.883,0.364
		c0.175,0.203,0.238,0.427,0.238,0.84v1.927h-0.848v-1.681c0-0.252-0.021-0.385-0.084-0.491c-0.084-0.147-0.273-0.237-0.497-0.237
		c-0.435,0-0.645,0.266-0.645,0.84v1.569h-0.848v-3.033H288.095z"/>
	<path clip-path="url(#SVGID_2_)" d="M294.136,153.76c0,0.623-0.076,0.904-0.343,1.205c-0.294,0.35-0.742,0.532-1.274,0.532
		c-0.616,0-1.079-0.217-1.394-0.666c-0.147-0.209-0.203-0.356-0.231-0.602h0.925c0.084,0.357,0.329,0.546,0.714,0.546
		c0.217,0,0.428-0.084,0.567-0.224c0.119-0.126,0.189-0.343,0.189-0.63v-0.455c-0.315,0.364-0.603,0.504-1.03,0.504
		c-0.833,0-1.442-0.658-1.442-1.576c0-0.952,0.63-1.653,1.484-1.653c0.421,0,0.701,0.14,0.988,0.49v-0.392h0.847V153.76z
		 M291.691,152.352c0,0.477,0.386,0.854,0.854,0.854c0.464,0,0.849-0.385,0.849-0.84c0-0.483-0.378-0.861-0.849-0.861
		C292.07,151.505,291.691,151.883,291.691,152.352"/>
	<path clip-path="url(#SVGID_2_)" d="M295.844,152.555c0,0.456,0.21,0.693,0.623,0.693c0.406,0,0.616-0.237,0.616-0.693v-1.716
		h0.848v1.856c0,0.819-0.524,1.275-1.464,1.275c-0.945,0-1.471-0.456-1.471-1.275v-1.856h0.848V152.555z"/>
	<path clip-path="url(#SVGID_2_)" d="M305.728,187.638v0.35c0.28-0.322,0.553-0.448,0.924-0.448c0.421,0,0.715,0.168,0.946,0.554
		c0.238-0.372,0.567-0.554,0.994-0.554c0.364,0,0.687,0.168,0.848,0.434c0.112,0.183,0.161,0.4,0.161,0.736v1.961h-0.848v-1.66
		c0-0.246-0.014-0.358-0.07-0.484c-0.077-0.168-0.23-0.265-0.427-0.265c-0.218,0-0.406,0.112-0.497,0.3
		c-0.063,0.134-0.093,0.287-0.093,0.554v1.555h-0.846v-1.612c0-0.258-0.015-0.391-0.063-0.504c-0.07-0.174-0.259-0.293-0.455-0.293
		c-0.189,0-0.393,0.112-0.477,0.273c-0.07,0.126-0.098,0.287-0.098,0.581v1.555h-0.848v-3.033H305.728z"/>
	<path clip-path="url(#SVGID_2_)" d="M313.716,189.151c0,0.959-0.714,1.617-1.751,1.617c-1.016,0-1.716-0.665-1.716-1.639
		c0-0.924,0.729-1.589,1.744-1.589S313.716,188.198,313.716,189.151 M311.125,189.144c0,0.482,0.378,0.861,0.861,0.861
		c0.469,0,0.854-0.379,0.854-0.847c0-0.477-0.386-0.855-0.862-0.855C311.517,188.303,311.125,188.688,311.125,189.144"/>
	<path clip-path="url(#SVGID_2_)" d="M315.213,187.638v0.378c0.266-0.343,0.539-0.476,0.952-0.476c0.357,0,0.68,0.133,0.883,0.364
		c0.175,0.203,0.238,0.428,0.238,0.841v1.926h-0.848v-1.681c0-0.252-0.021-0.386-0.084-0.49c-0.084-0.148-0.273-0.238-0.497-0.238
		c-0.435,0-0.645,0.265-0.645,0.84v1.569h-0.848v-3.033H315.213z"/>
	<path clip-path="url(#SVGID_2_)" d="M319.021,186.356c0,0.28-0.232,0.511-0.513,0.511c-0.287,0-0.511-0.231-0.511-0.518
		c0-0.273,0.23-0.504,0.511-0.504C318.796,185.845,319.021,186.069,319.021,186.356 M318.929,190.671h-0.847v-3.033h0.847V190.671z"
		/>
	<polygon clip-path="url(#SVGID_2_)" points="320.581,190.67 319.733,190.67 319.733,188.374 319.397,188.374 319.397,187.637 
		319.733,187.637 319.733,186.602 320.581,186.602 320.581,187.637 321.184,187.637 321.184,188.374 320.581,188.374 	"/>
	<path clip-path="url(#SVGID_2_)" d="M324.922,189.151c0,0.959-0.714,1.617-1.751,1.617c-1.016,0-1.716-0.665-1.716-1.639
		c0-0.924,0.729-1.589,1.744-1.589C324.215,187.54,324.922,188.198,324.922,189.151 M322.33,189.144
		c0,0.482,0.379,0.861,0.862,0.861c0.469,0,0.854-0.379,0.854-0.847c0-0.477-0.386-0.855-0.862-0.855
		C322.723,188.303,322.33,188.688,322.33,189.144"/>
	<path clip-path="url(#SVGID_2_)" d="M326.419,187.638v0.462c0.217-0.385,0.497-0.56,0.882-0.56c0.134,0,0.218,0.014,0.372,0.077
		l-0.119,0.791c-0.155-0.084-0.239-0.104-0.406-0.104c-0.231,0-0.413,0.077-0.541,0.216c-0.139,0.161-0.188,0.351-0.188,0.694v1.457
		h-0.848v-3.033H326.419z"/>
	<path clip-path="url(#SVGID_2_)" d="M329.017,186.356c0,0.28-0.231,0.511-0.512,0.511c-0.287,0-0.511-0.231-0.511-0.518
		c0-0.273,0.23-0.504,0.511-0.504C328.792,185.845,329.017,186.069,329.017,186.356 M328.925,190.671h-0.847v-3.033h0.847V190.671z"
		/>
	<path clip-path="url(#SVGID_2_)" d="M330.57,187.638v0.378c0.266-0.343,0.539-0.476,0.952-0.476c0.357,0,0.68,0.133,0.883,0.364
		c0.175,0.203,0.238,0.428,0.238,0.841v1.926h-0.848v-1.681c0-0.252-0.021-0.386-0.084-0.49c-0.084-0.148-0.273-0.238-0.497-0.238
		c-0.435,0-0.645,0.265-0.645,0.84v1.569h-0.848v-3.033H330.57z"/>
	<path clip-path="url(#SVGID_2_)" d="M336.611,190.558c0,0.624-0.076,0.904-0.343,1.205c-0.294,0.35-0.742,0.533-1.274,0.533
		c-0.616,0-1.079-0.217-1.394-0.666c-0.147-0.21-0.203-0.357-0.231-0.602h0.925c0.084,0.357,0.329,0.546,0.714,0.546
		c0.217,0,0.428-0.084,0.567-0.224c0.119-0.126,0.189-0.344,0.189-0.631v-0.455c-0.315,0.365-0.603,0.504-1.03,0.504
		c-0.833,0-1.442-0.658-1.442-1.575c0-0.953,0.63-1.653,1.484-1.653c0.421,0,0.701,0.14,0.988,0.49v-0.392h0.847V190.558z
		 M334.168,189.151c0,0.476,0.385,0.854,0.854,0.854c0.462,0,0.847-0.385,0.847-0.84c0-0.484-0.378-0.862-0.847-0.862
		C334.546,188.303,334.168,188.681,334.168,189.151"/>
	<path clip-path="url(#SVGID_2_)" d="M340.02,187.638v0.35c0.28-0.322,0.553-0.448,0.924-0.448c0.421,0,0.715,0.168,0.946,0.554
		c0.237-0.372,0.567-0.554,0.994-0.554c0.364,0,0.687,0.168,0.848,0.434c0.112,0.183,0.161,0.4,0.161,0.736v1.961h-0.848v-1.66
		c0-0.246-0.014-0.358-0.07-0.484c-0.077-0.168-0.23-0.265-0.427-0.265c-0.218,0-0.406,0.112-0.497,0.3
		c-0.063,0.134-0.092,0.287-0.092,0.554v1.555h-0.847v-1.612c0-0.258-0.015-0.391-0.063-0.504c-0.07-0.174-0.259-0.293-0.455-0.293
		c-0.189,0-0.393,0.112-0.477,0.273c-0.07,0.126-0.098,0.287-0.098,0.581v1.555h-0.848v-3.033H340.02z"/>
	<path clip-path="url(#SVGID_2_)" d="M345.627,186.356c0,0.28-0.23,0.511-0.512,0.511c-0.287,0-0.512-0.231-0.512-0.518
		c0-0.273,0.231-0.504,0.512-0.504C345.402,185.845,345.627,186.069,345.627,186.356 M345.535,190.671h-0.847v-3.033h0.847V190.671z
		"/>
	<path clip-path="url(#SVGID_2_)" d="M347.04,189.291c0.021,0.525,0.28,0.813,0.743,0.813c0.321,0,0.524-0.12,0.721-0.407
		l0.785,0.126c-0.26,0.623-0.771,0.946-1.485,0.946c-0.987,0-1.632-0.637-1.632-1.611c0-0.98,0.623-1.618,1.59-1.618
		s1.555,0.624,1.555,1.639v0.112H347.04z M348.504,188.751c-0.091-0.393-0.343-0.603-0.721-0.603c-0.379,0-0.638,0.225-0.715,0.603
		H348.504z"/>
	<path clip-path="url(#SVGID_2_)" d="M350.884,186.356c0,0.28-0.231,0.511-0.512,0.511s-0.511-0.231-0.511-0.518
		c0-0.273,0.23-0.504,0.511-0.504C350.659,185.845,350.884,186.069,350.884,186.356 M350.792,192.289h-0.847v-4.651h0.847V192.289z"
		/>
	<path clip-path="url(#SVGID_2_)" d="M353.25,188.345c-0.183-0.14-0.337-0.203-0.505-0.203c-0.188,0-0.329,0.112-0.329,0.259
		c0,0.14,0.091,0.203,0.483,0.337c0.344,0.118,0.448,0.168,0.589,0.272c0.224,0.154,0.336,0.386,0.336,0.673
		c0,0.637-0.525,1.085-1.274,1.085c-0.441,0-0.854-0.182-1.149-0.504l0.441-0.519c0.245,0.246,0.471,0.358,0.721,0.358
		c0.218,0,0.386-0.148,0.386-0.336c0-0.175-0.084-0.238-0.47-0.378c-0.377-0.141-0.447-0.169-0.58-0.267
		c-0.203-0.139-0.302-0.35-0.302-0.63c0-0.567,0.448-0.966,1.086-0.966c0.378,0,0.693,0.105,0.987,0.321L353.25,188.345z"/>
	<polygon clip-path="url(#SVGID_2_)" points="355.272,188.745 356.407,187.638 357.556,187.638 356.134,188.969 357.669,190.67 
		356.498,190.67 355.363,189.368 355.272,189.458 355.272,190.67 354.425,190.67 354.425,185.424 355.272,185.424 	"/>
	<path clip-path="url(#SVGID_2_)" d="M358.969,186.356c0,0.28-0.231,0.511-0.512,0.511c-0.287,0-0.511-0.231-0.511-0.518
		c0-0.273,0.23-0.504,0.511-0.504C358.744,185.845,358.969,186.069,358.969,186.356 M358.877,190.671h-0.847v-3.033h0.847V190.671z"
		/>
	<polygon clip-path="url(#SVGID_2_)" points="360.823,189.795 359.836,191.65 359.297,191.588 360.046,189.704 	"/>
	<path clip-path="url(#SVGID_2_)" d="M308.053,196.038v3.033h-0.848v-0.393c-0.273,0.344-0.574,0.49-0.994,0.49
		c-0.854,0-1.492-0.693-1.492-1.617c0-0.911,0.646-1.611,1.479-1.611c0.412,0,0.714,0.147,1.008,0.49v-0.392H308.053z
		 M305.594,197.551c0,0.476,0.386,0.854,0.854,0.854c0.463,0,0.848-0.385,0.848-0.84c0-0.484-0.371-0.862-0.848-0.862
		C305.973,196.703,305.594,197.081,305.594,197.551"/>
	<rect x="308.862" y="193.825" clip-path="url(#SVGID_2_)" width="0.848" height="5.246"/>
	<path clip-path="url(#SVGID_2_)" d="M311.229,197.691c0.021,0.525,0.28,0.813,0.743,0.813c0.321,0,0.524-0.12,0.721-0.407
		l0.784,0.126c-0.259,0.623-0.77,0.946-1.484,0.946c-0.987,0-1.632-0.637-1.632-1.611c0-0.98,0.623-1.618,1.59-1.618
		s1.556,0.623,1.556,1.639v0.112H311.229z M312.692,197.152c-0.091-0.393-0.343-0.603-0.721-0.603c-0.379,0-0.638,0.225-0.715,0.603
		H312.692z"/>
	<path clip-path="url(#SVGID_2_)" d="M316.745,196.43c0.301-0.343,0.603-0.49,1.009-0.49c0.84,0,1.478,0.7,1.478,1.604
		c0,0.931-0.638,1.624-1.492,1.624c-0.42,0-0.714-0.146-0.994-0.49v0.393h-0.848v-5.247h0.848V196.43z M316.654,197.551
		c0,0.476,0.385,0.854,0.854,0.854c0.463,0,0.848-0.385,0.848-0.84c0-0.484-0.378-0.862-0.854-0.862
		C317.032,196.703,316.654,197.081,316.654,197.551"/>
	<path clip-path="url(#SVGID_2_)" d="M320.588,197.691c0.021,0.525,0.28,0.813,0.743,0.813c0.321,0,0.524-0.12,0.721-0.407
		l0.784,0.126c-0.259,0.623-0.77,0.946-1.484,0.946c-0.987,0-1.632-0.637-1.632-1.611c0-0.98,0.623-1.618,1.59-1.618
		s1.556,0.623,1.556,1.639v0.112H320.588z M322.052,197.152c-0.091-0.393-0.343-0.603-0.721-0.603c-0.379,0-0.638,0.225-0.715,0.603
		H322.052z"/>
	<polygon clip-path="url(#SVGID_2_)" points="326.161,198.335 326.161,199.07 323.059,199.07 324.782,196.759 323.325,196.759 
		323.325,196.023 326.273,196.023 324.557,198.335 	"/>
	<path clip-path="url(#SVGID_2_)" d="M330.179,196.746c-0.183-0.14-0.337-0.203-0.505-0.203c-0.188,0-0.329,0.112-0.329,0.259
		c0,0.14,0.091,0.203,0.483,0.337c0.344,0.118,0.448,0.168,0.589,0.272c0.224,0.154,0.336,0.386,0.336,0.673
		c0,0.637-0.525,1.085-1.274,1.085c-0.441,0-0.854-0.182-1.149-0.504l0.441-0.519c0.245,0.246,0.47,0.358,0.722,0.358
		c0.217,0,0.385-0.148,0.385-0.336c0-0.175-0.084-0.238-0.469-0.378c-0.378-0.141-0.448-0.169-0.581-0.267
		c-0.203-0.139-0.302-0.35-0.302-0.63c0-0.567,0.448-0.966,1.086-0.966c0.378,0,0.693,0.104,0.987,0.322L330.179,196.746z"/>
	<polygon clip-path="url(#SVGID_2_)" points="330.954,196.039 331.941,196.039 332.853,197.762 333.714,196.039 334.688,196.039 
		332.236,200.688 331.276,200.688 332.39,198.608 	"/>
	<path clip-path="url(#SVGID_2_)" d="M336.64,196.746c-0.183-0.14-0.337-0.203-0.505-0.203c-0.188,0-0.329,0.112-0.329,0.259
		c0,0.14,0.091,0.203,0.483,0.337c0.344,0.118,0.448,0.168,0.589,0.272c0.224,0.154,0.336,0.386,0.336,0.673
		c0,0.637-0.525,1.085-1.274,1.085c-0.441,0-0.854-0.182-1.149-0.504l0.441-0.519c0.245,0.246,0.47,0.358,0.721,0.358
		c0.218,0,0.386-0.148,0.386-0.336c0-0.175-0.084-0.238-0.47-0.378c-0.377-0.141-0.447-0.169-0.581-0.267
		c-0.202-0.139-0.301-0.35-0.301-0.63c0-0.567,0.448-0.966,1.086-0.966c0.378,0,0.693,0.104,0.987,0.322L336.64,196.746z"/>
	<polygon clip-path="url(#SVGID_2_)" points="338.669,199.071 337.821,199.071 337.821,196.774 337.485,196.774 337.485,196.039 
		337.821,196.039 337.821,195.002 338.669,195.002 338.669,196.039 339.271,196.039 339.271,196.774 338.669,196.774 	"/>
	<path clip-path="url(#SVGID_2_)" d="M340.411,197.691c0.021,0.525,0.28,0.813,0.743,0.813c0.321,0,0.524-0.12,0.721-0.407
		l0.785,0.126c-0.26,0.623-0.771,0.946-1.485,0.946c-0.987,0-1.632-0.637-1.632-1.611c0-0.98,0.623-1.618,1.59-1.618
		s1.555,0.623,1.555,1.639v0.112H340.411z M341.875,197.152c-0.091-0.393-0.343-0.603-0.721-0.603c-0.379,0-0.638,0.225-0.715,0.603
		H341.875z"/>
	<path clip-path="url(#SVGID_2_)" d="M344.178,196.039v0.35c0.28-0.323,0.553-0.449,0.924-0.449c0.421,0,0.715,0.168,0.946,0.554
		c0.237-0.371,0.567-0.554,0.994-0.554c0.364,0,0.687,0.168,0.848,0.435c0.112,0.182,0.161,0.399,0.161,0.735v1.961h-0.848v-1.66
		c0-0.245-0.014-0.357-0.07-0.483c-0.077-0.168-0.23-0.266-0.427-0.266c-0.218,0-0.406,0.112-0.497,0.301
		c-0.063,0.134-0.092,0.287-0.092,0.554v1.554h-0.847v-1.611c0-0.259-0.015-0.392-0.063-0.504c-0.07-0.175-0.259-0.294-0.455-0.294
		c-0.189,0-0.393,0.112-0.477,0.273c-0.07,0.126-0.098,0.288-0.098,0.582v1.554h-0.848v-3.032H344.178z"/>
	<path clip-path="url(#SVGID_2_)" d="M349.807,197.754c0,0.455,0.21,0.693,0.623,0.693c0.406,0,0.616-0.238,0.616-0.693v-1.716
		h0.848v1.856c0,0.819-0.525,1.274-1.464,1.274c-0.945,0-1.471-0.455-1.471-1.274v-1.856h0.848V197.754z"/>
	<path clip-path="url(#SVGID_2_)" fill="#FFFF00" d="M270.039,213.018h29.511c-0.587-14.853-6.812-28.253-16.606-38.115
		l-20.098,21.63C266.889,200.962,269.52,206.695,270.039,213.018"/>
	<path clip-path="url(#SVGID_2_)" fill="#FFFF00" d="M259.471,193.403l20.094-21.625c-9.49-8.142-21.661-13.23-35.014-13.76v29.512
		C250.153,187.991,255.292,190.112,259.471,193.403"/>
	<path clip-path="url(#SVGID_2_)" fill="#FFFF00" d="M242.25,243.211c-15.381,0-27.894-12.513-27.894-27.892
		c0-14.603,11.284-26.614,25.591-27.79v-29.51c-30.609,1.209-55.058,26.394-55.058,57.3c0,31.679,25.681,57.36,57.361,57.36
		c30.905,0,56.09-24.447,57.299-55.059h-29.511C268.863,231.928,256.854,243.211,242.25,243.211"/>
	<polygon clip-path="url(#SVGID_2_)" points="208.798,247.173 208.798,246.155 213.426,246.155 209.779,252.332 208.834,251.774 
		211.58,247.173 	"/>
	<path clip-path="url(#SVGID_2_)" d="M215.737,247.173l-0.233,0.937c0.207-0.028,0.306-0.037,0.44-0.037
		c1.171,0,2.044,0.891,2.044,2.088c0,1.27-0.963,2.153-2.35,2.153c-0.783,0-1.387-0.244-1.918-0.784l0.387-1.017
		c0.451,0.522,0.928,0.765,1.504,0.765c0.666,0,1.207-0.513,1.207-1.152c0-0.676-0.604-1.207-1.369-1.207
		c-0.414,0-0.783,0.126-1.152,0.388h-0.062l0.711-3.152h2.773v1.018H215.737z"/>
	<path clip-path="url(#SVGID_2_)" d="M221.911,247.498c0,0.828-0.647,1.43-1.539,1.43c-0.882,0-1.513-0.602-1.513-1.44
		c0-0.801,0.657-1.404,1.53-1.404C221.264,246.084,221.911,246.687,221.911,247.498 M219.606,247.498
		c0,0.44,0.352,0.792,0.783,0.792c0.422,0,0.774-0.352,0.774-0.784c0-0.422-0.353-0.774-0.783-0.774
		C219.958,246.732,219.606,247.084,219.606,247.498 M224.1,246.228l-3.574,6.185l-0.478-0.28l3.574-6.175L224.1,246.228z
		 M225.297,250.829c0,0.819-0.648,1.422-1.531,1.422c-0.882,0-1.512-0.603-1.512-1.441c0-0.792,0.656-1.395,1.529-1.395
		C224.648,249.415,225.297,250.018,225.297,250.829 M223,250.819c0,0.441,0.343,0.793,0.775,0.793c0.423,0,0.773-0.352,0.773-0.783
		c0-0.424-0.342-0.775-0.773-0.775C223.352,250.054,223,250.405,223,250.819"/>
	<polygon clip-path="url(#SVGID_2_)" points="275.998,196.766 275.994,195.748 278.029,195.741 278.053,201.746 276.883,201.75 
		276.863,196.763 	"/>
	<path clip-path="url(#SVGID_2_)" d="M284.857,199.723l0.004,0.935l-0.713,0.003l0.006,1.063l-1.09,0.004l-0.004-1.063l-2.936,0.011
		l-0.002-0.521l2.955-4.541l1.053-0.003l0.016,4.114L284.857,199.723z M283.049,197.343l-1.541,2.392l1.549-0.006L283.049,197.343z"
		/>
	<path clip-path="url(#SVGID_2_)" d="M288.348,197.044c0.004,0.828-0.643,1.433-1.535,1.437c-0.881,0.003-1.514-0.598-1.518-1.435
		c-0.002-0.801,0.652-1.407,1.525-1.411C287.693,195.633,288.344,196.233,288.348,197.044 M286.043,197.053
		c0.002,0.44,0.354,0.791,0.787,0.789c0.422-0.001,0.771-0.355,0.771-0.787c-0.002-0.422-0.355-0.772-0.787-0.771
		C286.391,196.286,286.041,196.639,286.043,197.053 M290.531,195.766l-3.551,6.199l-0.48-0.278l3.553-6.189L290.531,195.766z
		 M291.744,200.362c0.004,0.82-0.643,1.425-1.524,1.428c-0.882,0.004-1.515-0.596-1.519-1.434c-0.002-0.793,0.652-1.398,1.525-1.402
		C291.092,198.951,291.742,199.551,291.744,200.362 M289.449,200.362c0.002,0.441,0.346,0.791,0.777,0.789
		c0.422-0.001,0.773-0.353,0.771-0.785c-0.002-0.424-0.346-0.774-0.778-0.772C289.797,199.595,289.447,199.948,289.449,200.362"/>
	<polygon clip-path="url(#SVGID_2_)" points="251.124,172.925 251.124,171.907 253.158,171.907 253.158,177.912 251.988,177.912 
		251.988,172.925 	"/>
	<polygon clip-path="url(#SVGID_2_)" points="256.227,172.925 256.227,171.907 258.261,171.907 258.261,177.912 257.091,177.912 
		257.091,172.925 	"/>
	<path clip-path="url(#SVGID_2_)" d="M263.473,173.25c0,0.828-0.648,1.431-1.54,1.431c-0.882,0-1.512-0.603-1.512-1.44
		c0-0.801,0.657-1.404,1.53-1.404S263.473,172.439,263.473,173.25 M261.168,173.25c0,0.441,0.351,0.792,0.783,0.792
		c0.422,0,0.774-0.351,0.774-0.783c0-0.423-0.353-0.774-0.783-0.774C261.519,172.484,261.168,172.835,261.168,173.25 M265.66,171.98
		l-3.574,6.184l-0.478-0.279l3.574-6.175L265.66,171.98z M266.857,176.58c0,0.819-0.648,1.422-1.53,1.422
		c-0.883,0-1.513-0.603-1.513-1.44c0-0.792,0.657-1.395,1.53-1.395C266.209,175.167,266.857,175.771,266.857,176.58
		 M264.562,176.571c0,0.441,0.343,0.792,0.774,0.792c0.423,0,0.774-0.351,0.774-0.783c0-0.423-0.343-0.774-0.774-0.774
		C264.913,175.806,264.562,176.157,264.562,176.571"/>
	<path clip-path="url(#SVGID_2_)" fill="#231F20" d="M149.373,156.226c0.099-0.487,0.432-0.775,0.918-0.775s0.81,0.27,0.927,0.775
		H149.373z M152.262,156.917v-0.144c0-1.305-0.756-2.105-1.998-2.105c-1.242,0-2.043,0.818-2.043,2.078
		c0,1.252,0.828,2.07,2.097,2.07c0.918,0,1.575-0.414,1.908-1.214l-1.008-0.163c-0.252,0.37-0.513,0.523-0.927,0.523
		c-0.594,0-0.927-0.369-0.954-1.045H152.262z M147.476,154.902c-0.315-0.162-0.603-0.234-0.99-0.234
		c-1.215,0-2.141,0.908-2.141,2.096c0,1.162,0.926,2.052,2.132,2.052c0.36,0,0.648-0.063,0.999-0.243v-1.061
		c-0.297,0.234-0.549,0.324-0.882,0.324c-0.648,0-1.125-0.459-1.125-1.09c0-0.63,0.477-1.098,1.125-1.098
		c0.324,0,0.567,0.09,0.882,0.333V154.902z M143.46,155.063c-0.377-0.278-0.782-0.413-1.268-0.413c-0.819,0-1.395,0.512-1.395,1.241
		c0,0.36,0.126,0.63,0.387,0.81c0.171,0.127,0.26,0.163,0.746,0.343c0.496,0.18,0.604,0.261,0.604,0.486
		c0,0.243-0.216,0.432-0.496,0.432c-0.324,0-0.612-0.144-0.926-0.459l-0.567,0.666c0.378,0.413,0.908,0.647,1.475,0.647
		c0.964,0,1.638-0.575,1.638-1.394c0-0.369-0.144-0.667-0.432-0.865c-0.179-0.135-0.314-0.198-0.755-0.351
		c-0.505-0.171-0.622-0.252-0.622-0.432c0-0.189,0.18-0.333,0.424-0.333c0.216,0,0.414,0.081,0.648,0.261L143.46,155.063z
		 M139.679,151.951h-1.088v6.74h1.088V151.951z M135.408,155.648c0.613,0,1.108,0.486,1.108,1.098c0,0.604-0.495,1.09-1.099,1.09
		c-0.621,0-1.107-0.486-1.107-1.108C134.31,156.144,134.814,155.648,135.408,155.648 M135.426,154.668
		c-1.305,0-2.24,0.854-2.24,2.042c0,1.252,0.899,2.106,2.204,2.106c1.333,0,2.25-0.845,2.25-2.079
		C137.64,155.514,136.732,154.668,135.426,154.668 M129.933,155.452v-1.747h0.406c0.432,0,0.684,0.054,0.864,0.189
		c0.189,0.144,0.306,0.405,0.306,0.693c0,0.577-0.369,0.865-1.098,0.865H129.933z M129.933,156.467h0.757
		c0.711,0,1.197-0.171,1.539-0.531c0.305-0.332,0.485-0.818,0.485-1.341c0-0.576-0.225-1.098-0.611-1.449
		c-0.378-0.332-0.801-0.458-1.584-0.458h-1.755v6.002h1.169V156.467z M119.926,154.793h-1.224l1.998,3.978h0.504l1.035-2.367
		l1.053,2.367h0.495l2.016-3.978h-1.215l-1.044,2.287l-1.062-2.394h-0.468l-1.062,2.358L119.926,154.793z M113.238,154.794h-1.087
		v2.385c0,1.053,0.674,1.637,1.889,1.637c1.206,0,1.88-0.584,1.88-1.637v-2.385h-1.087V157c0,0.585-0.271,0.891-0.793,0.891
		c-0.531,0-0.802-0.306-0.802-0.891V154.794z M108.958,155.648c0.603,0,1.089,0.486,1.089,1.107c0,0.586-0.495,1.081-1.089,1.081
		c-0.604,0-1.099-0.486-1.099-1.099C107.859,156.134,108.345,155.648,108.958,155.648 M111,154.794h-1.088v0.503
		c-0.369-0.449-0.729-0.629-1.269-0.629c-1.098,0-1.908,0.899-1.908,2.123c0,1.18,0.783,2.025,1.854,2.025
		c0.549,0,0.918-0.18,1.323-0.647v0.584c0,0.369-0.09,0.649-0.243,0.811c-0.18,0.18-0.45,0.288-0.729,0.288
		c-0.495,0-0.811-0.243-0.919-0.703h-1.187c0.036,0.316,0.108,0.505,0.297,0.775c0.405,0.575,0.998,0.854,1.791,0.854
		c0.684,0,1.26-0.234,1.638-0.683c0.341-0.387,0.44-0.748,0.44-1.549V154.794z M102.041,154.794v3.896h1.088v-2.016
		c0-0.738,0.27-1.08,0.828-1.08c0.289,0,0.532,0.117,0.64,0.306c0.081,0.135,0.108,0.306,0.108,0.63v2.16h1.088v-2.475
		c0-0.531-0.081-0.819-0.306-1.08c-0.261-0.296-0.674-0.467-1.133-0.467c-0.532,0-0.883,0.171-1.225,0.611v-0.485H102.041z
		 M100.355,152.491c-0.36,0-0.657,0.297-0.657,0.646c0,0.369,0.288,0.666,0.657,0.666c0.36,0,0.656-0.297,0.656-0.657
		C101.011,152.778,100.724,152.491,100.355,152.491 M100.894,154.794h-1.088v3.896h1.088V154.794z M96.432,154.794v3.896h1.087
		v-1.872c0-0.441,0.063-0.684,0.243-0.891c0.162-0.18,0.396-0.279,0.693-0.279c0.216,0,0.324,0.027,0.522,0.135l0.153-1.016
		c-0.198-0.081-0.306-0.099-0.477-0.099c-0.495,0-0.855,0.225-1.134,0.719v-0.593H96.432z M93.258,155.648
		c0.612,0,1.107,0.486,1.107,1.098c0,0.604-0.495,1.09-1.098,1.09c-0.622,0-1.108-0.486-1.108-1.108
		C92.159,156.144,92.663,155.648,93.258,155.648 M93.276,154.668c-1.306,0-2.241,0.854-2.241,2.042c0,1.252,0.899,2.106,2.205,2.106
		c1.332,0,2.249-0.845,2.249-2.079C95.489,155.514,94.581,154.668,93.276,154.668 M89.77,155.738h0.774v-0.944H89.77v-1.332h-1.088
		v1.332H88.25v0.944h0.432v2.952h1.088V155.738z M86.923,152.491c-0.36,0-0.657,0.297-0.657,0.646c0,0.369,0.288,0.666,0.657,0.666
		c0.359,0,0.656-0.297,0.656-0.657C87.579,152.778,87.291,152.491,86.923,152.491 M87.462,154.794h-1.088v3.896h1.088V154.794z
		 M81.482,154.794v3.896h1.088v-2.016c0-0.738,0.27-1.08,0.829-1.08c0.288,0,0.531,0.117,0.639,0.306
		c0.081,0.135,0.108,0.306,0.108,0.63v2.16h1.088v-2.475c0-0.531-0.081-0.819-0.306-1.08c-0.26-0.296-0.674-0.467-1.133-0.467
		c-0.532,0-0.883,0.171-1.225,0.611v-0.485H81.482z M78.308,155.648c0.613,0,1.108,0.486,1.108,1.098c0,0.604-0.495,1.09-1.099,1.09
		c-0.621,0-1.107-0.486-1.107-1.108C77.21,156.144,77.714,155.648,78.308,155.648 M78.326,154.668c-1.305,0-2.24,0.854-2.24,2.042
		c0,1.252,0.899,2.106,2.204,2.106c1.333,0,2.25-0.845,2.25-2.079C80.54,155.514,79.632,154.668,78.326,154.668 M69.083,154.794
		v3.896h1.088v-1.998c0-0.378,0.036-0.585,0.126-0.747c0.108-0.207,0.369-0.351,0.612-0.351c0.253,0,0.496,0.153,0.586,0.378
		c0.063,0.144,0.081,0.315,0.081,0.648v2.07h1.088v-1.998c0-0.342,0.036-0.54,0.117-0.711c0.117-0.243,0.36-0.387,0.639-0.387
		c0.253,0,0.451,0.126,0.55,0.342c0.072,0.162,0.09,0.306,0.09,0.621v2.133h1.088v-2.52c0-0.432-0.063-0.711-0.207-0.945
		c-0.207-0.341-0.62-0.557-1.088-0.557c-0.55,0-0.973,0.234-1.279,0.71c-0.297-0.494-0.674-0.71-1.214-0.71
		c-0.478,0-0.829,0.162-1.189,0.575v-0.449H69.083z"/>
	<path clip-path="url(#SVGID_2_)" fill="#231F20" d="M188.354,144.848c0.612,0,1.107,0.487,1.107,1.099
		c0,0.603-0.495,1.09-1.098,1.09c-0.622,0-1.108-0.487-1.108-1.108C187.254,145.344,187.759,144.848,188.354,144.848
		 M188.372,143.869c-1.306,0-2.241,0.854-2.241,2.042c0,1.251,0.899,2.105,2.205,2.105c1.332,0,2.249-0.845,2.249-2.078
		C190.584,144.714,189.677,143.869,188.372,143.869 M183.146,144.848c0.604,0,1.09,0.487,1.09,1.108c0,0.585-0.495,1.081-1.09,1.081
		c-0.603,0-1.098-0.487-1.098-1.099C182.048,145.335,182.534,144.848,183.146,144.848 M185.188,143.994h-1.088v0.504
		c-0.369-0.45-0.73-0.629-1.27-0.629c-1.098,0-1.907,0.898-1.907,2.123c0,1.179,0.782,2.024,1.853,2.024
		c0.549,0,0.919-0.179,1.324-0.647v0.584c0,0.37-0.09,0.649-0.243,0.811c-0.18,0.18-0.451,0.289-0.73,0.289
		c-0.495,0-0.81-0.244-0.918-0.703h-1.187c0.036,0.315,0.108,0.504,0.296,0.774c0.405,0.576,0.999,0.854,1.791,0.854
		c0.685,0,1.261-0.233,1.638-0.683c0.342-0.387,0.441-0.747,0.441-1.548V143.994z M177.286,145.426
		c0.099-0.487,0.432-0.776,0.918-0.776s0.81,0.271,0.927,0.776H177.286z M180.175,146.117v-0.143c0-1.306-0.756-2.105-1.998-2.105
		c-1.242,0-2.043,0.817-2.043,2.078c0,1.251,0.828,2.069,2.097,2.069c0.918,0,1.575-0.413,1.908-1.214l-1.008-0.162
		c-0.252,0.369-0.513,0.523-0.927,0.523c-0.594,0-0.927-0.37-0.954-1.046H180.175z M174.676,141.691
		c-0.36,0-0.657,0.296-0.657,0.647c0,0.369,0.288,0.665,0.657,0.665c0.359,0,0.656-0.296,0.656-0.656
		C175.332,141.978,175.043,141.691,174.676,141.691 M175.215,143.995h-1.088v3.896h1.088V143.995z M170.396,141.151h-1.087v6.739
		h1.087v-1.556l0.117-0.117l1.458,1.673h1.503l-1.971-2.186l1.827-1.709h-1.476l-1.458,1.421V141.151z M168.22,144.264
		c-0.378-0.279-0.783-0.413-1.269-0.413c-0.819,0-1.394,0.512-1.394,1.241c0,0.36,0.125,0.63,0.386,0.81
		c0.171,0.126,0.261,0.162,0.747,0.342c0.495,0.18,0.604,0.261,0.604,0.486c0,0.243-0.217,0.433-0.496,0.433
		c-0.324,0-0.612-0.145-0.927-0.46l-0.566,0.666c0.377,0.414,0.908,0.647,1.475,0.647c0.963,0,1.637-0.575,1.637-1.394
		c0-0.369-0.143-0.666-0.431-0.864c-0.18-0.135-0.315-0.198-0.756-0.351c-0.504-0.171-0.622-0.252-0.622-0.432
		c0-0.19,0.181-0.334,0.424-0.334c0.216,0,0.414,0.081,0.648,0.262L168.22,144.264z M163.92,141.691
		c-0.36,0-0.657,0.296-0.657,0.647c0,0.369,0.297,0.665,0.657,0.665c0.359,0,0.656-0.296,0.656-0.656
		C164.577,141.978,164.289,141.691,163.92,141.691 M164.459,143.994h-1.088v5.976h1.088V143.994z M159.55,145.426
		c0.099-0.487,0.432-0.776,0.918-0.776c0.486,0,0.81,0.271,0.927,0.776H159.55z M162.438,146.117v-0.143
		c0-1.306-0.756-2.105-1.998-2.105c-1.242,0-2.043,0.817-2.043,2.078c0,1.251,0.828,2.069,2.097,2.069
		c0.918,0,1.575-0.413,1.908-1.214l-1.008-0.162c-0.252,0.369-0.513,0.523-0.927,0.523c-0.594,0-0.927-0.37-0.954-1.046H162.438z
		 M156.939,141.691c-0.36,0-0.657,0.296-0.657,0.647c0,0.369,0.288,0.665,0.657,0.665c0.359,0,0.656-0.296,0.656-0.656
		C157.596,141.978,157.308,141.691,156.939,141.691 M157.479,143.995h-1.088v3.896h1.088V143.995z M149.177,143.995v3.895h1.088
		v-1.997c0-0.378,0.036-0.585,0.126-0.747c0.108-0.208,0.369-0.352,0.612-0.352c0.253,0,0.496,0.153,0.586,0.379
		c0.063,0.144,0.081,0.315,0.081,0.648v2.069h1.088v-1.997c0-0.342,0.036-0.54,0.117-0.711c0.117-0.244,0.36-0.388,0.639-0.388
		c0.253,0,0.451,0.126,0.55,0.343c0.072,0.162,0.09,0.306,0.09,0.621v2.132h1.088v-2.519c0-0.433-0.063-0.711-0.207-0.945
		c-0.207-0.342-0.62-0.557-1.088-0.557c-0.55,0-0.973,0.233-1.279,0.71c-0.297-0.495-0.674-0.71-1.214-0.71
		c-0.478,0-0.829,0.161-1.189,0.575v-0.449H149.177z M143.208,145.426c0.099-0.487,0.432-0.776,0.918-0.776
		c0.486,0,0.81,0.271,0.927,0.776H143.208z M146.098,146.117v-0.143c0-1.306-0.756-2.105-1.998-2.105s-2.043,0.817-2.043,2.078
		c0,1.251,0.828,2.069,2.097,2.069c0.918,0,1.575-0.413,1.908-1.214l-1.008-0.162c-0.252,0.369-0.513,0.523-0.927,0.523
		c-0.594,0-0.927-0.37-0.954-1.046H146.098z M140.6,141.691c-0.36,0-0.657,0.296-0.657,0.647c0,0.369,0.288,0.665,0.657,0.665
		c0.359,0,0.656-0.296,0.656-0.656C141.255,141.978,140.968,141.691,140.6,141.691 M141.139,143.995h-1.088v3.896h1.088V143.995z
		 M135.159,143.995v3.895h1.088v-2.015c0-0.738,0.27-1.081,0.828-1.081c0.289,0,0.532,0.117,0.64,0.307
		c0.081,0.135,0.108,0.306,0.108,0.63v2.159h1.088v-2.474c0-0.532-0.081-0.819-0.306-1.08c-0.261-0.297-0.674-0.467-1.133-0.467
		c-0.532,0-0.883,0.17-1.225,0.611v-0.485H135.159z M131.937,144.848c0.613,0,1.09,0.487,1.09,1.108c0,0.585-0.495,1.081-1.09,1.081
		c-0.603,0-1.098-0.487-1.098-1.099C130.838,145.335,131.325,144.848,131.937,144.848 M132.91,143.995v0.502
		c-0.378-0.44-0.766-0.628-1.297-0.628c-1.071,0-1.898,0.898-1.898,2.069c0,1.188,0.818,2.078,1.916,2.078
		c0.541,0,0.928-0.188,1.279-0.629v0.504h1.088v-3.896H132.91z M128.255,141.691c-0.359,0-0.656,0.296-0.656,0.647
		c0,0.369,0.288,0.665,0.656,0.665c0.36,0,0.657-0.296,0.657-0.656C128.913,141.978,128.625,141.691,128.255,141.691
		 M128.795,143.995h-1.088v3.896h1.088V143.995z M122.815,143.995v3.895h1.088v-2.015c0-0.738,0.27-1.081,0.828-1.081
		c0.288,0,0.532,0.117,0.64,0.307c0.081,0.135,0.108,0.306,0.108,0.63v2.159h1.088v-2.474c0-0.532-0.081-0.819-0.306-1.08
		c-0.261-0.297-0.674-0.467-1.134-0.467c-0.531,0-0.882,0.17-1.224,0.611v-0.485H122.815z M117.91,141.151v6.739h1.088v-1.997
		c0-0.747,0.27-1.099,0.828-1.099c0.289,0,0.532,0.126,0.64,0.316c0.081,0.135,0.108,0.315,0.108,0.648v2.132h1.088v-2.447
		c0-0.55-0.081-0.828-0.306-1.098c-0.261-0.306-0.674-0.476-1.133-0.476c-0.532,0-0.883,0.179-1.225,0.629v-3.347H117.91z
		 M116.887,144.102c-0.315-0.162-0.603-0.233-0.99-0.233c-1.214,0-2.141,0.907-2.141,2.096c0,1.161,0.927,2.051,2.132,2.051
		c0.36,0,0.648-0.063,0.999-0.242v-1.062c-0.297,0.234-0.549,0.325-0.882,0.325c-0.648,0-1.125-0.46-1.125-1.09
		s0.477-1.099,1.125-1.099c0.324,0,0.567,0.09,0.882,0.334V144.102z M110.136,145.426c0.099-0.487,0.432-0.776,0.918-0.776
		c0.486,0,0.81,0.271,0.927,0.776H110.136z M113.024,146.117v-0.143c0-1.306-0.756-2.105-1.998-2.105
		c-1.242,0-2.043,0.817-2.043,2.078c0,1.251,0.828,2.069,2.097,2.069c0.918,0,1.575-0.413,1.908-1.214l-1.008-0.162
		c-0.252,0.369-0.513,0.523-0.927,0.523c-0.594,0-0.927-0.37-0.954-1.046H113.024z M106.289,146.947l2.205-2.97h-3.789v0.943h1.872
		l-2.214,2.97h3.987v-0.943H106.289z M103.796,144.264c-0.377-0.279-0.782-0.413-1.268-0.413c-0.819,0-1.395,0.512-1.395,1.241
		c0,0.36,0.126,0.63,0.387,0.81c0.171,0.126,0.261,0.162,0.746,0.342c0.496,0.18,0.604,0.261,0.604,0.486
		c0,0.243-0.216,0.433-0.496,0.433c-0.324,0-0.611-0.145-0.926-0.46l-0.567,0.666c0.378,0.414,0.909,0.647,1.475,0.647
		c0.964,0,1.638-0.575,1.638-1.394c0-0.369-0.144-0.666-0.431-0.864c-0.18-0.135-0.315-0.198-0.756-0.351
		c-0.505-0.171-0.622-0.252-0.622-0.432c0-0.19,0.18-0.334,0.424-0.334c0.216,0,0.414,0.081,0.648,0.262L103.796,144.264z
		 M94.704,143.994h-1.224l1.998,3.977h0.504l1.035-2.366l1.053,2.366h0.495l2.016-3.977h-1.215l-1.044,2.286l-1.062-2.393h-0.468
		l-1.062,2.357L94.704,143.994z M90.968,144.848c0.613,0,1.108,0.487,1.108,1.099c0,0.603-0.495,1.09-1.099,1.09
		c-0.621,0-1.107-0.487-1.107-1.108C89.87,145.344,90.374,144.848,90.968,144.848 M90.985,143.869c-1.305,0-2.24,0.854-2.24,2.042
		c0,1.251,0.899,2.105,2.204,2.105c1.333,0,2.25-0.845,2.25-2.078C93.2,144.714,92.292,143.869,90.985,143.869 M85.787,144.848
		c0.612,0,1.099,0.487,1.099,1.108c0,0.585-0.496,1.081-1.09,1.081c-0.603,0-1.098-0.487-1.098-1.099
		C84.698,145.335,85.184,144.848,85.787,144.848 M84.814,149.969v-2.582c0.387,0.441,0.774,0.629,1.296,0.629
		c1.071,0,1.899-0.899,1.899-2.069c0-1.188-0.819-2.078-1.917-2.078c-0.54,0-0.927,0.188-1.278,0.629v-0.504h-1.088v5.975H84.814z
		 M80.781,146.947l2.205-2.97h-3.789v0.943h1.872l-2.214,2.97h3.987v-0.943H80.781z M76.243,144.848
		c0.612,0,1.107,0.487,1.107,1.099c0,0.603-0.495,1.09-1.098,1.09c-0.621,0-1.108-0.487-1.108-1.108
		C75.144,145.344,75.648,144.848,76.243,144.848 M76.261,143.869c-1.305,0-2.241,0.854-2.241,2.042c0,1.251,0.9,2.105,2.205,2.105
		c1.332,0,2.249-0.845,2.249-2.078C78.474,144.714,77.565,143.869,76.261,143.869 M70.422,144.651v-1.819h0.36
		c0.739,0,1.126,0.306,1.126,0.901c0,0.594-0.405,0.918-1.144,0.918H70.422z M71.747,145.362c0.378-0.072,0.594-0.18,0.827-0.378
		c0.333-0.288,0.54-0.783,0.54-1.323c0-0.532-0.225-1.044-0.593-1.35c-0.333-0.279-0.864-0.422-1.531-0.422h-1.736v6.001h1.169
		v-2.411h0.153l1.621,2.411h1.439L71.747,145.362z"/>
	<path clip-path="url(#SVGID_2_)" d="M160.329,164.113H64.331v-26.297h131.006v15.667h-35.02L160.329,164.113z M65.331,163.113
		h93.997l-0.012-10.63h35.021v-13.667H65.331V163.113z"/>
	<polygon clip-path="url(#SVGID_2_)" fill="#231F20" points="154.074,153.347 153.048,152.817 152.787,153.608 153.93,153.788 
		153.102,154.598 153.777,155.083 154.299,154.049 154.821,155.083 155.487,154.589 154.668,153.779 155.811,153.608 
		155.55,152.817 154.524,153.347 154.713,152.205 153.885,152.205 	"/>
</g>
</svg>
