<?xml version="1.0" encoding="utf-8"?>
<!-- Generator: Adobe Illustrator 13.0.2, SVG Export Plug-In . SVG Version: 6.00 Build 14948)  -->
<!DOCTYPE svg PUBLIC "-//W3C//DTD SVG 1.1//EN" "http://www.w3.org/Graphics/SVG/1.1/DTD/svg11.dtd" [
	<!ENTITY ns_flows "http://ns.adobe.com/Flows/1.0/">
	<!ENTITY ns_extend "http://ns.adobe.com/Extensibility/1.0/">
	<!ENTITY ns_ai "http://ns.adobe.com/AdobeIllustrator/10.0/">
	<!ENTITY ns_graphs "http://ns.adobe.com/Graphs/1.0/">
]>
<svg version="1.1" id="Layer_1" xmlns:x="&ns_extend;" xmlns:i="&ns_ai;" xmlns:graph="&ns_graphs;"
	 xmlns="http://www.w3.org/2000/svg" xmlns:xlink="http://www.w3.org/1999/xlink" xmlns:a="http://ns.adobe.com/AdobeSVGViewerExtensions/3.0/"
	 x="0px" y="0px" width="347px" height="150px" viewBox="61 134.5 347 150" enable-background="new 61 134.5 347 150"
	 xml:space="preserve">
<g>
	<g>
		<defs>
			<rect id="SVGID_1_" width="419.527" height="595.276"/>
		</defs>
		<clipPath id="SVGID_2_">
			<use xlink:href="#SVGID_1_"  overflow="visible"/>
		</clipPath>
		<path clip-path="url(#SVGID_2_)" d="M116.888,251.294v0.351c0.28-0.324,0.553-0.451,0.924-0.451c0.421,0,0.715,0.168,0.946,0.555
			c0.238-0.37,0.568-0.555,0.994-0.555c0.365,0,0.687,0.168,0.848,0.437c0.112,0.183,0.161,0.397,0.161,0.734v1.961h-0.848v-1.66
			c0-0.244-0.013-0.356-0.07-0.481c-0.077-0.168-0.23-0.268-0.427-0.268c-0.217,0-0.406,0.111-0.497,0.302
			c-0.063,0.134-0.092,0.287-0.092,0.554v1.554h-0.846v-1.61c0-0.26-0.015-0.393-0.064-0.504c-0.07-0.176-0.258-0.295-0.455-0.295
			c-0.189,0-0.392,0.111-0.476,0.273c-0.071,0.125-0.098,0.289-0.098,0.582v1.554h-0.848v-3.031H116.888z"/>
	</g>
	<g>
		<defs>
			<rect id="SVGID_3_" width="419.527" height="595.276"/>
		</defs>
		<clipPath id="SVGID_4_">
			<use xlink:href="#SVGID_3_"  overflow="visible"/>
		</clipPath>
		<path clip-path="url(#SVGID_4_)" d="M122.285,252.799c0,0.484,0.378,0.862,0.862,0.862c0.468,0,0.854-0.378,0.854-0.847
			c0-0.479-0.386-0.856-0.862-0.856C122.676,251.958,122.285,252.343,122.285,252.799 M124.875,252.807
			c0,0.959-0.714,1.616-1.751,1.616c-1.016,0-1.716-0.665-1.716-1.637c0-0.925,0.729-1.59,1.744-1.59
			C124.168,251.195,124.875,251.854,124.875,252.807"/>
	</g>
	<g>
		<defs>
			<rect id="SVGID_5_" width="419.527" height="595.276"/>
		</defs>
		<clipPath id="SVGID_6_">
			<use xlink:href="#SVGID_5_"  overflow="visible"/>
		</clipPath>
		<path clip-path="url(#SVGID_6_)" d="M126.373,251.294v0.378c0.266-0.345,0.539-0.479,0.952-0.479c0.358,0,0.68,0.134,0.883,0.367
			c0.175,0.203,0.238,0.426,0.238,0.838v1.927h-0.847v-1.679c0-0.252-0.022-0.387-0.084-0.492c-0.084-0.146-0.274-0.238-0.497-0.238
			c-0.435,0-0.645,0.268-0.645,0.842v1.567h-0.848v-3.031H126.373z"/>
	</g>
	<g>
		<defs>
			<rect id="SVGID_7_" width="419.527" height="595.276"/>
		</defs>
		<clipPath id="SVGID_8_">
			<use xlink:href="#SVGID_7_"  overflow="visible"/>
		</clipPath>
		<path clip-path="url(#SVGID_8_)" d="M130.088,254.325h-0.847v-3.032h0.847V254.325z M130.18,250.011
			c0,0.28-0.231,0.513-0.512,0.513c-0.287,0-0.51-0.232-0.51-0.52c0-0.271,0.23-0.504,0.51-0.504
			C129.955,249.5,130.18,249.725,130.18,250.011"/>
	</g>
	<g>
		<defs>
			<rect id="SVGID_9_" width="419.527" height="595.276"/>
		</defs>
		<clipPath id="SVGID_10_">
			<use xlink:href="#SVGID_9_"  overflow="visible"/>
		</clipPath>
		<polygon clip-path="url(#SVGID_10_)" points="131.741,254.327 130.893,254.327 130.893,252.029 130.557,252.029 130.557,251.294 
			130.893,251.294 130.893,250.258 131.741,250.258 131.741,251.294 132.344,251.294 132.344,252.029 131.741,252.029 		"/>
	</g>
	<g>
		<defs>
			<rect id="SVGID_11_" width="419.527" height="595.276"/>
		</defs>
		<clipPath id="SVGID_12_">
			<use xlink:href="#SVGID_11_"  overflow="visible"/>
		</clipPath>
		<path clip-path="url(#SVGID_12_)" d="M133.498,252.799c0,0.484,0.378,0.862,0.862,0.862c0.468,0,0.854-0.378,0.854-0.847
			c0-0.479-0.386-0.856-0.862-0.856C133.889,251.958,133.498,252.343,133.498,252.799 M136.088,252.807
			c0,0.959-0.714,1.616-1.751,1.616c-1.016,0-1.716-0.665-1.716-1.637c0-0.925,0.729-1.59,1.744-1.59
			C135.381,251.195,136.088,251.854,136.088,252.807"/>
	</g>
	<g>
		<defs>
			<rect id="SVGID_13_" width="419.527" height="595.276"/>
		</defs>
		<clipPath id="SVGID_14_">
			<use xlink:href="#SVGID_13_"  overflow="visible"/>
		</clipPath>
		<path clip-path="url(#SVGID_14_)" d="M137.586,251.294v0.462c0.217-0.387,0.497-0.562,0.882-0.562c0.134,0,0.218,0.017,0.372,0.08
			l-0.119,0.791c-0.155-0.084-0.239-0.105-0.406-0.105c-0.232,0-0.415,0.076-0.541,0.217c-0.139,0.161-0.188,0.35-0.188,0.692v1.457
			h-0.848v-3.031H137.586z"/>
	</g>
	<g>
		<defs>
			<rect id="SVGID_15_" width="419.527" height="595.276"/>
		</defs>
		<clipPath id="SVGID_16_">
			<use xlink:href="#SVGID_15_"  overflow="visible"/>
		</clipPath>
		<path clip-path="url(#SVGID_16_)" d="M140.125,254.325h-0.847v-3.032h0.847V254.325z M140.217,250.011
			c0,0.28-0.231,0.513-0.512,0.513c-0.287,0-0.51-0.232-0.51-0.52c0-0.271,0.23-0.504,0.51-0.504
			C139.992,249.5,140.217,249.725,140.217,250.011"/>
	</g>
	<g>
		<defs>
			<rect id="SVGID_17_" width="419.527" height="595.276"/>
		</defs>
		<clipPath id="SVGID_18_">
			<use xlink:href="#SVGID_17_"  overflow="visible"/>
		</clipPath>
		<path clip-path="url(#SVGID_18_)" d="M141.771,251.294v0.378c0.266-0.345,0.539-0.479,0.952-0.479c0.358,0,0.68,0.134,0.883,0.367
			c0.175,0.203,0.238,0.426,0.238,0.838v1.927h-0.847v-1.679c0-0.252-0.022-0.387-0.084-0.492c-0.084-0.146-0.274-0.238-0.497-0.238
			c-0.435,0-0.645,0.268-0.645,0.842v1.567h-0.848v-3.031H141.771z"/>
	</g>
	<g>
		<defs>
			<rect id="SVGID_19_" width="419.527" height="595.276"/>
		</defs>
		<clipPath id="SVGID_20_">
			<use xlink:href="#SVGID_19_"  overflow="visible"/>
		</clipPath>
		<path clip-path="url(#SVGID_20_)" d="M145.377,252.807c0,0.475,0.384,0.854,0.853,0.854c0.463,0,0.848-0.384,0.848-0.841
			c0-0.483-0.378-0.861-0.848-0.861C145.755,251.958,145.377,252.336,145.377,252.807 M147.82,254.214
			c0,0.623-0.076,0.902-0.343,1.204c-0.294,0.352-0.742,0.532-1.274,0.532c-0.616,0-1.079-0.216-1.394-0.665
			c-0.147-0.211-0.203-0.355-0.231-0.602h0.925c0.084,0.356,0.329,0.547,0.713,0.547c0.217,0,0.428-0.084,0.568-0.225
			c0.119-0.127,0.189-0.345,0.189-0.632v-0.455c-0.315,0.364-0.602,0.505-1.03,0.505c-0.833,0-1.442-0.658-1.442-1.574
			c0-0.953,0.63-1.656,1.484-1.656c0.421,0,0.701,0.142,0.988,0.492v-0.393h0.847V254.214L147.82,254.214z"/>
	</g>
	<g>
		<defs>
			<rect id="SVGID_21_" width="419.527" height="595.276"/>
		</defs>
		<clipPath id="SVGID_22_">
			<use xlink:href="#SVGID_21_"  overflow="visible"/>
		</clipPath>
		<path clip-path="url(#SVGID_22_)" d="M151.229,251.294v0.351c0.28-0.324,0.553-0.451,0.924-0.451c0.421,0,0.715,0.168,0.946,0.555
			c0.237-0.37,0.568-0.555,0.994-0.555c0.365,0,0.687,0.168,0.848,0.437c0.112,0.183,0.161,0.397,0.161,0.734v1.961h-0.848v-1.66
			c0-0.244-0.013-0.356-0.07-0.481c-0.077-0.168-0.23-0.268-0.427-0.268c-0.217,0-0.406,0.111-0.497,0.302
			c-0.063,0.134-0.092,0.287-0.092,0.554v1.554h-0.846v-1.61c0-0.26-0.015-0.393-0.064-0.504c-0.07-0.176-0.258-0.295-0.455-0.295
			c-0.189,0-0.392,0.111-0.476,0.273c-0.071,0.125-0.098,0.289-0.098,0.582v1.554h-0.848v-3.031H151.229z"/>
	</g>
	<g>
		<defs>
			<rect id="SVGID_23_" width="419.527" height="595.276"/>
		</defs>
		<clipPath id="SVGID_24_">
			<use xlink:href="#SVGID_23_"  overflow="visible"/>
		</clipPath>
		<path clip-path="url(#SVGID_24_)" d="M156.744,254.325h-0.847v-3.032h0.847V254.325z M156.836,250.011
			c0,0.28-0.231,0.513-0.512,0.513c-0.287,0-0.51-0.232-0.51-0.52c0-0.271,0.23-0.504,0.51-0.504
			C156.611,249.5,156.836,249.725,156.836,250.011"/>
	</g>
	<g>
		<defs>
			<rect id="SVGID_25_" width="419.527" height="595.276"/>
		</defs>
		<clipPath id="SVGID_26_">
			<use xlink:href="#SVGID_25_"  overflow="visible"/>
		</clipPath>
		<path clip-path="url(#SVGID_26_)" d="M159.713,252.408c-0.091-0.395-0.343-0.604-0.721-0.604c-0.379,0-0.638,0.225-0.715,0.604
			H159.713z M158.249,252.945c0.021,0.525,0.28,0.813,0.743,0.813c0.321,0,0.525-0.12,0.721-0.407l0.785,0.127
			c-0.26,0.623-0.77,0.946-1.485,0.946c-0.988,0-1.632-0.637-1.632-1.612c0-0.979,0.623-1.617,1.59-1.617
			c0.966,0,1.554,0.623,1.554,1.64v0.111L158.249,252.945L158.249,252.945z"/>
	</g>
	<g>
		<defs>
			<rect id="SVGID_27_" width="419.527" height="595.276"/>
		</defs>
		<clipPath id="SVGID_28_">
			<use xlink:href="#SVGID_27_"  overflow="visible"/>
		</clipPath>
		<path clip-path="url(#SVGID_28_)" d="M162.015,255.945h-0.847v-4.65h0.847V255.945z M162.106,250.011
			c0,0.28-0.231,0.513-0.512,0.513c-0.28,0-0.51-0.232-0.51-0.52c0-0.271,0.23-0.504,0.51-0.504
			C161.881,249.5,162.106,249.725,162.106,250.011"/>
	</g>
	<g>
		<defs>
			<rect id="SVGID_29_" width="419.527" height="595.276"/>
		</defs>
		<clipPath id="SVGID_30_">
			<use xlink:href="#SVGID_29_"  overflow="visible"/>
		</clipPath>
		<path clip-path="url(#SVGID_30_)" d="M164.472,252c-0.183-0.141-0.337-0.202-0.505-0.202c-0.188,0-0.329,0.111-0.329,0.259
			c0,0.14,0.091,0.203,0.483,0.338c0.344,0.117,0.449,0.168,0.589,0.271c0.224,0.153,0.336,0.387,0.336,0.674
			c0,0.638-0.525,1.085-1.274,1.085c-0.442,0-0.855-0.183-1.15-0.504l0.442-0.52c0.245,0.246,0.47,0.358,0.721,0.358
			c0.217,0,0.385-0.149,0.385-0.336c0-0.176-0.084-0.237-0.469-0.378c-0.377-0.143-0.448-0.17-0.581-0.268
			c-0.203-0.139-0.301-0.35-0.301-0.631c0-0.566,0.448-0.965,1.086-0.965c0.378,0,0.693,0.104,0.987,0.322L164.472,252z"/>
	</g>
	<g>
		<defs>
			<rect id="SVGID_31_" width="419.527" height="595.276"/>
		</defs>
		<clipPath id="SVGID_32_">
			<use xlink:href="#SVGID_31_"  overflow="visible"/>
		</clipPath>
		<polygon clip-path="url(#SVGID_32_)" points="166.523,252.4 167.658,251.295 168.807,251.295 167.384,252.625 168.919,254.327 
			167.75,254.327 166.614,253.023 166.523,253.115 166.523,254.327 165.675,254.327 165.675,249.081 166.523,249.081 		"/>
	</g>
	<g>
		<defs>
			<rect id="SVGID_33_" width="419.527" height="595.276"/>
		</defs>
		<clipPath id="SVGID_34_">
			<use xlink:href="#SVGID_33_"  overflow="visible"/>
		</clipPath>
		<path clip-path="url(#SVGID_34_)" d="M170.17,254.325h-0.847v-3.032h0.847V254.325z M170.262,250.011
			c0,0.28-0.231,0.513-0.512,0.513c-0.287,0-0.51-0.232-0.51-0.52c0-0.271,0.23-0.504,0.51-0.504
			C170.037,249.5,170.262,249.725,170.262,250.011"/>
	</g>
	<g>
		<defs>
			<rect id="SVGID_35_" width="419.527" height="595.276"/>
		</defs>
		<clipPath id="SVGID_36_">
			<use xlink:href="#SVGID_35_"  overflow="visible"/>
		</clipPath>
		<polygon clip-path="url(#SVGID_36_)" points="172.129,253.452 171.143,255.307 170.604,255.245 171.353,253.359 		"/>
	</g>
	<g>
		<defs>
			<rect id="SVGID_37_" width="419.527" height="595.276"/>
		</defs>
		<clipPath id="SVGID_38_">
			<use xlink:href="#SVGID_37_"  overflow="visible"/>
		</clipPath>
		<path clip-path="url(#SVGID_38_)" d="M116.797,261.206c0,0.478,0.385,0.856,0.853,0.856c0.463,0,0.848-0.388,0.848-0.843
			c0-0.481-0.378-0.86-0.854-0.86C117.175,260.359,116.797,260.738,116.797,261.206 M116.04,264.344v-4.648h0.848v0.39
			c0.272-0.343,0.574-0.489,0.994-0.489c0.854,0,1.492,0.692,1.492,1.617c0,0.91-0.645,1.61-1.478,1.61
			c-0.406,0-0.708-0.146-1.008-0.49v2.011H116.04L116.04,264.344z"/>
	</g>
	<g>
		<defs>
			<rect id="SVGID_39_" width="419.527" height="595.276"/>
		</defs>
		<clipPath id="SVGID_40_">
			<use xlink:href="#SVGID_39_"  overflow="visible"/>
		</clipPath>
		<path clip-path="url(#SVGID_40_)" d="M120.87,259.695v0.462c0.217-0.388,0.497-0.562,0.882-0.562c0.134,0,0.218,0.016,0.372,0.078
			l-0.119,0.791c-0.155-0.084-0.239-0.105-0.406-0.105c-0.232,0-0.414,0.076-0.541,0.218c-0.139,0.161-0.188,0.349-0.188,0.692
			v1.457h-0.848v-3.031H120.87L120.87,259.695z"/>
	</g>
	<g>
		<defs>
			<rect id="SVGID_41_" width="419.527" height="595.276"/>
		</defs>
		<clipPath id="SVGID_42_">
			<use xlink:href="#SVGID_41_"  overflow="visible"/>
		</clipPath>
		<polygon clip-path="url(#SVGID_42_)" points="125.386,261.991 125.386,262.727 122.283,262.727 124.007,260.416 122.55,260.416 
			122.55,259.68 125.498,259.68 123.782,261.991 		"/>
	</g>
	<g>
		<defs>
			<rect id="SVGID_43_" width="419.527" height="595.276"/>
		</defs>
		<clipPath id="SVGID_44_">
			<use xlink:href="#SVGID_43_"  overflow="visible"/>
		</clipPath>
		<polygon clip-path="url(#SVGID_44_)" points="125.776,259.695 126.763,259.695 127.674,261.418 128.536,259.695 129.509,259.695 
			127.058,264.344 126.098,264.344 127.212,262.264 		"/>
	</g>
	<g>
		<defs>
			<rect id="SVGID_45_" width="419.527" height="595.276"/>
		</defs>
		<clipPath id="SVGID_46_">
			<use xlink:href="#SVGID_45_"  overflow="visible"/>
		</clipPath>
		<path clip-path="url(#SVGID_46_)" d="M130.768,259.695v0.378c0.266-0.345,0.539-0.478,0.952-0.478c0.358,0,0.68,0.133,0.883,0.365
			c0.175,0.203,0.238,0.426,0.238,0.839v1.927h-0.847v-1.68c0-0.252-0.022-0.386-0.084-0.492c-0.084-0.146-0.274-0.238-0.497-0.238
			c-0.435,0-0.645,0.268-0.645,0.843v1.567h-0.848v-3.031H130.768L130.768,259.695z"/>
	</g>
	<g>
		<defs>
			<rect id="SVGID_47_" width="419.527" height="595.276"/>
		</defs>
		<clipPath id="SVGID_48_">
			<use xlink:href="#SVGID_47_"  overflow="visible"/>
		</clipPath>
		<path clip-path="url(#SVGID_48_)" d="M134.365,261.208c0,0.474,0.386,0.853,0.855,0.853c0.462,0,0.847-0.386,0.847-0.84
			c0-0.482-0.371-0.861-0.847-0.861C134.744,260.359,134.365,260.738,134.365,261.208 M136.824,259.695v3.031h-0.848v-0.392
			c-0.273,0.343-0.574,0.49-0.994,0.49c-0.854,0-1.492-0.693-1.492-1.617c0-0.911,0.645-1.612,1.478-1.612
			c0.413,0,0.714,0.148,1.008,0.491v-0.392H136.824z"/>
	</g>
	<g>
		<defs>
			<rect id="SVGID_49_" width="419.527" height="595.276"/>
		</defs>
		<clipPath id="SVGID_50_">
			<use xlink:href="#SVGID_49_"  overflow="visible"/>
		</clipPath>
		<path clip-path="url(#SVGID_50_)" d="M138.509,264.346h-0.847v-4.65h0.847V264.346z M138.601,258.412
			c0,0.279-0.231,0.513-0.512,0.513c-0.28,0-0.51-0.233-0.51-0.521c0-0.271,0.23-0.504,0.51-0.504
			C138.376,257.9,138.601,258.125,138.601,258.412"/>
	</g>
	<g>
		<defs>
			<rect id="SVGID_51_" width="419.527" height="595.276"/>
		</defs>
		<clipPath id="SVGID_52_">
			<use xlink:href="#SVGID_51_"  overflow="visible"/>
		</clipPath>
		<path clip-path="url(#SVGID_52_)" d="M140.155,259.695v0.35c0.28-0.324,0.553-0.449,0.924-0.449c0.421,0,0.715,0.168,0.946,0.553
			c0.238-0.369,0.568-0.553,0.994-0.553c0.365,0,0.687,0.168,0.848,0.436c0.112,0.182,0.161,0.398,0.161,0.734v1.961h-0.848v-1.66
			c0-0.244-0.013-0.356-0.07-0.482c-0.077-0.168-0.23-0.268-0.427-0.268c-0.217,0-0.406,0.113-0.497,0.303
			c-0.063,0.134-0.092,0.287-0.092,0.554v1.554h-0.846v-1.61c0-0.261-0.015-0.394-0.064-0.505c-0.07-0.176-0.258-0.295-0.455-0.295
			c-0.189,0-0.392,0.113-0.476,0.274c-0.071,0.125-0.098,0.288-0.098,0.582v1.554h-0.848v-3.031H140.155z"/>
	</g>
	<g>
		<defs>
			<rect id="SVGID_53_" width="419.527" height="595.276"/>
		</defs>
		<clipPath id="SVGID_54_">
			<use xlink:href="#SVGID_53_"  overflow="visible"/>
		</clipPath>
		<path clip-path="url(#SVGID_54_)" d="M145.684,259.695v0.378c0.266-0.345,0.539-0.478,0.952-0.478c0.358,0,0.68,0.133,0.883,0.365
			c0.175,0.203,0.238,0.426,0.238,0.839v1.927h-0.847v-1.68c0-0.252-0.022-0.386-0.084-0.492c-0.084-0.146-0.274-0.238-0.497-0.238
			c-0.435,0-0.645,0.268-0.645,0.843v1.567h-0.848v-3.031H145.684L145.684,259.695z"/>
	</g>
	<g>
		<defs>
			<rect id="SVGID_55_" width="419.527" height="595.276"/>
		</defs>
		<clipPath id="SVGID_56_">
			<use xlink:href="#SVGID_55_"  overflow="visible"/>
		</clipPath>
		<path clip-path="url(#SVGID_56_)" d="M149.401,262.727h-0.847v-3.033h0.847V262.727z M149.493,258.412
			c0,0.279-0.231,0.513-0.512,0.513c-0.287,0-0.51-0.233-0.51-0.521c0-0.271,0.23-0.504,0.51-0.504
			C149.268,257.9,149.493,258.125,149.493,258.412"/>
	</g>
	<g>
		<defs>
			<rect id="SVGID_57_" width="419.527" height="595.276"/>
		</defs>
		<clipPath id="SVGID_58_">
			<use xlink:href="#SVGID_57_"  overflow="visible"/>
		</clipPath>
		<path clip-path="url(#SVGID_58_)" d="M152.37,260.809c-0.091-0.395-0.343-0.604-0.721-0.604c-0.379,0-0.638,0.226-0.715,0.604
			H152.37z M150.906,261.346c0.021,0.525,0.28,0.813,0.743,0.813c0.321,0,0.525-0.12,0.721-0.407l0.784,0.126
			c-0.259,0.623-0.769,0.947-1.484,0.947c-0.988,0-1.632-0.638-1.632-1.612c0-0.979,0.623-1.618,1.59-1.618
			c0.966,0,1.554,0.623,1.554,1.64v0.111H150.906L150.906,261.346z"/>
	</g>
	<g>
		<defs>
			<rect id="SVGID_59_" width="419.527" height="595.276"/>
		</defs>
		<clipPath id="SVGID_60_">
			<use xlink:href="#SVGID_59_"  overflow="visible"/>
		</clipPath>
		<path clip-path="url(#SVGID_60_)" d="M154.671,264.346h-0.847v-4.65h0.847V264.346z M154.763,258.412
			c0,0.279-0.231,0.513-0.512,0.513c-0.28,0-0.51-0.233-0.51-0.521c0-0.271,0.23-0.504,0.51-0.504
			C154.538,257.9,154.763,258.125,154.763,258.412"/>
	</g>
	<g>
		<defs>
			<rect id="SVGID_61_" width="419.527" height="595.276"/>
		</defs>
		<clipPath id="SVGID_62_">
			<use xlink:href="#SVGID_61_"  overflow="visible"/>
		</clipPath>
		<path clip-path="url(#SVGID_62_)" d="M159.496,260.619c-0.245-0.188-0.435-0.26-0.687-0.26c-0.503,0-0.876,0.363-0.876,0.855
			c0,0.49,0.373,0.846,0.876,0.846c0.259,0,0.456-0.069,0.687-0.252v0.828c-0.273,0.139-0.497,0.188-0.777,0.188
			c-0.939,0-1.661-0.692-1.661-1.598c0-0.922,0.722-1.629,1.667-1.629c0.301,0,0.526,0.055,0.771,0.18V260.619L159.496,260.619z"/>
	</g>
	<g>
		<defs>
			<rect id="SVGID_63_" width="419.527" height="595.276"/>
		</defs>
		<clipPath id="SVGID_64_">
			<use xlink:href="#SVGID_63_"  overflow="visible"/>
		</clipPath>
		<polygon clip-path="url(#SVGID_64_)" points="162.925,261.991 162.925,262.727 159.822,262.727 161.546,260.416 160.089,260.416 
			160.089,259.68 163.037,259.68 161.321,261.991 		"/>
	</g>
	<g>
		<defs>
			<rect id="SVGID_65_" width="419.527" height="595.276"/>
		</defs>
		<clipPath id="SVGID_66_">
			<use xlink:href="#SVGID_65_"  overflow="visible"/>
		</clipPath>
		<path clip-path="url(#SVGID_66_)" d="M165.704,260.809c-0.091-0.395-0.343-0.604-0.721-0.604c-0.379,0-0.638,0.226-0.715,0.604
			H165.704z M164.24,261.346c0.021,0.525,0.28,0.813,0.743,0.813c0.321,0,0.525-0.12,0.721-0.407l0.784,0.126
			c-0.14,0.358-0.321,0.562-0.679,0.772c-0.329,0.209-0.497,0.406-0.497,0.601c0,0.156,0.126,0.274,0.301,0.274
			c0.112,0,0.21-0.029,0.336-0.092l-0.098,0.471c-0.132,0.076-0.28,0.119-0.455,0.119c-0.343,0-0.616-0.239-0.616-0.532
			c0-0.267,0.118-0.47,0.398-0.673c-0.084,0.007-0.119,0.007-0.167,0.007c-0.988,0-1.639-0.638-1.639-1.612
			c0-0.986,0.623-1.618,1.59-1.618c0.966,0,1.554,0.623,1.554,1.64v0.111H164.24L164.24,261.346z"/>
	</g>
	<g>
		<defs>
			<rect id="SVGID_67_" width="419.527" height="595.276"/>
		</defs>
		<clipPath id="SVGID_68_">
			<use xlink:href="#SVGID_67_"  overflow="visible"/>
		</clipPath>
		<path clip-path="url(#SVGID_68_)" d="M168.223,259.163l-0.406-0.282l0.834-1.056l0.616,0.39L168.223,259.163z M168.819,260.402
			c-0.183-0.141-0.337-0.203-0.505-0.203c-0.188,0-0.329,0.111-0.329,0.259c0,0.14,0.091,0.203,0.483,0.337
			c0.344,0.118,0.449,0.168,0.589,0.271c0.224,0.154,0.336,0.387,0.336,0.674c0,0.637-0.525,1.085-1.274,1.085
			c-0.442,0-0.855-0.183-1.15-0.505l0.442-0.52c0.245,0.247,0.47,0.359,0.721,0.359c0.217,0,0.385-0.148,0.385-0.336
			c0-0.176-0.084-0.238-0.469-0.378c-0.377-0.142-0.448-0.169-0.581-0.269c-0.203-0.138-0.301-0.349-0.301-0.63
			c0-0.567,0.448-0.965,1.086-0.965c0.378,0,0.693,0.103,0.987,0.322L168.819,260.402z"/>
	</g>
	<g>
		<defs>
			<rect id="SVGID_69_" width="419.527" height="595.276"/>
		</defs>
		<clipPath id="SVGID_70_">
			<use xlink:href="#SVGID_69_"  overflow="visible"/>
		</clipPath>
		<path clip-path="url(#SVGID_70_)" d="M171.291,259.163l-0.407-0.28l0.833-1.059l0.624,0.393L171.291,259.163z M172.271,260.619
			c-0.245-0.188-0.435-0.26-0.687-0.26c-0.503,0-0.875,0.363-0.875,0.855c0,0.49,0.372,0.846,0.875,0.846
			c0.259,0,0.456-0.069,0.687-0.252v0.828c-0.273,0.139-0.497,0.188-0.777,0.188c-0.939,0-1.661-0.692-1.661-1.598
			c0-0.922,0.722-1.629,1.667-1.629c0.301,0,0.526,0.055,0.771,0.18V260.619L172.271,260.619z"/>
	</g>
	<g>
		<defs>
			<rect id="SVGID_71_" width="419.527" height="595.276"/>
		</defs>
		<clipPath id="SVGID_72_">
			<use xlink:href="#SVGID_71_"  overflow="visible"/>
		</clipPath>
		<polygon clip-path="url(#SVGID_72_)" points="175.512,260.801 176.646,259.695 177.794,259.695 176.372,261.025 177.907,262.727 
			176.736,262.727 175.602,261.423 175.512,261.516 175.512,262.727 174.663,262.727 174.663,257.48 175.512,257.48 		"/>
	</g>
	<g>
		<defs>
			<rect id="SVGID_73_" width="419.527" height="595.276"/>
		</defs>
		<clipPath id="SVGID_74_">
			<use xlink:href="#SVGID_73_"  overflow="visible"/>
		</clipPath>
		<path clip-path="url(#SVGID_74_)" d="M178.843,261.208c0,0.474,0.386,0.853,0.854,0.853c0.462,0,0.847-0.386,0.847-0.84
			c0-0.482-0.371-0.861-0.847-0.861C179.221,260.359,178.843,260.738,178.843,261.208 M181.301,259.695v3.031h-0.848v-0.392
			c-0.273,0.343-0.574,0.49-0.994,0.49c-0.854,0-1.492-0.693-1.492-1.617c0-0.911,0.645-1.612,1.479-1.612
			c0.412,0,0.714,0.148,1.008,0.491v-0.392H181.301z"/>
	</g>
	<g>
		<defs>
			<rect id="SVGID_75_" width="419.527" height="595.276"/>
		</defs>
		<clipPath id="SVGID_76_">
			<use xlink:href="#SVGID_75_"  overflow="visible"/>
		</clipPath>
		<path clip-path="url(#SVGID_76_)" d="M182.958,259.695v0.35c0.28-0.324,0.553-0.449,0.924-0.449c0.421,0,0.716,0.168,0.946,0.553
			c0.236-0.369,0.568-0.553,0.994-0.553c0.365,0,0.687,0.168,0.848,0.436c0.112,0.182,0.161,0.398,0.161,0.734v1.961h-0.849v-1.66
			c0-0.244-0.012-0.356-0.069-0.482c-0.077-0.168-0.229-0.268-0.427-0.268c-0.217,0-0.406,0.113-0.498,0.303
			c-0.062,0.134-0.092,0.287-0.092,0.554v1.554h-0.846v-1.61c0-0.261-0.015-0.394-0.064-0.505c-0.069-0.176-0.258-0.295-0.454-0.295
			c-0.189,0-0.392,0.113-0.476,0.274c-0.072,0.125-0.099,0.288-0.099,0.582v1.554h-0.849v-3.031H182.958z"/>
	</g>
	<g>
		<defs>
			<rect id="SVGID_77_" width="419.527" height="595.276"/>
		</defs>
		<clipPath id="SVGID_78_">
			<use xlink:href="#SVGID_77_"  overflow="visible"/>
		</clipPath>
		<path clip-path="url(#SVGID_78_)" d="M189.812,260.809c-0.092-0.395-0.344-0.604-0.722-0.604c-0.379,0-0.638,0.226-0.715,0.604
			H189.812z M188.35,261.346c0.021,0.525,0.279,0.813,0.742,0.813c0.321,0,0.525-0.12,0.721-0.407l0.785,0.126
			c-0.26,0.623-0.77,0.947-1.484,0.947c-0.988,0-1.633-0.638-1.633-1.612c0-0.979,0.623-1.618,1.59-1.618s1.555,0.623,1.555,1.64
			v0.111H188.35L188.35,261.346z"/>
	</g>
	<g>
		<defs>
			<rect id="SVGID_79_" width="419.527" height="595.276"/>
		</defs>
		<clipPath id="SVGID_80_">
			<use xlink:href="#SVGID_79_"  overflow="visible"/>
		</clipPath>
		<path clip-path="url(#SVGID_80_)" d="M192.115,259.695v0.462c0.217-0.388,0.496-0.562,0.882-0.562
			c0.134,0,0.218,0.016,0.372,0.078l-0.119,0.791c-0.154-0.084-0.238-0.105-0.406-0.105c-0.232,0-0.414,0.076-0.541,0.218
			c-0.139,0.161-0.188,0.349-0.188,0.692v1.457h-0.848v-3.031H192.115L192.115,259.695z"/>
	</g>
	<g>
		<defs>
			<rect id="SVGID_81_" width="419.527" height="595.276"/>
		</defs>
		<clipPath id="SVGID_82_">
			<use xlink:href="#SVGID_81_"  overflow="visible"/>
		</clipPath>
		<polygon clip-path="url(#SVGID_82_)" points="118.827,270.391 118.827,271.125 115.724,271.125 117.448,268.814 115.991,268.814 
			115.991,268.078 118.938,268.078 117.223,270.391 		"/>
	</g>
	<g>
		<defs>
			<rect id="SVGID_83_" width="419.527" height="595.276"/>
		</defs>
		<clipPath id="SVGID_84_">
			<use xlink:href="#SVGID_83_"  overflow="visible"/>
		</clipPath>
		<path clip-path="url(#SVGID_84_)" d="M120.267,271.125h-0.847v-3.032h0.847V271.125z M120.359,266.811
			c0,0.28-0.231,0.514-0.512,0.514c-0.287,0-0.51-0.233-0.51-0.52c0-0.272,0.23-0.505,0.51-0.505
			C120.134,266.3,120.359,266.525,120.359,266.811"/>
	</g>
	<g>
		<defs>
			<rect id="SVGID_85_" width="419.527" height="595.276"/>
		</defs>
		<clipPath id="SVGID_86_">
			<use xlink:href="#SVGID_85_"  overflow="visible"/>
		</clipPath>
		<path clip-path="url(#SVGID_86_)" d="M121.913,268.094v0.379c0.266-0.346,0.539-0.479,0.952-0.479c0.358,0,0.68,0.133,0.883,0.365
			c0.175,0.203,0.238,0.427,0.238,0.84v1.926h-0.847v-1.68c0-0.252-0.022-0.385-0.084-0.491c-0.084-0.146-0.274-0.238-0.497-0.238
			c-0.435,0-0.645,0.267-0.645,0.841v1.568h-0.848v-3.031H121.913L121.913,268.094z"/>
	</g>
	<g>
		<defs>
			<rect id="SVGID_87_" width="419.527" height="595.276"/>
		</defs>
		<clipPath id="SVGID_88_">
			<use xlink:href="#SVGID_87_"  overflow="visible"/>
		</clipPath>
		<polygon clip-path="url(#SVGID_88_)" points="125.651,271.125 124.803,271.125 124.803,268.829 124.467,268.829 124.467,268.094 
			124.803,268.094 124.803,267.059 125.651,267.059 125.651,268.094 126.254,268.094 126.254,268.829 125.651,268.829 		"/>
	</g>
	<g>
		<defs>
			<rect id="SVGID_89_" width="419.527" height="595.276"/>
		</defs>
		<clipPath id="SVGID_90_">
			<use xlink:href="#SVGID_89_"  overflow="visible"/>
		</clipPath>
		<path clip-path="url(#SVGID_90_)" d="M128.879,269.208c-0.091-0.394-0.343-0.604-0.721-0.604c-0.379,0-0.638,0.226-0.715,0.604
			H128.879z M127.415,269.746c0.021,0.525,0.28,0.812,0.743,0.812c0.321,0,0.525-0.119,0.721-0.406l0.785,0.125
			c-0.26,0.625-0.77,0.947-1.485,0.947c-0.988,0-1.632-0.637-1.632-1.611c0-0.979,0.623-1.618,1.59-1.618
			c0.966,0,1.554,0.623,1.554,1.64v0.111H127.415L127.415,269.746z"/>
	</g>
	<g>
		<defs>
			<rect id="SVGID_91_" width="419.527" height="595.276"/>
		</defs>
		<clipPath id="SVGID_92_">
			<use xlink:href="#SVGID_91_"  overflow="visible"/>
		</clipPath>
		<path clip-path="url(#SVGID_92_)" d="M131.049,269.607c0,0.474,0.384,0.854,0.853,0.854c0.463,0,0.848-0.384,0.848-0.841
			c0-0.483-0.378-0.861-0.848-0.861C131.427,268.758,131.049,269.136,131.049,269.607 M133.492,271.014
			c0,0.623-0.076,0.902-0.343,1.204c-0.294,0.351-0.742,0.532-1.274,0.532c-0.616,0-1.079-0.215-1.394-0.665
			c-0.147-0.211-0.203-0.356-0.231-0.601h0.925c0.084,0.355,0.329,0.545,0.713,0.545c0.217,0,0.428-0.084,0.568-0.223
			c0.119-0.127,0.189-0.346,0.189-0.633v-0.455c-0.315,0.364-0.602,0.506-1.03,0.506c-0.833,0-1.442-0.658-1.442-1.576
			c0-0.953,0.63-1.654,1.484-1.654c0.421,0,0.701,0.141,0.988,0.492v-0.394h0.847V271.014L133.492,271.014z"/>
	</g>
	<g>
		<defs>
			<rect id="SVGID_93_" width="419.527" height="595.276"/>
		</defs>
		<clipPath id="SVGID_94_">
			<use xlink:href="#SVGID_93_"  overflow="visible"/>
		</clipPath>
		<path clip-path="url(#SVGID_94_)" d="M135.184,268.094v0.463c0.217-0.388,0.497-0.562,0.882-0.562
			c0.134,0,0.218,0.016,0.372,0.079l-0.119,0.79c-0.155-0.084-0.239-0.105-0.406-0.105c-0.232,0-0.414,0.077-0.541,0.219
			c-0.139,0.16-0.188,0.349-0.188,0.691v1.457h-0.848v-3.031H135.184L135.184,268.094z"/>
	</g>
	<g>
		<defs>
			<rect id="SVGID_95_" width="419.527" height="595.276"/>
		</defs>
		<clipPath id="SVGID_96_">
			<use xlink:href="#SVGID_95_"  overflow="visible"/>
		</clipPath>
		<path clip-path="url(#SVGID_96_)" d="M137.537,269.6c0,0.483,0.378,0.861,0.862,0.861c0.468,0,0.854-0.378,0.854-0.847
			c0-0.478-0.386-0.856-0.862-0.856C137.929,268.758,137.537,269.143,137.537,269.6 M140.128,269.607
			c0,0.959-0.714,1.615-1.751,1.615c-1.016,0-1.716-0.664-1.716-1.637c0-0.925,0.729-1.59,1.744-1.59
			C139.421,267.996,140.128,268.654,140.128,269.607"/>
	</g>
	<g>
		<defs>
			<rect id="SVGID_97_" width="419.527" height="595.276"/>
		</defs>
		<clipPath id="SVGID_98_">
			<use xlink:href="#SVGID_97_"  overflow="visible"/>
		</clipPath>
		<polygon clip-path="url(#SVGID_98_)" points="141.975,269.844 142.801,268.009 143.165,268.009 143.993,269.871 144.805,268.093 
			145.75,268.093 144.181,271.189 143.795,271.189 142.977,269.346 142.17,271.189 141.779,271.189 140.224,268.093 
			141.177,268.093 		"/>
	</g>
	<g>
		<defs>
			<rect id="SVGID_99_" width="419.527" height="595.276"/>
		</defs>
		<clipPath id="SVGID_100_">
			<use xlink:href="#SVGID_99_"  overflow="visible"/>
		</clipPath>
		<path clip-path="url(#SVGID_100_)" d="M146.721,269.607c0,0.474,0.385,0.853,0.854,0.853c0.462,0,0.847-0.386,0.847-0.841
			c0-0.482-0.371-0.861-0.847-0.861C147.099,268.758,146.721,269.137,146.721,269.607 M149.179,268.094v3.031h-0.848v-0.391
			c-0.273,0.342-0.574,0.49-0.994,0.49c-0.854,0-1.492-0.693-1.492-1.617c0-0.912,0.645-1.613,1.478-1.613
			c0.413,0,0.714,0.148,1.008,0.492v-0.393H149.179z"/>
	</g>
	<g>
		<defs>
			<rect id="SVGID_101_" width="419.527" height="595.276"/>
		</defs>
		<clipPath id="SVGID_102_">
			<use xlink:href="#SVGID_101_"  overflow="visible"/>
		</clipPath>
		<path clip-path="url(#SVGID_102_)" d="M150.837,268.094v0.379c0.266-0.346,0.539-0.479,0.952-0.479
			c0.358,0,0.68,0.133,0.883,0.365c0.175,0.203,0.238,0.427,0.238,0.84v1.926h-0.847v-1.68c0-0.252-0.022-0.385-0.084-0.491
			c-0.084-0.146-0.274-0.238-0.497-0.238c-0.435,0-0.645,0.267-0.645,0.841v1.568h-0.848v-3.031H150.837L150.837,268.094z"/>
	</g>
	<g>
		<defs>
			<rect id="SVGID_103_" width="419.527" height="595.276"/>
		</defs>
		<clipPath id="SVGID_104_">
			<use xlink:href="#SVGID_103_"  overflow="visible"/>
		</clipPath>
		<path clip-path="url(#SVGID_104_)" d="M154.433,269.607c0,0.474,0.386,0.853,0.855,0.853c0.462,0,0.847-0.386,0.847-0.841
			c0-0.482-0.371-0.861-0.847-0.861S154.433,269.137,154.433,269.607 M156.892,268.094v3.031h-0.848v-0.391
			c-0.273,0.342-0.574,0.49-0.994,0.49c-0.854,0-1.492-0.693-1.492-1.617c0-0.912,0.645-1.613,1.478-1.613
			c0.413,0,0.714,0.148,1.008,0.492v-0.393H156.892z"/>
	</g>
	<g>
		<defs>
			<rect id="SVGID_105_" width="419.527" height="595.276"/>
		</defs>
		<clipPath id="SVGID_106_">
			<use xlink:href="#SVGID_105_"  overflow="visible"/>
		</clipPath>
		<polygon clip-path="url(#SVGID_106_)" points="160.804,269.844 161.63,268.009 161.994,268.009 162.822,269.871 163.634,268.093 
			164.579,268.093 163.01,271.189 162.625,271.189 161.806,269.346 161,271.189 160.608,271.189 159.053,268.093 160.006,268.093 		
			"/>
	</g>
	<g>
		<defs>
			<rect id="SVGID_107_" width="419.527" height="595.276"/>
		</defs>
		<clipPath id="SVGID_108_">
			<use xlink:href="#SVGID_107_"  overflow="visible"/>
		</clipPath>
		<path clip-path="url(#SVGID_108_)" d="M168.407,268.801c-0.183-0.142-0.337-0.203-0.505-0.203c-0.188,0-0.329,0.111-0.329,0.26
			c0,0.139,0.091,0.203,0.483,0.336c0.344,0.119,0.449,0.168,0.589,0.271c0.224,0.154,0.336,0.387,0.336,0.674
			c0,0.637-0.525,1.086-1.274,1.086c-0.442,0-0.855-0.184-1.15-0.504l0.442-0.521c0.245,0.247,0.47,0.358,0.721,0.358
			c0.217,0,0.385-0.148,0.385-0.336c0-0.176-0.084-0.238-0.469-0.377c-0.377-0.143-0.448-0.17-0.581-0.269
			c-0.203-0.138-0.301-0.349-0.301-0.63c0-0.567,0.448-0.965,1.086-0.965c0.378,0,0.693,0.103,0.987,0.322L168.407,268.801z"/>
	</g>
	<g>
		<defs>
			<rect id="SVGID_109_" width="419.527" height="595.276"/>
		</defs>
		<clipPath id="SVGID_110_">
			<use xlink:href="#SVGID_109_"  overflow="visible"/>
		</clipPath>
		<polygon clip-path="url(#SVGID_110_)" points="169.183,268.094 170.169,268.094 171.081,269.816 171.942,268.094 172.916,268.094 
			170.465,272.743 169.504,272.743 170.619,270.663 		"/>
	</g>
	<g>
		<defs>
			<rect id="SVGID_111_" width="419.527" height="595.276"/>
		</defs>
		<clipPath id="SVGID_112_">
			<use xlink:href="#SVGID_111_"  overflow="visible"/>
		</clipPath>
		<path clip-path="url(#SVGID_112_)" d="M174.868,268.801c-0.183-0.142-0.337-0.203-0.505-0.203c-0.188,0-0.329,0.111-0.329,0.26
			c0,0.139,0.091,0.203,0.483,0.336c0.344,0.119,0.448,0.168,0.588,0.271c0.225,0.154,0.336,0.387,0.336,0.674
			c0,0.637-0.524,1.086-1.273,1.086c-0.442,0-0.855-0.184-1.15-0.504l0.442-0.521c0.245,0.247,0.47,0.358,0.722,0.358
			c0.217,0,0.385-0.148,0.385-0.336c0-0.176-0.084-0.238-0.469-0.377c-0.377-0.143-0.449-0.17-0.582-0.269
			c-0.203-0.138-0.301-0.349-0.301-0.63c0-0.567,0.448-0.965,1.086-0.965c0.379,0,0.693,0.103,0.987,0.322L174.868,268.801z"/>
	</g>
	<g>
		<defs>
			<rect id="SVGID_113_" width="419.527" height="595.276"/>
		</defs>
		<clipPath id="SVGID_114_">
			<use xlink:href="#SVGID_113_"  overflow="visible"/>
		</clipPath>
		<polygon clip-path="url(#SVGID_114_)" points="176.967,271.125 176.119,271.125 176.119,268.829 175.783,268.829 175.783,268.094 
			176.119,268.094 176.119,267.059 176.967,267.059 176.967,268.094 177.57,268.094 177.57,268.829 176.967,268.829 		"/>
	</g>
	<g>
		<defs>
			<rect id="SVGID_115_" width="419.527" height="595.276"/>
		</defs>
		<clipPath id="SVGID_116_">
			<use xlink:href="#SVGID_115_"  overflow="visible"/>
		</clipPath>
		<path clip-path="url(#SVGID_116_)" d="M180.193,269.208c-0.09-0.394-0.342-0.604-0.721-0.604s-0.638,0.226-0.715,0.604H180.193z
			 M178.73,269.746c0.021,0.525,0.279,0.812,0.742,0.812c0.321,0,0.525-0.119,0.721-0.406l0.785,0.125
			c-0.26,0.625-0.77,0.947-1.484,0.947c-0.988,0-1.633-0.637-1.633-1.611c0-0.979,0.623-1.618,1.591-1.618
			c0.966,0,1.554,0.623,1.554,1.64v0.111H178.73L178.73,269.746z"/>
	</g>
	<g>
		<defs>
			<rect id="SVGID_117_" width="419.527" height="595.276"/>
		</defs>
		<clipPath id="SVGID_118_">
			<use xlink:href="#SVGID_117_"  overflow="visible"/>
		</clipPath>
		<path clip-path="url(#SVGID_118_)" d="M182.497,268.094v0.35c0.28-0.323,0.553-0.449,0.924-0.449c0.421,0,0.715,0.168,0.946,0.554
			c0.238-0.37,0.568-0.554,0.994-0.554c0.365,0,0.687,0.168,0.848,0.436c0.111,0.182,0.161,0.398,0.161,0.734v1.961h-0.849v-1.66
			c0-0.244-0.013-0.355-0.069-0.482c-0.077-0.168-0.229-0.267-0.427-0.267c-0.217,0-0.406,0.112-0.498,0.302
			c-0.062,0.135-0.092,0.287-0.092,0.555v1.553h-0.846v-1.609c0-0.261-0.015-0.394-0.064-0.504
			c-0.069-0.177-0.258-0.296-0.455-0.296c-0.188,0-0.391,0.112-0.475,0.274c-0.072,0.125-0.099,0.287-0.099,0.582v1.553h-0.849
			v-3.031H182.497z"/>
	</g>
	<g>
		<defs>
			<rect id="SVGID_119_" width="419.527" height="595.276"/>
		</defs>
		<clipPath id="SVGID_120_">
			<use xlink:href="#SVGID_119_"  overflow="visible"/>
		</clipPath>
		<path clip-path="url(#SVGID_120_)" d="M188.012,271.125h-0.847v-3.032h0.847V271.125z M188.104,266.811
			c0,0.28-0.23,0.514-0.512,0.514c-0.287,0-0.51-0.233-0.51-0.52c0-0.272,0.23-0.505,0.51-0.505
			C187.879,266.3,188.104,266.525,188.104,266.811"/>
	</g>
	<g>
		<defs>
			<rect id="SVGID_121_" width="419.527" height="595.276"/>
		</defs>
		<clipPath id="SVGID_122_">
			<use xlink:href="#SVGID_121_"  overflow="visible"/>
		</clipPath>
		<path clip-path="url(#SVGID_122_)" d="M190.98,269.208c-0.09-0.394-0.342-0.604-0.721-0.604s-0.638,0.226-0.715,0.604H190.98z
			 M189.518,269.746c0.021,0.525,0.279,0.812,0.742,0.812c0.321,0,0.525-0.119,0.721-0.406l0.785,0.125
			c-0.26,0.625-0.77,0.947-1.484,0.947c-0.988,0-1.633-0.637-1.633-1.611c0-0.979,0.623-1.618,1.59-1.618s1.555,0.623,1.555,1.64
			v0.111H189.518L189.518,269.746z"/>
	</g>
	<g>
		<defs>
			<rect id="SVGID_123_" width="419.527" height="595.276"/>
		</defs>
		<clipPath id="SVGID_124_">
			<use xlink:href="#SVGID_123_"  overflow="visible"/>
		</clipPath>
		<path clip-path="url(#SVGID_124_)" d="M263.252,142.831c0.301-0.342,0.604-0.49,1.01-0.49c0.838,0,1.478,0.701,1.478,1.604
			c0,0.932-0.64,1.625-1.492,1.625c-0.42,0-0.714-0.147-0.994-0.49v0.393h-0.848v-5.246h0.848L263.252,142.831L263.252,142.831z
			 M263.161,143.952c0,0.478,0.385,0.854,0.854,0.854c0.463,0,0.848-0.386,0.848-0.841c0-0.483-0.379-0.86-0.854-0.86
			C263.539,143.104,263.161,143.482,263.161,143.952"/>
	</g>
	<g>
		<defs>
			<rect id="SVGID_125_" width="419.527" height="595.276"/>
		</defs>
		<clipPath id="SVGID_126_">
			<use xlink:href="#SVGID_125_"  overflow="visible"/>
		</clipPath>
		<path clip-path="url(#SVGID_126_)" d="M267.234,142.439v0.461c0.217-0.385,0.496-0.56,0.882-0.56c0.134,0,0.218,0.015,0.372,0.077
			l-0.119,0.792c-0.154-0.084-0.238-0.104-0.405-0.104c-0.231,0-0.415,0.076-0.541,0.216c-0.14,0.161-0.188,0.351-0.188,0.694v1.457
			h-0.848v-3.033H267.234L267.234,142.439z"/>
	</g>
	<g>
		<defs>
			<rect id="SVGID_127_" width="419.527" height="595.276"/>
		</defs>
		<clipPath id="SVGID_128_">
			<use xlink:href="#SVGID_127_"  overflow="visible"/>
		</clipPath>
		<path clip-path="url(#SVGID_128_)" d="M272.08,142.438v3.033h-0.848v-0.392c-0.273,0.343-0.574,0.489-0.994,0.489
			c-0.854,0-1.492-0.692-1.492-1.617c0-0.91,0.645-1.611,1.479-1.611c0.412,0,0.715,0.148,1.008,0.49v-0.393H272.08L272.08,142.438z
			 M269.621,143.952c0,0.478,0.386,0.854,0.854,0.854c0.465,0,0.85-0.386,0.85-0.841c0-0.483-0.371-0.86-0.85-0.86
			C270,143.104,269.621,143.482,269.621,143.952"/>
	</g>
	<g>
		<defs>
			<rect id="SVGID_129_" width="419.527" height="595.276"/>
		</defs>
		<clipPath id="SVGID_130_">
			<use xlink:href="#SVGID_129_"  overflow="visible"/>
		</clipPath>
		<polygon clip-path="url(#SVGID_130_)" points="273.736,143.545 274.872,142.439 276.021,142.439 274.6,143.77 276.133,145.471 
			274.963,145.471 273.828,144.169 273.736,144.26 273.736,145.471 272.891,145.471 272.891,140.227 273.736,140.227 		"/>
	</g>
	<g>
		<defs>
			<rect id="SVGID_131_" width="419.527" height="595.276"/>
		</defs>
		<clipPath id="SVGID_132_">
			<use xlink:href="#SVGID_131_"  overflow="visible"/>
		</clipPath>
		<path clip-path="url(#SVGID_132_)" d="M263.252,150.839v0.351c0.28-0.322,0.553-0.448,0.924-0.448
			c0.422,0,0.715,0.168,0.946,0.553c0.237-0.371,0.567-0.553,0.994-0.553c0.364,0,0.687,0.168,0.848,0.434
			c0.112,0.183,0.161,0.399,0.161,0.736v1.961h-0.848v-1.66c0-0.245-0.014-0.356-0.07-0.483c-0.077-0.168-0.23-0.266-0.427-0.266
			c-0.218,0-0.406,0.111-0.497,0.301c-0.062,0.133-0.092,0.287-0.092,0.553v1.556h-0.848v-1.611c0-0.259-0.015-0.392-0.062-0.505
			c-0.07-0.174-0.258-0.293-0.455-0.293c-0.189,0-0.393,0.111-0.477,0.271c-0.07,0.127-0.099,0.289-0.099,0.582v1.556h-0.848v-3.033
			H263.252z"/>
	</g>
	<g>
		<defs>
			<rect id="SVGID_133_" width="419.527" height="595.276"/>
		</defs>
		<clipPath id="SVGID_134_">
			<use xlink:href="#SVGID_133_"  overflow="visible"/>
		</clipPath>
		<path clip-path="url(#SVGID_134_)" d="M271.24,152.352c0,0.961-0.715,1.618-1.752,1.618c-1.016,0-1.715-0.665-1.715-1.639
			c0-0.924,0.729-1.59,1.744-1.59C270.531,150.741,271.24,151.4,271.24,152.352 M268.648,152.345c0,0.483,0.379,0.861,0.861,0.861
			c0.469,0,0.854-0.378,0.854-0.847c0-0.477-0.386-0.854-0.863-0.854C269.041,151.505,268.648,151.891,268.648,152.345"/>
	</g>
	<g>
		<defs>
			<rect id="SVGID_135_" width="419.527" height="595.276"/>
		</defs>
		<clipPath id="SVGID_136_">
			<use xlink:href="#SVGID_135_"  overflow="visible"/>
		</clipPath>
		<path clip-path="url(#SVGID_136_)" d="M272.736,150.839v0.378c0.266-0.343,0.539-0.476,0.951-0.476
			c0.357,0,0.681,0.133,0.883,0.364c0.176,0.203,0.238,0.427,0.238,0.84v1.927h-0.848v-1.681c0-0.252-0.021-0.385-0.084-0.491
			c-0.084-0.147-0.273-0.237-0.497-0.237c-0.435,0-0.646,0.266-0.646,0.84v1.569h-0.848v-3.033H272.736z"/>
	</g>
	<g>
		<defs>
			<rect id="SVGID_137_" width="419.527" height="595.276"/>
		</defs>
		<clipPath id="SVGID_138_">
			<use xlink:href="#SVGID_137_"  overflow="visible"/>
		</clipPath>
		<path clip-path="url(#SVGID_138_)" d="M276.545,149.559c0,0.279-0.232,0.51-0.512,0.51c-0.287,0-0.512-0.23-0.512-0.518
			c0-0.273,0.23-0.504,0.512-0.504C276.32,149.047,276.545,149.271,276.545,149.559 M276.453,153.872h-0.848v-3.033h0.848V153.872z"
			/>
	</g>
	<g>
		<defs>
			<rect id="SVGID_139_" width="419.527" height="595.276"/>
		</defs>
		<clipPath id="SVGID_140_">
			<use xlink:href="#SVGID_139_"  overflow="visible"/>
		</clipPath>
		<polygon clip-path="url(#SVGID_140_)" points="278.105,153.872 277.258,153.872 277.258,151.575 276.922,151.575 276.922,150.839 
			277.258,150.839 277.258,149.803 278.105,149.803 278.105,150.839 278.709,150.839 278.709,151.575 278.105,151.575 		"/>
	</g>
	<g>
		<defs>
			<rect id="SVGID_141_" width="419.527" height="595.276"/>
		</defs>
		<clipPath id="SVGID_142_">
			<use xlink:href="#SVGID_141_"  overflow="visible"/>
		</clipPath>
		<path clip-path="url(#SVGID_142_)" d="M282.445,152.352c0,0.961-0.713,1.618-1.75,1.618c-1.016,0-1.717-0.665-1.717-1.639
			c0-0.924,0.729-1.59,1.744-1.59C281.739,150.741,282.445,151.4,282.445,152.352 M279.855,152.345c0,0.483,0.377,0.861,0.86,0.861
			c0.47,0,0.854-0.378,0.854-0.847c0-0.477-0.387-0.854-0.861-0.854C280.247,151.505,279.855,151.891,279.855,152.345"/>
	</g>
	<g>
		<defs>
			<rect id="SVGID_143_" width="419.527" height="595.276"/>
		</defs>
		<clipPath id="SVGID_144_">
			<use xlink:href="#SVGID_143_"  overflow="visible"/>
		</clipPath>
		<path clip-path="url(#SVGID_144_)" d="M283.943,150.839v0.462c0.217-0.385,0.496-0.56,0.882-0.56c0.134,0,0.218,0.014,0.372,0.077
			l-0.119,0.791c-0.154-0.084-0.238-0.104-0.405-0.104c-0.231,0-0.415,0.077-0.541,0.216c-0.14,0.161-0.188,0.352-0.188,0.694v1.457
			h-0.848v-3.033H283.943z"/>
	</g>
	<g>
		<defs>
			<rect id="SVGID_145_" width="419.527" height="595.276"/>
		</defs>
		<clipPath id="SVGID_146_">
			<use xlink:href="#SVGID_145_"  overflow="visible"/>
		</clipPath>
		<path clip-path="url(#SVGID_146_)" d="M286.54,149.559c0,0.279-0.231,0.51-0.513,0.51c-0.286,0-0.51-0.23-0.51-0.518
			c0-0.273,0.229-0.504,0.51-0.504C286.314,149.047,286.54,149.271,286.54,149.559 M286.448,153.872H285.6v-3.033h0.849V153.872z"/>
	</g>
	<g>
		<defs>
			<rect id="SVGID_147_" width="419.527" height="595.276"/>
		</defs>
		<clipPath id="SVGID_148_">
			<use xlink:href="#SVGID_147_"  overflow="visible"/>
		</clipPath>
		<path clip-path="url(#SVGID_148_)" d="M288.096,150.839v0.378c0.266-0.343,0.538-0.476,0.951-0.476
			c0.357,0,0.68,0.133,0.883,0.364c0.176,0.203,0.238,0.427,0.238,0.84v1.927h-0.848v-1.681c0-0.252-0.021-0.385-0.084-0.491
			c-0.084-0.147-0.273-0.237-0.498-0.237c-0.434,0-0.645,0.266-0.645,0.84v1.569h-0.848v-3.033H288.096z"/>
	</g>
	<g>
		<defs>
			<rect id="SVGID_149_" width="419.527" height="595.276"/>
		</defs>
		<clipPath id="SVGID_150_">
			<use xlink:href="#SVGID_149_"  overflow="visible"/>
		</clipPath>
		<path clip-path="url(#SVGID_150_)" d="M294.136,153.76c0,0.623-0.075,0.904-0.343,1.205c-0.294,0.35-0.742,0.532-1.273,0.532
			c-0.617,0-1.08-0.217-1.395-0.666c-0.146-0.209-0.203-0.356-0.23-0.603h0.924c0.084,0.357,0.33,0.547,0.715,0.547
			c0.217,0,0.428-0.084,0.566-0.225c0.119-0.126,0.189-0.343,0.189-0.63v-0.455c-0.314,0.364-0.604,0.504-1.03,0.504
			c-0.833,0-1.442-0.657-1.442-1.575c0-0.953,0.631-1.653,1.484-1.653c0.422,0,0.701,0.14,0.988,0.489v-0.392h0.847V153.76z
			 M291.691,152.352c0,0.478,0.386,0.854,0.854,0.854c0.464,0,0.85-0.385,0.85-0.84c0-0.483-0.379-0.861-0.85-0.861
			C292.07,151.505,291.691,151.883,291.691,152.352"/>
	</g>
	<g>
		<defs>
			<rect id="SVGID_151_" width="419.527" height="595.276"/>
		</defs>
		<clipPath id="SVGID_152_">
			<use xlink:href="#SVGID_151_"  overflow="visible"/>
		</clipPath>
		<path clip-path="url(#SVGID_152_)" d="M295.844,152.555c0,0.456,0.211,0.693,0.623,0.693c0.406,0,0.616-0.237,0.616-0.693v-1.716
			h0.849v1.856c0,0.818-0.524,1.274-1.465,1.274c-0.945,0-1.471-0.456-1.471-1.274v-1.856h0.848V152.555L295.844,152.555z"/>
	</g>
	<g>
		<defs>
			<rect id="SVGID_153_" width="419.527" height="595.276"/>
		</defs>
		<clipPath id="SVGID_154_">
			<use xlink:href="#SVGID_153_"  overflow="visible"/>
		</clipPath>
		<path clip-path="url(#SVGID_154_)" d="M305.729,187.639v0.35c0.279-0.322,0.553-0.448,0.924-0.448
			c0.421,0,0.715,0.168,0.945,0.554c0.238-0.371,0.567-0.554,0.994-0.554c0.364,0,0.688,0.168,0.848,0.435
			c0.112,0.183,0.162,0.399,0.162,0.735v1.961h-0.849v-1.66c0-0.245-0.014-0.358-0.069-0.483c-0.078-0.168-0.23-0.266-0.428-0.266
			c-0.218,0-0.406,0.112-0.497,0.301c-0.063,0.134-0.093,0.287-0.093,0.554v1.555h-0.846v-1.612c0-0.258-0.016-0.391-0.063-0.504
			c-0.069-0.174-0.259-0.293-0.454-0.293c-0.189,0-0.394,0.112-0.478,0.273c-0.07,0.126-0.099,0.287-0.099,0.581v1.555h-0.848
			v-3.032H305.729z"/>
	</g>
	<g>
		<defs>
			<rect id="SVGID_155_" width="419.527" height="595.276"/>
		</defs>
		<clipPath id="SVGID_156_">
			<use xlink:href="#SVGID_155_"  overflow="visible"/>
		</clipPath>
		<path clip-path="url(#SVGID_156_)" d="M313.716,189.15c0,0.959-0.714,1.617-1.751,1.617c-1.016,0-1.716-0.664-1.716-1.639
			c0-0.924,0.729-1.589,1.744-1.589S313.716,188.198,313.716,189.15 M311.125,189.145c0,0.481,0.378,0.86,0.861,0.86
			c0.469,0,0.854-0.379,0.854-0.847c0-0.477-0.386-0.855-0.861-0.855C311.518,188.303,311.125,188.688,311.125,189.145"/>
	</g>
	<g>
		<defs>
			<rect id="SVGID_157_" width="419.527" height="595.276"/>
		</defs>
		<clipPath id="SVGID_158_">
			<use xlink:href="#SVGID_157_"  overflow="visible"/>
		</clipPath>
		<path clip-path="url(#SVGID_158_)" d="M315.213,187.639v0.377c0.266-0.343,0.539-0.476,0.952-0.476
			c0.356,0,0.681,0.133,0.883,0.364c0.175,0.203,0.238,0.428,0.238,0.841v1.926h-0.849v-1.681c0-0.252-0.021-0.387-0.084-0.49
			c-0.084-0.148-0.272-0.238-0.496-0.238c-0.436,0-0.646,0.266-0.646,0.84v1.569h-0.848v-3.032H315.213z"/>
	</g>
	<g>
		<defs>
			<rect id="SVGID_159_" width="419.527" height="595.276"/>
		</defs>
		<clipPath id="SVGID_160_">
			<use xlink:href="#SVGID_159_"  overflow="visible"/>
		</clipPath>
		<path clip-path="url(#SVGID_160_)" d="M319.021,186.355c0,0.28-0.232,0.512-0.514,0.512c-0.287,0-0.511-0.231-0.511-0.518
			c0-0.273,0.229-0.505,0.511-0.505C318.796,185.845,319.021,186.068,319.021,186.355 M318.93,190.671h-0.848v-3.032h0.848V190.671z
			"/>
	</g>
	<g>
		<defs>
			<rect id="SVGID_161_" width="419.527" height="595.276"/>
		</defs>
		<clipPath id="SVGID_162_">
			<use xlink:href="#SVGID_161_"  overflow="visible"/>
		</clipPath>
		<polygon clip-path="url(#SVGID_162_)" points="320.581,190.67 319.732,190.67 319.732,188.374 319.396,188.374 319.396,187.637 
			319.732,187.637 319.732,186.602 320.581,186.602 320.581,187.637 321.184,187.637 321.184,188.374 320.581,188.374 		"/>
	</g>
	<g>
		<defs>
			<rect id="SVGID_163_" width="419.527" height="595.276"/>
		</defs>
		<clipPath id="SVGID_164_">
			<use xlink:href="#SVGID_163_"  overflow="visible"/>
		</clipPath>
		<path clip-path="url(#SVGID_164_)" d="M324.922,189.15c0,0.959-0.714,1.617-1.751,1.617c-1.017,0-1.716-0.664-1.716-1.639
			c0-0.924,0.729-1.589,1.744-1.589S324.922,188.198,324.922,189.15 M322.33,189.145c0,0.481,0.379,0.86,0.861,0.86
			c0.47,0,0.854-0.379,0.854-0.847c0-0.477-0.386-0.855-0.862-0.855C322.723,188.303,322.33,188.688,322.33,189.145"/>
	</g>
	<g>
		<defs>
			<rect id="SVGID_165_" width="419.527" height="595.276"/>
		</defs>
		<clipPath id="SVGID_166_">
			<use xlink:href="#SVGID_165_"  overflow="visible"/>
		</clipPath>
		<path clip-path="url(#SVGID_166_)" d="M326.419,187.639v0.461c0.218-0.385,0.497-0.56,0.882-0.56c0.135,0,0.219,0.015,0.372,0.077
			l-0.118,0.791c-0.156-0.084-0.24-0.104-0.406-0.104c-0.231,0-0.414,0.076-0.541,0.215c-0.14,0.162-0.188,0.352-0.188,0.694v1.457
			h-0.848v-3.032H326.419z"/>
	</g>
	<g>
		<defs>
			<rect id="SVGID_167_" width="419.527" height="595.276"/>
		</defs>
		<clipPath id="SVGID_168_">
			<use xlink:href="#SVGID_167_"  overflow="visible"/>
		</clipPath>
		<path clip-path="url(#SVGID_168_)" d="M329.018,186.355c0,0.28-0.231,0.512-0.513,0.512c-0.287,0-0.511-0.231-0.511-0.518
			c0-0.273,0.23-0.505,0.511-0.505C328.792,185.845,329.018,186.068,329.018,186.355 M328.925,190.671h-0.847v-3.032h0.847V190.671z
			"/>
	</g>
	<g>
		<defs>
			<rect id="SVGID_169_" width="419.527" height="595.276"/>
		</defs>
		<clipPath id="SVGID_170_">
			<use xlink:href="#SVGID_169_"  overflow="visible"/>
		</clipPath>
		<path clip-path="url(#SVGID_170_)" d="M330.57,187.639v0.377c0.266-0.343,0.539-0.476,0.951-0.476
			c0.357,0,0.681,0.133,0.883,0.364c0.176,0.203,0.238,0.428,0.238,0.841v1.926h-0.848v-1.681c0-0.252-0.021-0.387-0.084-0.49
			c-0.084-0.148-0.273-0.238-0.497-0.238c-0.435,0-0.646,0.266-0.646,0.84v1.569h-0.848v-3.032H330.57z"/>
	</g>
	<g>
		<defs>
			<rect id="SVGID_171_" width="419.527" height="595.276"/>
		</defs>
		<clipPath id="SVGID_172_">
			<use xlink:href="#SVGID_171_"  overflow="visible"/>
		</clipPath>
		<path clip-path="url(#SVGID_172_)" d="M336.611,190.559c0,0.623-0.076,0.903-0.344,1.205c-0.293,0.35-0.742,0.532-1.273,0.532
			c-0.616,0-1.079-0.217-1.395-0.666c-0.146-0.21-0.203-0.356-0.23-0.603h0.925c0.084,0.357,0.329,0.547,0.714,0.547
			c0.217,0,0.428-0.084,0.567-0.225c0.118-0.125,0.188-0.344,0.188-0.631v-0.455c-0.314,0.365-0.603,0.504-1.029,0.504
			c-0.834,0-1.442-0.658-1.442-1.574c0-0.953,0.63-1.653,1.483-1.653c0.422,0,0.701,0.14,0.988,0.49v-0.392h0.848V190.559z
			 M334.168,189.15c0,0.477,0.385,0.854,0.854,0.854c0.463,0,0.848-0.385,0.848-0.84c0-0.483-0.378-0.862-0.848-0.862
			C334.546,188.303,334.168,188.682,334.168,189.15"/>
	</g>
	<g>
		<defs>
			<rect id="SVGID_173_" width="419.527" height="595.276"/>
		</defs>
		<clipPath id="SVGID_174_">
			<use xlink:href="#SVGID_173_"  overflow="visible"/>
		</clipPath>
		<path clip-path="url(#SVGID_174_)" d="M340.02,187.639v0.35c0.28-0.322,0.554-0.448,0.924-0.448c0.422,0,0.716,0.168,0.947,0.554
			c0.236-0.371,0.566-0.554,0.993-0.554c0.364,0,0.687,0.168,0.849,0.435c0.111,0.183,0.16,0.399,0.16,0.735v1.961h-0.848v-1.66
			c0-0.245-0.014-0.358-0.07-0.483c-0.076-0.168-0.229-0.266-0.427-0.266c-0.218,0-0.405,0.112-0.497,0.301
			c-0.062,0.134-0.092,0.287-0.092,0.554v1.555h-0.848v-1.612c0-0.258-0.014-0.391-0.062-0.504c-0.07-0.174-0.259-0.293-0.455-0.293
			c-0.188,0-0.393,0.112-0.477,0.273c-0.07,0.126-0.098,0.287-0.098,0.581v1.555h-0.849v-3.032H340.02z"/>
	</g>
	<g>
		<defs>
			<rect id="SVGID_175_" width="419.527" height="595.276"/>
		</defs>
		<clipPath id="SVGID_176_">
			<use xlink:href="#SVGID_175_"  overflow="visible"/>
		</clipPath>
		<path clip-path="url(#SVGID_176_)" d="M345.627,186.355c0,0.28-0.23,0.512-0.512,0.512c-0.287,0-0.512-0.231-0.512-0.518
			c0-0.273,0.23-0.505,0.512-0.505C345.402,185.845,345.627,186.068,345.627,186.355 M345.535,190.671h-0.848v-3.032h0.848V190.671z
			"/>
	</g>
	<g>
		<defs>
			<rect id="SVGID_177_" width="419.527" height="595.276"/>
		</defs>
		<clipPath id="SVGID_178_">
			<use xlink:href="#SVGID_177_"  overflow="visible"/>
		</clipPath>
		<path clip-path="url(#SVGID_178_)" d="M347.04,189.291c0.021,0.525,0.28,0.812,0.743,0.812c0.32,0,0.523-0.119,0.721-0.406
			l0.785,0.126c-0.26,0.623-0.771,0.946-1.484,0.946c-0.988,0-1.633-0.638-1.633-1.611c0-0.98,0.623-1.618,1.59-1.618
			s1.555,0.624,1.555,1.64v0.111H347.04z M348.504,188.751c-0.091-0.394-0.343-0.603-0.721-0.603c-0.379,0-0.639,0.225-0.715,0.603
			H348.504z"/>
	</g>
	<g>
		<defs>
			<rect id="SVGID_179_" width="419.527" height="595.276"/>
		</defs>
		<clipPath id="SVGID_180_">
			<use xlink:href="#SVGID_179_"  overflow="visible"/>
		</clipPath>
		<path clip-path="url(#SVGID_180_)" d="M350.884,186.355c0,0.28-0.231,0.512-0.512,0.512c-0.281,0-0.511-0.231-0.511-0.518
			c0-0.273,0.229-0.505,0.511-0.505C350.659,185.845,350.884,186.068,350.884,186.355 M350.792,192.289h-0.847v-4.65h0.847V192.289z
			"/>
	</g>
	<g>
		<defs>
			<rect id="SVGID_181_" width="419.527" height="595.276"/>
		</defs>
		<clipPath id="SVGID_182_">
			<use xlink:href="#SVGID_181_"  overflow="visible"/>
		</clipPath>
		<path clip-path="url(#SVGID_182_)" d="M353.25,188.345c-0.184-0.14-0.337-0.202-0.505-0.202c-0.188,0-0.329,0.111-0.329,0.258
			c0,0.141,0.091,0.203,0.482,0.338c0.345,0.117,0.449,0.168,0.59,0.271c0.224,0.154,0.336,0.387,0.336,0.674
			c0,0.637-0.525,1.084-1.274,1.084c-0.44,0-0.854-0.182-1.149-0.504l0.441-0.519c0.245,0.246,0.471,0.358,0.721,0.358
			c0.219,0,0.387-0.148,0.387-0.336c0-0.176-0.084-0.238-0.471-0.379c-0.377-0.141-0.446-0.168-0.58-0.267
			c-0.203-0.14-0.301-0.351-0.301-0.63c0-0.567,0.447-0.967,1.086-0.967c0.377,0,0.692,0.105,0.986,0.322L353.25,188.345z"/>
	</g>
	<g>
		<defs>
			<rect id="SVGID_183_" width="419.527" height="595.276"/>
		</defs>
		<clipPath id="SVGID_184_">
			<use xlink:href="#SVGID_183_"  overflow="visible"/>
		</clipPath>
		<polygon clip-path="url(#SVGID_184_)" points="355.271,188.745 356.407,187.639 357.557,187.639 356.134,188.969 357.669,190.67 
			356.498,190.67 355.363,189.368 355.271,189.458 355.271,190.67 354.425,190.67 354.425,185.424 355.271,185.424 		"/>
	</g>
	<g>
		<defs>
			<rect id="SVGID_185_" width="419.527" height="595.276"/>
		</defs>
		<clipPath id="SVGID_186_">
			<use xlink:href="#SVGID_185_"  overflow="visible"/>
		</clipPath>
		<path clip-path="url(#SVGID_186_)" d="M358.969,186.355c0,0.28-0.23,0.512-0.512,0.512c-0.287,0-0.512-0.231-0.512-0.518
			c0-0.273,0.23-0.505,0.512-0.505C358.744,185.845,358.969,186.068,358.969,186.355 M358.877,190.671h-0.847v-3.032h0.847V190.671z
			"/>
	</g>
	<g>
		<defs>
			<rect id="SVGID_187_" width="419.527" height="595.276"/>
		</defs>
		<clipPath id="SVGID_188_">
			<use xlink:href="#SVGID_187_"  overflow="visible"/>
		</clipPath>
		<polygon clip-path="url(#SVGID_188_)" points="360.823,189.795 359.836,191.65 359.297,191.588 360.046,189.704 		"/>
	</g>
	<g>
		<defs>
			<rect id="SVGID_189_" width="419.527" height="595.276"/>
		</defs>
		<clipPath id="SVGID_190_">
			<use xlink:href="#SVGID_189_"  overflow="visible"/>
		</clipPath>
		<path clip-path="url(#SVGID_190_)" d="M308.053,196.038v3.032h-0.848v-0.393c-0.273,0.344-0.574,0.49-0.994,0.49
			c-0.854,0-1.492-0.693-1.492-1.617c0-0.91,0.646-1.611,1.479-1.611c0.411,0,0.714,0.147,1.008,0.49v-0.392H308.053
			L308.053,196.038z M305.594,197.551c0,0.477,0.387,0.854,0.854,0.854c0.463,0,0.848-0.386,0.848-0.841
			c0-0.483-0.371-0.861-0.848-0.861C305.973,196.703,305.594,197.081,305.594,197.551"/>
	</g>
	<g>
		<defs>
			<rect id="SVGID_191_" width="419.527" height="595.276"/>
		</defs>
		<clipPath id="SVGID_192_">
			<use xlink:href="#SVGID_191_"  overflow="visible"/>
		</clipPath>
		<rect x="308.861" y="193.825" clip-path="url(#SVGID_192_)" width="0.849" height="5.245"/>
	</g>
	<g>
		<defs>
			<rect id="SVGID_193_" width="419.527" height="595.276"/>
		</defs>
		<clipPath id="SVGID_194_">
			<use xlink:href="#SVGID_193_"  overflow="visible"/>
		</clipPath>
		<path clip-path="url(#SVGID_194_)" d="M311.229,197.691c0.021,0.524,0.28,0.812,0.744,0.812c0.32,0,0.523-0.12,0.721-0.406
			l0.783,0.125c-0.259,0.623-0.77,0.946-1.483,0.946c-0.987,0-1.632-0.637-1.632-1.61c0-0.98,0.623-1.619,1.59-1.619
			s1.556,0.623,1.556,1.64v0.112H311.229L311.229,197.691z M312.691,197.152c-0.09-0.394-0.342-0.604-0.721-0.604
			s-0.638,0.225-0.715,0.604H312.691z"/>
	</g>
	<g>
		<defs>
			<rect id="SVGID_195_" width="419.527" height="595.276"/>
		</defs>
		<clipPath id="SVGID_196_">
			<use xlink:href="#SVGID_195_"  overflow="visible"/>
		</clipPath>
		<path clip-path="url(#SVGID_196_)" d="M316.745,196.43c0.301-0.343,0.603-0.49,1.009-0.49c0.84,0,1.479,0.701,1.479,1.604
			c0,0.931-0.639,1.624-1.492,1.624c-0.42,0-0.715-0.146-0.994-0.49v0.393h-0.848v-5.246h0.848L316.745,196.43L316.745,196.43z
			 M316.654,197.551c0,0.477,0.385,0.854,0.854,0.854c0.463,0,0.848-0.386,0.848-0.841c0-0.483-0.377-0.861-0.854-0.861
			C317.032,196.703,316.654,197.081,316.654,197.551"/>
	</g>
	<g>
		<defs>
			<rect id="SVGID_197_" width="419.527" height="595.276"/>
		</defs>
		<clipPath id="SVGID_198_">
			<use xlink:href="#SVGID_197_"  overflow="visible"/>
		</clipPath>
		<path clip-path="url(#SVGID_198_)" d="M320.588,197.691c0.021,0.524,0.28,0.812,0.743,0.812c0.321,0,0.524-0.12,0.722-0.406
			l0.783,0.125c-0.259,0.623-0.77,0.946-1.484,0.946c-0.986,0-1.631-0.637-1.631-1.61c0-0.98,0.622-1.619,1.59-1.619
			c0.967,0,1.556,0.623,1.556,1.64v0.112H320.588L320.588,197.691z M322.052,197.152c-0.091-0.394-0.343-0.604-0.721-0.604
			c-0.379,0-0.638,0.225-0.715,0.604H322.052z"/>
	</g>
	<g>
		<defs>
			<rect id="SVGID_199_" width="419.527" height="595.276"/>
		</defs>
		<clipPath id="SVGID_200_">
			<use xlink:href="#SVGID_199_"  overflow="visible"/>
		</clipPath>
		<polygon clip-path="url(#SVGID_200_)" points="326.161,198.335 326.161,199.07 323.059,199.07 324.782,196.759 323.325,196.759 
			323.325,196.023 326.273,196.023 324.557,198.335 		"/>
	</g>
	<g>
		<defs>
			<rect id="SVGID_201_" width="419.527" height="595.276"/>
		</defs>
		<clipPath id="SVGID_202_">
			<use xlink:href="#SVGID_201_"  overflow="visible"/>
		</clipPath>
		<path clip-path="url(#SVGID_202_)" d="M330.18,196.746c-0.184-0.141-0.338-0.203-0.506-0.203c-0.188,0-0.329,0.112-0.329,0.259
			c0,0.14,0.091,0.203,0.483,0.337c0.344,0.118,0.447,0.168,0.589,0.272c0.224,0.153,0.336,0.386,0.336,0.673
			c0,0.637-0.524,1.085-1.274,1.085c-0.44,0-0.854-0.183-1.148-0.504l0.441-0.519c0.244,0.246,0.47,0.357,0.722,0.357
			c0.217,0,0.385-0.148,0.385-0.336c0-0.175-0.084-0.238-0.469-0.378c-0.378-0.142-0.448-0.169-0.581-0.267
			c-0.203-0.14-0.303-0.351-0.303-0.631c0-0.566,0.449-0.966,1.086-0.966c0.379,0,0.693,0.104,0.988,0.322L330.18,196.746z"/>
	</g>
	<g>
		<defs>
			<rect id="SVGID_203_" width="419.527" height="595.276"/>
		</defs>
		<clipPath id="SVGID_204_">
			<use xlink:href="#SVGID_203_"  overflow="visible"/>
		</clipPath>
		<polygon clip-path="url(#SVGID_204_)" points="330.954,196.039 331.941,196.039 332.854,197.762 333.714,196.039 334.688,196.039 
			332.236,200.688 331.275,200.688 332.391,198.607 		"/>
	</g>
	<g>
		<defs>
			<rect id="SVGID_205_" width="419.527" height="595.276"/>
		</defs>
		<clipPath id="SVGID_206_">
			<use xlink:href="#SVGID_205_"  overflow="visible"/>
		</clipPath>
		<path clip-path="url(#SVGID_206_)" d="M336.641,196.746c-0.184-0.141-0.338-0.203-0.506-0.203c-0.188,0-0.328,0.112-0.328,0.259
			c0,0.14,0.09,0.203,0.482,0.337c0.344,0.118,0.447,0.168,0.589,0.272c0.224,0.153,0.336,0.386,0.336,0.673
			c0,0.637-0.524,1.085-1.274,1.085c-0.44,0-0.854-0.183-1.148-0.504l0.441-0.519c0.244,0.246,0.47,0.357,0.721,0.357
			c0.218,0,0.386-0.148,0.386-0.336c0-0.175-0.084-0.238-0.47-0.378c-0.377-0.142-0.447-0.169-0.581-0.267
			c-0.202-0.14-0.302-0.351-0.302-0.631c0-0.566,0.449-0.966,1.087-0.966c0.378,0,0.692,0.104,0.987,0.322L336.641,196.746z"/>
	</g>
	<g>
		<defs>
			<rect id="SVGID_207_" width="419.527" height="595.276"/>
		</defs>
		<clipPath id="SVGID_208_">
			<use xlink:href="#SVGID_207_"  overflow="visible"/>
		</clipPath>
		<polygon clip-path="url(#SVGID_208_)" points="338.669,199.07 337.82,199.07 337.82,196.773 337.484,196.773 337.484,196.039 
			337.82,196.039 337.82,195.002 338.669,195.002 338.669,196.039 339.271,196.039 339.271,196.773 338.669,196.773 		"/>
	</g>
	<g>
		<defs>
			<rect id="SVGID_209_" width="419.527" height="595.276"/>
		</defs>
		<clipPath id="SVGID_210_">
			<use xlink:href="#SVGID_209_"  overflow="visible"/>
		</clipPath>
		<path clip-path="url(#SVGID_210_)" d="M340.411,197.691c0.021,0.524,0.28,0.812,0.743,0.812c0.32,0,0.523-0.12,0.721-0.406
			l0.785,0.125c-0.26,0.623-0.771,0.946-1.485,0.946c-0.987,0-1.632-0.637-1.632-1.61c0-0.98,0.623-1.619,1.59-1.619
			s1.555,0.623,1.555,1.64v0.112H340.411L340.411,197.691z M341.875,197.152c-0.091-0.394-0.343-0.604-0.721-0.604
			c-0.379,0-0.639,0.225-0.715,0.604H341.875z"/>
	</g>
	<g>
		<defs>
			<rect id="SVGID_211_" width="419.527" height="595.276"/>
		</defs>
		<clipPath id="SVGID_212_">
			<use xlink:href="#SVGID_211_"  overflow="visible"/>
		</clipPath>
		<path clip-path="url(#SVGID_212_)" d="M344.178,196.039v0.35c0.28-0.322,0.553-0.449,0.924-0.449c0.422,0,0.715,0.168,0.946,0.555
			c0.237-0.371,0.567-0.555,0.994-0.555c0.364,0,0.687,0.168,0.849,0.436c0.111,0.182,0.16,0.398,0.16,0.734v1.961h-0.848v-1.659
			c0-0.245-0.014-0.356-0.07-0.483c-0.076-0.168-0.23-0.266-0.427-0.266c-0.218,0-0.406,0.111-0.497,0.301
			c-0.062,0.135-0.092,0.287-0.092,0.555v1.553h-0.848v-1.61c0-0.259-0.015-0.392-0.062-0.504c-0.07-0.175-0.259-0.294-0.455-0.294
			c-0.189,0-0.393,0.111-0.477,0.273c-0.07,0.125-0.098,0.287-0.098,0.582v1.553h-0.849v-3.031H344.178z"/>
	</g>
	<g>
		<defs>
			<rect id="SVGID_213_" width="419.527" height="595.276"/>
		</defs>
		<clipPath id="SVGID_214_">
			<use xlink:href="#SVGID_213_"  overflow="visible"/>
		</clipPath>
		<path clip-path="url(#SVGID_214_)" d="M349.807,197.754c0,0.455,0.211,0.693,0.623,0.693c0.406,0,0.616-0.238,0.616-0.693v-1.716
			h0.849v1.856c0,0.818-0.525,1.273-1.465,1.273c-0.945,0-1.471-0.455-1.471-1.273v-1.856h0.848V197.754L349.807,197.754z"/>
	</g>
	<g>
		<defs>
			<rect id="SVGID_215_" width="419.527" height="595.276"/>
		</defs>
		<clipPath id="SVGID_216_">
			<use xlink:href="#SVGID_215_"  overflow="visible"/>
		</clipPath>
		<path clip-path="url(#SVGID_216_)" fill="#FFFF00" d="M270.039,213.018h29.511c-0.587-14.853-6.812-28.252-16.606-38.115
			l-20.098,21.631C266.889,200.962,269.52,206.695,270.039,213.018"/>
	</g>
	<g>
		<defs>
			<rect id="SVGID_217_" width="419.527" height="595.276"/>
		</defs>
		<clipPath id="SVGID_218_">
			<use xlink:href="#SVGID_217_"  overflow="visible"/>
		</clipPath>
		<path clip-path="url(#SVGID_218_)" fill="#FFFF00" d="M259.471,193.402l20.094-21.625c-9.489-8.142-21.66-13.229-35.014-13.76
			v29.513C250.152,187.991,255.292,190.111,259.471,193.402"/>
	</g>
	<g>
		<defs>
			<rect id="SVGID_219_" width="419.527" height="595.276"/>
		</defs>
		<clipPath id="SVGID_220_">
			<use xlink:href="#SVGID_219_"  overflow="visible"/>
		</clipPath>
		<path clip-path="url(#SVGID_220_)" fill="#FFFF00" d="M242.25,243.211c-15.381,0-27.895-12.513-27.895-27.893
			c0-14.603,11.285-26.613,25.592-27.789v-29.51c-30.609,1.209-55.059,26.394-55.059,57.299c0,31.68,25.682,57.361,57.361,57.361
			c30.904,0,56.09-24.447,57.299-55.06h-29.511C268.863,231.928,256.854,243.211,242.25,243.211"/>
	</g>
	<g>
		<defs>
			<rect id="SVGID_221_" width="419.527" height="595.276"/>
		</defs>
		<clipPath id="SVGID_222_">
			<use xlink:href="#SVGID_221_"  overflow="visible"/>
		</clipPath>
		<polygon clip-path="url(#SVGID_222_)" points="208.798,247.173 208.798,246.155 213.426,246.155 209.779,252.332 208.834,251.773 
			211.58,247.173 		"/>
	</g>
	<g>
		<defs>
			<rect id="SVGID_223_" width="419.527" height="595.276"/>
		</defs>
		<clipPath id="SVGID_224_">
			<use xlink:href="#SVGID_223_"  overflow="visible"/>
		</clipPath>
		<path clip-path="url(#SVGID_224_)" d="M215.736,247.173l-0.232,0.937c0.207-0.027,0.307-0.036,0.439-0.036
			c1.172,0,2.045,0.891,2.045,2.088c0,1.271-0.963,2.153-2.35,2.153c-0.783,0-1.388-0.244-1.918-0.784l0.387-1.017
			c0.451,0.521,0.928,0.764,1.504,0.764c0.666,0,1.207-0.512,1.207-1.151c0-0.676-0.604-1.207-1.369-1.207
			c-0.414,0-0.783,0.126-1.152,0.388h-0.062l0.711-3.151h2.773v1.018H215.736L215.736,247.173z"/>
	</g>
	<g>
		<defs>
			<rect id="SVGID_225_" width="419.527" height="595.276"/>
		</defs>
		<clipPath id="SVGID_226_">
			<use xlink:href="#SVGID_225_"  overflow="visible"/>
		</clipPath>
		<path clip-path="url(#SVGID_226_)" d="M221.911,247.498c0,0.828-0.647,1.43-1.539,1.43c-0.882,0-1.513-0.602-1.513-1.439
			c0-0.801,0.656-1.404,1.529-1.404C221.264,246.084,221.911,246.688,221.911,247.498 M219.605,247.498
			c0,0.439,0.353,0.792,0.783,0.792c0.422,0,0.774-0.353,0.774-0.784c0-0.422-0.353-0.773-0.783-0.773
			C219.958,246.732,219.605,247.084,219.605,247.498 M224.1,246.229l-3.574,6.185l-0.478-0.28l3.574-6.175L224.1,246.229z
			 M225.297,250.829c0,0.819-0.648,1.422-1.531,1.422c-0.882,0-1.512-0.603-1.512-1.44c0-0.793,0.656-1.396,1.529-1.396
			C224.648,249.415,225.297,250.018,225.297,250.829 M223,250.818c0,0.441,0.343,0.793,0.775,0.793c0.423,0,0.772-0.352,0.772-0.782
			c0-0.424-0.342-0.774-0.772-0.774C223.352,250.055,223,250.405,223,250.818"/>
	</g>
	<g>
		<defs>
			<rect id="SVGID_227_" width="419.527" height="595.276"/>
		</defs>
		<clipPath id="SVGID_228_">
			<use xlink:href="#SVGID_227_"  overflow="visible"/>
		</clipPath>
		<polygon clip-path="url(#SVGID_228_)" points="275.998,196.766 275.994,195.748 278.029,195.741 278.053,201.746 276.883,201.75 
			276.863,196.764 		"/>
	</g>
	<g>
		<defs>
			<rect id="SVGID_229_" width="419.527" height="595.276"/>
		</defs>
		<clipPath id="SVGID_230_">
			<use xlink:href="#SVGID_229_"  overflow="visible"/>
		</clipPath>
		<path clip-path="url(#SVGID_230_)" d="M284.857,199.723l0.004,0.936l-0.713,0.003l0.006,1.063l-1.09,0.004l-0.004-1.063
			l-2.937,0.011l-0.002-0.521l2.955-4.541l1.053-0.003l0.017,4.113L284.857,199.723z M283.049,197.343l-1.541,2.392l1.549-0.006
			L283.049,197.343z"/>
	</g>
	<g>
		<defs>
			<rect id="SVGID_231_" width="419.527" height="595.276"/>
		</defs>
		<clipPath id="SVGID_232_">
			<use xlink:href="#SVGID_231_"  overflow="visible"/>
		</clipPath>
		<path clip-path="url(#SVGID_232_)" d="M288.348,197.044c0.004,0.828-0.643,1.433-1.535,1.437
			c-0.881,0.004-1.514-0.598-1.518-1.435c-0.002-0.801,0.652-1.407,1.525-1.411C287.693,195.633,288.344,196.232,288.348,197.044
			 M286.043,197.053c0.002,0.44,0.354,0.791,0.787,0.789c0.422-0.001,0.771-0.355,0.771-0.787c-0.002-0.422-0.355-0.771-0.787-0.771
			C286.391,196.286,286.041,196.639,286.043,197.053 M290.531,195.766l-3.551,6.199l-0.48-0.277l3.553-6.189L290.531,195.766z
			 M291.744,200.361c0.004,0.82-0.643,1.426-1.523,1.429c-0.883,0.004-1.516-0.597-1.52-1.435c-0.002-0.793,0.652-1.397,1.525-1.401
			C291.092,198.951,291.742,199.551,291.744,200.361 M289.449,200.361c0.002,0.441,0.346,0.791,0.777,0.789
			c0.422,0,0.772-0.353,0.771-0.784c-0.002-0.425-0.347-0.774-0.778-0.772C289.797,199.595,289.447,199.948,289.449,200.361"/>
	</g>
	<g>
		<defs>
			<rect id="SVGID_233_" width="419.527" height="595.276"/>
		</defs>
		<clipPath id="SVGID_234_">
			<use xlink:href="#SVGID_233_"  overflow="visible"/>
		</clipPath>
		<polygon clip-path="url(#SVGID_234_)" points="251.124,172.925 251.124,171.907 253.158,171.907 253.158,177.912 251.988,177.912 
			251.988,172.925 		"/>
	</g>
	<g>
		<defs>
			<rect id="SVGID_235_" width="419.527" height="595.276"/>
		</defs>
		<clipPath id="SVGID_236_">
			<use xlink:href="#SVGID_235_"  overflow="visible"/>
		</clipPath>
		<polygon clip-path="url(#SVGID_236_)" points="256.227,172.925 256.227,171.907 258.261,171.907 258.261,177.912 257.091,177.912 
			257.091,172.925 		"/>
	</g>
	<g>
		<defs>
			<rect id="SVGID_237_" width="419.527" height="595.276"/>
		</defs>
		<clipPath id="SVGID_238_">
			<use xlink:href="#SVGID_237_"  overflow="visible"/>
		</clipPath>
		<path clip-path="url(#SVGID_238_)" d="M263.473,173.25c0,0.828-0.647,1.432-1.539,1.432c-0.883,0-1.513-0.604-1.513-1.44
			c0-0.802,0.657-1.404,1.53-1.404S263.473,172.439,263.473,173.25 M261.168,173.25c0,0.441,0.352,0.792,0.783,0.792
			c0.422,0,0.773-0.351,0.773-0.783c0-0.423-0.353-0.774-0.783-0.774C261.52,172.484,261.168,172.835,261.168,173.25 M265.66,171.98
			l-3.574,6.184l-0.479-0.279l3.574-6.175L265.66,171.98z M266.857,176.58c0,0.818-0.648,1.422-1.53,1.422
			c-0.884,0-1.513-0.604-1.513-1.439c0-0.793,0.656-1.396,1.529-1.396C266.209,175.167,266.857,175.771,266.857,176.58
			 M264.562,176.57c0,0.441,0.342,0.793,0.773,0.793c0.423,0,0.773-0.352,0.773-0.783c0-0.423-0.342-0.773-0.773-0.773
			C264.913,175.807,264.562,176.157,264.562,176.57"/>
	</g>
	<g>
		<defs>
			<rect id="SVGID_239_" width="419.527" height="595.276"/>
		</defs>
		<clipPath id="SVGID_240_">
			<use xlink:href="#SVGID_239_"  overflow="visible"/>
		</clipPath>
		<path clip-path="url(#SVGID_240_)" fill="#231F20" d="M149.373,156.227c0.099-0.487,0.432-0.775,0.918-0.775
			s0.81,0.27,0.927,0.775H149.373z M152.262,156.917v-0.144c0-1.306-0.756-2.105-1.998-2.105c-1.242,0-2.043,0.818-2.043,2.078
			c0,1.252,0.828,2.07,2.097,2.07c0.918,0,1.575-0.414,1.908-1.215l-1.008-0.162c-0.252,0.369-0.513,0.522-0.927,0.522
			c-0.594,0-0.927-0.369-0.954-1.045H152.262z M147.476,154.902c-0.315-0.162-0.603-0.234-0.99-0.234
			c-1.215,0-2.141,0.908-2.141,2.096c0,1.162,0.926,2.053,2.132,2.053c0.36,0,0.648-0.063,0.999-0.243v-1.062
			c-0.297,0.234-0.549,0.324-0.882,0.324c-0.648,0-1.125-0.459-1.125-1.09c0-0.63,0.477-1.098,1.125-1.098
			c0.324,0,0.567,0.09,0.882,0.332V154.902L147.476,154.902z M143.46,155.062c-0.377-0.277-0.782-0.412-1.268-0.412
			c-0.819,0-1.395,0.512-1.395,1.24c0,0.36,0.126,0.631,0.387,0.811c0.171,0.127,0.26,0.163,0.746,0.343
			c0.496,0.181,0.604,0.261,0.604,0.486c0,0.243-0.216,0.432-0.496,0.432c-0.324,0-0.612-0.144-0.926-0.459l-0.567,0.666
			c0.378,0.413,0.908,0.647,1.475,0.647c0.964,0,1.638-0.575,1.638-1.395c0-0.369-0.144-0.667-0.432-0.865
			c-0.179-0.135-0.314-0.197-0.755-0.351c-0.505-0.171-0.622-0.252-0.622-0.433c0-0.188,0.18-0.332,0.424-0.332
			c0.216,0,0.414,0.08,0.648,0.261L143.46,155.062z M139.679,151.951h-1.088v6.74h1.088V151.951z M135.408,155.648
			c0.613,0,1.108,0.485,1.108,1.098c0,0.604-0.495,1.09-1.099,1.09c-0.621,0-1.107-0.486-1.107-1.107
			C134.31,156.145,134.814,155.648,135.408,155.648 M135.426,154.668c-1.305,0-2.24,0.854-2.24,2.042
			c0,1.252,0.899,2.106,2.204,2.106c1.333,0,2.25-0.846,2.25-2.08C137.64,155.514,136.732,154.668,135.426,154.668 M129.933,155.452
			v-1.747h0.406c0.432,0,0.684,0.054,0.864,0.189c0.189,0.144,0.306,0.404,0.306,0.692c0,0.577-0.369,0.865-1.098,0.865H129.933z
			 M129.933,156.467h0.757c0.711,0,1.197-0.171,1.539-0.531c0.305-0.332,0.485-0.817,0.485-1.341c0-0.575-0.225-1.098-0.611-1.448
			c-0.378-0.332-0.801-0.459-1.584-0.459h-1.755v6.002h1.169V156.467L129.933,156.467z M119.926,154.793h-1.224l1.998,3.979h0.504
			l1.035-2.367l1.053,2.367h0.495l2.016-3.979h-1.215l-1.044,2.287l-1.062-2.395h-0.468l-1.062,2.358L119.926,154.793z
			 M113.238,154.794h-1.087v2.386c0,1.053,0.674,1.637,1.889,1.637c1.206,0,1.88-0.584,1.88-1.637v-2.386h-1.087V157
			c0,0.585-0.271,0.891-0.793,0.891c-0.531,0-0.802-0.306-0.802-0.891V154.794z M108.958,155.648c0.603,0,1.089,0.485,1.089,1.106
			c0,0.586-0.495,1.081-1.089,1.081c-0.604,0-1.099-0.486-1.099-1.1C107.859,156.134,108.345,155.648,108.958,155.648 M111,154.794
			h-1.088v0.503c-0.369-0.449-0.729-0.629-1.269-0.629c-1.098,0-1.908,0.898-1.908,2.123c0,1.18,0.783,2.025,1.854,2.025
			c0.549,0,0.918-0.181,1.323-0.647v0.584c0,0.369-0.09,0.649-0.243,0.812c-0.18,0.18-0.45,0.287-0.729,0.287
			c-0.495,0-0.811-0.242-0.919-0.703h-1.187c0.036,0.316,0.108,0.506,0.297,0.775c0.405,0.575,0.998,0.854,1.791,0.854
			c0.684,0,1.26-0.233,1.638-0.683c0.341-0.387,0.44-0.747,0.44-1.549V154.794L111,154.794z M102.041,154.794v3.896h1.088v-2.016
			c0-0.738,0.27-1.08,0.828-1.08c0.289,0,0.532,0.117,0.64,0.307c0.081,0.135,0.108,0.306,0.108,0.63v2.159h1.088v-2.475
			c0-0.531-0.081-0.818-0.306-1.08c-0.261-0.296-0.674-0.467-1.133-0.467c-0.532,0-0.883,0.171-1.225,0.611v-0.485H102.041z
			 M100.355,152.491c-0.36,0-0.657,0.297-0.657,0.646c0,0.369,0.288,0.666,0.657,0.666c0.36,0,0.656-0.297,0.656-0.656
			C101.011,152.777,100.724,152.491,100.355,152.491 M100.894,154.794h-1.088v3.896h1.088V154.794z M96.432,154.794v3.896h1.087
			v-1.871c0-0.441,0.063-0.685,0.243-0.892c0.162-0.18,0.396-0.278,0.693-0.278c0.216,0,0.324,0.026,0.522,0.135l0.153-1.016
			c-0.198-0.082-0.306-0.1-0.477-0.1c-0.495,0-0.855,0.225-1.134,0.719v-0.593H96.432L96.432,154.794z M93.258,155.648
			c0.612,0,1.107,0.485,1.107,1.098c0,0.604-0.495,1.09-1.098,1.09c-0.622,0-1.108-0.486-1.108-1.107
			C92.159,156.145,92.663,155.648,93.258,155.648 M93.276,154.668c-1.306,0-2.241,0.854-2.241,2.042
			c0,1.252,0.899,2.106,2.205,2.106c1.332,0,2.249-0.846,2.249-2.08C95.489,155.514,94.581,154.668,93.276,154.668 M89.77,155.738
			h0.774v-0.944H89.77v-1.332h-1.088v1.332H88.25v0.944h0.432v2.951h1.088V155.738z M86.923,152.491
			c-0.36,0-0.657,0.297-0.657,0.646c0,0.369,0.288,0.666,0.657,0.666c0.359,0,0.656-0.297,0.656-0.656
			C87.579,152.777,87.291,152.491,86.923,152.491 M87.462,154.794h-1.088v3.896h1.088V154.794z M81.482,154.794v3.896h1.088v-2.016
			c0-0.738,0.27-1.08,0.829-1.08c0.288,0,0.531,0.117,0.639,0.307c0.081,0.135,0.108,0.306,0.108,0.63v2.159h1.088v-2.475
			c0-0.531-0.081-0.818-0.306-1.08c-0.26-0.296-0.674-0.467-1.133-0.467c-0.532,0-0.883,0.171-1.225,0.611v-0.485H81.482z
			 M78.308,155.648c0.613,0,1.108,0.485,1.108,1.098c0,0.604-0.495,1.09-1.099,1.09c-0.621,0-1.107-0.486-1.107-1.107
			C77.21,156.145,77.714,155.648,78.308,155.648 M78.326,154.668c-1.305,0-2.24,0.854-2.24,2.042c0,1.252,0.899,2.106,2.204,2.106
			c1.333,0,2.25-0.846,2.25-2.08C80.54,155.514,79.632,154.668,78.326,154.668 M69.083,154.794v3.896h1.088v-1.998
			c0-0.377,0.036-0.584,0.126-0.746c0.108-0.207,0.369-0.352,0.612-0.352c0.253,0,0.496,0.153,0.586,0.379
			c0.063,0.144,0.081,0.314,0.081,0.647v2.069h1.088v-1.998c0-0.342,0.036-0.539,0.117-0.711c0.117-0.242,0.36-0.387,0.639-0.387
			c0.253,0,0.451,0.127,0.55,0.342c0.072,0.162,0.09,0.307,0.09,0.621v2.133h1.088v-2.52c0-0.432-0.063-0.711-0.207-0.945
			c-0.207-0.341-0.62-0.557-1.088-0.557c-0.55,0-0.973,0.234-1.279,0.71c-0.297-0.494-0.674-0.71-1.214-0.71
			c-0.478,0-0.829,0.162-1.189,0.575v-0.449H69.083z"/>
	</g>
	<g>
		<defs>
			<rect id="SVGID_241_" width="419.527" height="595.276"/>
		</defs>
		<clipPath id="SVGID_242_">
			<use xlink:href="#SVGID_241_"  overflow="visible"/>
		</clipPath>
		<path clip-path="url(#SVGID_242_)" fill="#231F20" d="M188.354,144.848c0.612,0,1.107,0.487,1.107,1.1
			c0,0.603-0.495,1.09-1.098,1.09c-0.622,0-1.108-0.487-1.108-1.107C187.254,145.344,187.759,144.848,188.354,144.848
			 M188.372,143.869c-1.306,0-2.241,0.854-2.241,2.042c0,1.251,0.898,2.104,2.205,2.104c1.332,0,2.249-0.845,2.249-2.078
			C190.584,144.714,189.677,143.869,188.372,143.869 M183.146,144.848c0.604,0,1.09,0.487,1.09,1.108
			c0,0.585-0.495,1.081-1.09,1.081c-0.604,0-1.099-0.487-1.099-1.1C182.048,145.335,182.534,144.848,183.146,144.848
			 M185.188,143.994H184.1v0.504c-0.369-0.45-0.729-0.629-1.27-0.629c-1.098,0-1.907,0.898-1.907,2.123
			c0,1.179,0.782,2.023,1.853,2.023c0.55,0,0.92-0.179,1.324-0.646v0.584c0,0.37-0.09,0.648-0.242,0.811
			c-0.18,0.18-0.451,0.289-0.73,0.289c-0.495,0-0.811-0.244-0.918-0.703h-1.188c0.037,0.315,0.108,0.504,0.297,0.774
			c0.404,0.576,0.998,0.854,1.791,0.854c0.685,0,1.261-0.233,1.638-0.684c0.342-0.387,0.44-0.747,0.44-1.548V143.994
			L185.188,143.994z M177.286,145.426c0.099-0.486,0.432-0.775,0.918-0.775c0.485,0,0.81,0.271,0.927,0.775H177.286z
			 M180.175,146.117v-0.143c0-1.307-0.756-2.105-1.998-2.105c-1.241,0-2.043,0.816-2.043,2.078c0,1.251,0.828,2.068,2.097,2.068
			c0.918,0,1.576-0.412,1.908-1.214l-1.008-0.161c-0.252,0.368-0.513,0.522-0.927,0.522c-0.595,0-0.927-0.37-0.954-1.046H180.175z
			 M174.676,141.691c-0.359,0-0.656,0.295-0.656,0.646c0,0.369,0.287,0.665,0.656,0.665c0.359,0,0.656-0.296,0.656-0.655
			C175.332,141.979,175.043,141.691,174.676,141.691 M175.215,143.995h-1.088v3.896h1.088V143.995z M170.396,141.15h-1.087v6.74
			h1.087v-1.557l0.117-0.117l1.458,1.674h1.503l-1.971-2.187l1.827-1.709h-1.476l-1.458,1.421V141.15L170.396,141.15z
			 M168.22,144.264c-0.378-0.279-0.783-0.412-1.269-0.412c-0.819,0-1.394,0.512-1.394,1.24c0,0.36,0.125,0.631,0.386,0.811
			c0.171,0.125,0.261,0.162,0.747,0.342c0.495,0.18,0.604,0.261,0.604,0.486c0,0.242-0.217,0.433-0.496,0.433
			c-0.324,0-0.612-0.146-0.927-0.46l-0.566,0.666c0.377,0.414,0.908,0.646,1.475,0.646c0.963,0,1.637-0.574,1.637-1.394
			c0-0.369-0.143-0.666-0.431-0.864c-0.18-0.135-0.315-0.197-0.756-0.351c-0.504-0.171-0.622-0.252-0.622-0.433
			c0-0.189,0.181-0.334,0.424-0.334c0.216,0,0.414,0.082,0.648,0.262L168.22,144.264z M163.92,141.691
			c-0.36,0-0.657,0.295-0.657,0.646c0,0.369,0.297,0.665,0.657,0.665c0.359,0,0.656-0.296,0.656-0.655
			C164.577,141.979,164.289,141.691,163.92,141.691 M164.459,143.994h-1.088v5.976h1.088V143.994z M159.55,145.426
			c0.099-0.486,0.432-0.775,0.918-0.775c0.486,0,0.81,0.271,0.927,0.775H159.55z M162.438,146.117v-0.143
			c0-1.307-0.756-2.105-1.998-2.105c-1.242,0-2.043,0.816-2.043,2.078c0,1.251,0.828,2.068,2.097,2.068
			c0.918,0,1.575-0.412,1.908-1.214l-1.008-0.161c-0.252,0.368-0.513,0.522-0.927,0.522c-0.594,0-0.927-0.37-0.954-1.046H162.438z
			 M156.939,141.691c-0.36,0-0.657,0.295-0.657,0.646c0,0.369,0.288,0.665,0.657,0.665c0.359,0,0.656-0.296,0.656-0.655
			C157.596,141.979,157.308,141.691,156.939,141.691 M157.479,143.995h-1.088v3.896h1.088V143.995z M149.177,143.995v3.896h1.088
			v-1.998c0-0.377,0.036-0.584,0.126-0.746c0.108-0.209,0.369-0.353,0.612-0.353c0.253,0,0.496,0.153,0.586,0.379
			c0.063,0.144,0.081,0.315,0.081,0.647v2.07h1.088v-1.998c0-0.342,0.036-0.539,0.117-0.711c0.117-0.244,0.36-0.388,0.639-0.388
			c0.253,0,0.451,0.126,0.55,0.343c0.072,0.162,0.09,0.307,0.09,0.621v2.133h1.088v-2.52c0-0.434-0.063-0.711-0.207-0.945
			c-0.207-0.342-0.62-0.557-1.088-0.557c-0.55,0-0.973,0.232-1.279,0.71c-0.297-0.495-0.674-0.71-1.214-0.71
			c-0.478,0-0.829,0.161-1.189,0.574v-0.448H149.177z M143.208,145.426c0.099-0.486,0.432-0.775,0.918-0.775s0.81,0.271,0.927,0.775
			H143.208z M146.098,146.117v-0.143c0-1.307-0.756-2.105-1.998-2.105c-1.242,0-2.043,0.816-2.043,2.078
			c0,1.251,0.828,2.068,2.097,2.068c0.918,0,1.575-0.412,1.908-1.214l-1.008-0.161c-0.252,0.368-0.513,0.522-0.927,0.522
			c-0.594,0-0.927-0.37-0.954-1.046H146.098z M140.6,141.691c-0.36,0-0.657,0.295-0.657,0.646c0,0.369,0.288,0.665,0.657,0.665
			c0.359,0,0.656-0.296,0.656-0.655C141.255,141.979,140.968,141.691,140.6,141.691 M141.139,143.995h-1.088v3.896h1.088V143.995z
			 M135.159,143.995v3.896h1.088v-2.016c0-0.738,0.27-1.081,0.828-1.081c0.289,0,0.532,0.117,0.64,0.308
			c0.081,0.135,0.108,0.306,0.108,0.629v2.16h1.088v-2.475c0-0.532-0.081-0.818-0.306-1.08c-0.261-0.297-0.674-0.467-1.133-0.467
			c-0.532,0-0.883,0.17-1.225,0.611v-0.485H135.159z M131.937,144.848c0.613,0,1.09,0.487,1.09,1.108
			c0,0.585-0.495,1.081-1.09,1.081c-0.603,0-1.098-0.487-1.098-1.1C130.838,145.335,131.325,144.848,131.937,144.848
			 M132.91,143.995v0.502c-0.378-0.44-0.766-0.628-1.297-0.628c-1.071,0-1.898,0.898-1.898,2.068c0,1.188,0.818,2.078,1.916,2.078
			c0.541,0,0.928-0.188,1.279-0.629v0.504h1.088v-3.896H132.91z M128.255,141.691c-0.359,0-0.656,0.295-0.656,0.646
			c0,0.369,0.288,0.665,0.656,0.665c0.36,0,0.657-0.296,0.657-0.655C128.913,141.979,128.625,141.691,128.255,141.691
			 M128.795,143.995h-1.088v3.896h1.088V143.995z M122.815,143.995v3.896h1.088v-2.016c0-0.738,0.27-1.081,0.828-1.081
			c0.288,0,0.532,0.117,0.64,0.308c0.081,0.135,0.108,0.306,0.108,0.629v2.16h1.088v-2.475c0-0.532-0.081-0.818-0.306-1.08
			c-0.261-0.297-0.674-0.467-1.134-0.467c-0.531,0-0.882,0.17-1.224,0.611v-0.485H122.815z M117.91,141.15v6.74h1.088v-1.998
			c0-0.746,0.27-1.099,0.828-1.099c0.289,0,0.532,0.126,0.64,0.315c0.081,0.136,0.108,0.315,0.108,0.648v2.133h1.088v-2.447
			c0-0.551-0.081-0.828-0.306-1.099c-0.261-0.306-0.674-0.476-1.133-0.476c-0.532,0-0.883,0.179-1.225,0.629v-3.348H117.91z
			 M116.887,144.102c-0.315-0.162-0.603-0.232-0.99-0.232c-1.214,0-2.141,0.906-2.141,2.096c0,1.161,0.927,2.051,2.132,2.051
			c0.36,0,0.648-0.062,0.999-0.242v-1.062c-0.297,0.233-0.549,0.325-0.882,0.325c-0.648,0-1.125-0.46-1.125-1.09
			c0-0.631,0.477-1.1,1.125-1.1c0.324,0,0.567,0.09,0.882,0.334V144.102z M110.136,145.426c0.099-0.486,0.432-0.775,0.918-0.775
			c0.486,0,0.81,0.271,0.927,0.775H110.136z M113.024,146.117v-0.143c0-1.307-0.756-2.105-1.998-2.105
			c-1.242,0-2.043,0.816-2.043,2.078c0,1.251,0.828,2.068,2.097,2.068c0.918,0,1.575-0.412,1.908-1.214l-1.008-0.161
			c-0.252,0.368-0.513,0.522-0.927,0.522c-0.594,0-0.927-0.37-0.954-1.046H113.024z M106.289,146.947l2.205-2.971h-3.789v0.943
			h1.872l-2.214,2.971h3.987v-0.943H106.289z M103.796,144.264c-0.377-0.279-0.782-0.412-1.268-0.412
			c-0.819,0-1.395,0.512-1.395,1.24c0,0.36,0.126,0.631,0.387,0.811c0.171,0.125,0.261,0.162,0.746,0.342
			c0.496,0.18,0.604,0.261,0.604,0.486c0,0.242-0.216,0.433-0.496,0.433c-0.324,0-0.611-0.146-0.926-0.46l-0.567,0.666
			c0.378,0.414,0.909,0.646,1.475,0.646c0.964,0,1.638-0.574,1.638-1.394c0-0.369-0.144-0.666-0.431-0.864
			c-0.18-0.135-0.315-0.197-0.756-0.351c-0.505-0.171-0.622-0.252-0.622-0.433c0-0.189,0.18-0.334,0.424-0.334
			c0.216,0,0.414,0.082,0.648,0.262L103.796,144.264z M94.704,143.994H93.48l1.998,3.977h0.504l1.035-2.365l1.053,2.365h0.495
			l2.016-3.977h-1.215l-1.044,2.286l-1.062-2.394h-0.468l-1.062,2.357L94.704,143.994z M90.968,144.848
			c0.613,0,1.108,0.487,1.108,1.1c0,0.603-0.495,1.09-1.099,1.09c-0.621,0-1.107-0.487-1.107-1.107
			C89.87,145.344,90.374,144.848,90.968,144.848 M90.985,143.869c-1.305,0-2.24,0.854-2.24,2.042c0,1.251,0.899,2.104,2.204,2.104
			c1.333,0,2.25-0.845,2.25-2.078C93.2,144.714,92.292,143.869,90.985,143.869 M85.787,144.848c0.612,0,1.099,0.487,1.099,1.108
			c0,0.585-0.496,1.081-1.09,1.081c-0.603,0-1.098-0.487-1.098-1.1C84.698,145.335,85.184,144.848,85.787,144.848 M84.814,149.969
			v-2.582c0.387,0.441,0.774,0.629,1.296,0.629c1.071,0,1.899-0.898,1.899-2.068c0-1.188-0.819-2.078-1.917-2.078
			c-0.54,0-0.927,0.188-1.278,0.629v-0.504h-1.088v5.975H84.814z M80.781,146.947l2.205-2.971h-3.789v0.943h1.872l-2.214,2.971
			h3.987v-0.943H80.781z M76.243,144.848c0.612,0,1.107,0.487,1.107,1.1c0,0.603-0.495,1.09-1.098,1.09
			c-0.621,0-1.108-0.487-1.108-1.107C75.144,145.344,75.648,144.848,76.243,144.848 M76.261,143.869
			c-1.305,0-2.241,0.854-2.241,2.042c0,1.251,0.9,2.104,2.205,2.104c1.332,0,2.249-0.845,2.249-2.078
			C78.474,144.714,77.565,143.869,76.261,143.869 M70.422,144.65v-1.818h0.36c0.739,0,1.126,0.307,1.126,0.9
			c0,0.595-0.405,0.918-1.144,0.918H70.422z M71.747,145.361c0.378-0.071,0.594-0.18,0.827-0.377c0.333-0.289,0.54-0.783,0.54-1.323
			c0-0.532-0.225-1.044-0.593-1.351c-0.333-0.278-0.864-0.422-1.531-0.422h-1.736v6.002h1.169v-2.412h0.153l1.621,2.412h1.439
			L71.747,145.361z"/>
	</g>
	<g>
		<defs>
			<rect id="SVGID_243_" width="419.527" height="595.276"/>
		</defs>
		<clipPath id="SVGID_244_">
			<use xlink:href="#SVGID_243_"  overflow="visible"/>
		</clipPath>
		<path clip-path="url(#SVGID_244_)" d="M160.329,164.113H64.331v-26.297h131.006v15.666h-35.02L160.329,164.113z M65.331,163.113
			h93.997l-0.012-10.631h35.021v-13.666H65.331V163.113z"/>
	</g>
	<g>
		<defs>
			<rect id="SVGID_245_" width="419.527" height="595.276"/>
		</defs>
		<clipPath id="SVGID_246_">
			<use xlink:href="#SVGID_245_"  overflow="visible"/>
		</clipPath>
	</g>
</g>
</svg>
