<?xml version="1.0" encoding="utf-8"?>
<!-- Generator: Adobe Illustrator 13.0.2, SVG Export Plug-In  -->
<!DOCTYPE svg PUBLIC "-//W3C//DTD SVG 1.1//EN" "http://www.w3.org/Graphics/SVG/1.1/DTD/svg11.dtd" [
	<!ENTITY ns_flows "http://ns.adobe.com/Flows/1.0/">
]>
<svg version="1.1"
	 xmlns="http://www.w3.org/2000/svg" xmlns:xlink="http://www.w3.org/1999/xlink" xmlns:a="http://ns.adobe.com/AdobeSVGViewerExtensions/3.0/"
	 x="0px" y="0px" width="138px" height="38px" viewBox="1076.28 577.941 138 38" enable-background="new 1076.28 577.941 138 38"
	 xml:space="preserve">
<defs>
</defs>
<rect display="none" fill="#0AB4F6" width="1275.591" height="708.661"/>
<polygon fill="#FFFFFF" points="1213.431,601.134 1213.431,578.661 1077,578.661 1077,615.364 1166.255,615.364 1166.255,601.134 
	"/>
<polygon fill="none" stroke="#231F20" stroke-width="1.44" points="1213.431,601.134 1213.431,578.661 1077,578.661 1077,615.364 
	1166.255,615.364 1166.255,601.134 "/>
<path fill="#231F20" d="M1090.303,593.06v1.357h-6.28l3.914-6.651h-3.303v-1.358h5.885l-3.903,6.652H1090.303z M1088.501,584.702
	c0,0.504-0.408,0.912-0.9,0.912c-0.505,0-0.912-0.408-0.912-0.924c0-0.48,0.407-0.889,0.912-0.889
	C1088.093,583.802,1088.501,584.21,1088.501,584.702"/>
<polygon fill="#231F20" points="1091.092,586.407 1092.94,586.407 1094.67,589.193 1096.362,586.407 1098.225,586.407 
	1095.414,590.742 1095.414,594.417 1093.854,594.417 1093.854,590.742 "/>
<path fill="#231F20" d="M1104.249,588.557c-0.648-0.637-1.213-0.9-1.958-0.9c-1.478,0-2.617,1.214-2.617,2.786
	c0,1.561,1.14,2.726,2.653,2.726c0.757,0,1.285-0.24,1.922-0.877v1.838c-0.721,0.336-1.285,0.468-1.958,0.468
	c-2.365,0-4.228-1.825-4.228-4.143c0-2.342,1.886-4.227,4.228-4.227c0.709,0,1.261,0.144,1.958,0.492V588.557z"/>
<rect x="1105.854" y="586.407" fill="#231F20" width="1.561" height="8.01"/>
<polygon fill="#231F20" points="1110.836,587.765 1110.836,589.541 1113.599,589.541 1113.599,590.898 1110.836,590.898 
	1110.836,593.06 1113.706,593.06 1113.706,594.417 1109.274,594.417 1109.274,586.407 1113.706,586.407 1113.706,587.765 "/>
<polygon fill="#231F20" points="1120.752,591.859 1122.709,586.335 1123.562,586.335 1125.423,591.859 1127.344,586.407 
	1128.989,586.407 1125.976,594.573 1124.883,594.573 1123.106,589.337 1121.231,594.573 1120.139,594.573 1117.305,586.407 
	1118.95,586.407 "/>
<path fill="#231F20" d="M1133.644,588.232c-0.421-0.468-0.793-0.648-1.297-0.648c-0.637,0-1.129,0.396-1.129,0.889
	c0,0.433,0.276,0.66,1.213,1.009c0.876,0.324,1.236,0.492,1.598,0.805c0.468,0.396,0.709,0.973,0.709,1.681
	c0,1.573-1.13,2.643-2.787,2.643c-1.165,0-2.029-0.48-2.75-1.525l1.009-0.972c0.36,0.684,0.96,1.067,1.681,1.067
	s1.237-0.468,1.237-1.128c0-0.324-0.145-0.601-0.433-0.805c-0.156-0.108-0.468-0.24-1.116-0.48c-1.441-0.528-1.97-1.105-1.97-2.162
	c0-1.345,1.057-2.329,2.498-2.329c0.876,0,1.681,0.3,2.354,0.889L1133.644,588.232z M1131.926,585.675l-0.647-0.589l1.656-1.597
	l0.997,0.816L1131.926,585.675z"/>
<path fill="#231F20" d="M1141.985,594.417h-1.921l-2.162-3.22h-0.204v3.22h-1.561v-8.01h2.317c0.888,0,1.597,0.192,2.042,0.564
	c0.492,0.408,0.792,1.093,0.792,1.801c0,0.721-0.276,1.382-0.721,1.766c-0.312,0.265-0.601,0.408-1.104,0.505L1141.985,594.417z
	 M1138.155,590.094c0.984,0,1.524-0.433,1.524-1.225c0-0.793-0.516-1.201-1.501-1.201h-0.48v2.426H1138.155z"/>
<path fill="#231F20" d="M1150.954,590.418c0,2.366-1.886,4.179-4.323,4.179c-2.402,0-4.239-1.837-4.239-4.238
	c0-2.282,1.921-4.131,4.299-4.131C1149.079,586.228,1150.954,588.064,1150.954,590.418 M1144.001,590.382
	c0,1.55,1.188,2.786,2.678,2.786c1.465,0,2.666-1.236,2.666-2.762s-1.189-2.75-2.679-2.75
	C1145.214,587.656,1144.001,588.893,1144.001,590.382 M1146.475,585.675l-0.647-0.589l1.656-1.597l0.996,0.816L1146.475,585.675z"/>
<path fill="#231F20" d="M1152.401,586.407h2.295c1.176,0,2.112,0.299,2.869,0.924c0.9,0.733,1.429,1.874,1.429,3.075
	c0,1.188-0.541,2.329-1.453,3.086c-0.769,0.648-1.646,0.925-2.858,0.925h-2.281V586.407z M1154.383,593.06
	c1.009,0,1.646-0.191,2.138-0.636c0.54-0.48,0.864-1.249,0.864-2.018s-0.324-1.514-0.864-1.993
	c-0.517-0.469-1.129-0.648-2.138-0.648h-0.421v5.295H1154.383z"/>
<polygon fill="#231F20" points="1167.935,586.407 1169.904,586.407 1166.518,590.105 1170.084,594.417 1168.031,594.417 
	1165.185,590.814 1164.992,591.007 1164.992,594.417 1163.432,594.417 1163.432,586.407 1164.992,586.407 1164.992,589.794 "/>
<path fill="#231F20" d="M1172.962,592.724l-0.721,1.693h-1.657l3.471-8.178h1.177l3.362,8.178h-1.669l-0.685-1.693H1172.962z
	 M1174.631,588.581l-1.164,2.882h2.281L1174.631,588.581z"/>
<polygon fill="#231F20" points="1180.8,586.263 1181.868,586.263 1184.054,591.499 1186.324,586.263 1187.403,586.263 
	1188.737,594.417 1187.164,594.417 1186.444,589.481 1184.246,594.525 1183.814,594.525 1181.688,589.481 1180.884,594.417 
	1179.311,594.417 "/>
<polygon fill="#231F20" points="1191.722,587.765 1191.722,589.541 1194.484,589.541 1194.484,590.898 1191.722,590.898 
	1191.722,593.06 1194.592,593.06 1194.592,594.417 1190.161,594.417 1190.161,586.407 1194.592,586.407 1194.592,587.765 "/>
<path fill="#231F20" d="M1202.082,594.417h-1.921l-2.161-3.22h-0.205v3.22h-1.561v-8.01h2.317c0.889,0,1.598,0.192,2.042,0.564
	c0.492,0.408,0.792,1.093,0.792,1.801c0,0.721-0.276,1.382-0.721,1.766c-0.311,0.265-0.6,0.408-1.104,0.505L1202.082,594.417z
	 M1198.252,590.094c0.984,0,1.524-0.433,1.524-1.225c0-0.793-0.516-1.201-1.502-1.201h-0.479v2.426H1198.252z"/>
<path fill="#231F20" d="M1204.962,593.624c0,0.528-0.421,0.949-0.938,0.949c-0.528,0-0.948-0.421-0.948-0.949
	c0-0.516,0.433-0.937,0.937-0.937C1204.541,592.688,1204.962,593.108,1204.962,593.624"/>
<path fill="#231F20" d="M1086.255,608.819h-1.561v-8.01h2.342c1.045,0,1.609,0.168,2.113,0.612c0.517,0.47,0.816,1.165,0.816,1.934
	c0,0.696-0.24,1.345-0.648,1.789c-0.456,0.48-1.104,0.709-2.054,0.709h-1.009V608.819z M1086.892,604.496
	c0.973,0,1.465-0.384,1.465-1.152c0-0.385-0.154-0.732-0.408-0.925c-0.24-0.181-0.576-0.252-1.152-0.252h-0.541v2.329H1086.892z"/>
<path fill="#231F20" d="M1096.904,608.819h-1.921l-2.161-3.219h-0.205v3.219h-1.561v-8.01h2.317c0.889,0,1.598,0.192,2.042,0.564
	c0.492,0.408,0.792,1.093,0.792,1.801c0,0.721-0.276,1.383-0.721,1.766c-0.311,0.265-0.6,0.409-1.104,0.505L1096.904,608.819z
	 M1093.074,604.496c0.984,0,1.524-0.433,1.524-1.225c0-0.793-0.516-1.201-1.502-1.201h-0.479v2.426H1093.074z"/>
<polygon fill="#231F20" points="1103.83,607.462 1103.83,608.819 1097.549,608.819 1101.464,602.167 1098.161,602.167 
	1098.161,600.81 1104.046,600.81 1100.142,607.462 "/>
<polygon fill="#231F20" points="1106.72,602.167 1106.72,603.943 1109.482,603.943 1109.482,605.301 1106.72,605.301 
	1106.72,607.462 1109.59,607.462 1109.59,608.819 1105.159,608.819 1105.159,600.81 1109.59,600.81 1109.59,602.167 "/>
<polygon fill="#231F20" points="1113.777,606.262 1115.735,600.737 1116.589,600.737 1118.449,606.262 1120.37,600.81 
	1122.016,600.81 1119.002,608.976 1117.909,608.976 1116.132,603.739 1114.257,608.976 1113.165,608.976 1110.331,600.81 
	1111.977,600.81 "/>
<path fill="#231F20" d="M1130.812,604.82c0,2.366-1.885,4.179-4.322,4.179c-2.401,0-4.239-1.837-4.239-4.238
	c0-2.282,1.922-4.131,4.299-4.131C1128.939,600.63,1130.812,602.467,1130.812,604.82 M1123.86,604.784
	c0,1.55,1.188,2.786,2.678,2.786c1.465,0,2.666-1.236,2.666-2.762s-1.189-2.75-2.679-2.75
	C1125.073,602.059,1123.86,603.295,1123.86,604.784"/>
<path fill="#231F20" d="M1132.274,600.81h2.293c1.177,0,2.113,0.3,2.87,0.925c0.9,0.732,1.429,1.874,1.429,3.074
	c0,1.188-0.541,2.329-1.453,3.086c-0.769,0.648-1.646,0.925-2.858,0.925h-2.28V600.81z M1134.255,607.462
	c1.009,0,1.646-0.191,2.138-0.636c0.54-0.48,0.864-1.249,0.864-2.018s-0.324-1.514-0.864-1.992c-0.517-0.47-1.129-0.649-2.138-0.649
	h-0.421v5.295H1134.255z"/>
<polygon fill="#231F20" points="1140.279,600.63 1141.36,600.63 1146.235,606.201 1146.235,600.81 1147.797,600.81 
	1147.797,608.976 1146.716,608.976 1141.841,603.403 1141.841,608.818 1140.279,608.818 "/>
<rect x="1149.677" y="600.81" fill="#231F20" width="1.561" height="8.01"/>
<polygon fill="#231F20" points="1157.601,600.81 1159.57,600.81 1156.184,604.508 1159.75,608.819 1157.697,608.819 
	1154.851,605.217 1154.658,605.409 1154.658,608.819 1153.098,608.819 1153.098,600.81 1154.658,600.81 1154.658,604.196 "/>
</svg>
