<?xml version="1.0" encoding="utf-8"?>
<!-- Generator: Adobe Illustrator 13.0.2, SVG Export Plug-In  -->
<!DOCTYPE svg PUBLIC "-//W3C//DTD SVG 1.1//EN" "http://www.w3.org/Graphics/SVG/1.1/DTD/svg11.dtd" [
	<!ENTITY ns_flows "http://ns.adobe.com/Flows/1.0/">
]>
<svg version="1.1"
	 xmlns="http://www.w3.org/2000/svg" xmlns:xlink="http://www.w3.org/1999/xlink" xmlns:a="http://ns.adobe.com/AdobeSVGViewerExtensions/3.0/"
	 x="0px" y="0px" width="403px" height="118px" viewBox="0 0 403 118" enable-background="new 0 0 403 118" xml:space="preserve">
<defs>
</defs>
<polygon fill="#FFFFFF" points="400.77,70.979 400.77,2.23 2.231,2.23 2.231,115.857 264.738,115.857 264.738,70.979 "/>
<path d="M266.968,118.087H0V0h403v73.209H266.968V118.087z M4.46,113.628h258.049V68.75H398.54V4.46H4.46V113.628z"/>
<path d="M38.098,47.864v4.031H19.441l11.631-19.762h-9.811v-4.03h17.479L27.146,47.864H38.098z M32.747,23.037
	c0,1.498-1.211,2.709-2.673,2.709c-1.5,0-2.714-1.211-2.714-2.747c0-1.426,1.214-2.64,2.714-2.64
	C31.536,20.359,32.747,21.573,32.747,23.037"/>
<polygon points="40.488,28.102 45.982,28.102 51.118,36.377 56.149,28.102 61.677,28.102 53.331,40.979 53.331,51.895 
	48.691,51.895 48.691,40.979 "/>
<path d="M79.729,34.486c-1.926-1.891-3.604-2.675-5.815-2.675c-4.388,0-7.779,3.603-7.779,8.276c0,4.637,3.391,8.098,7.884,8.098
	c2.248,0,3.817-0.713,5.709-2.604v5.458c-2.142,0.998-3.817,1.391-5.815,1.391c-7.028,0-12.559-5.424-12.559-12.307
	c0-6.956,5.602-12.557,12.559-12.557c2.104,0,3.745,0.428,5.815,1.461V34.486z"/>
<rect x="84.579" y="28.102" width="4.636" height="23.792"/>
<polygon points="99.491,32.133 99.491,37.411 107.692,37.411 107.692,41.441 99.491,41.441 99.491,47.864 108.015,47.864 
	108.015,51.895 94.852,51.895 94.852,28.103 108.015,28.103 108.015,32.133 "/>
<polygon points="128.952,44.297 134.767,27.888 137.299,27.888 142.83,44.297 148.538,28.102 153.426,28.102 144.471,52.358 
	141.225,52.358 135.946,36.806 130.38,52.358 127.135,52.358 118.715,28.102 123.601,28.102 "/>
<path d="M167.337,33.523c-1.249-1.391-2.356-1.926-3.853-1.926c-1.892,0-3.355,1.177-3.355,2.639c0,1.285,0.822,1.963,3.605,2.998
	c2.605,0.962,3.673,1.461,4.743,2.389c1.394,1.177,2.106,2.89,2.106,4.995c0,4.67-3.354,7.847-8.274,7.847
	c-3.462,0-6.03-1.427-8.17-4.532l2.996-2.889c1.071,2.034,2.854,3.175,4.992,3.175c2.143,0,3.677-1.392,3.677-3.353
	c0-0.964-0.43-1.783-1.284-2.391c-0.464-0.32-1.391-0.713-3.319-1.426c-4.28-1.57-5.849-3.281-5.849-6.422
	c0-3.994,3.14-6.922,7.42-6.922c2.602,0,4.992,0.894,6.99,2.642L167.337,33.523z M162.236,25.926l-1.926-1.75l4.922-4.742
	l2.96,2.425L162.236,25.926z"/>
<path d="M192.237,51.895h-5.709l-6.42-9.56H179.5v9.56h-4.638V28.102h6.886c2.638,0,4.742,0.57,6.063,1.675
	c1.461,1.214,2.355,3.248,2.355,5.351c0,2.143-0.821,4.104-2.142,5.245c-0.926,0.783-1.784,1.214-3.282,1.498L192.237,51.895z
	 M180.856,39.052c2.924,0,4.532-1.283,4.532-3.638c0-2.356-1.534-3.567-4.462-3.567H179.5v7.205H180.856z"/>
<path d="M218.989,40.017c0,7.026-5.601,12.414-12.841,12.414c-7.135,0-12.593-5.458-12.593-12.592
	c0-6.779,5.708-12.271,12.77-12.271C213.425,27.567,218.989,33.024,218.989,40.017 M198.336,39.908c0,4.602,3.533,8.277,7.954,8.277
	c4.352,0,7.92-3.675,7.92-8.205s-3.531-8.169-7.955-8.169C201.939,31.811,198.336,35.486,198.336,39.908 M205.686,25.926
	l-1.929-1.75l4.924-4.742l2.96,2.425L205.686,25.926z"/>
<path d="M223.379,28.102h6.812c3.495,0,6.277,0.89,8.524,2.746c2.678,2.176,4.246,5.564,4.246,9.132
	c0,3.531-1.604,6.922-4.316,9.168c-2.282,1.925-4.887,2.746-8.489,2.746h-6.776V28.102z M229.264,47.864
	c2.997,0,4.885-0.572,6.35-1.893c1.604-1.425,2.565-3.709,2.565-5.992s-0.962-4.494-2.565-5.922c-1.535-1.39-3.353-1.925-6.35-1.925
	h-1.249v15.731H229.264z"/>
<polygon points="269.535,28.102 275.387,28.102 265.326,39.088 275.92,51.895 269.82,51.895 261.368,41.192 260.796,41.765 
	260.796,51.895 256.158,51.895 256.158,28.102 260.796,28.102 260.796,38.16 "/>
<path d="M284.553,46.865l-2.139,5.029h-4.924l10.311-24.292h3.496l9.985,24.292h-4.956l-2.033-5.029H284.553z M289.514,34.557
	l-3.463,8.562h6.78L289.514,34.557z"/>
<polygon points="307.919,27.673 311.094,27.673 317.587,43.226 324.326,27.673 327.54,27.673 331.498,51.894 326.825,51.894 
	324.685,37.234 318.158,52.217 316.874,52.217 310.56,37.234 308.168,51.894 303.495,51.894 "/>
<polygon points="340.417,32.133 340.417,37.411 348.621,37.411 348.621,41.441 340.417,41.441 340.417,47.864 348.94,47.864 
	348.94,51.895 335.778,51.895 335.778,28.103 348.94,28.103 348.94,32.133 "/>
<path d="M371.344,51.895h-5.709l-6.421-9.56h-0.606v9.56h-4.637V28.102h6.885c2.639,0,4.743,0.57,6.062,1.675
	c1.463,1.214,2.356,3.248,2.356,5.351c0,2.143-0.821,4.104-2.142,5.245c-0.926,0.783-1.785,1.214-3.281,1.498L371.344,51.895z
	 M359.963,39.052c2.925,0,4.532-1.283,4.532-3.638c0-2.356-1.534-3.567-4.462-3.567h-1.426v7.205H359.963z"/>
<path d="M379.978,49.539c0,1.57-1.249,2.819-2.783,2.819c-1.57,0-2.818-1.249-2.818-2.819c0-1.534,1.284-2.782,2.782-2.782
	C378.729,46.757,379.978,48.005,379.978,49.539"/>
<path d="M26.077,94.985H21.44V71.193h6.954c3.105,0,4.782,0.5,6.28,1.818c1.533,1.391,2.426,3.46,2.426,5.744
	c0,2.068-0.713,3.993-1.928,5.313c-1.355,1.429-3.281,2.107-6.1,2.107h-2.996V94.985z M27.968,82.143
	c2.889,0,4.353-1.141,4.353-3.424c0-1.141-0.465-2.173-1.213-2.746c-0.713-0.534-1.714-0.749-3.426-0.749h-1.604v6.919H27.968z"/>
<path d="M57.86,94.985h-5.708l-6.42-9.558h-0.607v9.558h-4.637V71.193h6.884c2.641,0,4.745,0.568,6.065,1.676
	c1.462,1.214,2.353,3.246,2.353,5.351c0,2.144-0.821,4.103-2.14,5.245c-0.928,0.784-1.785,1.214-3.283,1.498L57.86,94.985z
	 M46.481,82.143c2.923,0,4.53-1.281,4.53-3.638c0-2.354-1.534-3.566-4.46-3.566h-1.426v7.204H46.481z"/>
<polygon points="78.478,90.955 78.478,94.985 59.821,94.985 71.449,75.224 61.642,75.224 61.642,71.193 79.12,71.193 67.528,90.955 
	"/>
<polygon points="87.147,75.224 87.147,80.502 95.351,80.502 95.351,84.532 87.147,84.532 87.147,90.955 95.673,90.955 
	95.673,94.985 82.511,94.985 82.511,71.193 95.673,71.193 95.673,75.224 "/>
<polygon points="108.228,87.388 114.042,70.979 116.575,70.979 122.105,87.388 127.813,71.193 132.701,71.193 123.747,95.449 
	120.5,95.449 115.222,79.897 109.655,95.449 106.411,95.449 97.991,71.193 102.877,71.193 "/>
<path d="M158.917,83.106c0,7.027-5.6,12.415-12.839,12.415c-7.135,0-12.593-5.459-12.593-12.593c0-6.778,5.708-12.271,12.77-12.271
	C153.353,70.657,158.917,76.115,158.917,83.106 M138.264,82.999c0,4.602,3.534,8.276,7.954,8.276c4.354,0,7.92-3.675,7.92-8.204
	s-3.53-8.169-7.954-8.169C141.867,74.902,138.264,78.577,138.264,82.999"/>
<path d="M163.343,71.193h6.812c3.496,0,6.277,0.89,8.526,2.745c2.675,2.179,4.247,5.566,4.247,9.133
	c0,3.532-1.607,6.921-4.316,9.168c-2.283,1.925-4.889,2.746-8.492,2.746h-6.776V71.193z M169.229,90.955
	c2.996,0,4.886-0.571,6.35-1.892c1.602-1.426,2.566-3.71,2.566-5.992s-0.964-4.492-2.566-5.924c-1.534-1.388-3.354-1.924-6.35-1.924
	h-1.249v15.731H169.229z"/>
<polygon points="187.244,70.657 190.454,70.657 204.936,87.212 204.936,71.193 209.576,71.193 209.576,95.449 206.362,95.449 
	191.88,78.898 191.88,94.985 187.244,94.985 "/>
<rect x="215.245" y="71.193" width="4.639" height="23.792"/>
<polygon points="238.896,71.193 244.744,71.193 234.685,82.18 245.279,94.985 239.18,94.985 230.726,84.284 230.156,84.855 
	230.156,94.985 225.519,94.985 225.519,71.193 230.156,71.193 230.156,81.251 "/>
</svg>
