<?xml version="1.0" encoding="utf-8"?>
<!-- Generator: Adobe Illustrator 13.0.2, SVG Export Plug-In  -->
<!DOCTYPE svg PUBLIC "-//W3C//DTD SVG 1.1//EN" "http://www.w3.org/Graphics/SVG/1.1/DTD/svg11.dtd" [
	<!ENTITY ns_flows "http://ns.adobe.com/Flows/1.0/">
]>
<svg version="1.1"
	 xmlns="http://www.w3.org/2000/svg" xmlns:xlink="http://www.w3.org/1999/xlink" xmlns:a="http://ns.adobe.com/AdobeSVGViewerExtensions/3.0/"
	 x="0px" y="0px" width="45px" height="63px" viewBox="0 0 45 63" enable-background="new 0 0 45 63" xml:space="preserve">
<defs>
</defs>
<polygon fill="none" stroke="#000000" stroke-width="3.413" stroke-miterlimit="10" points="30.228,1.707 1.707,1.707 1.707,61.19 
	43.148,61.19 43.148,15.604 "/>
<polyline points="30.228,1.707 30.228,15.604 43.148,15.604 "/>
<polyline fill="none" stroke="#000000" stroke-width="3.413" stroke-miterlimit="10" points="30.228,1.707 30.228,15.604 
	43.148,15.604 "/>
<polygon points="8.53,31.723 8.53,33.881 11.884,33.881 11.884,35.528 8.53,35.528 8.53,38.153 12.015,38.153 12.015,39.801 
	6.634,39.801 6.634,30.074 12.015,30.074 12.015,31.723 "/>
<path d="M24.064,35.645c0,0.991,0.059,1.312,0.307,1.735c0.32,0.556,0.977,0.904,1.706,0.904s1.385-0.351,1.706-0.904
	c0.248-0.423,0.306-0.744,0.306-1.735v-5.569h1.896v5.95c0,1.139-0.219,1.938-0.713,2.597c-0.672,0.875-1.867,1.399-3.193,1.399
	c-1.327,0-2.521-0.524-3.194-1.399c-0.496-0.656-0.714-1.458-0.714-2.597v-5.95h1.896v5.569H24.064z"/>
<polygon points="8.492,31.796 8.492,33.956 11.846,33.956 11.846,35.604 8.492,35.604 8.492,38.229 11.976,38.229 11.976,39.875 
	6.596,39.875 6.596,30.147 11.976,30.147 11.976,31.796 "/>
<path d="M32.127,30.147h2.407c1.123,0,1.881,0.189,2.377,0.584c0.539,0.424,0.875,1.181,0.875,1.983
	c0,0.525-0.146,1.035-0.365,1.386c-0.16,0.219-0.32,0.35-0.699,0.584c0.656,0.146,0.963,0.291,1.269,0.612
	c0.438,0.437,0.7,1.122,0.7,1.837c0,0.772-0.307,1.502-0.86,1.998c-0.567,0.512-1.343,0.743-2.42,0.743h-3.282L32.127,30.147
	L32.127,30.147z M34.564,34.204c0.977,0,1.473-0.424,1.473-1.27c0-0.832-0.496-1.254-1.444-1.254h-0.567v2.523L34.564,34.204
	L34.564,34.204z M34.84,38.345c1.284,0,1.896-0.438,1.896-1.342c0-0.467-0.202-0.86-0.566-1.08
	c-0.336-0.218-0.643-0.276-1.432-0.276h-0.713v2.698H34.84z"/>
<path d="M24.025,35.719c0,0.991,0.059,1.312,0.307,1.735c0.32,0.555,0.977,0.903,1.707,0.903c0.729,0,1.385-0.35,1.705-0.903
	c0.248-0.423,0.307-0.744,0.307-1.735v-5.571h1.896V36.1c0,1.137-0.219,1.938-0.715,2.596c-0.67,0.875-1.866,1.4-3.192,1.4
	c-1.328,0-2.522-0.525-3.195-1.4c-0.496-0.656-0.713-1.459-0.713-2.596v-5.952h1.896v5.571H24.025z"/>
<path d="M15.826,39.875h-1.897v-9.728h2.844c1.269,0,1.954,0.205,2.567,0.744c0.628,0.569,0.991,1.416,0.991,2.349
	c0,0.846-0.292,1.633-0.787,2.173c-0.554,0.583-1.342,0.86-2.494,0.86h-1.224V39.875z M16.598,34.625
	c1.182,0,1.779-0.467,1.779-1.398c0-0.468-0.189-0.891-0.495-1.123c-0.292-0.22-0.701-0.308-1.401-0.308h-0.655v2.829H16.598z"/>
</svg>
