<?xml version="1.0" encoding="utf-8"?>
<!-- Generator: Adobe Illustrator 13.0.2, SVG Export Plug-In . SVG Version: 6.00 Build 14948)  -->
<!DOCTYPE svg PUBLIC "-//W3C//DTD SVG 1.1//EN" "http://www.w3.org/Graphics/SVG/1.1/DTD/svg11.dtd" [
	<!ENTITY ns_flows "http://ns.adobe.com/Flows/1.0/">
	<!ENTITY ns_extend "http://ns.adobe.com/Extensibility/1.0/">
	<!ENTITY ns_ai "http://ns.adobe.com/AdobeIllustrator/10.0/">
	<!ENTITY ns_graphs "http://ns.adobe.com/Graphs/1.0/">
]>
<svg version="1.1" id="Layer_1" xmlns:x="&ns_extend;" xmlns:i="&ns_ai;" xmlns:graph="&ns_graphs;"
	 xmlns="http://www.w3.org/2000/svg" xmlns:xlink="http://www.w3.org/1999/xlink" xmlns:a="http://ns.adobe.com/AdobeSVGViewerExtensions/3.0/"
	 x="0px" y="0px" width="45px" height="63px" viewBox="-0.237 0 45 63" enable-background="new -0.237 0 45 63"
	 xml:space="preserve">
<polygon fill="none" stroke="#FFFFFF" stroke-width="3.413" stroke-miterlimit="10" points="30.229,1.706 1.707,1.706 1.707,61.189 
	43.148,61.189 43.148,15.603 "/>
<polyline fill="#FFFFFF" points="30.229,1.706 30.229,15.603 43.148,15.603 "/>
<polyline fill="none" stroke="#FFFFFF" stroke-width="3.413" stroke-miterlimit="10" points="30.229,1.706 30.229,15.603 
	43.148,15.603 "/>
<polygon fill="#FFFFFF" points="8.531,31.722 8.531,33.881 11.885,33.881 11.885,35.527 8.531,35.527 8.531,38.152 12.015,38.152 
	12.015,39.801 6.635,39.801 6.635,30.073 12.015,30.073 12.015,31.722 "/>
<path fill="#FFFFFF" d="M24.064,35.645c0,0.991,0.059,1.312,0.307,1.735c0.32,0.556,0.977,0.904,1.706,0.904
	s1.385-0.351,1.706-0.904c0.248-0.423,0.306-0.744,0.306-1.735v-5.57h1.896v5.951c0,1.138-0.219,1.938-0.713,2.596
	c-0.672,0.875-1.867,1.4-3.194,1.4s-2.522-0.525-3.194-1.4c-0.496-0.656-0.714-1.458-0.714-2.596v-5.951h1.896V35.645z"/>
<polygon fill="#FFFFFF" points="8.492,31.796 8.492,33.955 11.846,33.955 11.846,35.603 8.492,35.603 8.492,38.228 11.976,38.228 
	11.976,39.875 6.596,39.875 6.596,30.147 11.976,30.147 11.976,31.796 "/>
<path fill="#FFFFFF" d="M32.128,30.147h2.407c1.123,0,1.881,0.189,2.377,0.584c0.539,0.424,0.875,1.181,0.875,1.983
	c0,0.525-0.146,1.035-0.365,1.386c-0.16,0.218-0.32,0.349-0.7,0.583c0.657,0.146,0.964,0.292,1.269,0.613
	c0.438,0.437,0.701,1.122,0.701,1.837c0,0.772-0.307,1.502-0.861,1.998c-0.568,0.511-1.342,0.743-2.42,0.743h-3.282V30.147z
	 M34.564,34.203c0.977,0,1.473-0.424,1.473-1.27c0-0.831-0.496-1.254-1.444-1.254h-0.567v2.523H34.564z M34.841,38.345
	c1.284,0,1.896-0.438,1.896-1.342c0-0.467-0.203-0.861-0.567-1.08c-0.336-0.218-0.642-0.277-1.431-0.277h-0.713v2.699H34.841z"/>
<path fill="#FFFFFF" d="M24.026,35.719c0,0.991,0.058,1.312,0.306,1.735c0.32,0.555,0.977,0.904,1.707,0.904
	c0.729,0,1.385-0.35,1.705-0.904c0.248-0.423,0.307-0.744,0.307-1.735v-5.571h1.896v5.951c0,1.138-0.219,1.939-0.714,2.596
	c-0.671,0.875-1.867,1.4-3.193,1.4c-1.328,0-2.523-0.525-3.195-1.4c-0.496-0.656-0.713-1.458-0.713-2.596v-5.951h1.896V35.719z"/>
<path fill="#FFFFFF" d="M15.826,39.875h-1.897v-9.728h2.844c1.269,0,1.954,0.205,2.567,0.744c0.628,0.569,0.991,1.415,0.991,2.349
	c0,0.846-0.292,1.633-0.787,2.173c-0.554,0.583-1.342,0.86-2.494,0.86h-1.224V39.875z M16.598,34.625
	c1.182,0,1.779-0.467,1.779-1.399c0-0.467-0.189-0.89-0.495-1.123c-0.292-0.219-0.701-0.307-1.401-0.307h-0.655v2.829H16.598z"/>
</svg>
