<?xml version="1.0" encoding="utf-8"?>
<!-- Generator: Adobe Illustrator 13.0.2, SVG Export Plug-In  -->
<!DOCTYPE svg PUBLIC "-//W3C//DTD SVG 1.1//EN" "http://www.w3.org/Graphics/SVG/1.1/DTD/svg11.dtd" [
	<!ENTITY ns_flows "http://ns.adobe.com/Flows/1.0/">
]>
<svg version="1.1"
	 xmlns="http://www.w3.org/2000/svg" xmlns:xlink="http://www.w3.org/1999/xlink" xmlns:a="http://ns.adobe.com/AdobeSVGViewerExtensions/3.0/"
	 x="0px" y="0px" width="42px" height="39px" viewBox="1192.141 35.318 42 39" enable-background="new 1192.141 35.318 42 39"
	 xml:space="preserve">
<defs>
</defs>
<g>
	<defs>
		<rect id="SVGID_4_" y="1" width="1275.591" height="708.661"/>
	</defs>
	<clipPath id="SVGID_5_">
		<use xlink:href="#SVGID_4_"  overflow="visible"/>
	</clipPath>
	<path clip-path="url(#SVGID_5_)" fill="#FFFFFF" d="M81.551,57.812c-0.557-5.249-3.12-9.963-7.214-13.271
		c-3.484-2.813-7.869-4.36-12.353-4.36c-2.832,0-5.689,0.619-8.262,1.791l0.786,1.666c0.856-0.389,1.744-0.712,2.636-0.959
		l0.199-0.055l0.014,0.057l1.072,4.843c0.586-0.165,1.193-0.29,1.811-0.371l-1.088-4.905l0.21-0.03
		c1.886-0.275,3.835-0.252,5.667,0.066l0.202,0.034l-0.011,0.057l-1.141,4.853c0.602,0.1,1.206,0.251,1.798,0.44l1.149-4.911
		l0.201,0.062c1.98,0.614,3.837,1.568,5.514,2.843l0.161,0.123l-0.124,0.156l-3.032,3.754c0.089,0.062,0.18,0.128,0.266,0.198
		c0.359,0.286,0.712,0.613,1.117,1.029l3.182-3.94l0.155,0.147c1.206,1.189,2.242,2.549,3.077,4.045l0.1,0.187l-0.056,0.023
		l-4.502,2.133c0.308,0.537,0.577,1.096,0.8,1.667l4.557-2.156l0.076,0.191c0.7,1.739,1.116,3.482,1.241,5.401l0.014,0.099h-0.061
		h-0.005l0.005,0.128l-4.963-0.011c0.048,0.617,0.053,1.28,0.013,1.876l5.018,0.053l-0.011,0.218
		c-0.116,1.941-0.529,3.812-1.224,5.555l-0.078,0.197l-4.539-2.217c-0.22,0.565-0.486,1.124-0.794,1.669l4.524,2.215l-0.1,0.18
		c-0.539,0.966-1.095,1.805-1.707,2.563c-0.51,0.629-1.112,1.261-1.838,1.927l-0.154,0.142l-0.036-0.049l-3.078-3.909
		c-0.464,0.439-0.944,0.832-1.426,1.176l3.106,3.949L72.256,74.5c-0.787,0.556-1.642,1.058-2.547,1.496l0.782,1.665
		c2.677-1.28,4.962-3.082,6.796-5.355C80.594,68.21,82.111,63.063,81.551,57.812"/>
	<path clip-path="url(#SVGID_5_)" fill="#FFFFFF" d="M66.937,84.243l-0.196,0.054l-0.047-0.2l-1.088-4.674
		c-0.604,0.169-1.235,0.303-1.836,0.383l1.076,4.911l-0.21,0.028c-1.897,0.275-3.848,0.254-5.674-0.064l-0.205-0.035l0.014-0.057
		l1.139-4.849c-0.607-0.101-1.211-0.252-1.798-0.44l-1.153,4.908l-0.2-0.06c-1.98-0.61-3.835-1.564-5.515-2.843l-0.16-0.122
		l0.125-0.156l3.032-3.753c-0.091-0.062-0.184-0.128-0.268-0.199c-0.359-0.29-0.716-0.618-1.115-1.029l-3.185,3.941l-0.152-0.149
		c-1.206-1.186-2.242-2.545-3.077-4.046l-0.1-0.184l0.054-0.026l4.5-2.133c-0.309-0.543-0.575-1.102-0.797-1.665l-4.556,2.16
		l-0.078-0.194c-0.695-1.742-1.114-3.569-1.24-5.485l-0.015-0.183h0.061h0.002l-0.002-0.018L48.22,68.1l1.017,0.002
		c-0.048-0.628-0.055-1.267-0.014-1.871l-5.017-0.041l0.011-0.21c0.117-1.946,0.53-3.815,1.226-5.55l0.078-0.202l4.535,2.222
		c0.218-0.562,0.487-1.121,0.793-1.671l-4.519-2.212l0.1-0.181c0.54-0.977,1.103-1.815,1.707-2.562
		c0.505-0.63,1.108-1.259,1.835-1.927l0.156-0.14l0.037,0.046l3.076,3.908c0.461-0.438,0.944-0.833,1.432-1.177l-3.013-3.993
		l0.167-0.115c0.802-0.568,1.667-1.074,2.642-1.544l-0.782-1.666c-2.85,1.361-4.899,2.97-6.844,5.379
		c-6.856,8.49-5.555,20.953,2.901,27.787c3.575,2.887,7.811,4.415,12.245,4.415c2.876,0,5.723-0.639,8.468-1.89l-0.782-1.664
		C68.734,83.668,67.863,83.988,66.937,84.243"/>
	<polygon clip-path="url(#SVGID_5_)" fill="#FFFFFF" points="91.856,51.324 91.856,55.021 95.553,55.021 95.553,56.783 
		91.856,56.783 91.856,62.28 89.826,62.28 89.826,49.504 96.684,49.504 96.684,51.324 	"/>
	<path clip-path="url(#SVGID_5_)" fill="#FFFFFF" d="M102.617,62.605c-2.414,0-4.119-1.34-4.119-3.697v-9.386h2.05v9.349
		c0,1.3,0.652,2.01,2.069,2.01c1.436,0,2.087-0.71,2.087-2.01v-9.349h2.031v9.386C106.735,61.266,105.05,62.605,102.617,62.605"/>
	<polygon clip-path="url(#SVGID_5_)" fill="#FFFFFF" points="115.652,62.28 111.994,56.188 110.692,53.852 110.692,62.28 
		108.776,62.28 108.776,49.524 110.345,49.524 113.908,55.729 115.155,58.066 115.155,49.524 117.069,49.524 117.069,62.28 	"/>
	<path clip-path="url(#SVGID_5_)" fill="#FFFFFF" d="M125.339,53.488c0-1.341-0.65-2.146-2.087-2.146h-1.973v9.118h1.973
		c1.437,0,2.087-0.805,2.087-2.126V53.488z M123.425,62.28h-4.177V49.524h4.177c2.719,0,3.945,1.685,3.945,3.753v5.248
		C127.37,60.593,126.145,62.28,123.425,62.28"/>
	<path clip-path="url(#SVGID_5_)" fill="#FFFFFF" d="M133.042,52.281l-1.207,5.019h2.451L133.042,52.281z M135.531,62.28
		l-0.823-3.296h-3.276l-0.785,3.296h-1.991l3.371-12.756h2.144l3.409,12.756H135.531z"/>
	<path clip-path="url(#SVGID_5_)" fill="#FFFFFF" d="M142.993,62.605c-2.854,0-4.119-1.916-4.119-3.983v-5.441
		c0-2.067,1.265-3.966,4.119-3.966c2.874,0,4.041,1.688,4.041,3.737v1.034h-1.838v-0.901c0-1.302-0.709-2.105-2.145-2.105
		c-1.437,0-2.145,0.842-2.145,2.009v5.843c0,1.15,0.708,1.992,2.145,1.992c1.436,0,2.145-0.805,2.145-2.106v-0.901h1.838v1.035
		C147.034,60.901,145.867,62.605,142.993,62.605"/>
	<path clip-path="url(#SVGID_5_)" fill="#FFFFFF" d="M152.599,62.605c-2.566,0-3.812-1.397-3.812-3.753v-1.648h1.897v1.514
		c0,1.453,0.651,2.106,1.857,2.106c1.207,0,1.762-0.653,1.762-2.106v-9.196h2.03v9.042C156.333,60.92,155.318,62.605,152.599,62.605
		"/>
	<path clip-path="url(#SVGID_5_)" fill="#FFFFFF" d="M162.127,52.281L160.92,57.3h2.452L162.127,52.281z M164.617,62.28
		l-0.823-3.296h-3.276l-0.786,3.296h-1.991l3.37-12.756h2.146l3.409,12.756H164.617z"/>
	<path clip-path="url(#SVGID_5_)" fill="#FFFFFF" d="M95.496,68.852c0-0.937-0.325-1.511-1.36-1.511h-2.28v4.386h2.28
		c1.035,0,1.36-0.594,1.36-1.531V68.852z M94.117,73.412h-2.261v4.979h-2.03V65.637h4.291c2.509,0,3.428,1.358,3.428,3.255v1.284
		C97.545,72.053,96.625,73.412,94.117,73.412"/>
	<path clip-path="url(#SVGID_5_)" fill="#FFFFFF" d="M102.409,68.394l-1.206,5.019h2.451L102.409,68.394z M104.899,78.392
		l-0.824-3.294h-3.274l-0.786,3.294h-1.992l3.371-12.755h2.145l3.41,12.755H104.899z"/>
	<polygon clip-path="url(#SVGID_5_)" fill="#FFFFFF" points="115.652,78.392 111.994,72.302 110.692,69.966 110.692,78.392 
		108.776,78.392 108.776,65.637 110.345,65.637 113.908,71.843 115.155,74.18 115.155,65.637 117.069,65.637 117.069,78.392 	"/>
	<path clip-path="url(#SVGID_5_)" fill="#FFFFFF" d="M125.426,69.313c0-1.303-0.651-2.223-2.087-2.223
		c-1.419,0-2.069,0.92-2.069,2.223v5.401c0,1.303,0.65,2.224,2.069,2.224c1.436,0,2.087-0.921,2.087-2.224V69.313z M123.339,78.718
		c-2.854,0-4.119-1.779-4.119-4.137v-5.132c0-2.336,1.265-4.119,4.119-4.119c2.872,0,4.118,1.783,4.118,4.119v5.132
		C127.457,76.938,126.211,78.718,123.339,78.718"/>
	<path clip-path="url(#SVGID_5_)" fill="#FFFFFF" d="M135.35,68.852c0-0.937-0.325-1.511-1.36-1.511h-2.278v4.386h2.278
		c1.035,0,1.36-0.594,1.36-1.531V68.852z M133.973,73.412h-2.261v4.979h-2.031V65.637h4.292c2.509,0,3.429,1.358,3.429,3.255v1.284
		C137.402,72.053,136.482,73.412,133.973,73.412"/>
	<polygon clip-path="url(#SVGID_5_)" fill="#FFFFFF" points="143.983,67.475 143.983,78.392 141.954,78.392 141.954,67.475 
		138.85,67.475 138.85,65.637 147.087,65.637 147.087,67.475 	"/>
	<polygon clip-path="url(#SVGID_5_)" fill="#FFFFFF" points="153.948,73.221 153.948,78.392 151.919,78.392 151.919,73.221 
		148.28,65.637 150.521,65.637 152.972,71.478 155.442,65.637 157.491,65.637 	"/>
	<polygon clip-path="url(#SVGID_5_)" fill="#FFFFFF" points="165.196,78.392 162.302,72.705 161.135,74.238 161.135,78.392 
		159.103,78.392 159.103,65.637 161.135,65.637 161.135,71.612 165.234,65.637 167.456,65.637 163.605,71.115 167.435,78.392 	"/>
	<path clip-path="url(#SVGID_5_)" fill="#FFFFFF" d="M174.793,69.313c0-1.303-0.65-2.223-2.086-2.223c-1.419,0-2.07,0.92-2.07,2.223
		v5.401c0,1.303,0.651,2.224,2.07,2.224c1.436,0,2.086-0.921,2.086-2.224V69.313z M172.708,78.718c-2.854,0-4.119-1.779-4.119-4.137
		v-5.132c0-2.336,1.265-4.119,4.119-4.119c2.872,0,4.117,1.783,4.117,4.119v5.132C176.825,76.938,175.58,78.718,172.708,78.718"/>
	<polygon clip-path="url(#SVGID_5_)" fill="#FFFFFF" points="185.926,78.392 182.267,72.302 180.965,69.966 180.965,78.392 
		179.051,78.392 179.051,65.637 180.621,65.637 184.183,71.843 185.428,74.18 185.428,65.637 187.343,65.637 187.343,78.392 	"/>
	
		<rect x="10.333" y="10" clip-path="url(#SVGID_5_)" fill="none" stroke="#FFFFFF" stroke-width="20" stroke-miterlimit="10" width="1255.363" height="689.831"/>
	<path clip-path="url(#SVGID_5_)" fill="#1D1D1B" d="M609.201,408.434l26.295,8.6l16.864-23.67l8.504-4.59l-0.453-4.127
		l-1.674-4.961l-3.947,1.791l0.584-2.685l-4.275,2.39l-1.609,3.495l-17.292,18.536l-20.158-11.022
		c-3.511-2.116-7.631-3.147-11.785-2.839"/>
	<path clip-path="url(#SVGID_5_)" fill="#1D1D1B" d="M609.595,396.702c-2.332-3.376-5.657-6.013-9.571-7.442
		c0.091-1.372,0.168-3.113,0.212-3.762c0,0,6.017-1.078,7.856-6.408c0,0,2.683-7.801,1.007-15.703c0,0-1.727-9.148-13.401-9.109
		c0,0-11.867-1.067-11.867,10.903v23.954c-6.32,3.319-10.593,9.971-10.593,17.603l0.048,134.269H595.2l-9.207-8.246l9.512-55.943
		l27.567,18.602l11.017,45.588h20.192l-10.078-8.379l-4.285-48.133l-33.334-30.844l2.311-36.179L609.595,396.702z"/>
	<polygon clip-path="url(#SVGID_5_)" fill="#FFFFFF" points="736.986,346.629 747.311,349.164 801.619,330.338 	"/>
	<polygon clip-path="url(#SVGID_5_)" fill="#FFFFFF" points="803.434,330.471 770.078,357 753.279,351.569 765.457,346.089 
		765.053,341.561 	"/>
	<polygon clip-path="url(#SVGID_5_)" fill="#FFFFFF" points="763.115,348.61 755.22,352.393 764.91,355.396 	"/>
	<polygon clip-path="url(#SVGID_5_)" fill="#FFFFFF" points="766.959,350.102 751.131,359.385 747.609,349.292 765.84,342.648 	"/>
	
		<path clip-path="url(#SVGID_5_)" fill="none" stroke="#1D1D1B" stroke-width="1.443" stroke-linecap="round" stroke-miterlimit="10" d="
		M736.584,346.443l69.016-17.099 M747.51,349.11l-10.926-2.667"/>
	
		<line clip-path="url(#SVGID_5_)" fill="none" stroke="#1D1D1B" stroke-width="1.443" stroke-linecap="round" stroke-miterlimit="10" x1="770.227" y1="356.561" x2="805.6" y2="329.345"/>
	
		<path clip-path="url(#SVGID_5_)" fill="none" stroke="#1D1D1B" stroke-width="1.443" stroke-linecap="round" stroke-miterlimit="10" d="
		M747.602,349.293l57.998-19.949 M751.367,359.111l-3.766-9.818 M751.367,359.111l8.547-5.063 M751.367,359.111l1.271-7.689"/>
	
		<line clip-path="url(#SVGID_5_)" fill="none" stroke="#1D1D1B" stroke-width="1.443" stroke-linecap="round" stroke-miterlimit="10" x1="752.686" y1="351.28" x2="805.6" y2="329.342"/>
	<polyline clip-path="url(#SVGID_5_)" fill="#FFFFFF" points="752.686,351.828 755.408,352.582 763,354.705 769.68,356.557 	"/>
	
		<polyline clip-path="url(#SVGID_5_)" fill="none" stroke="#1D1D1B" stroke-width="1.443" stroke-linecap="round" stroke-miterlimit="10" points="
		752.686,351.828 755.408,352.582 763,354.705 769.68,356.557 	"/>
	<polygon clip-path="url(#SVGID_5_)" fill="#FFFFFF" points="272.417,261.075 268.606,251.15 222.151,217.301 	"/>
	<polygon clip-path="url(#SVGID_5_)" fill="#FFFFFF" points="221.225,215.735 262.046,227.983 267.174,244.877 255.724,238.005 
		252.237,240.921 	"/>
	<polygon clip-path="url(#SVGID_5_)" fill="#FFFFFF" points="259.131,238.489 266.742,242.812 263.679,233.142 	"/>
	<polygon clip-path="url(#SVGID_5_)" fill="#FFFFFF" points="258.162,234.481 274.818,242.181 268.541,250.832 252.681,239.654 	"/>
	
		<path clip-path="url(#SVGID_5_)" fill="none" stroke="#1D1D1B" stroke-width="1.443" stroke-linecap="round" stroke-miterlimit="10" d="
		M272.495,261.512l-53.43-46.912 M268.449,251.018l4.046,10.494"/>
	
		<line clip-path="url(#SVGID_5_)" fill="none" stroke="#1D1D1B" stroke-width="1.443" stroke-linecap="round" stroke-miterlimit="10" x1="261.601" y1="228.112" x2="219.064" y2="214.599"/>
	
		<path clip-path="url(#SVGID_5_)" fill="none" stroke="#1D1D1B" stroke-width="1.443" stroke-linecap="round" stroke-miterlimit="10" d="
		M268.546,250.838L219.064,214.6 M274.459,242.142l-5.913,8.696 M274.459,242.142l-9.035-4.128 M274.459,242.142l-7.04,3.345"/>
	
		<line clip-path="url(#SVGID_5_)" fill="none" stroke="#1D1D1B" stroke-width="1.443" stroke-linecap="round" stroke-miterlimit="10" x1="267.276" y1="245.529" x2="219.062" y2="214.602"/>
	<polyline clip-path="url(#SVGID_5_)" fill="#FFFFFF" points="267.726,245.216 266.791,242.55 264.202,235.105 261.91,228.563 	"/>
	
		<polyline clip-path="url(#SVGID_5_)" fill="none" stroke="#1D1D1B" stroke-width="1.443" stroke-linecap="round" stroke-miterlimit="10" points="
		267.726,245.216 266.791,242.55 264.202,235.105 261.91,228.563 	"/>
</g>
<g>
	<defs>
		<rect id="SVGID_3_" y="1" width="1275.591" height="708.661"/>
	</defs>
	<clipPath id="SVGID_6_">
		<use xlink:href="#SVGID_3_"  overflow="visible"/>
	</clipPath>
	<polygon clip-path="url(#SVGID_6_)" fill="#FFFFFF" points="792.164,216.544 792.164,168.487 386.864,168.487 386.864,281.559 
		893.768,281.559 893.768,216.544 	"/>
</g>
<rect y="1" fill="none" width="1275.591" height="708.661"/>
<path fill-rule="evenodd" clip-rule="evenodd" fill="#FFFFFF" d="M1220.33,66.594c1.145,2.513,2.526,4.712,3.686,7.205
	c-1.198,0.164-2.395,0.328-3.593,0.492c-4.858-9.231-9.734-18.437-14.584-27.677c-0.991-0.018-1.187,0.569-2.029,0.664
	c3.434,7.162,7.311,13.738,10.763,20.877c-1.248,0.08-2.484,0.144-3.645,0.114c-3.447-6.326-6.826-12.743-10.152-19.227
	c-0.589,0.4-1.173,0.805-1.761,1.206c2.889,6.165,6.227,11.74,9.185,17.817c-1.473-0.368-3.053-0.591-4.393-1.132
	c-2.569-4.656-5.004-9.485-7.533-14.19c-0.594,0.453-1.191,0.904-1.521,1.556c1.773,3.768,3.676,7.363,5.717,10.78
	c-3.239-0.945-6.049-4.388-8.328-7.338c1.817-6.36,5.683-11.166,11.934-14.161c-1.134-2.749-2.546-5.131-3.926-7.555
	c0.825-0.56,2.572-0.42,3.756-0.707c0.996,2.483,2.38,4.457,3.446,6.849c12.442-3.253,21.142,1.979,26.375,9.682
	C1231.577,58.522,1227.29,63.573,1220.33,66.594 M1226.99,58.938c2.579-1.934,4.715-4.294,6.407-6.658
	c-0.021-0.244,0.208-0.296,0.114-0.593c-5.205-4.083-11.947-7.663-20.969-6.762c-1.372,0.136-2.607,0.127-3.235,0.748
	c1.343-0.33,1.905-0.211,3.085-0.142c7.701,0.439,11.79,8.157,8.682,13.833c-0.703,1.284-1.257,2.435-2.775,3.656
	C1221.658,62.923,1224.545,60.771,1226.99,58.938"/>
<g>
	<defs>
		<rect id="SVGID_2_" y="1" width="1275.591" height="708.661"/>
	</defs>
	<clipPath id="SVGID_7_">
		<use xlink:href="#SVGID_2_"  overflow="visible"/>
	</clipPath>
	
		<line clip-path="url(#SVGID_7_)" fill="none" stroke="#231F20" stroke-width="1.916" x1="1079.793" y1="654.951" x2="1227.992" y2="648.095"/>
	<polygon clip-path="url(#SVGID_7_)" fill="#FFFFFF" points="1224.336,646.836 1224.336,631.271 1076.888,631.271 1076.888,667.89 
		1234.046,667.89 1234.046,646.836 	"/>
	<polygon clip-path="url(#SVGID_7_)" fill="none" stroke="#231F20" stroke-width="1.437" points="1224.336,646.836 
		1224.336,631.271 1076.888,631.271 1076.888,667.89 1234.046,667.89 1234.046,646.836 	"/>
</g>
<g>
	<defs>
		<rect id="SVGID_1_" y="1" width="1275.591" height="708.661"/>
	</defs>
	<clipPath id="SVGID_8_">
		<use xlink:href="#SVGID_1_"  overflow="visible"/>
	</clipPath>
	<polygon clip-path="url(#SVGID_8_)" fill="#FFFFFF" points="1213.318,602.676 1213.318,580.203 1076.888,580.203 1076.888,616.906 
		1166.143,616.906 1166.143,602.676 	"/>
	<polygon clip-path="url(#SVGID_8_)" fill="none" stroke="#231F20" stroke-width="1.44" points="1213.318,602.676 1213.318,580.203 
		1076.888,580.203 1076.888,616.906 1166.143,616.906 1166.143,602.676 	"/>
</g>
</svg>
