<?xml version="1.0" encoding="utf-8"?>
<!-- Generator: Adobe Illustrator 13.0.2, SVG Export Plug-In  -->
<!DOCTYPE svg PUBLIC "-//W3C//DTD SVG 1.1//EN" "http://www.w3.org/Graphics/SVG/1.1/DTD/svg11.dtd" [
	<!ENTITY ns_flows "http://ns.adobe.com/Flows/1.0/">
]>
<svg version="1.1"
	 xmlns="http://www.w3.org/2000/svg" xmlns:xlink="http://www.w3.org/1999/xlink" xmlns:a="http://ns.adobe.com/AdobeSVGViewerExtensions/3.0/"
	 x="0px" y="0px" width="45px" height="63px" viewBox="0 0 45 63" enable-background="new 0 0 45 63" xml:space="preserve">
<defs>
</defs>
<polygon fill="none" stroke="#000000" stroke-width="3.413" stroke-miterlimit="10" points="30.228,1.707 1.707,1.707 1.707,61.19 
	43.148,61.19 43.148,15.604 "/>
<polyline points="30.228,1.707 30.228,15.604 43.148,15.604 "/>
<polyline fill="none" stroke="#000000" stroke-width="3.413" stroke-miterlimit="10" points="30.228,1.707 30.228,15.604 
	43.148,15.604 "/>
<path d="M13.038,39.801h-1.896v-9.728h2.844c1.268,0,1.953,0.205,2.567,0.744c0.627,0.569,0.991,1.416,0.991,2.349
	c0,0.846-0.292,1.633-0.787,2.173c-0.554,0.583-1.342,0.86-2.494,0.86h-1.225V39.801z M13.811,34.551
	c1.181,0,1.779-0.467,1.779-1.398c0-0.467-0.19-0.891-0.495-1.123c-0.293-0.219-0.701-0.307-1.401-0.307h-0.656v2.829H13.811z"/>
<path d="M18.943,30.074h2.786c1.43,0,2.567,0.365,3.486,1.123c1.093,0.891,1.736,2.277,1.736,3.734c0,1.443-0.657,2.829-1.765,3.748
	c-0.935,0.787-1.998,1.121-3.472,1.121h-2.772V30.074z M21.351,38.153c1.225,0,1.999-0.232,2.596-0.772
	c0.656-0.583,1.05-1.517,1.05-2.45c0-0.933-0.394-1.838-1.05-2.42c-0.627-0.569-1.371-0.788-2.596-0.788h-0.51v6.432h0.51V38.153z"
	/>
<polygon points="30.599,31.723 30.599,33.881 33.646,33.881 33.646,35.528 30.599,35.528 30.599,39.801 28.703,39.801 
	28.703,30.074 33.851,30.074 33.851,31.723 "/>
</svg>
