<?xml version="1.0" encoding="utf-8"?>
<!-- Generator: Adobe Illustrator 13.0.2, SVG Export Plug-In  -->
<!DOCTYPE svg PUBLIC "-//W3C//DTD SVG 1.1//EN" "http://www.w3.org/Graphics/SVG/1.1/DTD/svg11.dtd" [
	<!ENTITY ns_flows "http://ns.adobe.com/Flows/1.0/">
]>
<svg version="1.1"
	 xmlns="http://www.w3.org/2000/svg" xmlns:xlink="http://www.w3.org/1999/xlink" xmlns:a="http://ns.adobe.com/AdobeSVGViewerExtensions/3.0/"
	 x="0px" y="0px" width="488px" height="118px" viewBox="0 0 488 118" enable-background="new 0 0 488 118" xml:space="preserve">
<defs>
</defs>
<polygon fill="#FFFFFF" points="485.588,51.701 485.588,115.753 1.844,115.753 1.844,2.29 455.088,2.289 455.696,51.091 "/>
<path fill="#231F20" d="M488,117.838H0V0h457.547v48.193H488V117.838z M4.447,113.39h479.104V52.642H453.1V4.448H4.447V113.39z"/>
<polygon fill="#231F20" points="24.204,51.784 24.204,32.064 18.9,32.064 18.9,28.042 34.17,28.042 34.17,32.064 28.832,32.064 
	28.832,51.784 "/>
<polygon fill="#231F20" points="41.719,32.064 41.719,37.332 49.905,37.332 49.905,41.354 41.719,41.354 41.719,47.763 
	50.227,47.763 50.227,51.784 37.092,51.784 37.092,28.042 50.227,28.042 50.227,32.064 "/>
<polygon fill="#231F20" points="59.873,47.763 67.168,47.763 67.168,51.785 55.246,51.785 55.246,28.042 59.873,28.042 "/>
<polygon fill="#231F20" points="74.857,32.064 74.857,37.332 83.045,37.332 83.045,41.354 74.857,41.354 74.857,47.763 
	83.365,47.763 83.365,51.784 70.23,51.784 70.23,28.042 83.365,28.042 83.365,32.064 "/>
<polygon fill="#231F20" points="92.976,32.064 92.976,37.332 100.417,37.332 100.417,41.354 92.976,41.354 92.976,51.784 
	88.35,51.784 88.35,28.042 100.915,28.042 100.915,32.064 "/>
<path fill="#231F20" d="M128.894,39.931c0,7.01-5.589,12.388-12.815,12.388c-7.121,0-12.566-5.447-12.566-12.567
	c0-6.764,5.694-12.245,12.743-12.245C123.341,27.507,128.894,32.954,128.894,39.931 M108.283,39.822c0,4.593,3.524,8.26,7.938,8.26
	c4.342,0,7.9-3.667,7.9-8.188s-3.523-8.152-7.936-8.152C111.878,31.743,108.283,35.411,108.283,39.822"/>
<polygon fill="#231F20" points="133.271,27.507 136.476,27.507 150.928,44.026 150.928,28.042 155.555,28.042 155.555,52.246 
	152.352,52.246 137.899,35.73 137.899,51.784 133.271,51.784 "/>
<rect x="161.215" y="28.041" fill="#231F20" width="4.626" height="23.743"/>
<path fill="#231F20" d="M188.516,34.412c-1.921-1.886-3.593-2.67-5.801-2.67c-4.378,0-7.761,3.596-7.761,8.26
	c0,4.625,3.383,8.08,7.867,8.08c2.241,0,3.81-0.711,5.695-2.598v5.446c-2.134,0.998-3.81,1.389-5.801,1.389
	c-7.012,0-12.529-5.413-12.529-12.281c0-6.941,5.589-12.531,12.529-12.531c2.099,0,3.739,0.427,5.801,1.459V34.412z"/>
<polygon fill="#231F20" points="209.625,47.763 209.625,51.785 191.009,51.785 202.614,32.064 192.824,32.064 192.824,28.042 
	210.268,28.042 198.697,47.763 "/>
<polygon fill="#231F20" points="213.684,27.507 216.886,27.507 231.338,44.026 231.338,28.042 235.968,28.042 235.968,52.246 
	232.764,52.246 218.312,35.73 218.312,51.784 213.684,51.784 "/>
<path fill="#231F20" d="M245.828,46.767l-2.137,5.017h-4.914l10.289-24.241h3.486l9.97,24.241h-4.949l-2.026-5.017H245.828z
	 M250.774,34.482l-3.452,8.545h6.763L250.774,34.482z"/>
<polygon fill="#231F20" points="287.583,28.042 293.419,28.042 283.381,39.005 293.953,51.785 287.866,51.785 279.43,41.104 
	278.86,41.675 278.86,51.785 274.233,51.785 274.233,28.042 278.86,28.042 278.86,38.079 "/>
<path fill="#231F20" d="M319.582,39.931c0,7.01-5.589,12.388-12.812,12.388c-7.121,0-12.566-5.447-12.566-12.567
	c0-6.764,5.695-12.245,12.744-12.245C314.03,27.507,319.582,32.954,319.582,39.931 M298.973,39.822c0,4.593,3.526,8.26,7.938,8.26
	c4.344,0,7.902-3.667,7.902-8.188s-3.522-8.152-7.937-8.152C302.568,31.743,298.973,35.411,298.973,39.822"/>
<path fill="#231F20" d="M328.555,51.784h-4.629V28.042h6.94c3.097,0,4.772,0.498,6.268,1.813c1.53,1.388,2.419,3.455,2.419,5.732
	c0,2.065-0.712,3.986-1.921,5.303c-1.355,1.425-3.276,2.103-6.087,2.103h-2.99V51.784z M330.439,38.969
	c2.885,0,4.344-1.139,4.344-3.418c0-1.138-0.463-2.169-1.21-2.74c-0.713-0.534-1.708-0.747-3.419-0.747h-1.6v6.905H330.439z"/>
<path fill="#231F20" d="M345.816,46.767l-2.135,5.017h-4.913l10.288-24.241h3.49l9.965,24.241h-4.946l-2.029-5.017H345.816z
	 M350.767,34.482l-3.456,8.545h6.767L350.767,34.482z"/>
<polygon fill="#231F20" points="369.988,47.763 377.286,47.763 377.286,51.785 365.36,51.785 365.36,28.042 369.988,28.042 "/>
<polygon fill="#231F20" points="380.347,27.507 383.55,27.507 398.003,44.026 398.003,28.042 402.631,28.042 402.631,52.246 
	399.425,52.246 384.974,35.73 384.974,51.784 380.347,51.784 "/>
<rect x="408.289" y="28.041" fill="#231F20" width="4.629" height="23.743"/>
<path fill="#231F20" d="M422.742,46.767l-2.138,5.017h-4.911l10.285-24.241h3.491l9.966,24.241h-4.948l-2.028-5.017H422.742z
	 M427.689,34.482l-3.453,8.545H431L427.689,34.482z"/>
<rect x="21.395" y="71.041" fill="#231F20" width="4.625" height="23.744"/>
<polygon fill="#231F20" points="31.644,70.508 34.846,70.508 49.298,87.026 49.298,71.042 53.927,71.042 53.927,95.247 
	50.723,95.247 36.272,78.73 36.272,94.786 31.644,94.786 "/>
<polygon fill="#231F20" points="64.214,75.064 64.214,80.333 71.655,80.333 71.655,84.354 64.214,84.354 64.214,94.786 
	59.586,94.786 59.586,71.042 72.154,71.042 72.154,75.064 "/>
<path fill="#231F20" d="M100.131,82.932c0,7.012-5.59,12.387-12.814,12.387c-7.118,0-12.566-5.445-12.566-12.564
	c0-6.765,5.696-12.246,12.743-12.246C94.579,70.508,100.131,75.954,100.131,82.932 M79.52,82.823c0,4.593,3.526,8.259,7.938,8.259
	c4.343,0,7.903-3.666,7.903-8.186c0-4.521-3.524-8.152-7.938-8.152C83.115,74.744,79.52,78.411,79.52,82.823"/>
<path fill="#231F20" d="M121.846,94.786h-5.695l-6.41-9.541h-0.601v9.541h-4.629V71.042h6.872c2.634,0,4.733,0.569,6.05,1.672
	c1.459,1.212,2.349,3.24,2.349,5.341c0,2.137-0.817,4.095-2.136,5.232c-0.924,0.783-1.779,1.211-3.273,1.495L121.846,94.786z
	 M110.489,81.969c2.921,0,4.523-1.278,4.523-3.63c0-2.35-1.533-3.559-4.451-3.559h-1.422v7.188H110.489z"/>
<polygon fill="#231F20" points="128.607,70.615 131.776,70.615 138.255,86.135 144.984,70.615 148.186,70.615 152.138,94.787 
	147.475,94.787 145.34,80.156 138.824,95.106 137.542,95.106 131.242,80.156 128.857,94.787 124.195,94.787 "/>
<path fill="#231F20" d="M161.394,89.767l-2.136,5.02h-4.912l10.287-24.242h3.488l9.967,24.242h-4.947l-2.029-5.02H161.394z
	 M166.341,77.484l-3.454,8.544h6.766L166.341,77.484z"/>
<path fill="#231F20" d="M197.061,77.413c-1.922-1.886-3.596-2.67-5.801-2.67c-4.381,0-7.762,3.596-7.762,8.26
	c0,4.626,3.381,8.079,7.868,8.079c2.246,0,3.81-0.712,5.695-2.598v5.446c-2.135,0.997-3.81,1.388-5.801,1.388
	c-7.012,0-12.532-5.412-12.532-12.28c0-6.94,5.59-12.531,12.532-12.531c2.1,0,3.736,0.427,5.801,1.46V77.413z"/>
<path fill="#231F20" d="M210.943,87.061c0,3.275-0.64,5.27-2.102,6.655c-1.136,1.032-2.775,1.639-4.448,1.639
	c-2.136,0-3.917-0.713-5.552-2.244l2.776-3.38c0.606,0.89,1.388,1.352,2.316,1.352c0.959,0,1.743-0.532,2.063-1.424
	c0.249-0.675,0.318-1.352,0.318-3.345V71.041h4.629V87.061z"/>
<rect x="216.532" y="71.041" fill="#231F20" width="4.629" height="23.744"/>
<path fill="#231F20" d="M231.696,92.434c0,1.567-1.245,2.813-2.776,2.813c-1.567,0-2.813-1.246-2.813-2.813
	c0-1.529,1.282-2.775,2.776-2.775C230.452,89.658,231.696,90.904,231.696,92.434"/>
<path fill="#231F20" d="M249.6,94.786h-4.625V71.042h6.94c3.099,0,4.771,0.498,6.265,1.814c1.53,1.389,2.423,3.454,2.423,5.732
	c0,2.063-0.713,3.984-1.926,5.303c-1.352,1.426-3.273,2.103-6.085,2.103H249.6V94.786z M251.49,81.969
	c2.88,0,4.341-1.138,4.341-3.417c0-1.139-0.466-2.17-1.212-2.74c-0.711-0.534-1.707-0.747-3.415-0.747H249.6v6.904H251.49z"/>
<path fill="#231F20" d="M281.318,94.786h-5.696l-6.407-9.541h-0.605v9.541h-4.629V71.042h6.873c2.633,0,4.731,0.569,6.051,1.672
	c1.458,1.212,2.349,3.24,2.349,5.341c0,2.137-0.818,4.095-2.136,5.232c-0.924,0.783-1.782,1.211-3.275,1.495L281.318,94.786z
	 M269.961,81.969c2.921,0,4.524-1.278,4.524-3.63c0-2.35-1.531-3.559-4.454-3.559h-1.422v7.188H269.961z"/>
<polygon fill="#231F20" points="301.964,90.764 301.964,94.786 283.346,94.786 294.953,75.064 285.161,75.064 285.161,71.042 
	302.604,71.042 291.035,90.764 "/>
<polygon fill="#231F20" points="310.615,75.064 310.615,80.333 318.8,80.333 318.8,84.354 310.615,84.354 310.615,90.764 
	319.121,90.764 319.121,94.786 305.986,94.786 305.986,71.042 319.121,71.042 319.121,75.064 "/>
<polygon fill="#231F20" points="331.688,87.203 337.488,70.83 340.016,70.83 345.536,87.203 351.229,71.041 356.107,71.041 
	347.171,95.247 343.932,95.247 338.664,79.728 333.111,95.247 329.874,95.247 321.472,71.041 326.348,71.041 "/>
<path fill="#231F20" d="M382.271,82.932c0,7.012-5.589,12.387-12.816,12.387c-7.119,0-12.563-5.445-12.563-12.564
	c0-6.765,5.693-12.246,12.74-12.246C376.718,70.508,382.271,75.954,382.271,82.932 M361.659,82.823c0,4.593,3.524,8.259,7.937,8.259
	c4.343,0,7.903-3.666,7.903-8.186c0-4.521-3.523-8.152-7.938-8.152C365.257,74.744,361.659,78.411,361.659,82.823"/>
<path fill="#231F20" d="M386.648,71.042h6.798c3.486,0,6.264,0.888,8.509,2.741c2.668,2.171,4.237,5.552,4.237,9.113
	c0,3.522-1.605,6.906-4.309,9.148c-2.278,1.92-4.878,2.741-8.473,2.741h-6.763V71.042z M392.521,90.764
	c2.989,0,4.877-0.57,6.336-1.889c1.6-1.422,2.562-3.7,2.562-5.979c0-2.279-0.963-4.485-2.562-5.911
	c-1.529-1.387-3.347-1.921-6.336-1.921h-1.244v15.699H392.521z"/>
<polygon fill="#231F20" points="410.498,70.508 413.701,70.508 428.154,87.026 428.154,71.042 432.783,71.042 432.783,95.247 
	429.576,95.247 415.124,78.73 415.124,94.786 410.498,94.786 "/>
<rect x="438.439" y="71.041" fill="#231F20" width="4.629" height="23.744"/>
<polygon fill="#231F20" points="462.042,71.042 467.878,71.042 457.838,82.004 468.413,94.786 462.324,94.786 453.889,84.105 
	453.318,84.676 453.318,94.786 448.692,94.786 448.692,71.042 453.318,71.042 453.318,81.079 "/>
</svg>
