<?xml version="1.0" encoding="utf-8"?>
<!-- Generator: Adobe Illustrator 13.0.0, SVG Export Plug-In . SVG Version: 6.00 Build 14948)  -->
<!DOCTYPE svg PUBLIC "-//W3C//DTD SVG 1.1//EN" "http://www.w3.org/Graphics/SVG/1.1/DTD/svg11.dtd">
<svg version="1.1" id="Layer_1" xmlns="http://www.w3.org/2000/svg" xmlns:xlink="http://www.w3.org/1999/xlink" x="0px" y="0px"
	 width="329px" height="212px" viewBox="38 37 329 212" enable-background="new 38 37 329 212" xml:space="preserve">
<rect x="42.52" y="202.563" fill="#1A171B" width="8.504" height="8.504"/>
<path fill="#1A171B" d="M54.901,209.563v-0.379l0.483-0.469c1.163-1.105,1.688-1.695,1.695-2.381c0-0.462-0.224-0.891-0.903-0.891
	c-0.413,0-0.756,0.211-0.966,0.386l-0.196-0.435c0.315-0.267,0.763-0.463,1.289-0.463c0.98,0,1.394,0.672,1.394,1.324
	c0,0.84-0.609,1.52-1.569,2.444l-0.364,0.336v0.014h2.045v0.511h-2.908V209.563z"/>
<path fill="#1A171B" d="M61.518,207.236c0,1.549-0.574,2.402-1.583,2.402c-0.889,0-1.492-0.832-1.506-2.339
	c0-1.526,0.659-2.366,1.583-2.366C60.972,204.934,61.518,205.787,61.518,207.236z M59.046,207.307c0,1.185,0.364,1.856,0.924,1.856
	c0.63,0,0.932-0.735,0.932-1.897c0-1.121-0.287-1.856-0.925-1.856C59.438,205.409,59.046,206.066,59.046,207.307z"/>
<path fill="#1A171B" d="M63.421,205.584h-0.014l-0.791,0.427l-0.119-0.469l0.995-0.532h0.525v4.553h-0.595L63.421,205.584
	L63.421,205.584z"/>
<path fill="#1A171B" d="M67.012,205.584h-0.014l-0.791,0.427l-0.119-0.469l0.995-0.532h0.525v4.553h-0.595L67.012,205.584
	L67.012,205.584z"/>
<path fill="#1A171B" d="M72.724,207.23c0-0.399-0.007-0.744-0.028-1.059h0.539l0.021,0.665h0.028
	c0.154-0.455,0.525-0.742,0.938-0.742c0.07,0,0.119,0.007,0.175,0.021v0.581c-0.063-0.014-0.126-0.021-0.21-0.021
	c-0.434,0-0.742,0.33-0.827,0.792c-0.014,0.084-0.028,0.183-0.028,0.287v1.808h-0.609L72.724,207.23L72.724,207.23z"/>
<path fill="#1A171B" d="M75.16,209.639c-0.238,0-0.406-0.188-0.406-0.44c0-0.259,0.175-0.441,0.42-0.441
	c0.246,0,0.414,0.183,0.414,0.441c0,0.252-0.161,0.44-0.42,0.44H75.16z"/>
<rect x="42.52" y="214.934" fill="#00FF00" width="8.504" height="8.504"/>
<path fill="#1A171B" d="M54.901,221.932v-0.379l0.483-0.469c1.163-1.105,1.688-1.695,1.695-2.381c0-0.462-0.224-0.891-0.903-0.891
	c-0.413,0-0.756,0.211-0.966,0.386l-0.196-0.435c0.315-0.267,0.763-0.463,1.289-0.463c0.98,0,1.394,0.672,1.394,1.324
	c0,0.84-0.609,1.52-1.569,2.443l-0.364,0.337v0.014h2.045v0.511h-2.908V221.932z"/>
<path fill="#1A171B" d="M61.518,219.605c0,1.547-0.574,2.401-1.583,2.401c-0.889,0-1.492-0.833-1.506-2.339
	c0-1.527,0.659-2.367,1.583-2.367C60.972,217.301,61.518,218.156,61.518,219.605z M59.046,219.675c0,1.185,0.364,1.856,0.924,1.856
	c0.63,0,0.932-0.735,0.932-1.898c0-1.121-0.287-1.855-0.925-1.855C59.438,217.777,59.046,218.436,59.046,219.675z"/>
<path fill="#1A171B" d="M63.421,217.953h-0.014l-0.791,0.427l-0.119-0.469l0.995-0.532h0.525v4.553h-0.595L63.421,217.953
	L63.421,217.953z"/>
<path fill="#1A171B" d="M65.674,221.932v-0.379l0.483-0.469c1.163-1.105,1.688-1.695,1.695-2.381c0-0.462-0.224-0.891-0.903-0.891
	c-0.413,0-0.756,0.211-0.966,0.386l-0.196-0.435c0.315-0.267,0.763-0.463,1.289-0.463c0.98,0,1.394,0.672,1.394,1.324
	c0,0.84-0.609,1.52-1.569,2.443l-0.364,0.337v0.014h2.045v0.511h-2.908V221.932z"/>
<path fill="#1A171B" d="M72.724,219.6c0-0.399-0.007-0.744-0.028-1.059h0.539l0.021,0.665h0.028
	c0.154-0.455,0.525-0.742,0.938-0.742c0.07,0,0.119,0.007,0.175,0.021v0.582c-0.063-0.015-0.126-0.021-0.21-0.021
	c-0.434,0-0.742,0.33-0.827,0.792c-0.014,0.084-0.028,0.183-0.028,0.287v1.808h-0.609L72.724,219.6L72.724,219.6z"/>
<path fill="#1A171B" d="M75.16,222.008c-0.238,0-0.406-0.189-0.406-0.441c0-0.258,0.175-0.44,0.42-0.44
	c0.246,0,0.414,0.183,0.414,0.44c0,0.252-0.161,0.441-0.42,0.441H75.16z"/>
<g>
	<g>
		<defs>
			<rect id="SVGID_1_" width="419.528" height="595.276"/>
		</defs>
		<clipPath id="SVGID_2_">
			<use xlink:href="#SVGID_1_"  overflow="visible"/>
		</clipPath>
		<path clip-path="url(#SVGID_2_)" fill="#1A171B" d="M297.01,47.163c0.612,0,1.09,0.487,1.09,1.108c0,0.585-0.494,1.08-1.09,1.08
			c-0.604,0-1.099-0.486-1.099-1.098C295.911,47.65,296.396,47.163,297.01,47.163 M297.982,46.31v0.502
			c-0.379-0.44-0.767-0.628-1.297-0.628c-1.072,0-1.898,0.899-1.898,2.069c0,1.188,0.818,2.078,1.916,2.078
			c0.541,0,0.928-0.188,1.279-0.629v0.504h1.088V46.31H297.982z M293.328,44.006c-0.357,0-0.656,0.296-0.656,0.647
			c0,0.369,0.288,0.665,0.656,0.665c0.359,0,0.656-0.296,0.656-0.656C293.984,44.293,293.697,44.006,293.328,44.006 M293.868,46.31
			h-1.089v3.896h1.089V46.31z M287.889,46.31v3.895h1.088V48.19c0-0.738,0.27-1.081,0.828-1.081c0.287,0,0.53,0.117,0.639,0.307
			c0.082,0.135,0.109,0.306,0.109,0.63v2.159h1.088v-2.474c0-0.532-0.082-0.819-0.308-1.08c-0.261-0.297-0.674-0.467-1.133-0.467
			c-0.532,0-0.884,0.17-1.226,0.611V46.31H287.889z M284.665,47.163c0.612,0,1.09,0.487,1.09,1.108c0,0.585-0.493,1.08-1.09,1.08
			c-0.603,0-1.099-0.486-1.099-1.098C283.566,47.65,284.055,47.163,284.665,47.163 M285.639,46.31v0.502
			c-0.377-0.44-0.767-0.628-1.297-0.628c-1.07,0-1.898,0.899-1.898,2.069c0,1.188,0.818,2.078,1.916,2.078
			c0.541,0,0.929-0.188,1.279-0.629v0.504h1.088V46.31H285.639z M281.173,47.253h0.774V46.31h-0.774v-1.332h-1.088v1.332h-0.433
			v0.943h0.433v2.952h1.088V47.253z M276.239,49.612l-1.431,2.672h1.231l3.149-5.974h-1.25l-1.107,2.213l-1.17-2.213h-1.27
			L276.239,49.612z M271.898,47.163c0.612,0,1.1,0.487,1.1,1.108c0,0.585-0.496,1.08-1.09,1.08c-0.604,0-1.098-0.486-1.098-1.098
			C270.811,47.65,271.296,47.163,271.898,47.163 M270.928,52.284v-2.582c0.387,0.441,0.773,0.629,1.297,0.629
			c1.069,0,1.897-0.899,1.897-2.069c0-1.189-0.817-2.078-1.917-2.078c-0.54,0-0.928,0.188-1.277,0.629v-0.504h-1.089v5.975H270.928z
			 M264.482,47.163c0.613,0,1.091,0.487,1.091,1.108c0,0.585-0.495,1.08-1.091,1.08c-0.604,0-1.098-0.486-1.098-1.098
			C263.386,47.65,263.871,47.163,264.482,47.163 M265.456,46.31v0.502c-0.378-0.44-0.767-0.628-1.297-0.628
			c-1.071,0-1.897,0.899-1.897,2.069c0,1.188,0.817,2.078,1.916,2.078c0.539,0,0.928-0.188,1.278-0.629v0.504h0.565
			c-0.26,0.143-0.358,0.216-0.467,0.333c-0.152,0.171-0.252,0.423-0.252,0.648c0,0.378,0.35,0.683,0.791,0.683
			c0.225,0,0.413-0.054,0.575-0.152l0.136-0.603c-0.162,0.081-0.298,0.118-0.433,0.118c-0.226,0-0.388-0.154-0.388-0.361
			c0-0.216,0.108-0.36,0.441-0.586c0.026-0.018,0.071-0.054,0.116-0.081V46.31H265.456z M259.536,49.262l2.205-2.97h-3.789v0.943
			h1.872l-2.215,2.97h3.988v-0.943H259.536z M256.986,46.417c-0.314-0.162-0.603-0.233-0.989-0.233
			c-1.215,0-2.142,0.907-2.142,2.096c0,1.161,0.927,2.051,2.133,2.051c0.359,0,0.647-0.063,0.998-0.242v-1.062
			c-0.297,0.234-0.549,0.324-0.881,0.324c-0.648,0-1.125-0.459-1.125-1.089c0-0.63,0.477-1.099,1.125-1.099
			c0.324,0,0.565,0.09,0.881,0.334V46.417z M250.643,49.612l-1.433,2.672h1.233l3.149-5.974h-1.251l-1.107,2.213l-1.17-2.213h-1.27
			L250.643,49.612z M247.602,47.253h0.773V46.31h-0.773v-1.332h-1.088v1.332h-0.433v0.943h0.433v2.952h1.088V47.253z
			 M243.311,47.163c0.61,0,1.105,0.487,1.105,1.099c0,0.603-0.495,1.089-1.098,1.089c-0.623,0-1.108-0.486-1.108-1.107
			C242.21,47.659,242.714,47.163,243.311,47.163 M243.327,46.184c-1.306,0-2.241,0.854-2.241,2.042c0,1.251,0.898,2.105,2.205,2.105
			c1.332,0,2.249-0.845,2.249-2.078C245.54,47.029,244.632,46.184,243.327,46.184 M238.083,47.163c0.612,0,1.09,0.487,1.09,1.108
			c0,0.585-0.493,1.08-1.09,1.08c-0.603,0-1.099-0.486-1.099-1.098C236.984,47.65,237.473,47.163,238.083,47.163 M239.057,43.466
			v3.347c-0.377-0.441-0.767-0.629-1.297-0.629c-1.07,0-1.898,0.899-1.898,2.069c0,1.188,0.818,2.078,1.916,2.078
			c0.541,0,0.929-0.188,1.279-0.629v0.504h1.088v-6.74H239.057z M229.021,43.466v6.739h1.088v-1.997c0-0.747,0.27-1.099,0.828-1.099
			c0.289,0,0.531,0.126,0.64,0.316c0.081,0.135,0.108,0.315,0.108,0.648v2.132h1.088v-2.447c0-0.55-0.082-0.828-0.307-1.098
			c-0.262-0.306-0.675-0.476-1.134-0.476c-0.531,0-0.883,0.179-1.226,0.629v-3.347H229.021z M227.998,46.417
			c-0.314-0.162-0.604-0.233-0.99-0.233c-1.214,0-2.14,0.907-2.14,2.096c0,1.161,0.926,2.051,2.131,2.051
			c0.36,0,0.647-0.063,0.999-0.242v-1.062c-0.297,0.234-0.549,0.324-0.882,0.324c-0.647,0-1.125-0.459-1.125-1.089
			c0-0.63,0.478-1.099,1.125-1.099c0.323,0,0.567,0.09,0.882,0.334V46.417L227.998,46.417z M221.652,49.612l-1.432,2.672h1.232
			l3.15-5.974h-1.252l-1.106,2.213l-1.17-2.213h-1.269L221.652,49.612z M216.693,46.31v3.895h1.088v-1.871
			c0-0.441,0.063-0.684,0.242-0.891c0.162-0.181,0.396-0.28,0.693-0.28c0.217,0,0.323,0.027,0.521,0.135l0.152-1.016
			c-0.197-0.081-0.307-0.098-0.478-0.098c-0.495,0-0.854,0.224-1.134,0.719V46.31H216.693z M214.816,44.411l-0.793-0.504
			l-1.071,1.359l0.522,0.36L214.816,44.411z M213.52,47.163c0.612,0,1.107,0.487,1.107,1.099c0,0.603-0.495,1.089-1.1,1.089
			c-0.62,0-1.106-0.486-1.106-1.107C212.421,47.659,212.926,47.163,213.52,47.163 M213.537,46.184c-1.305,0-2.24,0.854-2.24,2.042
			c0,1.251,0.898,2.105,2.204,2.105c1.333,0,2.25-0.845,2.25-2.078C215.751,47.029,214.844,46.184,213.537,46.184 M210.031,47.253
			h0.773V46.31h-0.773v-1.332h-1.088v1.332h-0.432v0.943h0.432v2.952h1.088V47.253z M205.063,43.466h-1.088v6.739h1.088v-1.556
			l0.117-0.117l1.457,1.673h1.504l-1.972-2.186l1.827-1.709h-1.477l-1.457,1.421V43.466L205.063,43.466z M199.951,48.964
			l-0.963,2.421l0.693,0.081l1.269-2.385L199.951,48.964z M194.609,43.466v6.739h1.089v-1.997c0-0.747,0.27-1.099,0.829-1.099
			c0.287,0,0.531,0.126,0.639,0.316c0.081,0.135,0.107,0.315,0.107,0.648v2.132h1.088v-2.447c0-0.55-0.08-0.828-0.305-1.098
			c-0.261-0.306-0.675-0.476-1.134-0.476c-0.532,0-0.883,0.179-1.225,0.629v-3.347H194.609z M193.588,46.417
			c-0.314-0.162-0.604-0.233-0.99-0.233c-1.215,0-2.141,0.907-2.141,2.096c0,1.161,0.926,2.051,2.132,2.051
			c0.36,0,0.647-0.063,0.999-0.242v-1.062c-0.297,0.234-0.549,0.324-0.882,0.324c-0.647,0-1.125-0.459-1.125-1.089
			c0-0.63,0.478-1.099,1.125-1.099c0.323,0,0.567,0.09,0.882,0.334V46.417L193.588,46.417z M187.241,49.612l-1.431,2.672h1.232
			l3.15-5.974h-1.252l-1.106,2.213l-1.17-2.213h-1.269L187.241,49.612z M181.137,46.31v3.895h1.086V48.19
			c0-0.738,0.271-1.081,0.829-1.081c0.288,0,0.531,0.117,0.64,0.307c0.082,0.135,0.108,0.306,0.108,0.63v2.159h1.087v-2.474
			c0-0.532-0.08-0.819-0.305-1.08c-0.262-0.297-0.675-0.467-1.134-0.467c-0.531,0-0.882,0.17-1.226,0.611V46.31H181.137z
			 M179.449,44.006c-0.359,0-0.656,0.296-0.656,0.647c0,0.369,0.297,0.665,0.656,0.665s0.656-0.296,0.656-0.656
			C180.105,44.293,179.818,44.006,179.449,44.006 M179.988,46.309H178.9v5.976h1.088V46.309z M175.273,49.612l-1.431,2.672h1.233
			l3.15-5.974h-1.252l-1.106,2.213l-1.17-2.213h-1.269L175.273,49.612z M172.875,46.417c-0.314-0.162-0.604-0.233-0.99-0.233
			c-1.214,0-2.14,0.907-2.14,2.096c0,1.161,0.926,2.051,2.131,2.051c0.36,0,0.647-0.063,0.999-0.242v-1.062
			c-0.297,0.234-0.549,0.324-0.882,0.324c-0.647,0-1.125-0.459-1.125-1.089c0-0.63,0.478-1.099,1.125-1.099
			c0.323,0,0.567,0.09,0.882,0.334V46.417L172.875,46.417z M166.742,47.163c0.611,0,1.089,0.487,1.089,1.108
			c0,0.585-0.495,1.08-1.089,1.08c-0.604,0-1.1-0.486-1.1-1.098C165.643,47.65,166.129,47.163,166.742,47.163 M167.714,46.31v0.502
			c-0.378-0.44-0.765-0.628-1.296-0.628c-1.072,0-1.899,0.899-1.899,2.069c0,1.188,0.818,2.078,1.917,2.078
			c0.541,0,0.928-0.188,1.278-0.629v0.504h1.088V46.31H167.714z M161.236,43.466h-1.088v6.739h1.088v-1.556l0.117-0.117l1.458,1.673
			h1.503l-1.971-2.186l1.827-1.709h-1.476l-1.458,1.421V43.466L161.236,43.466z M158.462,44.006c-0.36,0-0.657,0.296-0.657,0.647
			c0,0.369,0.288,0.665,0.657,0.665c0.359,0,0.656-0.296,0.656-0.656C159.118,44.293,158.83,44.006,158.462,44.006 M159.001,46.31
			h-1.088v3.896h1.088V46.31z M153.021,46.31v3.895h1.088V48.19c0-0.738,0.27-1.081,0.829-1.081c0.288,0,0.531,0.117,0.639,0.307
			c0.081,0.135,0.108,0.306,0.108,0.63v2.159h1.088v-2.474c0-0.532-0.081-0.819-0.306-1.08c-0.26-0.297-0.674-0.467-1.133-0.467
			c-0.531,0-0.883,0.17-1.225,0.611V46.31H153.021z M149.188,46.31H148.1v2.384c0,1.053,0.674,1.637,1.889,1.637
			c1.207,0,1.881-0.584,1.881-1.637V46.31h-1.088v2.204c0,0.585-0.27,0.892-0.793,0.892c-0.531,0-0.801-0.307-0.801-0.892V46.31
			L149.188,46.31z M140.9,46.31v3.895h1.088v-1.997c0-0.378,0.036-0.585,0.126-0.747c0.108-0.208,0.369-0.352,0.613-0.352
			c0.252,0,0.495,0.153,0.585,0.379c0.063,0.144,0.081,0.315,0.081,0.648v2.069h1.088v-1.997c0-0.342,0.036-0.54,0.117-0.711
			c0.117-0.244,0.36-0.388,0.64-0.388c0.252,0,0.45,0.126,0.549,0.343c0.072,0.162,0.09,0.306,0.09,0.621v2.132h1.088v-2.519
			c0-0.433-0.063-0.711-0.207-0.945c-0.207-0.342-0.62-0.557-1.088-0.557c-0.549,0-0.973,0.233-1.279,0.71
			c-0.297-0.495-0.674-0.71-1.214-0.71c-0.477,0-0.829,0.161-1.189,0.575V46.31H140.9z M137.726,47.163
			c0.613,0,1.108,0.487,1.108,1.099c0,0.603-0.495,1.089-1.099,1.089c-0.621,0-1.107-0.486-1.107-1.107
			C136.628,47.659,137.132,47.163,137.726,47.163 M137.744,46.184c-1.305,0-2.24,0.854-2.24,2.042c0,1.251,0.899,2.105,2.204,2.105
			c1.333,0,2.25-0.845,2.25-2.078C139.958,47.029,139.05,46.184,137.744,46.184 M132.252,43.466h-1.088v6.739h1.088v-1.556
			l0.117-0.117l1.458,1.673h1.503l-1.971-2.186l1.827-1.709h-1.476l-1.458,1.421V43.466L132.252,43.466z M127.312,47.741
			c0.099-0.487,0.432-0.776,0.918-0.776s0.81,0.271,0.927,0.776H127.312z M130.201,48.432v-0.143c0-1.306-0.756-2.105-1.998-2.105
			c-1.242,0-2.043,0.817-2.043,2.078c0,1.251,0.828,2.069,2.097,2.069c0.918,0,1.575-0.413,1.908-1.214l-1.008-0.162
			c-0.252,0.369-0.513,0.523-0.927,0.523c-0.594,0-0.927-0.37-0.954-1.046H130.201z M125.204,43.466h-1.088v6.74h1.088V43.466z
			 M120.268,47.741c0.099-0.487,0.432-0.776,0.918-0.776s0.81,0.271,0.927,0.776H120.268z M123.157,48.432v-0.143
			c0-1.306-0.756-2.105-1.998-2.105c-1.242,0-2.043,0.817-2.043,2.078c0,1.251,0.828,2.069,2.097,2.069
			c0.918,0,1.575-0.413,1.908-1.214l-1.008-0.162c-0.252,0.369-0.513,0.523-0.927,0.523c-0.594,0-0.927-0.37-0.954-1.046H123.157z
			 M117.838,47.253h0.774V46.31h-0.774v-1.332h-1.088v1.332h-0.432v0.943h0.432v2.952h1.088V47.253z M109.694,43.466v6.739h1.088
			v-1.997c0-0.747,0.27-1.099,0.828-1.099c0.289,0,0.532,0.126,0.64,0.316c0.081,0.135,0.108,0.315,0.108,0.648v2.132h1.088v-2.447
			c0-0.55-0.081-0.828-0.306-1.098c-0.261-0.306-0.674-0.476-1.133-0.476c-0.532,0-0.883,0.179-1.225,0.629v-3.347H109.694z
			 M108.671,46.417c-0.315-0.162-0.603-0.233-0.99-0.233c-1.214,0-2.14,0.907-2.14,2.096c0,1.161,0.926,2.051,2.131,2.051
			c0.36,0,0.648-0.063,0.999-0.242v-1.062c-0.297,0.234-0.549,0.324-0.882,0.324c-0.648,0-1.125-0.459-1.125-1.089
			c0-0.63,0.477-1.099,1.125-1.099c0.324,0,0.567,0.09,0.882,0.334V46.417z M102.325,49.612l-1.431,2.672h1.233l3.15-5.974h-1.251
			l-1.107,2.213l-1.17-2.213h-1.269L102.325,49.612z M96.219,46.31v3.895h1.088V48.19c0-0.738,0.271-1.081,0.829-1.081
			c0.288,0,0.531,0.117,0.639,0.307c0.081,0.135,0.108,0.306,0.108,0.63v2.159h1.088v-2.474c0-0.532-0.081-0.819-0.305-1.08
			c-0.261-0.297-0.675-0.467-1.134-0.467c-0.531,0-0.882,0.17-1.225,0.611V46.31H96.219z M92.999,47.163
			c0.612,0,1.089,0.487,1.089,1.108c0,0.585-0.495,1.08-1.089,1.08c-0.603,0-1.099-0.486-1.099-1.098
			C91.899,47.65,92.386,47.163,92.999,47.163 M93.971,46.31v0.502c-0.379-0.44-0.766-0.628-1.297-0.628
			c-1.071,0-1.898,0.899-1.898,2.069c0,1.188,0.818,2.078,1.916,2.078c0.54,0,0.927-0.188,1.279-0.629v0.504h1.087V46.31H93.971z
			 M87.759,47.163c0.613,0,1.09,0.487,1.09,1.108c0,0.585-0.495,1.08-1.09,1.08c-0.603,0-1.098-0.486-1.098-1.098
			C86.661,47.65,87.147,47.163,87.759,47.163 M88.732,43.466v3.347c-0.378-0.441-0.766-0.629-1.297-0.629
			c-1.071,0-1.898,0.899-1.898,2.069c0,1.188,0.818,2.078,1.916,2.078c0.54,0,0.928-0.188,1.279-0.629v0.504h1.088v-6.74H88.732z
			 M79.776,47.741c0.099-0.487,0.432-0.776,0.918-0.776c0.486,0,0.81,0.271,0.927,0.776H79.776z M82.666,48.432v-0.143
			c0-1.306-0.756-2.105-1.998-2.105s-2.043,0.817-2.043,2.078c0,1.251,0.828,2.069,2.097,2.069c0.918,0,1.575-0.413,1.908-1.214
			l-1.008-0.162c-0.252,0.369-0.513,0.523-0.927,0.523c-0.594,0-0.927-0.37-0.954-1.046H82.666z M77.167,44.006
			c-0.359,0-0.656,0.296-0.656,0.647c0,0.369,0.297,0.665,0.656,0.665c0.36,0,0.657-0.296,0.657-0.656
			C77.823,44.293,77.535,44.006,77.167,44.006 M77.706,46.309h-1.088v5.976h1.088V46.309z M73.397,47.163
			c0.613,0,1.09,0.487,1.09,1.108c0,0.585-0.495,1.08-1.09,1.08c-0.603,0-1.098-0.486-1.098-1.098
			C72.299,47.65,72.785,47.163,73.397,47.163 M74.37,46.31v0.502c-0.378-0.44-0.766-0.628-1.297-0.628
			c-1.071,0-1.898,0.899-1.898,2.069c0,1.188,0.818,2.078,1.916,2.078c0.541,0,0.928-0.188,1.279-0.629v0.504h1.088V46.31H74.37z
			 M68.483,49.262l2.205-2.97h-3.789v0.943h1.872l-2.214,2.97h3.987v-0.943H68.483z M63.755,47.163c0.612,0,1.089,0.487,1.089,1.108
			c0,0.585-0.495,1.08-1.089,1.08c-0.603,0-1.099-0.486-1.099-1.098C62.656,47.65,63.143,47.163,63.755,47.163 M64.729,43.466v3.347
			c-0.379-0.441-0.766-0.629-1.297-0.629c-1.071,0-1.898,0.899-1.898,2.069c0,1.188,0.818,2.078,1.916,2.078
			c0.54,0,0.927-0.188,1.279-0.629v0.504h1.087v-6.74H64.729z M58.564,47.163c0.612,0,1.107,0.487,1.107,1.099
			c0,0.603-0.495,1.089-1.098,1.089c-0.621,0-1.108-0.486-1.108-1.107C57.465,47.659,57.97,47.163,58.564,47.163 M58.583,46.184
			c-1.305,0-2.241,0.854-2.241,2.042c0,1.251,0.9,2.105,2.205,2.105c1.332,0,2.249-0.845,2.249-2.078
			C60.795,47.029,59.887,46.184,58.583,46.184 M52.744,46.966v-1.819h0.36c0.739,0,1.126,0.306,1.126,0.901
			c0,0.594-0.405,0.918-1.144,0.918H52.744z M54.068,47.677c0.378-0.072,0.594-0.18,0.827-0.378c0.333-0.288,0.54-0.783,0.54-1.323
			c0-0.532-0.225-1.044-0.593-1.35c-0.333-0.279-0.864-0.422-1.531-0.422h-1.736v6.001h1.169v-2.411h0.153l1.621,2.411h1.439
			L54.068,47.677z"/>
	</g>
</g>
<path fill="none" stroke="#1A171B" stroke-width="0.25" stroke-miterlimit="10" d="M106.759,198.708h235.945 M106.761,100.302
	h235.922 M105.308,149.212h238.091 M106.759,174.391h235.945 M105.308,124.895h238.091"/>
<line fill="none" stroke="#1A171B" stroke-width="0.25" stroke-miterlimit="10" x1="105.308" y1="223.566" x2="342.788" y2="223.566"/>
<path fill="#1A171B" d="M105.583,229.979c0.266-0.057,0.687-0.099,1.114-0.099c0.609,0,1.001,0.104,1.295,0.343
	c0.245,0.183,0.393,0.463,0.393,0.834c0,0.455-0.301,0.854-0.799,1.036v0.015c0.448,0.111,0.974,0.482,0.974,1.184
	c0,0.406-0.161,0.714-0.399,0.945c-0.33,0.301-0.862,0.44-1.632,0.44c-0.42,0-0.743-0.028-0.946-0.056V229.979z M106.192,231.911
	h0.553c0.645,0,1.022-0.336,1.022-0.792c0-0.553-0.42-0.77-1.036-0.77c-0.28,0-0.441,0.021-0.54,0.041L106.192,231.911
	L106.192,231.911z M106.192,234.173c0.119,0.021,0.294,0.028,0.511,0.028c0.63,0,1.212-0.231,1.212-0.917
	c0-0.646-0.554-0.911-1.219-0.911h-0.504V234.173z"/>
<path fill="#1A171B" d="M110.042,230.293c0.007,0.21-0.147,0.378-0.392,0.378c-0.217,0-0.372-0.168-0.372-0.378
	c0-0.217,0.161-0.385,0.385-0.385C109.895,229.908,110.042,230.076,110.042,230.293z M109.355,234.635v-3.39h0.616v3.39H109.355z"/>
<path fill="#1A171B" d="M110.994,229.663h0.616v4.973h-0.616V229.663z"/>
<path fill="#1A171B" d="M112.646,229.663h0.616v4.973h-0.616V229.663z"/>
<path fill="#1A171B" d="M114.984,230.293c0.007,0.21-0.147,0.378-0.392,0.378c-0.217,0-0.372-0.168-0.372-0.378
	c0-0.217,0.161-0.385,0.385-0.385C114.837,229.908,114.984,230.076,114.984,230.293z M114.297,234.635v-3.39h0.616v3.39H114.297z"/>
<path fill="#1A171B" d="M115.935,232.163c0-0.351-0.007-0.638-0.028-0.917h0.546l0.035,0.561h0.014
	c0.168-0.322,0.56-0.638,1.121-0.638c0.469,0,1.198,0.28,1.198,1.442v2.024h-0.617v-1.954c0-0.546-0.203-1-0.784-1
	c-0.406,0-0.721,0.286-0.827,0.629c-0.028,0.078-0.042,0.183-0.042,0.287v2.038h-0.616V232.163z"/>
<path fill="#1A171B" d="M122.713,234.145c0,0.777-0.154,1.254-0.483,1.549c-0.329,0.308-0.805,0.406-1.232,0.406
	c-0.406,0-0.854-0.099-1.128-0.281l0.154-0.469c0.224,0.141,0.574,0.267,0.995,0.267c0.63,0,1.092-0.329,1.092-1.185v-0.377h-0.014
	c-0.189,0.314-0.553,0.566-1.079,0.566c-0.84,0-1.443-0.714-1.443-1.653c0-1.147,0.75-1.8,1.527-1.8
	c0.588,0,0.911,0.309,1.058,0.588h0.014l0.028-0.511h0.539c-0.014,0.245-0.028,0.519-0.028,0.931V234.145z M122.104,232.583
	c0-0.104-0.007-0.196-0.035-0.28c-0.112-0.357-0.413-0.65-0.861-0.65c-0.588,0-1.008,0.496-1.008,1.281
	c0,0.666,0.336,1.219,1.001,1.219c0.378,0,0.721-0.238,0.854-0.631c0.035-0.104,0.049-0.224,0.049-0.328V232.583L122.104,232.583z"
	/>
<path fill="#1A171B" d="M124.419,230.293c0.007,0.21-0.147,0.378-0.392,0.378c-0.217,0-0.372-0.168-0.372-0.378
	c0-0.217,0.161-0.385,0.385-0.385C124.272,229.908,124.419,230.076,124.419,230.293z M123.733,234.635v-3.39h0.616v3.39H123.733z"/>
<path fill="#1A171B" d="M168.834,229.887c0.371-0.056,0.813-0.098,1.296-0.098c0.875,0,1.499,0.203,1.912,0.588
	c0.42,0.385,0.665,0.932,0.665,1.695c0,0.77-0.238,1.4-0.68,1.835c-0.44,0.44-1.17,0.679-2.086,0.679
	c-0.435,0-0.799-0.021-1.106-0.056L168.834,229.887L168.834,229.887z M169.443,234.061c0.154,0.028,0.379,0.035,0.617,0.035
	c1.303,0,2.01-0.729,2.01-2.003c0.007-1.114-0.625-1.821-1.912-1.821c-0.315,0-0.553,0.028-0.715,0.063V234.061L169.443,234.061z"/>
<path fill="#1A171B" d="M175.857,233.732c0,0.293,0.014,0.582,0.056,0.812h-0.562l-0.049-0.427h-0.021
	c-0.189,0.266-0.554,0.504-1.037,0.504c-0.687,0-1.037-0.482-1.037-0.975c0-0.818,0.729-1.268,2.038-1.261v-0.069
	c0-0.28-0.077-0.785-0.771-0.785c-0.314,0-0.644,0.098-0.882,0.252l-0.14-0.406c0.279-0.182,0.688-0.301,1.113-0.301
	c1.037,0,1.289,0.708,1.289,1.387v1.27H175.857z M175.262,232.814c-0.672-0.015-1.436,0.104-1.436,0.764
	c0,0.398,0.266,0.588,0.582,0.588c0.441,0,0.721-0.28,0.818-0.566c0.021-0.063,0.035-0.134,0.035-0.197V232.814z"/>
<path fill="#1A171B" d="M176.85,232.072c0-0.352-0.008-0.639-0.029-0.917h0.547l0.035,0.56h0.014
	c0.168-0.322,0.561-0.637,1.121-0.637c0.469,0,1.197,0.279,1.197,1.443v2.023h-0.616v-1.954c0-0.546-0.203-1.001-0.784-1.001
	c-0.406,0-0.721,0.287-0.827,0.63c-0.028,0.077-0.042,0.183-0.042,0.287v2.038h-0.615V232.072L176.85,232.072z"/>
<path fill="#1A171B" d="M181.078,232.961c0.014,0.833,0.546,1.178,1.163,1.178c0.44,0,0.708-0.078,0.938-0.176l0.104,0.441
	c-0.218,0.098-0.589,0.217-1.127,0.217c-1.044,0-1.667-0.693-1.667-1.717c0-1.022,0.603-1.827,1.59-1.827
	c1.105,0,1.4,0.974,1.4,1.597c0,0.126-0.014,0.225-0.021,0.287H181.078z M182.885,232.521c0.008-0.394-0.16-1.002-0.854-1.002
	c-0.624,0-0.896,0.574-0.946,1.002H182.885z"/>
<path fill="#1A171B" d="M171.195,242.132c0,0.294,0.014,0.582,0.056,0.812h-0.562l-0.049-0.426h-0.021
	c-0.188,0.266-0.554,0.504-1.037,0.504c-0.687,0-1.037-0.483-1.037-0.975c0-0.818,0.729-1.268,2.038-1.261v-0.07
	c0-0.28-0.077-0.784-0.771-0.784c-0.314,0-0.644,0.098-0.881,0.252l-0.141-0.406c0.279-0.183,0.688-0.301,1.113-0.301
	c1.037,0,1.289,0.707,1.289,1.387v1.269H171.195z M170.6,241.214c-0.672-0.014-1.436,0.104-1.436,0.765
	c0,0.398,0.266,0.588,0.582,0.588c0.441,0,0.721-0.28,0.818-0.567c0.021-0.063,0.035-0.133,0.035-0.196V241.214z"/>
<path fill="#1A171B" d="M172.188,237.973h0.609v2.129h0.014c0.217-0.379,0.609-0.623,1.155-0.623c0.841,0,1.437,0.699,1.429,1.729
	c0,1.211-0.764,1.813-1.52,1.813c-0.49,0-0.882-0.188-1.135-0.637h-0.021l-0.027,0.561h-0.532c0.014-0.231,0.028-0.574,0.028-0.875
	V237.973L172.188,237.973z M172.797,241.585c0,0.077,0.014,0.154,0.028,0.224c0.118,0.428,0.477,0.723,0.925,0.723
	c0.645,0,1.029-0.525,1.029-1.303c0-0.681-0.35-1.262-1.008-1.262c-0.42,0-0.813,0.287-0.938,0.756
	c-0.015,0.07-0.035,0.154-0.035,0.252L172.797,241.585L172.797,241.585z"/>
<path fill="#1A171B" d="M179.238,241.221c0,1.254-0.869,1.801-1.688,1.801c-0.917,0-1.625-0.672-1.625-1.744
	c0-1.135,0.743-1.801,1.681-1.801C178.58,239.479,179.238,240.186,179.238,241.221z M176.549,241.256
	c0,0.743,0.428,1.303,1.029,1.303c0.588,0,1.029-0.553,1.029-1.316c0-0.574-0.287-1.303-1.016-1.303
	S176.549,240.611,176.549,241.256z"/>
<path fill="#1A171B" d="M180.014,240.473c0-0.352-0.008-0.639-0.029-0.918h0.547l0.035,0.561h0.014
	c0.168-0.322,0.561-0.637,1.121-0.637c0.469,0,1.197,0.279,1.197,1.442v2.024h-0.616v-1.954c0-0.546-0.203-1.001-0.784-1.001
	c-0.406,0-0.721,0.287-0.827,0.63c-0.028,0.077-0.042,0.182-0.042,0.287v2.038h-0.615V240.473L180.014,240.473z"/>
<path fill="#1A171B" d="M184.242,241.361c0.014,0.832,0.546,1.177,1.162,1.177c0.441,0,0.709-0.077,0.938-0.175l0.105,0.44
	c-0.218,0.099-0.589,0.218-1.128,0.218c-1.043,0-1.666-0.693-1.666-1.717c0-1.022,0.603-1.828,1.59-1.828
	c1.105,0,1.4,0.975,1.4,1.598c0,0.126-0.014,0.224-0.021,0.287H184.242z M186.049,240.92c0.008-0.393-0.16-1.002-0.854-1.002
	c-0.625,0-0.896,0.575-0.946,1.002H186.049z"/>
<path fill="#1A171B" d="M187.404,240.473c0-0.352-0.006-0.639-0.027-0.918h0.546l0.035,0.561h0.015
	c0.168-0.322,0.56-0.637,1.12-0.637c0.47,0,1.198,0.279,1.198,1.442v2.024h-0.617v-1.954c0-0.546-0.203-1.001-0.783-1.001
	c-0.406,0-0.722,0.287-0.828,0.63c-0.027,0.077-0.041,0.182-0.041,0.287v2.038h-0.617V240.473L187.404,240.473z"/>
<path fill="#1A171B" d="M193.707,242.818c-0.161,0.084-0.52,0.203-0.975,0.203c-1.021,0-1.688-0.701-1.688-1.737
	c0-1.044,0.714-1.8,1.821-1.8c0.364,0,0.687,0.091,0.854,0.175l-0.141,0.476c-0.146-0.084-0.378-0.16-0.714-0.16
	c-0.777,0-1.197,0.573-1.197,1.281c0,0.785,0.504,1.268,1.177,1.268c0.35,0,0.581-0.09,0.756-0.168L193.707,242.818z"/>
<path fill="#1A171B" d="M195.036,241.109h0.014c0.084-0.119,0.203-0.267,0.302-0.385l0.994-1.17h0.743l-1.31,1.395l1.492,1.996
	h-0.75l-1.17-1.625l-0.315,0.35v1.275h-0.609v-4.973h0.609V241.109z"/>
<path fill="#1A171B" d="M198.396,238.602c0.006,0.211-0.147,0.379-0.393,0.379c-0.217,0-0.372-0.168-0.372-0.379
	c0-0.217,0.161-0.385,0.386-0.385C198.249,238.217,198.396,238.385,198.396,238.602z M197.709,242.943v-3.389h0.616v3.389H197.709z"
	/>
<path fill="#1A171B" d="M200.447,241.361c0.014,0.832,0.546,1.177,1.162,1.177c0.441,0,0.709-0.077,0.938-0.175l0.104,0.44
	c-0.217,0.099-0.588,0.218-1.127,0.218c-1.043,0-1.666-0.693-1.666-1.717c0-1.022,0.603-1.828,1.59-1.828
	c1.105,0,1.4,0.975,1.4,1.598c0,0.126-0.014,0.224-0.021,0.287H200.447z M202.254,240.92c0.008-0.393-0.161-1.002-0.854-1.002
	c-0.625,0-0.896,0.575-0.946,1.002H202.254z"/>
<path fill="#1A171B" d="M235.882,234.663c-0.272,0.098-0.812,0.259-1.448,0.259c-0.716,0-1.304-0.182-1.767-0.623
	c-0.406-0.392-0.658-1.021-0.658-1.758c0.007-1.408,0.974-2.438,2.558-2.438c0.545,0,0.974,0.119,1.177,0.217l-0.147,0.496
	c-0.252-0.111-0.566-0.202-1.043-0.202c-1.148,0-1.898,0.714-1.898,1.897c0,1.198,0.723,1.905,1.822,1.905
	c0.397,0,0.672-0.056,0.812-0.126v-1.408h-0.96v-0.49h1.555L235.882,234.663L235.882,234.663z"/>
<path fill="#1A171B" d="M237.134,233.29c0.015,0.833,0.546,1.177,1.163,1.177c0.439,0,0.707-0.076,0.938-0.175l0.104,0.44
	c-0.217,0.099-0.588,0.218-1.128,0.218c-1.043,0-1.666-0.693-1.666-1.716c0-1.023,0.602-1.828,1.59-1.828
	c1.106,0,1.4,0.974,1.4,1.597c0,0.126-0.014,0.224-0.021,0.287H237.134z M238.939,232.85c0.008-0.394-0.16-1.002-0.854-1.002
	c-0.623,0-0.896,0.574-0.945,1.002H238.939z"/>
<path fill="#1A171B" d="M243.365,233.15c0,1.254-0.868,1.8-1.688,1.8c-0.917,0-1.624-0.673-1.624-1.744c0-1.134,0.742-1.8,1.682-1.8
	C242.707,231.406,243.365,232.114,243.365,233.15z M240.676,233.186c0,0.742,0.428,1.303,1.029,1.303
	c0.589,0,1.029-0.553,1.029-1.317c0-0.573-0.287-1.302-1.017-1.302C240.991,231.869,240.676,232.541,240.676,233.186z"/>
<path fill="#1A171B" d="M244.141,229.9h0.616v4.973h-0.616V229.9z"/>
<path fill="#1A171B" d="M248.859,233.15c0,1.254-0.868,1.8-1.688,1.8c-0.917,0-1.624-0.673-1.624-1.744c0-1.134,0.742-1.8,1.682-1.8
	C248.201,231.406,248.859,232.114,248.859,233.15z M246.17,233.186c0,0.742,0.428,1.303,1.029,1.303
	c0.589,0,1.029-0.553,1.029-1.317c0-0.573-0.287-1.302-1.017-1.302C246.484,231.869,246.17,232.541,246.17,233.186z"/>
<path fill="#1A171B" d="M250.244,233.038h0.015c0.084-0.119,0.203-0.267,0.302-0.386l0.994-1.168h0.742l-1.311,1.394l1.492,1.996
	h-0.75l-1.17-1.625l-0.314,0.351v1.274h-0.608V229.9h0.608V233.038z"/>
<path fill="#1A171B" d="M256.665,234.061c0,0.295,0.015,0.582,0.056,0.813h-0.56l-0.05-0.428h-0.021
	c-0.189,0.267-0.554,0.505-1.037,0.505c-0.686,0-1.035-0.483-1.035-0.974c0-0.819,0.729-1.269,2.037-1.262v-0.07
	c0-0.279-0.076-0.785-0.771-0.785c-0.315,0-0.646,0.099-0.884,0.252l-0.139-0.405c0.279-0.183,0.687-0.302,1.112-0.302
	c1.037,0,1.289,0.709,1.289,1.388v1.269H256.665z M256.068,233.143c-0.672-0.014-1.436,0.105-1.436,0.765
	c0,0.399,0.268,0.588,0.581,0.588c0.44,0,0.722-0.28,0.82-0.567c0.021-0.063,0.034-0.133,0.034-0.195V233.143L256.068,233.143z"/>
<path fill="#1A171B" d="M257.658,229.9h0.615v4.973h-0.615V229.9z"/>
<path fill="#1A171B" d="M259.996,230.531c0.008,0.21-0.146,0.378-0.393,0.378c-0.217,0-0.371-0.168-0.371-0.378
	c0-0.217,0.162-0.385,0.386-0.385C259.85,230.146,259.996,230.313,259.996,230.531z M259.311,234.873v-3.391h0.616v3.391H259.311z"
	/>
<path fill="#1A171B" d="M260.563,234.516l1.533-1.996c0.146-0.182,0.287-0.343,0.441-0.524v-0.015h-1.835v-0.496h2.584l-0.007,0.385
	l-1.514,1.968c-0.141,0.188-0.279,0.356-0.435,0.532v0.014h1.981v0.49h-2.752v-0.357H260.563z"/>
<path fill="#1A171B" d="M266.325,234.061c0,0.295,0.014,0.582,0.056,0.813h-0.561l-0.049-0.428h-0.021
	c-0.189,0.267-0.554,0.505-1.037,0.505c-0.686,0-1.035-0.483-1.035-0.974c0-0.819,0.729-1.269,2.037-1.262v-0.07
	c0-0.279-0.076-0.785-0.771-0.785c-0.314,0-0.645,0.099-0.883,0.252l-0.14-0.405c0.28-0.183,0.687-0.302,1.113-0.302
	c1.036,0,1.289,0.709,1.289,1.388v1.269H266.325z M265.729,233.143c-0.672-0.014-1.436,0.105-1.436,0.765
	c0,0.399,0.268,0.588,0.581,0.588c0.44,0,0.722-0.28,0.819-0.567c0.021-0.063,0.035-0.133,0.035-0.195V233.143L265.729,233.143z"/>
<path fill="#1A171B" d="M269.734,234.747c-0.161,0.084-0.52,0.203-0.975,0.203c-1.021,0-1.688-0.701-1.688-1.737
	c0-1.044,0.714-1.8,1.82-1.8c0.363,0,0.687,0.091,0.854,0.175l-0.141,0.477c-0.146-0.084-0.379-0.162-0.715-0.162
	c-0.776,0-1.197,0.574-1.197,1.283c0,0.784,0.505,1.268,1.178,1.268c0.35,0,0.581-0.092,0.756-0.168L269.734,234.747z"/>
<path fill="#1A171B" d="M269.627,235.868c0.28-0.021,0.525-0.099,0.673-0.259c0.168-0.189,0.23-0.463,0.23-1.274v-2.851h0.616v3.088
	c0,0.658-0.104,1.086-0.405,1.394c-0.273,0.273-0.722,0.386-1.052,0.386L269.627,235.868z M271.217,230.531
	c0.008,0.203-0.14,0.378-0.385,0.378c-0.23,0-0.378-0.175-0.378-0.378c0-0.217,0.161-0.385,0.392-0.385
	C271.07,230.146,271.217,230.313,271.217,230.531z"/>
<path fill="#1A171B" d="M274.536,234.061c0,0.295,0.014,0.582,0.056,0.813h-0.56l-0.05-0.428h-0.021
	c-0.189,0.267-0.554,0.505-1.037,0.505c-0.686,0-1.035-0.483-1.035-0.974c0-0.819,0.729-1.269,2.037-1.262v-0.07
	c0-0.279-0.076-0.785-0.771-0.785c-0.315,0-0.646,0.099-0.884,0.252l-0.14-0.405c0.28-0.183,0.687-0.302,1.113-0.302
	c1.037,0,1.289,0.709,1.289,1.388v1.269H274.536z M273.939,233.143c-0.672-0.014-1.436,0.105-1.436,0.765
	c0,0.399,0.268,0.588,0.581,0.588c0.44,0,0.722-0.28,0.819-0.567c0.021-0.063,0.035-0.133,0.035-0.195V233.143L273.939,233.143z"/>
<path fill="#1A171B" d="M353.37,223.561c0,1.547-0.574,2.401-1.583,2.401c-0.891,0-1.491-0.833-1.506-2.339
	c0-1.527,0.658-2.367,1.583-2.367C352.824,221.256,353.37,222.109,353.37,223.561z M350.897,223.63c0,1.185,0.363,1.856,0.925,1.856
	c0.63,0,0.932-0.735,0.932-1.898c0-1.121-0.287-1.855-0.925-1.855C351.29,221.732,350.897,222.391,350.897,223.63z"/>
<path fill="#1A171B" d="M350.345,176.941v-0.379l0.483-0.469c1.162-1.105,1.688-1.695,1.694-2.381c0-0.462-0.225-0.89-0.903-0.89
	c-0.413,0-0.757,0.21-0.967,0.385l-0.196-0.435c0.314-0.267,0.764-0.463,1.289-0.463c0.979,0,1.394,0.672,1.394,1.324
	c0,0.84-0.608,1.521-1.567,2.444l-0.364,0.336v0.015h2.045v0.51h-2.907V176.941z"/>
<path fill="#1A171B" d="M357.339,174.616c0,1.548-0.574,2.401-1.583,2.401c-0.89,0-1.491-0.832-1.506-2.339
	c0-1.526,0.658-2.366,1.583-2.366C356.793,172.313,357.339,173.166,357.339,174.616z M354.866,174.686
	c0,1.185,0.364,1.856,0.925,1.856c0.63,0,0.932-0.735,0.932-1.897c0-1.121-0.287-1.856-0.925-1.856
	C355.259,172.788,354.866,173.445,354.866,174.686z"/>
<path fill="#1A171B" d="M352.249,127.73v-1.239h-2.114v-0.406l2.03-2.905h0.666v2.828h0.637v0.483h-0.637v1.239H352.249z
	 M352.249,126.008v-1.52c0-0.238,0.008-0.478,0.021-0.715h-0.021c-0.14,0.267-0.252,0.463-0.378,0.672l-1.113,1.549v0.014H352.249z"
	/>
<path fill="#1A171B" d="M357.339,125.406c0,1.548-0.574,2.402-1.583,2.402c-0.89,0-1.491-0.834-1.506-2.34
	c0-1.527,0.658-2.367,1.583-2.367C356.793,123.102,357.339,123.956,357.339,125.406z M354.866,125.477
	c0,1.184,0.364,1.855,0.925,1.855c0.63,0,0.932-0.734,0.932-1.898c0-1.121-0.287-1.855-0.925-1.855
	C355.259,123.578,354.866,124.236,354.866,125.477z"/>
<path fill="#1A171B" d="M351.683,197.281h-0.015l-0.791,0.427l-0.119-0.469l0.994-0.532h0.525v4.552h-0.596L351.683,197.281
	L351.683,197.281z"/>
<path fill="#1A171B" d="M357.339,198.934c0,1.549-0.574,2.402-1.583,2.402c-0.89,0-1.491-0.833-1.506-2.339
	c0-1.527,0.658-2.367,1.583-2.367C356.793,196.63,357.339,197.484,357.339,198.934z M354.866,199.004
	c0,1.184,0.364,1.855,0.925,1.855c0.63,0,0.932-0.734,0.932-1.897c0-1.121-0.287-1.856-0.925-1.856
	C355.259,197.105,354.866,197.764,354.866,199.004z"/>
<path fill="#1A171B" d="M350.491,151.342c0.176,0.112,0.582,0.287,1.009,0.287c0.792,0,1.037-0.504,1.029-0.882
	c-0.007-0.638-0.581-0.911-1.178-0.911h-0.343v-0.462h0.343c0.448,0,1.017-0.231,1.017-0.771c0-0.364-0.23-0.688-0.798-0.688
	c-0.364,0-0.715,0.161-0.911,0.301l-0.16-0.447c0.237-0.176,0.7-0.351,1.19-0.351c0.896,0,1.303,0.532,1.303,1.085
	c0,0.469-0.28,0.869-0.841,1.072v0.014c0.561,0.112,1.016,0.532,1.016,1.17c0,0.729-0.567,1.366-1.66,1.366
	c-0.511,0-0.959-0.161-1.184-0.308L350.491,151.342z"/>
<path fill="#1A171B" d="M357.339,149.725c0,1.547-0.574,2.401-1.583,2.401c-0.89,0-1.491-0.833-1.506-2.339
	c0-1.527,0.658-2.367,1.583-2.367C356.793,147.42,357.339,148.273,357.339,149.725z M354.866,149.794
	c0,1.185,0.364,1.856,0.925,1.856c0.63,0,0.932-0.735,0.932-1.898c0-1.121-0.287-1.855-0.925-1.855
	C355.259,147.896,354.866,148.555,354.866,149.794z"/>
<path fill="#1A171B" d="M353.063,98.819h-1.736l-0.175,1.169c0.104-0.014,0.202-0.028,0.371-0.028c0.35,0,0.699,0.077,0.979,0.245
	c0.356,0.203,0.651,0.595,0.651,1.169c0,0.89-0.708,1.555-1.695,1.555c-0.497,0-0.917-0.14-1.135-0.28l0.153-0.469
	c0.189,0.112,0.562,0.252,0.975,0.252c0.581,0,1.078-0.378,1.078-0.987c-0.007-0.588-0.398-1.009-1.311-1.009
	c-0.259,0-0.462,0.028-0.63,0.049l0.294-2.185h2.178v0.519H353.063z"/>
<path fill="#1A171B" d="M357.339,100.528c0,1.548-0.574,2.402-1.583,2.402c-0.89,0-1.491-0.833-1.506-2.339
	c0-1.527,0.658-2.367,1.583-2.367C356.793,98.224,357.339,99.078,357.339,100.528z M354.866,100.598
	c0,1.184,0.364,1.856,0.925,1.856c0.63,0,0.932-0.735,0.932-1.898c0-1.121-0.287-1.856-0.925-1.856
	C355.259,98.7,354.866,99.358,354.866,100.598z"/>
<path fill="#1A171B" d="M296.096,229.984v4.721h-0.609v-4.721H296.096z"/>
<path fill="#1A171B" d="M297.139,232.232c0-0.351-0.009-0.638-0.029-0.916h0.547l0.035,0.56h0.014
	c0.169-0.322,0.561-0.637,1.121-0.637c0.469,0,1.197,0.28,1.197,1.442v2.024h-0.616v-1.954c0-0.546-0.203-1.001-0.784-1.001
	c-0.406,0-0.723,0.287-0.826,0.63c-0.027,0.077-0.042,0.182-0.042,0.287v2.038h-0.616V232.232L297.139,232.232z"/>
<path fill="#1A171B" d="M301.022,232.232c0-0.351-0.009-0.638-0.028-0.916h0.546l0.035,0.56h0.014
	c0.169-0.322,0.562-0.637,1.121-0.637c0.469,0,1.197,0.28,1.197,1.442v2.024h-0.616v-1.954c0-0.546-0.203-1.001-0.784-1.001
	c-0.406,0-0.722,0.287-0.826,0.63c-0.027,0.077-0.042,0.182-0.042,0.287v2.038h-0.615L301.022,232.232L301.022,232.232z"/>
<path fill="#1A171B" d="M305.258,233.122c0.015,0.833,0.546,1.177,1.162,1.177c0.441,0,0.708-0.076,0.939-0.175l0.104,0.44
	c-0.217,0.099-0.588,0.218-1.128,0.218c-1.043,0-1.666-0.693-1.666-1.716c0-1.023,0.603-1.828,1.59-1.828
	c1.106,0,1.4,0.974,1.4,1.597c0,0.126-0.015,0.224-0.021,0.287H305.258L305.258,233.122z M307.064,232.682
	c0.007-0.394-0.161-1.002-0.854-1.002c-0.623,0-0.896,0.574-0.945,1.002H307.064z"/>
<path fill="#1A171B" d="M296.802,238.244c-0.511,0.688-0.882,1.597-0.882,2.865c0,1.246,0.385,2.143,0.882,2.844h-0.481
	c-0.441-0.582-0.918-1.479-0.918-2.844c0.007-1.381,0.477-2.276,0.918-2.865H296.802z"/>
<path fill="#1A171B" d="M297.453,240.633c0-0.351-0.008-0.638-0.028-0.917h0.539l0.028,0.546h0.021
	c0.188-0.322,0.504-0.623,1.063-0.623c0.463,0,0.812,0.28,0.96,0.68h0.014c0.105-0.189,0.238-0.336,0.379-0.441
	c0.203-0.154,0.428-0.238,0.749-0.238c0.448,0,1.113,0.295,1.113,1.471v1.996h-0.602v-1.918c0-0.651-0.238-1.043-0.736-1.043
	c-0.351,0-0.623,0.258-0.729,0.56c-0.027,0.084-0.05,0.196-0.05,0.308v2.094h-0.602v-2.03c0-0.539-0.238-0.931-0.708-0.931
	c-0.386,0-0.665,0.308-0.763,0.615c-0.035,0.092-0.051,0.196-0.051,0.301v2.045h-0.602v-2.473H297.453z"/>
<path fill="#1A171B" d="M303.795,243.182c-0.238,0-0.406-0.188-0.406-0.44c0-0.259,0.176-0.441,0.42-0.441
	c0.245,0,0.413,0.183,0.413,0.441c0,0.252-0.161,0.44-0.42,0.44H303.795z"/>
<path fill="#1A171B" d="M305.671,238.764c0.008,0.209-0.146,0.377-0.392,0.377c-0.219,0-0.371-0.168-0.371-0.377
	c0-0.218,0.161-0.386,0.385-0.386C305.524,238.377,305.671,238.545,305.671,238.764z M304.985,243.105v-3.391h0.615v3.391H304.985z"
	/>
<path fill="#1A171B" d="M306.623,240.633c0-0.351-0.008-0.638-0.028-0.917h0.546l0.035,0.56h0.015
	c0.169-0.321,0.561-0.637,1.12-0.637c0.47,0,1.197,0.28,1.197,1.443v2.023h-0.616v-1.953c0-0.547-0.202-1.002-0.783-1.002
	c-0.406,0-0.723,0.287-0.826,0.631c-0.028,0.076-0.042,0.182-0.042,0.287v2.037h-0.616L306.623,240.633L306.623,240.633z"/>
<path fill="#1A171B" d="M310.983,243.182c-0.238,0-0.406-0.188-0.406-0.44c0-0.259,0.175-0.441,0.42-0.441s0.413,0.183,0.413,0.441
	c0,0.252-0.161,0.44-0.42,0.44H310.983z"/>
<path fill="#1A171B" d="M316.038,242.292c0,0.294,0.014,0.582,0.056,0.812h-0.56l-0.05-0.427h-0.021
	c-0.188,0.267-0.554,0.505-1.037,0.505c-0.686,0-1.036-0.483-1.036-0.975c0-0.818,0.729-1.268,2.038-1.262v-0.069
	c0-0.28-0.077-0.785-0.771-0.785c-0.315,0-0.646,0.099-0.883,0.252l-0.141-0.405c0.28-0.183,0.688-0.302,1.113-0.302
	c1.037,0,1.289,0.708,1.289,1.388v1.269H316.038z M315.442,241.375c-0.673-0.014-1.437,0.105-1.437,0.764
	c0,0.399,0.268,0.588,0.581,0.588c0.441,0,0.722-0.279,0.82-0.566c0.021-0.063,0.034-0.133,0.034-0.196L315.442,241.375
	L315.442,241.375z"/>
<path fill="#1A171B" d="M319.958,238.132v4.097c0,0.302,0.008,0.646,0.028,0.875h-0.554l-0.027-0.588h-0.016
	c-0.188,0.379-0.602,0.666-1.154,0.666c-0.819,0-1.449-0.692-1.449-1.723c-0.008-1.127,0.692-1.82,1.52-1.82
	c0.52,0,0.868,0.244,1.022,0.518h0.014v-2.024H319.958z M319.342,241.095c0-0.077-0.007-0.182-0.026-0.259
	c-0.093-0.393-0.429-0.714-0.891-0.714c-0.638,0-1.016,0.56-1.016,1.31c0,0.688,0.336,1.254,1.001,1.254
	c0.414,0,0.792-0.273,0.904-0.735c0.021-0.084,0.026-0.168,0.026-0.267L319.342,241.095L319.342,241.095z"/>
<path fill="#1A171B" d="M320.979,240.773c0-0.399-0.008-0.743-0.027-1.059h0.539l0.021,0.665h0.027
	c0.154-0.455,0.524-0.741,0.938-0.741c0.07,0,0.119,0.006,0.177,0.021v0.581c-0.063-0.014-0.126-0.021-0.211-0.021
	c-0.435,0-0.742,0.33-0.826,0.792c-0.015,0.084-0.028,0.183-0.028,0.287v1.808h-0.608V240.773L320.979,240.773z"/>
<path fill="#1A171B" d="M323.611,241.521c0.014,0.834,0.546,1.178,1.162,1.178c0.44,0,0.708-0.077,0.938-0.176l0.104,0.441
	c-0.218,0.098-0.589,0.217-1.129,0.217c-1.043,0-1.665-0.692-1.665-1.716c0-1.022,0.602-1.827,1.59-1.827
	c1.105,0,1.399,0.973,1.399,1.596c0,0.127-0.014,0.225-0.021,0.287H323.611z M325.418,241.081c0.007-0.394-0.161-1.001-0.854-1.001
	c-0.623,0-0.896,0.574-0.945,1.001H325.418z"/>
<path fill="#1A171B" d="M326.69,242.475c0.183,0.119,0.505,0.245,0.812,0.245c0.448,0,0.659-0.224,0.659-0.504
	c0-0.294-0.176-0.455-0.631-0.623c-0.609-0.217-0.896-0.553-0.896-0.959c0-0.546,0.441-0.995,1.17-0.995
	c0.344,0,0.646,0.098,0.833,0.211l-0.153,0.447c-0.134-0.084-0.378-0.195-0.693-0.195c-0.363,0-0.566,0.209-0.566,0.461
	c0,0.28,0.203,0.406,0.645,0.574c0.589,0.225,0.89,0.52,0.89,1.023c0,0.595-0.462,1.021-1.268,1.021
	c-0.371,0-0.714-0.098-0.952-0.238L326.69,242.475z"/>
<path fill="#1A171B" d="M331.661,238.384v4.722h-0.609v-4.722H331.661z"/>
<path fill="#1A171B" d="M334.854,238.439c0.295-0.049,0.681-0.09,1.171-0.09c0.603,0,1.043,0.14,1.322,0.392
	c0.261,0.224,0.413,0.567,0.413,0.987c0,0.427-0.126,0.764-0.363,1.008c-0.321,0.344-0.848,0.519-1.442,0.519
	c-0.182,0-0.352-0.007-0.49-0.042v1.891h-0.608v-4.664H334.854z M335.463,240.717c0.133,0.035,0.301,0.049,0.504,0.049
	c0.735,0,1.185-0.356,1.185-1.008c0-0.624-0.44-0.925-1.113-0.925c-0.266,0-0.469,0.021-0.574,0.049L335.463,240.717
	L335.463,240.717z"/>
<path fill="#1A171B" d="M338.185,243.953c0.498-0.693,0.884-1.604,0.884-2.865c0-1.254-0.378-2.15-0.884-2.844h0.478
	c0.448,0.574,0.918,1.471,0.918,2.851c0,1.373-0.47,2.263-0.918,2.858H338.185z"/>
<path fill="#1A171B" d="M351.726,84.853c0.812,0,1.352,0.63,1.352,1.747c0,1.233-0.648,1.845-1.404,1.845
	c-0.729,0-1.358-0.594-1.368-1.764c0-1.17,0.64-1.828,1.413-1.828H351.726z M351.681,85.33c-0.485,0-0.747,0.585-0.747,1.323
	c-0.019,0.738,0.262,1.314,0.757,1.314c0.521,0,0.757-0.558,0.757-1.333c0-0.711-0.207-1.305-0.757-1.305L351.681,85.33
	L351.681,85.33z M351.617,90.911l3.438-6.068h0.504l-3.446,6.068H351.617z M355.543,87.274c0.811,0,1.341,0.63,1.341,1.747
	c0,1.233-0.646,1.846-1.395,1.846c-0.729,0-1.359-0.585-1.369-1.755c0-1.18,0.64-1.837,1.414-1.837L355.543,87.274L355.543,87.274z
	 M355.498,87.751c-0.486,0-0.757,0.585-0.757,1.323c-0.009,0.747,0.278,1.314,0.766,1.314c0.522,0,0.756-0.558,0.756-1.333
	c0-0.711-0.207-1.305-0.756-1.305L355.498,87.751L355.498,87.751z"/>
<rect x="42.878" y="40.47" fill="none" stroke="#1A171B" width="264.819" height="13.74"/>
</svg>
