<?xml version="1.0" encoding="utf-8"?>
<!-- Generator: Adobe Illustrator 13.0.0, SVG Export Plug-In . SVG Version: 6.00 Build 14948)  -->
<!DOCTYPE svg PUBLIC "-//W3C//DTD SVG 1.1//EN" "http://www.w3.org/Graphics/SVG/1.1/DTD/svg11.dtd">
<svg version="1.1" id="Layer_1" xmlns="http://www.w3.org/2000/svg" xmlns:xlink="http://www.w3.org/1999/xlink" x="0px" y="0px"
	 width="329px" height="421px" viewBox="40 37 329 421" enable-background="new 40 37 329 421" xml:space="preserve">
<path fill="none" stroke="#1A171B" stroke-width="0.25" stroke-miterlimit="10" d="M88.989,184.839h235.925 M88.917,332.466h235.945
	 M88.918,234.061h235.923 M87.466,282.97h238.091"/>
<path fill="#1A171B" d="M87.523,392.709v-0.378l0.483-0.47c1.163-1.106,1.688-1.694,1.695-2.381c0-0.463-0.224-0.891-0.903-0.891
	c-0.413,0-0.756,0.21-0.966,0.385l-0.196-0.434c0.315-0.268,0.763-0.463,1.289-0.463c0.98,0,1.394,0.673,1.394,1.324
	c0,0.84-0.609,1.52-1.569,2.443l-0.364,0.336v0.014h2.045v0.513L87.523,392.709L87.523,392.709z"/>
<path fill="#1A171B" d="M94.14,390.384c0,1.548-0.574,2.402-1.583,2.402c-0.889,0-1.492-0.834-1.506-2.341
	c0-1.525,0.659-2.366,1.583-2.366C93.593,388.08,94.14,388.934,94.14,390.384z M91.667,390.455c0,1.184,0.364,1.855,0.924,1.855
	c0.63,0,0.932-0.735,0.932-1.897c0-1.121-0.287-1.856-0.925-1.856C92.06,388.557,91.667,389.214,91.667,390.455z"/>
<path fill="#1A171B" d="M97.73,390.384c0,1.548-0.574,2.402-1.583,2.402c-0.889,0-1.492-0.834-1.506-2.341
	c0-1.525,0.659-2.366,1.583-2.366C97.184,388.08,97.73,388.934,97.73,390.384z M95.258,390.455c0,1.184,0.364,1.855,0.924,1.855
	c0.63,0,0.932-0.735,0.932-1.897c0-1.121-0.287-1.856-0.925-1.856C95.65,388.557,95.258,389.214,95.258,390.455z"/>
<path fill="#1A171B" d="M98.653,392.275c0.133,0.015,0.287,0,0.497-0.021c0.357-0.049,0.693-0.195,0.953-0.441
	c0.301-0.272,0.519-0.672,0.603-1.211h-0.021c-0.252,0.309-0.617,0.489-1.072,0.489c-0.819,0-1.345-0.616-1.345-1.394
	c0-0.861,0.624-1.618,1.555-1.618c0.932,0,1.506,0.757,1.506,1.919c0,1.002-0.336,1.702-0.784,2.137
	c-0.35,0.344-0.833,0.553-1.324,0.609c-0.224,0.035-0.42,0.042-0.567,0.035L98.653,392.275L98.653,392.275z M99.767,388.549
	c-0.519,0-0.89,0.463-0.89,1.105c0,0.568,0.343,0.968,0.875,0.968c0.413,0,0.735-0.203,0.896-0.478
	c0.035-0.056,0.056-0.125,0.056-0.224c0-0.776-0.287-1.373-0.932-1.373L99.767,388.549L99.767,388.549z"/>
<path fill="#1A171B" d="M150.775,392.619v-0.378l0.483-0.47c1.163-1.106,1.688-1.694,1.695-2.381c0-0.464-0.224-0.891-0.903-0.891
	c-0.413,0-0.756,0.21-0.966,0.385l-0.196-0.434c0.315-0.268,0.763-0.463,1.289-0.463c0.98,0,1.394,0.673,1.394,1.324
	c0,0.84-0.609,1.52-1.569,2.443l-0.364,0.336v0.014h2.045v0.513L150.775,392.619L150.775,392.619z"/>
<path fill="#1A171B" d="M157.392,390.293c0,1.548-0.574,2.402-1.583,2.402c-0.889,0-1.492-0.834-1.506-2.34
	c0-1.526,0.659-2.367,1.583-2.367C156.845,387.989,157.392,388.843,157.392,390.293z M154.919,390.364
	c0,1.184,0.364,1.854,0.924,1.854c0.63,0,0.932-0.734,0.932-1.896c0-1.121-0.287-1.856-0.925-1.856
	C155.312,388.465,154.919,389.124,154.919,390.364z"/>
<path fill="#1A171B" d="M159.294,388.641h-0.014l-0.791,0.428l-0.119-0.471l0.995-0.531h0.525v4.553h-0.595L159.294,388.641
	L159.294,388.641z"/>
<path fill="#1A171B" d="M164.573,390.293c0,1.548-0.574,2.402-1.583,2.402c-0.889,0-1.492-0.834-1.506-2.34
	c0-1.526,0.659-2.367,1.583-2.367C164.027,387.989,164.573,388.843,164.573,390.293z M162.101,390.364
	c0,1.184,0.364,1.854,0.924,1.854c0.63,0,0.932-0.734,0.932-1.896c0-1.121-0.287-1.856-0.925-1.856
	C162.493,388.465,162.101,389.124,162.101,390.364z"/>
<path fill="#1A171B" d="M214.23,392.948v-0.378l0.482-0.471c1.162-1.105,1.688-1.693,1.694-2.381c0-0.463-0.224-0.89-0.903-0.89
	c-0.413,0-0.757,0.21-0.967,0.385l-0.196-0.435c0.315-0.266,0.765-0.463,1.289-0.463c0.979,0,1.394,0.674,1.394,1.324
	c0,0.84-0.608,1.521-1.567,2.444l-0.364,0.336v0.015h2.045v0.512L214.23,392.948L214.23,392.948z"/>
<path fill="#1A171B" d="M220.848,390.623c0,1.548-0.574,2.402-1.584,2.402c-0.89,0-1.49-0.834-1.506-2.34
	c0-1.526,0.658-2.367,1.583-2.367C220.301,388.318,220.848,389.172,220.848,390.623z M218.374,390.693
	c0,1.184,0.364,1.854,0.925,1.854c0.631,0,0.932-0.735,0.932-1.897c0-1.121-0.287-1.855-0.924-1.855
	C218.768,388.794,218.374,389.453,218.374,390.693z"/>
<path fill="#1A171B" d="M222.75,388.969h-0.016l-0.791,0.428l-0.118-0.47l0.993-0.532h0.525v4.554h-0.595L222.75,388.969
	L222.75,388.969z"/>
<path fill="#1A171B" d="M226.341,388.969h-0.015l-0.791,0.428l-0.119-0.47l0.994-0.532h0.525v4.554h-0.596L226.341,388.969
	L226.341,388.969z"/>
<path fill="#1A171B" d="M335.527,381.634c0,1.548-0.574,2.402-1.583,2.402c-0.891,0-1.491-0.834-1.507-2.341
	c0-1.525,0.658-2.366,1.584-2.366C334.981,379.33,335.527,380.184,335.527,381.634z M333.055,381.705
	c0,1.184,0.364,1.855,0.926,1.855c0.63,0,0.932-0.735,0.932-1.897c0-1.121-0.287-1.856-0.925-1.856
	C333.447,379.807,333.055,380.464,333.055,381.705z"/>
<path fill="#1A171B" d="M335.219,330.982h-1.735l-0.177,1.17c0.105-0.016,0.203-0.028,0.372-0.028c0.351,0,0.7,0.077,0.98,0.245
	c0.355,0.203,0.65,0.596,0.65,1.17c0,0.891-0.708,1.555-1.694,1.555c-0.497,0-0.917-0.141-1.135-0.279l0.153-0.471
	c0.189,0.112,0.562,0.254,0.975,0.254c0.581,0,1.077-0.38,1.077-0.988c-0.007-0.588-0.397-1.008-1.31-1.008
	c-0.259,0-0.462,0.026-0.63,0.049l0.294-2.187h2.178L335.219,330.982L335.219,330.982z"/>
<path fill="#1A171B" d="M339.118,332.691c0,1.548-0.574,2.401-1.583,2.401c-0.891,0-1.491-0.834-1.506-2.34
	c0-1.526,0.657-2.366,1.583-2.366C338.572,330.386,339.118,331.241,339.118,332.691z M336.646,332.761
	c0,1.185,0.363,1.855,0.925,1.855c0.63,0,0.932-0.735,0.932-1.897c0-1.121-0.287-1.855-0.925-1.855
	C337.038,330.863,336.646,331.521,336.646,332.761z"/>
<path fill="#1A171B" d="M342.709,332.691c0,1.548-0.574,2.401-1.583,2.401c-0.89,0-1.491-0.834-1.506-2.34
	c0-1.526,0.658-2.366,1.583-2.366C342.163,330.386,342.709,331.241,342.709,332.691z M340.236,332.761
	c0,1.185,0.363,1.855,0.925,1.855c0.63,0,0.932-0.735,0.932-1.897c0-1.121-0.287-1.855-0.925-1.855
	C340.629,330.863,340.236,331.521,340.236,332.761z"/>
<path fill="#1A171B" d="M347.784,332.691c0,1.548-0.574,2.401-1.583,2.401c-0.891,0-1.491-0.834-1.506-2.34
	c0-1.526,0.657-2.366,1.583-2.366C347.238,330.386,347.784,331.241,347.784,332.691z M345.313,332.761
	c0,1.185,0.363,1.855,0.925,1.855c0.63,0,0.932-0.735,0.932-1.897c0-1.121-0.287-1.855-0.925-1.855
	C345.704,330.863,345.313,331.521,345.313,332.761z"/>
<path fill="#1A171B" d="M351.375,332.691c0,1.548-0.574,2.401-1.583,2.401c-0.89,0-1.491-0.834-1.506-2.34
	c0-1.526,0.658-2.366,1.583-2.366C350.829,330.386,351.375,331.241,351.375,332.691z M348.902,332.761
	c0,1.185,0.363,1.855,0.925,1.855c0.63,0,0.932-0.735,0.932-1.897c0-1.121-0.287-1.855-0.925-1.855
	C349.295,330.863,348.902,331.521,348.902,332.761z"/>
<path fill="#1A171B" d="M354.966,332.691c0,1.548-0.574,2.401-1.583,2.401c-0.89,0-1.491-0.834-1.506-2.34
	c0-1.526,0.658-2.366,1.583-2.366C354.42,330.386,354.966,331.241,354.966,332.691z M352.493,332.761
	c0,1.185,0.364,1.855,0.925,1.855c0.63,0,0.932-0.735,0.932-1.897c0-1.121-0.286-1.855-0.925-1.855
	C352.886,330.863,352.493,331.521,352.493,332.761z"/>
<path fill="#1A171B" d="M333.84,281.828h-0.015l-0.791,0.427l-0.119-0.469l0.994-0.532h0.524v4.553h-0.595L333.84,281.828
	L333.84,281.828z"/>
<path fill="#1A171B" d="M340.603,283.48c0,1.547-0.573,2.401-1.583,2.401c-0.89,0-1.49-0.833-1.506-2.339
	c0-1.527,0.658-2.367,1.583-2.367C340.057,281.176,340.603,282.031,340.603,283.48z M338.13,283.55c0,1.185,0.364,1.856,0.925,1.856
	c0.63,0,0.933-0.735,0.933-1.898c0-1.121-0.287-1.855-0.925-1.855C338.522,281.652,338.13,282.311,338.13,283.55z"/>
<path fill="#1A171B" d="M344.193,283.48c0,1.547-0.574,2.401-1.583,2.401c-0.891,0-1.491-0.833-1.507-2.339
	c0-1.527,0.658-2.367,1.583-2.367C343.647,281.176,344.193,282.031,344.193,283.48z M341.721,283.55
	c0,1.185,0.364,1.856,0.926,1.856c0.63,0,0.932-0.735,0.932-1.898c0-1.121-0.287-1.855-0.925-1.855
	C342.113,281.652,341.721,282.311,341.721,283.55z"/>
<path fill="#1A171B" d="M347.784,283.48c0,1.547-0.574,2.401-1.583,2.401c-0.891,0-1.491-0.833-1.506-2.339
	c0-1.527,0.657-2.367,1.583-2.367C347.238,281.176,347.784,282.031,347.784,283.48z M345.313,283.55
	c0,1.185,0.363,1.856,0.925,1.856c0.63,0,0.932-0.735,0.932-1.898c0-1.121-0.287-1.855-0.925-1.855
	C345.704,281.652,345.313,282.311,345.313,283.55z"/>
<path fill="#1A171B" d="M352.858,283.48c0,1.547-0.574,2.401-1.583,2.401c-0.891,0-1.491-0.833-1.507-2.339
	c0-1.527,0.658-2.367,1.583-2.367C352.313,281.176,352.858,282.031,352.858,283.48z M350.386,283.55
	c0,1.185,0.364,1.856,0.925,1.856c0.631,0,0.933-0.735,0.933-1.898c0-1.121-0.287-1.855-0.925-1.855
	C350.778,281.652,350.386,282.311,350.386,283.55z"/>
<path fill="#1A171B" d="M356.449,283.48c0,1.547-0.574,2.401-1.583,2.401c-0.891,0-1.491-0.833-1.506-2.339
	c0-1.527,0.657-2.367,1.583-2.367C355.903,281.176,356.449,282.031,356.449,283.48z M353.977,283.55
	c0,1.185,0.364,1.856,0.926,1.856c0.63,0,0.932-0.735,0.932-1.898c0-1.121-0.287-1.855-0.925-1.855
	C354.369,281.652,353.977,282.311,353.977,283.55z"/>
<path fill="#1A171B" d="M360.041,283.48c0,1.547-0.574,2.401-1.583,2.401c-0.89,0-1.491-0.833-1.506-2.339
	c0-1.527,0.658-2.367,1.583-2.367C359.495,281.176,360.041,282.031,360.041,283.48z M357.568,283.55
	c0,1.185,0.363,1.856,0.925,1.856c0.63,0,0.932-0.735,0.932-1.898c0-1.121-0.287-1.855-0.925-1.855
	C357.961,281.652,357.568,282.311,357.568,283.55z"/>
<path fill="#1A171B" d="M333.84,232.632h-0.015l-0.791,0.427l-0.119-0.469l0.994-0.531h0.524v4.551h-0.595L333.84,232.632
	L333.84,232.632z"/>
<path fill="#1A171B" d="M340.294,232.576h-1.736l-0.175,1.169c0.104-0.015,0.202-0.028,0.371-0.028c0.351,0,0.7,0.077,0.98,0.245
	c0.355,0.203,0.65,0.595,0.65,1.169c0,0.891-0.708,1.555-1.694,1.555c-0.497,0-0.917-0.14-1.136-0.279l0.154-0.469
	c0.189,0.111,0.561,0.252,0.974,0.252c0.581,0,1.078-0.379,1.078-0.987c-0.007-0.588-0.397-1.009-1.31-1.009
	c-0.259,0-0.462,0.027-0.63,0.049l0.294-2.186h2.178L340.294,232.576L340.294,232.576z"/>
<path fill="#1A171B" d="M344.193,234.285c0,1.548-0.574,2.402-1.583,2.402c-0.891,0-1.491-0.834-1.507-2.34
	c0-1.527,0.658-2.367,1.583-2.367C343.647,231.98,344.193,232.835,344.193,234.285z M341.721,234.354
	c0,1.185,0.364,1.856,0.926,1.856c0.63,0,0.932-0.735,0.932-1.897c0-1.121-0.287-1.856-0.925-1.856
	C342.113,232.457,341.721,233.115,341.721,234.354z"/>
<path fill="#1A171B" d="M347.784,234.285c0,1.548-0.574,2.402-1.583,2.402c-0.891,0-1.491-0.834-1.506-2.34
	c0-1.527,0.657-2.367,1.583-2.367C347.238,231.98,347.784,232.835,347.784,234.285z M345.313,234.354
	c0,1.185,0.363,1.856,0.925,1.856c0.63,0,0.932-0.735,0.932-1.897c0-1.121-0.287-1.856-0.925-1.856
	C345.704,232.457,345.313,233.115,345.313,234.354z"/>
<path fill="#1A171B" d="M352.858,234.285c0,1.548-0.574,2.402-1.583,2.402c-0.891,0-1.491-0.834-1.507-2.34
	c0-1.527,0.658-2.367,1.583-2.367C352.313,231.98,352.858,232.835,352.858,234.285z M350.386,234.354
	c0,1.185,0.364,1.856,0.925,1.856c0.631,0,0.933-0.735,0.933-1.897c0-1.121-0.287-1.856-0.925-1.856
	C350.778,232.457,350.386,233.115,350.386,234.354z"/>
<path fill="#1A171B" d="M356.449,234.285c0,1.548-0.574,2.402-1.583,2.402c-0.891,0-1.491-0.834-1.506-2.34
	c0-1.527,0.657-2.367,1.583-2.367C355.903,231.98,356.449,232.835,356.449,234.285z M353.977,234.354
	c0,1.185,0.364,1.856,0.926,1.856c0.63,0,0.932-0.735,0.932-1.897c0-1.121-0.287-1.856-0.925-1.856
	C354.369,232.457,353.977,233.115,353.977,234.354z"/>
<path fill="#1A171B" d="M360.041,234.285c0,1.548-0.574,2.402-1.583,2.402c-0.89,0-1.491-0.834-1.506-2.34
	c0-1.527,0.658-2.367,1.583-2.367C359.495,231.98,360.041,232.835,360.041,234.285z M357.568,234.354
	c0,1.185,0.363,1.856,0.925,1.856c0.63,0,0.932-0.735,0.932-1.897c0-1.121-0.287-1.856-0.925-1.856
	C357.961,232.457,357.568,233.115,357.568,234.354z"/>
<path fill="#1A171B" d="M332.502,187.386v-0.378l0.483-0.469c1.162-1.106,1.688-1.695,1.693-2.381c0-0.462-0.224-0.89-0.902-0.89
	c-0.413,0-0.758,0.21-0.968,0.385l-0.195-0.435c0.314-0.266,0.764-0.462,1.289-0.462c0.979,0,1.394,0.672,1.394,1.324
	c0,0.84-0.609,1.52-1.568,2.444l-0.363,0.336v0.014h2.045v0.511L332.502,187.386L332.502,187.386z"/>
<path fill="#1A171B" d="M340.603,185.061c0,1.548-0.573,2.402-1.583,2.402c-0.89,0-1.49-0.833-1.506-2.339
	c0-1.527,0.658-2.367,1.583-2.367C340.057,182.756,340.603,183.611,340.603,185.061z M338.13,185.13
	c0,1.184,0.364,1.856,0.925,1.856c0.63,0,0.933-0.735,0.933-1.898c0-1.121-0.287-1.856-0.925-1.856
	C338.522,183.232,338.13,183.891,338.13,185.13z"/>
<path fill="#1A171B" d="M344.193,185.061c0,1.548-0.574,2.402-1.583,2.402c-0.891,0-1.491-0.833-1.507-2.339
	c0-1.527,0.658-2.367,1.583-2.367C343.647,182.756,344.193,183.611,344.193,185.061z M341.721,185.13
	c0,1.184,0.364,1.856,0.926,1.856c0.63,0,0.932-0.735,0.932-1.898c0-1.121-0.287-1.856-0.925-1.856
	C342.113,183.232,341.721,183.891,341.721,185.13z"/>
<path fill="#1A171B" d="M347.784,185.061c0,1.548-0.574,2.402-1.583,2.402c-0.891,0-1.491-0.833-1.506-2.339
	c0-1.527,0.657-2.367,1.583-2.367C347.238,182.756,347.784,183.611,347.784,185.061z M345.313,185.13
	c0,1.184,0.363,1.856,0.925,1.856c0.63,0,0.932-0.735,0.932-1.898c0-1.121-0.287-1.856-0.925-1.856
	C345.704,183.232,345.313,183.891,345.313,185.13z"/>
<path fill="#1A171B" d="M352.858,185.061c0,1.548-0.574,2.402-1.583,2.402c-0.891,0-1.491-0.833-1.507-2.339
	c0-1.527,0.658-2.367,1.583-2.367C352.313,182.756,352.858,183.611,352.858,185.061z M350.386,185.13
	c0,1.184,0.364,1.856,0.925,1.856c0.631,0,0.933-0.735,0.933-1.898c0-1.121-0.287-1.856-0.925-1.856
	C350.778,183.232,350.386,183.891,350.386,185.13z"/>
<path fill="#1A171B" d="M356.449,185.061c0,1.548-0.574,2.402-1.583,2.402c-0.891,0-1.491-0.833-1.506-2.339
	c0-1.527,0.657-2.367,1.583-2.367C355.903,182.756,356.449,183.611,356.449,185.061z M353.977,185.13
	c0,1.184,0.364,1.856,0.926,1.856c0.63,0,0.932-0.735,0.932-1.898c0-1.121-0.287-1.856-0.925-1.856
	C354.369,183.232,353.977,183.891,353.977,185.13z"/>
<path fill="#1A171B" d="M360.041,185.061c0,1.548-0.574,2.402-1.583,2.402c-0.89,0-1.491-0.833-1.506-2.339
	c0-1.527,0.658-2.367,1.583-2.367C359.495,182.756,360.041,183.611,360.041,185.061z M357.568,185.13
	c0,1.184,0.363,1.856,0.925,1.856c0.63,0,0.932-0.735,0.932-1.898c0-1.121-0.287-1.856-0.925-1.856
	C357.961,183.232,357.568,183.891,357.568,185.13z"/>
<line fill="none" stroke="#1C1C1C" stroke-width="0.25" stroke-miterlimit="10" x1="88.989" y1="135.618" x2="324.914" y2="135.618"/>
<path fill="#1A171B" d="M332.505,138.169v-0.378l0.483-0.469c1.162-1.106,1.688-1.695,1.693-2.381c0-0.462-0.224-0.89-0.902-0.89
	c-0.413,0-0.757,0.21-0.968,0.385l-0.195-0.435c0.314-0.266,0.764-0.462,1.289-0.462c0.979,0,1.394,0.672,1.394,1.324
	c0,0.84-0.608,1.52-1.567,2.444l-0.364,0.336v0.014h2.045v0.511L332.505,138.169L332.505,138.169z"/>
<path fill="#1A171B" d="M340.297,134.135h-1.736l-0.176,1.169c0.105-0.014,0.203-0.028,0.372-0.028c0.351,0,0.7,0.077,0.98,0.245
	c0.355,0.203,0.65,0.595,0.65,1.169c0,0.89-0.708,1.555-1.694,1.555c-0.497,0-0.917-0.14-1.136-0.28l0.154-0.469
	c0.189,0.112,0.562,0.252,0.974,0.252c0.581,0,1.078-0.378,1.078-0.987c-0.007-0.588-0.397-1.009-1.31-1.009
	c-0.259,0-0.462,0.028-0.63,0.049l0.294-2.185h2.178L340.297,134.135L340.297,134.135z"/>
<path fill="#1A171B" d="M344.196,135.844c0,1.548-0.574,2.402-1.583,2.402c-0.891,0-1.491-0.833-1.506-2.339
	c0-1.527,0.657-2.367,1.583-2.367C343.65,133.54,344.196,134.394,344.196,135.844z M341.724,135.914
	c0,1.184,0.364,1.856,0.926,1.856c0.63,0,0.932-0.735,0.932-1.898c0-1.121-0.287-1.856-0.925-1.856
	C342.116,134.016,341.724,134.674,341.724,135.914z"/>
<path fill="#1A171B" d="M347.787,135.844c0,1.548-0.574,2.402-1.583,2.402c-0.89,0-1.491-0.833-1.506-2.339
	c0-1.527,0.657-2.367,1.583-2.367C347.241,133.54,347.787,134.394,347.787,135.844z M345.314,135.914
	c0,1.184,0.363,1.856,0.925,1.856c0.63,0,0.932-0.735,0.932-1.898c0-1.121-0.287-1.856-0.925-1.856
	C345.707,134.016,345.314,134.674,345.314,135.914z"/>
<path fill="#1A171B" d="M352.861,135.844c0,1.548-0.574,2.402-1.583,2.402c-0.891,0-1.491-0.833-1.507-2.339
	c0-1.527,0.658-2.367,1.584-2.367C352.315,133.54,352.861,134.394,352.861,135.844z M350.389,135.914
	c0,1.184,0.364,1.856,0.926,1.856c0.63,0,0.932-0.735,0.932-1.898c0-1.121-0.287-1.856-0.925-1.856
	C350.781,134.016,350.389,134.674,350.389,135.914z"/>
<path fill="#1A171B" d="M356.452,135.844c0,1.548-0.574,2.402-1.583,2.402c-0.891,0-1.491-0.833-1.506-2.339
	c0-1.527,0.657-2.367,1.583-2.367C355.906,133.54,356.452,134.394,356.452,135.844z M353.979,135.914
	c0,1.184,0.364,1.856,0.926,1.856c0.63,0,0.932-0.735,0.932-1.898c0-1.121-0.287-1.856-0.925-1.856
	C354.372,134.016,353.979,134.674,353.979,135.914z"/>
<path fill="#1A171B" d="M360.044,135.844c0,1.548-0.574,2.402-1.583,2.402c-0.89,0-1.491-0.833-1.506-2.339
	c0-1.527,0.658-2.367,1.583-2.367C359.498,133.54,360.044,134.394,360.044,135.844z M357.571,135.914
	c0,1.184,0.363,1.856,0.925,1.856c0.63,0,0.932-0.735,0.932-1.898c0-1.121-0.287-1.856-0.925-1.856
	C357.964,134.016,357.571,134.674,357.571,135.914z"/>
<polygon fill="#1A171B" points="333.641,114.298 335.076,114.298 335.076,115.089 332.729,115.089 332.729,110.417 333.641,110.417 
	"/>
<g>
	<g>
		<defs>
			<rect id="SVGID_1_" width="419.528" height="595.276"/>
		</defs>
		<clipPath id="SVGID_2_">
			<use xlink:href="#SVGID_1_"  overflow="visible"/>
		</clipPath>
		<path clip-path="url(#SVGID_2_)" fill="#1A171B" d="M336.433,115.089h-0.848v-3.032h0.848V115.089z M336.524,110.775
			c0,0.28-0.231,0.512-0.514,0.512c-0.286,0-0.51-0.232-0.51-0.519c0-0.273,0.23-0.504,0.51-0.504
			C336.299,110.264,336.524,110.488,336.524,110.775"/>
	</g>
	<g>
		<defs>
			<rect id="SVGID_3_" width="419.528" height="595.276"/>
		</defs>
		<clipPath id="SVGID_4_">
			<use xlink:href="#SVGID_3_"  overflow="visible"/>
		</clipPath>
		<path clip-path="url(#SVGID_4_)" fill="#1A171B" d="M339.507,112.98c-0.245-0.188-0.436-0.259-0.688-0.259
			c-0.503,0-0.876,0.364-0.876,0.855c0,0.49,0.373,0.847,0.876,0.847c0.259,0,0.456-0.07,0.688-0.253v0.828
			c-0.272,0.139-0.497,0.188-0.776,0.188c-0.938,0-1.661-0.693-1.661-1.597c0-0.923,0.723-1.631,1.667-1.631
			c0.301,0,0.525,0.056,0.771,0.182V112.98L339.507,112.98z"/>
	</g>
</g>
<polygon fill="#1A171B" points="342.938,114.354 342.938,115.089 339.833,115.089 341.558,112.778 340.101,112.778 340.101,112.042 
	343.048,112.042 341.332,114.354 "/>
<g>
	<g>
		<defs>
			<rect id="SVGID_5_" width="419.528" height="595.276"/>
		</defs>
		<clipPath id="SVGID_6_">
			<use xlink:href="#SVGID_5_"  overflow="visible"/>
		</clipPath>
		<path clip-path="url(#SVGID_6_)" fill="#1A171B" d="M344.301,113.569c0,0.476,0.385,0.855,0.854,0.855
			c0.462,0,0.846-0.386,0.846-0.841c0-0.484-0.378-0.862-0.854-0.862C344.679,112.722,344.301,113.1,344.301,113.569
			 M344.392,112.449c0.302-0.343,0.604-0.49,1.01-0.49c0.84,0,1.477,0.7,1.477,1.604c0,0.931-0.637,1.624-1.491,1.624
			c-0.42,0-0.714-0.146-0.994-0.49v0.393h-0.849v-5.246h0.849L344.392,112.449L344.392,112.449z"/>
	</g>
	<g>
		<defs>
			<rect id="SVGID_7_" width="419.528" height="595.276"/>
		</defs>
		<clipPath id="SVGID_8_">
			<use xlink:href="#SVGID_7_"  overflow="visible"/>
		</clipPath>
		<path clip-path="url(#SVGID_8_)" fill="#1A171B" d="M348.241,113.57c0,0.475,0.386,0.854,0.854,0.854
			c0.462,0,0.849-0.386,0.849-0.841c0-0.483-0.371-0.861-0.849-0.861C348.62,112.722,348.241,113.1,348.241,113.57 M350.7,112.057
			v3.032h-0.85v-0.392c-0.271,0.343-0.572,0.49-0.992,0.49c-0.854,0-1.492-0.693-1.492-1.617c0-0.911,0.645-1.612,1.478-1.612
			c0.413,0,0.714,0.148,1.008,0.491v-0.392H350.7z"/>
	</g>
</g>
<polygon fill="#1A171B" points="335.384,122.754 335.384,123.489 332.28,123.489 334.005,121.178 332.548,121.178 332.548,120.442 
	335.495,120.442 333.779,122.754 "/>
<g>
	<g>
		<defs>
			<rect id="SVGID_9_" width="419.528" height="595.276"/>
		</defs>
		<clipPath id="SVGID_10_">
			<use xlink:href="#SVGID_9_"  overflow="visible"/>
		</clipPath>
		<path clip-path="url(#SVGID_10_)" fill="#1A171B" d="M336.671,121.97c0,0.475,0.386,0.854,0.854,0.854
			c0.462,0,0.848-0.386,0.848-0.841c0-0.483-0.371-0.861-0.848-0.861C337.05,121.122,336.671,121.5,336.671,121.97 M339.13,120.458
			v3.032h-0.849v-0.392c-0.272,0.343-0.573,0.49-0.994,0.49c-0.854,0-1.491-0.693-1.491-1.617c0-0.911,0.646-1.612,1.479-1.612
			c0.413,0,0.714,0.148,1.008,0.491v-0.392H339.13z"/>
	</g>
	<g>
		<defs>
			<rect id="SVGID_11_" width="419.528" height="595.276"/>
		</defs>
		<clipPath id="SVGID_12_">
			<use xlink:href="#SVGID_11_"  overflow="visible"/>
		</clipPath>
		<path clip-path="url(#SVGID_12_)" fill="#1A171B" d="M340.696,121.97c0,0.476,0.385,0.855,0.853,0.855
			c0.463,0,0.85-0.386,0.85-0.841c0-0.483-0.379-0.861-0.854-0.861C341.074,121.123,340.696,121.5,340.696,121.97 M339.939,125.108
			v-4.65h0.848v0.391c0.271-0.343,0.574-0.49,0.994-0.49c0.854,0,1.492,0.693,1.492,1.618c0,0.91-0.646,1.61-1.479,1.61
			c-0.405,0-0.708-0.146-1.008-0.49v2.011H339.939z"/>
	</g>
</g>
<polygon fill="#1A171B" points="343.369,120.458 344.355,120.458 345.267,122.18 346.129,120.458 347.102,120.458 344.651,125.107 
	343.69,125.107 344.805,123.027 "/>
<polygon fill="#1A171B" points="348.368,123.489 347.52,123.489 347.52,121.192 347.184,121.192 347.184,120.458 347.52,120.458 
	347.52,119.42 348.368,119.42 348.368,120.458 348.971,120.458 348.971,121.192 348.368,121.192 "/>
<g>
	<g>
		<defs>
			<rect id="SVGID_13_" width="419.528" height="595.276"/>
		</defs>
		<clipPath id="SVGID_14_">
			<use xlink:href="#SVGID_13_"  overflow="visible"/>
		</clipPath>
		<path clip-path="url(#SVGID_14_)" fill="#1A171B" d="M350.132,121.97c0,0.475,0.385,0.854,0.854,0.854
			c0.462,0,0.848-0.386,0.848-0.841c0-0.483-0.371-0.861-0.848-0.861S350.132,121.5,350.132,121.97 M352.59,120.458v3.032h-0.849
			v-0.392c-0.272,0.343-0.573,0.49-0.993,0.49c-0.854,0-1.492-0.693-1.492-1.617c0-0.911,0.646-1.612,1.479-1.612
			c0.412,0,0.714,0.148,1.008,0.491v-0.392H352.59z"/>
	</g>
	<g>
		<defs>
			<rect id="SVGID_15_" width="419.528" height="595.276"/>
		</defs>
		<clipPath id="SVGID_16_">
			<use xlink:href="#SVGID_15_"  overflow="visible"/>
		</clipPath>
		<path clip-path="url(#SVGID_16_)" fill="#1A171B" d="M354.822,119.925l-0.406-0.281l0.833-1.057l0.616,0.391L354.822,119.925z
			 M354.248,120.458v0.378c0.266-0.344,0.539-0.477,0.952-0.477c0.356,0,0.68,0.133,0.883,0.365c0.175,0.203,0.237,0.427,0.237,0.84
			v1.926h-0.848v-1.68c0-0.252-0.021-0.386-0.084-0.491c-0.084-0.147-0.272-0.238-0.497-0.238c-0.435,0-0.645,0.266-0.645,0.841
			v1.568h-0.849v-3.032H354.248z"/>
	</g>
</g>
<path fill="#1A171B" d="M277.43,392.784v-0.378l0.483-0.471c1.162-1.105,1.688-1.693,1.694-2.381c0-0.463-0.225-0.89-0.903-0.89
	c-0.413,0-0.757,0.21-0.968,0.385l-0.195-0.434c0.314-0.267,0.764-0.464,1.289-0.464c0.98,0,1.395,0.674,1.395,1.324
	c0,0.84-0.609,1.521-1.568,2.444l-0.364,0.336v0.015h2.045v0.512L277.43,392.784L277.43,392.784z"/>
<path fill="#1A171B" d="M284.046,390.458c0,1.548-0.573,2.401-1.583,2.401c-0.891,0-1.49-0.834-1.506-2.34
	c0-1.525,0.658-2.367,1.583-2.367C283.5,388.154,284.046,389.008,284.046,390.458z M281.573,390.529
	c0,1.184,0.364,1.854,0.925,1.854c0.63,0,0.932-0.735,0.932-1.897c0-1.12-0.287-1.855-0.925-1.855
	C281.966,388.63,281.573,389.289,281.573,390.529z"/>
<path fill="#1A171B" d="M285.949,388.805h-0.016l-0.791,0.428l-0.119-0.469l0.994-0.533h0.525v4.554h-0.595L285.949,388.805
	L285.949,388.805z"/>
<path fill="#1A171B" d="M288.202,392.784v-0.378l0.483-0.471c1.162-1.105,1.688-1.693,1.693-2.381c0-0.463-0.225-0.89-0.902-0.89
	c-0.414,0-0.758,0.21-0.968,0.385l-0.196-0.434c0.315-0.267,0.765-0.464,1.289-0.464c0.98,0,1.395,0.674,1.395,1.324
	c0,0.84-0.609,1.521-1.568,2.444l-0.363,0.336v0.015h2.045v0.512L288.202,392.784L288.202,392.784z"/>
<line fill="none" stroke="#1A171B" stroke-width="0.25" stroke-miterlimit="10" x1="87.466" y1="381.643" x2="324.945" y2="381.643"/>
<rect x="87.843" y="427.292" fill="#00FF00" width="8.504" height="8.504"/>
<polygon fill="#1A171B" points="101.928,432.78 103.069,429.557 103.566,429.557 104.651,432.78 105.772,429.6 106.731,429.6 
	104.974,434.362 104.336,434.362 103.299,431.309 102.207,434.362 101.57,434.362 99.917,429.6 100.876,429.6 "/>
<g>
	<g>
		<defs>
			<rect id="SVGID_17_" width="419.528" height="595.276"/>
		</defs>
		<clipPath id="SVGID_18_">
			<use xlink:href="#SVGID_17_"  overflow="visible"/>
		</clipPath>
		<path clip-path="url(#SVGID_18_)" fill="#1A171B" d="M109.039,432.352c-0.091-0.393-0.343-0.602-0.721-0.602
			c-0.379,0-0.638,0.225-0.715,0.602H109.039z M107.575,432.891c0.021,0.525,0.28,0.813,0.743,0.813
			c0.321,0,0.525-0.119,0.721-0.406l0.785,0.127c-0.26,0.623-0.77,0.945-1.485,0.945c-0.988,0-1.632-0.637-1.632-1.611
			c0-0.979,0.623-1.617,1.59-1.617c0.966,0,1.554,0.623,1.554,1.64v0.11H107.575L107.575,432.891z"/>
	</g>
	<g>
		<defs>
			<rect id="SVGID_19_" width="419.528" height="595.276"/>
		</defs>
		<clipPath id="SVGID_20_">
			<use xlink:href="#SVGID_19_"  overflow="visible"/>
		</clipPath>
		<path clip-path="url(#SVGID_20_)" fill="#1A171B" d="M111.208,432.752c0,0.475,0.385,0.854,0.854,0.854
			c0.462,0,0.847-0.386,0.847-0.841c0-0.483-0.371-0.86-0.847-0.86C111.587,431.905,111.208,432.282,111.208,432.752
			 M113.667,429.026v5.246h-0.848v-0.393c-0.273,0.343-0.574,0.489-0.994,0.489c-0.854,0-1.492-0.693-1.492-1.617
			c0-0.912,0.645-1.611,1.478-1.611c0.413,0,0.714,0.146,1.008,0.49v-2.604H113.667z"/>
	</g>
</g>
<polygon fill="#1A171B" points="115.429,430.77 115.955,430.385 115.955,431.167 115.429,431.534 115.429,434.272 114.583,434.272 
	114.583,431.924 114.071,432.29 114.071,431.512 114.583,431.167 114.583,429.026 115.429,429.026 "/>
<g>
	<g>
		<defs>
			<rect id="SVGID_21_" width="419.528" height="595.276"/>
		</defs>
		<clipPath id="SVGID_22_">
			<use xlink:href="#SVGID_21_"  overflow="visible"/>
		</clipPath>
		<path clip-path="url(#SVGID_22_)" fill="#1A171B" d="M117.208,432.956c0,0.455,0.21,0.693,0.623,0.693
			c0.406,0,0.616-0.238,0.616-0.693v-1.717h0.848v1.854c0,0.82-0.525,1.275-1.464,1.275c-0.945,0-1.471-0.455-1.471-1.275v-1.854
			h0.848V432.956z"/>
	</g>
	<g>
		<defs>
			<rect id="SVGID_23_" width="419.528" height="595.276"/>
		</defs>
		<clipPath id="SVGID_24_">
			<use xlink:href="#SVGID_23_"  overflow="visible"/>
		</clipPath>
		<path clip-path="url(#SVGID_24_)" fill="#1A171B" d="M120.834,432.752c0,0.475,0.384,0.854,0.853,0.854
			c0.463,0,0.848-0.387,0.848-0.841c0-0.483-0.378-0.86-0.848-0.86C121.212,431.905,120.834,432.282,120.834,432.752
			 M123.277,434.159c0,0.625-0.076,0.904-0.343,1.205c-0.294,0.35-0.742,0.533-1.274,0.533c-0.616,0-1.079-0.219-1.394-0.666
			c-0.147-0.212-0.203-0.357-0.231-0.603h0.925c0.084,0.357,0.329,0.545,0.713,0.545c0.217,0,0.428-0.084,0.568-0.223
			c0.119-0.127,0.189-0.344,0.189-0.631v-0.455c-0.315,0.362-0.602,0.504-1.03,0.504c-0.833,0-1.442-0.658-1.442-1.576
			c0-0.953,0.63-1.652,1.484-1.652c0.421,0,0.701,0.142,0.988,0.49v-0.393h0.847V434.159z"/>
	</g>
	<g>
		<defs>
			<rect id="SVGID_25_" width="419.528" height="595.276"/>
		</defs>
		<clipPath id="SVGID_26_">
			<use xlink:href="#SVGID_25_"  overflow="visible"/>
		</clipPath>
		<path clip-path="url(#SVGID_26_)" fill="#1A171B" d="M126.595,432.752c0,0.475,0.385,0.854,0.854,0.854
			c0.462,0,0.847-0.386,0.847-0.841c0-0.483-0.378-0.86-0.854-0.86C126.973,431.905,126.595,432.282,126.595,432.752
			 M125.837,435.889v-4.649h0.848v0.393c0.272-0.344,0.574-0.49,0.994-0.49c0.854,0,1.492,0.693,1.492,1.617
			c0,0.91-0.645,1.611-1.478,1.611c-0.406,0-0.708-0.146-1.008-0.49v2.01L125.837,435.889L125.837,435.889z"/>
	</g>
	<g>
		<defs>
			<rect id="SVGID_27_" width="419.528" height="595.276"/>
		</defs>
		<clipPath id="SVGID_28_">
			<use xlink:href="#SVGID_27_"  overflow="visible"/>
		</clipPath>
		<path clip-path="url(#SVGID_28_)" fill="#1A171B" d="M130.535,432.745c0,0.481,0.379,0.862,0.863,0.862
			c0.468,0,0.854-0.381,0.854-0.85c0-0.477-0.386-0.854-0.862-0.854C130.928,431.905,130.535,432.29,130.535,432.745
			 M133.126,432.752c0,0.959-0.714,1.617-1.751,1.617c-1.016,0-1.716-0.666-1.716-1.638c0-0.928,0.729-1.592,1.744-1.592
			C132.42,431.141,133.126,431.799,133.126,432.752"/>
	</g>
</g>
<rect x="133.775" y="429.026" fill="#1A171B" width="0.848" height="5.246"/>
<g>
	<g>
		<defs>
			<rect id="SVGID_29_" width="419.528" height="595.276"/>
		</defs>
		<clipPath id="SVGID_30_">
			<use xlink:href="#SVGID_29_"  overflow="visible"/>
		</clipPath>
		<path clip-path="url(#SVGID_30_)" fill="#1A171B" d="M136.267,434.271h-0.847v-3.031h0.847V434.271z M136.359,429.958
			c0,0.279-0.231,0.512-0.512,0.512c-0.287,0-0.51-0.231-0.51-0.52c0-0.273,0.23-0.504,0.51-0.504
			C136.134,429.446,136.359,429.67,136.359,429.958"/>
	</g>
	<g>
		<defs>
			<rect id="SVGID_31_" width="419.528" height="595.276"/>
		</defs>
		<clipPath id="SVGID_32_">
			<use xlink:href="#SVGID_31_"  overflow="visible"/>
		</clipPath>
		<path clip-path="url(#SVGID_32_)" fill="#1A171B" d="M139.342,432.163c-0.245-0.188-0.435-0.258-0.687-0.258
			c-0.503,0-0.876,0.361-0.876,0.854c0,0.49,0.373,0.849,0.876,0.849c0.259,0,0.456-0.07,0.687-0.253v0.826
			c-0.273,0.142-0.497,0.189-0.777,0.189c-0.939,0-1.661-0.693-1.661-1.598c0-0.925,0.722-1.632,1.667-1.632
			c0.301,0,0.526,0.058,0.771,0.183V432.163L139.342,432.163z"/>
	</g>
	<g>
		<defs>
			<rect id="SVGID_33_" width="419.528" height="595.276"/>
		</defs>
		<clipPath id="SVGID_34_">
			<use xlink:href="#SVGID_33_"  overflow="visible"/>
		</clipPath>
		<path clip-path="url(#SVGID_34_)" fill="#1A171B" d="M140.874,435.889h-0.847v-4.648h0.847V435.889z M140.966,429.958
			c0,0.279-0.231,0.512-0.512,0.512c-0.28,0-0.51-0.231-0.51-0.52c0-0.273,0.23-0.504,0.51-0.504
			C140.741,429.446,140.966,429.67,140.966,429.958"/>
	</g>
	<g>
		<defs>
			<rect id="SVGID_35_" width="419.528" height="595.276"/>
		</defs>
		<clipPath id="SVGID_36_">
			<use xlink:href="#SVGID_35_"  overflow="visible"/>
		</clipPath>
		<path clip-path="url(#SVGID_36_)" fill="#1A171B" d="M142.504,434.271h-0.847v-3.031h0.847V434.271z M142.596,429.958
			c0,0.279-0.231,0.512-0.512,0.512c-0.287,0-0.51-0.231-0.51-0.52c0-0.273,0.23-0.504,0.51-0.504
			C142.372,429.446,142.596,429.67,142.596,429.958"/>
	</g>
	<g>
		<defs>
			<rect id="SVGID_37_" width="419.528" height="595.276"/>
		</defs>
		<clipPath id="SVGID_38_">
			<use xlink:href="#SVGID_37_"  overflow="visible"/>
		</clipPath>
		<path clip-path="url(#SVGID_38_)" fill="#1A171B" d="M145.885,434.271h-0.847v-3.031h0.847V434.271z M145.978,429.958
			c0,0.279-0.231,0.512-0.512,0.512c-0.287,0-0.51-0.231-0.51-0.52c0-0.273,0.23-0.504,0.51-0.504
			C145.752,429.446,145.978,429.67,145.978,429.958"/>
	</g>
	<g>
		<defs>
			<rect id="SVGID_39_" width="419.528" height="595.276"/>
		</defs>
		<clipPath id="SVGID_40_">
			<use xlink:href="#SVGID_39_"  overflow="visible"/>
		</clipPath>
		<path clip-path="url(#SVGID_40_)" fill="#1A171B" d="M149.266,434.271h-0.847v-3.031h0.847V434.271z M149.358,429.958
			c0,0.279-0.231,0.512-0.512,0.512c-0.287,0-0.51-0.231-0.51-0.52c0-0.273,0.23-0.504,0.51-0.504
			C149.133,429.446,149.358,429.67,149.358,429.958"/>
	</g>
	<g>
		<defs>
			<rect id="SVGID_41_" width="419.528" height="595.276"/>
		</defs>
		<clipPath id="SVGID_42_">
			<use xlink:href="#SVGID_41_"  overflow="visible"/>
		</clipPath>
		<path clip-path="url(#SVGID_42_)" fill="#1A171B" d="M150.912,431.239v0.379c0.266-0.344,0.539-0.478,0.952-0.478
			c0.358,0,0.68,0.134,0.883,0.363c0.175,0.203,0.238,0.428,0.238,0.842v1.927h-0.847v-1.683c0-0.252-0.022-0.385-0.084-0.49
			c-0.084-0.146-0.274-0.237-0.497-0.237c-0.435,0-0.645,0.266-0.645,0.84v1.57h-0.848v-3.033H150.912L150.912,431.239z"/>
	</g>
	<g>
		<defs>
			<rect id="SVGID_43_" width="419.528" height="595.276"/>
		</defs>
		<clipPath id="SVGID_44_">
			<use xlink:href="#SVGID_43_"  overflow="visible"/>
		</clipPath>
		<path clip-path="url(#SVGID_44_)" fill="#1A171B" d="M154.642,431.239v0.379c0.266-0.344,0.539-0.478,0.952-0.478
			c0.358,0,0.68,0.134,0.883,0.363c0.175,0.203,0.238,0.428,0.238,0.842v1.927h-0.847v-1.683c0-0.252-0.022-0.385-0.084-0.49
			c-0.084-0.146-0.274-0.237-0.497-0.237c-0.435,0-0.645,0.266-0.645,0.84v1.57h-0.848v-3.033H154.642L154.642,431.239z"/>
	</g>
</g>
<polygon fill="#1A171B" points="157,431.239 157.988,431.239 158.899,432.961 159.761,431.239 160.734,431.239 158.283,435.889 
	157.323,435.889 158.437,433.809 "/>
<g>
	<g>
		<defs>
			<rect id="SVGID_45_" width="419.528" height="595.276"/>
		</defs>
		<clipPath id="SVGID_46_">
			<use xlink:href="#SVGID_45_"  overflow="visible"/>
		</clipPath>
		<path clip-path="url(#SVGID_46_)" fill="#1A171B" d="M163.239,432.163c-0.245-0.188-0.435-0.258-0.687-0.258
			c-0.503,0-0.875,0.361-0.875,0.854c0,0.49,0.372,0.849,0.875,0.849c0.259,0,0.456-0.07,0.687-0.253v0.826
			c-0.273,0.142-0.497,0.189-0.777,0.189c-0.939,0-1.661-0.693-1.661-1.598c0-0.925,0.722-1.632,1.667-1.632
			c0.301,0,0.526,0.058,0.771,0.183L163.239,432.163L163.239,432.163z"/>
	</g>
	<g>
		<defs>
			<rect id="SVGID_47_" width="419.528" height="595.276"/>
		</defs>
		<clipPath id="SVGID_48_">
			<use xlink:href="#SVGID_47_"  overflow="visible"/>
		</clipPath>
		<path clip-path="url(#SVGID_48_)" fill="#1A171B" d="M164.8,429.026v2.604c0.267-0.35,0.539-0.49,0.952-0.49
			c0.357,0,0.68,0.134,0.883,0.371c0.176,0.209,0.238,0.429,0.238,0.854v1.906h-0.848v-1.66c0-0.261-0.021-0.4-0.084-0.504
			c-0.084-0.148-0.273-0.246-0.496-0.246c-0.436,0-0.646,0.272-0.646,0.854v1.556h-0.848v-5.246H164.8L164.8,429.026z"/>
	</g>
	<g>
		<defs>
			<rect id="SVGID_49_" width="419.528" height="595.276"/>
		</defs>
		<clipPath id="SVGID_50_">
			<use xlink:href="#SVGID_49_"  overflow="visible"/>
		</clipPath>
		<path clip-path="url(#SVGID_50_)" fill="#1A171B" d="M171.092,431.946c-0.183-0.142-0.337-0.203-0.505-0.203
			c-0.188,0-0.329,0.113-0.329,0.26c0,0.141,0.092,0.203,0.483,0.336c0.344,0.119,0.448,0.168,0.589,0.273
			c0.225,0.153,0.336,0.385,0.336,0.672c0,0.637-0.525,1.086-1.273,1.086c-0.442,0-0.855-0.182-1.15-0.504l0.441-0.521
			c0.246,0.245,0.471,0.357,0.721,0.357c0.218,0,0.386-0.146,0.386-0.336c0-0.174-0.084-0.238-0.47-0.377
			c-0.377-0.142-0.447-0.17-0.58-0.269c-0.203-0.139-0.301-0.35-0.301-0.629c0-0.567,0.447-0.967,1.086-0.967
			c0.377,0,0.692,0.104,0.986,0.322L171.092,431.946z"/>
	</g>
</g>
<polygon fill="#1A171B" points="173.221,430.77 173.745,430.385 173.745,431.167 173.221,431.534 173.221,434.272 172.373,434.272 
	172.373,431.924 171.861,432.29 171.861,431.512 172.373,431.167 172.373,429.026 173.221,429.026 "/>
<g>
	<g>
		<defs>
			<rect id="SVGID_51_" width="419.528" height="595.276"/>
		</defs>
		<clipPath id="SVGID_52_">
			<use xlink:href="#SVGID_51_"  overflow="visible"/>
		</clipPath>
		<path clip-path="url(#SVGID_52_)" fill="#1A171B" d="M174.999,432.956c0,0.455,0.21,0.693,0.623,0.693
			c0.405,0,0.616-0.238,0.616-0.693v-1.717h0.848v1.854c0,0.82-0.525,1.275-1.464,1.275c-0.945,0-1.472-0.455-1.472-1.275v-1.854
			h0.849V432.956L174.999,432.956z"/>
	</g>
	<g>
		<defs>
			<rect id="SVGID_53_" width="419.528" height="595.276"/>
		</defs>
		<clipPath id="SVGID_54_">
			<use xlink:href="#SVGID_53_"  overflow="visible"/>
		</clipPath>
		<path clip-path="url(#SVGID_54_)" fill="#1A171B" d="M179.835,430.14c0,0.294-0.237,0.532-0.524,0.532
			c-0.295,0-0.533-0.238-0.533-0.541c0-0.278,0.238-0.518,0.533-0.518C179.598,429.614,179.835,429.852,179.835,430.14
			 M180.684,433.536v0.736h-3.104l1.725-2.313h-1.457v-0.734h2.947l-1.716,2.312L180.684,433.536L180.684,433.536z"/>
	</g>
	<g>
		<defs>
			<rect id="SVGID_55_" width="419.528" height="595.276"/>
		</defs>
		<clipPath id="SVGID_56_">
			<use xlink:href="#SVGID_55_"  overflow="visible"/>
		</clipPath>
		<path clip-path="url(#SVGID_56_)" fill="#1A171B" d="M182.047,432.752c0,0.475,0.385,0.854,0.855,0.854
			c0.461,0,0.846-0.386,0.846-0.841c0-0.483-0.378-0.86-0.854-0.86C182.425,431.905,182.047,432.282,182.047,432.752
			 M182.139,431.631c0.301-0.344,0.603-0.49,1.008-0.49c0.84,0,1.478,0.699,1.478,1.604c0,0.932-0.638,1.625-1.492,1.625
			c-0.42,0-0.714-0.146-0.993-0.49v0.394h-0.849v-5.245h0.849V431.631z"/>
	</g>
</g>
<rect x="87.843" y="439.662" fill="#1A171B" width="8.504" height="8.504"/>
<polygon fill="#1A171B" points="101.928,445.149 103.069,441.928 103.566,441.928 104.651,445.149 105.772,441.969 106.731,441.969 
	104.974,446.733 104.336,446.733 103.299,443.678 102.207,446.733 101.57,446.733 99.917,441.969 100.876,441.969 "/>
<g>
	<g>
		<defs>
			<rect id="SVGID_57_" width="419.528" height="595.276"/>
		</defs>
		<clipPath id="SVGID_58_">
			<use xlink:href="#SVGID_57_"  overflow="visible"/>
		</clipPath>
		<path clip-path="url(#SVGID_58_)" fill="#1A171B" d="M109.039,444.723c-0.091-0.393-0.343-0.604-0.721-0.604
			c-0.379,0-0.638,0.225-0.715,0.604H109.039z M107.575,445.262c0.021,0.525,0.28,0.813,0.743,0.813
			c0.321,0,0.525-0.119,0.721-0.406l0.785,0.125c-0.26,0.625-0.77,0.945-1.485,0.945c-0.988,0-1.632-0.638-1.632-1.609
			c0-0.979,0.623-1.619,1.59-1.619c0.966,0,1.554,0.623,1.554,1.64v0.112H107.575L107.575,445.262z"/>
	</g>
	<g>
		<defs>
			<rect id="SVGID_59_" width="419.528" height="595.276"/>
		</defs>
		<clipPath id="SVGID_60_">
			<use xlink:href="#SVGID_59_"  overflow="visible"/>
		</clipPath>
		<path clip-path="url(#SVGID_60_)" fill="#1A171B" d="M111.208,445.122c0,0.477,0.385,0.854,0.854,0.854
			c0.462,0,0.847-0.387,0.847-0.842c0-0.481-0.371-0.86-0.847-0.86C111.587,444.274,111.208,444.653,111.208,445.122
			 M113.667,441.395v5.246h-0.848v-0.393c-0.273,0.344-0.574,0.49-0.994,0.49c-0.854,0-1.492-0.693-1.492-1.617
			c0-0.91,0.645-1.611,1.478-1.611c0.413,0,0.714,0.148,1.008,0.489v-2.604H113.667z"/>
	</g>
</g>
<polygon fill="#1A171B" points="115.429,443.139 115.955,442.754 115.955,443.54 115.429,443.903 115.429,446.641 114.583,446.641 
	114.583,444.295 114.071,444.66 114.071,443.881 114.583,443.54 114.583,441.395 115.429,441.395 "/>
<g>
	<g>
		<defs>
			<rect id="SVGID_61_" width="419.528" height="595.276"/>
		</defs>
		<clipPath id="SVGID_62_">
			<use xlink:href="#SVGID_61_"  overflow="visible"/>
		</clipPath>
		<path clip-path="url(#SVGID_62_)" fill="#1A171B" d="M117.208,445.325c0,0.455,0.21,0.692,0.623,0.692
			c0.406,0,0.616-0.237,0.616-0.692v-1.715h0.848v1.854c0,0.818-0.525,1.273-1.464,1.273c-0.945,0-1.471-0.455-1.471-1.273v-1.854
			h0.848V445.325z"/>
	</g>
	<g>
		<defs>
			<rect id="SVGID_63_" width="419.528" height="595.276"/>
		</defs>
		<clipPath id="SVGID_64_">
			<use xlink:href="#SVGID_63_"  overflow="visible"/>
		</clipPath>
		<path clip-path="url(#SVGID_64_)" fill="#1A171B" d="M120.834,445.122c0,0.477,0.384,0.854,0.853,0.854
			c0.463,0,0.848-0.387,0.848-0.842c0-0.481-0.378-0.86-0.848-0.86C121.212,444.274,120.834,444.653,120.834,445.122
			 M123.277,446.53c0,0.623-0.076,0.901-0.343,1.205c-0.294,0.35-0.742,0.53-1.274,0.53c-0.616,0-1.079-0.217-1.394-0.664
			c-0.147-0.211-0.203-0.356-0.231-0.604h0.925c0.084,0.356,0.329,0.547,0.713,0.547c0.217,0,0.428-0.084,0.568-0.225
			c0.119-0.125,0.189-0.345,0.189-0.632v-0.454c-0.315,0.364-0.602,0.504-1.03,0.504c-0.833,0-1.442-0.658-1.442-1.574
			c0-0.953,0.63-1.654,1.484-1.654c0.421,0,0.701,0.142,0.988,0.49v-0.391h0.847V446.53z"/>
	</g>
	<g>
		<defs>
			<rect id="SVGID_65_" width="419.528" height="595.276"/>
		</defs>
		<clipPath id="SVGID_66_">
			<use xlink:href="#SVGID_65_"  overflow="visible"/>
		</clipPath>
		<path clip-path="url(#SVGID_66_)" fill="#1A171B" d="M126.882,444.645c0,0.478,0.027,0.632,0.146,0.835
			c0.155,0.266,0.47,0.434,0.82,0.434s0.666-0.168,0.819-0.434c0.119-0.203,0.148-0.357,0.148-0.835v-2.676h0.91v2.857
			c0,0.547-0.105,0.932-0.343,1.248c-0.322,0.42-0.896,0.672-1.534,0.672c-0.637,0-1.211-0.252-1.533-0.672
			c-0.239-0.316-0.344-0.701-0.344-1.248v-2.857h0.911V444.645L126.882,444.645z"/>
	</g>
</g>
<polygon fill="#1A171B" points="133.421,441.969 134.569,441.969 132.594,444.127 134.674,446.641 133.477,446.641 131.817,444.54 
	131.705,444.653 131.705,446.641 130.794,446.641 130.794,441.969 131.705,441.969 131.705,443.947 "/>
<polygon fill="#1A171B" points="136.157,442.762 136.157,443.797 137.767,443.797 137.767,444.59 136.157,444.59 136.157,445.85 
	137.831,445.85 137.831,446.641 135.246,446.641 135.246,441.969 137.831,441.969 137.831,442.762 "/>
<g>
	<g>
		<defs>
			<rect id="SVGID_67_" width="419.528" height="595.276"/>
		</defs>
		<clipPath id="SVGID_68_">
			<use xlink:href="#SVGID_67_"  overflow="visible"/>
		</clipPath>
		<path clip-path="url(#SVGID_68_)" fill="#1A171B" d="M277.745,47.552c0.099-0.487,0.432-0.775,0.918-0.775
			c0.485,0,0.81,0.27,0.927,0.775H277.745z M280.634,48.244V48.1c0-1.305-0.756-2.105-1.997-2.105c-1.242,0-2.044,0.818-2.044,2.078
			c0,1.252,0.828,2.07,2.097,2.07c0.918,0,1.576-0.414,1.908-1.214l-1.008-0.163c-0.252,0.37-0.513,0.523-0.927,0.523
			c-0.595,0-0.929-0.369-0.954-1.045H280.634z M275.848,46.229c-0.313-0.162-0.603-0.234-0.99-0.234
			c-1.215,0-2.141,0.908-2.141,2.096c0,1.162,0.926,2.052,2.133,2.052c0.359,0,0.647-0.063,0.998-0.243v-1.061
			c-0.297,0.234-0.549,0.324-0.882,0.324c-0.647,0-1.125-0.459-1.125-1.09c0-0.63,0.478-1.098,1.125-1.098
			c0.324,0,0.567,0.09,0.882,0.333V46.229z M271.832,46.39c-0.378-0.278-0.782-0.413-1.27-0.413c-0.818,0-1.395,0.512-1.395,1.241
			c0,0.36,0.126,0.63,0.387,0.81c0.17,0.126,0.26,0.162,0.746,0.343c0.496,0.18,0.604,0.261,0.604,0.486
			c0,0.243-0.217,0.432-0.495,0.432c-0.324,0-0.612-0.144-0.927-0.459l-0.566,0.666c0.378,0.413,0.908,0.647,1.475,0.647
			c0.965,0,1.639-0.575,1.639-1.394c0-0.369-0.145-0.667-0.432-0.865c-0.181-0.135-0.313-0.198-0.756-0.351
			c-0.505-0.171-0.622-0.252-0.622-0.432c0-0.189,0.181-0.333,0.425-0.333c0.215,0,0.414,0.081,0.647,0.261L271.832,46.39z
			 M268.051,43.277h-1.088v6.74h1.088V43.277z M263.779,46.975c0.611,0,1.106,0.486,1.106,1.098c0,0.604-0.495,1.09-1.099,1.09
			c-0.621,0-1.107-0.486-1.107-1.108C262.682,47.47,263.186,46.975,263.779,46.975 M263.797,45.995c-1.305,0-2.24,0.854-2.24,2.042
			c0,1.252,0.899,2.106,2.205,2.106c1.332,0,2.25-0.845,2.25-2.079C266.011,46.84,265.104,45.995,263.797,45.995 M258.305,46.778
			v-1.747h0.405c0.433,0,0.685,0.054,0.864,0.188c0.188,0.145,0.306,0.405,0.306,0.693c0,0.577-0.368,0.865-1.098,0.865H258.305z
			 M258.305,47.794h0.756c0.711,0,1.197-0.171,1.539-0.531c0.305-0.332,0.485-0.818,0.485-1.341c0-0.576-0.226-1.098-0.61-1.449
			c-0.379-0.332-0.802-0.458-1.584-0.458h-1.756v6.002h1.169L258.305,47.794L258.305,47.794z M248.297,46.12h-1.224l1.997,3.978
			h0.505l1.034-2.367l1.054,2.367h0.495l2.016-3.978h-1.215l-1.044,2.287l-1.062-2.394h-0.469l-1.062,2.358L248.297,46.12z
			 M241.619,47.552c0.099-0.487,0.432-0.775,0.918-0.775c0.484,0,0.811,0.27,0.927,0.775H241.619z M244.508,48.244V48.1
			c0-1.305-0.756-2.105-1.998-2.105s-2.043,0.818-2.043,2.078c0,1.252,0.828,2.07,2.098,2.07c0.918,0,1.574-0.414,1.908-1.214
			l-1.009-0.163c-0.252,0.37-0.513,0.523-0.927,0.523c-0.596,0-0.928-0.369-0.954-1.045H244.508z M235.771,46.121v3.896h1.088
			v-2.016c0-0.738,0.271-1.08,0.83-1.08c0.287,0,0.531,0.117,0.64,0.306c0.081,0.135,0.106,0.306,0.106,0.63v2.16h1.088v-2.475
			c0-0.531-0.08-0.819-0.306-1.08c-0.26-0.296-0.674-0.467-1.133-0.467c-0.53,0-0.883,0.171-1.226,0.611v-0.485H235.771z
			 M234.087,43.817c-0.36,0-0.655,0.297-0.655,0.647c0,0.369,0.295,0.666,0.655,0.666s0.657-0.297,0.657-0.657
			C234.744,44.105,234.456,43.817,234.087,43.817 M234.627,46.12h-1.088v5.976h1.088V46.12z M229.912,49.424l-1.432,2.672h1.232
			l3.15-5.975h-1.252l-1.106,2.213l-1.17-2.213h-1.271L229.912,49.424z M227.514,46.229c-0.314-0.162-0.604-0.234-0.99-0.234
			c-1.215,0-2.142,0.908-2.142,2.096c0,1.162,0.927,2.052,2.132,2.052c0.36,0,0.648-0.063,1-0.243v-1.061
			c-0.298,0.234-0.55,0.324-0.883,0.324c-0.648,0-1.125-0.459-1.125-1.09c0-0.63,0.477-1.098,1.125-1.098
			c0.324,0,0.566,0.09,0.883,0.333V46.229L227.514,46.229z M221.379,46.975c0.613,0,1.09,0.486,1.09,1.107
			c0,0.586-0.494,1.081-1.09,1.081c-0.604,0-1.098-0.486-1.098-1.099C220.281,47.461,220.768,46.975,221.379,46.975 M222.352,46.121
			v0.503c-0.377-0.44-0.765-0.629-1.297-0.629c-1.07,0-1.896,0.899-1.896,2.069c0,1.189,0.816,2.079,1.916,2.079
			c0.541,0,0.928-0.189,1.277-0.629v0.503h1.088v-3.896H222.352z M215.874,43.277h-1.088v6.74h1.088v-1.556l0.117-0.118l1.458,1.674
			h1.503l-1.972-2.187l1.826-1.709h-1.476l-1.458,1.421L215.874,43.277L215.874,43.277z M213.1,43.817
			c-0.358,0-0.656,0.297-0.656,0.647c0,0.369,0.287,0.666,0.656,0.666c0.359,0,0.656-0.297,0.656-0.657
			C213.756,44.105,213.468,43.817,213.1,43.817 M213.639,46.121h-1.088v3.896h1.088V46.121z M207.658,46.121v3.896h1.088v-2.016
			c0-0.738,0.27-1.08,0.828-1.08c0.289,0,0.531,0.117,0.64,0.306c0.081,0.135,0.108,0.306,0.108,0.63v2.16h1.088v-2.475
			c0-0.531-0.081-0.819-0.307-1.08c-0.262-0.296-0.674-0.467-1.133-0.467c-0.533,0-0.884,0.171-1.226,0.611v-0.485H207.658z
			 M203.826,46.121h-1.088v2.385c0,1.053,0.674,1.637,1.889,1.637c1.206,0,1.881-0.584,1.881-1.637v-2.385h-1.088v2.205
			c0,0.585-0.271,0.891-0.793,0.891c-0.531,0-0.801-0.306-0.801-0.891V46.121L203.826,46.121z M195.538,46.121v3.896h1.088v-1.998
			c0-0.378,0.036-0.585,0.126-0.747c0.107-0.207,0.369-0.351,0.611-0.351c0.253,0,0.496,0.153,0.587,0.378
			c0.063,0.144,0.081,0.315,0.081,0.648v2.07h1.088v-1.998c0-0.342,0.035-0.54,0.117-0.711c0.117-0.243,0.359-0.387,0.639-0.387
			c0.252,0,0.451,0.126,0.55,0.342c0.072,0.162,0.091,0.306,0.091,0.621v2.133h1.088v-2.52c0-0.432-0.063-0.711-0.207-0.945
			c-0.207-0.341-0.621-0.557-1.088-0.557c-0.551,0-0.974,0.234-1.279,0.71c-0.297-0.494-0.676-0.71-1.215-0.71
			c-0.478,0-0.828,0.162-1.188,0.575v-0.449H195.538z M192.363,46.975c0.613,0,1.107,0.486,1.107,1.098
			c0,0.604-0.494,1.09-1.098,1.09c-0.621,0-1.107-0.486-1.107-1.108C191.266,47.47,191.77,46.975,192.363,46.975 M192.382,45.995
			c-1.305,0-2.241,0.854-2.241,2.042c0,1.252,0.9,2.106,2.205,2.106c1.332,0,2.25-0.845,2.25-2.079
			C194.596,46.84,193.688,45.995,192.382,45.995 M186.891,43.277h-1.089v6.74h1.089v-1.556l0.116-0.118l1.458,1.674h1.503
			l-1.971-2.187l1.827-1.709h-1.477l-1.457,1.421V43.277L186.891,43.277z M181.949,47.552c0.099-0.487,0.432-0.775,0.918-0.775
			s0.81,0.27,0.927,0.775H181.949z M184.838,48.244V48.1c0-1.305-0.756-2.105-1.998-2.105s-2.043,0.818-2.043,2.078
			c0,1.252,0.828,2.07,2.098,2.07c0.918,0,1.574-0.414,1.907-1.214l-1.008-0.163c-0.252,0.37-0.513,0.523-0.927,0.523
			c-0.594,0-0.928-0.369-0.954-1.045H184.838z M179.842,43.277h-1.088v6.74h1.088V43.277z M174.906,47.552
			c0.099-0.487,0.432-0.775,0.918-0.775s0.81,0.27,0.927,0.775H174.906z M177.795,48.244V48.1c0-1.305-0.756-2.105-1.998-2.105
			s-2.043,0.818-2.043,2.078c0,1.252,0.828,2.07,2.098,2.07c0.918,0,1.574-0.414,1.907-1.214l-1.008-0.163
			c-0.252,0.37-0.513,0.523-0.927,0.523c-0.594,0-0.928-0.369-0.954-1.045H177.795z M172.475,47.065h0.774v-0.944h-0.774v-1.332
			h-1.086v1.332h-0.433v0.944h0.433v2.952h1.086V47.065z M165.411,47.552c0.099-0.487,0.432-0.775,0.918-0.775
			c0.485,0,0.81,0.27,0.927,0.775H165.411z M168.3,48.244V48.1c0-1.305-0.756-2.105-1.998-2.105c-1.241,0-2.043,0.818-2.043,2.078
			c0,1.252,0.828,2.07,2.097,2.07c0.918,0,1.576-0.414,1.908-1.214l-1.008-0.163c-0.252,0.37-0.513,0.523-0.927,0.523
			c-0.595,0-0.927-0.369-0.954-1.045H168.3z M159.565,46.121v3.896h1.088v-2.016c0-0.738,0.27-1.08,0.829-1.08
			c0.288,0,0.531,0.117,0.639,0.306c0.081,0.135,0.108,0.306,0.108,0.63v2.16h1.088v-2.475c0-0.531-0.081-0.819-0.305-1.08
			c-0.261-0.296-0.675-0.467-1.134-0.467c-0.531,0-0.883,0.171-1.225,0.611v-0.485H159.565z M156.344,46.975
			c0.612,0,1.089,0.486,1.089,1.107c0,0.586-0.495,1.081-1.089,1.081c-0.603,0-1.099-0.486-1.099-1.099
			C155.245,47.461,155.732,46.975,156.344,46.975 M157.316,46.121v0.503c-0.378-0.44-0.765-0.629-1.296-0.629
			c-1.071,0-1.899,0.899-1.899,2.069c0,1.189,0.819,2.079,1.917,2.079c0.54,0,0.927-0.189,1.278-0.629v0.503h1.088v-3.896H157.316z
			 M151.105,46.975c0.612,0,1.089,0.486,1.089,1.107c0,0.586-0.495,1.081-1.089,1.081c-0.603,0-1.099-0.486-1.099-1.099
			C150.006,47.461,150.493,46.975,151.105,46.975 M152.078,43.277v3.347c-0.379-0.44-0.766-0.629-1.297-0.629
			c-1.071,0-1.898,0.899-1.898,2.069c0,1.189,0.818,2.079,1.916,2.079c0.54,0,0.927-0.189,1.279-0.629v0.503h1.087v-6.74H152.078z
			 M143.77,46.975c0.612,0,1.108,0.486,1.108,1.098c0,0.604-0.496,1.09-1.099,1.09c-0.621,0-1.107-0.486-1.107-1.108
			C142.672,47.47,143.176,46.975,143.77,46.975 M143.788,45.995c-1.305,0-2.24,0.854-2.24,2.042c0,1.252,0.899,2.106,2.204,2.106
			c1.332,0,2.25-0.845,2.25-2.079C146.002,46.84,145.093,45.995,143.788,45.995 M137.875,44.222l-0.791-0.504l-1.072,1.359
			l0.522,0.36L137.875,44.222z M134.708,46.121v3.896h1.088v-2.016c0-0.738,0.27-1.08,0.828-1.08c0.288,0,0.532,0.117,0.64,0.306
			c0.081,0.135,0.108,0.306,0.108,0.63v2.16h1.088v-2.475c0-0.531-0.081-0.819-0.306-1.08c-0.261-0.296-0.674-0.467-1.133-0.467
			c-0.532,0-0.883,0.171-1.225,0.611v-0.485H134.708z M131.454,46.975c0.612,0,1.089,0.486,1.089,1.107
			c0,0.586-0.495,1.081-1.089,1.081c-0.603,0-1.099-0.486-1.099-1.099C130.355,47.461,130.842,46.975,131.454,46.975
			 M132.426,46.121v0.503c-0.378-0.44-0.765-0.629-1.296-0.629c-1.071,0-1.899,0.899-1.899,2.069c0,1.189,0.819,2.079,1.917,2.079
			c0.54,0,0.927-0.189,1.278-0.629v0.503h1.088v-3.896H132.426z M127.961,47.065h0.774v-0.944h-0.774v-1.332h-1.087v1.332h-0.432
			v0.944h0.432v2.952h1.087V47.065z M123.027,49.424l-1.431,2.672h1.233l3.15-5.975h-1.251l-1.107,2.213l-1.17-2.213h-1.269
			L123.027,49.424z M118.688,46.975c0.612,0,1.098,0.486,1.098,1.107c0,0.586-0.495,1.081-1.089,1.081
			c-0.604,0-1.099-0.486-1.099-1.099C117.598,47.461,118.084,46.975,118.688,46.975 M117.715,52.096v-2.582
			c0.387,0.44,0.775,0.629,1.297,0.629c1.071,0,1.898-0.899,1.898-2.07c0-1.188-0.818-2.078-1.916-2.078
			c-0.54,0-0.928,0.189-1.279,0.629v-0.503h-1.088v5.975H117.715z M113.406,46.975c0.612,0,1.089,0.486,1.089,1.107
			c0,0.586-0.495,1.081-1.089,1.081c-0.604,0-1.099-0.486-1.099-1.099C112.307,47.461,112.793,46.975,113.406,46.975
			 M114.378,46.121v0.503c-0.378-0.44-0.765-0.629-1.296-0.629c-1.072,0-1.899,0.899-1.899,2.069c0,1.189,0.818,2.079,1.917,2.079
			c0.54,0,0.927-0.189,1.278-0.629v0.503h1.088v-3.896H114.378z M108.491,49.073l2.205-2.97h-3.789v0.944h1.872l-2.214,2.97h3.987
			v-0.944H108.491z M101.615,46.975c0.612,0,1.09,0.486,1.09,1.107c0,0.586-0.496,1.081-1.09,1.081
			c-0.603,0-1.098-0.486-1.098-1.099C100.517,47.461,101.003,46.975,101.615,46.975 M102.588,46.121v0.503
			c-0.379-0.44-0.766-0.629-1.297-0.629c-1.071,0-1.898,0.899-1.898,2.069c0,1.189,0.818,2.079,1.916,2.079
			c0.54,0,0.927-0.189,1.279-0.629v0.503h1.088v-3.896H102.588z M96.415,46.975c0.612,0,1.099,0.486,1.099,1.107
			c0,0.586-0.496,1.081-1.09,1.081c-0.603,0-1.098-0.486-1.098-1.099C95.326,47.461,95.812,46.975,96.415,46.975 M95.442,43.277
			h-1.087v6.74h1.087v-0.503c0.361,0.44,0.739,0.629,1.279,0.629c1.098,0,1.916-0.89,1.916-2.088c0-1.161-0.818-2.06-1.898-2.06
			c-0.522,0-0.909,0.189-1.297,0.629V43.277z M91.408,49.073l2.205-2.97h-3.789v0.944h1.872l-2.214,2.97h3.987v-0.944H91.408z
			 M88.859,46.229c-0.315-0.162-0.603-0.234-0.99-0.234c-1.215,0-2.141,0.908-2.141,2.096c0,1.162,0.926,2.052,2.132,2.052
			c0.36,0,0.648-0.063,0.999-0.243v-1.061c-0.297,0.234-0.549,0.324-0.882,0.324c-0.648,0-1.125-0.459-1.125-1.09
			c0-0.63,0.477-1.098,1.125-1.098c0.324,0,0.567,0.09,0.882,0.333V46.229z M84.288,43.817c-0.36,0-0.657,0.297-0.657,0.647
			c0,0.369,0.288,0.666,0.657,0.666c0.36,0,0.656-0.297,0.656-0.657C84.944,44.105,84.656,43.817,84.288,43.817 M84.827,46.121
			h-1.088v3.896h1.088V46.121z M82.593,43.277h-1.088v6.74h1.088V43.277z M76.149,46.975c0.613,0,1.09,0.486,1.09,1.107
			c0,0.586-0.495,1.081-1.09,1.081c-0.603,0-1.098-0.486-1.098-1.099C75.051,47.461,75.537,46.975,76.149,46.975 M77.122,46.121
			v0.503c-0.378-0.44-0.766-0.629-1.297-0.629c-1.071,0-1.898,0.899-1.898,2.069c0,1.189,0.818,2.079,1.916,2.079
			c0.54,0,0.928-0.189,1.279-0.629v0.503h1.088v-3.896H77.122z M69.233,46.121v3.896h1.087v-2.016c0-0.738,0.271-1.08,0.829-1.08
			c0.288,0,0.531,0.117,0.639,0.306c0.082,0.135,0.109,0.306,0.109,0.63v2.16h1.087v-2.475c0-0.531-0.08-0.819-0.305-1.08
			c-0.261-0.296-0.675-0.467-1.134-0.467c-0.531,0-0.882,0.171-1.225,0.611v-0.485H69.233z M66.286,49.073l2.205-2.97h-3.789v0.944
			h1.872l-2.214,2.97h3.987v-0.944H66.286z M63.737,46.229c-0.315-0.162-0.603-0.234-0.99-0.234c-1.215,0-2.141,0.908-2.141,2.096
			c0,1.162,0.926,2.052,2.132,2.052c0.36,0,0.648-0.063,0.999-0.243v-1.061c-0.297,0.234-0.549,0.324-0.882,0.324
			c-0.648,0-1.125-0.459-1.125-1.09c0-0.63,0.477-1.098,1.125-1.098c0.324,0,0.567,0.09,0.882,0.333V46.229z M57.584,46.975
			c0.612,0,1.089,0.486,1.089,1.107c0,0.586-0.495,1.081-1.089,1.081c-0.604,0-1.099-0.486-1.099-1.099
			C56.485,47.461,56.971,46.975,57.584,46.975 M58.556,46.121v0.503c-0.378-0.44-0.765-0.629-1.296-0.629
			c-1.072,0-1.899,0.899-1.899,2.069c0,1.189,0.818,2.079,1.917,2.079c0.54,0,0.927-0.189,1.278-0.629v0.503h0.567
			c-0.261,0.144-0.36,0.216-0.468,0.333c-0.153,0.171-0.252,0.424-0.252,0.649c0,0.377,0.351,0.683,0.791,0.683
			c0.225,0,0.414-0.054,0.576-0.153l0.135-0.602c-0.162,0.081-0.297,0.117-0.432,0.117c-0.225,0-0.387-0.153-0.387-0.36
			c0-0.217,0.108-0.361,0.441-0.586c0.027-0.018,0.072-0.054,0.117-0.081v-3.896H58.556z M52.869,44.015H51.7v2.582l-0.639,0.433
			v1.035l0.639-0.441v2.393h3.032v-1.016h-1.863v-2.007l1.107-0.739V45.22l-1.107,0.747V44.015z"/>
	</g>
</g>
<rect x="43.02" y="40.185" fill="none" stroke="#1A171B" width="245.866" height="13.74"/>
</svg>
