<?xml version="1.0" encoding="utf-8"?>
<!-- Generator: Adobe Illustrator 13.0.0, SVG Export Plug-In . SVG Version: 6.00 Build 14948)  -->
<!DOCTYPE svg PUBLIC "-//W3C//DTD SVG 1.1//EN" "http://www.w3.org/Graphics/SVG/1.1/DTD/svg11.dtd">
<svg version="1.1" id="Layer_1" xmlns="http://www.w3.org/2000/svg" xmlns:xlink="http://www.w3.org/1999/xlink" x="0px" y="0px"
	 width="348px" height="307px" viewBox="25 109 348 307" enable-background="new 25 109 348 307" xml:space="preserve">
<g>
	<g>
		<defs>
			<rect id="SVGID_1_" width="419.528" height="595.276"/>
		</defs>
		<clipPath id="SVGID_2_">
			<use xlink:href="#SVGID_1_"  overflow="visible"/>
		</clipPath>
		<path clip-path="url(#SVGID_2_)" fill="#1A171B" d="M202.186,23.874c0.482,0,0.854,0.385,0.854,0.883
			c0,0.476-0.385,0.861-0.854,0.861c-0.49,0-0.869-0.385-0.869-0.875C201.316,24.259,201.702,23.874,202.186,23.874 M202.416,21.362
			l-1.421,1.897c-0.386,0.51-0.588,1.028-0.588,1.477c0,0.938,0.735,1.602,1.764,1.602c1.05,0,1.777-0.671,1.777-1.651
			c0-0.869-0.636-1.54-1.448-1.54c-0.203,0-0.322,0.028-0.546,0.119l1.106-1.421L202.416,21.362z"/>
	</g>
</g>
<path fill="none" stroke="#1A171B" stroke-width="0.25" stroke-miterlimit="10" d="M50.194,183.775h299.187 M50.122,331.402h299.206
	 M50.124,232.996H349.31 M48.671,281.906h301.354 M50.194,159.458h299.187 M50.122,307.085h299.206 M50.124,208.68H349.31
	 M48.671,257.589h301.354"/>
<line fill="none" stroke="#1A171B" stroke-width="0.25" stroke-miterlimit="10" x1="48.671" y1="356.261" x2="349.413" y2="356.261"/>
<path fill="#1A171B" d="M48.945,362.666c0.294-0.05,0.679-0.092,1.17-0.092c0.602,0,1.043,0.141,1.323,0.393
	c0.259,0.225,0.414,0.567,0.414,0.987c0,0.428-0.126,0.764-0.364,1.009c-0.322,0.344-0.848,0.52-1.443,0.52
	c-0.182,0-0.35-0.008-0.49-0.043v1.892h-0.609L48.945,362.666L48.945,362.666z M49.555,364.941c0.133,0.035,0.301,0.05,0.504,0.05
	c0.735,0,1.184-0.357,1.184-1.009c0-0.623-0.441-0.926-1.114-0.926c-0.266,0-0.469,0.021-0.574,0.049V364.941z"/>
<path fill="#1A171B" d="M55.59,365.607c0,1.252-0.869,1.8-1.688,1.8c-0.917,0-1.625-0.673-1.625-1.744c0-1.136,0.742-1.8,1.681-1.8
	C54.932,363.863,55.59,364.57,55.59,365.607z M52.901,365.643c0,0.741,0.427,1.303,1.029,1.303c0.588,0,1.03-0.555,1.03-1.317
	c0-0.573-0.287-1.303-1.016-1.303S52.901,364.998,52.901,365.643z"/>
<path fill="#1A171B" d="M56.365,362.357h0.616v4.973h-0.616V362.357z"/>
<path fill="#1A171B" d="M58.704,362.986c0.007,0.212-0.147,0.38-0.392,0.38c-0.217,0-0.372-0.168-0.372-0.38
	c0-0.217,0.161-0.385,0.385-0.385C58.557,362.602,58.704,362.77,58.704,362.986z M58.018,367.33v-3.391h0.616v3.391H58.018z"/>
<path fill="#1A171B" d="M62.072,367.204c-0.161,0.084-0.519,0.203-0.974,0.203c-1.022,0-1.688-0.7-1.688-1.737
	c0-1.043,0.714-1.8,1.821-1.8c0.364,0,0.687,0.091,0.854,0.175l-0.14,0.477c-0.147-0.084-0.378-0.16-0.714-0.16
	c-0.777,0-1.197,0.574-1.197,1.281c0,0.784,0.504,1.269,1.176,1.269c0.351,0,0.582-0.093,0.757-0.168L62.072,367.204z"/>
<path fill="#1A171B" d="M61.965,368.324c0.28-0.021,0.525-0.098,0.672-0.26c0.168-0.188,0.231-0.461,0.231-1.273v-2.852h0.616v3.09
	c0,0.658-0.105,1.084-0.406,1.394c-0.273,0.272-0.721,0.386-1.05,0.386L61.965,368.324z M63.555,362.986
	c0.007,0.203-0.14,0.38-0.385,0.38c-0.231,0-0.378-0.177-0.378-0.38c0-0.217,0.161-0.385,0.392-0.385
	C63.408,362.602,63.555,362.77,63.555,362.986z"/>
<path fill="#1A171B" d="M66.754,366.518c0,0.293,0.014,0.58,0.056,0.812h-0.56l-0.049-0.427H66.18
	c-0.189,0.266-0.553,0.504-1.037,0.504c-0.687,0-1.037-0.483-1.037-0.975c0-0.818,0.729-1.268,2.038-1.261v-0.069
	c0-0.281-0.077-0.785-0.771-0.785c-0.315,0-0.644,0.099-0.882,0.252l-0.14-0.405c0.28-0.183,0.687-0.302,1.114-0.302
	c1.037,0,1.289,0.707,1.289,1.388V366.518z M66.159,365.6c-0.672-0.015-1.436,0.104-1.436,0.764c0,0.398,0.266,0.589,0.582,0.589
	c0.441,0,0.721-0.28,0.819-0.567c0.021-0.063,0.035-0.133,0.035-0.195V365.6z"/>
<g>
	<g>
		<defs>
			<rect id="SVGID_3_" width="419.528" height="595.276"/>
		</defs>
		<clipPath id="SVGID_4_">
			<use xlink:href="#SVGID_3_"  overflow="visible"/>
		</clipPath>
		<path clip-path="url(#SVGID_4_)" fill="#1A171B" d="M114.488,363.632c-0.245-0.272-0.462-0.378-0.756-0.378
			c-0.371,0-0.658,0.23-0.658,0.52c0,0.252,0.16,0.384,0.707,0.588c0.511,0.188,0.722,0.287,0.932,0.469
			c0.272,0.232,0.413,0.568,0.413,0.98c0,0.918-0.659,1.541-1.625,1.541c-0.68,0-1.184-0.281-1.604-0.89l0.588-0.567
			c0.21,0.399,0.561,0.623,0.981,0.623c0.419,0,0.721-0.272,0.721-0.658c0-0.188-0.084-0.35-0.252-0.469
			c-0.092-0.063-0.273-0.141-0.651-0.279c-0.841-0.31-1.149-0.646-1.149-1.262c0-0.783,0.617-1.359,1.457-1.359
			c0.511,0,0.98,0.177,1.373,0.52L114.488,363.632z"/>
	</g>
</g>
<polygon fill="#1A171B" points="116.742,367.24 115.894,367.24 115.894,364.943 115.558,364.943 115.558,364.208 115.894,364.208 
	115.894,363.17 116.742,363.17 116.742,364.208 117.345,364.208 117.345,364.943 116.742,364.943 "/>
<g>
	<g>
		<defs>
			<rect id="SVGID_5_" width="419.528" height="595.276"/>
		</defs>
		<clipPath id="SVGID_6_">
			<use xlink:href="#SVGID_5_"  overflow="visible"/>
		</clipPath>
		<path clip-path="url(#SVGID_6_)" fill="#1A171B" d="M118.681,364.208v0.462c0.217-0.386,0.497-0.563,0.882-0.563
			c0.134,0,0.218,0.017,0.372,0.078l-0.119,0.791c-0.155-0.084-0.239-0.104-0.406-0.104c-0.232,0-0.414,0.077-0.541,0.217
			c-0.139,0.161-0.188,0.35-0.188,0.693v1.457h-0.848v-3.032H118.681L118.681,364.208z"/>
	</g>
	<g>
		<defs>
			<rect id="SVGID_7_" width="419.528" height="595.276"/>
		</defs>
		<clipPath id="SVGID_8_">
			<use xlink:href="#SVGID_7_"  overflow="visible"/>
		</clipPath>
		<path clip-path="url(#SVGID_8_)" fill="#1A171B" d="M121.039,365.721c0,0.475,0.386,0.854,0.855,0.854
			c0.462,0,0.847-0.387,0.847-0.842c0-0.482-0.371-0.86-0.847-0.86C121.418,364.873,121.039,365.25,121.039,365.721
			 M123.499,364.208v3.032h-0.848v-0.393c-0.273,0.342-0.574,0.489-0.994,0.489c-0.854,0-1.492-0.692-1.492-1.616
			c0-0.912,0.645-1.613,1.478-1.613c0.413,0,0.714,0.148,1.008,0.492v-0.393L123.499,364.208L123.499,364.208z"/>
	</g>
	<g>
		<defs>
			<rect id="SVGID_9_" width="419.528" height="595.276"/>
		</defs>
		<clipPath id="SVGID_10_">
			<use xlink:href="#SVGID_9_"  overflow="visible"/>
		</clipPath>
		<path clip-path="url(#SVGID_10_)" fill="#1A171B" d="M126.248,363.107c0,0.293-0.238,0.533-0.525,0.533
			c-0.295,0-0.532-0.24-0.532-0.541c0-0.279,0.237-0.518,0.532-0.518C126.01,362.583,126.248,362.82,126.248,363.107
			 M127.095,366.504v0.734h-3.103l1.724-2.312h-1.457v-0.735h2.948l-1.716,2.312L127.095,366.504L127.095,366.504z"/>
	</g>
	<g>
		<defs>
			<rect id="SVGID_11_" width="419.528" height="595.276"/>
		</defs>
		<clipPath id="SVGID_12_">
			<use xlink:href="#SVGID_11_"  overflow="visible"/>
		</clipPath>
		<path clip-path="url(#SVGID_12_)" fill="#1A171B" d="M112.788,374.121c0,0.475,0.384,0.854,0.853,0.854
			c0.463,0,0.848-0.385,0.848-0.841c0-0.481-0.378-0.86-0.848-0.86C113.166,373.273,112.788,373.65,112.788,374.121 M115.23,375.527
			c0,0.625-0.076,0.902-0.343,1.205c-0.294,0.351-0.742,0.531-1.274,0.531c-0.616,0-1.079-0.216-1.394-0.664
			c-0.147-0.211-0.203-0.356-0.231-0.603h0.925c0.084,0.356,0.329,0.546,0.713,0.546c0.217,0,0.428-0.084,0.568-0.225
			c0.119-0.125,0.189-0.344,0.189-0.631v-0.455c-0.315,0.363-0.602,0.504-1.03,0.504c-0.833,0-1.442-0.657-1.442-1.574
			c0-0.953,0.63-1.654,1.484-1.654c0.421,0,0.701,0.143,0.988,0.491v-0.392h0.847V375.527z"/>
	</g>
	<g>
		<defs>
			<rect id="SVGID_13_" width="419.528" height="595.276"/>
		</defs>
		<clipPath id="SVGID_14_">
			<use xlink:href="#SVGID_13_"  overflow="visible"/>
		</clipPath>
		<path clip-path="url(#SVGID_14_)" fill="#1A171B" d="M116.924,372.607v0.463c0.217-0.387,0.497-0.563,0.882-0.563
			c0.134,0,0.218,0.016,0.372,0.078l-0.119,0.791c-0.155-0.084-0.239-0.104-0.406-0.104c-0.232,0-0.415,0.076-0.541,0.217
			c-0.139,0.16-0.188,0.35-0.188,0.693v1.457h-0.848v-3.033H116.924L116.924,372.607z"/>
	</g>
	<g>
		<defs>
			<rect id="SVGID_15_" width="419.528" height="595.276"/>
		</defs>
		<clipPath id="SVGID_16_">
			<use xlink:href="#SVGID_15_"  overflow="visible"/>
		</clipPath>
		<path clip-path="url(#SVGID_16_)" fill="#1A171B" d="M119.284,374.121c0,0.475,0.385,0.854,0.854,0.854
			c0.462,0,0.847-0.387,0.847-0.842c0-0.482-0.371-0.859-0.847-0.859C119.662,373.273,119.284,373.65,119.284,374.121
			 M121.742,372.607v3.033h-0.848v-0.394c-0.273,0.343-0.574,0.489-0.994,0.489c-0.854,0-1.492-0.692-1.492-1.616
			c0-0.911,0.645-1.612,1.478-1.612c0.413,0,0.714,0.148,1.008,0.491v-0.392H121.742L121.742,372.607z"/>
	</g>
	<g>
		<defs>
			<rect id="SVGID_17_" width="419.528" height="595.276"/>
		</defs>
		<clipPath id="SVGID_18_">
			<use xlink:href="#SVGID_17_"  overflow="visible"/>
		</clipPath>
		<path clip-path="url(#SVGID_18_)" fill="#1A171B" d="M123.399,372.607v0.379c0.266-0.344,0.539-0.479,0.952-0.479
			c0.358,0,0.68,0.135,0.883,0.365c0.175,0.203,0.238,0.427,0.238,0.84v1.928h-0.847v-1.682c0-0.252-0.022-0.386-0.084-0.491
			c-0.084-0.146-0.274-0.237-0.497-0.237c-0.435,0-0.645,0.267-0.645,0.842v1.568h-0.848v-3.033H123.399L123.399,372.607z"/>
	</g>
	<g>
		<defs>
			<rect id="SVGID_19_" width="419.528" height="595.276"/>
		</defs>
		<clipPath id="SVGID_20_">
			<use xlink:href="#SVGID_19_"  overflow="visible"/>
		</clipPath>
		<path clip-path="url(#SVGID_20_)" fill="#1A171B" d="M127.115,375.639h-0.847v-3.031h0.847V375.639z M127.208,371.326
			c0,0.279-0.231,0.512-0.512,0.512c-0.287,0-0.51-0.23-0.51-0.52c0-0.272,0.23-0.504,0.51-0.504
			C126.982,370.814,127.208,371.039,127.208,371.326"/>
	</g>
	<g>
		<defs>
			<rect id="SVGID_21_" width="419.528" height="595.276"/>
		</defs>
		<clipPath id="SVGID_22_">
			<use xlink:href="#SVGID_21_"  overflow="visible"/>
		</clipPath>
		<path clip-path="url(#SVGID_22_)" fill="#1A171B" d="M130.189,373.532c-0.245-0.188-0.435-0.259-0.687-0.259
			c-0.503,0-0.876,0.363-0.876,0.854s0.373,0.848,0.876,0.848c0.259,0,0.456-0.07,0.687-0.254v0.828
			c-0.273,0.141-0.497,0.188-0.777,0.188c-0.939,0-1.661-0.692-1.661-1.598c0-0.923,0.722-1.631,1.667-1.631
			c0.301,0,0.526,0.057,0.771,0.184V373.532z"/>
	</g>
</g>
<polygon fill="#1A171B" points="133.62,374.904 133.62,375.639 130.517,375.639 132.24,373.329 130.783,373.329 130.783,372.592 
	133.731,372.592 132.016,374.904 "/>
<g>
	<g>
		<defs>
			<rect id="SVGID_23_" width="419.528" height="595.276"/>
		</defs>
		<clipPath id="SVGID_24_">
			<use xlink:href="#SVGID_23_"  overflow="visible"/>
		</clipPath>
		<path clip-path="url(#SVGID_24_)" fill="#1A171B" d="M135.075,372.607v0.379c0.266-0.344,0.539-0.479,0.952-0.479
			c0.358,0,0.68,0.135,0.883,0.365c0.175,0.203,0.238,0.427,0.238,0.84v1.928H136.3v-1.682c0-0.252-0.022-0.386-0.084-0.491
			c-0.084-0.146-0.274-0.237-0.497-0.237c-0.435,0-0.645,0.267-0.645,0.842v1.568h-0.848v-3.033H135.075L135.075,372.607z"/>
	</g>
	<g>
		<defs>
			<rect id="SVGID_25_" width="419.528" height="595.276"/>
		</defs>
		<clipPath id="SVGID_26_">
			<use xlink:href="#SVGID_25_"  overflow="visible"/>
		</clipPath>
		<path clip-path="url(#SVGID_26_)" fill="#1A171B" d="M138.672,374.121c0,0.475,0.385,0.854,0.854,0.854
			c0.462,0,0.847-0.387,0.847-0.842c0-0.482-0.371-0.859-0.847-0.859S138.672,373.65,138.672,374.121 M141.13,372.607v3.033h-0.848
			v-0.394c-0.273,0.343-0.574,0.489-0.994,0.489c-0.854,0-1.492-0.692-1.492-1.616c0-0.911,0.645-1.612,1.478-1.612
			c0.413,0,0.714,0.148,1.008,0.491v-0.392H141.13L141.13,372.607z"/>
	</g>
</g>
<path fill="#1A171B" d="M178.954,367.417c-0.224,0.112-0.672,0.231-1.247,0.231c-1.331,0-2.333-0.849-2.333-2.396
	c0-1.479,1.002-2.479,2.465-2.479c0.588,0,0.959,0.125,1.121,0.209l-0.147,0.498c-0.23-0.111-0.56-0.195-0.953-0.195
	c-1.105,0-1.842,0.707-1.842,1.947c0,1.154,0.666,1.896,1.814,1.896c0.371,0,0.75-0.077,0.995-0.195L178.954,367.417z"/>
<path fill="#1A171B" d="M179.715,362.914c0.266-0.057,0.688-0.1,1.114-0.1c0.608,0,1.001,0.105,1.295,0.345
	c0.245,0.182,0.394,0.462,0.394,0.833c0,0.455-0.302,0.854-0.8,1.037v0.014c0.448,0.111,0.974,0.482,0.974,1.184
	c0,0.406-0.16,0.715-0.398,0.945c-0.33,0.303-0.861,0.441-1.632,0.441c-0.42,0-0.743-0.028-0.946-0.057V362.914z M180.325,364.846
	h0.553c0.646,0,1.022-0.336,1.022-0.791c0-0.554-0.42-0.771-1.037-0.771c-0.279,0-0.44,0.021-0.539,0.042L180.325,364.846
	L180.325,364.846z M180.325,367.109c0.118,0.021,0.294,0.027,0.511,0.027c0.63,0,1.212-0.23,1.212-0.918
	c0-0.645-0.554-0.91-1.219-0.91h-0.504V367.109L180.325,367.109z"/>
<path fill="#1A171B" d="M184.561,366.086l-0.49,1.484h-0.631l1.604-4.721h0.735l1.611,4.721h-0.652l-0.504-1.484H184.561z
	 M186.107,365.609l-0.463-1.357c-0.104-0.309-0.174-0.589-0.244-0.861h-0.015c-0.069,0.279-0.147,0.566-0.237,0.854l-0.463,1.365
	H186.107z"/>
<path fill="#1A171B" d="M302.789,362.787v4.721h-0.609v-4.721H302.789z"/>
<path fill="#1A171B" d="M303.832,365.035c0-0.35-0.008-0.637-0.028-0.917h0.546l0.035,0.562h0.015
	c0.169-0.322,0.561-0.639,1.12-0.639c0.47,0,1.197,0.279,1.197,1.441v2.024h-0.616v-1.954c0-0.546-0.202-1.002-0.783-1.002
	c-0.406,0-0.723,0.288-0.826,0.631c-0.028,0.077-0.042,0.182-0.042,0.287v2.038h-0.616L303.832,365.035L303.832,365.035z"/>
<path fill="#1A171B" d="M307.717,365.035c0-0.35-0.008-0.637-0.027-0.917h0.546l0.034,0.562h0.015
	c0.169-0.322,0.561-0.639,1.121-0.639c0.469,0,1.196,0.279,1.196,1.441v2.024h-0.615v-1.954c0-0.546-0.203-1.002-0.784-1.002
	c-0.406,0-0.722,0.288-0.826,0.631c-0.028,0.077-0.042,0.182-0.042,0.287v2.038h-0.616L307.717,365.035L307.717,365.035z"/>
<path fill="#1A171B" d="M311.945,365.924c0.014,0.834,0.546,1.178,1.162,1.178c0.44,0,0.708-0.078,0.938-0.176l0.104,0.441
	c-0.218,0.098-0.589,0.217-1.128,0.217c-1.044,0-1.666-0.693-1.666-1.716s0.602-1.828,1.59-1.828c1.105,0,1.399,0.974,1.399,1.597
	c0,0.127-0.014,0.225-0.021,0.287H311.945z M313.752,365.482c0.007-0.392-0.161-1-0.854-1c-0.623,0-0.896,0.574-0.945,1H313.752z"/>
<path fill="#1A171B" d="M360.002,356.257c0,1.548-0.574,2.402-1.583,2.402c-0.89,0-1.491-0.834-1.506-2.341
	c0-1.525,0.658-2.366,1.583-2.366C359.456,353.953,360.002,354.807,360.002,356.257z M357.529,356.328
	c0,1.184,0.363,1.855,0.925,1.855c0.63,0,0.932-0.735,0.932-1.897c0-1.121-0.287-1.856-0.925-1.856
	C357.922,354.43,357.529,355.087,357.529,356.328z"/>
<path fill="#1A171B" d="M356.977,309.639v-0.379l0.483-0.47c1.162-1.106,1.688-1.694,1.694-2.381c0-0.464-0.225-0.89-0.903-0.89
	c-0.413,0-0.757,0.209-0.967,0.385l-0.196-0.434c0.315-0.268,0.764-0.464,1.289-0.464c0.98,0,1.394,0.673,1.394,1.324
	c0,0.841-0.608,1.521-1.567,2.444l-0.364,0.336v0.014h2.045v0.512h-2.907V309.639z"/>
<path fill="#1A171B" d="M363.971,307.313c0,1.549-0.573,2.402-1.583,2.402c-0.89,0-1.49-0.834-1.506-2.34
	c0-1.525,0.658-2.367,1.583-2.367C363.425,305.008,363.971,305.863,363.971,307.313z M361.498,307.383
	c0,1.184,0.364,1.855,0.925,1.855c0.63,0,0.933-0.735,0.933-1.897c0-1.12-0.287-1.856-0.926-1.856
	C361.891,305.484,361.498,306.143,361.498,307.383z"/>
<path fill="#1A171B" d="M358.881,260.429v-1.239h-2.114v-0.406l2.03-2.906h0.666v2.829h0.637v0.483h-0.637v1.239H358.881z
	 M358.881,258.706v-1.521c0-0.237,0.008-0.477,0.021-0.713h-0.021c-0.14,0.266-0.252,0.461-0.378,0.672l-1.113,1.547v0.015H358.881
	L358.881,258.706z"/>
<path fill="#1A171B" d="M363.971,258.104c0,1.549-0.573,2.402-1.583,2.402c-0.89,0-1.49-0.833-1.506-2.339
	c0-1.526,0.658-2.367,1.583-2.367C363.425,255.799,363.971,256.654,363.971,258.104z M361.498,258.173
	c0,1.185,0.364,1.856,0.925,1.856c0.63,0,0.933-0.735,0.933-1.898c0-1.121-0.287-1.855-0.926-1.855
	C361.891,256.275,361.498,256.934,361.498,258.173z"/>
<path fill="#1A171B" d="M359.574,207.115c-0.126-0.008-0.287,0-0.462,0.027c-0.968,0.162-1.479,0.869-1.583,1.618h0.021
	c0.217-0.286,0.595-0.524,1.101-0.524c0.806,0,1.373,0.58,1.373,1.471c0,0.833-0.567,1.604-1.515,1.604
	c-0.974,0-1.609-0.756-1.609-1.939c0-0.896,0.321-1.604,0.771-2.053c0.378-0.37,0.882-0.603,1.457-0.672
	c0.182-0.027,0.336-0.035,0.447-0.035V207.115L359.574,207.115z M358.518,210.833c0.524,0,0.883-0.44,0.883-1.092
	s-0.371-1.043-0.938-1.043c-0.371,0-0.714,0.231-0.882,0.56c-0.043,0.07-0.07,0.161-0.07,0.273c0.015,0.75,0.357,1.303,1.001,1.303
	L358.518,210.833L358.518,210.833z"/>
<path fill="#1A171B" d="M363.971,208.908c0,1.548-0.573,2.402-1.583,2.402c-0.89,0-1.49-0.834-1.506-2.34
	c0-1.527,0.658-2.367,1.583-2.367C363.425,206.604,363.971,207.458,363.971,208.908z M361.498,208.979
	c0,1.184,0.364,1.855,0.925,1.855c0.63,0,0.933-0.734,0.933-1.898c0-1.121-0.287-1.855-0.926-1.855
	C361.891,207.08,361.498,207.738,361.498,208.979z"/>
<path fill="#1A171B" d="M357.816,159.613c-0.504-0.238-0.722-0.631-0.722-1.022c0-0.721,0.609-1.211,1.407-1.211
	c0.883,0,1.324,0.554,1.324,1.121c0,0.385-0.189,0.798-0.75,1.063v0.021c0.566,0.225,0.918,0.624,0.918,1.178
	c0,0.791-0.68,1.323-1.548,1.323c-0.953,0-1.527-0.567-1.527-1.233c0-0.573,0.344-0.979,0.904-1.219L357.816,159.613z
	 M359.372,160.825c0-0.554-0.386-0.819-1.002-0.995c-0.532,0.154-0.819,0.504-0.819,0.938c-0.021,0.463,0.329,0.869,0.91,0.869
	C359.015,161.639,359.372,161.288,359.372,160.825z M357.677,158.549c0,0.456,0.343,0.701,0.868,0.84
	c0.394-0.133,0.693-0.412,0.693-0.826c0-0.363-0.217-0.742-0.771-0.742C357.957,157.82,357.677,158.157,357.677,158.549z"/>
<path fill="#1A171B" d="M363.971,159.684c0,1.549-0.573,2.402-1.583,2.402c-0.89,0-1.49-0.833-1.506-2.339
	c0-1.527,0.658-2.367,1.583-2.367C363.425,157.379,363.971,158.234,363.971,159.684z M361.498,159.753
	c0,1.185,0.364,1.856,0.925,1.856c0.63,0,0.933-0.735,0.933-1.898c0-1.121-0.287-1.855-0.926-1.855
	C361.891,157.855,361.498,158.514,361.498,159.753z"/>
<path fill="#1A171B" d="M239.622,365.918l-0.49,1.484h-0.631l1.604-4.721h0.734l1.61,4.721h-0.65l-0.504-1.484H239.622z
	 M241.17,365.441l-0.463-1.357c-0.104-0.309-0.175-0.589-0.245-0.861h-0.014c-0.07,0.279-0.147,0.566-0.238,0.854l-0.462,1.365
	H241.17z"/>
<path fill="#1A171B" d="M243.143,362.746c0.268-0.057,0.688-0.1,1.113-0.1c0.609,0,1.002,0.105,1.297,0.345
	c0.244,0.182,0.393,0.462,0.393,0.833c0,0.455-0.303,0.854-0.799,1.037v0.014c0.447,0.111,0.974,0.482,0.974,1.184
	c0,0.406-0.161,0.715-0.399,0.945c-0.328,0.303-0.861,0.441-1.632,0.441c-0.42,0-0.741-0.028-0.944-0.057v-4.643H243.143z
	 M243.752,364.678h0.555c0.644,0,1.021-0.336,1.021-0.791c0-0.554-0.421-0.771-1.037-0.771c-0.279,0-0.441,0.021-0.539,0.042
	V364.678z M243.752,366.941c0.119,0.021,0.294,0.026,0.512,0.026c0.631,0,1.211-0.229,1.211-0.917c0-0.645-0.553-0.91-1.219-0.91
	h-0.504V366.941z"/>
<path fill="#1A171B" d="M248.211,367.402l-1.197-4.721h0.645l0.561,2.389c0.141,0.589,0.268,1.178,0.352,1.633h0.014
	c0.077-0.471,0.225-1.029,0.387-1.639l0.629-2.383h0.639l0.574,2.396c0.133,0.561,0.258,1.12,0.328,1.617h0.015
	c0.099-0.519,0.231-1.043,0.378-1.631l0.624-2.383h0.623l-1.339,4.721h-0.637l-0.596-2.457c-0.146-0.604-0.245-1.064-0.309-1.541
	h-0.014c-0.085,0.469-0.189,0.932-0.365,1.541l-0.672,2.457H248.211L248.211,367.402z"/>
<path fill="#1A171B" d="M358.311,329.508h-0.015l-0.791,0.428l-0.119-0.47l0.994-0.532h0.525v4.553h-0.596L358.311,329.508
	L358.311,329.508z"/>
<path fill="#1A171B" d="M363.967,331.162c0,1.548-0.574,2.402-1.583,2.402c-0.89,0-1.491-0.834-1.506-2.34
	c0-1.526,0.658-2.367,1.583-2.367C363.421,328.857,363.967,329.711,363.967,331.162z M361.494,331.232
	c0,1.184,0.364,1.854,0.925,1.854c0.63,0,0.932-0.735,0.932-1.897c0-1.121-0.286-1.855-0.925-1.855
	C361.887,329.333,361.494,329.992,361.494,331.232z"/>
<path fill="#1A171B" d="M357.119,283.568c0.176,0.113,0.582,0.287,1.009,0.287c0.792,0,1.037-0.504,1.029-0.881
	c-0.007-0.638-0.581-0.912-1.177-0.912h-0.344v-0.461h0.344c0.447,0,1.016-0.231,1.016-0.771c0-0.364-0.23-0.688-0.798-0.688
	c-0.364,0-0.715,0.161-0.911,0.301l-0.16-0.447c0.237-0.176,0.7-0.35,1.19-0.35c0.896,0,1.303,0.531,1.303,1.084
	c0,0.47-0.28,0.869-0.841,1.072v0.014c0.561,0.112,1.016,0.533,1.016,1.17c0,0.729-0.567,1.367-1.66,1.367
	c-0.511,0-0.959-0.162-1.184-0.309L357.119,283.568z"/>
<path fill="#1A171B" d="M363.967,281.952c0,1.548-0.574,2.401-1.583,2.401c-0.89,0-1.491-0.832-1.506-2.338
	c0-1.527,0.658-2.367,1.583-2.367C363.421,279.646,363.967,280.502,363.967,281.952z M361.494,282.021
	c0,1.184,0.364,1.855,0.925,1.855c0.63,0,0.932-0.734,0.932-1.898c0-1.121-0.286-1.855-0.925-1.855
	C361.887,280.124,361.494,280.782,361.494,282.021z"/>
<path fill="#1A171B" d="M359.689,231.046h-1.736l-0.176,1.169c0.104-0.014,0.203-0.027,0.372-0.027c0.35,0,0.699,0.076,0.979,0.244
	c0.356,0.203,0.651,0.596,0.651,1.17c0,0.89-0.708,1.555-1.695,1.555c-0.497,0-0.917-0.141-1.135-0.28l0.153-0.469
	c0.189,0.112,0.562,0.252,0.975,0.252c0.581,0,1.078-0.378,1.078-0.987c-0.007-0.588-0.398-1.009-1.311-1.009
	c-0.259,0-0.462,0.028-0.63,0.049l0.294-2.185h2.179L359.689,231.046L359.689,231.046z"/>
<path fill="#1A171B" d="M363.967,232.755c0,1.548-0.574,2.402-1.583,2.402c-0.89,0-1.491-0.833-1.506-2.339
	c0-1.527,0.658-2.367,1.583-2.367C363.421,230.451,363.967,231.307,363.967,232.755z M361.494,232.825
	c0,1.184,0.364,1.856,0.925,1.856c0.63,0,0.932-0.736,0.932-1.898c0-1.121-0.286-1.856-0.925-1.856
	C361.887,230.927,361.494,231.585,361.494,232.825z"/>
<path fill="#1A171B" d="M359.928,181.313v0.405l-1.98,4.146h-0.639l1.976-4.027v-0.014h-2.228v-0.511H359.928z"/>
<path fill="#1A171B" d="M363.967,183.539c0,1.548-0.574,2.402-1.583,2.402c-0.89,0-1.491-0.834-1.506-2.34
	c0-1.526,0.658-2.367,1.583-2.367C363.421,181.234,363.967,182.089,363.967,183.539z M361.494,183.607
	c0,1.185,0.364,1.856,0.925,1.856c0.63,0,0.932-0.735,0.932-1.897c0-1.121-0.286-1.856-0.925-1.856
	C361.887,181.71,361.494,182.369,361.494,183.607z"/>
<path fill="#1A171B" d="M358.35,143.778c0.812,0,1.352,0.63,1.352,1.747c0,1.233-0.648,1.845-1.404,1.845
	c-0.729,0-1.358-0.594-1.368-1.764c0-1.17,0.64-1.828,1.413-1.828H358.35L358.35,143.778z M358.305,144.255
	c-0.485,0-0.747,0.585-0.747,1.323c-0.019,0.738,0.262,1.314,0.757,1.314c0.521,0,0.757-0.558,0.757-1.333
	c0-0.711-0.207-1.305-0.757-1.305L358.305,144.255L358.305,144.255z M358.242,149.837l3.438-6.068h0.504l-3.446,6.068H358.242z
	 M362.167,146.2c0.811,0,1.341,0.63,1.341,1.747c0,1.233-0.646,1.846-1.395,1.846c-0.729,0-1.359-0.585-1.369-1.755
	c0-1.18,0.64-1.837,1.414-1.837L362.167,146.2L362.167,146.2z M362.122,146.677c-0.486,0-0.757,0.585-0.757,1.323
	c-0.009,0.747,0.278,1.314,0.766,1.314c0.522,0,0.756-0.558,0.756-1.333c0-0.711-0.207-1.305-0.756-1.305L362.122,146.677
	L362.122,146.677z"/>
<g>
	<g>
		<defs>
			<rect id="SVGID_27_" width="419.528" height="595.276"/>
		</defs>
		<clipPath id="SVGID_28_">
			<use xlink:href="#SVGID_27_"  overflow="visible"/>
		</clipPath>
		<path clip-path="url(#SVGID_28_)" fill="#1A171B" d="M253.198,120.878c-0.378,0-0.702,0.315-0.702,0.701
			c0,0.396,0.314,0.711,0.711,0.711c0.387,0,0.701-0.315,0.701-0.711C253.908,121.193,253.594,120.878,253.198,120.878
			 M252.632,120.166h1.104v-0.765c0.947-0.224,1.486-0.836,1.486-1.656c0-0.954-0.791-1.691-1.811-1.691
			c-1.018,0-1.835,0.71-1.835,1.601c0,0.027,0,0.063,0.01,0.117h1.159c-0.01-0.045-0.01-0.09-0.01-0.108
			c0-0.36,0.279-0.639,0.641-0.639c0.396,0,0.693,0.297,0.693,0.693c0,0.532-0.469,0.901-1.127,0.901
			c-0.098,0-0.16-0.009-0.313-0.027L252.632,120.166L252.632,120.166z M248.225,119.708c0.099-0.487,0.432-0.775,0.918-0.775
			c0.484,0,0.81,0.27,0.926,0.775H248.225z M251.111,120.4v-0.144c0-1.305-0.756-2.105-1.997-2.105
			c-1.242,0-2.044,0.818-2.044,2.078c0,1.252,0.828,2.07,2.098,2.07c0.918,0,1.575-0.414,1.908-1.214l-1.008-0.163
			c-0.252,0.37-0.514,0.523-0.928,0.523c-0.594,0-0.927-0.369-0.953-1.045H251.111z M242.377,118.277v3.896h1.089v-2.016
			c0-0.738,0.271-1.08,0.827-1.08c0.288,0,0.532,0.117,0.641,0.306c0.082,0.135,0.107,0.306,0.107,0.63v2.16h1.088v-2.475
			c0-0.531-0.08-0.819-0.306-1.08c-0.261-0.296-0.675-0.467-1.134-0.467c-0.531,0-0.883,0.171-1.225,0.611v-0.485H242.377z
			 M240.691,115.973c-0.36,0-0.657,0.297-0.657,0.647c0,0.369,0.297,0.666,0.657,0.666c0.358,0,0.656-0.297,0.656-0.657
			C241.348,116.261,241.061,115.973,240.691,115.973 M241.23,118.276h-1.088v5.976h1.088V118.276z M236.518,121.58l-1.433,2.672
			h1.233l3.149-5.975h-1.251l-1.107,2.213l-1.17-2.213h-1.269L236.518,121.58z M234.117,118.385
			c-0.314-0.162-0.604-0.234-0.99-0.234c-1.215,0-2.141,0.908-2.141,2.096c0,1.162,0.926,2.052,2.132,2.052
			c0.36,0,0.647-0.063,0.999-0.243v-1.061c-0.297,0.234-0.549,0.324-0.883,0.324c-0.646,0-1.125-0.459-1.125-1.09
			c0-0.63,0.479-1.098,1.125-1.098c0.324,0,0.567,0.09,0.883,0.333V118.385L234.117,118.385z M227.982,119.131
			c0.613,0,1.09,0.486,1.09,1.107c0,0.586-0.495,1.081-1.09,1.081c-0.603,0-1.099-0.486-1.099-1.099
			C226.885,119.617,227.371,119.131,227.982,119.131 M228.955,118.277v0.503c-0.378-0.44-0.766-0.629-1.296-0.629
			c-1.07,0-1.897,0.899-1.897,2.069c0,1.189,0.817,2.079,1.916,2.079c0.54,0,0.928-0.189,1.277-0.629v0.503h1.088v-3.896H228.955z
			 M222.479,115.433h-1.088v6.74h1.088v-1.556l0.117-0.117l1.457,1.673h1.504l-1.973-2.187l1.827-1.709h-1.476l-1.459,1.421v-4.265
			H222.479z M219.703,115.973c-0.359,0-0.655,0.297-0.655,0.647c0,0.369,0.286,0.666,0.655,0.666c0.359,0,0.656-0.297,0.656-0.657
			C220.359,116.261,220.072,115.973,219.703,115.973 M220.243,118.277h-1.089v3.896h1.089V118.277z M214.262,118.277v3.896h1.088
			v-2.016c0-0.738,0.271-1.08,0.83-1.08c0.287,0,0.529,0.117,0.639,0.306c0.08,0.135,0.107,0.306,0.107,0.63v2.16h1.088v-2.475
			c0-0.531-0.08-0.819-0.306-1.08c-0.261-0.296-0.675-0.467-1.134-0.467c-0.531,0-0.883,0.171-1.225,0.611v-0.485H214.262z
			 M210.43,118.277h-1.089v2.385c0,1.053,0.675,1.637,1.89,1.637c1.207,0,1.881-0.584,1.881-1.637v-2.385h-1.088v2.205
			c0,0.585-0.271,0.891-0.793,0.891c-0.531,0-0.801-0.306-0.801-0.891V118.277z M202.143,118.277v3.896h1.088v-1.998
			c0-0.378,0.035-0.585,0.125-0.747c0.108-0.207,0.371-0.351,0.613-0.351c0.252,0,0.495,0.153,0.586,0.378
			c0.063,0.144,0.08,0.315,0.08,0.648v2.07h1.088v-1.998c0-0.342,0.036-0.54,0.117-0.711c0.117-0.243,0.361-0.387,0.641-0.387
			c0.252,0,0.449,0.126,0.549,0.342c0.072,0.162,0.09,0.306,0.09,0.621v2.133h1.088v-2.52c0-0.432-0.063-0.711-0.207-0.945
			c-0.206-0.341-0.62-0.557-1.088-0.557c-0.549,0-0.973,0.234-1.279,0.71c-0.296-0.494-0.674-0.71-1.214-0.71
			c-0.478,0-0.829,0.162-1.188,0.575v-0.449H202.143L202.143,118.277z M198.967,119.131c0.613,0,1.108,0.486,1.108,1.098
			c0,0.604-0.495,1.09-1.099,1.09c-0.621,0-1.107-0.486-1.107-1.108C197.87,119.626,198.374,119.131,198.967,119.131
			 M198.984,118.151c-1.305,0-2.239,0.854-2.239,2.042c0,1.252,0.899,2.106,2.204,2.106c1.333,0,2.25-0.845,2.25-2.079
			C201.199,118.996,200.292,118.151,198.984,118.151 M193.493,115.433h-1.089v6.74h1.089v-1.556l0.116-0.117l1.459,1.673h1.502
			l-1.971-2.187l1.827-1.709h-1.476l-1.458,1.421V115.433L193.493,115.433z M188.553,119.708c0.1-0.487,0.432-0.775,0.918-0.775
			s0.811,0.27,0.928,0.775H188.553z M191.441,120.4v-0.144c0-1.305-0.756-2.105-1.998-2.105c-1.241,0-2.043,0.818-2.043,2.078
			c0,1.252,0.828,2.07,2.098,2.07c0.918,0,1.575-0.414,1.908-1.214l-1.008-0.163c-0.252,0.37-0.514,0.523-0.928,0.523
			c-0.594,0-0.927-0.369-0.953-1.045H191.441z M186.445,115.433h-1.088v6.74h1.088V115.433z M181.509,119.708
			c0.099-0.487,0.433-0.775,0.918-0.775c0.486,0,0.81,0.27,0.927,0.775H181.509z M184.398,120.4v-0.144
			c0-1.305-0.756-2.105-1.998-2.105s-2.043,0.818-2.043,2.078c0,1.252,0.828,2.07,2.097,2.07c0.918,0,1.575-0.414,1.907-1.214
			l-1.008-0.163c-0.252,0.37-0.513,0.523-0.927,0.523c-0.594,0-0.927-0.369-0.954-1.045H184.398z M179.08,119.221h0.773v-0.944
			h-0.773v-1.332h-1.088v1.332h-0.432v0.944h0.432v2.952h1.088V119.221z M172.016,119.708c0.099-0.487,0.432-0.775,0.918-0.775
			s0.81,0.27,0.927,0.775H172.016z M174.904,120.4v-0.144c0-1.305-0.756-2.105-1.998-2.105c-1.242,0-2.043,0.818-2.043,2.078
			c0,1.252,0.828,2.07,2.097,2.07c0.918,0,1.575-0.414,1.908-1.214l-1.008-0.163c-0.252,0.37-0.513,0.523-0.927,0.523
			c-0.594,0-0.927-0.369-0.954-1.045H174.904z M166.169,118.277v3.896h1.088v-2.016c0-0.738,0.27-1.08,0.828-1.08
			c0.289,0,0.532,0.117,0.64,0.306c0.081,0.135,0.108,0.306,0.108,0.63v2.16h1.088v-2.475c0-0.531-0.081-0.819-0.306-1.08
			c-0.261-0.296-0.674-0.467-1.133-0.467c-0.532,0-0.883,0.171-1.225,0.611v-0.485H166.169z M162.947,119.131
			c0.613,0,1.09,0.486,1.09,1.107c0,0.586-0.495,1.081-1.09,1.081c-0.603,0-1.098-0.486-1.098-1.099
			C161.85,119.617,162.335,119.131,162.947,119.131 M163.92,118.277v0.503c-0.378-0.44-0.765-0.629-1.297-0.629
			c-1.071,0-1.898,0.899-1.898,2.069c0,1.189,0.818,2.079,1.916,2.079c0.541,0,0.928-0.189,1.279-0.629v0.503h1.088v-3.896H163.92z
			 M157.709,119.131c0.612,0,1.089,0.486,1.089,1.107c0,0.586-0.495,1.081-1.089,1.081c-0.604,0-1.099-0.486-1.099-1.099
			C156.61,119.617,157.096,119.131,157.709,119.131 M158.682,115.433v3.347c-0.378-0.44-0.765-0.629-1.297-0.629
			c-1.071,0-1.898,0.899-1.898,2.069c0,1.189,0.818,2.079,1.916,2.079c0.541,0,0.928-0.189,1.279-0.629v0.503h1.088v-6.74H158.682z
			 M150.375,119.131c0.612,0,1.107,0.486,1.107,1.098c0,0.604-0.495,1.09-1.098,1.09c-0.622,0-1.108-0.486-1.108-1.108
			C149.275,119.626,149.779,119.131,150.375,119.131 M150.393,118.151c-1.306,0-2.241,0.854-2.241,2.042
			c0,1.252,0.899,2.106,2.205,2.106c1.332,0,2.249-0.845,2.249-2.079C152.605,118.996,151.697,118.151,150.393,118.151
			 M143.003,119.131c0.612,0,1.089,0.486,1.089,1.107c0,0.586-0.495,1.081-1.089,1.081c-0.603,0-1.099-0.486-1.099-1.099
			C141.904,119.617,142.392,119.131,143.003,119.131 M143.976,118.277v0.503c-0.378-0.44-0.765-0.629-1.296-0.629
			c-1.071,0-1.899,0.899-1.899,2.069c0,1.189,0.819,2.079,1.917,2.079c0.54,0,0.927-0.189,1.278-0.629v0.503h1.088v-3.896H143.976z
			 M139.322,115.973c-0.36,0-0.656,0.297-0.656,0.647c0,0.369,0.287,0.666,0.656,0.666c0.36,0,0.656-0.297,0.656-0.657
			C139.979,116.261,139.691,115.973,139.322,115.973 M139.861,118.277h-1.088v3.896h1.088V118.277z M133.88,118.277v3.896h1.088
			v-2.016c0-0.738,0.27-1.08,0.829-1.08c0.288,0,0.531,0.117,0.639,0.306c0.081,0.135,0.108,0.306,0.108,0.63v2.16h1.088v-2.475
			c0-0.531-0.081-0.819-0.305-1.08c-0.261-0.296-0.675-0.467-1.134-0.467c-0.531,0-0.883,0.171-1.225,0.611v-0.485H133.88z
			 M130.659,119.131c0.612,0,1.089,0.486,1.089,1.107c0,0.586-0.495,1.081-1.089,1.081c-0.604,0-1.099-0.486-1.099-1.099
			C129.561,119.617,130.046,119.131,130.659,119.131 M131.631,118.277v0.503c-0.378-0.44-0.765-0.629-1.296-0.629
			c-1.071,0-1.899,0.899-1.899,2.069c0,1.189,0.819,2.079,1.917,2.079c0.54,0,0.927-0.189,1.278-0.629v0.503h1.088v-3.896H131.631z
			 M127.167,119.221h0.774v-0.944h-0.774v-1.332h-1.088v1.332h-0.432v0.944h0.432v2.952h1.088V119.221z M122.232,121.58
			l-1.431,2.672h1.233l3.15-5.975h-1.251l-1.107,2.213l-1.17-2.213h-1.269L122.232,121.58z M117.894,119.131
			c0.612,0,1.098,0.486,1.098,1.107c0,0.586-0.495,1.081-1.089,1.081c-0.604,0-1.099-0.486-1.099-1.099
			C116.803,119.617,117.29,119.131,117.894,119.131 M116.92,124.252v-2.582c0.387,0.44,0.775,0.629,1.297,0.629
			c1.071,0,1.898-0.899,1.898-2.07c0-1.188-0.818-2.078-1.916-2.078c-0.541,0-0.928,0.189-1.279,0.629v-0.503h-1.088v5.975H116.92z
			 M110.478,119.131c0.612,0,1.089,0.486,1.089,1.107c0,0.586-0.495,1.081-1.089,1.081c-0.604,0-1.099-0.486-1.099-1.099
			C109.378,119.617,109.864,119.131,110.478,119.131 M111.449,118.277v0.503c-0.378-0.44-0.765-0.629-1.296-0.629
			c-1.072,0-1.899,0.899-1.899,2.069c0,1.189,0.819,2.079,1.917,2.079c0.54,0,0.927-0.189,1.278-0.629v0.503h0.567
			c-0.261,0.144-0.36,0.216-0.468,0.333c-0.153,0.171-0.252,0.424-0.252,0.649c0,0.377,0.351,0.683,0.791,0.683
			c0.225,0,0.414-0.054,0.576-0.153l0.135-0.602c-0.162,0.081-0.297,0.117-0.432,0.117c-0.225,0-0.387-0.153-0.387-0.36
			c0-0.217,0.108-0.361,0.441-0.586c0.027-0.018,0.072-0.054,0.117-0.081v-3.896H111.449z M105.53,121.229l2.205-2.97h-3.789v0.944
			h1.872l-2.214,2.97h3.987v-0.944H105.53z M100.802,119.131c0.612,0,1.089,0.486,1.089,1.107c0,0.586-0.495,1.081-1.089,1.081
			c-0.603,0-1.099-0.486-1.099-1.099C99.704,119.617,100.19,119.131,100.802,119.131 M101.775,115.433v3.347
			c-0.379-0.44-0.766-0.629-1.297-0.629c-1.071,0-1.898,0.899-1.898,2.069c0,1.189,0.818,2.079,1.916,2.079
			c0.54,0,0.927-0.189,1.279-0.629v0.503h1.087v-6.74H101.775z M95.611,119.131c0.612,0,1.108,0.486,1.108,1.098
			c0,0.604-0.496,1.09-1.099,1.09c-0.621,0-1.108-0.486-1.108-1.108C94.512,119.626,95.018,119.131,95.611,119.131 M95.629,118.151
			c-1.305,0-2.24,0.854-2.24,2.042c0,1.252,0.899,2.106,2.204,2.106c1.332,0,2.249-0.845,2.249-2.079
			C97.842,118.996,96.935,118.151,95.629,118.151 M88.708,115.433v6.74h1.088v-1.998c0-0.747,0.27-1.098,0.828-1.098
			c0.288,0,0.532,0.126,0.64,0.315c0.081,0.135,0.108,0.315,0.108,0.648v2.133h1.088v-2.448c0-0.549-0.081-0.828-0.306-1.098
			c-0.261-0.305-0.674-0.476-1.134-0.476c-0.531,0-0.882,0.18-1.224,0.629v-3.347H88.708z M87.686,118.385
			c-0.315-0.162-0.603-0.234-0.99-0.234c-1.215,0-2.141,0.908-2.141,2.096c0,1.162,0.926,2.052,2.132,2.052
			c0.36,0,0.648-0.063,0.999-0.243v-1.061c-0.297,0.234-0.549,0.324-0.882,0.324c-0.648,0-1.125-0.459-1.125-1.09
			c0-0.63,0.477-1.098,1.125-1.098c0.324,0,0.567,0.09,0.882,0.333V118.385z M81.586,119.131c0.612,0,1.107,0.486,1.107,1.098
			c0,0.604-0.495,1.09-1.098,1.09c-0.622,0-1.108-0.486-1.108-1.108C80.487,119.626,80.991,119.131,81.586,119.131 M81.604,118.151
			c-1.306,0-2.241,0.854-2.241,2.042c0,1.252,0.899,2.106,2.205,2.106c1.332,0,2.249-0.845,2.249-2.079
			C83.817,118.996,82.909,118.151,81.604,118.151 M76.404,119.131c0.612,0,1.098,0.486,1.098,1.107c0,0.586-0.495,1.081-1.089,1.081
			c-0.604,0-1.099-0.486-1.099-1.099C75.314,119.617,75.8,119.131,76.404,119.131 M75.432,124.252v-2.582
			c0.387,0.44,0.774,0.629,1.297,0.629c1.071,0,1.898-0.899,1.898-2.07c0-1.188-0.818-2.078-1.916-2.078
			c-0.541,0-0.928,0.189-1.279,0.629v-0.503h-1.088v5.975H75.432z M69.024,119.131c0.612,0,1.107,0.486,1.107,1.098
			c0,0.604-0.495,1.09-1.098,1.09c-0.622,0-1.108-0.486-1.108-1.108C67.925,119.626,68.429,119.131,69.024,119.131 M69.042,118.151
			c-1.306,0-2.241,0.854-2.241,2.042c0,1.252,0.899,2.106,2.205,2.106c1.332,0,2.249-0.845,2.249-2.079
			C71.255,118.996,70.347,118.151,69.042,118.151 M63.816,119.131c0.604,0,1.09,0.486,1.09,1.107c0,0.586-0.495,1.081-1.09,1.081
			c-0.603,0-1.098-0.486-1.098-1.099C62.718,119.617,63.205,119.131,63.816,119.131 M65.859,118.277h-1.088v0.503
			c-0.369-0.449-0.729-0.629-1.27-0.629c-1.098,0-1.907,0.899-1.907,2.123c0,1.18,0.782,2.025,1.853,2.025
			c0.55,0,0.919-0.18,1.324-0.647v0.584c0,0.369-0.09,0.649-0.243,0.811c-0.18,0.18-0.45,0.288-0.73,0.288
			c-0.495,0-0.81-0.243-0.918-0.703h-1.187c0.036,0.316,0.108,0.505,0.297,0.775c0.404,0.575,0.998,0.854,1.79,0.854
			c0.685,0,1.261-0.234,1.638-0.683c0.342-0.387,0.441-0.748,0.441-1.549V118.277z M58.625,119.131c0.613,0,1.108,0.486,1.108,1.098
			c0,0.604-0.495,1.09-1.099,1.09c-0.621,0-1.107-0.486-1.107-1.108C57.527,119.626,58.031,119.131,58.625,119.131 M58.644,118.151
			c-1.305,0-2.24,0.854-2.24,2.042c0,1.252,0.899,2.106,2.204,2.106c1.333,0,2.25-0.845,2.25-2.079
			C60.857,118.996,59.949,118.151,58.644,118.151 M53.151,115.433h-1.088v6.74h1.088v-1.556l0.117-0.117l1.458,1.673h1.503
			l-1.971-2.187l1.827-1.709h-1.476l-1.458,1.421V115.433z M46.708,119.131c0.612,0,1.089,0.486,1.089,1.107
			c0,0.586-0.495,1.081-1.089,1.081c-0.604,0-1.099-0.486-1.099-1.099C45.609,119.617,46.095,119.131,46.708,119.131 M47.68,115.433
			v3.347c-0.378-0.44-0.765-0.629-1.296-0.629c-1.072,0-1.899,0.899-1.899,2.069c0,1.189,0.818,2.079,1.917,2.079
			c0.54,0,0.927-0.189,1.278-0.629v0.503h1.088v-6.74H47.68z M40.441,117.106c1.116,0,2.008,0.918,2.008,2.061
			c0,1.144-0.901,2.071-1.999,2.071c-1.116,0-2.008-0.927-2.008-2.089C38.442,118.033,39.353,117.106,40.441,117.106
			 M40.459,116.036c-1.782,0-3.221,1.385-3.221,3.095c0,1.801,1.375,3.177,3.176,3.177c1.827,0,3.239-1.358,3.239-3.132
			C43.653,117.412,42.25,116.036,40.459,116.036"/>
	</g>
</g>
<rect x="48.952" y="387.738" fill="#1A171B" width="8.504" height="8.504"/>
<path fill="#1A171B" d="M61.333,394.736v-0.377l0.483-0.471c1.163-1.105,1.688-1.693,1.695-2.381c0-0.463-0.224-0.89-0.903-0.89
	c-0.413,0-0.756,0.21-0.966,0.385l-0.196-0.435c0.315-0.267,0.763-0.463,1.289-0.463c0.98,0,1.394,0.674,1.394,1.324
	c0,0.84-0.609,1.521-1.569,2.444l-0.364,0.336v0.015h2.045v0.512H61.333L61.333,394.736z"/>
<path fill="#1A171B" d="M67.95,392.412c0,1.548-0.574,2.402-1.583,2.402c-0.889,0-1.492-0.834-1.506-2.34
	c0-1.526,0.659-2.367,1.583-2.367C67.404,390.107,67.95,390.961,67.95,392.412z M65.478,392.482c0,1.184,0.364,1.854,0.924,1.854
	c0.63,0,0.932-0.735,0.932-1.897c0-1.121-0.287-1.855-0.925-1.855C65.87,390.583,65.478,391.242,65.478,392.482z"/>
<path fill="#1A171B" d="M69.853,390.758h-0.014l-0.791,0.428l-0.119-0.47l0.995-0.532h0.525v4.553h-0.595L69.853,390.758
	L69.853,390.758z"/>
<path fill="#1A171B" d="M73.444,390.758H73.43l-0.791,0.428l-0.119-0.47l0.995-0.532h0.525v4.553h-0.595L73.444,390.758
	L73.444,390.758z"/>
<path fill="#1A171B" d="M79.156,392.404c0-0.398-0.007-0.741-0.028-1.057h0.539l0.021,0.664h0.028
	c0.154-0.455,0.525-0.742,0.938-0.742c0.07,0,0.119,0.008,0.175,0.021v0.582c-0.063-0.016-0.126-0.021-0.21-0.021
	c-0.434,0-0.743,0.33-0.827,0.793c-0.014,0.084-0.028,0.182-0.028,0.287v1.807h-0.609L79.156,392.404L79.156,392.404z"/>
<path fill="#1A171B" d="M81.592,394.814c-0.238,0-0.406-0.189-0.406-0.441c0-0.26,0.175-0.441,0.42-0.441s0.413,0.184,0.413,0.441
	c0,0.252-0.161,0.441-0.42,0.441H81.592z"/>
<rect x="48.952" y="400.107" fill="#00FF00" width="8.504" height="8.504"/>
<path fill="#1A171B" d="M61.333,407.105v-0.377l0.483-0.471c1.163-1.105,1.688-1.693,1.695-2.381c0-0.463-0.224-0.891-0.903-0.891
	c-0.413,0-0.756,0.211-0.966,0.386l-0.196-0.435c0.315-0.267,0.763-0.463,1.289-0.463c0.98,0,1.394,0.674,1.394,1.324
	c0,0.84-0.609,1.52-1.569,2.444l-0.364,0.336v0.014h2.045v0.513H61.333L61.333,407.105z"/>
<path fill="#1A171B" d="M67.95,404.781c0,1.548-0.574,2.402-1.583,2.402c-0.889,0-1.492-0.834-1.506-2.341
	c0-1.526,0.659-2.366,1.583-2.366C67.404,402.477,67.95,403.331,67.95,404.781z M65.478,404.852c0,1.184,0.364,1.854,0.924,1.854
	c0.63,0,0.932-0.735,0.932-1.897c0-1.121-0.287-1.855-0.925-1.855C65.87,402.953,65.478,403.611,65.478,404.852z"/>
<path fill="#1A171B" d="M69.853,403.127h-0.014l-0.791,0.428l-0.119-0.47l0.995-0.532h0.525v4.553h-0.595L69.853,403.127
	L69.853,403.127z"/>
<path fill="#1A171B" d="M72.106,407.105v-0.377l0.483-0.471c1.163-1.105,1.688-1.693,1.695-2.381c0-0.463-0.224-0.891-0.903-0.891
	c-0.413,0-0.756,0.211-0.966,0.386l-0.196-0.435c0.315-0.267,0.763-0.463,1.289-0.463c0.98,0,1.394,0.674,1.394,1.324
	c0,0.84-0.609,1.52-1.569,2.444l-0.364,0.336v0.014h2.045v0.513H72.106L72.106,407.105z"/>
<path fill="#1A171B" d="M79.156,404.773c0-0.398-0.007-0.741-0.028-1.058h0.539l0.021,0.665h0.028
	c0.154-0.455,0.525-0.742,0.938-0.742c0.07,0,0.119,0.008,0.175,0.021v0.582c-0.063-0.016-0.126-0.021-0.21-0.021
	c-0.434,0-0.743,0.329-0.827,0.793c-0.014,0.084-0.028,0.182-0.028,0.286v1.808h-0.609L79.156,404.773L79.156,404.773z"/>
<path fill="#1A171B" d="M81.592,407.184c-0.238,0-0.406-0.189-0.406-0.441c0-0.26,0.175-0.441,0.42-0.441s0.413,0.184,0.413,0.441
	c0,0.252-0.161,0.441-0.42,0.441H81.592z"/>
<rect x="28.846" y="112.611" fill="none" stroke="#1A171B" width="235.21" height="13.74"/>
</svg>
