<?xml version="1.0" encoding="utf-8"?>
<!-- Generator: Adobe Illustrator 13.0.2, SVG Export Plug-In  -->
<!DOCTYPE svg PUBLIC "-//W3C//DTD SVG 1.1//EN" "http://www.w3.org/Graphics/SVG/1.1/DTD/svg11.dtd" [
	<!ENTITY ns_flows "http://ns.adobe.com/Flows/1.0/">
]>
<svg version="1.1"
	 xmlns="http://www.w3.org/2000/svg" xmlns:xlink="http://www.w3.org/1999/xlink" xmlns:a="http://ns.adobe.com/AdobeSVGViewerExtensions/3.0/"
	 x="0px" y="0px" width="347px" height="529px" viewBox="39 37 347 529" enable-background="new 39 37 347 529"
	 xml:space="preserve">
<defs>
</defs>
<g>
	<defs>
		<rect id="SVGID_27_" width="419.528" height="595.276"/>
	</defs>
	<clipPath id="SVGID_28_">
		<use xlink:href="#SVGID_27_"  overflow="visible"/>
	</clipPath>
	<path clip-path="url(#SVGID_28_)" fill="#1A171B" d="M388.933,24.002c0.07-0.007,0.147-0.014,0.176-0.014
		c0.413,0,0.721,0.322,0.721,0.742c0,0.427-0.315,0.735-0.749,0.735c-0.427,0-0.714-0.245-0.771-0.658H387.4
		c0.007,0.259,0.062,0.441,0.202,0.672c0.309,0.511,0.819,0.791,1.471,0.791c0.985,0,1.665-0.602,1.665-1.477
		c0-0.329-0.099-0.63-0.28-0.847c-0.105-0.133-0.21-0.203-0.434-0.294c0.392-0.245,0.539-0.525,0.539-0.994
		c0-0.777-0.574-1.295-1.428-1.295c-0.889,0-1.421,0.462-1.547,1.337h0.861c0.049-0.406,0.266-0.609,0.623-0.609
		c0.371,0,0.63,0.259,0.63,0.616c0,0.392-0.252,0.644-0.645,0.644h-0.126V24.002z M72.927,22.274v3.878h0.909v-4.669h-1.581v0.791
		H72.927z M69.062,20.909h-0.846v2.142l-0.511,0.343v0.777l0.511-0.364v2.345h0.846v-2.737l0.525-0.364v-0.784l-0.525,0.385V20.909z
		 M65.429,23.786c0.477,0,0.848,0.378,0.848,0.861c0,0.455-0.385,0.84-0.848,0.84c-0.469,0-0.854-0.378-0.854-0.854
		C64.575,24.164,64.953,23.786,65.429,23.786 M66.186,23.121v0.392c-0.294-0.343-0.596-0.49-1.009-0.49
		c-0.833,0-1.476,0.7-1.476,1.61c0,0.924,0.636,1.617,1.49,1.617c0.42,0,0.722-0.147,0.995-0.49v0.392h0.846v-3.031H66.186z
		 M62.51,21.329c-0.28,0-0.511,0.231-0.511,0.504c0,0.287,0.224,0.518,0.511,0.518c0.279,0,0.51-0.231,0.51-0.511
		C63.02,21.553,62.796,21.329,62.51,21.329 M62.929,23.121h-0.846v3.03h0.846V23.121z M59.743,25.417l1.715-2.31h-2.947v0.735h1.456
		l-1.722,2.31h3.101v-0.735H59.743z M56.009,23.786c0.476,0,0.847,0.378,0.847,0.861c0,0.455-0.385,0.84-0.847,0.84
		c-0.469,0-0.854-0.378-0.854-0.854C55.155,24.164,55.533,23.786,56.009,23.786 M56.765,20.909v2.604
		c-0.294-0.343-0.595-0.49-1.008-0.49c-0.833,0-1.477,0.7-1.477,1.61c0,0.924,0.637,1.617,1.491,1.617
		c0.42,0,0.721-0.147,0.994-0.49v0.392h0.847v-5.243H56.765z M52.129,25.417l1.715-2.31h-2.947v0.735h1.456l-1.722,2.31h3.101
		v-0.735H52.129z M48.539,23.786c0.476,0,0.861,0.378,0.861,0.854c0,0.469-0.385,0.847-0.854,0.847
		c-0.483,0-0.862-0.378-0.862-0.861C47.684,24.171,48.077,23.786,48.539,23.786 M48.553,23.023c-1.015,0-1.743,0.665-1.743,1.589
		c0,0.973,0.7,1.638,1.715,1.638c1.036,0,1.749-0.658,1.749-1.617C50.274,23.681,49.568,23.023,48.553,23.023 M43.949,23.632v-1.414
		h0.28c0.575,0,0.876,0.238,0.876,0.7c0,0.462-0.315,0.714-0.89,0.714H43.949z M44.979,24.185c0.294-0.056,0.462-0.14,0.644-0.294
		c0.258-0.224,0.419-0.609,0.419-1.029c0-0.413-0.175-0.812-0.461-1.05c-0.259-0.217-0.672-0.329-1.19-0.329H43.04v4.669h0.909
		v-1.876h0.119l1.261,1.876h1.119L44.979,24.185z"/>
</g>
<line fill="none" stroke="#00FF00" stroke-width="2.139" stroke-miterlimit="10" x1="82.771" y1="524.479" x2="42.293" y2="524.479"/>
<g>
	<defs>
		<rect id="SVGID_26_" width="419.528" height="595.276"/>
	</defs>
	<clipPath id="SVGID_29_">
		<use xlink:href="#SVGID_26_"  overflow="visible"/>
	</clipPath>
	<path clip-path="url(#SVGID_29_)" fill="#1A171B" d="M49.382,46.003c-0.274-0.305-0.516-0.423-0.846-0.423
		c-0.414,0-0.735,0.259-0.735,0.58c0,0.281,0.179,0.43,0.79,0.657c0.572,0.212,0.807,0.321,1.042,0.525
		c0.305,0.258,0.461,0.634,0.461,1.096c0,1.025-0.736,1.722-1.816,1.722c-0.759,0-1.323-0.313-1.792-0.994l0.657-0.634
		c0.235,0.446,0.626,0.696,1.096,0.696c0.47,0,0.806-0.305,0.806-0.736c0-0.211-0.093-0.391-0.281-0.524
		c-0.103-0.07-0.305-0.157-0.728-0.313c-0.939-0.345-1.284-0.72-1.284-1.409c0-0.877,0.688-1.519,1.628-1.519
		c0.572,0,1.096,0.196,1.534,0.579L49.382,46.003z"/>
	<path clip-path="url(#SVGID_29_)" fill="#1A171B" d="M54.736,46.214c-0.422-0.415-0.791-0.587-1.276-0.587
		c-0.963,0-1.706,0.791-1.706,1.816c0,1.018,0.743,1.777,1.73,1.777c0.493,0,0.837-0.157,1.252-0.571v1.197
		c-0.47,0.219-0.837,0.306-1.276,0.306c-1.542,0-2.756-1.19-2.756-2.701c0-1.527,1.23-2.756,2.756-2.756
		c0.462,0,0.822,0.094,1.276,0.321V46.214z"/>
</g>
<polygon fill="#1A171B" points="59.018,46.833 59.018,44.813 60.035,44.813 60.035,50.035 59.018,50.035 59.018,47.718 
	56.81,47.718 56.81,50.035 55.792,50.035 55.792,44.813 56.81,44.813 56.81,46.833 "/>
<polygon fill="#1A171B" points="62.25,45.698 62.25,46.856 64.049,46.856 64.049,47.741 62.25,47.741 62.25,49.15 64.121,49.15 
	64.121,50.035 61.231,50.035 61.231,44.813 64.121,44.813 64.121,45.698 "/>
<polygon fill="#1A171B" points="65.795,44.719 66.491,44.719 67.917,48.132 69.396,44.719 70.101,44.719 70.969,50.034 
	69.943,50.034 69.475,46.817 68.042,50.105 67.759,50.105 66.375,46.817 65.85,50.034 64.824,50.034 "/>
<path fill="#1A171B" d="M74.099,46.23l-0.759,1.879h1.487L74.099,46.23z M73.011,48.931l-0.47,1.104h-1.08l2.263-5.331h0.767
	l2.192,5.331h-1.089l-0.446-1.104H73.011z"/>
<polygon fill="#1A171B" points="77.629,50.035 77.629,45.698 76.463,45.698 76.463,44.814 79.821,44.814 79.821,45.698 
	78.647,45.698 78.647,50.035 "/>
<g>
	<defs>
		<rect id="SVGID_25_" width="419.528" height="595.276"/>
	</defs>
	<clipPath id="SVGID_30_">
		<use xlink:href="#SVGID_25_"  overflow="visible"/>
	</clipPath>
	<path clip-path="url(#SVGID_30_)" fill="#1A171B" d="M83.727,49.15c0.658,0,1.072-0.126,1.393-0.415
		c0.353-0.313,0.564-0.814,0.564-1.315s-0.211-0.987-0.564-1.3c-0.336-0.305-0.735-0.422-1.393-0.422h-0.274v3.452H83.727z
		 M82.435,44.813h1.495c0.768,0,1.378,0.196,1.872,0.603c0.587,0.477,0.931,1.221,0.931,2.004c0,0.775-0.353,1.518-0.947,2.011
		c-0.501,0.423-1.073,0.603-1.863,0.603h-1.488V44.813z"/>
</g>
<polygon fill="#1A171B" points="91.053,49.15 91.053,50.035 86.958,50.035 89.511,45.698 87.357,45.698 87.357,44.813 
	91.193,44.813 88.649,49.15 "/>
<rect x="91.913" y="44.814" fill="#1A171B" width="1.018" height="5.221"/>
<path fill="#1A171B" d="M96.204,46.23l-0.759,1.879h1.487L96.204,46.23z M95.115,48.931l-0.47,1.104h-1.08l2.262-5.331h0.767
	l2.192,5.331h-1.087l-0.447-1.104H95.115z"/>
<polygon fill="#1A171B" points="100.406,46.512 101.369,45.862 101.369,46.762 100.406,47.404 100.406,49.15 102.026,49.15 
	102.026,50.035 99.389,50.035 99.389,47.952 98.833,48.336 98.833,47.436 99.389,47.06 99.389,44.813 100.406,44.813 "/>
<path fill="#1A171B" d="M104.774,46.23l-0.759,1.879h1.487L104.774,46.23z M103.686,48.931l-0.47,1.104h-1.08l2.262-5.331h0.767
	l2.192,5.331h-1.088l-0.446-1.104H103.686z"/>
<polygon fill="#1A171B" points="107.975,44.696 108.68,44.696 111.857,48.328 111.857,44.813 112.875,44.813 112.875,50.137 
	112.17,50.137 108.993,46.504 108.993,50.035 107.975,50.035 "/>
<rect x="114.072" y="44.814" fill="#1A171B" width="1.018" height="5.221"/>
<path fill="#1A171B" d="M118.362,46.23l-0.759,1.879h1.487L118.362,46.23z M117.274,48.931l-0.47,1.104h-1.08l2.262-5.331h0.767
	l2.192,5.331h-1.087l-0.447-1.104H117.274z"/>
<rect x="123.52" y="44.814" fill="#1A171B" width="1.018" height="5.221"/>
<polygon fill="#1A171B" points="125.735,44.696 126.44,44.696 129.618,48.328 129.618,44.813 130.636,44.813 130.636,50.137 
	129.931,50.137 126.753,46.504 126.753,50.035 125.735,50.035 "/>
<polygon fill="#1A171B" points="132.458,50.035 132.458,45.698 131.292,45.698 131.292,44.814 134.65,44.814 134.65,45.698 
	133.477,45.698 133.477,50.035 "/>
<polygon fill="#1A171B" points="136.325,45.698 136.325,46.856 138.125,46.856 138.125,47.741 136.325,47.741 136.325,49.15 
	138.196,49.15 138.196,50.035 135.307,50.035 135.307,44.813 138.196,44.813 138.196,45.698 "/>
<g>
	<defs>
		<rect id="SVGID_24_" width="419.528" height="595.276"/>
	</defs>
	<clipPath id="SVGID_31_">
		<use xlink:href="#SVGID_24_"  overflow="visible"/>
	</clipPath>
	<path clip-path="url(#SVGID_31_)" fill="#1A171B" d="M140.498,47.217c0.642,0,0.994-0.282,0.994-0.798
		c0-0.517-0.337-0.784-0.978-0.784H140.2v1.582H140.498z M142.995,50.035h-1.253l-1.409-2.098H140.2v2.098h-1.018v-5.221h1.512
		c0.578,0,1.041,0.125,1.33,0.368c0.321,0.266,0.517,0.712,0.517,1.174c0,0.469-0.18,0.9-0.47,1.15
		c-0.203,0.173-0.391,0.266-0.72,0.329L142.995,50.035z"/>
</g>
<polygon fill="#1A171B" points="143.659,44.696 144.364,44.696 147.542,48.328 147.542,44.813 148.56,44.813 148.56,50.137 
	147.855,50.137 144.677,46.504 144.677,50.035 143.659,50.035 "/>
<polygon fill="#1A171B" points="150.774,45.698 150.774,46.856 152.575,46.856 152.575,47.741 150.774,47.741 150.774,49.15 
	152.645,49.15 152.645,50.035 149.756,50.035 149.756,44.813 152.645,44.813 152.645,45.698 "/>
<polygon fill="#1A171B" points="154.359,50.035 154.359,45.698 153.193,45.698 153.193,44.814 156.551,44.814 156.551,45.698 
	155.377,45.698 155.377,50.035 "/>
<g>
	<defs>
		<rect id="SVGID_23_" width="419.528" height="595.276"/>
	</defs>
	<clipPath id="SVGID_32_">
		<use xlink:href="#SVGID_23_"  overflow="visible"/>
	</clipPath>
	<path clip-path="url(#SVGID_32_)" fill="#1A171B" d="M158.226,47.804c0,0.532,0.031,0.704,0.165,0.932
		c0.171,0.297,0.524,0.485,0.915,0.485c0.392,0,0.744-0.188,0.916-0.485c0.133-0.228,0.164-0.4,0.164-0.932v-2.99h1.018v3.193
		c0,0.611-0.117,1.042-0.383,1.394c-0.36,0.47-1.002,0.751-1.715,0.751c-0.712,0-1.354-0.281-1.715-0.751
		c-0.266-0.352-0.383-0.783-0.383-1.394v-3.193h1.018V47.804z"/>
</g>
<rect x="42.945" y="40.356" fill="none" stroke="#1A171B" stroke-miterlimit="10" width="122.063" height="13.197"/>
<g>
	<defs>
		<rect id="SVGID_22_" width="419.528" height="595.276"/>
	</defs>
	<clipPath id="SVGID_33_">
		<use xlink:href="#SVGID_22_"  overflow="visible"/>
	</clipPath>
	<path clip-path="url(#SVGID_33_)" fill="#1A171B" d="M242.236,552.255c0.077-0.378,0.337-0.602,0.715-0.602s0.63,0.21,0.721,0.602
		H242.236z M244.483,552.794v-0.112c0-1.015-0.588-1.638-1.554-1.638s-1.589,0.637-1.589,1.617c0,0.973,0.644,1.609,1.631,1.609
		c0.714,0,1.226-0.321,1.484-0.944l-0.784-0.126c-0.196,0.287-0.399,0.406-0.721,0.406c-0.462,0-0.722-0.287-0.742-0.812H244.483z
		 M240.149,549.35c-0.278,0-0.51,0.231-0.51,0.504c0,0.287,0.225,0.519,0.51,0.519c0.28,0,0.512-0.231,0.512-0.511
		C240.661,549.575,240.437,549.35,240.149,549.35 M240.569,551.142h-0.846v3.03h0.846V551.142z M238.899,551.226
		c-0.244-0.126-0.469-0.182-0.77-0.182c-0.945,0-1.665,0.707-1.665,1.631c0,0.903,0.72,1.596,1.658,1.596
		c0.279,0,0.504-0.049,0.776-0.188v-0.826c-0.23,0.183-0.427,0.252-0.686,0.252c-0.504,0-0.875-0.356-0.875-0.847
		s0.371-0.854,0.875-0.854c0.252,0,0.441,0.07,0.686,0.26V551.226z M233.592,552.255c0.077-0.378,0.336-0.602,0.714-0.602
		s0.63,0.21,0.721,0.602H233.592z M235.839,552.794v-0.112c0-1.015-0.588-1.638-1.554-1.638c-0.967,0-1.59,0.637-1.59,1.617
		c0,0.973,0.645,1.609,1.632,1.609c0.714,0,1.225-0.321,1.483-0.944l-0.784-0.126c-0.195,0.287-0.398,0.406-0.721,0.406
		c-0.462,0-0.721-0.287-0.742-0.812H235.839z M228.989,551.142v3.031h0.846v-1.567c0-0.574,0.21-0.841,0.644-0.841
		c0.226,0,0.414,0.092,0.498,0.238c0.063,0.105,0.084,0.238,0.084,0.49v1.68h0.847v-1.925c0-0.413-0.063-0.637-0.238-0.84
		c-0.203-0.231-0.524-0.364-0.881-0.364c-0.414,0-0.688,0.133-0.953,0.476v-0.378H228.989z M226.301,551.142v3.031h0.846v-1.456
		c0-0.343,0.049-0.532,0.189-0.692c0.126-0.141,0.308-0.218,0.539-0.218c0.168,0,0.252,0.021,0.406,0.105l0.118-0.791
		c-0.153-0.063-0.237-0.077-0.371-0.077c-0.385,0-0.664,0.175-0.882,0.56v-0.462H226.301z M223.249,552.255
		c0.077-0.378,0.336-0.602,0.714-0.602s0.63,0.21,0.721,0.602H223.249z M225.496,552.794v-0.112c0-1.015-0.588-1.638-1.555-1.638
		c-0.966,0-1.589,0.637-1.589,1.617c0,0.973,0.645,1.609,1.631,1.609c0.715,0,1.226-0.321,1.484-0.944l-0.784-0.126
		c-0.195,0.287-0.398,0.406-0.721,0.406c-0.462,0-0.721-0.287-0.742-0.812H225.496z M221.303,551.877h0.603v-0.735h-0.603v-1.035
		h-0.846v1.035h-0.336v0.735h0.336v2.296h0.846V551.877z M216.55,551.142v3.031h0.846v-1.567c0-0.574,0.21-0.841,0.646-0.841
		c0.224,0,0.413,0.092,0.497,0.238c0.062,0.105,0.084,0.238,0.084,0.49v1.68h0.846v-1.925c0-0.413-0.062-0.637-0.237-0.84
		c-0.203-0.231-0.524-0.364-0.882-0.364c-0.413,0-0.687,0.133-0.953,0.476v-0.378H216.55z M215.444,549.504h-0.908v4.668h0.908
		V549.504z M207.662,551.142h-0.952l1.554,3.095h0.392l0.805-1.842l0.819,1.842h0.385l1.567-3.095h-0.944l-0.812,1.778l-0.826-1.862
		h-0.364l-0.826,1.834L207.662,551.142z M204.141,549.35c-0.28,0-0.511,0.231-0.511,0.504c0,0.287,0.224,0.519,0.511,0.519
		c0.28,0,0.511-0.231,0.511-0.511C204.652,549.575,204.428,549.35,204.141,549.35 M204.561,551.142h-0.846v3.03h0.846V551.142z
		 M198.047,551.142v3.031h0.846v-1.554c0-0.294,0.028-0.455,0.098-0.581c0.084-0.161,0.287-0.273,0.476-0.273
		c0.196,0,0.386,0.119,0.456,0.294c0.049,0.112,0.063,0.245,0.063,0.505v1.609h0.846v-1.554c0-0.267,0.028-0.42,0.091-0.553
		c0.091-0.189,0.28-0.302,0.497-0.302c0.196,0,0.35,0.099,0.428,0.267c0.056,0.126,0.07,0.237,0.07,0.482v1.659h0.846v-1.96
		c0-0.336-0.049-0.553-0.161-0.735c-0.161-0.266-0.483-0.434-0.847-0.434c-0.427,0-0.756,0.182-0.994,0.553
		c-0.231-0.385-0.525-0.553-0.945-0.553c-0.371,0-0.644,0.126-0.924,0.448v-0.351H198.047z M195.163,553.711l-1.113,2.079h0.959
		l2.45-4.648h-0.973l-0.861,1.723l-0.91-1.723h-0.987L195.163,553.711z M190.354,551.142v3.031h0.846v-1.567
		c0-0.574,0.21-0.841,0.644-0.841c0.225,0,0.414,0.092,0.498,0.238c0.063,0.105,0.084,0.238,0.084,0.49v1.68h0.846v-1.925
		c0-0.413-0.063-0.637-0.238-0.84c-0.203-0.231-0.524-0.364-0.881-0.364c-0.414,0-0.687,0.133-0.953,0.476v-0.378H190.354z
		 M187.825,551.807c0.476,0,0.854,0.378,0.854,0.861c0,0.455-0.385,0.84-0.847,0.84c-0.469,0-0.854-0.378-0.854-0.854
		C186.978,552.185,187.356,551.807,187.825,551.807 M187.069,555.791v-2.009c0.301,0.343,0.602,0.489,1.008,0.489
		c0.833,0,1.477-0.699,1.477-1.609c0-0.924-0.637-1.617-1.491-1.617c-0.42,0-0.721,0.147-0.994,0.49v-0.393h-0.847v4.648H187.069z
		 M183.144,552.255c0.077-0.378,0.336-0.602,0.714-0.602c0.377,0,0.629,0.21,0.72,0.602H183.144z M185.39,552.794v-0.112
		c0-1.015-0.588-1.638-1.553-1.638c-0.966,0-1.589,0.63-1.589,1.617c0,0.973,0.651,1.609,1.638,1.609c0.048,0,0.083,0,0.167-0.007
		c-0.279,0.203-0.398,0.406-0.398,0.672c0,0.295,0.272,0.532,0.615,0.532c0.175,0,0.322-0.042,0.455-0.119l0.098-0.469
		c-0.126,0.063-0.224,0.091-0.336,0.091c-0.175,0-0.301-0.119-0.301-0.272c0-0.196,0.168-0.393,0.497-0.603
		c0.357-0.21,0.539-0.413,0.679-0.77l-0.784-0.126c-0.196,0.287-0.399,0.406-0.72,0.406c-0.462,0-0.721-0.287-0.742-0.812H185.39z
		 M181.171,551.877h0.602v-0.735h-0.602v-1.035h-0.846v1.035h-0.336v0.735h0.336v2.296h0.846V551.877z M179.388,551.352
		c-0.294-0.217-0.609-0.321-0.987-0.321c-0.637,0-1.084,0.398-1.084,0.966c0,0.28,0.097,0.49,0.3,0.63
		c0.133,0.098,0.203,0.126,0.581,0.266c0.385,0.141,0.47,0.203,0.47,0.378c0,0.189-0.169,0.337-0.386,0.337
		c-0.252,0-0.476-0.112-0.721-0.357l-0.44,0.518c0.293,0.322,0.706,0.504,1.147,0.504c0.749,0,1.274-0.447,1.274-1.085
		c0-0.286-0.112-0.518-0.336-0.672c-0.14-0.104-0.245-0.153-0.588-0.272c-0.392-0.133-0.483-0.196-0.483-0.336
		c0-0.147,0.14-0.26,0.329-0.26c0.168,0,0.322,0.063,0.504,0.203L179.388,551.352z M174.849,551.807
		c0.477,0,0.862,0.378,0.862,0.854c0,0.469-0.385,0.847-0.855,0.847c-0.483,0-0.861-0.378-0.861-0.86
		C173.995,552.193,174.387,551.807,174.849,551.807 M174.863,551.044c-1.015,0-1.742,0.665-1.742,1.589
		c0,0.974,0.699,1.638,1.714,1.638c1.037,0,1.75-0.657,1.75-1.616C176.585,551.703,175.879,551.044,174.863,551.044
		 M170.729,551.807c0.476,0,0.847,0.378,0.847,0.861c0,0.455-0.385,0.84-0.847,0.84c-0.47,0-0.855-0.378-0.855-0.854
		C169.874,552.185,170.252,551.807,170.729,551.807 M171.485,548.93v2.604c-0.294-0.343-0.595-0.49-1.009-0.49
		c-0.833,0-1.476,0.7-1.476,1.61c0,0.924,0.636,1.616,1.49,1.616c0.421,0,0.722-0.146,0.995-0.489v0.392h0.846v-5.243H171.485z
		 M166.193,549.35c-0.28,0-0.511,0.231-0.511,0.504c0,0.287,0.224,0.519,0.511,0.519c0.279,0,0.51-0.231,0.51-0.511
		C166.703,549.575,166.479,549.35,166.193,549.35 M166.612,551.142h-0.846v3.03h0.846V551.142z M160.098,551.142v3.031h0.846v-1.554
		c0-0.294,0.028-0.455,0.098-0.581c0.085-0.161,0.288-0.273,0.477-0.273c0.196,0,0.385,0.119,0.455,0.294
		c0.049,0.112,0.063,0.245,0.063,0.505v1.609h0.846v-1.554c0-0.267,0.028-0.42,0.091-0.553c0.092-0.189,0.281-0.302,0.498-0.302
		c0.196,0,0.35,0.099,0.427,0.267c0.056,0.126,0.07,0.237,0.07,0.482v1.659h0.846v-1.96c0-0.336-0.049-0.553-0.16-0.735
		c-0.161-0.266-0.483-0.434-0.847-0.434c-0.427,0-0.756,0.182-0.995,0.553c-0.23-0.385-0.524-0.553-0.944-0.553
		c-0.371,0-0.644,0.126-0.925,0.448v-0.351H160.098z M157.536,551.807c0.476,0,0.847,0.378,0.847,0.861
		c0,0.455-0.385,0.84-0.847,0.84c-0.469,0-0.855-0.378-0.855-0.854C156.681,552.185,157.06,551.807,157.536,551.807
		 M158.292,551.142v0.393c-0.294-0.343-0.595-0.49-1.008-0.49c-0.833,0-1.477,0.7-1.477,1.61c0,0.924,0.637,1.616,1.491,1.616
		c0.42,0,0.721-0.146,0.994-0.489v0.392h0.846v-3.031H158.292z M154.616,549.35c-0.279,0-0.51,0.231-0.51,0.504
		c0,0.287,0.231,0.519,0.51,0.519c0.28,0,0.511-0.231,0.511-0.511C155.127,549.575,154.903,549.35,154.616,549.35 M155.036,551.142
		h-0.846v4.648h0.846V551.142z M153.366,551.226c-0.245-0.126-0.469-0.182-0.77-0.182c-0.945,0-1.665,0.707-1.665,1.631
		c0,0.903,0.72,1.596,1.658,1.596c0.28,0,0.504-0.049,0.777-0.188v-0.826c-0.231,0.183-0.427,0.252-0.686,0.252
		c-0.504,0-0.875-0.356-0.875-0.847s0.371-0.854,0.875-0.854c0.252,0,0.441,0.07,0.686,0.26V551.226z M148.538,551.807
		c0.477,0,0.848,0.378,0.848,0.861c0,0.455-0.385,0.84-0.848,0.84c-0.469,0-0.854-0.378-0.854-0.854
		C147.684,552.185,148.062,551.807,148.538,551.807 M149.295,551.142v0.393c-0.294-0.343-0.596-0.49-1.009-0.49
		c-0.833,0-1.476,0.7-1.476,1.61c0,0.924,0.636,1.616,1.49,1.616c0.421,0,0.722-0.146,0.995-0.489v0.392h0.846v-3.031H149.295z
		 M141.297,551.142v3.031h0.846v-1.554c0-0.294,0.028-0.455,0.098-0.581c0.084-0.161,0.287-0.273,0.476-0.273
		c0.196,0,0.386,0.119,0.456,0.294c0.049,0.112,0.063,0.245,0.063,0.505v1.609h0.846v-1.554c0-0.267,0.028-0.42,0.091-0.553
		c0.091-0.189,0.28-0.302,0.497-0.302c0.196,0,0.351,0.099,0.428,0.267c0.056,0.126,0.07,0.237,0.07,0.482v1.659h0.846v-1.96
		c0-0.336-0.049-0.553-0.161-0.735c-0.161-0.266-0.483-0.434-0.846-0.434c-0.428,0-0.757,0.182-0.995,0.553
		c-0.231-0.385-0.525-0.553-0.944-0.553c-0.372,0-0.645,0.126-0.925,0.448v-0.351H141.297z M138.609,551.142v3.031h0.846v-1.456
		c0-0.343,0.049-0.532,0.189-0.692c0.126-0.141,0.308-0.218,0.539-0.218c0.168,0,0.252,0.021,0.406,0.105l0.119-0.791
		c-0.154-0.063-0.238-0.077-0.371-0.077c-0.385,0-0.665,0.175-0.882,0.56v-0.462H138.609z M136.084,551.807
		c0.476,0,0.861,0.378,0.861,0.854c0,0.469-0.385,0.847-0.854,0.847c-0.484,0-0.862-0.378-0.862-0.86
		C135.229,552.193,135.621,551.807,136.084,551.807 M136.098,551.044c-1.016,0-1.743,0.665-1.743,1.589
		c0,0.974,0.699,1.638,1.715,1.638c1.036,0,1.749-0.657,1.749-1.616C137.819,551.703,137.113,551.044,136.098,551.044
		 M133.155,551.877h0.777v-0.735h-0.777v-0.847c0-0.238,0.014-0.364,0.063-0.469c0.049-0.133,0.182-0.217,0.329-0.217
		c0.112,0,0.203,0.027,0.385,0.111v-0.77c-0.182-0.084-0.28-0.105-0.448-0.105c-0.336,0-0.665,0.147-0.895,0.399
		c-0.203,0.23-0.28,0.476-0.28,0.924v0.973h-0.329v0.735h0.329v2.296h0.846V551.877z M128.394,551.142v3.031h0.846v-1.567
		c0-0.574,0.21-0.841,0.644-0.841c0.225,0,0.414,0.092,0.498,0.238c0.063,0.105,0.084,0.238,0.084,0.49v1.68h0.846v-1.925
		c0-0.413-0.063-0.637-0.238-0.84c-0.203-0.231-0.524-0.364-0.881-0.364c-0.414,0-0.687,0.133-0.953,0.476v-0.378H128.394z
		 M127.026,549.35c-0.279,0-0.51,0.231-0.51,0.504c0,0.287,0.224,0.519,0.51,0.519c0.28,0,0.511-0.231,0.511-0.511
		C127.537,549.575,127.313,549.35,127.026,549.35 M127.446,551.142H126.6v3.03h0.846V551.142z M122.651,553.439l1.716-2.311h-2.948
		v0.735h1.456l-1.722,2.31h3.102v-0.734H122.651z M117.01,553.711l-1.113,2.079h0.959l2.45-4.648h-0.973l-0.861,1.723l-0.91-1.723
		h-0.987L117.01,553.711z M113.103,551.142v3.031h0.847v-1.456c0-0.343,0.049-0.532,0.189-0.692
		c0.126-0.141,0.308-0.218,0.539-0.218c0.168,0,0.252,0.021,0.406,0.105l0.119-0.791c-0.154-0.063-0.238-0.077-0.371-0.077
		c-0.385,0-0.665,0.175-0.882,0.56v-0.462H113.103z M110.051,552.255c0.077-0.378,0.336-0.602,0.714-0.602s0.63,0.21,0.721,0.602
		H110.051z M112.298,552.794v-0.112c0-1.015-0.588-1.638-1.554-1.638c-0.966,0-1.589,0.637-1.589,1.617
		c0,0.973,0.644,1.609,1.631,1.609c0.714,0,1.225-0.321,1.484-0.944l-0.784-0.126c-0.196,0.287-0.399,0.406-0.721,0.406
		c-0.462,0-0.721-0.287-0.742-0.812H112.298z M104.285,551.142h-0.952l1.554,3.095h0.392l0.805-1.842l0.819,1.842h0.385l1.568-3.095
		h-0.945l-0.812,1.778l-0.826-1.862h-0.364l-0.826,1.834L104.285,551.142z M100.862,551.142v3.031h0.846v-1.456
		c0-0.343,0.049-0.532,0.189-0.692c0.126-0.141,0.308-0.218,0.539-0.218c0.168,0,0.252,0.021,0.406,0.105l0.119-0.791
		c-0.154-0.063-0.238-0.077-0.371-0.077c-0.385,0-0.665,0.175-0.882,0.56v-0.462H100.862z M97.81,552.255
		c0.077-0.378,0.336-0.602,0.714-0.602s0.63,0.21,0.721,0.602H97.81z M100.057,552.794v-0.112c0-1.015-0.588-1.638-1.554-1.638
		c-0.966,0-1.589,0.637-1.589,1.617c0,0.973,0.644,1.609,1.631,1.609c0.714,0,1.225-0.321,1.484-0.944l-0.784-0.126
		c-0.196,0.287-0.399,0.406-0.721,0.406c-0.462,0-0.721-0.287-0.742-0.812H100.057z M96.17,551.352
		c-0.294-0.217-0.608-0.321-0.987-0.321c-0.637,0-1.084,0.398-1.084,0.966c0,0.28,0.098,0.49,0.3,0.63
		c0.133,0.098,0.203,0.126,0.581,0.266c0.386,0.141,0.47,0.203,0.47,0.378c0,0.189-0.169,0.337-0.386,0.337
		c-0.252,0-0.476-0.112-0.721-0.357l-0.44,0.518c0.294,0.322,0.706,0.504,1.147,0.504c0.749,0,1.274-0.447,1.274-1.085
		c0-0.286-0.112-0.518-0.336-0.672c-0.14-0.104-0.245-0.153-0.587-0.272c-0.393-0.133-0.484-0.196-0.484-0.336
		c0-0.147,0.14-0.26,0.329-0.26c0.169,0,0.323,0.063,0.504,0.203L96.17,551.352z"/>
	<path clip-path="url(#SVGID_33_)" fill="#1A171B" d="M122.676,527.654v-1.358h0.315c0.336,0,0.532,0.042,0.672,0.146
		c0.147,0.112,0.238,0.315,0.238,0.539c0,0.449-0.287,0.673-0.854,0.673H122.676z M122.676,528.444h0.588
		c0.553,0,0.931-0.133,1.197-0.413c0.238-0.258,0.378-0.636,0.378-1.043c0-0.447-0.175-0.854-0.476-1.127
		c-0.294-0.258-0.623-0.355-1.232-0.355h-1.365v4.668h0.91V528.444z M120.505,525.505h-0.909v4.668h0.909V525.505z M115.003,529.711
		l-1.113,2.079h0.959l2.45-4.647h-0.973l-0.861,1.721l-0.91-1.721h-0.987L115.003,529.711z M112.591,527.877h0.602v-0.734h-0.602
		v-1.036h-0.846v1.036h-0.336v0.734h0.336v2.296h0.846V527.877z M108.672,528.256c0.077-0.379,0.336-0.604,0.714-0.604
		s0.63,0.21,0.721,0.604H108.672z M110.919,528.794v-0.112c0-1.015-0.588-1.637-1.554-1.637c-0.966,0-1.589,0.636-1.589,1.615
		c0,0.975,0.644,1.61,1.631,1.61c0.714,0,1.225-0.322,1.484-0.944l-0.784-0.127c-0.196,0.288-0.399,0.407-0.721,0.407
		c-0.462,0-0.721-0.287-0.742-0.812H110.919z M106.585,525.351c-0.28,0-0.51,0.231-0.51,0.503c0,0.287,0.223,0.519,0.51,0.519
		c0.28,0,0.511-0.231,0.511-0.512C107.097,525.575,106.873,525.351,106.585,525.351 M107.005,527.143h-0.846v3.03h0.846V527.143z
		 M103.204,524.931h-0.846v5.242h0.846v-1.21l0.091-0.091l1.134,1.301h1.169l-1.533-1.701l1.421-1.329h-1.148l-1.134,1.105V524.931z
		 M99.795,527.807c0.476,0,0.847,0.378,0.847,0.861c0,0.456-0.385,0.841-0.847,0.841c-0.47,0-0.855-0.378-0.855-0.855
		C98.94,528.185,99.318,527.807,99.795,527.807 M100.552,527.143v0.391c-0.294-0.342-0.595-0.488-1.008-0.488
		c-0.834,0-1.477,0.698-1.477,1.608c0,0.925,0.636,1.617,1.491,1.617c0.42,0,0.721-0.146,0.994-0.489v0.392h0.846v-3.03H100.552z
		 M95.693,527.807c0.477,0,0.855,0.378,0.855,0.861c0,0.456-0.385,0.841-0.848,0.841c-0.469,0-0.854-0.378-0.854-0.855
		C94.847,528.185,95.225,527.807,95.693,527.807 M94.938,531.791v-2.009c0.301,0.343,0.602,0.489,1.009,0.489
		c0.833,0,1.476-0.699,1.476-1.61c0-0.924-0.636-1.615-1.49-1.615c-0.421,0-0.722,0.146-0.995,0.488v-0.391h-0.846v4.647H94.938z"/>
	<path clip-path="url(#SVGID_33_)" fill="#1A171B" d="M144.134,503.807c0.476,0,0.847,0.378,0.847,0.862
		c0,0.454-0.385,0.84-0.847,0.84c-0.47,0-0.855-0.378-0.855-0.854C143.279,504.185,143.658,503.807,144.134,503.807
		 M144.891,503.143v0.391c-0.294-0.342-0.595-0.488-1.008-0.488c-0.834,0-1.477,0.698-1.477,1.609c0,0.924,0.636,1.616,1.491,1.616
		c0.42,0,0.721-0.147,0.994-0.489v0.392h0.846v-3.03H144.891z M139.909,503.143v3.03h0.846v-1.455c0-0.345,0.049-0.533,0.189-0.694
		c0.126-0.14,0.308-0.217,0.539-0.217c0.168,0,0.252,0.021,0.406,0.104l0.119-0.79c-0.154-0.062-0.238-0.076-0.371-0.076
		c-0.385,0-0.665,0.175-0.882,0.559v-0.461H139.909z M137.382,503.807c0.477,0,0.862,0.378,0.862,0.854
		c0,0.47-0.385,0.848-0.855,0.848c-0.483,0-0.861-0.378-0.861-0.861C136.528,504.192,136.92,503.807,137.382,503.807
		 M137.396,503.045c-1.015,0-1.742,0.663-1.742,1.589c0,0.973,0.699,1.637,1.714,1.637c1.037,0,1.75-0.657,1.75-1.616
		C139.119,503.702,138.413,503.045,137.396,503.045 M134.614,503.877h0.602v-0.734h-0.602v-1.036h-0.847v1.036h-0.336v0.734h0.336
		v2.296h0.847V503.877z M131.13,503.807c0.476,0,0.848,0.378,0.848,0.862c0,0.454-0.386,0.84-0.848,0.84
		c-0.469,0-0.854-0.378-0.854-0.854C130.276,504.185,130.654,503.807,131.13,503.807 M131.888,503.143v0.391
		c-0.295-0.342-0.596-0.488-1.009-0.488c-0.833,0-1.476,0.698-1.476,1.609c0,0.924,0.636,1.616,1.49,1.616
		c0.42,0,0.721-0.147,0.995-0.489v0.392h0.846v-3.03H131.888z M126.904,503.143v3.03h0.846v-1.455c0-0.345,0.049-0.533,0.189-0.694
		c0.126-0.14,0.308-0.217,0.539-0.217c0.168,0,0.252,0.021,0.406,0.104l0.119-0.79c-0.154-0.062-0.238-0.076-0.371-0.076
		c-0.385,0-0.665,0.175-0.882,0.559v-0.461H126.904z M123.853,504.256c0.077-0.379,0.336-0.604,0.714-0.604s0.63,0.21,0.721,0.604
		H123.853z M126.1,504.794v-0.112c0-1.016-0.588-1.637-1.554-1.637c-0.966,0-1.589,0.636-1.589,1.615c0,0.975,0.644,1.61,1.631,1.61
		c0.714,0,1.225-0.321,1.484-0.944l-0.784-0.126c-0.196,0.287-0.399,0.406-0.721,0.406c-0.462,0-0.721-0.287-0.742-0.812H126.1z
		 M120.584,503.807c0.476,0,0.854,0.378,0.854,0.862c0,0.454-0.385,0.84-0.847,0.84c-0.47,0-0.855-0.378-0.855-0.854
		C119.736,504.185,120.114,503.807,120.584,503.807 M119.828,507.79v-2.008c0.301,0.342,0.602,0.489,1.009,0.489
		c0.833,0,1.476-0.699,1.476-1.609c0-0.925-0.636-1.616-1.49-1.616c-0.421,0-0.722,0.146-0.995,0.488v-0.391h-0.846v4.646H119.828z
		 M116.457,503.807c0.476,0,0.861,0.378,0.861,0.854c0,0.47-0.385,0.848-0.854,0.848c-0.484,0-0.862-0.378-0.862-0.861
		C115.602,504.192,115.994,503.807,116.457,503.807 M116.471,503.045c-1.016,0-1.743,0.663-1.743,1.589
		c0,0.973,0.699,1.637,1.715,1.637c1.036,0,1.749-0.657,1.749-1.616C118.191,503.702,117.485,503.045,116.471,503.045
		 M110.619,503.143v3.03h0.846v-1.455c0-0.345,0.049-0.533,0.189-0.694c0.126-0.14,0.308-0.217,0.539-0.217
		c0.168,0,0.252,0.021,0.406,0.104l0.119-0.79c-0.154-0.062-0.238-0.076-0.371-0.076c-0.385,0-0.665,0.175-0.882,0.559v-0.461
		H110.619z M107.566,504.256c0.077-0.379,0.336-0.604,0.714-0.604c0.378,0,0.63,0.21,0.721,0.604H107.566z M109.813,504.794v-0.112
		c0-1.016-0.588-1.637-1.554-1.637c-0.966,0-1.589,0.636-1.589,1.615c0,0.975,0.644,1.61,1.631,1.61
		c0.714,0,1.225-0.321,1.484-0.944l-0.784-0.126c-0.196,0.287-0.399,0.406-0.721,0.406c-0.462,0-0.721-0.287-0.742-0.812H109.813z
		 M105.621,503.877h0.602v-0.734h-0.602v-1.036h-0.846v1.036h-0.336v0.734h0.336v2.296h0.846V503.877z M101.675,503.143h-0.846
		v1.854c0,0.819,0.524,1.273,1.47,1.273c0.938,0,1.462-0.454,1.462-1.273v-1.854h-0.846v1.715c0,0.455-0.21,0.693-0.616,0.693
		c-0.414,0-0.624-0.238-0.624-0.693V503.143z M98.314,503.807c0.476,0,0.862,0.378,0.862,0.854c0,0.47-0.386,0.848-0.855,0.848
		c-0.483,0-0.861-0.378-0.861-0.861C97.46,504.192,97.853,503.807,98.314,503.807 M98.329,503.045c-1.015,0-1.742,0.663-1.742,1.589
		c0,0.973,0.699,1.637,1.714,1.637c1.037,0,1.75-0.657,1.75-1.616C100.05,503.702,99.345,503.045,98.329,503.045 M94.091,503.143
		v3.03h0.846v-1.455c0-0.345,0.049-0.533,0.189-0.694c0.126-0.14,0.308-0.217,0.539-0.217c0.168,0,0.252,0.021,0.406,0.104
		l0.119-0.79c-0.154-0.062-0.238-0.076-0.371-0.076c-0.385,0-0.665,0.175-0.882,0.559v-0.461H94.091z"/>
</g>
<rect x="44.908" y="502.791" fill="#FFFFFF" width="27.099" height="7.439"/>
<rect x="44.908" y="502.791" fill="none" stroke="#1A171B" stroke-linejoin="round" width="27.099" height="7.439"/>
<polygon fill="#FFFFFF" points="72.086,502.742 72.086,510.229 81.562,498.203 81.562,490.835 "/>
<polygon fill="none" stroke="#1A171B" stroke-linejoin="round" points="72.086,502.742 72.086,510.229 81.562,498.203 
	81.562,490.835 "/>
<polygon fill="#FFFFFF" points="81.563,490.834 55.347,490.834 44.908,502.711 72.027,502.711 "/>
<polygon fill="none" stroke="#1A171B" stroke-linejoin="round" points="81.563,490.834 55.347,490.834 44.908,502.711 
	72.027,502.711 "/>
<g>
	<defs>
		<rect id="SVGID_21_" width="419.528" height="595.276"/>
	</defs>
	<clipPath id="SVGID_34_">
		<use xlink:href="#SVGID_21_"  overflow="visible"/>
	</clipPath>
	<path clip-path="url(#SVGID_34_)" fill="#1A171B" d="M74.044,483.894c0-0.497,0.403-0.901,0.901-0.901
		c0.496,0,0.899,0.404,0.899,0.901c0,0.496-0.403,0.898-0.899,0.898C74.447,484.792,74.044,484.39,74.044,483.894"/>
</g>
<polygon fill="#1A171B" points="74.707,483.827 74.062,493.208 75.762,493.21 75.179,483.827 "/>
<path fill="none" stroke="#00FF00" stroke-width="2" stroke-miterlimit="10" d="M108.819,273.759l-45.939,54.09 M276.712,281.341
	l71.514,59.247 M271.502,291.77v156.883 M278.843,292.717l39.782,122.327 M208.846,287.814v-78.812 M123.952,256.437l83.14-70.362
	 M288.53,264.598L216,190.054"/>
<g>
	<defs>
		<rect id="SVGID_20_" width="419.528" height="595.276"/>
	</defs>
	<clipPath id="SVGID_35_">
		<use xlink:href="#SVGID_20_"  overflow="visible"/>
	</clipPath>
	<path clip-path="url(#SVGID_35_)" fill="#FFFFFF" d="M369.919,356.427c0,0.556-0.454,1.009-1.008,1.009h-35.837
		c-0.555,0-1.008-0.453-1.008-1.009v-23.483c0-0.555,0.453-1.008,1.008-1.008h35.837c0.554,0,1.008,0.453,1.008,1.008V356.427z"/>
	<path clip-path="url(#SVGID_35_)" fill="none" stroke="#1A171B" stroke-miterlimit="10" d="M369.774,356.294
		c0,0.549-0.45,0.997-1.001,0.997h-35.562c-0.55,0-1.001-0.448-1.001-0.997v-23.218c0-0.548,0.451-0.997,1.001-0.997h35.562
		c0.551,0,1.001,0.449,1.001,0.997V356.294z"/>
</g>
<line fill="none" stroke="#00FF00" stroke-width="2" stroke-miterlimit="10" x1="192.285" y1="314.504" x2="192.285" y2="358.628"/>
<g>
	<defs>
		<rect id="SVGID_19_" width="419.528" height="595.276"/>
	</defs>
	<clipPath id="SVGID_36_">
		<use xlink:href="#SVGID_19_"  overflow="visible"/>
	</clipPath>
	<path clip-path="url(#SVGID_36_)" fill="#FFFFFF" d="M211.141,373.699c0,0.555-0.454,1.008-1.007,1.008h-35.837
		c-0.554,0-1.008-0.453-1.008-1.008v-23.484c0-0.554,0.454-1.008,1.008-1.008h35.837c0.554,0,1.007,0.454,1.007,1.008V373.699z"/>
	<path clip-path="url(#SVGID_36_)" fill="none" stroke="#1A171B" stroke-miterlimit="10" d="M210.997,373.566
		c0,0.548-0.45,0.997-1,0.997h-35.564c-0.55,0-1.001-0.449-1.001-0.997v-23.218c0-0.549,0.451-0.997,1.001-0.997h35.564
		c0.55,0,1,0.448,1,0.997V373.566z"/>
</g>
<line fill="none" stroke="#00FF00" stroke-width="2" stroke-miterlimit="10" x1="128.503" y1="421.568" x2="107.7" y2="281.861"/>
<g>
	<defs>
		<rect id="SVGID_18_" width="419.528" height="595.276"/>
	</defs>
	<clipPath id="SVGID_37_">
		<use xlink:href="#SVGID_18_"  overflow="visible"/>
	</clipPath>
	<path clip-path="url(#SVGID_37_)" fill="#FFFFFF" d="M151.579,443.726c0,0.555-0.454,1.008-1.008,1.008h-45.263
		c-0.554,0-1.008-0.453-1.008-1.008v-29.834c0-0.555,0.454-1.008,1.008-1.008h45.263c0.554,0,1.008,0.453,1.008,1.008V443.726z"/>
	<path clip-path="url(#SVGID_37_)" fill="none" stroke="#1A171B" stroke-miterlimit="10" d="M210.812,374.403l6.101,8.333
		 M151.606,443.584c0,0.553-0.453,1.006-1.006,1.006h-45.15c-0.554,0-1.006-0.453-1.006-1.006v-29.753
		c0-0.553,0.452-1.006,1.006-1.006h45.15c0.553,0,1.006,0.453,1.006,1.006V443.584z"/>
</g>
<rect x="176.063" y="351.866" fill="#00FF00" width="32.303" height="20.183"/>
<rect x="176.063" y="351.866" fill="none" stroke="#1A171B" stroke-miterlimit="10" width="32.303" height="20.183"/>
<g>
	<defs>
		<rect id="SVGID_17_" width="419.528" height="595.276"/>
	</defs>
	<clipPath id="SVGID_38_">
		<use xlink:href="#SVGID_17_"  overflow="visible"/>
	</clipPath>
	<path clip-path="url(#SVGID_38_)" fill="#FFFFFF" d="M216.974,382.485v2.992c0,0.555-0.454,1.009-1.008,1.009h-47.502
		c-0.554,0-1.008-0.454-1.008-1.009v-2.992"/>
	<path clip-path="url(#SVGID_38_)" fill="none" stroke="#1A171B" stroke-miterlimit="10" d="M173.612,374.608l-6.064,7.995
		 M216.83,382.418v2.934c0,0.544-0.451,0.989-1.003,0.989h-47.225c-0.551,0-1.002-0.445-1.002-0.989v-2.934"/>
</g>
<polygon fill="#1A171B" points="199.362,381.27 185.069,381.27 186.441,378.653 197.989,378.653 "/>
<line fill="none" stroke="#1A171B" stroke-width="1.002" stroke-miterlimit="10" x1="167.456" y1="382.914" x2="216.974" y2="382.914"/>
<line fill="none" stroke="#1A171B" stroke-miterlimit="10" x1="369.811" y1="357.127" x2="375.688" y2="365.321"/>
<rect x="334.841" y="334.595" fill="#00FF00" width="32.303" height="20.182"/>
<rect x="334.841" y="334.595" fill="none" stroke="#1A171B" stroke-miterlimit="10" width="32.303" height="20.182"/>
<g>
	<defs>
		<rect id="SVGID_16_" width="419.528" height="595.276"/>
	</defs>
	<clipPath id="SVGID_39_">
		<use xlink:href="#SVGID_16_"  overflow="visible"/>
	</clipPath>
	<path clip-path="url(#SVGID_39_)" fill="#FFFFFF" d="M375.752,365.213v2.993c0,0.554-0.454,1.008-1.009,1.008h-47.502
		c-0.554,0-1.008-0.454-1.008-1.008v-2.993"/>
	<path clip-path="url(#SVGID_39_)" fill="none" stroke="#1A171B" stroke-miterlimit="10" d="M332.39,357.337l-6.065,7.995
		 M375.607,365.147v2.935c0,0.544-0.451,0.988-1.002,0.988h-47.225c-0.552,0-1.003-0.444-1.003-0.988v-2.935"/>
</g>
<polygon fill="#1A171B" points="358.14,363.999 343.846,363.999 345.219,361.382 356.767,361.382 "/>
<line fill="none" stroke="#1A171B" stroke-width="1.002" stroke-miterlimit="10" x1="326.233" y1="365.643" x2="375.752" y2="365.643"/>
<rect x="107.73" y="416.169" fill="#00FF00" width="40.419" height="25.279"/>
<rect x="107.73" y="416.169" fill="none" stroke="#1A171B" stroke-miterlimit="10" width="40.419" height="25.279"/>
<g>
	<defs>
		<rect id="SVGID_15_" width="419.528" height="595.276"/>
	</defs>
	<clipPath id="SVGID_40_">
		<use xlink:href="#SVGID_15_"  overflow="visible"/>
	</clipPath>
	<path clip-path="url(#SVGID_40_)" fill="none" stroke="#1A171B" stroke-miterlimit="10" d="M175.152,450.996
		c0,0.551-0.452,1.001-1.004,1.001h-17.75c-0.551,0-1.003-0.45-1.003-1.001v-36.967c0-0.551,0.452-1.001,1.003-1.001h17.75
		c0.552,0,1.004,0.45,1.004,1.001V450.996z M134.194,450.298h-12.327v-5.653h12.327V450.298z M117.368,450.397h21.615v1.6h-21.615
		V450.397z"/>
</g>
<rect x="157.68" y="415.92" fill="#1A171B" width="15.375" height="3.332"/>
<rect x="157.68" y="421.61" fill="#1A171B" width="15.375" height="3.334"/>
<rect x="164.591" y="433.775" fill="#1A171B" width="1.554" height="1.418"/>
<rect x="167.483" y="433.775" fill="#1A171B" width="1.555" height="1.418"/>
<rect x="161.697" y="433.775" fill="#1A171B" width="1.554" height="1.418"/>
<rect x="157.68" y="446.216" fill="#1A171B" width="15.375" height="3.335"/>
<rect x="160.428" y="430.551" fill="#FFFFFF" width="1.555" height="1.418"/>
<g>
	<defs>
		<rect id="SVGID_14_" width="419.528" height="595.276"/>
	</defs>
	<clipPath id="SVGID_41_">
		<use xlink:href="#SVGID_14_"  overflow="visible"/>
	</clipPath>
	<path clip-path="url(#SVGID_41_)" fill="#FFFFFF" d="M357.187,438.63c0,0.555-0.454,1.008-1.008,1.008h-45.263
		c-0.555,0-1.008-0.453-1.008-1.008v-29.834c0-0.556,0.453-1.009,1.008-1.009h45.263c0.554,0,1.008,0.453,1.008,1.009V438.63z"/>
	<path clip-path="url(#SVGID_41_)" fill="none" stroke="#1A171B" stroke-miterlimit="10" d="M357.043,438.495
		c0,0.549-0.451,0.999-1.002,0.999h-44.986c-0.552,0-1.002-0.45-1.002-0.999v-29.563c0-0.55,0.45-0.999,1.002-0.999h44.986
		c0.551,0,1.002,0.449,1.002,0.999V438.495z"/>
</g>
<rect x="313.338" y="411.074" fill="#00FF00" width="40.419" height="25.279"/>
<rect x="313.338" y="411.074" fill="none" stroke="#1A171B" stroke-miterlimit="10" width="40.419" height="25.279"/>
<g>
	<defs>
		<rect id="SVGID_13_" width="419.528" height="595.276"/>
	</defs>
	<clipPath id="SVGID_42_">
		<use xlink:href="#SVGID_13_"  overflow="visible"/>
	</clipPath>
	<path clip-path="url(#SVGID_42_)" fill="none" stroke="#1A171B" stroke-miterlimit="10" d="M380.76,445.9
		c0,0.55-0.452,1.001-1.003,1.001h-17.75c-0.552,0-1.004-0.451-1.004-1.001v-36.967c0-0.551,0.452-1.001,1.004-1.001h17.75
		c0.551,0,1.003,0.45,1.003,1.001V445.9z M339.802,445.202h-12.327v-5.652h12.327V445.202z M322.976,445.301h21.615v1.6h-21.615
		V445.301z"/>
</g>
<rect x="370.199" y="428.679" fill="#1A171B" width="1.554" height="1.418"/>
<rect x="373.091" y="428.679" fill="#1A171B" width="1.556" height="1.418"/>
<rect x="367.305" y="428.679" fill="#1A171B" width="1.555" height="1.418"/>
<rect x="363.288" y="441.12" fill="#1A171B" width="15.375" height="3.335"/>
<rect x="366.036" y="425.455" fill="#FFFFFF" width="1.555" height="1.418"/>
<g>
	<defs>
		<rect id="SVGID_12_" width="419.528" height="595.276"/>
	</defs>
	<clipPath id="SVGID_43_">
		<use xlink:href="#SVGID_12_"  overflow="visible"/>
	</clipPath>
	<path clip-path="url(#SVGID_43_)" fill="#FFFFFF" d="M72.771,352.825c0,0.555-0.454,1.008-1.008,1.008H53.404
		c-0.555,0-1.009-0.453-1.009-1.008v-31.316c0-0.555,0.454-1.009,1.009-1.009h18.359c0.554,0,1.008,0.454,1.008,1.009V352.825z"/>
	<path clip-path="url(#SVGID_43_)" fill="none" stroke="#1A171B" stroke-miterlimit="10" d="M72.771,352.825
		c0,0.555-0.454,1.008-1.008,1.008H53.404c-0.555,0-1.009-0.453-1.009-1.008v-31.316c0-0.555,0.454-1.009,1.009-1.009h18.359
		c0.554,0,1.008,0.454,1.008,1.009V352.825z"/>
</g>
<rect x="55.105" y="323.311" fill="#00FF00" width="14.957" height="24.128"/>
<rect x="55.105" y="323.311" fill="none" stroke="#1A171B" stroke-miterlimit="10" width="14.957" height="24.128"/>
<g>
	<defs>
		<rect id="SVGID_11_" width="419.528" height="595.276"/>
	</defs>
	<clipPath id="SVGID_44_">
		<use xlink:href="#SVGID_11_"  overflow="visible"/>
	</clipPath>
	<path clip-path="url(#SVGID_44_)" fill="#1A171B" d="M63.584,350.706c0,0.555-0.448,1.003-1.002,1.003
		c-0.553,0-1.002-0.448-1.002-1.003c0-0.553,0.449-1.003,1.002-1.003C63.137,349.703,63.584,350.153,63.584,350.706"/>
	<circle clip-path="url(#SVGID_44_)" fill="none" stroke="#1A171B" stroke-miterlimit="10" cx="62.583" cy="350.706" r="1.002"/>
	<path clip-path="url(#SVGID_44_)" fill="#FFFFFF" d="M281.748,477.692c0,0.555-0.454,1.008-1.008,1.008h-18.359
		c-0.555,0-1.009-0.453-1.009-1.008v-31.316c0-0.555,0.454-1.009,1.009-1.009h18.359c0.554,0,1.008,0.454,1.008,1.009V477.692z"/>
	<path clip-path="url(#SVGID_44_)" fill="none" stroke="#1A171B" stroke-miterlimit="10" d="M281.604,477.556
		c0,0.55-0.446,0.999-0.993,0.999h-18.1c-0.547,0-0.994-0.449-0.994-0.999v-31.045c0-0.55,0.447-1,0.994-1h18.1
		c0.547,0,0.993,0.45,0.993,1V477.556z"/>
</g>
<rect x="264.226" y="448.321" fill="#00FF00" width="14.669" height="23.84"/>
<rect x="264.226" y="448.321" fill="none" stroke="#1A171B" stroke-miterlimit="10" width="14.669" height="23.84"/>
<g>
	<defs>
		<rect id="SVGID_10_" width="419.528" height="595.276"/>
	</defs>
	<clipPath id="SVGID_45_">
		<use xlink:href="#SVGID_10_"  overflow="visible"/>
	</clipPath>
	<path clip-path="url(#SVGID_45_)" fill="#1A171B" d="M272.418,475.573c0,0.474-0.384,0.859-0.858,0.859
		c-0.473,0-0.857-0.386-0.857-0.859s0.385-0.859,0.857-0.859C272.034,474.713,272.418,475.099,272.418,475.573"/>
	<circle clip-path="url(#SVGID_45_)" fill="none" stroke="#1A171B" stroke-miterlimit="10" cx="271.56" cy="475.573" r="0.858"/>
	<path clip-path="url(#SVGID_45_)" d="M287.602,264.445c0-0.562,0.455-1.018,1.018-1.018c0.561,0,1.017,0.456,1.017,1.018
		c0,0.561-0.456,1.017-1.017,1.017C288.057,265.462,287.602,265.006,287.602,264.445"/>
	<path clip-path="url(#SVGID_45_)" fill="#FFFFFF" d="M298.873,131.47c-4.146,0-8.095,0.83-11.714,2.303
		c0.027-0.646,0.098-1.286,0.098-1.936c0-23.145-18.7-41.903-41.77-41.903c-9.363,0-17.979,3.126-24.942,8.344
		c-6.455-14.775-21.145-25.107-38.256-25.107c-23.069,0-41.769,18.759-41.769,41.902c0,1.476,0.076,2.931,0.225,4.368
		c-12.203,1.946-21.577,12.342-21.976,25.041c-3.139-1.339-6.589-2.079-10.213-2.079c-14.443,0-26.153,11.746-26.153,26.237
		c0,14.487,11.71,26.236,26.153,26.236c2.523,0,4.958-0.38,7.264-1.05c0.028,23.123,18.714,41.857,41.771,41.857
		c13.891,0,26.167-6.833,33.758-17.299c7.411,11.698,20.411,19.487,35.248,19.487c16.718,0,31.101-9.875,37.777-24.106
		c0.359,0.015,0.718,0.055,1.09,0.055c12.554,0,23.033-8.876,25.556-20.715c2.516,0.654,5.14,1.038,7.854,1.038
		c17.26,0,31.237-14.027,31.237-31.335C330.11,145.501,316.133,131.47,298.873,131.47"/>
	<path clip-path="url(#SVGID_45_)" fill="none" stroke="#00FF00" stroke-width="3" stroke-miterlimit="10" d="M298.873,131.47
		c-4.146,0-8.095,0.83-11.714,2.303c0.027-0.646,0.098-1.286,0.098-1.936c0-23.145-18.7-41.903-41.77-41.903
		c-9.363,0-17.979,3.126-24.942,8.344c-6.455-14.775-21.145-25.107-38.256-25.107c-23.069,0-41.769,18.759-41.769,41.902
		c0,1.476,0.076,2.931,0.225,4.368c-12.203,1.946-21.577,12.342-21.976,25.041c-3.139-1.339-6.589-2.079-10.213-2.079
		c-14.443,0-26.153,11.746-26.153,26.237c0,14.487,11.71,26.236,26.153,26.236c2.523,0,4.958-0.38,7.264-1.05
		c0.028,23.123,18.714,41.857,41.771,41.857c13.891,0,26.167-6.833,33.758-17.299c7.411,11.698,20.411,19.487,35.248,19.487
		c16.718,0,31.101-9.875,37.777-24.106c0.359,0.015,0.718,0.055,1.09,0.055c12.554,0,23.033-8.876,25.556-20.715
		c2.516,0.654,5.14,1.038,7.854,1.038c17.26,0,31.237-14.027,31.237-31.335C330.11,145.501,316.133,131.47,298.873,131.47z"/>
</g>
<rect x="255.948" y="285.093" fill="#FFFFFF" width="29.508" height="8.163"/>
<rect x="255.948" y="285.093" fill="none" stroke="#1A171B" stroke-linejoin="round" width="29.508" height="8.163"/>
<polygon fill="#FFFFFF" points="285.456,285.093 285.456,293.256 295.832,280.145 295.832,272.112 "/>
<polygon fill="none" stroke="#1A171B" stroke-linejoin="round" points="285.456,285.093 285.456,293.256 295.832,280.145 
	295.832,272.112 "/>
<polygon fill="#FFFFFF" points="295.832,272.112 267.307,272.112 255.948,285.093 285.456,285.093 "/>
<polygon fill="none" stroke="#1A171B" stroke-linejoin="round" points="295.832,272.112 267.307,272.112 255.948,285.093 
	285.456,285.093 "/>
<g>
	<defs>
		<rect id="SVGID_9_" width="419.528" height="595.276"/>
	</defs>
	<clipPath id="SVGID_46_">
		<use xlink:href="#SVGID_9_"  overflow="visible"/>
	</clipPath>
	<path clip-path="url(#SVGID_46_)" fill="#1A171B" d="M287.626,264.619c0-0.54,0.438-0.978,0.978-0.978
		c0.539,0,0.977,0.438,0.977,0.978c0,0.539-0.438,0.976-0.977,0.976C288.063,265.595,287.626,265.158,287.626,264.619"/>
</g>
<polygon fill="#1A171B" points="288.345,264.546 287.644,274.733 289.49,274.734 288.858,264.546 "/>
<g>
	<defs>
		<rect id="SVGID_8_" width="419.528" height="595.276"/>
	</defs>
	<clipPath id="SVGID_47_">
		<use xlink:href="#SVGID_8_"  overflow="visible"/>
	</clipPath>
	<path clip-path="url(#SVGID_47_)" fill="#1A171B" d="M207.859,287.835c0-0.54,0.438-0.978,0.978-0.978
		c0.539,0,0.976,0.438,0.976,0.978c0,0.539-0.437,0.976-0.976,0.976C208.297,288.811,207.859,288.374,207.859,287.835"/>
</g>
<rect x="176.181" y="308.31" fill="#FFFFFF" width="29.508" height="8.163"/>
<rect x="176.181" y="308.31" fill="none" stroke="#1A171B" stroke-linejoin="round" width="29.508" height="8.163"/>
<polygon fill="#FFFFFF" points="205.689,308.31 205.689,316.473 216.065,303.361 216.065,295.329 "/>
<polygon fill="none" stroke="#1A171B" stroke-linejoin="round" points="205.689,308.31 205.689,316.473 216.065,303.361 
	216.065,295.329 "/>
<polygon fill="#FFFFFF" points="216.064,295.329 187.54,295.329 176.181,308.309 205.689,308.309 "/>
<polygon fill="none" stroke="#1A171B" stroke-linejoin="round" points="216.064,295.329 187.54,295.329 176.181,308.309 
	205.689,308.309 "/>
<polygon fill="#1A171B" points="208.578,287.762 207.877,297.949 209.723,297.95 209.091,287.762 "/>
<rect x="91.239" y="276.93" fill="#FFFFFF" width="29.508" height="8.163"/>
<rect x="91.239" y="276.93" fill="none" stroke="#1A171B" stroke-linejoin="round" width="29.508" height="8.163"/>
<polygon fill="#FFFFFF" points="120.748,276.93 120.748,285.093 131.124,271.981 131.124,263.949 "/>
<polygon fill="none" stroke="#1A171B" stroke-linejoin="round" points="120.748,276.93 120.748,285.093 131.124,271.981 
	131.124,263.949 "/>
<polygon fill="#FFFFFF" points="131.124,263.949 102.598,263.949 91.239,276.93 120.747,276.93 "/>
<polygon fill="none" stroke="#1A171B" stroke-linejoin="round" points="131.124,263.949 102.598,263.949 91.239,276.93 
	120.747,276.93 "/>
<g>
	<defs>
		<rect id="SVGID_7_" width="419.528" height="595.276"/>
	</defs>
	<clipPath id="SVGID_48_">
		<use xlink:href="#SVGID_7_"  overflow="visible"/>
	</clipPath>
	<path clip-path="url(#SVGID_48_)" fill="#1A171B" d="M122.917,256.456c0-0.54,0.438-0.978,0.978-0.978
		c0.539,0,0.976,0.438,0.976,0.978c0,0.539-0.437,0.976-0.976,0.976C123.355,257.432,122.917,256.995,122.917,256.456"/>
</g>
<polygon fill="#1A171B" points="123.637,256.383 122.936,266.57 124.781,266.571 124.149,256.383 "/>
<rect x="363.288" y="410.825" fill="#1A171B" width="15.375" height="3.332"/>
<rect x="363.288" y="416.514" fill="#1A171B" width="15.375" height="3.334"/>
<g>
	<defs>
		<rect id="SVGID_6_" width="419.528" height="595.276"/>
	</defs>
	<clipPath id="SVGID_49_">
		<use xlink:href="#SVGID_6_"  overflow="visible"/>
	</clipPath>
	<path clip-path="url(#SVGID_49_)" fill="#1A171B" d="M170.226,194.51c0-0.342,0.278-0.62,0.62-0.62c0.342,0,0.619,0.278,0.619,0.62
		c0,0.342-0.277,0.619-0.619,0.619C170.504,195.129,170.226,194.852,170.226,194.51"/>
</g>
<rect x="150.191" y="207.555" fill="#FFFFFF" width="18.601" height="5.062"/>
<rect x="150.191" y="207.555" fill="none" stroke="#1A171B" stroke-width="0.75" stroke-linejoin="round" width="18.601" height="5.062"/>
<polygon fill="#FFFFFF" points="168.908,207.484 168.908,212.617 175.374,204.372 175.374,199.321 "/>
<polygon fill="none" stroke="#1A171B" stroke-width="0.75" stroke-linejoin="round" points="168.908,207.484 168.908,212.617 
	175.374,204.372 175.374,199.321 "/>
<polygon fill="#FFFFFF" points="175.373,199.321 157.363,199.321 150.191,207.439 168.822,207.439 "/>
<polygon fill="none" stroke="#1A171B" stroke-width="0.75" stroke-linejoin="round" points="175.373,199.321 157.363,199.321 
	150.191,207.439 168.822,207.439 "/>
<polygon fill="#1A171B" points="170.682,194.464 170.238,200.925 171.408,200.926 171.007,194.464 "/>
<g>
	<defs>
		<rect id="SVGID_5_" width="419.528" height="595.276"/>
	</defs>
	<clipPath id="SVGID_50_">
		<use xlink:href="#SVGID_5_"  overflow="visible"/>
	</clipPath>
	<path clip-path="url(#SVGID_50_)" fill="#1A171B" d="M237.827,205.981c0-0.342,0.278-0.62,0.62-0.62s0.619,0.278,0.619,0.62
		c0,0.342-0.277,0.619-0.619,0.619S237.827,206.323,237.827,205.981"/>
</g>
<rect x="217.792" y="219.026" fill="#FFFFFF" width="18.601" height="5.062"/>
<rect x="217.792" y="219.026" fill="none" stroke="#1A171B" stroke-width="0.75" stroke-linejoin="round" width="18.601" height="5.062"/>
<polygon fill="#FFFFFF" points="236.509,218.955 236.509,224.088 242.975,215.843 242.975,210.792 "/>
<polygon fill="none" stroke="#1A171B" stroke-width="0.75" stroke-linejoin="round" points="236.509,218.955 236.509,224.088 
	242.975,215.843 242.975,210.792 "/>
<polygon fill="#FFFFFF" points="242.975,210.792 224.965,210.792 217.793,218.91 236.424,218.91 "/>
<polygon fill="none" stroke="#1A171B" stroke-width="0.75" stroke-linejoin="round" points="242.975,210.792 224.965,210.792 
	217.793,218.91 236.424,218.91 "/>
<polygon fill="#1A171B" points="238.283,205.935 237.84,212.396 239.01,212.397 238.608,205.935 "/>
<g>
	<defs>
		<rect id="SVGID_4_" width="419.528" height="595.276"/>
	</defs>
	<clipPath id="SVGID_51_">
		<use xlink:href="#SVGID_4_"  overflow="visible"/>
	</clipPath>
	<path clip-path="url(#SVGID_51_)" fill="#1A171B" d="M297.688,159.769c0-0.342,0.277-0.62,0.62-0.62
		c0.342,0,0.618,0.278,0.618,0.62c0,0.342-0.276,0.619-0.618,0.619C297.966,160.388,297.688,160.111,297.688,159.769"/>
</g>
<rect x="277.653" y="172.813" fill="#FFFFFF" width="18.601" height="5.062"/>
<rect x="277.653" y="172.813" fill="none" stroke="#1A171B" stroke-width="0.75" stroke-linejoin="round" width="18.601" height="5.062"/>
<polygon fill="#FFFFFF" points="296.37,172.743 296.37,177.875 302.836,169.63 302.836,164.58 "/>
<polygon fill="none" stroke="#1A171B" stroke-width="0.75" stroke-linejoin="round" points="296.37,172.743 296.37,177.875 
	302.836,169.63 302.836,164.58 "/>
<polygon fill="#FFFFFF" points="302.835,164.58 284.825,164.58 277.653,172.698 296.284,172.698 "/>
<polygon fill="none" stroke="#1A171B" stroke-width="0.75" stroke-linejoin="round" points="302.835,164.58 284.825,164.58 
	277.653,172.698 296.284,172.698 "/>
<polygon fill="#1A171B" points="298.145,159.723 297.7,166.184 298.87,166.185 298.47,159.723 "/>
<g>
	<defs>
		<rect id="SVGID_3_" width="419.528" height="595.276"/>
	</defs>
	<clipPath id="SVGID_52_">
		<use xlink:href="#SVGID_3_"  overflow="visible"/>
	</clipPath>
	<path clip-path="url(#SVGID_52_)" fill="#1A171B" d="M188.788,159.36c0-0.342,0.278-0.62,0.62-0.62c0.342,0,0.62,0.278,0.62,0.62
		c0,0.342-0.278,0.619-0.62,0.619C189.066,159.979,188.788,159.703,188.788,159.36"/>
</g>
<rect x="168.753" y="172.405" fill="#FFFFFF" width="18.601" height="5.062"/>
<rect x="168.753" y="172.405" fill="none" stroke="#1A171B" stroke-width="0.75" stroke-linejoin="round" width="18.601" height="5.062"/>
<polygon fill="#FFFFFF" points="187.47,172.334 187.47,177.467 193.935,169.222 193.935,164.171 "/>
<polygon fill="none" stroke="#1A171B" stroke-width="0.75" stroke-linejoin="round" points="187.47,172.334 187.47,177.467 
	193.935,169.222 193.935,164.171 "/>
<polygon fill="#FFFFFF" points="193.935,164.171 175.925,164.171 168.753,172.29 187.384,172.29 "/>
<polygon fill="none" stroke="#1A171B" stroke-width="0.75" stroke-linejoin="round" points="193.935,164.171 175.925,164.171 
	168.753,172.29 187.384,172.29 "/>
<polygon fill="#1A171B" points="189.244,159.314 188.8,165.775 189.97,165.776 189.569,159.314 "/>
<g>
	<defs>
		<rect id="SVGID_2_" width="419.528" height="595.276"/>
	</defs>
	<clipPath id="SVGID_53_">
		<use xlink:href="#SVGID_2_"  overflow="visible"/>
	</clipPath>
	<path clip-path="url(#SVGID_53_)" fill="#1A171B" d="M136.21,158.793c0-0.342,0.278-0.62,0.62-0.62s0.62,0.278,0.62,0.62
		c0,0.342-0.278,0.619-0.62,0.619S136.21,159.136,136.21,158.793"/>
</g>
<rect x="116.175" y="171.838" fill="#FFFFFF" width="18.601" height="5.062"/>
<rect x="116.175" y="171.838" fill="none" stroke="#1A171B" stroke-width="0.75" stroke-linejoin="round" width="18.601" height="5.062"/>
<polygon fill="#FFFFFF" points="134.892,171.767 134.892,176.9 141.357,168.655 141.357,163.604 "/>
<polygon fill="none" stroke="#1A171B" stroke-width="0.75" stroke-linejoin="round" points="134.892,171.767 134.892,176.9 
	141.357,168.655 141.357,163.604 "/>
<polygon fill="#FFFFFF" points="141.357,163.604 123.347,163.604 116.175,171.723 134.806,171.723 "/>
<polygon fill="none" stroke="#1A171B" stroke-width="0.75" stroke-linejoin="round" points="141.357,163.604 123.347,163.604 
	116.175,171.723 134.806,171.723 "/>
<polygon fill="#1A171B" points="136.667,158.748 136.223,165.208 137.393,165.209 136.992,158.748 "/>
<g>
	<defs>
		<rect id="SVGID_1_" width="419.528" height="595.276"/>
	</defs>
	<clipPath id="SVGID_54_">
		<use xlink:href="#SVGID_1_"  overflow="visible"/>
	</clipPath>
	<path clip-path="url(#SVGID_54_)" fill="#1A171B" d="M253.418,126.479c0-0.342,0.277-0.62,0.62-0.62c0.342,0,0.62,0.278,0.62,0.62
		c0,0.342-0.278,0.619-0.62,0.619C253.695,127.098,253.418,126.821,253.418,126.479"/>
</g>
<rect x="233.383" y="139.523" fill="#FFFFFF" width="18.602" height="5.062"/>
<rect x="233.383" y="139.523" fill="none" stroke="#1A171B" stroke-width="0.75" stroke-linejoin="round" width="18.602" height="5.062"/>
<polygon fill="#FFFFFF" points="252.1,139.452 252.1,144.585 258.564,136.34 258.564,131.289 "/>
<polygon fill="none" stroke="#1A171B" stroke-width="0.75" stroke-linejoin="round" points="252.1,139.452 252.1,144.585 
	258.564,136.34 258.564,131.289 "/>
<polygon fill="#FFFFFF" points="258.565,131.29 240.555,131.29 233.383,139.408 252.014,139.408 "/>
<polygon fill="none" stroke="#1A171B" stroke-width="0.75" stroke-linejoin="round" points="258.565,131.29 240.555,131.29 
	233.383,139.408 252.014,139.408 "/>
<polygon fill="#1A171B" points="253.874,126.433 253.431,132.894 254.601,132.895 254.199,126.433 "/>
<rect x="214.623" y="182.365" width="0.979" height="0.887"/>
<rect x="214.624" y="182.366" fill="none" stroke="#FFFFFF" stroke-width="0.318" stroke-linecap="round" stroke-linejoin="round" width="0.979" height="0.887"/>
<polygon fill="#1A171B" points="224.137,168.246 210.352,168.229 217.981,163.512 231.781,163.506 "/>
<polygon fill="none" stroke="#1A171B" stroke-linejoin="bevel" stroke-miterlimit="10" points="224.137,168.246 210.352,168.229 
	217.981,163.512 231.781,163.506 "/>
<polygon fill="#1A171B" points="231.775,163.47 231.775,189.729 224.188,195.073 224.188,168.352 "/>
<polygon fill="none" stroke="#1A171B" stroke-width="0.542" stroke-linecap="round" stroke-linejoin="round" stroke-miterlimit="10" points="
	231.775,163.47 231.775,189.729 224.188,195.073 224.188,168.352 "/>
<rect x="218.448" y="182.365" width="0.979" height="0.887"/>
<rect x="218.448" y="182.366" fill="none" stroke="#FFFFFF" stroke-width="0.318" stroke-linecap="round" stroke-linejoin="round" width="0.979" height="0.887"/>
<rect x="210.399" y="168.377" fill="#FFFFFF" width="13.671" height="26.661"/>
<rect x="210.399" y="168.377" fill="none" stroke="#1A171B" stroke-linejoin="bevel" stroke-miterlimit="10" width="13.671" height="26.661"/>
<rect x="211.97" y="170.566" fill="#1A171B" width="10.11" height="2.155"/>
<rect x="211.97" y="170.566" fill="none" stroke="#FFFFFF" stroke-width="0.318" stroke-linecap="round" stroke-linejoin="round" width="10.11" height="2.155"/>
<rect x="211.97" y="174.326" fill="#1A171B" width="10.11" height="2.155"/>
<rect x="211.97" y="174.326" fill="none" stroke="#FFFFFF" stroke-width="0.318" stroke-linecap="round" stroke-linejoin="round" width="10.11" height="2.155"/>
<rect x="211.97" y="190.585" fill="#1A171B" width="10.11" height="2.155"/>
<rect x="211.97" y="190.585" fill="none" stroke="#FFFFFF" stroke-width="0.318" stroke-linecap="round" stroke-linejoin="round" width="10.11" height="2.155"/>
<rect x="216.535" y="182.365" fill="#1A171B" width="0.979" height="0.887"/>
<rect x="216.536" y="182.366" fill="none" stroke="#1A171B" stroke-width="0.318" stroke-linecap="round" stroke-linejoin="round" width="0.979" height="0.887"/>
<rect x="218.448" y="182.365" fill="#1A171B" width="0.978" height="0.887"/>
<rect x="218.448" y="182.366" fill="none" stroke="#1A171B" stroke-width="0.318" stroke-linecap="round" stroke-linejoin="round" width="0.979" height="0.887"/>
<rect x="214.623" y="182.365" fill="#1A171B" width="0.979" height="0.887"/>
<rect x="214.623" y="182.366" fill="none" stroke="#1A171B" stroke-width="0.318" stroke-linecap="round" stroke-linejoin="round" width="0.979" height="0.887"/>
<rect x="230.865" y="182.365" width="0.979" height="0.887"/>
<rect x="230.866" y="182.366" fill="none" stroke="#FFFFFF" stroke-width="0.318" stroke-linecap="round" stroke-linejoin="round" width="0.979" height="0.887"/>
<polygon points="240.377,168.281 226.599,168.264 234.225,163.476 248.018,163.47 "/>
<polygon fill="none" stroke="#000000" stroke-width="0.542" stroke-linecap="round" stroke-linejoin="round" stroke-miterlimit="10" points="
	240.377,168.281 226.599,168.264 234.225,163.476 248.018,163.47 "/>
<polygon points="248.018,163.47 248.018,189.729 240.431,195.073 240.431,168.352 "/>
<polygon fill="none" stroke="#000000" stroke-width="0.542" stroke-linecap="round" stroke-linejoin="round" stroke-miterlimit="10" points="
	248.018,163.47 248.018,189.729 240.431,195.073 240.431,168.352 "/>
<rect x="234.689" y="182.365" width="0.979" height="0.887"/>
<rect x="234.69" y="182.366" fill="none" stroke="#FFFFFF" stroke-width="0.318" stroke-linecap="round" stroke-linejoin="round" width="0.979" height="0.887"/>
<rect x="226.605" y="168.341" fill="#FFFFFF" width="13.741" height="26.732"/>
<rect x="226.605" y="168.341" fill="none" stroke="#000000" stroke-width="0.542" stroke-linejoin="round" stroke-miterlimit="10" width="13.741" height="26.732"/>
<rect x="228.212" y="170.566" width="10.11" height="2.155"/>
<rect x="228.212" y="170.566" fill="none" stroke="#FFFFFF" stroke-width="0.318" stroke-linecap="round" stroke-linejoin="round" width="10.11" height="2.155"/>
<rect x="228.212" y="174.326" width="10.11" height="2.155"/>
<rect x="228.212" y="174.326" fill="none" stroke="#FFFFFF" stroke-width="0.318" stroke-linecap="round" stroke-linejoin="round" width="10.11" height="2.155"/>
<rect x="228.212" y="190.585" width="10.11" height="2.155"/>
<rect x="228.212" y="190.585" fill="none" stroke="#FFFFFF" stroke-width="0.318" stroke-linecap="round" stroke-linejoin="round" width="10.11" height="2.155"/>
<rect x="232.778" y="182.365" width="0.979" height="0.887"/>
<rect x="232.778" y="182.366" fill="none" stroke="#FFFFFF" stroke-width="0.318" stroke-linecap="round" stroke-linejoin="round" width="0.979" height="0.887"/>
<rect x="234.689" y="182.365" width="0.979" height="0.887"/>
<rect x="234.69" y="182.366" fill="none" stroke="#FFFFFF" stroke-width="0.318" stroke-linecap="round" stroke-linejoin="round" width="0.979" height="0.887"/>
<rect x="230.865" y="182.365" width="0.979" height="0.887"/>
<rect x="230.865" y="182.366" fill="none" stroke="#FFFFFF" stroke-width="0.318" stroke-linecap="round" stroke-linejoin="round" width="0.979" height="0.887"/>
<rect x="230.865" y="182.365" width="0.979" height="0.887"/>
<rect x="230.866" y="182.366" fill="none" stroke="#FFFFFF" stroke-width="0.318" stroke-linecap="round" stroke-linejoin="round" width="0.979" height="0.887"/>
<polygon fill="#1A171B" points="240.383,168.281 226.578,168.264 234.219,163.476 248.038,163.47 "/>
<polygon fill="none" stroke="#1A171B" stroke-width="0.542" stroke-linejoin="bevel" stroke-miterlimit="10" points="
	240.383,168.281 226.578,168.264 234.219,163.476 248.038,163.47 "/>
<polygon fill="#1A171B" points="248.018,163.47 248.018,189.729 240.431,195.073 240.431,168.352 "/>
<polygon fill="none" stroke="#1A171B" stroke-width="0.542" stroke-linecap="round" stroke-linejoin="round" stroke-miterlimit="10" points="
	248.018,163.47 248.018,189.729 240.431,195.073 240.431,168.352 "/>
<rect x="234.689" y="182.365" width="0.979" height="0.887"/>
<rect x="234.69" y="182.366" fill="none" stroke="#FFFFFF" stroke-width="0.318" stroke-linecap="round" stroke-linejoin="round" width="0.979" height="0.887"/>
<rect x="226.641" y="168.377" fill="#FFFFFF" width="13.671" height="26.661"/>
<rect x="226.641" y="168.377" fill="none" stroke="#1A171B" stroke-linejoin="bevel" stroke-miterlimit="10" width="13.671" height="26.661"/>
<rect x="228.212" y="170.566" fill="#1A171B" width="10.11" height="2.155"/>
<rect x="228.212" y="170.566" fill="none" stroke="#FFFFFF" stroke-width="0.318" stroke-linecap="round" stroke-linejoin="round" width="10.11" height="2.155"/>
<rect x="228.212" y="174.326" fill="#1A171B" width="10.11" height="2.155"/>
<rect x="228.212" y="174.326" fill="none" stroke="#FFFFFF" stroke-width="0.318" stroke-linecap="round" stroke-linejoin="round" width="10.11" height="2.155"/>
<rect x="228.212" y="190.585" fill="#1A171B" width="10.11" height="2.155"/>
<rect x="228.212" y="190.585" fill="none" stroke="#FFFFFF" stroke-width="0.318" stroke-linecap="round" stroke-linejoin="round" width="10.11" height="2.155"/>
<rect x="232.778" y="182.365" fill="#1A171B" width="0.979" height="0.887"/>
<rect x="232.778" y="182.366" fill="none" stroke="#1A171B" stroke-width="0.318" stroke-linecap="round" stroke-linejoin="round" width="0.979" height="0.887"/>
<rect x="234.689" y="182.365" fill="#1A171B" width="0.979" height="0.887"/>
<rect x="234.69" y="182.366" fill="none" stroke="#1A171B" stroke-width="0.318" stroke-linecap="round" stroke-linejoin="round" width="0.979" height="0.887"/>
<rect x="230.865" y="182.365" fill="#1A171B" width="0.979" height="0.887"/>
<rect x="230.865" y="182.366" fill="none" stroke="#1A171B" stroke-width="0.318" stroke-linecap="round" stroke-linejoin="round" width="0.979" height="0.887"/>
<rect x="247.108" y="182.365" width="0.979" height="0.887"/>
<rect x="247.108" y="182.366" fill="none" stroke="#FFFFFF" stroke-width="0.318" stroke-linecap="round" stroke-linejoin="round" width="0.979" height="0.887"/>
<polygon fill="#1A171B" points="256.625,168.281 242.819,168.264 250.461,163.476 264.279,163.47 "/>
<polygon fill="none" stroke="#1A171B" stroke-width="0.542" stroke-linejoin="bevel" stroke-miterlimit="10" points="
	256.625,168.281 242.819,168.264 250.461,163.476 264.279,163.47 "/>
<polygon fill="#1A171B" points="264.224,163.491 264.224,189.716 256.708,195.054 256.708,168.366 "/>
<polygon fill="none" stroke="#1A171B" stroke-linecap="round" stroke-linejoin="bevel" stroke-miterlimit="10" points="
	264.224,163.491 264.224,189.716 256.708,195.054 256.708,168.366 "/>
<rect x="250.932" y="182.365" width="0.979" height="0.887"/>
<rect x="250.932" y="182.366" fill="none" stroke="#FFFFFF" stroke-width="0.318" stroke-linecap="round" stroke-linejoin="round" width="0.979" height="0.887"/>
<rect x="242.883" y="168.377" fill="#FFFFFF" width="13.671" height="26.661"/>
<rect x="242.883" y="168.377" fill="none" stroke="#1A171B" stroke-linejoin="bevel" stroke-miterlimit="10" width="13.671" height="26.661"/>
<rect x="244.454" y="170.566" fill="#1A171B" width="10.11" height="2.155"/>
<rect x="244.454" y="170.566" fill="none" stroke="#FFFFFF" stroke-width="0.318" stroke-linecap="round" stroke-linejoin="round" width="10.11" height="2.155"/>
<rect x="244.454" y="174.326" fill="#1A171B" width="10.11" height="2.155"/>
<rect x="244.454" y="174.326" fill="none" stroke="#FFFFFF" stroke-width="0.318" stroke-linecap="round" stroke-linejoin="round" width="10.11" height="2.155"/>
<rect x="244.454" y="190.585" fill="#1A171B" width="10.11" height="2.155"/>
<rect x="244.454" y="190.585" fill="none" stroke="#FFFFFF" stroke-width="0.318" stroke-linecap="round" stroke-linejoin="round" width="10.11" height="2.155"/>
<rect x="249.02" y="182.365" fill="#1A171B" width="0.979" height="0.887"/>
<rect x="249.02" y="182.366" fill="none" stroke="#1A171B" stroke-width="0.318" stroke-linecap="round" stroke-linejoin="round" width="0.979" height="0.887"/>
<rect x="250.932" y="182.365" fill="#1A171B" width="0.979" height="0.887"/>
<rect x="250.932" y="182.366" fill="none" stroke="#1A171B" stroke-width="0.318" stroke-linecap="round" stroke-linejoin="round" width="0.979" height="0.887"/>
<rect x="247.108" y="182.365" fill="#1A171B" width="0.978" height="0.887"/>
<rect x="247.107" y="182.366" fill="none" stroke="#1A171B" stroke-width="0.318" stroke-linecap="round" stroke-linejoin="round" width="0.979" height="0.887"/>
<rect x="216.368" y="162.17" fill="#FFFFFF" width="49.737" height="1.195"/>
<rect x="168.189" y="130.748" width="0.979" height="0.887"/>
<rect x="168.19" y="130.748" fill="none" stroke="#FFFFFF" stroke-width="0.318" stroke-linecap="round" stroke-linejoin="round" width="0.979" height="0.887"/>
<polygon fill="#1A171B" points="177.703,116.627 163.917,116.61 171.548,111.894 185.348,111.888 "/>
<polygon fill="none" stroke="#1A171B" stroke-linejoin="bevel" stroke-miterlimit="10" points="177.703,116.627 163.917,116.61 
	171.548,111.894 185.348,111.888 "/>
<polygon fill="#1A171B" points="185.341,111.852 185.341,138.111 177.754,143.455 177.754,116.734 "/>
<polygon fill="none" stroke="#1A171B" stroke-width="0.542" stroke-linecap="round" stroke-linejoin="round" stroke-miterlimit="10" points="
	185.341,111.852 185.341,138.111 177.754,143.455 177.754,116.734 "/>
<rect x="172.013" y="130.748" width="0.98" height="0.887"/>
<rect x="172.014" y="130.748" fill="none" stroke="#FFFFFF" stroke-width="0.318" stroke-linecap="round" stroke-linejoin="round" width="0.979" height="0.887"/>
<rect x="163.965" y="116.759" fill="#FFFFFF" width="13.671" height="26.661"/>
<rect x="163.965" y="116.759" fill="none" stroke="#1A171B" stroke-linejoin="bevel" stroke-miterlimit="10" width="13.671" height="26.661"/>
<rect x="165.537" y="118.948" fill="#1A171B" width="10.11" height="2.155"/>
<rect x="165.537" y="118.948" fill="none" stroke="#FFFFFF" stroke-width="0.318" stroke-linecap="round" stroke-linejoin="round" width="10.11" height="2.155"/>
<rect x="165.537" y="122.707" fill="#1A171B" width="10.11" height="2.155"/>
<rect x="165.537" y="122.707" fill="none" stroke="#FFFFFF" stroke-width="0.318" stroke-linecap="round" stroke-linejoin="round" width="10.11" height="2.155"/>
<rect x="165.537" y="138.967" fill="#1A171B" width="10.11" height="2.155"/>
<rect x="165.537" y="138.967" fill="none" stroke="#FFFFFF" stroke-width="0.318" stroke-linecap="round" stroke-linejoin="round" width="10.11" height="2.155"/>
<rect x="170.102" y="130.748" fill="#1A171B" width="0.979" height="0.887"/>
<rect x="170.102" y="130.748" fill="none" stroke="#1A171B" stroke-width="0.318" stroke-linecap="round" stroke-linejoin="round" width="0.979" height="0.887"/>
<rect x="172.013" y="130.748" fill="#1A171B" width="0.979" height="0.887"/>
<rect x="172.014" y="130.748" fill="none" stroke="#1A171B" stroke-width="0.318" stroke-linecap="round" stroke-linejoin="round" width="0.979" height="0.887"/>
<rect x="168.189" y="130.748" fill="#1A171B" width="0.979" height="0.887"/>
<rect x="168.189" y="130.748" fill="none" stroke="#1A171B" stroke-width="0.318" stroke-linecap="round" stroke-linejoin="round" width="0.979" height="0.887"/>
<rect x="184.432" y="130.748" width="0.979" height="0.887"/>
<rect x="184.432" y="130.748" fill="none" stroke="#FFFFFF" stroke-width="0.318" stroke-linecap="round" stroke-linejoin="round" width="0.979" height="0.887"/>
<polygon points="193.943,116.663 180.165,116.646 187.791,111.858 201.584,111.852 "/>
<polygon fill="none" stroke="#000000" stroke-width="0.542" stroke-linecap="round" stroke-linejoin="round" stroke-miterlimit="10" points="
	193.943,116.663 180.165,116.646 187.791,111.858 201.584,111.852 "/>
<polygon points="201.583,111.852 201.583,138.111 193.997,143.455 193.997,116.734 "/>
<polygon fill="none" stroke="#000000" stroke-width="0.542" stroke-linecap="round" stroke-linejoin="round" stroke-miterlimit="10" points="
	201.583,111.852 201.583,138.111 193.997,143.455 193.997,116.734 "/>
<rect x="188.256" y="130.748" width="0.979" height="0.887"/>
<rect x="188.256" y="130.748" fill="none" stroke="#FFFFFF" stroke-width="0.318" stroke-linecap="round" stroke-linejoin="round" width="0.979" height="0.887"/>
<rect x="180.171" y="116.723" fill="#FFFFFF" width="13.742" height="26.732"/>
<rect x="180.171" y="116.723" fill="none" stroke="#000000" stroke-width="0.542" stroke-linejoin="round" stroke-miterlimit="10" width="13.742" height="26.732"/>
<rect x="181.779" y="118.948" width="10.11" height="2.155"/>
<rect x="181.779" y="118.948" fill="none" stroke="#FFFFFF" stroke-width="0.318" stroke-linecap="round" stroke-linejoin="round" width="10.11" height="2.155"/>
<rect x="181.779" y="122.707" width="10.11" height="2.155"/>
<rect x="181.779" y="122.707" fill="none" stroke="#FFFFFF" stroke-width="0.318" stroke-linecap="round" stroke-linejoin="round" width="10.11" height="2.155"/>
<rect x="181.779" y="138.967" width="10.11" height="2.155"/>
<rect x="181.779" y="138.967" fill="none" stroke="#FFFFFF" stroke-width="0.318" stroke-linecap="round" stroke-linejoin="round" width="10.11" height="2.155"/>
<rect x="186.344" y="130.748" width="0.978" height="0.887"/>
<rect x="186.344" y="130.748" fill="none" stroke="#FFFFFF" stroke-width="0.318" stroke-linecap="round" stroke-linejoin="round" width="0.979" height="0.887"/>
<rect x="188.256" y="130.748" width="0.979" height="0.887"/>
<rect x="188.256" y="130.748" fill="none" stroke="#FFFFFF" stroke-width="0.318" stroke-linecap="round" stroke-linejoin="round" width="0.979" height="0.887"/>
<rect x="184.432" y="130.748" width="0.978" height="0.887"/>
<rect x="184.431" y="130.748" fill="none" stroke="#FFFFFF" stroke-width="0.318" stroke-linecap="round" stroke-linejoin="round" width="0.979" height="0.887"/>
<rect x="184.432" y="130.748" width="0.979" height="0.887"/>
<rect x="184.432" y="130.748" fill="none" stroke="#FFFFFF" stroke-width="0.318" stroke-linecap="round" stroke-linejoin="round" width="0.979" height="0.887"/>
<polygon fill="#1A171B" points="193.949,116.663 180.144,116.646 187.785,111.858 201.604,111.852 "/>
<polygon fill="none" stroke="#1A171B" stroke-width="0.542" stroke-linejoin="bevel" stroke-miterlimit="10" points="
	193.949,116.663 180.144,116.646 187.785,111.858 201.604,111.852 "/>
<polygon fill="#1A171B" points="201.583,111.852 201.583,138.111 193.997,143.455 193.997,116.734 "/>
<polygon fill="none" stroke="#1A171B" stroke-width="0.542" stroke-linecap="round" stroke-linejoin="round" stroke-miterlimit="10" points="
	201.583,111.852 201.583,138.111 193.997,143.455 193.997,116.734 "/>
<rect x="188.256" y="130.748" width="0.979" height="0.887"/>
<rect x="188.256" y="130.748" fill="none" stroke="#FFFFFF" stroke-width="0.318" stroke-linecap="round" stroke-linejoin="round" width="0.979" height="0.887"/>
<rect x="180.207" y="116.759" fill="#FFFFFF" width="13.671" height="26.661"/>
<rect x="180.207" y="116.759" fill="none" stroke="#1A171B" stroke-linejoin="bevel" stroke-miterlimit="10" width="13.671" height="26.661"/>
<rect x="181.779" y="118.948" fill="#1A171B" width="10.11" height="2.155"/>
<rect x="181.779" y="118.948" fill="none" stroke="#FFFFFF" stroke-width="0.318" stroke-linecap="round" stroke-linejoin="round" width="10.11" height="2.155"/>
<rect x="181.779" y="122.707" fill="#1A171B" width="10.11" height="2.155"/>
<rect x="181.779" y="122.707" fill="none" stroke="#FFFFFF" stroke-width="0.318" stroke-linecap="round" stroke-linejoin="round" width="10.11" height="2.155"/>
<rect x="181.779" y="138.967" fill="#1A171B" width="10.11" height="2.155"/>
<rect x="181.779" y="138.967" fill="none" stroke="#FFFFFF" stroke-width="0.318" stroke-linecap="round" stroke-linejoin="round" width="10.11" height="2.155"/>
<rect x="186.344" y="130.748" fill="#1A171B" width="0.978" height="0.887"/>
<rect x="186.344" y="130.748" fill="none" stroke="#1A171B" stroke-width="0.318" stroke-linecap="round" stroke-linejoin="round" width="0.979" height="0.887"/>
<rect x="188.256" y="130.748" fill="#1A171B" width="0.979" height="0.887"/>
<rect x="188.256" y="130.748" fill="none" stroke="#1A171B" stroke-width="0.318" stroke-linecap="round" stroke-linejoin="round" width="0.979" height="0.887"/>
<rect x="184.432" y="130.748" fill="#1A171B" width="0.978" height="0.887"/>
<rect x="184.431" y="130.748" fill="none" stroke="#1A171B" stroke-width="0.318" stroke-linecap="round" stroke-linejoin="round" width="0.979" height="0.887"/>
<rect x="200.673" y="130.748" width="0.98" height="0.887"/>
<rect x="200.674" y="130.748" fill="none" stroke="#FFFFFF" stroke-width="0.318" stroke-linecap="round" stroke-linejoin="round" width="0.979" height="0.887"/>
<polygon fill="#1A171B" points="210.191,116.663 196.386,116.646 204.027,111.858 217.846,111.852 "/>
<polygon fill="none" stroke="#1A171B" stroke-width="0.542" stroke-linejoin="bevel" stroke-miterlimit="10" points="
	210.191,116.663 196.386,116.646 204.027,111.858 217.846,111.852 "/>
<polygon fill="#1A171B" points="217.79,111.873 217.79,138.098 210.274,143.436 210.274,116.748 "/>
<polygon fill="none" stroke="#1A171B" stroke-linecap="round" stroke-linejoin="bevel" stroke-miterlimit="10" points="
	217.79,111.873 217.79,138.098 210.274,143.436 210.274,116.748 "/>
<rect x="204.498" y="130.748" width="0.979" height="0.887"/>
<rect x="204.498" y="130.748" fill="none" stroke="#FFFFFF" stroke-width="0.318" stroke-linecap="round" stroke-linejoin="round" width="0.979" height="0.887"/>
<rect x="196.449" y="116.759" fill="#FFFFFF" width="13.671" height="26.661"/>
<rect x="196.449" y="116.759" fill="none" stroke="#1A171B" stroke-linejoin="bevel" stroke-miterlimit="10" width="13.671" height="26.661"/>
<rect x="198.02" y="118.948" fill="#1A171B" width="10.11" height="2.155"/>
<rect x="198.02" y="118.948" fill="none" stroke="#FFFFFF" stroke-width="0.318" stroke-linecap="round" stroke-linejoin="round" width="10.11" height="2.155"/>
<rect x="198.02" y="122.707" fill="#1A171B" width="10.11" height="2.155"/>
<rect x="198.02" y="122.707" fill="none" stroke="#FFFFFF" stroke-width="0.318" stroke-linecap="round" stroke-linejoin="round" width="10.11" height="2.155"/>
<rect x="198.02" y="138.967" fill="#1A171B" width="10.11" height="2.155"/>
<rect x="198.02" y="138.967" fill="none" stroke="#FFFFFF" stroke-width="0.318" stroke-linecap="round" stroke-linejoin="round" width="10.11" height="2.155"/>
<rect x="202.585" y="130.748" fill="#1A171B" width="0.979" height="0.887"/>
<rect x="202.586" y="130.748" fill="none" stroke="#1A171B" stroke-width="0.318" stroke-linecap="round" stroke-linejoin="round" width="0.979" height="0.887"/>
<rect x="204.498" y="130.748" fill="#1A171B" width="0.978" height="0.887"/>
<rect x="204.498" y="130.748" fill="none" stroke="#1A171B" stroke-width="0.318" stroke-linecap="round" stroke-linejoin="round" width="0.979" height="0.887"/>
<rect x="200.673" y="130.748" fill="#1A171B" width="0.979" height="0.887"/>
<rect x="200.673" y="130.748" fill="none" stroke="#1A171B" stroke-width="0.318" stroke-linecap="round" stroke-linejoin="round" width="0.979" height="0.887"/>
<rect x="169.935" y="110.552" fill="#FFFFFF" width="49.737" height="1.195"/>
<rect x="45.839" y="551.644" width="0.737" height="0.668"/>
<rect x="45.838" y="551.644" fill="none" stroke="#FFFFFF" stroke-width="0.239" stroke-linecap="round" stroke-linejoin="round" width="0.737" height="0.667"/>
<polygon fill="#1A171B" points="52.993,541.026 42.627,541.013 48.364,537.466 58.742,537.461 "/>
<polygon fill="none" stroke="#1A171B" stroke-width="0.752" stroke-linejoin="bevel" stroke-miterlimit="10" points="
	52.993,541.026 42.627,541.013 48.364,537.466 58.742,537.461 "/>
<polygon fill="#1A171B" points="58.737,537.435 58.737,557.182 53.032,561.201 53.032,541.106 "/>
<polygon fill="none" stroke="#1A171B" stroke-width="0.408" stroke-linecap="round" stroke-linejoin="round" stroke-miterlimit="10" points="
	58.737,537.435 58.737,557.182 53.032,561.201 53.032,541.106 "/>
<rect x="48.715" y="551.644" width="0.736" height="0.668"/>
<rect x="48.714" y="551.644" fill="none" stroke="#FFFFFF" stroke-width="0.239" stroke-linecap="round" stroke-linejoin="round" width="0.737" height="0.667"/>
<rect x="42.662" y="541.125" fill="#FFFFFF" width="10.281" height="20.05"/>
<rect x="42.662" y="541.125" fill="none" stroke="#1A171B" stroke-width="0.752" stroke-linejoin="bevel" stroke-miterlimit="10" width="10.281" height="20.05"/>
<rect x="43.844" y="542.772" fill="#1A171B" width="7.603" height="1.62"/>
<rect x="43.844" y="542.772" fill="none" stroke="#FFFFFF" stroke-width="0.239" stroke-linecap="round" stroke-linejoin="round" width="7.603" height="1.62"/>
<rect x="43.844" y="545.599" fill="#1A171B" width="7.603" height="1.62"/>
<rect x="43.844" y="545.599" fill="none" stroke="#FFFFFF" stroke-width="0.239" stroke-linecap="round" stroke-linejoin="round" width="7.603" height="1.62"/>
<rect x="43.844" y="557.826" fill="#1A171B" width="7.603" height="1.62"/>
<rect x="43.844" y="557.826" fill="none" stroke="#FFFFFF" stroke-width="0.239" stroke-linecap="round" stroke-linejoin="round" width="7.603" height="1.62"/>
<rect x="47.277" y="551.644" fill="#1A171B" width="0.736" height="0.668"/>
<rect x="47.277" y="551.644" fill="none" stroke="#1A171B" stroke-width="0.239" stroke-linecap="round" stroke-linejoin="round" width="0.736" height="0.667"/>
<rect x="48.715" y="551.644" fill="#1A171B" width="0.736" height="0.668"/>
<rect x="48.715" y="551.644" fill="none" stroke="#1A171B" stroke-width="0.239" stroke-linecap="round" stroke-linejoin="round" width="0.736" height="0.667"/>
<rect x="45.839" y="551.644" fill="#1A171B" width="0.736" height="0.668"/>
<rect x="45.839" y="551.644" fill="none" stroke="#1A171B" stroke-width="0.239" stroke-linecap="round" stroke-linejoin="round" width="0.736" height="0.667"/>
<rect x="58.053" y="551.644" width="0.737" height="0.668"/>
<rect x="58.052" y="551.644" fill="none" stroke="#FFFFFF" stroke-width="0.239" stroke-linecap="round" stroke-linejoin="round" width="0.737" height="0.667"/>
<polygon points="65.206,541.052 54.845,541.04 60.58,537.44 70.952,537.435 "/>
<polygon fill="none" stroke="#000000" stroke-width="0.408" stroke-linecap="round" stroke-linejoin="round" stroke-miterlimit="10" points="
	65.206,541.052 54.845,541.04 60.58,537.44 70.952,537.435 "/>
<polygon points="70.951,537.435 70.951,557.182 65.246,561.201 65.246,541.106 "/>
<polygon fill="none" stroke="#000000" stroke-width="0.408" stroke-linecap="round" stroke-linejoin="round" stroke-miterlimit="10" points="
	70.951,537.435 70.951,557.182 65.246,561.201 65.246,541.106 "/>
<rect x="60.929" y="551.644" width="0.736" height="0.668"/>
<rect x="60.928" y="551.644" fill="none" stroke="#FFFFFF" stroke-width="0.239" stroke-linecap="round" stroke-linejoin="round" width="0.737" height="0.667"/>
<rect x="54.849" y="541.098" fill="#FFFFFF" width="10.334" height="20.102"/>
<rect x="54.849" y="541.098" fill="none" stroke="#000000" stroke-width="0.408" stroke-linejoin="round" stroke-miterlimit="10" width="10.334" height="20.102"/>
<rect x="56.058" y="542.772" width="7.603" height="1.62"/>
<rect x="56.058" y="542.772" fill="none" stroke="#FFFFFF" stroke-width="0.239" stroke-linecap="round" stroke-linejoin="round" width="7.603" height="1.62"/>
<rect x="56.058" y="545.599" width="7.603" height="1.62"/>
<rect x="56.058" y="545.599" fill="none" stroke="#FFFFFF" stroke-width="0.239" stroke-linecap="round" stroke-linejoin="round" width="7.603" height="1.62"/>
<rect x="56.058" y="557.826" width="7.603" height="1.62"/>
<rect x="56.058" y="557.826" fill="none" stroke="#FFFFFF" stroke-width="0.239" stroke-linecap="round" stroke-linejoin="round" width="7.603" height="1.62"/>
<rect x="59.491" y="551.644" width="0.736" height="0.668"/>
<rect x="59.491" y="551.644" fill="none" stroke="#FFFFFF" stroke-width="0.239" stroke-linecap="round" stroke-linejoin="round" width="0.736" height="0.667"/>
<rect x="60.929" y="551.644" width="0.736" height="0.668"/>
<rect x="60.929" y="551.644" fill="none" stroke="#FFFFFF" stroke-width="0.239" stroke-linecap="round" stroke-linejoin="round" width="0.736" height="0.667"/>
<rect x="58.053" y="551.644" width="0.736" height="0.668"/>
<rect x="58.053" y="551.644" fill="none" stroke="#FFFFFF" stroke-width="0.239" stroke-linecap="round" stroke-linejoin="round" width="0.736" height="0.667"/>
<rect x="58.053" y="551.644" width="0.737" height="0.668"/>
<rect x="58.052" y="551.644" fill="none" stroke="#FFFFFF" stroke-width="0.239" stroke-linecap="round" stroke-linejoin="round" width="0.737" height="0.667"/>
<polygon fill="#1A171B" points="65.21,541.052 54.829,541.04 60.575,537.44 70.967,537.435 "/>
<polygon fill="none" stroke="#1A171B" stroke-width="0.408" stroke-linejoin="bevel" stroke-miterlimit="10" points="65.21,541.052 
	54.829,541.04 60.575,537.44 70.967,537.435 "/>
<polygon fill="#1A171B" points="70.951,537.435 70.951,557.182 65.246,561.201 65.246,541.106 "/>
<polygon fill="none" stroke="#1A171B" stroke-width="0.408" stroke-linecap="round" stroke-linejoin="round" stroke-miterlimit="10" points="
	70.951,537.435 70.951,557.182 65.246,561.201 65.246,541.106 "/>
<rect x="60.929" y="551.644" width="0.736" height="0.668"/>
<rect x="60.928" y="551.644" fill="none" stroke="#FFFFFF" stroke-width="0.239" stroke-linecap="round" stroke-linejoin="round" width="0.737" height="0.667"/>
<rect x="54.876" y="541.125" fill="#FFFFFF" width="10.281" height="20.05"/>
<rect x="54.876" y="541.125" fill="none" stroke="#1A171B" stroke-width="0.752" stroke-linejoin="bevel" stroke-miterlimit="10" width="10.281" height="20.05"/>
<rect x="56.058" y="542.772" fill="#1A171B" width="7.603" height="1.62"/>
<rect x="56.058" y="542.772" fill="none" stroke="#FFFFFF" stroke-width="0.239" stroke-linecap="round" stroke-linejoin="round" width="7.603" height="1.62"/>
<rect x="56.058" y="545.599" fill="#1A171B" width="7.603" height="1.62"/>
<rect x="56.058" y="545.599" fill="none" stroke="#FFFFFF" stroke-width="0.239" stroke-linecap="round" stroke-linejoin="round" width="7.603" height="1.62"/>
<rect x="56.058" y="557.826" fill="#1A171B" width="7.603" height="1.62"/>
<rect x="56.058" y="557.826" fill="none" stroke="#FFFFFF" stroke-width="0.239" stroke-linecap="round" stroke-linejoin="round" width="7.603" height="1.62"/>
<rect x="59.491" y="551.644" fill="#1A171B" width="0.736" height="0.668"/>
<rect x="59.491" y="551.644" fill="none" stroke="#1A171B" stroke-width="0.239" stroke-linecap="round" stroke-linejoin="round" width="0.736" height="0.667"/>
<rect x="60.929" y="551.644" fill="#1A171B" width="0.736" height="0.668"/>
<rect x="60.929" y="551.644" fill="none" stroke="#1A171B" stroke-width="0.239" stroke-linecap="round" stroke-linejoin="round" width="0.736" height="0.667"/>
<rect x="58.053" y="551.644" fill="#1A171B" width="0.736" height="0.668"/>
<rect x="58.053" y="551.644" fill="none" stroke="#1A171B" stroke-width="0.239" stroke-linecap="round" stroke-linejoin="round" width="0.736" height="0.667"/>
<rect x="70.267" y="551.644" width="0.737" height="0.668"/>
<rect x="70.266" y="551.644" fill="none" stroke="#FFFFFF" stroke-width="0.239" stroke-linecap="round" stroke-linejoin="round" width="0.737" height="0.667"/>
<polygon fill="#1A171B" points="77.424,541.052 67.043,541.04 72.789,537.44 83.181,537.435 "/>
<polygon fill="none" stroke="#1A171B" stroke-width="0.408" stroke-linejoin="bevel" stroke-miterlimit="10" points="
	77.424,541.052 67.043,541.04 72.789,537.44 83.181,537.435 "/>
<polygon fill="#1A171B" points="83.139,537.451 83.139,557.171 77.487,561.186 77.487,541.117 "/>
<polygon fill="none" stroke="#1A171B" stroke-width="0.752" stroke-linecap="round" stroke-linejoin="bevel" stroke-miterlimit="10" points="
	83.139,537.451 83.139,557.171 77.487,561.186 77.487,541.117 "/>
<rect x="73.143" y="551.644" width="0.736" height="0.668"/>
<rect x="73.142" y="551.644" fill="none" stroke="#FFFFFF" stroke-width="0.239" stroke-linecap="round" stroke-linejoin="round" width="0.737" height="0.667"/>
<rect x="67.09" y="541.125" fill="#FFFFFF" width="10.281" height="20.05"/>
<rect x="67.09" y="541.125" fill="none" stroke="#1A171B" stroke-width="0.752" stroke-linejoin="bevel" stroke-miterlimit="10" width="10.281" height="20.05"/>
<rect x="68.272" y="542.772" fill="#1A171B" width="7.603" height="1.62"/>
<rect x="68.272" y="542.772" fill="none" stroke="#FFFFFF" stroke-width="0.239" stroke-linecap="round" stroke-linejoin="round" width="7.603" height="1.62"/>
<rect x="68.272" y="545.599" fill="#1A171B" width="7.603" height="1.62"/>
<rect x="68.272" y="545.599" fill="none" stroke="#FFFFFF" stroke-width="0.239" stroke-linecap="round" stroke-linejoin="round" width="7.603" height="1.62"/>
<rect x="68.272" y="557.826" fill="#1A171B" width="7.603" height="1.62"/>
<rect x="68.272" y="557.826" fill="none" stroke="#FFFFFF" stroke-width="0.239" stroke-linecap="round" stroke-linejoin="round" width="7.603" height="1.62"/>
<rect x="71.705" y="551.644" fill="#1A171B" width="0.736" height="0.668"/>
<rect x="71.705" y="551.644" fill="none" stroke="#1A171B" stroke-width="0.239" stroke-linecap="round" stroke-linejoin="round" width="0.736" height="0.667"/>
<rect x="73.143" y="551.644" fill="#1A171B" width="0.736" height="0.668"/>
<rect x="73.143" y="551.644" fill="none" stroke="#1A171B" stroke-width="0.239" stroke-linecap="round" stroke-linejoin="round" width="0.736" height="0.667"/>
<rect x="70.267" y="551.644" fill="#1A171B" width="0.736" height="0.668"/>
<rect x="70.267" y="551.644" fill="none" stroke="#1A171B" stroke-width="0.239" stroke-linecap="round" stroke-linejoin="round" width="0.736" height="0.667"/>
<rect x="47.151" y="536.458" fill="#FFFFFF" width="37.403" height="0.899"/>
</svg>
